<?xml version="1.0" standalone="no"?>
<!DOCTYPE svg PUBLIC "-//W3C//DTD SVG 20010904//EN"
 "http://www.w3.org/TR/2001/REC-SVG-20010904/DTD/svg10.dtd">
<svg version="1.0" xmlns="http://www.w3.org/2000/svg"
 width="462.000000pt" height="831.000000pt" viewBox="0 0 462.000000 831.000000"
 preserveAspectRatio="xMidYMid meet">

<g transform="translate(0.000000,831.000000) scale(0.100000,-0.100000)"
fill="#000000" stroke="none">
<path d="M2095 8193 c-22 -2 -92 -13 -155 -24 -825 -142 -1510 -753 -1744
-1557 -82 -281 -108 -619 -70 -914 127 -982 900 -1761 1889 -1904 163 -23 450
-23 610 0 648 94 1203 449 1558 996 415 642 467 1459 136 2149 -137 287 -315
522 -544 718 -344 297 -769 484 -1207 532 -90 10 -381 12 -473 4z m589 -52
c959 -170 1679 -923 1802 -1883 24 -191 16 -482 -20 -668 -61 -324 -194 -630
-388 -895 -86 -117 -270 -311 -383 -402 -287 -232 -621 -385 -990 -454 -140
-27 -473 -37 -626 -20 -345 40 -667 156 -954 345 -551 362 -900 936 -976 1606
-16 145 -6 432 20 582 115 656 504 1209 1081 1537 239 136 510 226 800 266
153 21 477 14 634 -14z"/>
<path d="M2200 7154 c-447 -57 -812 -337 -969 -743 -58 -152 -74 -239 -75
-416 0 -168 7 -222 50 -360 92 -293 314 -554 589 -692 389 -197 877 -154 1222
106 316 238 489 603 470 991 -9 182 -46 325 -121 474 -166 323 -458 546 -816
621 -75 16 -284 27 -350 19z m336 -49 c231 -44 439 -158 605 -333 153 -160
252 -350 300 -577 17 -78 17 -333 0 -410 -52 -246 -156 -441 -322 -606 -394
-391 -1019 -437 -1469 -108 -82 60 -214 196 -267 274 -136 202 -197 405 -196
650 1 199 39 354 128 522 175 331 503 556 876 602 89 11 247 5 345 -14z"/>
<path d="M4516 581 c-5 -8 -576 -11 -2175 -11 -1533 0 -2177 -3 -2199 -11
l-31 -11 -3 -216 c-2 -120 -1 -220 3 -225 3 -4 999 -6 2215 -5 l2209 3 3 228
c2 211 -4 278 -22 248z m-4076 -246 l205 -205 -80 0 -80 0 -172 172 c-153 153
-173 177 -173 205 0 33 1 33 48 33 l47 0 205 -205z m190 0 l205 -205 -80 0
-80 0 -205 205 -205 205 80 0 80 0 205 -205z m182 8 c109 -109 198 -201 198
-205 0 -5 -35 -8 -77 -8 l-77 0 -206 205 -205 205 85 0 85 0 197 -197z m161
19 c143 -143 177 -182 177 -205 0 -26 -2 -27 -53 -27 l-52 0 -205 205 -205
205 80 0 80 0 178 -178z m95 95 l83 -83 -3 -77 -3 -77 -160 160 -160 160 80 0
80 0 83 -83z m82 13 c0 -38 -1 -70 -3 -70 -1 0 -34 32 -72 70 l-69 70 72 0 72
0 0 -70z m2310 -135 l0 -205 -1137 2 -1138 3 -3 203 -2 202 1140 0 1140 0 0
-205z m330 0 l205 -205 -80 0 -80 0 -172 172 c-153 153 -173 177 -173 205 0
33 1 33 48 33 l47 0 205 -205z m190 0 l205 -205 -80 0 -80 0 -205 205 -205
205 80 0 80 0 205 -205z m182 8 c109 -109 198 -201 198 -205 0 -5 -35 -8 -77
-8 l-77 0 -206 205 -205 205 85 0 85 0 197 -197z m161 19 c143 -143 177 -182
177 -205 0 -26 -2 -27 -53 -27 l-52 0 -205 205 -205 205 80 0 80 0 178 -178z
m95 95 l83 -83 -3 -77 -3 -77 -160 160 -160 160 80 0 80 0 83 -83z m82 13 c0
-38 -1 -70 -3 -70 -1 0 -34 32 -72 70 l-69 70 72 0 72 0 0 -70z m-4117 -338
l-77 -3 -83 83 -83 83 0 80 0 80 160 -160 160 -160 -77 -3z m3350 0 l-77 -3
-83 83 -83 83 0 80 0 80 160 -160 160 -160 -77 -3z m-3523 63 l64 -65 -67 0
-67 0 0 65 c0 36 1 65 3 65 1 0 32 -29 67 -65z m3350 0 l64 -65 -67 0 -67 0 0
65 c0 36 1 65 3 65 1 0 32 -29 67 -65z"/>
</g>
</svg>
