<?xml version="1.0" encoding="UTF-8"?>
<!DOCTYPE svg PUBLIC "-//W3C//DTD SVG 1.1//EN" "http://www.w3.org/Graphics/SVG/1.1/DTD/svg11.dtd">
<svg xmlns="http://www.w3.org/2000/svg" version="1.1" width="270px" height="375px" style="shape-rendering:geometricPrecision; text-rendering:geometricPrecision; image-rendering:optimizeQuality; fill-rule:evenodd; clip-rule:evenodd" xmlns:xlink="http://www.w3.org/1999/xlink">
<g><path style="opacity:1" fill="#fdfdfd" d="M -0.5,-0.5 C 89.5,-0.5 179.5,-0.5 269.5,-0.5C 269.5,124.5 269.5,249.5 269.5,374.5C 179.5,374.5 89.5,374.5 -0.5,374.5C -0.5,249.5 -0.5,124.5 -0.5,-0.5 Z"/></g>
<g><path style="opacity:1" fill="#434343" d="M 143.5,7.5 C 152.555,8.2655 161.221,10.2655 169.5,13.5C 168.494,13.9377 168.494,14.6043 169.5,15.5C 160.002,12.7089 150.335,10.7089 140.5,9.5C 141.5,8.83333 142.5,8.16667 143.5,7.5 Z"/></g>
<g><path style="opacity:1" fill="#686868" d="M 109.5,8.5 C 108.737,9.26791 107.737,9.76791 106.5,10C 107.448,10.4828 108.448,10.6495 109.5,10.5C 107.898,12.0739 105.898,12.7406 103.5,12.5C 106.258,11.0335 105.925,10.3668 102.5,10.5C 104.515,9.07619 106.848,8.40953 109.5,8.5 Z"/></g>
<g><path style="opacity:1" fill="#fcfcfc" d="M 140.5,9.5 C 150.335,10.7089 160.002,12.7089 169.5,15.5C 205.83,28.4968 230.497,53.1634 243.5,89.5C 244.755,97.2002 246.255,104.867 248,112.5C 248.635,124.181 248.469,135.848 247.5,147.5C 237.408,197.43 207.741,229.263 158.5,243C 104.91,252.774 62.4105,235.608 31,191.5C 13.8775,163.407 8.71086,133.407 15.5,101.5C 16.9238,99.4855 17.5905,97.1522 17.5,94.5C 27.3984,61.4269 47.7317,36.9269 78.5,21C 84.1407,18.7159 89.8074,16.3826 95.5,14C 98.2066,13.6049 100.873,13.1049 103.5,12.5C 105.898,12.7406 107.898,12.0739 109.5,10.5C 111.167,10.5 112.833,10.5 114.5,10.5C 116.5,10.5 118.5,10.5 120.5,10.5C 120.5,26.1667 120.5,41.8333 120.5,57.5C 119.209,57.2627 118.209,57.596 117.5,58.5C 95.0582,63.317 78.5582,75.9836 68,96.5C 54.6539,129.615 61.1539,158.115 87.5,182C 93.2489,186.541 99.5823,190.041 106.5,192.5C 109.505,194.277 112.838,195.277 116.5,195.5C 123.412,196.462 130.412,196.795 137.5,196.5C 140.187,196.664 142.854,196.497 145.5,196C 146.416,195.722 147.082,195.222 147.5,194.5C 180.767,184.209 198.434,161.542 200.5,126.5C 197.846,91.6832 179.846,69.1832 146.5,59C 144.527,58.5045 142.527,58.3379 140.5,58.5C 140.5,42.1667 140.5,25.8333 140.5,9.5 Z"/></g>
<g><path style="opacity:1" fill="#a0a0a0" d="M 114.5,10.5 C 116.607,9.53178 118.941,9.19845 121.5,9.5C 121.5,25.8333 121.5,42.1667 121.5,58.5C 120.167,58.5 118.833,58.5 117.5,58.5C 118.209,57.596 119.209,57.2627 120.5,57.5C 120.5,41.8333 120.5,26.1667 120.5,10.5C 118.5,10.5 116.5,10.5 114.5,10.5 Z"/></g>
<g><path style="opacity:1" fill="#313131" d="M 114.5,192.5 C 119.748,194.022 125.248,194.689 131,194.5C 134.833,194.333 138.667,194.167 142.5,194C 143.737,193.768 144.737,193.268 145.5,192.5C 173.374,184.791 190.54,166.791 197,138.5C 200.503,104.007 186.67,79.1732 155.5,64C 149.73,62.1145 143.896,60.6145 138,59.5C 137.5,42.1699 137.333,24.8365 137.5,7.5C 139.5,7.5 141.5,7.5 143.5,7.5C 142.5,8.16667 141.5,8.83333 140.5,9.5C 140.5,25.8333 140.5,42.1667 140.5,58.5C 142.527,58.3379 144.527,58.5045 146.5,59C 179.846,69.1832 197.846,91.6832 200.5,126.5C 198.434,161.542 180.767,184.209 147.5,194.5C 143.96,194.753 140.627,195.419 137.5,196.5C 130.412,196.795 123.412,196.462 116.5,195.5C 113.495,193.723 110.162,192.723 106.5,192.5C 99.5823,190.041 93.2489,186.541 87.5,182C 61.1539,158.115 54.6539,129.615 68,96.5C 78.5582,75.9836 95.0582,63.317 117.5,58.5C 118.833,58.5 120.167,58.5 121.5,58.5C 121.5,42.1667 121.5,25.8333 121.5,9.5C 118.941,9.19845 116.607,9.53178 114.5,10.5C 112.833,10.5 111.167,10.5 109.5,10.5C 108.448,10.6495 107.448,10.4828 106.5,10C 107.737,9.76791 108.737,9.26791 109.5,8.5C 114.141,7.87344 118.807,7.54011 123.5,7.5C 123.667,24.8365 123.5,42.1699 123,59.5C 87.0887,66.744 67.2553,88.5774 63.5,125C 63.9413,150.554 74.608,170.554 95.5,185C 101.575,188.265 107.909,190.765 114.5,192.5 Z"/></g>
<g><path style="opacity:1" fill="#2b2b2b" d="M 102.5,10.5 C 105.925,10.3668 106.258,11.0335 103.5,12.5C 100.873,13.1049 98.2066,13.6049 95.5,14C 89.8074,16.3826 84.1407,18.7159 78.5,21C 47.7317,36.9269 27.3984,61.4269 17.5,94.5C 16.0762,96.5145 15.4095,98.8478 15.5,101.5C 8.71086,133.407 13.8775,163.407 31,191.5C 62.4105,235.608 104.91,252.774 158.5,243C 207.741,229.263 237.408,197.43 247.5,147.5C 248.302,146.048 248.802,144.382 249,142.5C 249.667,131.5 249.667,120.5 249,109.5C 248.076,102.461 246.243,95.7943 243.5,89.5C 230.497,53.1634 205.83,28.4968 169.5,15.5C 168.494,14.6043 168.494,13.9377 169.5,13.5C 211.784,28.6206 238.617,57.9539 250,101.5C 257.595,148.32 244.095,187.82 209.5,220C 164.848,253.616 117.848,257.283 68.5,231C 25.9454,202.717 6.77876,162.884 11,111.5C 19.556,63.966 46.056,31.1327 90.5,13C 94.514,12.1626 98.514,11.3292 102.5,10.5 Z"/></g>
<g><path style="opacity:1" fill="#a6a6a6" d="M 147.5,194.5 C 147.082,195.222 146.416,195.722 145.5,196C 142.854,196.497 140.187,196.664 137.5,196.5C 140.627,195.419 143.96,194.753 147.5,194.5 Z"/></g>
<g><path style="opacity:1" fill="#9e9e9e" d="M 114.5,192.5 C 124.845,193.694 135.179,193.694 145.5,192.5C 144.737,193.268 143.737,193.768 142.5,194C 138.667,194.167 134.833,194.333 131,194.5C 125.248,194.689 119.748,194.022 114.5,192.5 Z"/></g>
<g><path style="opacity:1" fill="#747474" d="M 106.5,192.5 C 110.162,192.723 113.495,193.723 116.5,195.5C 112.838,195.277 109.505,194.277 106.5,192.5 Z"/></g>
<g><path style="opacity:1" fill="#d0d0d0" d="M 243.5,89.5 C 246.243,95.7943 248.076,102.461 249,109.5C 249.667,120.5 249.667,131.5 249,142.5C 248.802,144.382 248.302,146.048 247.5,147.5C 248.469,135.848 248.635,124.181 248,112.5C 246.255,104.867 244.755,97.2002 243.5,89.5 Z"/></g>
<g><path style="opacity:1" fill="#a9a9a9" d="M 17.5,94.5 C 17.5905,97.1522 16.9238,99.4855 15.5,101.5C 15.4095,98.8478 16.0762,96.5145 17.5,94.5 Z"/></g>
<g><path style="opacity:1" fill="#fbfbfb" d="M 107.5,296.5 C 111.833,296.5 116.167,296.5 120.5,296.5C 120.5,306.5 120.5,316.5 120.5,326.5C 108.823,326.704 97.1565,327.204 85.5,328C 83.2922,328.191 81.2922,328.691 79.5,329.5C 79.1667,329.5 78.8333,329.5 78.5,329.5C 63.4515,329.884 48.4515,330.884 33.5,332.5C 28.8781,332.156 24.5448,332.823 20.5,334.5C 16.498,335.734 13.998,334.067 13,329.5C 12.3333,322.5 12.3333,315.5 13,308.5C 15.1692,304.99 18.3359,302.823 22.5,302C 50.7669,299.294 79.1002,297.461 107.5,296.5 Z"/></g>
<g><path style="opacity:1" fill="#2a2a2a" d="M 115.5,293.5 C 117.5,294.167 119.5,294.833 121.5,295.5C 116.637,295.181 111.97,295.514 107.5,296.5C 79.1002,297.461 50.7669,299.294 22.5,302C 18.3359,302.823 15.1692,304.99 13,308.5C 12.3333,315.5 12.3333,322.5 13,329.5C 13.998,334.067 16.498,335.734 20.5,334.5C 21.8734,334.343 23.2068,334.51 24.5,335C 23.1175,336.461 23.4508,337.294 25.5,337.5C 25.8333,337.5 26.1667,337.5 26.5,337.5C 24.3926,338.468 22.0593,338.802 19.5,338.5C 15.6416,337.48 12.8083,335.147 11,331.5C 10.3333,323.167 10.3333,314.833 11,306.5C 12.9384,303.894 15.4384,302.061 18.5,301C 50.6962,296.887 83.0295,294.387 115.5,293.5 Z"/></g>
<g><path style="opacity:1" fill="#aeaeae" d="M 135.5,310.5 C 144.506,310.334 153.506,310.5 162.5,311C 170.391,311.132 178.058,311.966 185.5,313.5C 168.656,312.913 151.989,311.913 135.5,310.5 Z"/></g>
<g><path style="opacity:1" fill="#f6f6f6" d="M 123.5,312.5 C 140.879,313.66 158.212,314.993 175.5,316.5C 179.295,317.617 183.295,318.283 187.5,318.5C 188.5,318.5 189.5,318.5 190.5,318.5C 192.369,319.165 194.369,319.831 196.5,320.5C 193.109,321.717 189.776,322.717 186.5,323.5C 177.786,323.638 169.12,324.305 160.5,325.5C 152.929,325.157 145.596,325.823 138.5,327.5C 137.512,332.64 137.179,337.974 137.5,343.5C 131.833,343.5 126.167,343.5 120.5,343.5C 109.47,342.315 98.4697,341.315 87.5,340.5C 82.9097,338.978 78.0764,337.978 73,337.5C 69.9925,337.001 69.8259,336.001 72.5,334.5C 73.791,334.737 74.791,334.404 75.5,333.5C 87.4655,332.103 99.4655,331.103 111.5,330.5C 115.548,330.605 119.548,330.272 123.5,329.5C 123.5,323.833 123.5,318.167 123.5,312.5 Z"/></g>
<g><path style="opacity:1" fill="#b2b2b2" d="M 191.5,313.5 C 204.753,313.142 217.753,314.142 230.5,316.5C 229.5,316.5 228.5,316.5 227.5,316.5C 215.327,315.795 203.327,314.795 191.5,313.5 Z"/></g>
<g><path style="opacity:1" fill="#666666" d="M 123.5,312.5 C 123.5,318.167 123.5,323.833 123.5,329.5C 119.548,330.272 115.548,330.605 111.5,330.5C 114.997,329.598 118.663,328.931 122.5,328.5C 122.179,322.974 122.512,317.64 123.5,312.5 Z"/></g>
<g><path style="opacity:1" fill="#a7a7a7" d="M 230.5,317.5 C 230.5,317.167 230.5,316.833 230.5,316.5C 234.489,316.116 238.155,316.783 241.5,318.5C 237.865,317.886 234.198,317.552 230.5,317.5 Z"/></g>
<g><path style="opacity:1" fill="#e3e3e3" d="M 193.5,317.5 C 194.209,316.596 195.209,316.263 196.5,316.5C 204.154,317.07 211.821,317.404 219.5,317.5C 223.618,318.709 227.951,319.376 232.5,319.5C 239.068,320.245 238.902,320.912 232,321.5C 219.219,323.355 206.385,324.188 193.5,324C 196.251,323.484 198.584,322.317 200.5,320.5C 199.2,318.949 197.533,317.949 195.5,317.5C 194.833,317.5 194.167,317.5 193.5,317.5 Z"/></g>
<g><path style="opacity:1" fill="#4f4f4f" d="M 227.5,316.5 C 228.5,316.5 229.5,316.5 230.5,316.5C 230.5,316.833 230.5,317.167 230.5,317.5C 229.761,317.369 229.094,317.536 228.5,318C 230.058,318.21 231.391,318.71 232.5,319.5C 227.951,319.376 223.618,318.709 219.5,317.5C 222.385,317.806 225.052,317.473 227.5,316.5 Z"/></g>
<g><path style="opacity:1" fill="#aaaaaa" d="M 242.5,318.5 C 246.237,318.241 248.57,319.907 249.5,323.5C 247.4,321.384 245.067,319.717 242.5,318.5 Z"/></g>
<g><path style="opacity:1" fill="#fbfbfb" d="M 169.5,360.5 C 165.833,360.5 162.167,360.5 158.5,360.5C 152.5,360.5 146.5,360.5 140.5,360.5C 140.5,350.167 140.5,339.833 140.5,329.5C 144.5,329.5 148.5,329.5 152.5,329.5C 162.717,329.825 172.717,329.158 182.5,327.5C 186.371,327.815 190.038,327.482 193.5,326.5C 210.644,325.918 227.644,324.418 244.5,322C 246,322.833 247.167,324 248,325.5C 248.937,333.937 248.604,342.27 247,350.5C 243.489,352.676 239.656,354.176 235.5,355C 213.391,357.171 191.391,359.004 169.5,360.5 Z"/></g>
<g><path style="opacity:1" fill="#9e9e9e" d="M 160.5,325.5 C 153.347,326.538 146.014,327.204 138.5,327.5C 145.596,325.823 152.929,325.157 160.5,325.5 Z"/></g>
<g><path style="opacity:1" fill="#a4a4a4" d="M 107.5,296.5 C 111.97,295.514 116.637,295.181 121.5,295.5C 121.5,306.167 121.5,316.833 121.5,327.5C 107.485,327.882 93.4855,328.549 79.5,329.5C 81.2922,328.691 83.2922,328.191 85.5,328C 97.1565,327.204 108.823,326.704 120.5,326.5C 120.5,316.5 120.5,306.5 120.5,296.5C 116.167,296.5 111.833,296.5 107.5,296.5 Z"/></g>
<g><path style="opacity:1" fill="#1f1f1f" d="M 115.5,293.5 C 118.167,293.5 120.833,293.5 123.5,293.5C 123.5,299.167 123.5,304.833 123.5,310.5C 127.5,310.5 131.5,310.5 135.5,310.5C 151.989,311.913 168.656,312.913 185.5,313.5C 187.5,313.5 189.5,313.5 191.5,313.5C 203.327,314.795 215.327,315.795 227.5,316.5C 225.052,317.473 222.385,317.806 219.5,317.5C 211.821,317.404 204.154,317.07 196.5,316.5C 193.696,315.362 190.696,315.195 187.5,316C 189.518,316.505 191.518,317.005 193.5,317.5C 194.167,317.5 194.833,317.5 195.5,317.5C 194.081,318.451 192.415,318.784 190.5,318.5C 189.5,318.5 188.5,318.5 187.5,318.5C 187.082,317.778 186.416,317.278 185.5,317C 182.183,316.502 178.85,316.335 175.5,316.5C 158.212,314.993 140.879,313.66 123.5,312.5C 122.512,317.64 122.179,322.974 122.5,328.5C 118.663,328.931 114.997,329.598 111.5,330.5C 99.4655,331.103 87.4655,332.103 75.5,333.5C 74.1266,333.657 72.7932,333.49 71.5,333C 73.9215,331.789 76.2548,330.623 78.5,329.5C 78.8333,329.5 79.1667,329.5 79.5,329.5C 93.4855,328.549 107.485,327.882 121.5,327.5C 121.5,316.833 121.5,306.167 121.5,295.5C 119.5,294.833 117.5,294.167 115.5,293.5 Z"/></g>
<g><path style="opacity:1" fill="#606060" d="M 196.5,316.5 C 195.209,316.263 194.209,316.596 193.5,317.5C 191.518,317.005 189.518,316.505 187.5,316C 190.696,315.195 193.696,315.362 196.5,316.5 Z"/></g>
<g><path style="opacity:1" fill="#5d5d5d" d="M 175.5,316.5 C 178.85,316.335 182.183,316.502 185.5,317C 186.416,317.278 187.082,317.778 187.5,318.5C 183.295,318.283 179.295,317.617 175.5,316.5 Z"/></g>
<g><path style="opacity:1" fill="#bbbbbb" d="M 182.5,327.5 C 172.717,329.158 162.717,329.825 152.5,329.5C 162.323,328.455 172.323,327.788 182.5,327.5 Z"/></g>
<g><path style="opacity:1" fill="#343434" d="M 78.5,329.5 C 76.2548,330.623 73.9215,331.789 71.5,333C 72.7932,333.49 74.1266,333.657 75.5,333.5C 74.791,334.404 73.791,334.737 72.5,334.5C 69.6786,334.539 67.0119,335.205 64.5,336.5C 69.5426,338.019 74.5426,339.353 79.5,340.5C 77.6214,340.393 77.2881,340.893 78.5,342C 84.9884,342.784 91.3217,343.617 97.5,344.5C 76.7881,343.741 56.1214,342.408 35.5,340.5C 33.0314,339.683 30.3647,339.183 27.5,339C 29.4727,338.505 31.4727,338.338 33.5,338.5C 38.4635,339.254 43.4635,339.587 48.5,339.5C 54.3456,340.817 60.3456,340.817 66.5,339.5C 65.3112,338.571 63.9778,338.238 62.5,338.5C 61.218,337.292 61.218,335.958 62.5,334.5C 64.1151,333.846 65.7818,333.346 67.5,333C 54.8196,332.911 42.1529,333.411 29.5,334.5C 28.448,334.649 27.448,334.483 26.5,334C 29.0356,333.814 31.369,333.314 33.5,332.5C 48.4515,330.884 63.4515,329.884 78.5,329.5 Z"/></g>
<g><path style="opacity:1" fill="#5d5d5d" d="M 33.5,332.5 C 31.369,333.314 29.0356,333.814 26.5,334C 27.448,334.483 28.448,334.649 29.5,334.5C 27.7809,335.022 26.4475,336.022 25.5,337.5C 23.4508,337.294 23.1175,336.461 24.5,335C 23.2068,334.51 21.8734,334.343 20.5,334.5C 24.5448,332.823 28.8781,332.156 33.5,332.5 Z"/></g>
<g><path style="opacity:1" fill="#e4e4e4" d="M 62.5,338.5 C 58.03,339.486 53.3633,339.819 48.5,339.5C 43.4635,339.587 38.4635,339.254 33.5,338.5C 31.3926,337.532 29.0593,337.198 26.5,337.5C 26.1667,337.5 25.8333,337.5 25.5,337.5C 26.4475,336.022 27.7809,335.022 29.5,334.5C 42.1529,333.411 54.8196,332.911 67.5,333C 65.7818,333.346 64.1151,333.846 62.5,334.5C 61.218,335.958 61.218,337.292 62.5,338.5 Z"/></g>
<g><path style="opacity:1" fill="#8b8b8b" d="M 138.5,327.5 C 138.5,333.167 138.5,338.833 138.5,344.5C 135.833,344.5 133.167,344.5 130.5,344.5C 126.958,344.813 123.625,344.479 120.5,343.5C 126.167,343.5 131.833,343.5 137.5,343.5C 137.179,337.974 137.512,332.64 138.5,327.5 Z"/></g>
<g><path style="opacity:1" fill="#b2b2b2" d="M 72.5,334.5 C 69.8259,336.001 69.9925,337.001 73,337.5C 78.0764,337.978 82.9097,338.978 87.5,340.5C 84.8333,340.5 82.1667,340.5 79.5,340.5C 74.5426,339.353 69.5426,338.019 64.5,336.5C 67.0119,335.205 69.6786,334.539 72.5,334.5 Z"/></g>
<g><path style="opacity:1" fill="#616161" d="M 26.5,337.5 C 29.0593,337.198 31.3926,337.532 33.5,338.5C 31.4727,338.338 29.4727,338.505 27.5,339C 30.3647,339.183 33.0314,339.683 35.5,340.5C 29.9016,340.844 24.5683,340.178 19.5,338.5C 22.0593,338.802 24.3926,338.468 26.5,337.5 Z"/></g>
<g><path style="opacity:1" fill="#949494" d="M 62.5,338.5 C 63.9778,338.238 65.3112,338.571 66.5,339.5C 60.3456,340.817 54.3456,340.817 48.5,339.5C 53.3633,339.819 58.03,339.486 62.5,338.5 Z"/></g>
<g><path style="opacity:1" fill="#1f1f1f" d="M 79.5,340.5 C 82.1667,340.5 84.8333,340.5 87.5,340.5C 98.4697,341.315 109.47,342.315 120.5,343.5C 123.625,344.479 126.958,344.813 130.5,344.5C 126.03,345.486 121.363,345.819 116.5,345.5C 110.143,345.524 103.81,345.19 97.5,344.5C 91.3217,343.617 84.9884,342.784 78.5,342C 77.2881,340.893 77.6214,340.393 79.5,340.5 Z"/></g>
<g><path style="opacity:1" fill="#4a4a4a" d="M 130.5,344.5 C 133.167,344.5 135.833,344.5 138.5,344.5C 138.167,345.167 137.833,345.833 137.5,346.5C 134.167,346.5 130.833,346.5 127.5,346.5C 123.629,346.815 119.962,346.482 116.5,345.5C 121.363,345.819 126.03,345.486 130.5,344.5 Z"/></g>
<g><path style="opacity:1" fill="#696969" d="M 140.5,329.5 C 140.5,339.833 140.5,350.167 140.5,360.5C 146.5,360.5 152.5,360.5 158.5,360.5C 152.355,361.49 146.022,361.823 139.5,361.5C 139.172,350.654 139.506,339.987 140.5,329.5 Z"/></g>
<g><path style="opacity:1" fill="#919191" d="M 127.5,346.5 C 130.833,346.5 134.167,346.5 137.5,346.5C 138.489,351.975 138.822,357.642 138.5,363.5C 137.512,358.36 137.179,353.026 137.5,347.5C 133.958,347.813 130.625,347.479 127.5,346.5 Z"/></g>
<g><path style="opacity:1" fill="#252525" d="M 186.5,323.5 C 188.693,324.895 191.026,325.895 193.5,326.5C 190.038,327.482 186.371,327.815 182.5,327.5C 172.323,327.788 162.323,328.455 152.5,329.5C 148.5,329.5 144.5,329.5 140.5,329.5C 139.506,339.987 139.172,350.654 139.5,361.5C 146.022,361.823 152.355,361.49 158.5,360.5C 162.167,360.5 165.833,360.5 169.5,360.5C 172.385,360.194 175.052,360.527 177.5,361.5C 164.531,362.635 151.531,363.302 138.5,363.5C 138.822,357.642 138.489,351.975 137.5,346.5C 137.833,345.833 138.167,345.167 138.5,344.5C 138.5,338.833 138.5,333.167 138.5,327.5C 146.014,327.204 153.347,326.538 160.5,325.5C 169.12,324.305 177.786,323.638 186.5,323.5 Z"/></g>
<g><path style="opacity:1" fill="#3a3a3a" d="M 195.5,317.5 C 197.533,317.949 199.2,318.949 200.5,320.5C 198.584,322.317 196.251,323.484 193.5,324C 206.385,324.188 219.219,323.355 232,321.5C 238.902,320.912 239.068,320.245 232.5,319.5C 231.391,318.71 230.058,318.21 228.5,318C 229.094,317.536 229.761,317.369 230.5,317.5C 234.198,317.552 237.865,317.886 241.5,318.5C 241.833,318.5 242.167,318.5 242.5,318.5C 245.067,319.717 247.4,321.384 249.5,323.5C 250.222,323.918 250.722,324.584 251,325.5C 251.167,329.333 251.333,333.167 251.5,337C 253.901,346.538 250.568,352.871 241.5,356C 235.176,356.999 228.843,357.832 222.5,358.5C 209.663,359.225 196.996,360.225 184.5,361.5C 182.167,361.5 179.833,361.5 177.5,361.5C 175.052,360.527 172.385,360.194 169.5,360.5C 191.391,359.004 213.391,357.171 235.5,355C 239.656,354.176 243.489,352.676 247,350.5C 248.604,342.27 248.937,333.937 248,325.5C 247.167,324 246,322.833 244.5,322C 227.644,324.418 210.644,325.918 193.5,326.5C 191.026,325.895 188.693,324.895 186.5,323.5C 189.776,322.717 193.109,321.717 196.5,320.5C 194.369,319.831 192.369,319.165 190.5,318.5C 192.415,318.784 194.081,318.451 195.5,317.5 Z"/></g>
<g><path style="opacity:1" fill="#c1c1c1" d="M 222.5,358.5 C 221.391,359.29 220.058,359.79 218.5,360C 207.191,361.086 195.858,361.586 184.5,361.5C 196.996,360.225 209.663,359.225 222.5,358.5 Z"/></g>
</svg>
