<?xml version="1.0" encoding="UTF-8"?>
<!DOCTYPE svg PUBLIC "-//W3C//DTD SVG 1.1//EN" "http://www.w3.org/Graphics/SVG/1.1/DTD/svg11.dtd">
<svg xmlns="http://www.w3.org/2000/svg" version="1.1" width="246px" height="337px" style="shape-rendering:geometricPrecision; text-rendering:geometricPrecision; image-rendering:optimizeQuality; fill-rule:evenodd; clip-rule:evenodd" xmlns:xlink="http://www.w3.org/1999/xlink">
<g><path style="opacity:1" fill="#fdfdfd" d="M -0.5,-0.5 C 81.5,-0.5 163.5,-0.5 245.5,-0.5C 245.5,111.833 245.5,224.167 245.5,336.5C 163.5,336.5 81.5,336.5 -0.5,336.5C -0.5,224.167 -0.5,111.833 -0.5,-0.5 Z"/></g>
<g><path style="opacity:1" fill="#838383" d="M 107.5,9.5 C 112.322,8.83403 117.322,8.50069 122.5,8.5C 129.411,8.27564 136.078,8.94231 142.5,10.5C 141.127,10.3433 139.793,10.51 138.5,11C 139.737,11.2321 140.737,11.7321 141.5,12.5C 137.865,11.8857 134.198,11.5524 130.5,11.5C 130.5,11.1667 130.5,10.8333 130.5,10.5C 126.892,9.39181 119.225,9.05848 107.5,9.5 Z"/></g>
<g><path style="opacity:1" fill="#383838" d="M 107.5,9.5 C 119.225,9.05848 126.892,9.39181 130.5,10.5C 121.146,10.39 111.812,10.7233 102.5,11.5C 102.5,11.1667 102.5,10.8333 102.5,10.5C 104.415,10.7845 106.081,10.4511 107.5,9.5 Z"/></g>
<g><path style="opacity:1" fill="#999999" d="M 107.5,9.5 C 106.081,10.4511 104.415,10.7845 102.5,10.5C 100.565,11.1495 98.5648,11.4828 96.5,11.5C 99.8448,9.78303 103.511,9.11636 107.5,9.5 Z"/></g>
<g><path style="opacity:1" fill="#b5b5b5" d="M 130.5,10.5 C 130.5,10.8333 130.5,11.1667 130.5,11.5C 121.148,11.4343 111.815,11.7676 102.5,12.5C 102.5,12.1667 102.5,11.8333 102.5,11.5C 111.812,10.7233 121.146,10.39 130.5,10.5 Z"/></g>
<g><path style="opacity:1" fill="#e4e4e4" d="M 130.5,11.5 C 134.198,11.5524 137.865,11.8857 141.5,12.5C 156.379,14.5709 170.379,19.2376 183.5,26.5C 183.158,27.3382 182.492,27.6716 181.5,27.5C 149.18,12.1024 115.846,9.60235 81.5,20C 78.3672,20.8596 75.7005,22.3596 73.5,24.5C 68.8561,25.3205 64.5227,26.9872 60.5,29.5C 59.8333,29.5 59.5,29.1667 59.5,28.5C 64.1479,25.1724 69.1479,22.3391 74.5,20C 83.5789,16.5635 92.9122,14.0635 102.5,12.5C 111.815,11.7676 121.148,11.4343 130.5,11.5 Z"/></g>
<g><path style="opacity:1" fill="#545454" d="M 102.5,10.5 C 102.5,10.8333 102.5,11.1667 102.5,11.5C 102.5,11.8333 102.5,12.1667 102.5,12.5C 92.9122,14.0635 83.5789,16.5635 74.5,20C 69.1479,22.3391 64.1479,25.1724 59.5,28.5C 59.1667,28.5 58.8333,28.5 58.5,28.5C 58.5,27.8333 58.1667,27.5 57.5,27.5C 69.1539,19.1821 82.1539,13.8488 96.5,11.5C 98.5648,11.4828 100.565,11.1495 102.5,10.5 Z"/></g>
<g><path style="opacity:1" fill="#fcfcfc" d="M 201.5,42.5 C 207.797,47.1289 213.463,52.4623 218.5,58.5C 238.628,91.2199 238.461,123.887 218,156.5C 210.487,165.194 201.987,172.527 192.5,178.5C 139.097,208.239 88.0974,204.906 39.5,168.5C 36.8333,165.833 34.1667,163.167 31.5,160.5C 20.793,146.734 14.793,131.067 13.5,113.5C 13.6291,106.155 13.9625,98.8219 14.5,91.5C 16.565,78.7013 21.3983,67.0346 29,56.5C 41.7989,43.1938 56.6322,32.8605 73.5,25.5C 119.214,8.55476 161.881,14.2214 201.5,42.5 Z"/></g>
<g><path style="opacity:1" fill="#535353" d="M 142.5,10.5 C 163.611,13.7216 182.611,21.8882 199.5,35C 201.706,37.0367 203.706,39.2034 205.5,41.5C 205.631,42.2389 205.464,42.9056 205,43.5C 203.959,41.6885 202.793,41.3552 201.5,42.5C 161.881,14.2214 119.214,8.55476 73.5,25.5C 73.5,25.1667 73.5,24.8333 73.5,24.5C 75.7005,22.3596 78.3672,20.8596 81.5,20C 115.846,9.60235 149.18,12.1024 181.5,27.5C 188.443,31.3113 195.109,35.6447 201.5,40.5C 201.833,40.3333 202.167,40.1667 202.5,40C 196.565,34.8924 190.232,30.3924 183.5,26.5C 170.379,19.2376 156.379,14.5709 141.5,12.5C 140.737,11.7321 139.737,11.2321 138.5,11C 139.793,10.51 141.127,10.3433 142.5,10.5 Z"/></g>
<g><path style="opacity:1" fill="#b4b4b4" d="M 183.5,26.5 C 190.232,30.3924 196.565,34.8924 202.5,40C 202.167,40.1667 201.833,40.3333 201.5,40.5C 195.109,35.6447 188.443,31.3113 181.5,27.5C 182.492,27.6716 183.158,27.3382 183.5,26.5 Z"/></g>
<g><path style="opacity:1" fill="#252525" d="M 201.5,42.5 C 202.793,41.3552 203.959,41.6885 205,43.5C 205.464,42.9056 205.631,42.2389 205.5,41.5C 211.256,45.9197 215.922,51.253 219.5,57.5C 219.5,58.1667 219.167,58.5 218.5,58.5C 213.463,52.4623 207.797,47.1289 201.5,42.5 Z"/></g>
<g><path style="opacity:1" fill="#535353" d="M 150.5,61.5 C 149.833,61.5 149.5,61.8333 149.5,62.5C 135.128,57.1331 120.461,56.1331 105.5,59.5C 104.791,58.596 103.791,58.2627 102.5,58.5C 105.258,57.2395 108.258,56.4061 111.5,56C 125.214,54.0315 138.214,55.8648 150.5,61.5 Z"/></g>
<g><path style="opacity:1" fill="#fcfcfc" d="M 149.5,62.5 C 173.998,74.1573 184.331,93.4906 180.5,120.5C 169.46,146.208 149.793,159.208 121.5,159.5C 113.486,159.245 105.819,157.579 98.5,154.5C 74.0002,143.841 63.1668,125.174 66,98.5C 71.7225,77.944 84.8892,64.944 105.5,59.5C 120.461,56.1331 135.128,57.1331 149.5,62.5 Z"/></g>
<g><path style="opacity:1" fill="#393939" d="M 73.5,24.5 C 73.5,24.8333 73.5,25.1667 73.5,25.5C 56.6322,32.8605 41.7989,43.1938 29,56.5C 21.3983,67.0346 16.565,78.7013 14.5,91.5C 12.4811,98.7768 12.1478,106.11 13.5,113.5C 14.793,131.067 20.793,146.734 31.5,160.5C 30.8333,160.5 30.5,160.833 30.5,161.5C 13.8983,140.768 7.73164,117.102 12,90.5C 18.4582,63.2088 33.6249,42.2088 57.5,27.5C 58.1667,27.5 58.5,27.8333 58.5,28.5C 53.1697,31.8398 48.1697,35.6732 43.5,40C 44.1667,40.6667 44.8333,40.6667 45.5,40C 50.403,36.2476 55.403,32.7476 60.5,29.5C 64.5227,26.9872 68.8561,25.3205 73.5,24.5 Z"/></g>
<g><path style="opacity:1" fill="#b0b0b0" d="M 58.5,28.5 C 58.8333,28.5 59.1667,28.5 59.5,28.5C 59.5,29.1667 59.8333,29.5 60.5,29.5C 55.403,32.7476 50.403,36.2476 45.5,40C 44.8333,40.6667 44.1667,40.6667 43.5,40C 48.1697,35.6732 53.1697,31.8398 58.5,28.5 Z"/></g>
<g><path style="opacity:1" fill="#3e3e3e" d="M 102.5,58.5 C 103.791,58.2627 104.791,58.596 105.5,59.5C 84.8892,64.944 71.7225,77.944 66,98.5C 63.1668,125.174 74.0002,143.841 98.5,154.5C 98.1583,155.338 97.4916,155.672 96.5,155.5C 67.1555,140.8 57.6555,117.8 68,86.5C 75.7911,72.5371 87.2911,63.2038 102.5,58.5 Z"/></g>
<g><path style="opacity:1" fill="#303030" d="M 149.5,62.5 C 149.5,61.8333 149.833,61.5 150.5,61.5C 175.746,73.6601 185.746,93.3268 180.5,120.5C 184.331,93.4906 173.998,74.1573 149.5,62.5 Z"/></g>
<g><path style="opacity:1" fill="#b6b6b6" d="M 14.5,91.5 C 13.9625,98.8219 13.6291,106.155 13.5,113.5C 12.1478,106.11 12.4811,98.7768 14.5,91.5 Z"/></g>
<g><path style="opacity:1" fill="#515151" d="M 180.5,120.5 C 177.269,133.573 169.936,143.74 158.5,151C 138.42,163.032 117.753,164.532 96.5,155.5C 97.4916,155.672 98.1583,155.338 98.5,154.5C 105.819,157.579 113.486,159.245 121.5,159.5C 149.793,159.208 169.46,146.208 180.5,120.5 Z"/></g>
<g><path style="opacity:1" fill="#1e1e1e" d="M 31.5,160.5 C 34.1667,163.167 36.8333,165.833 39.5,168.5C 38.8902,169.391 38.5569,170.391 38.5,171.5C 35.4602,168.461 32.7935,165.127 30.5,161.5C 30.5,160.833 30.8333,160.5 31.5,160.5 Z"/></g>
<g><path style="opacity:1" fill="#424242" d="M 219.5,57.5 C 239.909,88.8618 240.742,120.862 222,153.5C 209.596,172.41 193.096,186.41 172.5,195.5C 171.167,195.5 169.833,195.5 168.5,195.5C 180.237,190.796 190.903,184.296 200.5,176C 197.807,176.84 195.14,178.007 192.5,179.5C 192.5,179.167 192.5,178.833 192.5,178.5C 201.987,172.527 210.487,165.194 218,156.5C 238.461,123.887 238.628,91.2199 218.5,58.5C 219.167,58.5 219.5,58.1667 219.5,57.5 Z"/></g>
<g><path style="opacity:1" fill="#505050" d="M 39.5,168.5 C 88.0974,204.906 139.097,208.239 192.5,178.5C 192.5,178.833 192.5,179.167 192.5,179.5C 174.92,191.742 155.253,198.576 133.5,200C 109.284,202.076 86.2844,197.91 64.5,187.5C 57.2365,182.753 50.0698,177.753 43,172.5C 42.3333,173.167 42.3333,173.833 43,174.5C 49.602,179.547 56.4353,184.214 63.5,188.5C 88.1447,202.189 114.478,206.689 142.5,202C 151.361,200.545 160.028,198.378 168.5,195.5C 169.833,195.5 171.167,195.5 172.5,195.5C 130.499,212.202 90.4994,208.368 52.5,184C 47.5723,180.051 42.9057,175.884 38.5,171.5C 38.5569,170.391 38.8902,169.391 39.5,168.5 Z"/></g>
<g><path style="opacity:1" fill="#b0b0b0" d="M 64.5,187.5 C 63.8333,187.5 63.5,187.833 63.5,188.5C 56.4353,184.214 49.602,179.547 43,174.5C 42.3333,173.833 42.3333,173.167 43,172.5C 50.0698,177.753 57.2365,182.753 64.5,187.5 Z"/></g>
<g><path style="opacity:1" fill="#d9d9d9" d="M 168.5,195.5 C 160.028,198.378 151.361,200.545 142.5,202C 114.478,206.689 88.1447,202.189 63.5,188.5C 63.5,187.833 63.8333,187.5 64.5,187.5C 86.2844,197.91 109.284,202.076 133.5,200C 155.253,198.576 174.92,191.742 192.5,179.5C 195.14,178.007 197.807,176.84 200.5,176C 190.903,184.296 180.237,190.796 168.5,195.5 Z"/></g>
<g><path style="opacity:1" fill="#f6f6f6" d="M 130.5,306.5 C 127.848,306.41 125.515,307.076 123.5,308.5C 121.901,308.232 120.568,308.566 119.5,309.5C 107.495,312.168 95.4952,314.835 83.5,317.5C 73.7456,319.367 64.079,321.034 54.5,322.5C 46.16,322.666 37.8267,322.5 29.5,322C 22.8218,321.497 17.4884,318.663 13.5,313.5C 13.1984,310.941 13.5318,308.607 14.5,306.5C 18.9521,309.634 23.9521,311.467 29.5,312C 37.0118,312.822 44.3451,312.655 51.5,311.5C 68.8994,309.686 85.8994,306.353 102.5,301.5C 106.323,300.664 109.989,299.664 113.5,298.5C 115.435,297.85 117.435,297.517 119.5,297.5C 140.187,291.863 161.187,287.696 182.5,285C 198.945,282.561 214.611,284.895 229.5,292C 233.06,295.178 234.06,299.011 232.5,303.5C 222.148,296.417 210.648,293.417 198,294.5C 189.112,294.731 180.279,295.564 171.5,297C 157.534,299.41 143.867,302.577 130.5,306.5 Z"/></g>
<g><path style="opacity:1" fill="#c6c6c6" d="M 75.5,286.5 C 80.9111,286.125 85.9111,287.125 90.5,289.5C 85.2729,289.022 80.2729,288.022 75.5,286.5 Z"/></g>
<g><path style="opacity:1" fill="#f8f8f8" d="M 69.5,301.5 C 74.9753,302.489 80.642,302.822 86.5,302.5C 87.791,302.263 88.791,302.596 89.5,303.5C 82.0588,304.406 74.7255,305.74 67.5,307.5C 55.8483,308.404 44.1816,309.07 32.5,309.5C 26.8575,309.672 21.5242,308.505 16.5,306C 11.1667,302 11.1667,298 16.5,294C 29.6753,287.212 43.6753,284.879 58.5,287C 73.3541,288.19 88.0208,290.523 102.5,294C 92.51,293.72 82.51,293.72 72.5,294C 69.9471,294.761 67.4471,295.594 65,296.5C 63.8228,300.492 65.3228,302.158 69.5,301.5 Z"/></g>
<g><path style="opacity:1" fill="#434343" d="M 75.5,286.5 C 80.2729,288.022 85.2729,289.022 90.5,289.5C 97.6986,290.802 104.699,292.469 111.5,294.5C 111.062,294.435 110.728,294.601 110.5,295C 111.636,296.145 112.636,297.312 113.5,298.5C 109.989,299.664 106.323,300.664 102.5,301.5C 100.821,301.715 99.8212,301.048 99.5,299.5C 102.839,299.11 106.173,298.61 109.5,298C 107.063,296.625 104.397,296.125 101.5,296.5C 91.8605,295.441 82.1938,295.275 72.5,296C 64.6706,298.386 65.0039,299.886 73.5,300.5C 72.4324,301.434 71.099,301.768 69.5,301.5C 65.3228,302.158 63.8228,300.492 65,296.5C 67.4471,295.594 69.9471,294.761 72.5,294C 82.51,293.72 92.51,293.72 102.5,294C 88.0208,290.523 73.3541,288.19 58.5,287C 43.6753,284.879 29.6753,287.212 16.5,294C 11.1667,298 11.1667,302 16.5,306C 21.5242,308.505 26.8575,309.672 32.5,309.5C 37.9753,310.489 43.642,310.822 49.5,310.5C 50.4916,310.328 51.1583,310.662 51.5,311.5C 44.3451,312.655 37.0118,312.822 29.5,312C 23.9521,311.467 18.9521,309.634 14.5,306.5C 14.44,305.957 14.1067,305.624 13.5,305.5C 12.52,308.086 12.1866,310.753 12.5,313.5C 12.1667,313.5 11.8333,313.5 11.5,313.5C 7.16863,301.79 10.8353,293.623 22.5,289C 31.5325,285.861 40.8659,284.361 50.5,284.5C 58.8449,285.085 67.1782,285.752 75.5,286.5 Z"/></g>
<g><path style="opacity:1" fill="#101010" d="M 111.5,294.5 C 113.806,294.993 116.139,295.326 118.5,295.5C 118.833,296.167 119.167,296.833 119.5,297.5C 117.435,297.517 115.435,297.85 113.5,298.5C 112.636,297.312 111.636,296.145 110.5,295C 110.728,294.601 111.062,294.435 111.5,294.5 Z"/></g>
<g><path style="opacity:1" fill="#424242" d="M 234.5,312.5 C 234.167,312.5 233.833,312.5 233.5,312.5C 234.295,308.406 232.962,305.239 229.5,303C 217.9,297.182 205.567,295.015 192.5,296.5C 187.586,296.362 182.919,297.028 178.5,298.5C 169.19,299.177 160.19,300.844 151.5,303.5C 138.008,305.495 137.675,306.495 150.5,306.5C 151.167,306.5 151.5,306.833 151.5,307.5C 145.137,307.906 138.803,308.573 132.5,309.5C 130.302,309.409 129.969,310.075 131.5,311.5C 130.022,311.762 128.689,311.429 127.5,310.5C 129.769,309.185 132.102,308.018 134.5,307C 133.207,306.51 131.873,306.343 130.5,306.5C 143.867,302.577 157.534,299.41 171.5,297C 180.279,295.564 189.112,294.731 198,294.5C 210.648,293.417 222.148,296.417 232.5,303.5C 234.06,299.011 233.06,295.178 229.5,292C 214.611,284.895 198.945,282.561 182.5,285C 161.187,287.696 140.187,291.863 119.5,297.5C 119.167,296.833 118.833,296.167 118.5,295.5C 134.123,291.906 149.79,288.406 165.5,285C 179.113,283.06 192.78,282.393 206.5,283C 217.134,283.538 226.3,287.372 234,294.5C 235.079,297.712 235.579,301.045 235.5,304.5C 235.497,307.355 235.164,310.022 234.5,312.5 Z"/></g>
<g><path style="opacity:1" fill="#e6e6e6" d="M 101.5,296.5 C 101.218,297.778 100.551,298.778 99.5,299.5C 90.8417,300.011 82.175,300.344 73.5,300.5C 65.0039,299.886 64.6706,298.386 72.5,296C 82.1938,295.275 91.8605,295.441 101.5,296.5 Z"/></g>
<g><path style="opacity:1" fill="#b2b2b2" d="M 101.5,296.5 C 104.397,296.125 107.063,296.625 109.5,298C 106.173,298.61 102.839,299.11 99.5,299.5C 100.551,298.778 101.218,297.778 101.5,296.5 Z"/></g>
<g><path style="opacity:1" fill="#c5c5c5" d="M 192.5,296.5 C 188.081,297.972 183.414,298.638 178.5,298.5C 182.919,297.028 187.586,296.362 192.5,296.5 Z"/></g>
<g><path style="opacity:1" fill="#f8f8f8" d="M 192.5,296.5 C 205.567,295.015 217.9,297.182 229.5,303C 232.962,305.239 234.295,308.406 233.5,312.5C 227.35,317.497 220.35,320.663 212.5,322C 202.473,322.729 192.473,322.563 182.5,321.5C 176.431,319.625 170.098,318.625 163.5,318.5C 159.779,318.089 156.112,317.422 152.5,316.5C 158.5,315.833 164.5,315.167 170.5,314.5C 170.833,314.5 171.167,314.5 171.5,314.5C 174.667,314.6 177.667,313.933 180.5,312.5C 181.979,309.743 181.313,307.743 178.5,306.5C 177.737,305.732 176.737,305.232 175.5,305C 167.323,304.829 159.323,304.329 151.5,303.5C 160.19,300.844 169.19,299.177 178.5,298.5C 183.414,298.638 188.081,297.972 192.5,296.5 Z"/></g>
<g><path style="opacity:1" fill="#494949" d="M 99.5,299.5 C 99.8212,301.048 100.821,301.715 102.5,301.5C 85.8994,306.353 68.8994,309.686 51.5,311.5C 51.1583,310.662 50.4916,310.328 49.5,310.5C 55.5479,309.829 61.5479,308.829 67.5,307.5C 74.7255,305.74 82.0588,304.406 89.5,303.5C 91.4817,303.005 93.4817,302.505 95.5,302C 92.3035,301.195 89.3035,301.362 86.5,302.5C 80.642,302.822 74.9753,302.489 69.5,301.5C 71.099,301.768 72.4324,301.434 73.5,300.5C 82.175,300.344 90.8417,300.011 99.5,299.5 Z"/></g>
<g><path style="opacity:1" fill="#959595" d="M 86.5,302.5 C 89.3035,301.362 92.3035,301.195 95.5,302C 93.4817,302.505 91.4817,303.005 89.5,303.5C 88.791,302.596 87.791,302.263 86.5,302.5 Z"/></g>
<g><path style="opacity:1" fill="#bfbfbf" d="M 151.5,303.5 C 159.323,304.329 167.323,304.829 175.5,305C 176.737,305.232 177.737,305.732 178.5,306.5C 177.167,306.5 175.833,306.5 174.5,306.5C 166.5,305.167 158.5,305.167 150.5,306.5C 137.675,306.495 138.008,305.495 151.5,303.5 Z"/></g>
<g><path style="opacity:1" fill="#5c5c5c" d="M 150.5,306.5 C 158.5,305.167 166.5,305.167 174.5,306.5C 173.508,306.328 172.842,306.662 172.5,307.5C 165.5,307.5 158.5,307.5 151.5,307.5C 151.5,306.833 151.167,306.5 150.5,306.5 Z"/></g>
<g><path style="opacity:1" fill="#606060" d="M 130.5,306.5 C 128.485,307.924 126.152,308.59 123.5,308.5C 125.515,307.076 127.848,306.41 130.5,306.5 Z"/></g>
<g><path style="opacity:1" fill="#e9e9e9" d="M 151.5,307.5 C 158.5,307.5 165.5,307.5 172.5,307.5C 175.392,307.721 178.059,308.554 180.5,310C 177.197,311.483 173.864,312.65 170.5,313.5C 161.8,313.711 153.133,313.377 144.5,312.5C 140.461,311.684 136.461,310.684 132.5,309.5C 138.803,308.573 145.137,307.906 151.5,307.5 Z"/></g>
<g><path style="opacity:1" fill="#bfbfbf" d="M 67.5,307.5 C 61.5479,308.829 55.5479,309.829 49.5,310.5C 43.642,310.822 37.9753,310.489 32.5,309.5C 44.1816,309.07 55.8483,308.404 67.5,307.5 Z"/></g>
<g><path style="opacity:1" fill="#ababab" d="M 14.5,306.5 C 13.5318,308.607 13.1984,310.941 13.5,313.5C 13.1667,313.5 12.8333,313.5 12.5,313.5C 12.1866,310.753 12.52,308.086 13.5,305.5C 14.1067,305.624 14.44,305.957 14.5,306.5 Z"/></g>
<g><path style="opacity:1" fill="#4e4e4e" d="M 119.5,309.5 C 120.5,310.167 121.5,310.833 122.5,311.5C 108.659,314.739 94.6591,317.405 80.5,319.5C 81.5,318.833 82.5,318.167 83.5,317.5C 95.4952,314.835 107.495,312.168 119.5,309.5 Z"/></g>
<g><path style="opacity:1" fill="#9b9b9b" d="M 132.5,309.5 C 136.461,310.684 140.461,311.684 144.5,312.5C 140.143,312.414 135.81,312.08 131.5,311.5C 129.969,310.075 130.302,309.409 132.5,309.5 Z"/></g>
<g><path style="opacity:1" fill="#262626" d="M 130.5,306.5 C 131.873,306.343 133.207,306.51 134.5,307C 132.102,308.018 129.769,309.185 127.5,310.5C 128.689,311.429 130.022,311.762 131.5,311.5C 135.81,312.08 140.143,312.414 144.5,312.5C 153.133,313.377 161.8,313.711 170.5,313.5C 171.167,313.5 171.5,313.833 171.5,314.5C 171.167,314.5 170.833,314.5 170.5,314.5C 162.833,314.5 155.167,314.5 147.5,314.5C 143.648,313.356 139.648,313.356 135.5,314.5C 130.992,314.133 126.659,313.133 122.5,311.5C 121.5,310.833 120.5,310.167 119.5,309.5C 120.568,308.566 121.901,308.232 123.5,308.5C 126.152,308.59 128.485,307.924 130.5,306.5 Z"/></g>
<g><path style="opacity:1" fill="#4f4f4f" d="M 11.5,313.5 C 11.8333,313.5 12.1667,313.5 12.5,313.5C 12.8333,313.5 13.1667,313.5 13.5,313.5C 17.4884,318.663 22.8218,321.497 29.5,322C 37.8267,322.5 46.16,322.666 54.5,322.5C 56.7354,322.205 58.7354,322.539 60.5,323.5C 49.8475,324.444 39.1808,324.61 28.5,324C 23.8644,323.121 19.531,321.455 15.5,319C 13.5612,317.568 12.2279,315.735 11.5,313.5 Z"/></g>
<g><path style="opacity:1" fill="#4c4c4c" d="M 172.5,307.5 C 172.842,306.662 173.508,306.328 174.5,306.5C 175.833,306.5 177.167,306.5 178.5,306.5C 181.313,307.743 181.979,309.743 180.5,312.5C 177.667,313.933 174.667,314.6 171.5,314.5C 171.5,313.833 171.167,313.5 170.5,313.5C 173.864,312.65 177.197,311.483 180.5,310C 178.059,308.554 175.392,307.721 172.5,307.5 Z"/></g>
<g><path style="opacity:1" fill="#656565" d="M 83.5,317.5 C 82.5,318.167 81.5,318.833 80.5,319.5C 74.1342,321.707 67.4675,323.04 60.5,323.5C 58.7354,322.539 56.7354,322.205 54.5,322.5C 64.079,321.034 73.7456,319.367 83.5,317.5 Z"/></g>
<g><path style="opacity:1" fill="#505050" d="M 233.5,312.5 C 233.833,312.5 234.167,312.5 234.5,312.5C 231.388,317.751 226.721,320.918 220.5,322C 191.559,325.69 163.225,323.19 135.5,314.5C 139.648,313.356 143.648,313.356 147.5,314.5C 146.448,314.351 145.448,314.517 144.5,315C 147.117,315.822 149.784,316.322 152.5,316.5C 156.112,317.422 159.779,318.089 163.5,318.5C 169.556,320.453 175.889,321.453 182.5,321.5C 192.473,322.563 202.473,322.729 212.5,322C 220.35,320.663 227.35,317.497 233.5,312.5 Z"/></g>
<g><path style="opacity:1" fill="#c2c2c2" d="M 163.5,318.5 C 170.098,318.625 176.431,319.625 182.5,321.5C 175.889,321.453 169.556,320.453 163.5,318.5 Z"/></g>
<g><path style="opacity:1" fill="#9c9c9c" d="M 147.5,314.5 C 155.167,314.5 162.833,314.5 170.5,314.5C 164.5,315.167 158.5,315.833 152.5,316.5C 149.784,316.322 147.117,315.822 144.5,315C 145.448,314.517 146.448,314.351 147.5,314.5 Z"/></g>
</svg>
