<?xml version="1.0" encoding="UTF-8"?>
<!DOCTYPE svg PUBLIC "-//W3C//DTD SVG 1.1//EN" "http://www.w3.org/Graphics/SVG/1.1/DTD/svg11.dtd">
<svg xmlns="http://www.w3.org/2000/svg" version="1.1" width="245px" height="359px" style="shape-rendering:geometricPrecision; text-rendering:geometricPrecision; image-rendering:optimizeQuality; fill-rule:evenodd; clip-rule:evenodd" xmlns:xlink="http://www.w3.org/1999/xlink">
<g><path style="opacity:1" fill="#fdfdfd" d="M -0.5,-0.5 C 81.1667,-0.5 162.833,-0.5 244.5,-0.5C 244.5,119.167 244.5,238.833 244.5,358.5C 162.833,358.5 81.1667,358.5 -0.5,358.5C -0.5,238.833 -0.5,119.167 -0.5,-0.5 Z"/></g>
<g><path style="opacity:1" fill="#c2c2c2" d="M 112.5,6.5 C 115.817,5.83478 119.317,5.50145 123,5.5C 128.743,5.35819 134.243,6.02485 139.5,7.5C 130.515,6.83424 121.515,6.50091 112.5,6.5 Z"/></g>
<g><path style="opacity:1" fill="#c5c5c5" d="M 141.5,7.5 C 146.596,7.04391 151.262,8.04391 155.5,10.5C 153.139,10.3259 150.806,9.99255 148.5,9.5C 147.432,8.56552 146.099,8.23219 144.5,8.5C 143.209,8.73731 142.209,8.40397 141.5,7.5 Z"/></g>
<g><path style="opacity:1" fill="#3b3b3b" d="M 112.5,6.5 C 121.515,6.50091 130.515,6.83424 139.5,7.5C 140.167,7.5 140.833,7.5 141.5,7.5C 142.209,8.40397 143.209,8.73731 144.5,8.5C 142.393,9.46822 140.059,9.80155 137.5,9.5C 113.081,6.69433 89.7479,10.5277 67.5,21C 61.0804,24.2678 55.0804,28.1012 49.5,32.5C 49.1583,31.6618 48.4916,31.3284 47.5,31.5C 53.6535,25.9171 60.6535,21.5837 68.5,18.5C 70.9674,18.2451 72.9674,17.2451 74.5,15.5C 86.5582,10.3199 99.2249,7.31988 112.5,6.5 Z"/></g>
<g><path style="opacity:1" fill="#fcfcfc" d="M 137.5,9.5 C 140.627,10.5808 143.96,11.2474 147.5,11.5C 180.192,17.4244 205.358,34.4244 223,62.5C 226.726,69.515 229.559,76.8483 231.5,84.5C 233.096,95.087 233.763,105.754 233.5,116.5C 231.062,138.208 222.062,156.708 206.5,172C 199.945,177.428 193.279,182.595 186.5,187.5C 148.57,207.906 109.57,209.906 69.5,193.5C 27.2275,172.63 8.06085,138.63 12,91.5C 17.0242,66.9965 29.5242,47.3298 49.5,32.5C 55.0804,28.1012 61.0804,24.2678 67.5,21C 89.7479,10.5277 113.081,6.69433 137.5,9.5 Z"/></g>
<g><path style="opacity:1" fill="#6f6f6f" d="M 144.5,8.5 C 146.099,8.23219 147.432,8.56552 148.5,9.5C 145.075,9.36682 144.742,10.0335 147.5,11.5C 143.96,11.2474 140.627,10.5808 137.5,9.5C 140.059,9.80155 142.393,9.46822 144.5,8.5 Z"/></g>
<g><path style="opacity:1" fill="#6f6f6f" d="M 74.5,15.5 C 72.9674,17.2451 70.9674,18.2451 68.5,18.5C 70.0326,16.7549 72.0326,15.7549 74.5,15.5 Z"/></g>
<g><path style="opacity:1" fill="#2c2c2c" d="M 148.5,9.5 C 150.806,9.99255 153.139,10.3259 155.5,10.5C 189.445,19.6036 214.278,39.9369 230,71.5C 243.611,112.135 235.111,147.301 204.5,177C 199.208,181.472 193.541,185.305 187.5,188.5C 186.833,188.5 186.5,188.167 186.5,187.5C 193.279,182.595 199.945,177.428 206.5,172C 222.062,156.708 231.062,138.208 233.5,116.5C 234.656,109.011 234.822,101.345 234,93.5C 233.594,90.2578 232.761,87.2578 231.5,84.5C 229.559,76.8483 226.726,69.515 223,62.5C 205.358,34.4244 180.192,17.4244 147.5,11.5C 144.742,10.0335 145.075,9.36682 148.5,9.5 Z"/></g>
<g><path style="opacity:1" fill="#fcfcfc" d="M 137.5,57.5 C 166.435,64.5849 180.935,82.9182 181,112.5C 174.912,137.644 159.079,152.477 133.5,157C 125.421,157.8 117.421,157.633 109.5,156.5C 106.495,154.723 103.162,153.723 99.5,153.5C 74.3133,143.8 62.8133,125.467 65,98.5C 68.7706,82.9089 77.6039,71.2422 91.5,63.5C 105.98,55.4674 121.313,53.4674 137.5,57.5 Z"/></g>
<g><path style="opacity:1" fill="#3a3a3a" d="M 136.5,55.5 C 135.761,55.369 135.094,55.5357 134.5,56C 135.737,56.2321 136.737,56.7321 137.5,57.5C 121.313,53.4674 105.98,55.4674 91.5,63.5C 91.1583,62.6618 90.4916,62.3284 89.5,62.5C 95.7199,58.0672 102.72,55.2338 110.5,54C 117.833,53.3333 125.167,53.3333 132.5,54C 134.058,54.21 135.391,54.71 136.5,55.5 Z"/></g>
<g><path style="opacity:1" fill="#292929" d="M 47.5,31.5 C 48.4916,31.3284 49.1583,31.6618 49.5,32.5C 29.5242,47.3298 17.0242,66.9965 12,91.5C 8.06085,138.63 27.2275,172.63 69.5,193.5C 69.5,194.167 69.5,194.833 69.5,195.5C 24.7467,173.866 4.91334,138.199 10,88.5C 15.9045,65.1075 28.4045,46.1075 47.5,31.5 Z"/></g>
<g><path style="opacity:1" fill="#d4d4d4" d="M 63.5,95.5 C 62.2074,103.159 62.2074,110.826 63.5,118.5C 61.3539,115.088 60.3539,111.255 60.5,107C 60.641,103.448 61.141,99.9483 62,96.5C 62.3826,95.944 62.8826,95.6107 63.5,95.5 Z"/></g>
<g><path style="opacity:1" fill="#c5c5c5" d="M 231.5,84.5 C 232.761,87.2578 233.594,90.2578 234,93.5C 234.822,101.345 234.656,109.011 233.5,116.5C 233.763,105.754 233.096,95.087 231.5,84.5 Z"/></g>
<g><path style="opacity:1" fill="#2a2a2a" d="M 136.5,55.5 C 156.584,59.1267 171.084,70.1267 180,88.5C 187.752,114.246 180.585,134.746 158.5,150C 151.484,153.726 144.151,156.56 136.5,158.5C 128.868,159.358 121.201,159.691 113.5,159.5C 88.3929,156.054 71.7263,142.388 63.5,118.5C 62.2074,110.826 62.2074,103.159 63.5,95.5C 66.378,85.2543 71.7113,76.4209 79.5,69C 82.4645,66.1903 85.7978,64.0236 89.5,62.5C 90.4916,62.3284 91.1583,62.6618 91.5,63.5C 77.6039,71.2422 68.7706,82.9089 65,98.5C 62.8133,125.467 74.3133,143.8 99.5,153.5C 102.505,155.277 105.838,156.277 109.5,156.5C 117.421,157.633 125.421,157.8 133.5,157C 159.079,152.477 174.912,137.644 181,112.5C 180.935,82.9182 166.435,64.5849 137.5,57.5C 136.737,56.7321 135.737,56.2321 134.5,56C 135.094,55.5357 135.761,55.369 136.5,55.5 Z"/></g>
<g><path style="opacity:1" fill="#aaaaaa" d="M 99.5,153.5 C 103.162,153.723 106.495,154.723 109.5,156.5C 105.838,156.277 102.505,155.277 99.5,153.5 Z"/></g>
<g><path style="opacity:1" fill="#afafaf" d="M 136.5,158.5 C 135.737,159.268 134.737,159.768 133.5,160C 126.654,160.821 119.987,160.654 113.5,159.5C 121.201,159.691 128.868,159.358 136.5,158.5 Z"/></g>
<g><path style="opacity:1" fill="#ababab" d="M 180.5,193.5 C 178.967,195.245 176.967,196.245 174.5,196.5C 176.033,194.755 178.033,193.755 180.5,193.5 Z"/></g>
<g><path style="opacity:1" fill="#b8b8b8" d="M 171.5,197.5 C 167.37,200.324 162.703,201.991 157.5,202.5C 161.94,200.462 166.607,198.796 171.5,197.5 Z"/></g>
<g><path style="opacity:1" fill="#393939" d="M 186.5,187.5 C 186.5,188.167 186.833,188.5 187.5,188.5C 185.343,190.412 183.009,192.079 180.5,193.5C 178.033,193.755 176.033,194.755 174.5,196.5C 173.609,197.11 172.609,197.443 171.5,197.5C 166.607,198.796 161.94,200.462 157.5,202.5C 154.273,202.676 151.273,203.343 148.5,204.5C 135.235,206.212 121.901,206.879 108.5,206.5C 94.7454,205.02 81.7454,201.353 69.5,195.5C 69.5,194.833 69.5,194.167 69.5,193.5C 109.57,209.906 148.57,207.906 186.5,187.5 Z"/></g>
<g><path style="opacity:1" fill="#a9a9a9" d="M 148.5,204.5 C 145.466,206.018 142.133,206.851 138.5,207C 128.325,207.825 118.325,207.658 108.5,206.5C 121.901,206.879 135.235,206.212 148.5,204.5 Z"/></g>
<g><path style="opacity:1" fill="#b7b7b7" d="M 200.5,317.5 C 162.214,314.401 123.88,313.735 85.5,315.5C 91.3193,314.672 97.3193,314.172 103.5,314C 123.167,313.333 142.833,313.333 162.5,314C 175.397,314.356 188.064,315.523 200.5,317.5 Z"/></g>
<g><path style="opacity:1" fill="#a8a8a8" d="M 85.5,315.5 C 80.0056,316.435 74.3389,317.102 68.5,317.5C 69.6085,316.71 70.9419,316.21 72.5,316C 76.8206,315.501 81.1539,315.334 85.5,315.5 Z"/></g>
<g><path style="opacity:1" fill="#f9f9f9" d="M 232.5,341.5 C 222.115,340.268 211.782,338.934 201.5,337.5C 188.766,334.97 175.766,333.97 162.5,334.5C 143.167,334.5 123.833,334.5 104.5,334.5C 93.954,334.208 83.6206,334.875 73.5,336.5C 70.5176,336.963 67.5176,337.296 64.5,337.5C 56.2279,337.398 48.2279,338.398 40.5,340.5C 32.5303,341.96 24.5303,343.294 16.5,344.5C 15.2613,344.058 14.2613,343.391 13.5,342.5C 12.5145,338.557 11.8478,334.557 11.5,330.5C 11.4142,329.504 11.7476,328.671 12.5,328C 86.2628,313.971 160.263,312.804 234.5,324.5C 234.16,330.208 233.493,335.875 232.5,341.5 Z"/></g>
<g><path style="opacity:1" fill="#b6b6b6" d="M 203.5,317.5 C 208.75,317.302 213.75,317.969 218.5,319.5C 213.25,319.698 208.25,319.031 203.5,317.5 Z"/></g>
<g><path style="opacity:1" fill="#383838" d="M 200.5,317.5 C 201.5,317.5 202.5,317.5 203.5,317.5C 208.25,319.031 213.25,319.698 218.5,319.5C 223.273,321.022 228.273,322.022 233.5,322.5C 234.5,322.5 235.5,322.5 236.5,322.5C 236.242,329.564 235.409,336.564 234,343.5C 232.989,344.337 231.822,344.67 230.5,344.5C 229.737,343.732 228.737,343.232 227.5,343C 229.382,342.802 231.048,342.302 232.5,341.5C 233.493,335.875 234.16,330.208 234.5,324.5C 160.263,312.804 86.2628,313.971 12.5,328C 11.7476,328.671 11.4142,329.504 11.5,330.5C 10.8333,330.167 10.1667,329.833 9.5,329.5C 8.2241,328.614 8.2241,327.614 9.5,326.5C 28.8899,321.784 48.5565,318.784 68.5,317.5C 74.3389,317.102 80.0056,316.435 85.5,315.5C 123.88,313.735 162.214,314.401 200.5,317.5 Z"/></g>
<g><path style="opacity:1" fill="#bfbfbf" d="M 218.5,319.5 C 223.939,318.982 228.939,319.982 233.5,322.5C 228.273,322.022 223.273,321.022 218.5,319.5 Z"/></g>
<g><path style="opacity:1" fill="#1f1f1f" d="M 9.5,329.5 C 10.1667,329.833 10.8333,330.167 11.5,330.5C 11.8478,334.557 12.5145,338.557 13.5,342.5C 13.6287,344.216 13.962,345.883 14.5,347.5C 13.4138,347.38 12.7472,346.713 12.5,345.5C 11.2406,340.204 10.2406,334.87 9.5,329.5 Z"/></g>
<g><path style="opacity:1" fill="#bdbdbd" d="M 162.5,334.5 C 175.766,333.97 188.766,334.97 201.5,337.5C 192.833,336.833 184.167,336.167 175.5,335.5C 170.968,335.818 166.634,335.485 162.5,334.5 Z"/></g>
<g><path style="opacity:1" fill="#969696" d="M 104.5,334.5 C 94.3454,335.58 84.0121,336.247 73.5,336.5C 83.6206,334.875 93.954,334.208 104.5,334.5 Z"/></g>
<g><path style="opacity:1" fill="#373737" d="M 104.5,334.5 C 123.833,334.5 143.167,334.5 162.5,334.5C 166.634,335.485 170.968,335.818 175.5,335.5C 173.052,336.473 170.385,336.806 167.5,336.5C 129.075,335.612 90.7419,336.945 52.5,340.5C 51.448,340.649 50.448,340.483 49.5,340C 54.6428,339.162 59.6428,338.328 64.5,337.5C 67.5176,337.296 70.5176,336.963 73.5,336.5C 84.0121,336.247 94.3454,335.58 104.5,334.5 Z"/></g>
<g><path style="opacity:1" fill="#4a4a4a" d="M 175.5,335.5 C 184.167,336.167 192.833,336.833 201.5,337.5C 211.782,338.934 222.115,340.268 232.5,341.5C 231.048,342.302 229.382,342.802 227.5,343C 228.737,343.232 229.737,343.732 230.5,344.5C 209.496,340.8 188.496,338.133 167.5,336.5C 170.385,336.806 173.052,336.473 175.5,335.5 Z"/></g>
<g><path style="opacity:1" fill="#7c7c7c" d="M 64.5,337.5 C 59.6428,338.328 54.6428,339.162 49.5,340C 50.448,340.483 51.448,340.649 52.5,340.5C 51.4324,341.434 50.099,341.768 48.5,341.5C 46.0521,340.527 43.3854,340.194 40.5,340.5C 48.2279,338.398 56.2279,337.398 64.5,337.5 Z"/></g>
<g><path style="opacity:1" fill="#484848" d="M 40.5,340.5 C 43.3854,340.194 46.0521,340.527 48.5,341.5C 37.0781,343.118 25.7447,345.118 14.5,347.5C 13.962,345.883 13.6287,344.216 13.5,342.5C 14.2613,343.391 15.2613,344.058 16.5,344.5C 24.5303,343.294 32.5303,341.96 40.5,340.5 Z"/></g>
</svg>
