<?xml version="1.0" encoding="UTF-8"?>
<!DOCTYPE svg PUBLIC "-//W3C//DTD SVG 1.1//EN" "http://www.w3.org/Graphics/SVG/1.1/DTD/svg11.dtd">
<svg xmlns="http://www.w3.org/2000/svg" version="1.1" width="147px" height="327px" style="shape-rendering:geometricPrecision; text-rendering:geometricPrecision; image-rendering:optimizeQuality; fill-rule:evenodd; clip-rule:evenodd" xmlns:xlink="http://www.w3.org/1999/xlink">
<g><path style="opacity:1" fill="#fcfcfc" d="M -0.5,-0.5 C 48.5,-0.5 97.5,-0.5 146.5,-0.5C 146.5,108.5 146.5,217.5 146.5,326.5C 97.5,326.5 48.5,326.5 -0.5,326.5C -0.5,217.5 -0.5,108.5 -0.5,-0.5 Z"/></g>
<g><path style="opacity:1" fill="#6a6a6a" d="M 86.5,6.5 C 85.1266,6.34332 83.7932,6.50999 82.5,7C 83.4158,7.27842 84.0825,7.77842 84.5,8.5C 78.2026,7.68031 71.8692,7.34698 65.5,7.5C 64.4324,6.56552 63.099,6.23219 61.5,6.5C 69.813,3.97335 78.1464,3.97335 86.5,6.5 Z"/></g>
<g><path style="opacity:1" fill="#fdfdfd" d="M 65.5,7.5 C 71.8692,7.34698 78.2026,7.68031 84.5,8.5C 108.616,14.117 123.116,29.117 128,53.5C 128.5,62.4938 128.666,71.4938 128.5,80.5C 92.1667,80.5 55.8333,80.5 19.5,80.5C 13.9753,49.1453 24.9753,25.9786 52.5,11C 56.8264,9.66907 61.1597,8.5024 65.5,7.5 Z"/></g>
<g><path style="opacity:1" fill="#3d3d3d" d="M 61.5,6.5 C 63.099,6.23219 64.4324,6.56552 65.5,7.5C 61.1597,8.5024 56.8264,9.66907 52.5,11C 24.9753,25.9786 13.9753,49.1453 19.5,80.5C 18.8333,72.5 18.1667,64.5 17.5,56.5C 21.2897,30.055 35.9564,13.3883 61.5,6.5 Z"/></g>
<g><path style="opacity:1" fill="#434343" d="M 86.5,6.5 C 108.303,12.1341 122.469,25.8008 129,47.5C 130.293,58.7939 130.793,70.1272 130.5,81.5C 93.3296,81.8318 56.3296,81.4985 19.5,80.5C 55.8333,80.5 92.1667,80.5 128.5,80.5C 128.666,71.4938 128.5,62.4938 128,53.5C 123.116,29.117 108.616,14.117 84.5,8.5C 84.0825,7.77842 83.4158,7.27842 82.5,7C 83.7932,6.50999 85.1266,6.34332 86.5,6.5 Z"/></g>
<g><path style="opacity:1" fill="#b3b3b3" d="M 17.5,59.5 C 17.5,66.8333 17.5,74.1667 17.5,81.5C 16.5,81.5 15.5,81.5 14.5,81.5C 16.095,74.2568 17.095,66.9235 17.5,59.5 Z"/></g>
<g><path style="opacity:1" fill="#121212" d="M 17.5,56.5 C 18.1667,64.5 18.8333,72.5 19.5,80.5C 56.3296,81.4985 93.3296,81.8318 130.5,81.5C 130.158,82.3382 129.492,82.6716 128.5,82.5C 123.786,82.3531 119.119,82.6864 114.5,83.5C 113.609,82.8902 112.609,82.5569 111.5,82.5C 104.749,82.1031 100.082,82.4364 97.5,83.5C 97.1583,84.3382 96.4916,84.6716 95.5,84.5C 84.0512,82.6242 72.7179,82.2909 61.5,83.5C 58.4552,83.5079 55.4552,83.8413 52.5,84.5C 51.5084,84.6716 50.8417,84.3382 50.5,83.5C 46.7259,82.2114 41.7259,82.2114 35.5,83.5C 35.5,84.1667 35.1667,84.5 34.5,84.5C 25.1317,81.0531 16.2984,82.0531 8,87.5C 7.33333,102.833 7.33333,118.167 8,133.5C 9.99349,134.914 12.1602,135.914 14.5,136.5C 17.0169,137.973 19.8502,138.64 23,138.5C 26.1864,138.256 29.353,137.923 32.5,137.5C 33.609,137.557 34.609,137.89 35.5,138.5C 41.2678,138.834 46.2678,138.5 50.5,137.5C 50.5,137.167 50.5,136.833 50.5,136.5C 61.6018,138.507 72.6018,138.84 83.5,137.5C 84.8333,137.5 86.1667,137.5 87.5,137.5C 89.604,137.201 91.604,137.534 93.5,138.5C 67.1751,139.5 40.8418,139.833 14.5,139.5C 12.0313,138.431 9.69793,137.098 7.5,135.5C 6.16667,118.833 6.16667,102.167 7.5,85.5C 9.69793,83.9019 12.0313,82.5686 14.5,81.5C 15.5,81.5 16.5,81.5 17.5,81.5C 17.5,74.1667 17.5,66.8333 17.5,59.5C 17.5,58.5 17.5,57.5 17.5,56.5 Z"/></g>
<g><path style="opacity:1" fill="#cecece" d="M 35.5,83.5 C 41.7259,82.2114 46.7259,82.2114 50.5,83.5C 47.4788,84.0049 44.4788,84.6716 41.5,85.5C 39.484,84.8224 37.484,84.1557 35.5,83.5 Z"/></g>
<g><path style="opacity:1" fill="#c7c7c7" d="M 111.5,82.5 C 110.232,84.3868 108.399,85.3868 106,85.5C 103.083,85.0179 100.249,84.3512 97.5,83.5C 100.082,82.4364 104.749,82.1031 111.5,82.5 Z"/></g>
<g><path style="opacity:1" fill="#f8f8f8" d="M 34.5,84.5 C 35.8484,85.6006 37.3484,86.6006 39,87.5C 39.6667,102.833 39.6667,118.167 39,133.5C 37.0065,134.914 34.8398,135.914 32.5,136.5C 26.5,136.5 20.5,136.5 14.5,136.5C 12.1602,135.914 9.99349,134.914 8,133.5C 7.33333,118.167 7.33333,102.833 8,87.5C 16.2984,82.0531 25.1317,81.0531 34.5,84.5 Z"/></g>
<g><path style="opacity:1" fill="#fcfcfc" d="M 61.5,83.5 C 72.887,83.3624 84.2204,84.0291 95.5,85.5C 99.1974,86.0078 102.864,86.6745 106.5,87.5C 106.5,102.833 106.5,118.167 106.5,133.5C 100.074,134.955 93.7404,136.288 87.5,137.5C 86.1667,137.5 84.8333,137.5 83.5,137.5C 72.4307,137.73 61.4307,137.063 50.5,135.5C 47.6872,135.452 45.0205,134.785 42.5,133.5C 41.3338,118.178 41.1671,102.844 42,87.5C 45.5566,86.3353 49.0566,85.3353 52.5,84.5C 55.4552,83.8413 58.4552,83.5079 61.5,83.5 Z"/></g>
<g><path style="opacity:1" fill="#cfcfcf" d="M 61.5,83.5 C 72.7179,82.2909 84.0512,82.6242 95.5,84.5C 95.5,84.8333 95.5,85.1667 95.5,85.5C 84.2204,84.0291 72.887,83.3624 61.5,83.5 Z"/></g>
<g><path style="opacity:1" fill="#373737" d="M 130.5,81.5 C 134.027,82.2603 137.36,83.5936 140.5,85.5C 141.666,101.823 141.833,118.156 141,134.5C 138.252,136.458 135.418,138.291 132.5,140C 92.9979,140.831 53.6645,140.665 14.5,139.5C 40.8418,139.833 67.1751,139.5 93.5,138.5C 91.604,137.534 89.604,137.201 87.5,137.5C 93.7404,136.288 100.074,134.955 106.5,133.5C 106.5,118.167 106.5,102.833 106.5,87.5C 102.864,86.6745 99.1974,86.0078 95.5,85.5C 95.5,85.1667 95.5,84.8333 95.5,84.5C 96.4916,84.6716 97.1583,84.3382 97.5,83.5C 100.249,84.3512 103.083,85.0179 106,85.5C 108.399,85.3868 110.232,84.3868 111.5,82.5C 112.609,82.5569 113.609,82.8902 114.5,83.5C 112.481,84.9334 110.314,86.2668 108,87.5C 107.333,102.833 107.333,118.167 108,133.5C 109.33,134.582 110.83,135.249 112.5,135.5C 113.842,136.793 115.509,137.626 117.5,138C 121.689,138.812 125.689,138.645 129.5,137.5C 133.099,137.145 136.265,135.811 139,133.5C 139.667,118.167 139.667,102.833 139,87.5C 135.738,85.145 132.238,83.4783 128.5,82.5C 129.492,82.6716 130.158,82.3382 130.5,81.5 Z"/></g>
<g><path style="opacity:1" fill="#f9f9f9" d="M 128.5,82.5 C 132.238,83.4783 135.738,85.145 139,87.5C 139.667,102.833 139.667,118.167 139,133.5C 136.265,135.811 133.099,137.145 129.5,137.5C 123.678,137.79 118.012,137.123 112.5,135.5C 110.83,135.249 109.33,134.582 108,133.5C 107.333,118.167 107.333,102.833 108,87.5C 110.314,86.2668 112.481,84.9334 114.5,83.5C 119.119,82.6864 123.786,82.3531 128.5,82.5 Z"/></g>
<g><path style="opacity:1" fill="#373737" d="M 35.5,83.5 C 37.484,84.1557 39.484,84.8224 41.5,85.5C 44.4788,84.6716 47.4788,84.0049 50.5,83.5C 50.8417,84.3382 51.5084,84.6716 52.5,84.5C 49.0566,85.3353 45.5566,86.3353 42,87.5C 41.1671,102.844 41.3338,118.178 42.5,133.5C 45.0205,134.785 47.6872,135.452 50.5,135.5C 50.5,135.833 50.5,136.167 50.5,136.5C 50.5,136.833 50.5,137.167 50.5,137.5C 47.3035,137.027 44.1368,136.361 41,135.5C 38.7039,135.859 36.8705,136.859 35.5,138.5C 34.609,137.89 33.609,137.557 32.5,137.5C 32.5,137.167 32.5,136.833 32.5,136.5C 34.8398,135.914 37.0065,134.914 39,133.5C 39.6667,118.167 39.6667,102.833 39,87.5C 37.3484,86.6006 35.8484,85.6006 34.5,84.5C 35.1667,84.5 35.5,84.1667 35.5,83.5 Z"/></g>
<g><path style="opacity:1" fill="#c9c9c9" d="M 14.5,136.5 C 20.5,136.5 26.5,136.5 32.5,136.5C 32.5,136.833 32.5,137.167 32.5,137.5C 29.353,137.923 26.1864,138.256 23,138.5C 19.8502,138.64 17.0169,137.973 14.5,136.5 Z"/></g>
<g><path style="opacity:1" fill="#bbbbbb" d="M 50.5,137.5 C 46.2678,138.5 41.2678,138.834 35.5,138.5C 36.8705,136.859 38.7039,135.859 41,135.5C 44.1368,136.361 47.3035,137.027 50.5,137.5 Z"/></g>
<g><path style="opacity:1" fill="#9e9e9e" d="M 50.5,136.5 C 50.5,136.167 50.5,135.833 50.5,135.5C 61.4307,137.063 72.4307,137.73 83.5,137.5C 72.6018,138.84 61.6018,138.507 50.5,136.5 Z"/></g>
<g><path style="opacity:1" fill="#b8b8b8" d="M 103.5,135.5 C 106.564,135.144 109.231,135.977 111.5,138C 106.167,138.667 100.833,138.667 95.5,138C 98.3102,137.218 100.977,136.384 103.5,135.5 Z"/></g>
<g><path style="opacity:1" fill="#a2a2a2" d="M 112.5,135.5 C 118.012,137.123 123.678,137.79 129.5,137.5C 125.689,138.645 121.689,138.812 117.5,138C 115.509,137.626 113.842,136.793 112.5,135.5 Z"/></g>
<g><path style="opacity:1" fill="#f5f5f5" d="M 115.5,297.5 C 102.855,310.149 87.5212,316.149 69.5,315.5C 63.2075,314.076 56.8742,312.409 50.5,310.5C 43.7018,307.703 37.7018,303.703 32.5,298.5C 16.43,279.75 12.7634,258.75 21.5,235.5C 29.5278,219.802 41.8611,209.136 58.5,203.5C 85.2123,198.011 106.379,206.344 122,228.5C 134.948,253.067 132.781,276.067 115.5,297.5 Z"/></g>
<g><path style="opacity:1" fill="#373737" d="M 38.5,202.5 C 38.3284,203.492 38.6618,204.158 39.5,204.5C 31.9175,216.174 33.2509,217.341 43.5,208C 46.9605,205.934 50.6272,204.434 54.5,203.5C 55.391,202.89 56.391,202.557 57.5,202.5C 57.5,203.167 57.8333,203.5 58.5,203.5C 41.8611,209.136 29.5278,219.802 21.5,235.5C 21.5,234.833 21.1667,234.5 20.5,234.5C 26.1403,223.552 32.1403,212.886 38.5,202.5 Z"/></g>
<g><path style="opacity:1" fill="#ebebeb" d="M 40.5,202.5 C 45.3633,202.181 50.03,202.514 54.5,203.5C 50.6272,204.434 46.9605,205.934 43.5,208C 33.2509,217.341 31.9175,216.174 39.5,204.5C 39.8333,203.833 40.1667,203.167 40.5,202.5 Z"/></g>
<g><path style="opacity:1" fill="#363636" d="M 62.5,216.5 C 89.9045,213.104 107.738,224.437 116,250.5C 118.369,275.946 107.536,292.779 83.5,301C 55.1866,304.268 37.6866,292.101 31,264.5C 29.7598,240.616 40.2598,224.616 62.5,216.5 Z"/></g>
<g><path style="opacity:1" fill="#fcfcfc" d="M 63.5,219.5 C 71.2089,219.269 78.8756,219.602 86.5,220.5C 101.016,225.519 110.182,235.519 114,250.5C 116.219,280.096 102.719,296.429 73.5,299.5C 50.9756,298.487 37.4756,286.82 33,264.5C 31.4525,247.431 37.6192,233.931 51.5,224C 55.2186,221.636 59.2186,220.136 63.5,219.5 Z"/></g>
<g><path style="opacity:1" fill="#cfcfcf" d="M 86.5,220.5 C 78.8756,219.602 71.2089,219.269 63.5,219.5C 70.2933,217.023 77.2933,216.856 84.5,219C 85.4158,219.278 86.0825,219.778 86.5,220.5 Z"/></g>
<g><path style="opacity:1" fill="#262626" d="M 116.5,301.5 C 114.255,300.708 113.922,299.375 115.5,297.5C 132.781,276.067 134.948,253.067 122,228.5C 106.379,206.344 85.2123,198.011 58.5,203.5C 57.8333,203.5 57.5,203.167 57.5,202.5C 51.8333,201.167 46.1667,201.167 40.5,202.5C 40.1667,203.167 39.8333,203.833 39.5,204.5C 38.6618,204.158 38.3284,203.492 38.5,202.5C 38.6107,201.883 38.944,201.383 39.5,201C 62.7393,200.173 85.906,200.34 109,201.5C 119.447,220.894 130.28,240.061 141.5,259C 133.288,273.26 124.955,287.427 116.5,301.5 Z"/></g>
<g><path style="opacity:1" fill="#e8e8e8" d="M 92.5,203.5 C 96.97,202.514 101.637,202.181 106.5,202.5C 109.402,206.539 111.569,210.873 113,215.5C 107.281,209.618 100.448,205.618 92.5,203.5 Z"/></g>
<g><path style="opacity:1" fill="#8e8e8e" d="M 106.5,202.5 C 101.637,202.181 96.97,202.514 92.5,203.5C 91.5266,203.013 90.5266,202.513 89.5,202C 95.3487,201.182 101.015,201.348 106.5,202.5 Z"/></g>
<g><path style="opacity:1" fill="#909090" d="M 40.5,202.5 C 46.1667,201.167 51.8333,201.167 57.5,202.5C 56.391,202.557 55.391,202.89 54.5,203.5C 50.03,202.514 45.3633,202.181 40.5,202.5 Z"/></g>
<g><path style="opacity:1" fill="#e3e3e3" d="M 130.5,244.5 C 133.8,248.93 136.467,253.763 138.5,259C 131.786,276.155 129.786,275.489 132.5,257C 132.23,252.758 131.563,248.591 130.5,244.5 Z"/></g>
<g><path style="opacity:1" fill="#262626" d="M 20.5,234.5 C 21.1667,234.5 21.5,234.833 21.5,235.5C 12.7634,258.75 16.43,279.75 32.5,298.5C 31.8902,299.391 31.5569,300.391 31.5,301.5C 22.556,287.792 14.2227,273.625 6.5,259C 10.5407,250.412 15.2074,242.245 20.5,234.5 Z"/></g>
<g><path style="opacity:1" fill="#dedede" d="M 15.5,245.5 C 15.352,254.323 15.5187,263.323 16,272.5C 13.4835,267.99 10.9835,263.49 8.5,259C 10.9663,254.567 13.2996,250.067 15.5,245.5 Z"/></g>
<g><path style="opacity:1" fill="#373737" d="M 115.5,297.5 C 113.922,299.375 114.255,300.708 116.5,301.5C 113.755,306.762 110.755,311.928 107.5,317C 84.826,317.833 62.1593,317.666 39.5,316.5C 36.0445,311.922 33.3778,306.922 31.5,301.5C 31.5569,300.391 31.8902,299.391 32.5,298.5C 37.7018,303.703 43.7018,307.703 50.5,310.5C 56.2655,313.972 62.5989,315.638 69.5,315.5C 87.5212,316.149 102.855,310.149 115.5,297.5 Z"/></g>
<g><path style="opacity:1" fill="#777777" d="M 92.5,314.5 C 96.97,315.486 101.637,315.819 106.5,315.5C 101.652,316.814 96.6523,316.814 91.5,315.5C 91.6236,314.893 91.9569,314.56 92.5,314.5 Z"/></g>
<g><path style="opacity:1" fill="#797979" d="M 54.5,314.5 C 55.3764,314.369 56.0431,314.702 56.5,315.5C 51.3477,316.814 46.3477,316.814 41.5,315.5C 46.0323,315.818 50.3656,315.485 54.5,314.5 Z"/></g>
<g><path style="opacity:1" fill="#bbbbbb" d="M 50.5,310.5 C 56.8742,312.409 63.2075,314.076 69.5,315.5C 62.5989,315.638 56.2655,313.972 50.5,310.5 Z"/></g>
<g><path style="opacity:1" fill="#e6e6e6" d="M 106.5,315.5 C 101.637,315.819 96.97,315.486 92.5,314.5C 100.177,311.913 107.01,307.913 113,302.5C 111.42,306.993 109.254,311.326 106.5,315.5 Z"/></g>
<g><path style="opacity:1" fill="#e4e4e4" d="M 54.5,314.5 C 50.3656,315.485 46.0323,315.818 41.5,315.5C 38.6474,310.979 35.6474,306.479 32.5,302C 32.8333,301.833 33.1667,301.667 33.5,301.5C 39.4158,307.623 46.4158,311.956 54.5,314.5 Z"/></g>
</svg>
