<?xml version="1.0" standalone="no"?>
<!DOCTYPE svg PUBLIC "-//W3C//DTD SVG 20010904//EN"
 "http://www.w3.org/TR/2001/REC-SVG-20010904/DTD/svg10.dtd">
<svg version="1.0" xmlns="http://www.w3.org/2000/svg"
 width="374.000000pt" height="405.000000pt" viewBox="0 0 374.000000 405.000000"
 preserveAspectRatio="xMidYMid meet">

<g transform="translate(0.000000,405.000000) scale(0.100000,-0.100000)"
fill="#000000" stroke="none">
<path d="M1780 3989 c-185 -20 -312 -82 -451 -219 -97 -96 -152 -177 -185
-274 -15 -43 -18 -46 -52 -46 -40 0 -317 -12 -737 -31 -143 -7 -265 -16 -272
-21 -7 -6 -13 -4 -16 4 -2 7 -5 -65 -6 -160 -2 -171 -1 -172 21 -181 24 -10
237 -22 745 -43 l302 -12 22 -58 c120 -320 475 -529 814 -478 172 25 293 84
418 200 88 82 157 180 191 271 l24 64 268 11 c655 29 768 36 787 52 15 13 17
34 16 161 0 80 -3 153 -7 161 -5 10 -25 16 -62 18 -30 1 -140 7 -245 12 -104
5 -316 14 -470 21 -154 6 -282 12 -284 14 -2 2 -18 37 -35 77 -134 308 -453
493 -786 457z m256 -49 c233 -59 427 -229 512 -452 l27 -70 60 -3 c33 -2 166
-6 295 -10 129 -4 262 -11 295 -15 85 -13 -491 -3 -652 11 -70 6 -137 11 -149
11 -15 0 -25 11 -34 37 -39 108 -153 232 -264 286 -105 52 -184 68 -291 62
-210 -11 -385 -124 -481 -310 l-38 -74 -151 -12 c-182 -14 -761 -24 -665 -11
36 4 173 11 305 15 132 4 263 8 290 10 28 2 53 4 56 5 4 0 10 15 13 33 3 17
21 62 39 98 105 207 297 355 518 398 83 17 231 12 315 -9z m-61 -185 c196 -41
359 -197 410 -390 19 -75 19 -194 0 -269 -62 -238 -277 -406 -520 -406 -257 0
-477 180 -529 432 -20 95 -20 124 -1 212 23 107 66 188 141 266 135 140 310
195 499 155z m-681 -525 l0 -145 -35 1 c-18 0 -144 6 -279 13 -234 13 -629 10
-816 -6 l-74 -6 0 142 0 142 88 -8 c119 -11 876 -7 987 5 144 15 130 30 129
-138z m1406 130 c222 -12 570 -12 770 0 119 7 156 7 162 -3 9 -15 10 -238 0
-254 -6 -9 -73 -9 -281 0 -213 8 -336 8 -555 -2 -154 -7 -300 -15 -322 -18
l-42 -5 0 152 0 152 47 -6 c25 -4 125 -11 221 -16z m-1585 -302 c94 -6 177
-11 186 -12 10 0 29 -28 49 -71 25 -51 54 -91 109 -145 130 -129 249 -176 431
-167 126 5 209 33 305 102 83 59 138 123 181 213 20 40 39 71 42 68 4 -2 36 0
72 5 96 12 723 30 733 20 4 -4 -83 -11 -195 -15 -112 -3 -260 -9 -329 -12
l-127 -7 -12 -41 c-48 -164 -206 -344 -375 -429 -187 -93 -454 -93 -640 0
-173 87 -320 251 -371 412 l-19 58 -125 7 c-69 3 -216 9 -327 12 -112 4 -203
11 -203 15 0 11 383 2 615 -13z"/>
<path d="M520 1726 c-182 -38 -330 -156 -409 -326 -51 -109 -50 -132 4 -235
196 -375 593 -800 942 -1009 35 -21 69 -46 76 -57 14 -19 32 -19 727 -19 l714
0 30 28 c17 16 67 51 111 78 119 72 264 192 410 339 210 210 385 441 491 647
l47 94 -22 69 c-31 95 -78 169 -153 242 -110 105 -241 157 -396 157 -110 -1
-91 15 -230 -189 -148 -216 -332 -545 -415 -742 l-26 -63 -561 0 c-438 0 -560
3 -560 12 0 26 -202 418 -292 568 -76 128 -194 305 -261 392 -19 24 -143 31
-227 14z m210 -48 c36 -39 224 -326 300 -458 74 -129 219 -418 240 -481 12
-33 8 -52 -71 -302 -46 -147 -89 -267 -95 -267 -6 0 -51 27 -100 59 -329 218
-683 610 -855 943 l-50 99 21 64 c72 218 274 364 502 365 78 0 90 -2 108 -22z
m2511 6 c144 -42 269 -146 333 -276 57 -114 57 -136 1 -243 -175 -332 -543
-734 -862 -942 -44 -29 -86 -53 -92 -53 -5 0 -31 66 -56 148 -26 81 -62 195
-81 254 -19 59 -34 118 -34 132 0 29 80 211 157 354 110 206 254 440 364 588
l40 54 88 0 c51 0 110 -7 142 -16z m-832 -991 c9 -18 171 -525 171 -537 0 -3
-322 -6 -715 -6 -582 0 -715 2 -715 13 0 7 9 40 19 73 11 32 49 152 86 267
l66 207 539 0 c503 0 540 -1 549 -17z m-196 -580 c-194 -2 -512 -2 -705 0
-194 1 -36 2 352 2 388 0 546 -1 353 -2z"/>
</g>
</svg>
