<?xml version="1.0" encoding="UTF-8"?>
<!DOCTYPE svg PUBLIC "-//W3C//DTD SVG 1.1//EN" "http://www.w3.org/Graphics/SVG/1.1/DTD/svg11.dtd">
<svg xmlns="http://www.w3.org/2000/svg" version="1.1" width="273px" height="319px" style="shape-rendering:geometricPrecision; text-rendering:geometricPrecision; image-rendering:optimizeQuality; fill-rule:evenodd; clip-rule:evenodd" xmlns:xlink="http://www.w3.org/1999/xlink">
<g><path style="opacity:1" fill="#fefefe" d="M -0.5,-0.5 C 90.5,-0.5 181.5,-0.5 272.5,-0.5C 272.5,105.833 272.5,212.167 272.5,318.5C 181.5,318.5 90.5,318.5 -0.5,318.5C -0.5,212.167 -0.5,105.833 -0.5,-0.5 Z"/></g>
<g><path style="opacity:1" fill="#212121" d="M 191.5,123.5 C 190.833,122.833 190.167,122.167 189.5,121.5C 206.177,112.011 221.01,100.011 234,85.5C 240.049,78.4522 245.716,71.1189 251,63.5C 255.565,57.0365 259.065,50.0365 261.5,42.5C 254.95,21.4658 240.616,11.6325 218.5,13C 202.678,34.7987 189.011,57.9654 177.5,82.5C 182.106,94.9851 186.106,107.652 189.5,120.5C 188.833,121.167 188.167,121.833 187.5,122.5C 187.5,122.167 187.5,121.833 187.5,121.5C 183.521,108.917 179.855,96.2505 176.5,83.5C 150.167,83.5 123.833,83.5 97.5,83.5C 94.7432,95.6743 91.4099,107.674 87.5,119.5C 86.596,120.209 86.2627,121.209 86.5,122.5C 85.8333,121.833 85.1667,121.167 84.5,120.5C 87.6947,109.415 91.1947,98.4154 95,87.5C 95.6667,85.1667 95.6667,82.8333 95,80.5C 84.3971,56.7677 71.5638,34.4344 56.5,13.5C 33.6579,11.1801 18.9912,21.0134 12.5,43C 28.3267,76.6602 52.3267,102.827 84.5,121.5C 84.5,122.5 84.5,123.5 84.5,124.5C 54.0645,106.231 30.2312,81.5642 13,50.5C 9.54551,43.9982 9.87884,37.6648 14,31.5C 23.9403,14.9469 38.4403,8.28024 57.5,11.5C 73.5372,32.7392 86.8705,55.5725 97.5,80C 123.831,80.5 150.165,80.6666 176.5,80.5C 187.465,55.7351 201.132,32.5684 217.5,11C 238.215,8.60523 253.048,16.7719 262,35.5C 263.277,39.0969 263.61,42.7636 263,46.5C 246.254,78.7457 222.421,104.412 191.5,123.5 Z"/></g>
<g><path style="opacity:1" fill="#fcfcfc" d="M 189.5,121.5 C 189.5,121.167 189.5,120.833 189.5,120.5C 186.106,107.652 182.106,94.9851 177.5,82.5C 189.011,57.9654 202.678,34.7987 218.5,13C 240.616,11.6325 254.95,21.4658 261.5,42.5C 259.065,50.0365 255.565,57.0365 251,63.5C 245.716,71.1189 240.049,78.4522 234,85.5C 221.01,100.011 206.177,112.011 189.5,121.5 Z"/></g>
<g><path style="opacity:1" fill="#fcfcfc" d="M 84.5,120.5 C 84.5,120.833 84.5,121.167 84.5,121.5C 52.3267,102.827 28.3267,76.6602 12.5,43C 18.9912,21.0134 33.6579,11.1801 56.5,13.5C 71.5638,34.4344 84.3971,56.7677 95,80.5C 95.6667,82.8333 95.6667,85.1667 95,87.5C 91.1947,98.4154 87.6947,109.415 84.5,120.5 Z"/></g>
<g><path style="opacity:1" fill="#fdfdfd" d="M 187.5,121.5 C 153.817,122.16 120.483,121.493 87.5,119.5C 91.4099,107.674 94.7432,95.6743 97.5,83.5C 123.833,83.5 150.167,83.5 176.5,83.5C 179.855,96.2505 183.521,108.917 187.5,121.5 Z"/></g>
<g><path style="opacity:1" fill="#d2d2d2" d="M 87.5,119.5 C 120.483,121.493 153.817,122.16 187.5,121.5C 187.5,121.833 187.5,122.167 187.5,122.5C 153.833,122.5 120.167,122.5 86.5,122.5C 86.2627,121.209 86.596,120.209 87.5,119.5 Z"/></g>
<g><path style="opacity:1" fill="#161616" d="M 84.5,120.5 C 85.1667,121.167 85.8333,121.833 86.5,122.5C 120.167,122.5 153.833,122.5 187.5,122.5C 188.167,121.833 188.833,121.167 189.5,120.5C 189.5,120.833 189.5,121.167 189.5,121.5C 190.167,122.167 190.833,122.833 191.5,123.5C 190.188,124.145 189.188,125.145 188.5,126.5C 179.859,127.498 171.192,127.831 162.5,127.5C 162.667,186.501 162.5,245.501 162,304.5C 160.624,305.705 159.458,307.038 158.5,308.5C 144.088,308.816 129.755,308.482 115.5,307.5C 114.855,306.188 113.855,305.188 112.5,304.5C 111.5,245.504 111.167,186.504 111.5,127.5C 103.16,127.666 94.8267,127.5 86.5,127C 85.6195,126.292 84.9528,125.458 84.5,124.5C 84.5,123.5 84.5,122.5 84.5,121.5C 84.5,121.167 84.5,120.833 84.5,120.5 Z"/></g>
<g><path style="opacity:1" fill="#b7b7b7" d="M 159.5,140.5 C 159.5,136.5 159.5,132.5 159.5,128.5C 144.5,128.5 129.5,128.5 114.5,128.5C 114.5,132.5 114.5,136.5 114.5,140.5C 113.515,136.366 113.182,132.032 113.5,127.5C 129.167,127.5 144.833,127.5 160.5,127.5C 160.818,132.032 160.485,136.366 159.5,140.5 Z"/></g>
<g><path style="opacity:1" fill="#fdfdfd" d="M 159.5,140.5 C 144.5,140.5 129.5,140.5 114.5,140.5C 114.5,136.5 114.5,132.5 114.5,128.5C 129.5,128.5 144.5,128.5 159.5,128.5C 159.5,132.5 159.5,136.5 159.5,140.5 Z"/></g>
<g><path style="opacity:1" fill="#666666" d="M 87.5,125.5 C 120.336,124.17 153.336,124.17 186.5,125.5C 153.434,126.825 120.434,126.825 87.5,125.5 Z"/></g>
<g><path style="opacity:1" fill="#a5a5a5" d="M 113.5,142.5 C 114.5,142.5 115.5,142.5 116.5,142.5C 116.5,195.833 116.5,249.167 116.5,302.5C 115.5,302.5 114.5,302.5 113.5,302.5C 113.5,249.167 113.5,195.833 113.5,142.5 Z"/></g>
<g><path style="opacity:1" fill="#d1d1d1" d="M 118.5,142.5 C 130.833,142.5 143.167,142.5 155.5,142.5C 155.5,195.833 155.5,249.167 155.5,302.5C 143.167,302.5 130.833,302.5 118.5,302.5C 118.5,249.167 118.5,195.833 118.5,142.5 Z"/></g>
<g><path style="opacity:1" fill="#fefefe" d="M 119.5,143.5 C 131.167,143.5 142.833,143.5 154.5,143.5C 154.5,196.167 154.5,248.833 154.5,301.5C 142.833,301.5 131.167,301.5 119.5,301.5C 119.5,248.833 119.5,196.167 119.5,143.5 Z"/></g>
<g><path style="opacity:1" fill="#8e8e8e" d="M 160.5,143.5 C 158.504,196.156 157.838,249.156 158.5,302.5C 157.501,249.336 157.168,196.003 157.5,142.5C 158.791,142.263 159.791,142.596 160.5,143.5 Z"/></g>
<g><path style="opacity:1" fill="#cbcbcb" d="M 160.5,143.5 C 161.162,196.844 160.496,249.844 158.5,302.5C 157.838,249.156 158.504,196.156 160.5,143.5 Z"/></g>
<g><path style="opacity:1" fill="#fbfbfb" d="M 118.5,304.5 C 130.851,304.168 143.185,304.501 155.5,305.5C 149.333,305.833 143.167,306.167 137,306.5C 130.462,306.496 124.295,305.83 118.5,304.5 Z"/></g>
<g><path style="opacity:1" fill="#919191" d="M 115.5,307.5 C 129.755,308.482 144.088,308.816 158.5,308.5C 151.508,309.166 144.341,309.5 137,309.5C 129.467,309.497 122.301,308.831 115.5,307.5 Z"/></g>
</svg>
