<?xml version="1.0" encoding="UTF-8"?>
<!DOCTYPE svg PUBLIC "-//W3C//DTD SVG 1.1//EN" "http://www.w3.org/Graphics/SVG/1.1/DTD/svg11.dtd">
<svg xmlns="http://www.w3.org/2000/svg" version="1.1" width="416px" height="258px" style="shape-rendering:geometricPrecision; text-rendering:geometricPrecision; image-rendering:optimizeQuality; fill-rule:evenodd; clip-rule:evenodd" xmlns:xlink="http://www.w3.org/1999/xlink">
<g><path style="opacity:1" fill="#fefefe" d="M -0.5,-0.5 C 138.167,-0.5 276.833,-0.5 415.5,-0.5C 415.5,85.5 415.5,171.5 415.5,257.5C 276.833,257.5 138.167,257.5 -0.5,257.5C -0.5,171.5 -0.5,85.5 -0.5,-0.5 Z"/></g>
<g><path style="opacity:1" fill="#111110" d="M 411.5,7.5 C 411.5,87.5 411.5,167.5 411.5,247.5C 402.5,247.5 393.5,247.5 384.5,247.5C 384.5,167.5 384.5,87.5 384.5,7.5C 393.5,7.5 402.5,7.5 411.5,7.5 Z"/></g>
<g><path style="opacity:1" fill="#fefefe" d="M 386.5,62.5 C 394.167,62.5 401.833,62.5 409.5,62.5C 409.5,106.167 409.5,149.833 409.5,193.5C 401.833,193.5 394.167,193.5 386.5,193.5C 386.5,149.833 386.5,106.167 386.5,62.5 Z"/></g>
<g><path style="opacity:1" fill="#696868" d="M 409.5,45.5 C 410.487,50.3054 410.821,55.3054 410.5,60.5C 405.305,60.8205 400.305,60.4872 395.5,59.5C 399.833,54.5 404.5,49.8333 409.5,45.5 Z"/></g>
<g><path style="opacity:1" fill="#fdfbfc" d="M 408.5,47.5 C 409.483,51.2984 409.817,55.2984 409.5,59.5C 405.486,59.6655 401.486,59.4988 397.5,59C 401.37,55.2977 405.037,51.4643 408.5,47.5 Z"/></g>
<g><path style="opacity:1" fill="#f9f8f8" d="M 409.5,44.5 C 409.5,44.8333 409.5,45.1667 409.5,45.5C 404.5,49.8333 399.833,54.5 395.5,59.5C 392.5,59.5 389.5,59.5 386.5,59.5C 386.237,55.3998 386.57,51.3998 387.5,47.5C 394.798,40.7026 401.965,33.7026 409,26.5C 409.499,32.4908 409.666,38.4908 409.5,44.5 Z"/></g>
<g><path style="opacity:1" fill="#545454" d="M 409.5,9.5 C 410.833,21.1667 410.833,32.8333 409.5,44.5C 409.666,38.4908 409.499,32.4908 409,26.5C 401.965,33.7026 394.798,40.7026 387.5,47.5C 386.833,47.5 386.5,47.1667 386.5,46.5C 394.132,39.3692 401.632,32.0358 409,24.5C 409.499,19.5111 409.666,14.5111 409.5,9.5 Z"/></g>
<g><path style="opacity:1" fill="#565656" d="M 386.5,9.5 C 392.734,8.19274 399.068,8.19274 405.5,9.5C 399.5,16.1667 393.167,22.5 386.5,28.5C 386.5,27.8333 386.5,27.1667 386.5,26.5C 392.298,21.2029 397.965,15.7029 403.5,10C 397.843,9.50058 392.176,9.33391 386.5,9.5 Z"/></g>
<g><path style="opacity:1" fill="#fdfdfd" d="M 405.5,9.5 C 406.833,9.5 408.167,9.5 409.5,9.5C 409.666,14.5111 409.499,19.5111 409,24.5C 401.632,32.0358 394.132,39.3692 386.5,46.5C 386.5,40.5 386.5,34.5 386.5,28.5C 393.167,22.5 399.5,16.1667 405.5,9.5 Z"/></g>
<g><path style="opacity:1" fill="#fafafa" d="M 386.5,9.5 C 392.176,9.33391 397.843,9.50058 403.5,10C 397.965,15.7029 392.298,21.2029 386.5,26.5C 386.5,20.8333 386.5,15.1667 386.5,9.5 Z"/></g>
<g><path style="opacity:1" fill="#878686" d="M 386.5,62.5 C 394.316,61.5076 402.316,61.1743 410.5,61.5C 410.5,105.833 410.5,150.167 410.5,194.5C 402.316,194.826 394.316,194.492 386.5,193.5C 394.167,193.5 401.833,193.5 409.5,193.5C 409.5,149.833 409.5,106.167 409.5,62.5C 401.833,62.5 394.167,62.5 386.5,62.5 Z"/></g>
<g><path style="opacity:1" fill="#7f7f7f" d="M 411.5,7.5 C 412.824,90.354 412.824,170.687 411.5,248.5C 402.582,248.183 393.749,248.516 385,249.5C 384.536,248.906 384.369,248.239 384.5,247.5C 393.5,247.5 402.5,247.5 411.5,247.5C 411.5,167.5 411.5,87.5 411.5,7.5 Z"/></g>
<g><path style="opacity:1" fill="#292828" d="M 242.5,141.5 C 241.549,142.919 241.216,144.585 241.5,146.5C 233.834,188.997 210.501,219.497 171.5,238C 117.052,258.428 69.8849,247.595 30,205.5C 1.80235,168.03 -5.19765,128.363 9,86.5C 26.7517,42.76 58.9183,16.5933 105.5,8C 172.187,3.73663 216.687,32.9033 239,95.5C 242.816,110.679 243.983,126.012 242.5,141.5 Z"/></g>
<g><path style="opacity:1" fill="#fdfdfd" d="M 105.5,9.5 C 157.09,5.27387 196.923,24.6072 225,67.5C 240.587,95.1145 244.92,124.448 238,155.5C 222.093,208.741 186.593,238.908 131.5,246C 83.8966,247.949 47.0632,229.116 21,189.5C 3.92533,158.833 -0.07467,126.5 9,92.5C 21.9833,54.8494 47.15,29.016 84.5,15C 91.586,12.98 98.586,11.1467 105.5,9.5 Z"/></g>
<g><path style="opacity:1" fill="#242424" d="M 115.5,59.5 C 156.194,59.3792 181.028,79.0459 190,118.5C 192.413,151.523 178.913,175.356 149.5,190C 113.924,202.251 85.4238,193.084 64,162.5C 47.1497,128.755 52.6497,99.2553 80.5,74C 91.1002,66.3597 102.767,61.5263 115.5,59.5 Z"/></g>
<g><path style="opacity:1" fill="#fdfdfd" d="M 113.5,61.5 C 146.574,59.7749 170.074,73.7749 184,103.5C 194.542,138.891 184.376,166.391 153.5,186C 118.697,200.925 89.8641,193.425 67,163.5C 50.0371,132.723 53.5371,104.556 77.5,79C 88.1263,70.186 100.126,64.3527 113.5,61.5 Z"/></g>
<g><path style="opacity:1" fill="#797876" d="M 242.5,141.5 C 243.511,143.402 243.678,145.402 243,147.5C 242.617,146.944 242.117,146.611 241.5,146.5C 241.216,144.585 241.549,142.919 242.5,141.5 Z"/></g>
<g><path style="opacity:1" fill="#f5f4f4" d="M 400.5,195.5 C 396.167,200.5 391.5,205.167 386.5,209.5C 386.5,204.833 386.5,200.167 386.5,195.5C 391.167,195.5 395.833,195.5 400.5,195.5 Z"/></g>
<g><path style="opacity:1" fill="#505050" d="M 400.5,195.5 C 401.167,195.5 401.833,195.5 402.5,195.5C 397.5,201.167 392.167,206.5 386.5,211.5C 386.5,210.833 386.5,210.167 386.5,209.5C 391.5,205.167 396.167,200.5 400.5,195.5 Z"/></g>
<g><path style="opacity:1" fill="#f6f6f6" d="M 402.5,195.5 C 405.167,195.5 407.833,195.5 410.5,195.5C 410.706,199.898 410.373,204.232 409.5,208.5C 409.592,214.866 409.425,221.533 409,228.5C 402.964,234.369 397.13,240.369 391.5,246.5C 389.833,246.5 388.167,246.5 386.5,246.5C 387.076,234.974 387.076,223.307 386.5,211.5C 392.167,206.5 397.5,201.167 402.5,195.5 Z"/></g>
<g><path style="opacity:1" fill="#969696" d="M 395.5,222.5 C 397.795,219.703 400.295,217.036 403,214.5C 403.667,215.167 403.667,215.833 403,216.5C 400.855,219.166 398.355,221.166 395.5,222.5 Z"/></g>
<g><path style="opacity:1" fill="#888888" d="M 395.5,222.5 C 394.852,225.323 393.186,226.823 390.5,227C 392.037,225.293 393.704,223.793 395.5,222.5 Z"/></g>
<g><path style="opacity:1" fill="#686867" d="M 409.5,208.5 C 410.833,221.167 410.833,233.833 409.5,246.5C 409.666,241.156 409.499,235.823 409,230.5C 403.63,235.702 398.464,241.035 393.5,246.5C 392.833,246.5 392.167,246.5 391.5,246.5C 397.13,240.369 402.964,234.369 409,228.5C 409.425,221.533 409.592,214.866 409.5,208.5 Z"/></g>
<g><path style="opacity:1" fill="#f6f6f6" d="M 409.5,246.5 C 404.167,246.5 398.833,246.5 393.5,246.5C 398.464,241.035 403.63,235.702 409,230.5C 409.499,235.823 409.666,241.156 409.5,246.5 Z"/></g>
</svg>
