<?xml version="1.0" encoding="UTF-8"?>
<!DOCTYPE svg PUBLIC "-//W3C//DTD SVG 1.1//EN" "http://www.w3.org/Graphics/SVG/1.1/DTD/svg11.dtd">
<svg xmlns="http://www.w3.org/2000/svg" version="1.1" width="247px" height="255px" style="shape-rendering:geometricPrecision; text-rendering:geometricPrecision; image-rendering:optimizeQuality; fill-rule:evenodd; clip-rule:evenodd" xmlns:xlink="http://www.w3.org/1999/xlink">
<g><path style="opacity:1" fill="#fdfdfd" d="M -0.5,-0.5 C 81.8333,-0.5 164.167,-0.5 246.5,-0.5C 246.5,84.5 246.5,169.5 246.5,254.5C 164.167,254.5 81.8333,254.5 -0.5,254.5C -0.5,169.5 -0.5,84.5 -0.5,-0.5 Z"/></g>
<g><path style="opacity:1" fill="#696969" d="M 8.5,105.5 C 7.72304,116.148 7.38971,126.815 7.5,137.5C 6.83434,133.514 6.50101,129.347 6.5,125C 6.3534,118.269 7.02006,111.769 8.5,105.5 Z"/></g>
<g><path style="opacity:1" fill="#262626" d="M 7.5,137.5 C 7.38971,126.815 7.72304,116.148 8.5,105.5C 18.3675,60.7919 45.0342,30.9586 88.5,16C 142.844,3.99358 186.011,20.4936 218,65.5C 232.331,88.4994 237.664,113.499 234,140.5C 225.948,187.893 199.115,219.393 153.5,235C 96.4801,248.449 52.3135,230.615 21,181.5C 13.77,167.645 9.27002,152.979 7.5,137.5 Z"/></g>
<g><path style="opacity:1" fill="#cacaca" d="M 229.5,100.5 C 230.856,103.577 231.689,106.91 232,110.5C 232.824,120.009 232.658,129.343 231.5,138.5C 231.817,125.764 231.151,113.098 229.5,100.5 Z"/></g>
<g><path style="opacity:1" fill="#fcfcfc" d="M 229.5,100.5 C 231.151,113.098 231.817,125.764 231.5,138.5C 224.64,186.2 198.307,217.7 152.5,233C 145.958,234.924 139.291,236.09 132.5,236.5C 121.482,236.619 110.482,236.286 99.5,235.5C 99.1667,235.5 98.8333,235.5 98.5,235.5C 96.4855,234.076 94.1522,233.41 91.5,233.5C 48.4765,220.64 21.6432,192.307 11,148.5C 3.48124,97.056 21.3146,57.2227 64.5,29C 91.9755,13.8579 120.976,10.1912 151.5,18C 192.334,31.5212 218.334,59.0212 229.5,100.5 Z"/></g>
<g><path style="opacity:1" fill="#272727" d="M 111.5,61.5 C 146.75,60.0286 170.584,75.6952 183,108.5C 189.199,140.921 178.366,165.755 150.5,183C 116.006,197.498 87.8396,189.664 66,159.5C 50.2614,128.894 54.4281,101.394 78.5,77C 88.2927,69.1018 99.2927,63.9351 111.5,61.5 Z"/></g>
<g><path style="opacity:1" fill="#fdfdfd" d="M 113.5,63.5 C 144.284,62.4636 166.117,75.7969 179,103.5C 188.069,134.156 179.903,158.99 154.5,178C 119.992,195.995 91.1585,189.495 68,158.5C 50.5869,123.428 57.7536,94.5951 89.5,72C 97.1606,67.8377 105.161,65.0043 113.5,63.5 Z"/></g>
<g><path style="opacity:1" fill="#a7a7a7" d="M 91.5,233.5 C 94.1522,233.41 96.4855,234.076 98.5,235.5C 95.8478,235.59 93.5145,234.924 91.5,233.5 Z"/></g>
<g><path style="opacity:1" fill="#c8c8c8" d="M 99.5,235.5 C 110.482,236.286 121.482,236.619 132.5,236.5C 128.18,237.166 123.68,237.499 119,237.5C 112.262,237.686 105.762,237.019 99.5,235.5 Z"/></g>
</svg>
