<?xml version="1.0" encoding="UTF-8"?>
<!DOCTYPE svg PUBLIC "-//W3C//DTD SVG 1.1//EN" "http://www.w3.org/Graphics/SVG/1.1/DTD/svg11.dtd">
<svg xmlns="http://www.w3.org/2000/svg" version="1.1" width="260px" height="251px" style="shape-rendering:geometricPrecision; text-rendering:geometricPrecision; image-rendering:optimizeQuality; fill-rule:evenodd; clip-rule:evenodd" xmlns:xlink="http://www.w3.org/1999/xlink">
<g><path style="opacity:1" fill="#fdfdfd" d="M -0.5,-0.5 C 86.1667,-0.5 172.833,-0.5 259.5,-0.5C 259.5,83.1667 259.5,166.833 259.5,250.5C 172.833,250.5 86.1667,250.5 -0.5,250.5C -0.5,166.833 -0.5,83.1667 -0.5,-0.5 Z"/></g>
<g><path style="opacity:1" fill="#262626" d="M 124.5,241.5 C 122.031,240.683 119.365,240.183 116.5,240C 117.094,239.536 117.761,239.369 118.5,239.5C 127.349,239.826 136.016,239.493 144.5,238.5C 189.53,232.237 221.03,208.237 239,166.5C 255.919,112.937 242.752,68.4367 199.5,33C 182.609,21.314 163.942,14.4807 143.5,12.5C 139.18,11.8342 134.68,11.5009 130,11.5C 123.262,11.3138 116.762,11.9805 110.5,13.5C 69.7102,22.8238 41.2102,46.8238 25,85.5C 8.86117,140.077 23.0278,184.911 67.5,220C 79.3953,228.131 92.3953,233.631 106.5,236.5C 109.219,237.913 112.219,238.58 115.5,238.5C 113.393,239.468 111.059,239.802 108.5,239.5C 68.7118,230.213 40.5452,206.88 24,169.5C 8.4473,126.774 14.4473,87.4408 42,51.5C 75.4246,13.805 116.591,1.30501 165.5,14C 204.547,26.7132 230.714,52.5465 244,91.5C 255.579,138.7 244.079,179.2 209.5,213C 184.971,233.565 156.638,243.065 124.5,241.5 Z"/></g>
<g><path style="opacity:1" fill="#fdfdfd" d="M 143.5,12.5 C 163.942,14.4807 182.609,21.314 199.5,33C 242.752,68.4367 255.919,112.937 239,166.5C 221.03,208.237 189.53,232.237 144.5,238.5C 131.764,238.817 119.098,238.151 106.5,236.5C 92.3953,233.631 79.3953,228.131 67.5,220C 23.0278,184.911 8.86117,140.077 25,85.5C 41.2102,46.8238 69.7102,22.8238 110.5,13.5C 121.482,12.7141 132.482,12.3808 143.5,12.5 Z"/></g>
<g><path style="opacity:1" fill="#bdbdbd" d="M 143.5,12.5 C 132.482,12.3808 121.482,12.7141 110.5,13.5C 116.762,11.9805 123.262,11.3138 130,11.5C 134.68,11.5009 139.18,11.8342 143.5,12.5 Z"/></g>
<g><path style="opacity:1" fill="#c3c3c3" d="M 138.5,87.5 C 133.13,87.3921 127.797,87.7255 122.5,88.5C 122.918,87.7784 123.584,87.2784 124.5,87C 129.352,86.1849 134.019,86.3516 138.5,87.5 Z"/></g>
<g><path style="opacity:1" fill="#2e2e2e" d="M 138.5,87.5 C 165.289,95.7394 174.789,113.406 167,140.5C 158.047,158.395 143.547,165.895 123.5,163C 117.374,161.44 112.041,158.607 107.5,154.5C 105.5,151.833 103.167,149.5 100.5,147.5C 94.0327,135.385 92.8661,122.718 97,109.5C 102.368,98.626 110.868,91.626 122.5,88.5C 127.797,87.7255 133.13,87.3921 138.5,87.5 Z"/></g>
<g><path style="opacity:1" fill="#fcfcfc" d="M 136.5,90.5 C 156.392,93.7239 166.725,105.391 167.5,125.5C 167.406,140.868 160.406,151.701 146.5,158C 143.382,159.727 140.049,160.561 136.5,160.5C 130.378,160.732 124.378,160.065 118.5,158.5C 104.191,151.925 96.8577,140.592 96.5,124.5C 97.7094,107.974 106.043,96.9736 121.5,91.5C 126.463,90.746 131.463,90.4126 136.5,90.5 Z"/></g>
<g><path style="opacity:1" fill="#ababab" d="M 136.5,90.5 C 131.463,90.4126 126.463,90.746 121.5,91.5C 124.186,90.0092 127.186,89.3425 130.5,89.5C 132.696,89.5046 134.696,89.838 136.5,90.5 Z"/></g>
<g><path style="opacity:1" fill="#a6a6a6" d="M 100.5,147.5 C 103.167,149.5 105.5,151.833 107.5,154.5C 104.167,153.167 101.833,150.833 100.5,147.5 Z"/></g>
<g><path style="opacity:1" fill="#adadad" d="M 118.5,158.5 C 124.378,160.065 130.378,160.732 136.5,160.5C 130.272,162.147 124.272,161.48 118.5,158.5 Z"/></g>
<g><path style="opacity:1" fill="#c9c9c9" d="M 106.5,236.5 C 119.098,238.151 131.764,238.817 144.5,238.5C 136.016,239.493 127.349,239.826 118.5,239.5C 117.791,238.596 116.791,238.263 115.5,238.5C 112.219,238.58 109.219,237.913 106.5,236.5 Z"/></g>
<g><path style="opacity:1" fill="#4e4e4e" d="M 115.5,238.5 C 116.791,238.263 117.791,238.596 118.5,239.5C 117.761,239.369 117.094,239.536 116.5,240C 119.365,240.183 122.031,240.683 124.5,241.5C 118.931,241.624 113.598,240.957 108.5,239.5C 111.059,239.802 113.393,239.468 115.5,238.5 Z"/></g>
</svg>
