<?xml version="1.0" encoding="UTF-8"?>
<!DOCTYPE svg PUBLIC "-//W3C//DTD SVG 1.1//EN" "http://www.w3.org/Graphics/SVG/1.1/DTD/svg11.dtd">
<svg xmlns="http://www.w3.org/2000/svg" version="1.1" width="274px" height="274px" style="shape-rendering:geometricPrecision; text-rendering:geometricPrecision; image-rendering:optimizeQuality; fill-rule:evenodd; clip-rule:evenodd" xmlns:xlink="http://www.w3.org/1999/xlink">
<g><path style="opacity:1" fill="#fdfdfd" d="M -0.5,-0.5 C 90.8333,-0.5 182.167,-0.5 273.5,-0.5C 273.5,90.8333 273.5,182.167 273.5,273.5C 182.167,273.5 90.8333,273.5 -0.5,273.5C -0.5,182.167 -0.5,90.8333 -0.5,-0.5 Z"/></g>
<g><path style="opacity:1" fill="#1a1a1a" d="M 237.5,110.5 C 237.59,107.848 236.924,105.515 235.5,103.5C 226.4,71.2264 206.4,48.393 175.5,35C 125.598,18.2767 84.7652,30.7767 53,72.5C 34.8488,102.208 31.5154,133.541 43,166.5C 59.8021,204.14 88.6354,225.474 129.5,230.5C 129.5,241.833 129.5,253.167 129.5,264.5C 117.825,264.721 106.491,262.887 95.5,259C 91.4523,253.538 88.9523,247.371 88,240.5C 34.0477,211.601 10.3811,166.601 17,105.5C 28.8251,53.6769 60.3251,20.8435 111.5,7C 161.923,-0.97476 203.423,14.5252 236,53.5C 260.051,87.7806 266.051,125.114 254,165.5C 241.901,198.935 219.901,223.602 188,239.5C 185.766,244.64 184.099,249.973 183,255.5C 181.833,256.667 180.667,257.833 179.5,259C 168.505,262.76 157.171,264.593 145.5,264.5C 145.5,253.167 145.5,241.833 145.5,230.5C 190.519,224.636 220.353,200.303 235,157.5C 239.64,142.014 240.474,126.348 237.5,110.5 Z"/></g>
<g><path style="opacity:1" fill="#f8f8f8" d="M 124.5,7.5 C 183.998,5.48106 225.832,31.4811 250,85.5C 265.514,136.279 254.348,180.112 216.5,217C 206.4,224.796 195.9,231.963 185,238.5C 183.656,243.181 182.323,247.847 181,252.5C 180.215,254.286 179.049,255.786 177.5,257C 167.931,259.349 158.265,260.849 148.5,261.5C 148.5,251.833 148.5,242.167 148.5,232.5C 200.512,224.322 231.345,194.322 241,142.5C 244.842,91.6621 224.009,55.1621 178.5,33C 130.041,15.5724 88.8742,26.0724 55,64.5C 31.5339,96.7531 26.8673,131.753 41,169.5C 57.9249,206.212 86.4249,227.212 126.5,232.5C 126.5,242.167 126.5,251.833 126.5,261.5C 116.574,261.63 106.908,260.13 97.5,257C 94.3646,251.936 92.1979,246.436 91,240.5C 90.028,238.695 88.8613,237.028 87.5,235.5C 42.5146,212.807 19.5146,176.14 18.5,125.5C 20.3524,81.5245 39.6857,47.6912 76.5,24C 91.6456,15.5639 107.646,10.0639 124.5,7.5 Z"/></g>
<g><path style="opacity:1" fill="#a3a3a3" d="M 235.5,103.5 C 236.924,105.515 237.59,107.848 237.5,110.5C 236.076,108.485 235.41,106.152 235.5,103.5 Z"/></g>
<g><path style="opacity:1" fill="#151515" d="M 107.5,237.5 C 116.668,235.801 120.835,239.468 120,248.5C 115.714,254.303 110.714,254.969 105,250.5C 103.743,245.617 104.576,241.284 107.5,237.5 Z"/></g>
<g><path style="opacity:1" fill="#131313" d="M 157.5,237.5 C 160.518,237.335 163.518,237.502 166.5,238C 172.335,241.855 173.002,246.522 168.5,252C 160.88,255.523 156.213,253.19 154.5,245C 155.222,242.323 156.222,239.823 157.5,237.5 Z"/></g>
<g><path style="opacity:1" fill="#ededed" d="M 110.5,239.5 C 115.813,239.644 117.979,242.31 117,247.5C 113.714,251.485 110.381,251.485 107,247.5C 106.279,243.946 107.446,241.28 110.5,239.5 Z"/></g>
<g><path style="opacity:1" fill="#ededed" d="M 161.5,239.5 C 166.734,239.623 168.901,242.29 168,247.5C 164.619,251.485 161.286,251.485 158,247.5C 156.78,243.707 157.947,241.04 161.5,239.5 Z"/></g>
</svg>
