<?xml version="1.0" encoding="UTF-8"?>
<!DOCTYPE svg PUBLIC "-//W3C//DTD SVG 1.1//EN" "http://www.w3.org/Graphics/SVG/1.1/DTD/svg11.dtd">
<svg xmlns="http://www.w3.org/2000/svg" version="1.1" width="285px" height="216px" style="shape-rendering:geometricPrecision; text-rendering:geometricPrecision; image-rendering:optimizeQuality; fill-rule:evenodd; clip-rule:evenodd" xmlns:xlink="http://www.w3.org/1999/xlink">
<g><path style="opacity:1" fill="#fefefe" d="M -0.5,-0.5 C 94.5,-0.5 189.5,-0.5 284.5,-0.5C 284.5,71.5 284.5,143.5 284.5,215.5C 189.5,215.5 94.5,215.5 -0.5,215.5C -0.5,143.5 -0.5,71.5 -0.5,-0.5 Z"/></g>
<g><path style="opacity:1" fill="#f9f9f9" d="M 144.5,205.5 C 143.432,206.434 142.099,206.768 140.5,206.5C 134.066,201.047 131.233,194.047 132,185.5C 139.368,182.568 146.201,178.734 152.5,174C 163.187,173.739 172.021,169.573 179,161.5C 200.241,119.777 194.074,82.6103 160.5,50C 154.904,45.2836 148.738,41.4503 142,38.5C 139.431,39.7856 136.764,40.7856 134,41.5C 127.159,38.5002 119.993,36.8335 112.5,36.5C 106.681,35.3475 100.681,35.1808 94.5,36C 90.3673,35.9064 86.7006,36.7397 83.5,38.5C 81.4561,39.5082 79.4561,40.5082 77.5,41.5C 72.5773,41.5063 67.9106,40.6729 63.5,39C 25.8945,61.7665 11.0612,94.9332 19,138.5C 21.2292,146.959 24.5626,154.959 29,162.5C 35.8285,169.997 44.3285,173.83 54.5,174C 60.9779,178.669 67.9779,182.169 75.5,184.5C 76.336,192.125 74.336,198.792 69.5,204.5C 67.0504,204.702 64.717,204.369 62.5,203.5C 31.1028,188.388 11.9361,163.721 5,129.5C -0.496197,84.9091 15.3371,50.4091 52.5,26C 98.2993,2.78958 139.799,8.62291 177,43.5C 204.255,75.6891 210.588,111.689 196,151.5C 184.694,176.474 166.527,194.307 141.5,205C 142.448,205.483 143.448,205.649 144.5,205.5 Z"/></g>
<g><path style="opacity:1" fill="#121212" d="M 260.5,10.5 C 265.5,10.5 270.5,10.5 275.5,10.5C 275.169,76.0712 275.502,141.571 276.5,207C 271.177,207.499 265.844,207.666 260.5,207.5C 260.5,141.833 260.5,76.1667 260.5,10.5 Z"/></g>
<g><path style="opacity:1" fill="#fdfdfc" d="M 262.5,11.5 C 266.167,11.5 269.833,11.5 273.5,11.5C 273.5,76.1667 273.5,140.833 273.5,205.5C 269.833,205.5 266.167,205.5 262.5,205.5C 262.5,140.833 262.5,76.1667 262.5,11.5 Z"/></g>
<g><path style="opacity:1" fill="#272727" d="M 144.5,205.5 C 143.448,205.649 142.448,205.483 141.5,205C 166.527,194.307 184.694,176.474 196,151.5C 210.588,111.689 204.255,75.6891 177,43.5C 139.799,8.62291 98.2993,2.78958 52.5,26C 15.3371,50.4091 -0.496197,84.9091 5,129.5C 11.9361,163.721 31.1028,188.388 62.5,203.5C 62.1583,204.338 61.4916,204.672 60.5,204.5C 19.0812,183.355 -0.418827,149.355 2,102.5C 10.9431,49.7235 41.7765,18.7235 94.5,9.5C 156.483,10.6604 193.816,41.4937 206.5,102C 207.827,136.664 195.827,165.998 170.5,190C 162.177,196.651 153.51,201.817 144.5,205.5 Z"/></g>
<g><path style="opacity:1" fill="#242424" d="M 98.5,38.5 C 91.3582,38.5957 84.3582,39.5957 77.5,41.5C 79.4561,40.5082 81.4561,39.5082 83.5,38.5C 89.179,37.6654 94.8457,37.1654 100.5,37C 99.5842,37.2784 98.9175,37.7784 98.5,38.5 Z"/></g>
<g><path style="opacity:1" fill="#808080" d="M 112.5,36.5 C 110.473,36.3379 108.473,36.5045 106.5,37C 107.737,37.2321 108.737,37.7321 109.5,38.5C 105.833,38.5 102.167,38.5 98.5,38.5C 98.9175,37.7784 99.5842,37.2784 100.5,37C 94.8457,37.1654 89.179,37.6654 83.5,38.5C 86.7006,36.7397 90.3673,35.9064 94.5,36C 100.681,35.1808 106.681,35.3475 112.5,36.5 Z"/></g>
<g><path style="opacity:1" fill="#272626" d="M 112.5,36.5 C 119.993,36.8335 127.159,38.5002 134,41.5C 136.764,40.7856 139.431,39.7856 142,38.5C 148.738,41.4503 154.904,45.2836 160.5,50C 194.074,82.6103 200.241,119.777 179,161.5C 172.021,169.573 163.187,173.739 152.5,174C 146.201,178.734 139.368,182.568 132,185.5C 131.233,194.047 134.066,201.047 140.5,206.5C 137.675,206.919 135.509,205.919 134,203.5C 130.602,197.578 129.269,191.245 130,184.5C 137.544,180.978 144.711,176.811 151.5,172C 168.452,171.388 179.286,162.888 184,146.5C 196.974,100.579 183.141,65.2459 142.5,40.5C 139.842,41.9971 137.009,42.9971 134,43.5C 126.078,40.6446 117.912,38.978 109.5,38.5C 108.737,37.7321 107.737,37.2321 106.5,37C 108.473,36.5045 110.473,36.3379 112.5,36.5 Z"/></g>
<g><path style="opacity:1" fill="#252525" d="M 77.5,41.5 C 76.376,42.8086 74.876,43.4753 73,43.5C 70.3432,42.9226 67.8432,41.9226 65.5,40.5C 26.4112,63.3637 11.9112,97.0303 22,141.5C 24.3459,153.393 30.5126,162.559 40.5,169C 45.3175,170.869 50.3175,171.869 55.5,172C 61.9176,176.876 68.9176,180.709 76.5,183.5C 77.388,186.054 77.7214,188.721 77.5,191.5C 76.4663,195.954 74.9663,200.288 73,204.5C 71.6703,205.582 70.1703,206.249 68.5,206.5C 67.448,206.649 66.448,206.483 65.5,206C 67.0581,205.79 68.3915,205.29 69.5,204.5C 74.336,198.792 76.336,192.125 75.5,184.5C 67.9779,182.169 60.9779,178.669 54.5,174C 44.3285,173.83 35.8285,169.997 29,162.5C 24.5626,154.959 21.2292,146.959 19,138.5C 11.0612,94.9332 25.8945,61.7665 63.5,39C 67.9106,40.6729 72.5773,41.5063 77.5,41.5 Z"/></g>
<g><path style="opacity:1" fill="#262626" d="M 153.5,190.5 C 153.67,191.822 153.337,192.989 152.5,194C 147.077,195.619 143.077,193.953 140.5,189C 141.872,181.147 146.206,178.814 153.5,182C 154.627,183.753 155.627,185.587 156.5,187.5C 155.812,188.855 154.812,189.855 153.5,190.5 Z"/></g>
<g><path style="opacity:1" fill="#f4f4f4" d="M 153.5,190.5 C 146.362,194.576 143.195,192.576 144,184.5C 150.896,180.56 154.063,182.56 153.5,190.5 Z"/></g>
<g><path style="opacity:1" fill="#262525" d="M 55.5,180.5 C 62.7179,179.566 66.2179,182.566 66,189.5C 63.9276,194.143 60.4276,195.643 55.5,194C 50.2088,189.55 50.2088,185.05 55.5,180.5 Z"/></g>
<g><path style="opacity:1" fill="#f2f2f2" d="M 56.5,182.5 C 61.8351,182.005 64.3351,184.338 64,189.5C 61.5254,192.524 58.5254,193.19 55,191.5C 52.7879,188.021 53.2879,185.021 56.5,182.5 Z"/></g>
<g><path style="opacity:1" fill="#969696" d="M 76.5,183.5 C 77.675,183.281 78.675,183.614 79.5,184.5C 78.9329,186.982 78.2663,189.316 77.5,191.5C 77.7214,188.721 77.388,186.054 76.5,183.5 Z"/></g>
<g><path style="opacity:1" fill="#5f5f5f" d="M 62.5,203.5 C 64.717,204.369 67.0504,204.702 69.5,204.5C 68.3915,205.29 67.0581,205.79 65.5,206C 66.448,206.483 67.448,206.649 68.5,206.5C 65.5132,207.702 62.8465,207.035 60.5,204.5C 61.4916,204.672 62.1583,204.338 62.5,203.5 Z"/></g>
</svg>
