<?xml version="1.0" encoding="UTF-8"?>
<!DOCTYPE svg PUBLIC "-//W3C//DTD SVG 1.1//EN" "http://www.w3.org/Graphics/SVG/1.1/DTD/svg11.dtd">
<svg xmlns="http://www.w3.org/2000/svg" version="1.1" width="276px" height="258px" style="shape-rendering:geometricPrecision; text-rendering:geometricPrecision; image-rendering:optimizeQuality; fill-rule:evenodd; clip-rule:evenodd" xmlns:xlink="http://www.w3.org/1999/xlink">
<g><path style="opacity:1" fill="#fdfdfd" d="M -0.5,-0.5 C 91.5,-0.5 183.5,-0.5 275.5,-0.5C 275.5,85.5 275.5,171.5 275.5,257.5C 183.5,257.5 91.5,257.5 -0.5,257.5C -0.5,171.5 -0.5,85.5 -0.5,-0.5 Z"/></g>
<g><path style="opacity:1" fill="#191919" d="M 128.5,8.5 C 193.476,8.3732 236.643,38.7065 258,99.5C 269.016,149.628 255.849,192.128 218.5,227C 208.759,234.871 198.093,241.205 186.5,246C 182.171,247.151 178.338,246.318 175,243.5C 173.778,239.29 172.112,235.29 170,231.5C 169.333,227.167 169.333,222.833 170,218.5C 179.651,215.092 188.485,210.259 196.5,204C 208.955,204.516 219.122,200.016 227,190.5C 249.667,146.486 245.334,105.486 214,67.5C 205.441,58.9369 195.775,51.9369 185,46.5C 181.882,47.6471 178.882,48.9804 176,50.5C 150.974,39.8696 125.974,39.8696 101,50.5C 98.1177,48.9804 95.1177,47.6471 92,46.5C 53.3931,68.031 34.7265,101.031 36,145.5C 37.1266,161.617 41.7933,176.617 50,190.5C 57.9024,200.033 68.0691,204.533 80.5,204C 88.3914,210.115 97.0581,214.948 106.5,218.5C 107.661,222.795 107.828,227.129 107,231.5C 105.192,236.268 103.026,240.768 100.5,245C 93.3478,247.427 86.6811,246.427 80.5,242C 31.8396,213.131 10.3396,170.297 16,113.5C 25.4796,65.0266 53.313,32.1933 99.5,15C 109.068,11.763 118.734,9.59636 128.5,8.5 Z"/></g>
<g><path style="opacity:1" fill="#f8f8f8" d="M 126.5,11.5 C 183.752,10.0204 224.918,34.6871 250,85.5C 266.799,131.246 260.132,173.246 230,211.5C 216.7,226.073 200.867,237.073 182.5,244.5C 180.107,243.905 178.273,242.572 177,240.5C 175.716,237.193 174.383,233.859 173,230.5C 172.176,227.118 172.343,223.784 173.5,220.5C 182.114,217.024 190.114,212.524 197.5,207C 216.408,206.299 229.242,197.132 236,179.5C 253.048,133.436 244.214,93.269 209.5,59C 202.513,53.5055 195.18,48.5055 187.5,44C 183.14,43.6659 179.14,44.8326 175.5,47.5C 156.775,39.8732 137.441,38.0399 117.5,42C 111.945,43.296 106.445,44.796 101,46.5C 98.6793,46.0905 96.5126,45.2572 94.5,44C 92.8333,43.3333 91.1667,43.3333 89.5,44C 53.422,64.7982 34.422,96.1315 32.5,138C 33.0018,157.518 38.1684,175.685 48,192.5C 56.1832,202.346 66.6832,207.179 79.5,207C 86.88,212.534 94.88,217.034 103.5,220.5C 104.873,228.884 102.873,236.384 97.5,243C 94.8333,243.667 92.1667,243.667 89.5,243C 35.3371,214.428 12.1704,169.595 20,108.5C 34.7166,53.2809 70.2166,20.9476 126.5,11.5 Z"/></g>
<g><path style="opacity:1" fill="#1c1c1c" d="M 188.5,214.5 C 198.586,213.274 202.753,217.607 201,227.5C 194.833,234.412 189.167,234.079 184,226.5C 183.333,224.167 183.333,221.833 184,219.5C 185.366,217.638 186.866,215.972 188.5,214.5 Z"/></g>
<g><path style="opacity:1" fill="#1e1e1e" d="M 79.5,214.5 C 89.643,212.485 94.143,216.485 93,226.5C 88.47,233.588 83.1367,234.255 77,228.5C 74.5412,223.203 75.3745,218.536 79.5,214.5 Z"/></g>
<g><path style="opacity:1" fill="#f3f3f3" d="M 81.5,217.5 C 89.7885,217.265 92.1218,220.765 88.5,228C 83.0226,230.595 79.6892,228.928 78.5,223C 78.6132,220.601 79.6132,218.768 81.5,217.5 Z"/></g>
<g><path style="opacity:1" fill="#f1f1f1" d="M 189.5,217.5 C 197.991,216.99 200.324,220.49 196.5,228C 190.787,231.059 187.453,229.393 186.5,223C 186.863,220.808 187.863,218.974 189.5,217.5 Z"/></g>
</svg>
