<?xml version="1.0" encoding="UTF-8"?>
<!DOCTYPE svg PUBLIC "-//W3C//DTD SVG 1.1//EN" "http://www.w3.org/Graphics/SVG/1.1/DTD/svg11.dtd">
<svg xmlns="http://www.w3.org/2000/svg" version="1.1" width="260px" height="399px" style="shape-rendering:geometricPrecision; text-rendering:geometricPrecision; image-rendering:optimizeQuality; fill-rule:evenodd; clip-rule:evenodd" xmlns:xlink="http://www.w3.org/1999/xlink">
<g><path style="opacity:1" fill="#fdfdfd" d="M -0.5,-0.5 C 86.1667,-0.5 172.833,-0.5 259.5,-0.5C 259.5,132.5 259.5,265.5 259.5,398.5C 172.833,398.5 86.1667,398.5 -0.5,398.5C -0.5,265.5 -0.5,132.5 -0.5,-0.5 Z"/></g>
<g><path style="opacity:1" fill="#373737" d="M 219.5,24.5 C 221.509,26.0652 223.843,27.0652 226.5,27.5C 230.309,28.332 233.643,29.9986 236.5,32.5C 234.302,32.4088 233.969,33.0755 235.5,34.5C 227.823,30.6004 219.823,27.6004 211.5,25.5C 210.239,22.9388 208.239,21.2722 205.5,20.5C 203.697,19.9536 202.03,19.1203 200.5,18C 152.5,17.3333 104.5,17.3333 56.5,18C 54.8333,19 53.1667,20 51.5,21C 51.7284,21.3988 52.0618,21.5654 52.5,21.5C 52.2648,22.0967 51.7648,22.4301 51,22.5C 49.9231,21.5705 48.7564,20.9038 47.5,20.5C 47.9528,19.5416 48.6195,18.7083 49.5,18C 51.3839,17.7837 53.0506,17.117 54.5,16C 103.5,15.3333 152.5,15.3333 201.5,16C 207.37,19.1016 213.37,21.935 219.5,24.5 Z"/></g>
<g><path style="opacity:1" fill="#e8e8e8" d="M 205.5,20.5 C 193.016,20.5553 180.349,20.7219 167.5,21C 158.006,22.1895 149.006,24.6895 140.5,28.5C 136.529,30.4987 132.529,32.4987 128.5,34.5C 110.64,25.2851 91.64,20.6184 71.5,20.5C 66.6543,20.5008 61.9876,20.8341 57.5,21.5C 55.8333,21.5 54.1667,21.5 52.5,21.5C 52.0618,21.5654 51.7284,21.3988 51.5,21C 53.1667,20 54.8333,19 56.5,18C 104.5,17.3333 152.5,17.3333 200.5,18C 202.03,19.1203 203.697,19.9536 205.5,20.5 Z"/></g>
<g><path style="opacity:1" fill="#fefefe" d="M 83.5,23.5 C 88.8779,23.845 94.2112,24.5117 99.5,25.5C 101.515,26.9238 103.848,27.5905 106.5,27.5C 113.683,30.0017 120.683,33.0017 127.5,36.5C 127.5,56.1667 127.5,75.8333 127.5,95.5C 90.8333,95.5 54.1667,95.5 17.5,95.5C 17.3334,76.1638 17.5,56.8305 18,37.5C 18.7172,36.9558 19.2172,36.2891 19.5,35.5C 26.0799,31.7151 33.0799,28.7151 40.5,26.5C 54.714,23.9844 69.0473,22.9844 83.5,23.5 Z"/></g>
<g><path style="opacity:1" fill="#fdfdfd" d="M 211.5,25.5 C 219.823,27.6004 227.823,30.6004 235.5,34.5C 237.297,35.7298 239.297,36.3964 241.5,36.5C 241.5,56.1667 241.5,75.8333 241.5,95.5C 204.5,95.5 167.5,95.5 130.5,95.5C 130.5,75.8333 130.5,56.1667 130.5,36.5C 135.735,33.0506 141.402,30.384 147.5,28.5C 168.573,21.8038 189.907,20.8038 211.5,25.5 Z"/></g>
<g><path style="opacity:1" fill="#a4a4a4" d="M 63.5,22.5 C 70.3543,22.176 77.021,22.5093 83.5,23.5C 69.0473,22.9844 54.714,23.9844 40.5,26.5C 47.8409,24.0663 55.5075,22.7329 63.5,22.5 Z"/></g>
<g><path style="opacity:1" fill="#9f9f9f" d="M 219.5,24.5 C 222.491,24.1663 224.824,25.1663 226.5,27.5C 223.843,27.0652 221.509,26.0652 219.5,24.5 Z"/></g>
<g><path style="opacity:1" fill="#6f6f6f" d="M 99.5,25.5 C 102.152,25.4095 104.485,26.0762 106.5,27.5C 103.848,27.5905 101.515,26.9238 99.5,25.5 Z"/></g>
<g><path style="opacity:1" fill="#494949" d="M 205.5,20.5 C 208.239,21.2722 210.239,22.9388 211.5,25.5C 189.907,20.8038 168.573,21.8038 147.5,28.5C 145.374,27.8968 143.041,27.8968 140.5,28.5C 149.006,24.6895 158.006,22.1895 167.5,21C 180.349,20.7219 193.016,20.5553 205.5,20.5 Z"/></g>
<g><path style="opacity:1" fill="#353535" d="M 57.5,21.5 C 61.9876,20.8341 66.6543,20.5008 71.5,20.5C 91.64,20.6184 110.64,25.2851 128.5,34.5C 132.529,32.4987 136.529,30.4987 140.5,28.5C 143.041,27.8968 145.374,27.8968 147.5,28.5C 141.402,30.384 135.735,33.0506 130.5,36.5C 130.167,36.5 129.833,36.5 129.5,36.5C 128.833,35.1667 128.167,35.1667 127.5,36.5C 120.683,33.0017 113.683,30.0017 106.5,27.5C 104.485,26.0762 102.152,25.4095 99.5,25.5C 94.2112,24.5117 88.8779,23.845 83.5,23.5C 77.021,22.5093 70.3543,22.176 63.5,22.5C 61.7354,21.5386 59.7354,21.2053 57.5,21.5 Z"/></g>
<g><path style="opacity:1" fill="#dfdfdf" d="M 19.5,35.5 C 19.2172,36.2891 18.7172,36.9558 18,37.5C 17.5,56.8305 17.3334,76.1638 17.5,95.5C 16.3376,76.0043 16.1709,56.3376 17,36.5C 17.6708,35.7476 18.5041,35.4142 19.5,35.5 Z"/></g>
<g><path style="opacity:1" fill="#2f2f2f" d="M 47.5,20.5 C 48.7564,20.9038 49.9231,21.5705 51,22.5C 51.7648,22.4301 52.2648,22.0967 52.5,21.5C 54.1667,21.5 55.8333,21.5 57.5,21.5C 59.7354,21.2053 61.7354,21.5386 63.5,22.5C 55.5075,22.7329 47.8409,24.0663 40.5,26.5C 33.0799,28.7151 26.0799,31.7151 19.5,35.5C 18.5041,35.4142 17.6708,35.7476 17,36.5C 16.1709,56.3376 16.3376,76.0043 17.5,95.5C 54.1667,95.5 90.8333,95.5 127.5,95.5C 90.1667,96.1667 52.8333,96.8333 15.5,97.5C 14.1718,76.6628 14.1718,55.6628 15.5,34.5C 19.3403,32.0791 23.3403,29.9125 27.5,28C 34.3279,25.7451 40.9946,23.2451 47.5,20.5 Z"/></g>
<g><path style="opacity:1" fill="#191919" d="M 236.5,32.5 C 238.84,33.086 241.007,34.086 243,35.5C 243.5,56.164 243.667,76.8306 243.5,97.5C 167.5,97.5 91.5,97.5 15.5,97.5C 52.8333,96.8333 90.1667,96.1667 127.5,95.5C 127.5,75.8333 127.5,56.1667 127.5,36.5C 128.167,35.1667 128.833,35.1667 129.5,36.5C 129.5,56.5 129.5,76.5 129.5,96.5C 167.004,96.8318 204.337,96.4985 241.5,95.5C 241.5,75.8333 241.5,56.1667 241.5,36.5C 239.297,36.3964 237.297,35.7298 235.5,34.5C 233.969,33.0755 234.302,32.4088 236.5,32.5 Z"/></g>
<g><path style="opacity:1" fill="#565656" d="M 129.5,36.5 C 129.833,36.5 130.167,36.5 130.5,36.5C 130.5,56.1667 130.5,75.8333 130.5,95.5C 167.5,95.5 204.5,95.5 241.5,95.5C 204.337,96.4985 167.004,96.8318 129.5,96.5C 129.5,76.5 129.5,56.5 129.5,36.5 Z"/></g>
<g><path style="opacity:1" fill="#f7f7f7" d="M 129.5,165.5 C 166.799,202.299 203.965,239.299 241,276.5C 241.47,277.577 241.303,278.577 240.5,279.5C 203.27,315.063 166.603,351.396 130.5,388.5C 129.749,389.573 128.749,389.74 127.5,389C 90.6667,352.167 53.8333,315.333 17,278.5C 16.3333,277.5 16.3333,276.5 17,275.5C 32.0907,260.915 46.924,246.248 61.5,231.5C 82.9023,210.764 104.236,189.431 125.5,167.5C 126.622,166.37 127.956,165.703 129.5,165.5 Z"/></g>
<g><path style="opacity:1" fill="#3d3d3d" d="M 130.5,163.5 C 127.075,163.367 126.742,164.033 129.5,165.5C 127.956,165.703 126.622,166.37 125.5,167.5C 104.236,189.431 82.9023,210.764 61.5,231.5C 61.1583,230.662 60.4916,230.328 59.5,230.5C 81.6046,207.895 103.938,185.395 126.5,163C 128.066,162.235 129.399,162.402 130.5,163.5 Z"/></g>
<g><path style="opacity:1" fill="#909090" d="M 137.5,205.5 C 129.483,205.501 121.483,205.834 113.5,206.5C 118.077,205.01 122.91,204.344 128,204.5C 131.352,204.502 134.518,204.835 137.5,205.5 Z"/></g>
<g><path style="opacity:1" fill="#fafafa" d="M 161.5,215.5 C 194.509,236.011 205.343,265.011 194,302.5C 186.759,319.571 174.926,332.237 158.5,340.5C 155.053,341.083 152.053,342.416 149.5,344.5C 147.139,344.674 144.806,345.007 142.5,345.5C 134.858,346.263 127.191,346.597 119.5,346.5C 118.167,346.5 116.833,346.5 115.5,346.5C 111.915,344.194 107.915,342.861 103.5,342.5C 77.1137,331.254 62.2803,311.254 59,282.5C 57.6444,263.227 63.1444,246.227 75.5,231.5C 100.326,205.735 128.992,200.402 161.5,215.5 Z"/></g>
<g><path style="opacity:1" fill="#343434" d="M 137.5,205.5 C 146.183,206.528 154.183,209.195 161.5,213.5C 160.494,213.938 160.494,214.604 161.5,215.5C 128.992,200.402 100.326,205.735 75.5,231.5C 75.1583,230.662 74.4916,230.328 73.5,230.5C 84.0711,217.935 97.4044,209.935 113.5,206.5C 121.483,205.834 129.483,205.501 137.5,205.5 Z"/></g>
<g><path style="opacity:1" fill="#2d2d2d" d="M 119.5,235.5 C 138.129,232.514 152.962,238.514 164,253.5C 175.204,275.08 172.038,294.247 154.5,311C 135.036,323.318 116.536,322.151 99,307.5C 84.0523,289.752 82.719,271.085 95,251.5C 101.533,243.431 109.7,238.098 119.5,235.5 Z"/></g>
<g><path style="opacity:1" fill="#fcfcfc" d="M 140.5,239.5 C 158.089,245.441 167.423,257.774 168.5,276.5C 168.176,291.989 161.509,303.823 148.5,312C 145.244,313.474 141.911,314.64 138.5,315.5C 130.466,315.698 122.466,315.365 114.5,314.5C 94.7725,305.05 86.6058,289.384 90,267.5C 93.0214,255.32 100.188,246.653 111.5,241.5C 114.647,241.263 117.647,240.43 120.5,239C 127.189,238.391 133.856,238.557 140.5,239.5 Z"/></g>
<g><path style="opacity:1" fill="#cecece" d="M 140.5,239.5 C 133.856,238.557 127.189,238.391 120.5,239C 117.647,240.43 114.647,241.263 111.5,241.5C 113.858,239.871 116.524,238.705 119.5,238C 125.5,237.333 131.5,237.333 137.5,238C 138.737,238.232 139.737,238.732 140.5,239.5 Z"/></g>
<g><path style="opacity:1" fill="#1f1f1f" d="M 130.5,163.5 C 168.87,200.869 206.536,238.869 243.5,277.5C 243.058,278.739 242.391,279.739 241.5,280.5C 240.833,280.5 240.5,280.167 240.5,279.5C 241.303,278.577 241.47,277.577 241,276.5C 203.965,239.299 166.799,202.299 129.5,165.5C 126.742,164.033 127.075,163.367 130.5,163.5 Z"/></g>
<g><path style="opacity:1" fill="#252525" d="M 73.5,230.5 C 74.4916,230.328 75.1583,230.662 75.5,231.5C 63.1444,246.227 57.6444,263.227 59,282.5C 62.2803,311.254 77.1137,331.254 103.5,342.5C 106.282,343.933 109.282,345.1 112.5,346C 111.207,346.49 109.873,346.657 108.5,346.5C 79.1816,336.584 62.015,316.251 57,285.5C 54.921,264.8 60.421,246.467 73.5,230.5 Z"/></g>
<g><path style="opacity:1" fill="#252525" d="M 161.5,213.5 C 186.775,226.527 199.775,247.36 200.5,276C 200.153,305.549 187.153,327.382 161.5,341.5C 160.417,341.539 159.417,341.873 158.5,342.5C 157.537,342.03 157.537,341.363 158.5,340.5C 174.926,332.237 186.759,319.571 194,302.5C 205.343,265.011 194.509,236.011 161.5,215.5C 160.494,214.604 160.494,213.938 161.5,213.5 Z"/></g>
<g><path style="opacity:1" fill="#212121" d="M 59.5,230.5 C 60.4916,230.328 61.1583,230.662 61.5,231.5C 46.924,246.248 32.0907,260.915 17,275.5C 16.3333,276.5 16.3333,277.5 17,278.5C 53.8333,315.333 90.6667,352.167 127.5,389C 128.749,389.74 129.749,389.573 130.5,388.5C 131.167,388.5 131.833,388.5 132.5,388.5C 131.294,391.139 129.294,391.972 126.5,391C 89.3333,353.833 52.1667,316.667 15,279.5C 14.3333,277.833 14.3333,276.167 15,274.5C 29.6477,259.686 44.481,245.019 59.5,230.5 Z"/></g>
<g><path style="opacity:1" fill="#c6c6c6" d="M 114.5,314.5 C 122.466,315.365 130.466,315.698 138.5,315.5C 130.374,318.379 122.374,318.045 114.5,314.5 Z"/></g>
<g><path style="opacity:1" fill="#696969" d="M 158.5,340.5 C 157.537,341.363 157.537,342.03 158.5,342.5C 159.417,341.873 160.417,341.539 161.5,341.5C 160.365,343.213 158.698,343.88 156.5,343.5C 156.44,342.957 156.107,342.624 155.5,342.5C 153.55,343.372 151.55,344.039 149.5,344.5C 152.053,342.416 155.053,341.083 158.5,340.5 Z"/></g>
<g><path style="opacity:1" fill="#2a2a2a" d="M 156.5,343.5 C 151.106,345.905 145.439,347.572 139.5,348.5C 130.75,348.91 122.084,348.41 113.5,347C 114.094,346.536 114.761,346.369 115.5,346.5C 116.833,346.5 118.167,346.5 119.5,346.5C 122.482,347.165 125.648,347.498 129,347.5C 133.772,347.692 138.272,347.025 142.5,345.5C 144.806,345.007 147.139,344.674 149.5,344.5C 151.55,344.039 153.55,343.372 155.5,342.5C 156.107,342.624 156.44,342.957 156.5,343.5 Z"/></g>
<g><path style="opacity:1" fill="#7e7e7e" d="M 142.5,345.5 C 138.272,347.025 133.772,347.692 129,347.5C 125.648,347.498 122.482,347.165 119.5,346.5C 127.191,346.597 134.858,346.263 142.5,345.5 Z"/></g>
<g><path style="opacity:1" fill="#707070" d="M 103.5,342.5 C 107.915,342.861 111.915,344.194 115.5,346.5C 114.761,346.369 114.094,346.536 113.5,347C 122.084,348.41 130.75,348.91 139.5,348.5C 131.677,349.656 123.677,349.823 115.5,349C 112.996,348.302 110.663,347.469 108.5,346.5C 109.873,346.657 111.207,346.49 112.5,346C 109.282,345.1 106.282,343.933 103.5,342.5 Z"/></g>
<g><path style="opacity:1" fill="#2d2d2d" d="M 240.5,279.5 C 240.5,280.167 240.833,280.5 241.5,280.5C 206.101,316.896 169.768,352.896 132.5,388.5C 131.833,388.5 131.167,388.5 130.5,388.5C 166.603,351.396 203.27,315.063 240.5,279.5 Z"/></g>
</svg>
