<?xml version="1.0" encoding="UTF-8"?>
<!DOCTYPE svg PUBLIC "-//W3C//DTD SVG 1.1//EN" "http://www.w3.org/Graphics/SVG/1.1/DTD/svg11.dtd">
<svg xmlns="http://www.w3.org/2000/svg" version="1.1" width="254px" height="365px" style="shape-rendering:geometricPrecision; text-rendering:geometricPrecision; image-rendering:optimizeQuality; fill-rule:evenodd; clip-rule:evenodd" xmlns:xlink="http://www.w3.org/1999/xlink">
<g><path style="opacity:1" fill="#fdfdfd" d="M -0.5,-0.5 C 84.1667,-0.5 168.833,-0.5 253.5,-0.5C 253.5,121.167 253.5,242.833 253.5,364.5C 168.833,364.5 84.1667,364.5 -0.5,364.5C -0.5,242.833 -0.5,121.167 -0.5,-0.5 Z"/></g>
<g><path style="opacity:1" fill="#020202" d="M 9.5,11.5 C 86.5,11.5 163.5,11.5 240.5,11.5C 241.152,28.8662 240.486,45.8662 238.5,62.5C 238.5,62.1667 238.5,61.8333 238.5,61.5C 239.496,45.3419 239.83,29.0085 239.5,12.5C 201.5,12.5 163.5,12.5 125.5,12.5C 86.6631,12.8319 47.9964,12.4985 9.5,11.5 Z"/></g>
<g><path style="opacity:1" fill="#535353" d="M 8.5,11.5 C 85.9982,10.5007 163.665,10.1674 241.5,10.5C 241.5,28.1667 241.5,45.8333 241.5,63.5C 163.665,63.8326 85.9982,63.4993 8.5,62.5C 85.1667,62.5 161.833,62.5 238.5,62.5C 240.486,45.8662 241.152,28.8662 240.5,11.5C 163.5,11.5 86.5,11.5 9.5,11.5C 9.16667,11.5 8.83333,11.5 8.5,11.5 Z"/></g>
<g><path style="opacity:1" fill="#8b8b8b" d="M 125.5,12.5 C 163.5,12.5 201.5,12.5 239.5,12.5C 239.83,29.0085 239.496,45.3419 238.5,61.5C 200.833,61.5 163.167,61.5 125.5,61.5C 125.5,45.1667 125.5,28.8333 125.5,12.5 Z"/></g>
<g><path style="opacity:1" fill="#fefefe" d="M 126.5,13.5 C 163.833,13.5 201.167,13.5 238.5,13.5C 238.5,29.1667 238.5,44.8333 238.5,60.5C 201.167,60.5 163.833,60.5 126.5,60.5C 126.5,44.8333 126.5,29.1667 126.5,13.5 Z"/></g>
<g><path style="opacity:1" fill="#2a2a2a" d="M 8.5,11.5 C 8.83333,11.5 9.16667,11.5 9.5,11.5C 47.9964,12.4985 86.6631,12.8319 125.5,12.5C 125.5,28.8333 125.5,45.1667 125.5,61.5C 163.167,61.5 200.833,61.5 238.5,61.5C 238.5,61.8333 238.5,62.1667 238.5,62.5C 161.833,62.5 85.1667,62.5 8.5,62.5C 8.5,45.5 8.5,28.5 8.5,11.5 Z"/></g>
<g><path style="opacity:1" fill="#838383" d="M 123.5,13.5 C 124.496,29.3246 124.83,45.3246 124.5,61.5C 86.3297,61.8318 48.3297,61.4985 10.5,60.5C 10.8333,60.5 11.1667,60.5 11.5,60.5C 48.5,60.5 85.5,60.5 122.5,60.5C 123.496,45.0089 123.83,29.3422 123.5,13.5 Z"/></g>
<g><path style="opacity:1" fill="#e6e6e6" d="M 123.5,13.5 C 123.83,29.3422 123.496,45.0089 122.5,60.5C 122.5,45.1667 122.5,29.8333 122.5,14.5C 85.5,14.5 48.5,14.5 11.5,14.5C 11.5,29.8333 11.5,45.1667 11.5,60.5C 11.1667,60.5 10.8333,60.5 10.5,60.5C 10.5,44.8333 10.5,29.1667 10.5,13.5C 48.1667,13.5 85.8333,13.5 123.5,13.5 Z"/></g>
<g><path style="opacity:1" fill="#fefefe" d="M 122.5,60.5 C 85.5,60.5 48.5,60.5 11.5,60.5C 11.5,45.1667 11.5,29.8333 11.5,14.5C 48.5,14.5 85.5,14.5 122.5,14.5C 122.5,29.8333 122.5,45.1667 122.5,60.5 Z"/></g>
<g><path style="opacity:1" fill="#fbfbfb" d="M 50.5,282.5 C 36.9936,269.827 23.9936,256.66 11.5,243C 32.6608,221.006 53.9942,199.172 75.5,177.5C 91.8394,161.327 108.339,145.327 125,129.5C 162.659,167.325 200.492,204.992 238.5,242.5C 200.825,280.675 162.992,318.675 125,356.5C 100.257,331.59 75.4237,306.923 50.5,282.5 Z"/></g>
<g><path style="opacity:1" fill="#eaeaea" d="M 136.5,195.5 C 148.086,197.782 157.086,203.782 163.5,213.5C 162.317,214.504 160.984,215.338 159.5,216C 160.536,217.617 161.703,217.784 163,216.5C 162.981,218.107 162.815,219.774 162.5,221.5C 150.912,203.831 134.579,196.997 113.5,201C 84.7708,213.3 75.9374,234.134 87,263.5C 90.9886,269.653 95.8219,274.986 101.5,279.5C 98.378,279.4 97.7113,281.066 99.5,284.5C 90.4037,279.565 83.9037,272.231 80,262.5C 70.8226,237.367 76.9893,216.867 98.5,201C 102.219,198.636 106.219,197.136 110.5,196.5C 114.454,195.628 118.454,194.962 122.5,194.5C 127.149,195.128 131.816,195.461 136.5,195.5 Z"/></g>
<g><path style="opacity:1" fill="#1e1e1e" d="M 73.5,177.5 C 74.1667,177.5 74.8333,177.5 75.5,177.5C 53.9942,199.172 32.6608,221.006 11.5,243C 23.9936,256.66 36.9936,269.827 50.5,282.5C 50.5,283.5 50.5,284.5 50.5,285.5C 35.9937,271.827 21.9937,257.66 8.5,243C 29.6609,220.672 51.3275,198.839 73.5,177.5 Z"/></g>
<g><path style="opacity:1" fill="#2c2c2c" d="M 163.5,213.5 C 157.086,203.782 148.086,197.782 136.5,195.5C 127.688,192.511 119.022,192.844 110.5,196.5C 106.219,197.136 102.219,198.636 98.5,201C 76.9893,216.867 70.8226,237.367 80,262.5C 83.9037,272.231 90.4037,279.565 99.5,284.5C 101.428,286.474 103.761,287.974 106.5,289C 112.725,290.973 119.058,292.473 125.5,293.5C 102.418,293.625 86.2514,282.958 77,261.5C 68.9896,234.053 76.8229,212.553 100.5,197C 121.295,187.723 140.629,190.056 158.5,204C 169.799,214.72 175.799,227.887 176.5,243.5C 175.5,243.5 174.5,243.5 173.5,243.5C 174.33,231.99 170.997,221.99 163.5,213.5 Z"/></g>
<g><path style="opacity:1" fill="#c0c0c0" d="M 136.5,195.5 C 131.816,195.461 127.149,195.128 122.5,194.5C 118.454,194.962 114.454,195.628 110.5,196.5C 119.022,192.844 127.688,192.511 136.5,195.5 Z"/></g>
<g><path style="opacity:1" fill="#292929" d="M 162.5,221.5 C 171.323,241.884 167.99,260.05 152.5,276C 136.17,287.254 119.17,288.421 101.5,279.5C 95.8219,274.986 90.9886,269.653 87,263.5C 75.9374,234.134 84.7708,213.3 113.5,201C 134.579,196.997 150.912,203.831 162.5,221.5 Z"/></g>
<g><path style="opacity:1" fill="#fbfbfb" d="M 115.5,202.5 C 139.062,200.023 155.228,209.69 164,231.5C 168.154,257.701 157.654,274.868 132.5,283C 112.429,285.715 97.5957,278.215 88,260.5C 79.2027,232.434 88.3694,213.1 115.5,202.5 Z"/></g>
<g><path style="opacity:1" fill="#292929" d="M 50.5,285.5 C 50.5,284.5 50.5,283.5 50.5,282.5C 75.4237,306.923 100.257,331.59 125,356.5C 162.992,318.675 200.825,280.675 238.5,242.5C 200.492,204.992 162.659,167.325 125,129.5C 108.339,145.327 91.8394,161.327 75.5,177.5C 74.8333,177.5 74.1667,177.5 73.5,177.5C 90.1457,160.188 107.146,143.188 124.5,126.5C 163.783,165.283 202.783,204.117 241.5,243C 202.951,282.049 163.951,320.549 124.5,358.5C 99.2034,334.871 74.5368,310.537 50.5,285.5 Z"/></g>
</svg>
