<?xml version="1.0" encoding="UTF-8"?>
<!DOCTYPE svg PUBLIC "-//W3C//DTD SVG 1.1//EN" "http://www.w3.org/Graphics/SVG/1.1/DTD/svg11.dtd">
<svg xmlns="http://www.w3.org/2000/svg" version="1.1" width="151px" height="432px" style="shape-rendering:geometricPrecision; text-rendering:geometricPrecision; image-rendering:optimizeQuality; fill-rule:evenodd; clip-rule:evenodd" xmlns:xlink="http://www.w3.org/1999/xlink">
<g><path style="opacity:1" fill="#fdfdfd" d="M -0.5,-0.5 C 49.8333,-0.5 100.167,-0.5 150.5,-0.5C 150.5,143.5 150.5,287.5 150.5,431.5C 100.167,431.5 49.8333,431.5 -0.5,431.5C -0.5,287.5 -0.5,143.5 -0.5,-0.5 Z"/></g>
<g><path style="opacity:1" fill="#121212" d="M 17.5,9.5 C 56.1681,9.33335 94.8348,9.50001 133.5,10C 136.371,12.7028 139.038,15.5361 141.5,18.5C 141.5,31.8333 141.5,45.1667 141.5,58.5C 140.508,58.6716 139.842,58.3382 139.5,57.5C 140.833,44.8333 140.833,32.1667 139.5,19.5C 133.734,12.5532 126.4,10.2198 117.5,12.5C 112.915,11.2241 108.082,10.5574 103,10.5C 96.4828,10.6487 89.9828,10.982 83.5,11.5C 82.5,11.5 81.5,11.5 80.5,11.5C 78.3587,10.8367 76.0254,10.5034 73.5,10.5C 69.8589,10.3148 66.5256,10.9814 63.5,12.5C 61.8828,13.038 60.2161,13.3713 58.5,13.5C 57.209,13.7373 56.209,13.404 55.5,12.5C 56.1667,12.5 56.8333,12.5 57.5,12.5C 58.0431,12.44 58.3764,12.1067 58.5,11.5C 49.6609,9.96316 40.9942,10.2965 32.5,12.5C 28.9009,11.6561 25.2343,11.3227 21.5,11.5C 19.5168,11.8432 18.1834,11.1765 17.5,9.5 Z"/></g>
<g><path style="opacity:1" fill="#494949" d="M 80.5,11.5 C 74.7969,11.3748 69.1302,11.7081 63.5,12.5C 66.5256,10.9814 69.8589,10.3148 73.5,10.5C 76.0254,10.5034 78.3587,10.8367 80.5,11.5 Z"/></g>
<g><path style="opacity:1" fill="#fdfdfd" d="M 80.5,11.5 C 81.5,11.5 82.5,11.5 83.5,11.5C 91.3726,13.2546 99.0393,15.9212 106.5,19.5C 106.5,31.8333 106.5,44.1667 106.5,56.5C 85.5,56.5 64.5,56.5 43.5,56.5C 43.3335,44.1622 43.5001,31.8288 44,19.5C 48.7767,17.1868 53.6101,15.1868 58.5,13.5C 60.2161,13.3713 61.8828,13.038 63.5,12.5C 69.1302,11.7081 74.7969,11.3748 80.5,11.5 Z"/></g>
<g><path style="opacity:1" fill="#2f2f2f" d="M 117.5,12.5 C 114.833,14.8333 112.167,17.1667 109.5,19.5C 108.167,32.1667 108.167,44.8333 109.5,57.5C 108.5,58.8333 107.5,58.8333 106.5,57.5C 107.833,44.8333 107.833,32.1667 106.5,19.5C 99.0393,15.9212 91.3726,13.2546 83.5,11.5C 89.9828,10.982 96.4828,10.6487 103,10.5C 108.082,10.5574 112.915,11.2241 117.5,12.5 Z"/></g>
<g><path style="opacity:1" fill="#e6e6e6" d="M 93.5,12.5 C 100.655,11.3448 107.988,11.1782 115.5,12C 112.622,13.5992 109.956,15.4325 107.5,17.5C 102.967,15.4337 98.3005,13.767 93.5,12.5 Z"/></g>
<g><path style="opacity:1" fill="#fcfcfc" d="M 21.5,11.5 C 25.2343,11.3227 28.9009,11.6561 32.5,12.5C 35.5411,14.3619 38.2078,16.6952 40.5,19.5C 40.5,31.8333 40.5,44.1667 40.5,56.5C 30.5,56.5 20.5,56.5 10.5,56.5C 10.3334,43.8289 10.5001,31.1623 11,18.5C 14.3411,15.759 17.8411,13.4257 21.5,11.5 Z"/></g>
<g><path style="opacity:1" fill="#fcfcfc" d="M 139.5,19.5 C 139.5,31.8333 139.5,44.1667 139.5,56.5C 129.5,56.5 119.5,56.5 109.5,56.5C 109.5,44.1667 109.5,31.8333 109.5,19.5C 112.167,17.1667 114.833,14.8333 117.5,12.5C 126.4,10.2198 133.734,12.5532 139.5,19.5 Z"/></g>
<g><path style="opacity:1" fill="#424242" d="M 57.5,12.5 C 50.3451,11.3448 43.0118,11.1782 35.5,12C 37.9285,13.9609 40.4285,15.7942 43,17.5C 46.8778,15.1509 51.0445,13.4843 55.5,12.5C 56.209,13.404 57.209,13.7373 58.5,13.5C 53.6101,15.1868 48.7767,17.1868 44,19.5C 43.5001,31.8288 43.3335,44.1622 43.5,56.5C 64.3267,57.4973 85.3267,57.8306 106.5,57.5C 107.5,58.8333 108.5,58.8333 109.5,57.5C 119.5,57.5 129.5,57.5 139.5,57.5C 139.842,58.3382 140.508,58.6716 141.5,58.5C 133.35,59.4927 125.017,59.8261 116.5,59.5C 115.432,58.5655 114.099,58.2322 112.5,58.5C 112.737,59.791 112.404,60.791 111.5,61.5C 99.6855,60.1676 87.5188,59.5009 75,59.5C 62.8333,59.8333 50.6667,60.1667 38.5,60.5C 38.6236,61.1067 38.9569,61.44 39.5,61.5C 39.7828,62.2891 40.2828,62.9558 41,63.5C 41.5,97.8317 41.6667,132.165 41.5,166.5C 40.8333,132.5 40.1667,98.5 39.5,64.5C 37.9676,62.4793 35.9676,60.9793 33.5,60C 24.9899,59.8294 16.6566,59.3294 8.5,58.5C 9.49162,58.6716 10.1583,58.3382 10.5,57.5C 20.8333,57.5 31.1667,57.5 41.5,57.5C 41.8287,44.6557 41.4954,31.989 40.5,19.5C 38.2078,16.6952 35.5411,14.3619 32.5,12.5C 40.9942,10.2965 49.6609,9.96316 58.5,11.5C 58.3764,12.1067 58.0431,12.44 57.5,12.5 Z"/></g>
<g><path style="opacity:1" fill="#e8e8e8" d="M 57.5,12.5 C 56.8333,12.5 56.1667,12.5 55.5,12.5C 51.0445,13.4843 46.8778,15.1509 43,17.5C 40.4285,15.7942 37.9285,13.9609 35.5,12C 43.0118,11.1782 50.3451,11.3448 57.5,12.5 Z"/></g>
<g><path style="opacity:1" fill="#313131" d="M 17.5,9.5 C 18.1834,11.1765 19.5168,11.8432 21.5,11.5C 17.8411,13.4257 14.3411,15.759 11,18.5C 10.5001,31.1623 10.3334,43.8289 10.5,56.5C 10.5,56.8333 10.5,57.1667 10.5,57.5C 9.83333,44.8333 9.16667,32.1667 8.5,19.5C 10.7657,15.5644 13.7657,12.2311 17.5,9.5 Z"/></g>
<g><path style="opacity:1" fill="#050505" d="M 8.5,19.5 C 9.16667,32.1667 9.83333,44.8333 10.5,57.5C 10.1583,58.3382 9.49162,58.6716 8.5,58.5C 8.5,45.5 8.5,32.5 8.5,19.5 Z"/></g>
<g><path style="opacity:1" fill="#b9b9b9" d="M 40.5,19.5 C 41.4954,31.989 41.8287,44.6557 41.5,57.5C 31.1667,57.5 20.8333,57.5 10.5,57.5C 10.5,57.1667 10.5,56.8333 10.5,56.5C 20.5,56.5 30.5,56.5 40.5,56.5C 40.5,44.1667 40.5,31.8333 40.5,19.5 Z"/></g>
<g><path style="opacity:1" fill="#aeaeae" d="M 106.5,19.5 C 107.833,32.1667 107.833,44.8333 106.5,57.5C 85.3267,57.8306 64.3267,57.4973 43.5,56.5C 64.5,56.5 85.5,56.5 106.5,56.5C 106.5,44.1667 106.5,31.8333 106.5,19.5 Z"/></g>
<g><path style="opacity:1" fill="#9e9e9e" d="M 109.5,19.5 C 109.5,31.8333 109.5,44.1667 109.5,56.5C 119.5,56.5 129.5,56.5 139.5,56.5C 139.5,44.1667 139.5,31.8333 139.5,19.5C 140.833,32.1667 140.833,44.8333 139.5,57.5C 129.5,57.5 119.5,57.5 109.5,57.5C 108.167,44.8333 108.167,32.1667 109.5,19.5 Z"/></g>
<g><path style="opacity:1" fill="#c7c7c7" d="M 111.5,61.5 C 111.167,61.5 110.833,61.5 110.5,61.5C 86.8333,60.1667 63.1667,60.1667 39.5,61.5C 38.9569,61.44 38.6236,61.1067 38.5,60.5C 50.6667,60.1667 62.8333,59.8333 75,59.5C 87.5188,59.5009 99.6855,60.1676 111.5,61.5 Z"/></g>
<g><path style="opacity:1" fill="#ababab" d="M 141.5,18.5 C 142.496,32.3234 142.829,46.3234 142.5,60.5C 133.114,60.2201 123.78,60.5534 114.5,61.5C 114.833,60.5 115.5,59.8333 116.5,59.5C 125.017,59.8261 133.35,59.4927 141.5,58.5C 141.5,45.1667 141.5,31.8333 141.5,18.5 Z"/></g>
<g><path style="opacity:1" fill="#fdfdfd" d="M 110.5,61.5 C 109.673,96.4286 109.173,131.429 109,166.5C 106.404,168.02 103.571,168.853 100.5,169C 90.3328,169.994 80.3328,171.161 70.5,172.5C 63.5363,172.614 56.703,173.614 50,175.5C 46.2987,173.299 43.4654,170.299 41.5,166.5C 41.6667,132.165 41.5,97.8317 41,63.5C 40.2828,62.9558 39.7828,62.2891 39.5,61.5C 63.1667,60.1667 86.8333,60.1667 110.5,61.5 Z"/></g>
<g><path style="opacity:1" fill="#dcdcdc" d="M 114.5,61.5 C 114.539,62.7562 114.039,63.7562 113,64.5C 112.832,98.6691 112.332,132.669 111.5,166.5C 111.333,132.165 111.5,97.8317 112,63.5C 112.708,62.6195 113.542,61.9528 114.5,61.5 Z"/></g>
<g><path style="opacity:1" fill="#292929" d="M 116.5,59.5 C 115.5,59.8333 114.833,60.5 114.5,61.5C 113.542,61.9528 112.708,62.6195 112,63.5C 111.5,97.8317 111.333,132.165 111.5,166.5C 109.244,170.097 106.577,173.431 103.5,176.5C 102.5,176.833 101.833,177.5 101.5,178.5C 100.662,178.158 100.328,177.492 100.5,176.5C 101.716,174.549 103.382,173.049 105.5,172C 105,171.833 104.5,171.667 104,171.5C 97.0755,174.882 89.9088,177.548 82.5,179.5C 81.209,179.737 80.209,179.404 79.5,178.5C 84.2486,177.294 88.9152,175.794 93.5,174C 87.1784,174.247 80.8451,174.747 74.5,175.5C 70.551,175.307 70.551,174.807 74.5,174C 72.9419,173.79 71.6085,173.29 70.5,172.5C 80.3328,171.161 90.3328,169.994 100.5,169C 103.571,168.853 106.404,168.02 109,166.5C 109.173,131.429 109.673,96.4286 110.5,61.5C 110.833,61.5 111.167,61.5 111.5,61.5C 112.404,60.791 112.737,59.791 112.5,58.5C 114.099,58.2322 115.432,58.5655 116.5,59.5 Z"/></g>
<g><path style="opacity:1" fill="#f7f7f7" d="M 100.5,176.5 C 99.7784,176.918 99.2784,177.584 99,178.5C 98.5008,183.155 98.3342,187.821 98.5,192.5C 96.3894,193.949 94.0561,194.949 91.5,195.5C 83.5361,197.138 75.5361,198.638 67.5,200C 63.8909,200.701 60.5575,201.868 57.5,203.5C 56.5,203.5 55.5,203.5 54.5,203.5C 52.5583,198.944 51.8917,193.944 52.5,188.5C 54.4799,186.895 56.8132,185.728 59.5,185C 67.3781,183.482 75.0448,181.649 82.5,179.5C 89.9088,177.548 97.0755,174.882 104,171.5C 104.5,171.667 105,171.833 105.5,172C 103.382,173.049 101.716,174.549 100.5,176.5 Z"/></g>
<g><path style="opacity:1" fill="#dfdfdf" d="M 79.5,178.5 C 69.7932,179.759 60.4598,182.259 51.5,186C 47.8461,187.001 44.8461,186.001 42.5,183C 43.3279,182.085 44.3279,181.419 45.5,181C 55.3489,179.402 65.0155,177.569 74.5,175.5C 80.8451,174.747 87.1784,174.247 93.5,174C 88.9152,175.794 84.2486,177.294 79.5,178.5 Z"/></g>
<g><path style="opacity:1" fill="#afafaf" d="M 103.5,176.5 C 101.376,181.397 101.043,186.397 102.5,191.5C 100.577,187.971 99.9106,183.971 100.5,179.5C 101.167,179.5 101.5,179.167 101.5,178.5C 101.833,177.5 102.5,176.833 103.5,176.5 Z"/></g>
<g><path style="opacity:1" fill="#585858" d="M 100.5,176.5 C 100.328,177.492 100.662,178.158 101.5,178.5C 101.5,179.167 101.167,179.5 100.5,179.5C 99.8333,183.833 99.1667,188.167 98.5,192.5C 98.3342,187.821 98.5008,183.155 99,178.5C 99.2784,177.584 99.7784,176.918 100.5,176.5 Z"/></g>
<g><path style="opacity:1" fill="#2a2a2a" d="M 39.5,64.5 C 40.1667,98.5 40.8333,132.5 41.5,166.5C 43.4654,170.299 46.2987,173.299 50,175.5C 56.703,173.614 63.5363,172.614 70.5,172.5C 71.6085,173.29 72.9419,173.79 74.5,174C 70.551,174.807 70.551,175.307 74.5,175.5C 65.0155,177.569 55.3489,179.402 45.5,181C 44.3279,181.419 43.3279,182.085 42.5,183C 44.8461,186.001 47.8461,187.001 51.5,186C 60.4598,182.259 69.7932,179.759 79.5,178.5C 80.209,179.404 81.209,179.737 82.5,179.5C 75.0448,181.649 67.3781,183.482 59.5,185C 56.8132,185.728 54.4799,186.895 52.5,188.5C 51.5119,193.64 51.1786,198.974 51.5,204.5C 52.791,204.737 53.791,204.404 54.5,203.5C 55.5,203.5 56.5,203.5 57.5,203.5C 58.4916,203.328 59.1583,203.662 59.5,204.5C 56.5791,205.065 53.9124,206.232 51.5,208C 52.1667,208.167 52.8333,208.333 53.5,208.5C 60.3155,207.236 66.9822,205.902 73.5,204.5C 84.2149,202.994 94.8816,201.16 105.5,199C 106.308,198.692 106.975,198.192 107.5,197.5C 105.197,196.358 103.03,195.025 101,193.5C 98.7799,195.193 96.2799,196.193 93.5,196.5C 92.5084,196.672 91.8417,196.338 91.5,195.5C 94.0561,194.949 96.3894,193.949 98.5,192.5C 99.1667,188.167 99.8333,183.833 100.5,179.5C 99.9106,183.971 100.577,187.971 102.5,191.5C 105.029,193.265 107.362,195.265 109.5,197.5C 107.497,200.655 104.664,202.988 101,204.5C 100.208,211.247 100.374,217.914 101.5,224.5C 101.44,225.043 101.107,225.376 100.5,225.5C 99.8332,219.012 99.1666,212.679 98.5,206.5C 97.8333,206.5 97.1667,206.5 96.5,206.5C 95.8333,206.5 95.5,206.167 95.5,205.5C 98.2974,204.192 98.1308,203.525 95,203.5C 78.7984,206.117 62.6318,208.784 46.5,211.5C 45.209,211.737 44.209,211.404 43.5,210.5C 45.1513,209.03 46.9847,207.697 49,206.5C 49.6667,200.833 49.6667,195.167 49,189.5C 46.913,188.206 44.7463,187.039 42.5,186C 41.4258,185.261 40.7591,184.261 40.5,183C 42.1748,180.315 44.5082,178.315 47.5,177C 45,174.5 42.5,172 40,169.5C 39.5,134.502 39.3333,99.5016 39.5,64.5 Z"/></g>
<g><path style="opacity:1" fill="#474747" d="M 95.5,205.5 C 95.5,206.167 95.8333,206.5 96.5,206.5C 90.8258,208.897 84.8258,210.564 78.5,211.5C 75.6727,210.632 72.6727,210.632 69.5,211.5C 78.0181,209.296 86.6847,207.296 95.5,205.5 Z"/></g>
<g><path style="opacity:1" fill="#b0b0b0" d="M 59.5,204.5 C 60.1667,204.5 60.8333,204.5 61.5,204.5C 65.3205,205.226 69.3205,205.226 73.5,204.5C 66.9822,205.902 60.3155,207.236 53.5,208.5C 52.8333,208.333 52.1667,208.167 51.5,208C 53.9124,206.232 56.5791,205.065 59.5,204.5 Z"/></g>
<g><path style="opacity:1" fill="#484848" d="M 91.5,195.5 C 91.8417,196.338 92.5084,196.672 93.5,196.5C 82.8851,199.372 72.2185,202.038 61.5,204.5C 60.8333,204.5 60.1667,204.5 59.5,204.5C 59.1583,203.662 58.4916,203.328 57.5,203.5C 60.5575,201.868 63.8909,200.701 67.5,200C 75.5361,198.638 83.5361,197.138 91.5,195.5 Z"/></g>
<g><path style="opacity:1" fill="#e6e6e6" d="M 73.5,204.5 C 69.3205,205.226 65.3205,205.226 61.5,204.5C 72.2185,202.038 82.8851,199.372 93.5,196.5C 96.2799,196.193 98.7799,195.193 101,193.5C 103.03,195.025 105.197,196.358 107.5,197.5C 106.975,198.192 106.308,198.692 105.5,199C 94.8816,201.16 84.2149,202.994 73.5,204.5 Z"/></g>
<g><path style="opacity:1" fill="#b2b2b2" d="M 52.5,188.5 C 51.8917,193.944 52.5583,198.944 54.5,203.5C 53.791,204.404 52.791,204.737 51.5,204.5C 51.1786,198.974 51.5119,193.64 52.5,188.5 Z"/></g>
<g><path style="opacity:1" fill="#e2e2e2" d="M 95.5,205.5 C 86.6847,207.296 78.0181,209.296 69.5,211.5C 67.2646,211.205 65.2646,211.539 63.5,212.5C 58.6445,213.592 53.9779,215.259 49.5,217.5C 46.8132,217.159 44.8132,215.826 43.5,213.5C 44.6016,212.824 45.6016,212.158 46.5,211.5C 62.6318,208.784 78.7984,206.117 95,203.5C 98.1308,203.525 98.2974,204.192 95.5,205.5 Z"/></g>
<g><path style="opacity:1" fill="#f9f9f9" d="M 96.5,206.5 C 97.1667,206.5 97.8333,206.5 98.5,206.5C 98.8297,212.868 98.4963,219.202 97.5,225.5C 82.9436,229.677 68.2769,233.344 53.5,236.5C 52.5104,230.69 52.1771,224.69 52.5,218.5C 56.4464,216.094 60.7798,214.76 65.5,214.5C 68.7273,214.324 71.7273,213.657 74.5,212.5C 75.5676,211.566 76.901,211.232 78.5,211.5C 84.8258,210.564 90.8258,208.897 96.5,206.5 Z"/></g>
<g><path style="opacity:1" fill="#e8e8e8" d="M 97.5,237.5 C 95.1055,238.015 92.7722,238.681 90.5,239.5C 81.5318,241.394 72.5318,243.227 63.5,245C 58.5483,246.232 53.8817,248.065 49.5,250.5C 41.3443,247.128 41.6777,244.795 50.5,243.5C 59.7382,242.902 68.7382,241.569 77.5,239.5C 84.2181,237.479 90.8848,236.812 97.5,237.5 Z"/></g>
<g><path style="opacity:1" fill="#f6f6f6" d="M 53.5,269.5 C 52.1836,266.913 51.517,263.913 51.5,260.5C 51.5207,257.248 51.854,254.081 52.5,251C 64.38,246.997 76.38,243.83 88.5,241.5C 91.8333,240.833 95.1667,240.167 98.5,239.5C 98.8097,245.758 98.4764,251.924 97.5,258C 82.9006,262.152 68.2339,265.986 53.5,269.5 Z"/></g>
<g><path style="opacity:1" fill="#3b3b3b" d="M 98.5,206.5 C 99.1666,212.679 99.8332,219.012 100.5,225.5C 101.107,225.376 101.44,225.043 101.5,224.5C 105.242,225.698 108.242,227.865 110.5,231C 109.87,232.31 108.87,233.144 107.5,233.5C 107.158,232.662 106.492,232.328 105.5,232.5C 106.091,231.849 106.757,231.182 107.5,230.5C 105.401,229.035 103.234,227.701 101,226.5C 88.9321,231.1 76.4321,234.267 63.5,236C 59.6244,236.881 55.9577,238.214 52.5,240C 67.807,237.98 83.1403,235.813 98.5,233.5C 97.7375,234.268 96.7375,234.768 95.5,235C 96.8333,235.333 98.1667,235.667 99.5,236C 98.9558,236.717 98.2891,237.217 97.5,237.5C 90.8848,236.812 84.2181,237.479 77.5,239.5C 68.2345,239.918 59.2345,241.251 50.5,243.5C 41.6777,244.795 41.3443,247.128 49.5,250.5C 53.8817,248.065 58.5483,246.232 63.5,245C 72.5318,243.227 81.5318,241.394 90.5,239.5C 89.7375,240.268 88.7375,240.768 87.5,241C 87.7284,241.399 88.0618,241.565 88.5,241.5C 76.38,243.83 64.38,246.997 52.5,251C 51.854,254.081 51.5207,257.248 51.5,260.5C 51.517,263.913 52.1836,266.913 53.5,269.5C 52.3285,270.345 50.9952,271.011 49.5,271.5C 49.8297,265.132 49.4963,258.798 48.5,252.5C 37.8688,247.977 38.0355,243.643 49,239.5C 49.6667,233.167 49.6667,226.833 49,220.5C 46.1651,219.084 43.4985,217.417 41,215.5C 39.9231,212.738 40.7564,211.072 43.5,210.5C 44.209,211.404 45.209,211.737 46.5,211.5C 45.6016,212.158 44.6016,212.824 43.5,213.5C 44.8132,215.826 46.8132,217.159 49.5,217.5C 53.9779,215.259 58.6445,213.592 63.5,212.5C 65.1992,212.34 66.8659,212.506 68.5,213C 67.2625,213.232 66.2625,213.732 65.5,214.5C 60.7798,214.76 56.4464,216.094 52.5,218.5C 51.1826,224.678 51.1826,231.012 52.5,237.5C 53.1067,237.376 53.44,237.043 53.5,236.5C 68.2769,233.344 82.9436,229.677 97.5,225.5C 98.4963,219.202 98.8297,212.868 98.5,206.5 Z"/></g>
<g><path style="opacity:1" fill="#b8b8b8" d="M 77.5,239.5 C 68.7382,241.569 59.7382,242.902 50.5,243.5C 59.2345,241.251 68.2345,239.918 77.5,239.5 Z"/></g>
<g><path style="opacity:1" fill="#e1e1e1" d="M 105.5,232.5 C 103.05,232.298 100.717,232.631 98.5,233.5C 83.1403,235.813 67.807,237.98 52.5,240C 55.9577,238.214 59.6244,236.881 63.5,236C 76.4321,234.267 88.9321,231.1 101,226.5C 103.234,227.701 105.401,229.035 107.5,230.5C 106.757,231.182 106.091,231.849 105.5,232.5 Z"/></g>
<g><path style="opacity:1" fill="#afafaf" d="M 52.5,218.5 C 52.1771,224.69 52.5104,230.69 53.5,236.5C 53.44,237.043 53.1067,237.376 52.5,237.5C 51.1826,231.012 51.1826,224.678 52.5,218.5 Z"/></g>
<g><path style="opacity:1" fill="#232323" d="M 78.5,211.5 C 76.901,211.232 75.5676,211.566 74.5,212.5C 72.5853,212.784 70.9187,212.451 69.5,211.5C 72.6727,210.632 75.6727,210.632 78.5,211.5 Z"/></g>
<g><path style="opacity:1" fill="#787878" d="M 63.5,212.5 C 65.2646,211.539 67.2646,211.205 69.5,211.5C 70.9187,212.451 72.5853,212.784 74.5,212.5C 71.7273,213.657 68.7273,214.324 65.5,214.5C 66.2625,213.732 67.2625,213.232 68.5,213C 66.8659,212.506 65.1992,212.34 63.5,212.5 Z"/></g>
<g><path style="opacity:1" fill="#adadad" d="M 102.5,269.5 C 101.167,276.167 101.167,282.833 102.5,289.5C 101.18,286.572 100.514,283.239 100.5,279.5C 100.514,275.761 101.18,272.428 102.5,269.5 Z"/></g>
<g><path style="opacity:1" fill="#f6f6f6" d="M 80.5,296.5 C 71.299,297.718 62.299,299.718 53.5,302.5C 52.1818,299.742 51.5152,296.576 51.5,293C 51.8333,289.833 52.1667,286.667 52.5,283.5C 67.4161,279.249 82.4161,275.249 97.5,271.5C 98.6639,277.807 98.8306,284.141 98,290.5C 92.2994,293.184 86.4661,295.184 80.5,296.5 Z"/></g>
<g><path style="opacity:1" fill="#282828" d="M 105.5,232.5 C 106.492,232.328 107.158,232.662 107.5,233.5C 101.035,235.609 98.7019,240.109 100.5,247C 100.833,250.167 101.167,253.333 101.5,256.5C 104.602,258.037 107.268,260.037 109.5,262.5C 109.333,263.167 109.167,263.833 109,264.5C 106.674,266.066 104.508,267.732 102.5,269.5C 101.18,272.428 100.514,275.761 100.5,279.5C 100.514,283.239 101.18,286.572 102.5,289.5C 105.618,291.119 108.285,293.286 110.5,296C 108.68,297.743 106.68,299.243 104.5,300.5C 104.027,299.094 103.027,298.427 101.5,298.5C 103.556,297.801 105.556,296.801 107.5,295.5C 105.401,294.035 103.234,292.701 101,291.5C 95.133,294.343 88.9663,296.343 82.5,297.5C 82.1583,296.662 81.4916,296.328 80.5,296.5C 86.4661,295.184 92.2994,293.184 98,290.5C 98.8306,284.141 98.6639,277.807 97.5,271.5C 82.4161,275.249 67.4161,279.249 52.5,283.5C 52.1667,286.667 51.8333,289.833 51.5,293C 51.5152,296.576 52.1818,299.742 53.5,302.5C 52.3285,303.345 50.9952,304.011 49.5,304.5C 49.6662,298.158 49.4995,291.825 49,285.5C 46.7487,283.623 44.2487,282.123 41.5,281C 40.9415,280.275 40.6082,279.442 40.5,278.5C 43.2085,275.791 46.2085,273.458 49.5,271.5C 50.9952,271.011 52.3285,270.345 53.5,269.5C 68.2339,265.986 82.9006,262.152 97.5,258C 98.4764,251.924 98.8097,245.758 98.5,239.5C 95.1667,240.167 91.8333,240.833 88.5,241.5C 88.0618,241.565 87.7284,241.399 87.5,241C 88.7375,240.768 89.7375,240.268 90.5,239.5C 92.7722,238.681 95.1055,238.015 97.5,237.5C 98.2891,237.217 98.9558,236.717 99.5,236C 98.1667,235.667 96.8333,235.333 95.5,235C 96.7375,234.768 97.7375,234.268 98.5,233.5C 100.717,232.631 103.05,232.298 105.5,232.5 Z"/></g>
<g><path style="opacity:1" fill="#e5e5e5" d="M 91.5,268.5 C 93.5273,268.338 95.5273,268.505 97.5,269C 97.1667,269.333 96.8333,269.667 96.5,270C 82.505,273.333 68.505,276.666 54.5,280C 52.6951,280.972 51.0284,282.139 49.5,283.5C 46.9528,282.066 44.6195,280.4 42.5,278.5C 44.3686,277.376 46.3686,276.543 48.5,276C 62.983,273.571 77.3163,271.071 91.5,268.5 Z"/></g>
<g><path style="opacity:1" fill="#e0e0e0" d="M 99.5,258.5 C 102.554,259.196 105.22,260.696 107.5,263C 106.833,263.333 106.167,263.667 105.5,264C 87.6076,267.913 69.6076,270.913 51.5,273C 53.3772,271.815 55.3772,270.815 57.5,270C 69.4762,267.338 81.4762,264.671 93.5,262C 96.0254,261.576 98.0254,260.41 99.5,258.5 Z"/></g>
<g><path style="opacity:1" fill="#e8e8e8" d="M 101.5,298.5 C 84.8088,301.208 68.1421,303.708 51.5,306C 53.221,304.473 55.221,303.473 57.5,303C 65.8668,301.227 74.2002,299.394 82.5,297.5C 88.9663,296.343 95.133,294.343 101,291.5C 103.234,292.701 105.401,294.035 107.5,295.5C 105.556,296.801 103.556,297.801 101.5,298.5 Z"/></g>
<g><path style="opacity:1" fill="#f8f8f8" d="M 98.5,304.5 C 98.8097,310.758 98.4764,316.924 97.5,323C 96.3279,323.419 95.3279,324.085 94.5,325C 81.116,328.441 67.7826,331.941 54.5,335.5C 53.71,334.391 53.21,333.058 53,331.5C 52.5007,326.511 52.3341,321.511 52.5,316.5C 55.3531,315.047 58.3531,313.881 61.5,313C 73.9558,310.609 86.2891,307.776 98.5,304.5 Z"/></g>
<g><path style="opacity:1" fill="#202020" d="M 80.5,296.5 C 81.4916,296.328 82.1583,296.662 82.5,297.5C 74.2002,299.394 65.8668,301.227 57.5,303C 55.221,303.473 53.221,304.473 51.5,306C 68.1421,303.708 84.8088,301.208 101.5,298.5C 103.027,298.427 104.027,299.094 104.5,300.5C 103.279,301.028 102.113,301.695 101,302.5C 100.333,308.5 100.333,314.5 101,320.5C 104.198,322.331 107.032,324.498 109.5,327C 109.241,328.261 108.574,329.261 107.5,330C 102.207,331.123 99.2071,334.29 98.5,339.5C 97.8333,338.5 97.1667,337.5 96.5,336.5C 95.8333,336.5 95.1667,336.5 94.5,336.5C 93.5084,336.672 92.8417,336.338 92.5,335.5C 94.5786,335.029 96.5786,334.363 98.5,333.5C 99.0431,333.44 99.3764,333.107 99.5,332.5C 98.7573,331.818 98.0906,331.151 97.5,330.5C 101.07,329.943 104.403,328.776 107.5,327C 105.654,325.97 103.987,324.804 102.5,323.5C 101.791,322.596 100.791,322.263 99.5,322.5C 99.8229,316.31 99.4896,310.31 98.5,304.5C 86.2891,307.776 73.9558,310.609 61.5,313C 58.3531,313.881 55.3531,315.047 52.5,316.5C 51.8333,321.167 51.1667,325.833 50.5,330.5C 50.0013,326.51 49.5013,322.51 49,318.5C 46.7487,316.623 44.2487,315.123 41.5,314C 40.1667,312.333 40.1667,310.667 41.5,309C 44.3559,307.741 47.0226,306.241 49.5,304.5C 50.9952,304.011 52.3285,303.345 53.5,302.5C 62.299,299.718 71.299,297.718 80.5,296.5 Z"/></g>
<g><path style="opacity:1" fill="#e3e3e3" d="M 96.5,300.5 C 101.592,300.497 101.592,301.33 96.5,303C 83.6236,306.509 70.6236,309.509 57.5,312C 54.752,313.079 52.0853,314.246 49.5,315.5C 46.8132,315.159 44.8132,313.826 43.5,311.5C 46.2016,309.653 49.2016,308.487 52.5,308C 67.406,306.089 82.0727,303.589 96.5,300.5 Z"/></g>
<g><path style="opacity:1" fill="#e3e3e3" d="M 102.5,323.5 C 103.987,324.804 105.654,325.97 107.5,327C 104.403,328.776 101.07,329.943 97.5,330.5C 94.5448,331.159 91.5448,331.492 88.5,331.5C 86.5853,331.784 84.9187,331.451 83.5,330.5C 89.9669,328.786 96.3002,326.453 102.5,323.5 Z"/></g>
<g><path style="opacity:1" fill="#747474" d="M 52.5,316.5 C 52.3341,321.511 52.5007,326.511 53,331.5C 53.21,333.058 53.71,334.391 54.5,335.5C 54.44,336.043 54.1067,336.376 53.5,336.5C 52.7492,335.624 52.2492,334.624 52,333.5C 51.8019,335.382 51.3019,337.048 50.5,338.5C 50.5,335.833 50.5,333.167 50.5,330.5C 51.1667,325.833 51.8333,321.167 52.5,316.5 Z"/></g>
<g><path style="opacity:1" fill="#dfdfdf" d="M 98.5,333.5 C 96.5786,334.363 94.5786,335.029 92.5,335.5C 83.3067,338.172 73.9734,340.339 64.5,342C 60.6147,343.05 56.948,344.55 53.5,346.5C 45.4641,343.641 45.7974,341.475 54.5,340C 68.5049,337.547 82.5049,335.047 96.5,332.5C 97.4164,332.543 98.0831,332.876 98.5,333.5 Z"/></g>
<g><path style="opacity:1" fill="#f6f6f6" d="M 94.5,336.5 C 95.1667,336.5 95.8333,336.5 96.5,336.5C 95.5347,343.195 93.868,349.695 91.5,356C 81.9242,359.648 72.2575,363.148 62.5,366.5C 61.914,366.291 61.414,365.957 61,365.5C 60.6045,362.343 59.7711,359.343 58.5,356.5C 58.5905,353.848 57.9238,351.515 56.5,349.5C 57.2187,347.112 58.8854,345.612 61.5,345C 72.7816,342.797 83.7816,339.963 94.5,336.5 Z"/></g>
<g><path style="opacity:1" fill="#323232" d="M 98.5,304.5 C 99.4896,310.31 99.8229,316.31 99.5,322.5C 100.791,322.263 101.791,322.596 102.5,323.5C 96.3002,326.453 89.9669,328.786 83.5,330.5C 74.3299,331.876 65.3299,334.042 56.5,337C 67.3355,335.694 78.0022,333.861 88.5,331.5C 91.5448,331.492 94.5448,331.159 97.5,330.5C 98.0906,331.151 98.7573,331.818 99.5,332.5C 99.3764,333.107 99.0431,333.44 98.5,333.5C 98.0831,332.876 97.4164,332.543 96.5,332.5C 82.5049,335.047 68.5049,337.547 54.5,340C 45.7974,341.475 45.4641,343.641 53.5,346.5C 56.948,344.55 60.6147,343.05 64.5,342C 73.9734,340.339 83.3067,338.172 92.5,335.5C 92.8417,336.338 93.5084,336.672 94.5,336.5C 83.7816,339.963 72.7816,342.797 61.5,345C 58.8854,345.612 57.2187,347.112 56.5,349.5C 56.6332,352.925 55.9665,353.258 54.5,350.5C 51.4704,348.891 48.6371,346.891 46,344.5C 45.406,341.022 46.906,339.022 50.5,338.5C 51.3019,337.048 51.8019,335.382 52,333.5C 52.2492,334.624 52.7492,335.624 53.5,336.5C 54.1067,336.376 54.44,336.043 54.5,335.5C 67.7826,331.941 81.116,328.441 94.5,325C 95.3279,324.085 96.3279,323.419 97.5,323C 98.4764,316.924 98.8097,310.758 98.5,304.5 Z"/></g>
<g><path style="opacity:1" fill="#c5c5c5" d="M 83.5,330.5 C 84.9187,331.451 86.5853,331.784 88.5,331.5C 78.0022,333.861 67.3355,335.694 56.5,337C 65.3299,334.042 74.3299,331.876 83.5,330.5 Z"/></g>
<g><path style="opacity:1" fill="#848484" d="M 56.5,349.5 C 57.9238,351.515 58.5905,353.848 58.5,356.5C 57.7321,355.737 57.2321,354.737 57,353.5C 56.5065,355.134 56.3398,356.801 56.5,358.5C 55.2318,356.095 54.5651,353.428 54.5,350.5C 55.9665,353.258 56.6332,352.925 56.5,349.5 Z"/></g>
<g><path style="opacity:1" fill="#b6b6b6" d="M 88.5,360.5 C 89.209,361.404 90.209,361.737 91.5,361.5C 89.7857,362.738 87.7857,363.405 85.5,363.5C 79.5596,365.208 73.5596,366.375 67.5,367C 74.2359,364.065 81.2359,361.898 88.5,360.5 Z"/></g>
<g><path style="opacity:1" fill="#181818" d="M 91.5,361.5 C 92.5,361.5 93.5,361.5 94.5,361.5C 95.4916,361.328 96.1583,361.662 96.5,362.5C 93.0291,363.633 91.0291,365.967 90.5,369.5C 89.5,368.5 88.5,367.5 87.5,366.5C 88.2891,366.217 88.9558,365.717 89.5,365C 87.9419,364.79 86.6085,364.29 85.5,363.5C 87.7857,363.405 89.7857,362.738 91.5,361.5 Z"/></g>
<g><path style="opacity:1" fill="#373737" d="M 96.5,336.5 C 97.1667,337.5 97.8333,338.5 98.5,339.5C 97.1938,343.391 96.1938,347.391 95.5,351.5C 96.7492,354.09 98.4159,356.424 100.5,358.5C 100.084,360.715 98.7503,362.049 96.5,362.5C 96.1583,361.662 95.4916,361.328 94.5,361.5C 95.7653,360.521 97.0986,359.521 98.5,358.5C 97.5617,357.447 96.395,356.78 95,356.5C 92.4058,357.285 90.2392,358.618 88.5,360.5C 81.2359,361.898 74.2359,364.065 67.5,367C 73.5596,366.375 79.5596,365.208 85.5,363.5C 86.6085,364.29 87.9419,364.79 89.5,365C 88.9558,365.717 88.2891,366.217 87.5,366.5C 88.5,367.5 89.5,368.5 90.5,369.5C 89.2955,374.18 87.9621,378.847 86.5,383.5C 87.4471,385.4 88.9471,386.733 91,387.5C 91.6667,389.167 91.6667,390.833 91,392.5C 89.4815,393.163 88.3149,394.163 87.5,395.5C 83.2376,396.433 81.2376,399.1 81.5,403.5C 79.4054,410.075 77.7387,416.742 76.5,423.5C 75.5,423.5 74.5,423.5 73.5,423.5C 73.1561,419.947 72.4894,416.447 71.5,413C 68.4524,410.488 65.4524,407.988 62.5,405.5C 63.9818,402.856 65.6484,400.356 67.5,398C 66.3124,393.125 64.9791,388.292 63.5,383.5C 60.1667,380.5 56.8333,377.5 53.5,374.5C 55.1589,372.136 57.1589,369.97 59.5,368C 58.4256,364.726 57.4256,361.559 56.5,358.5C 56.3398,356.801 56.5065,355.134 57,353.5C 57.2321,354.737 57.7321,355.737 58.5,356.5C 59.7711,359.343 60.6045,362.343 61,365.5C 61.414,365.957 61.914,366.291 62.5,366.5C 72.2575,363.148 81.9242,359.648 91.5,356C 93.868,349.695 95.5347,343.195 96.5,336.5 Z"/></g>
<g><path style="opacity:1" fill="#dedede" d="M 85.5,387.5 C 88.9318,387.248 89.9318,388.581 88.5,391.5C 84.4802,394.19 80.1469,395.69 75.5,396C 79.4623,393.86 82.7956,391.027 85.5,387.5 Z"/></g>
<g><path style="opacity:1" fill="#f4f4f4" d="M 86.5,368.5 C 87.3764,368.369 88.0431,368.702 88.5,369.5C 86.3567,375.407 84.5234,381.407 83,387.5C 79.0982,390.868 74.9315,393.868 70.5,396.5C 67.2635,390.555 65.7635,384.222 66,377.5C 72.5931,373.808 79.4264,370.808 86.5,368.5 Z"/></g>
<g><path style="opacity:1" fill="#d6d6d6" d="M 87.5,366.5 C 81.0499,368.372 74.7166,370.539 68.5,373C 66.0197,374.482 63.8531,376.315 62,378.5C 58.7502,377.659 56.9168,375.659 56.5,372.5C 65.85,369.788 75.35,367.454 85,365.5C 86.0698,365.528 86.9032,365.861 87.5,366.5 Z"/></g>
<g><path style="opacity:1" fill="#e2e2e2" d="M 94.5,361.5 C 93.5,361.5 92.5,361.5 91.5,361.5C 90.209,361.737 89.209,361.404 88.5,360.5C 90.2392,358.618 92.4058,357.285 95,356.5C 96.395,356.78 97.5617,357.447 98.5,358.5C 97.0986,359.521 95.7653,360.521 94.5,361.5 Z"/></g>
<g><path style="opacity:1" fill="#b4b4b4" d="M 87.5,395.5 C 84.8951,397.743 82.8951,400.41 81.5,403.5C 81.2376,399.1 83.2376,396.433 87.5,395.5 Z"/></g>
<g><path style="opacity:1" fill="#dddddd" d="M 76.5,398.5 C 77.2389,398.369 77.9056,398.536 78.5,399C 74.6418,401.358 71.6418,404.525 69.5,408.5C 66.2157,407.93 65.2157,406.263 66.5,403.5C 69.6572,401.255 72.9906,399.588 76.5,398.5 Z"/></g>
<g><path style="opacity:1" fill="#e3e3e3" d="M 77.5,401.5 C 78.4972,401.47 79.1639,401.97 79.5,403C 78.3989,407.637 76.8989,412.137 75,416.5C 73.5951,412.928 73.2617,409.261 74,405.5C 76.0714,404.897 77.2381,403.564 77.5,401.5 Z"/></g>
</svg>
