<?xml version="1.0" encoding="UTF-8"?>
<!DOCTYPE svg PUBLIC "-//W3C//DTD SVG 1.1//EN" "http://www.w3.org/Graphics/SVG/1.1/DTD/svg11.dtd">
<svg xmlns="http://www.w3.org/2000/svg" version="1.1" width="618px" height="246px" style="shape-rendering:geometricPrecision; text-rendering:geometricPrecision; image-rendering:optimizeQuality; fill-rule:evenodd; clip-rule:evenodd" xmlns:xlink="http://www.w3.org/1999/xlink">
<g><path style="opacity:1" fill="#fefefe" d="M -0.5,-0.5 C 205.5,-0.5 411.5,-0.5 617.5,-0.5C 617.5,81.5 617.5,163.5 617.5,245.5C 411.5,245.5 205.5,245.5 -0.5,245.5C -0.5,163.5 -0.5,81.5 -0.5,-0.5 Z"/></g>
<g><path style="opacity:1" fill="#fcfcfb" d="M 570.5,34.5 C 570.667,95.1676 570.5,155.834 570,216.5C 563.054,234.712 550.554,239.878 532.5,232C 526.566,227.633 523.066,221.8 522,214.5C 521.178,152.138 521.344,89.805 522.5,27.5C 530.134,11.5207 542.134,7.02066 558.5,14C 565.972,18.7753 569.972,25.6086 570.5,34.5 Z"/></g>
<g><path style="opacity:1" fill="#2e2e2e" d="M 238.5,60.5 C 237.833,102.167 237.167,143.833 236.5,185.5C 236.5,144.167 236.5,102.833 236.5,61.5C 230.491,61.3338 224.491,61.5005 218.5,62C 211.353,65.8712 203.687,68.0378 195.5,68.5C 191.702,67.5166 187.702,67.1832 183.5,67.5C 194.43,67.6169 205.097,65.6169 215.5,61.5C 216.583,60.635 216.749,59.635 216,58.5C 189.784,24.1485 154.951,8.31515 111.5,11C 105.048,11.7973 98.7147,13.1306 92.5,15C 83.1471,18.3262 74.1471,21.9929 65.5,26C 93.1311,6.73886 126.131,3.40553 164.5,16C 186.763,24.7648 204.763,38.9314 218.5,58.5C 225.321,59.1667 231.988,59.8334 238.5,60.5 Z"/></g>
<g><path style="opacity:1" fill="#262525" d="M 572.5,34.5 C 571.833,34.5 571.167,34.5 570.5,34.5C 569.972,25.6086 565.972,18.7753 558.5,14C 542.134,7.02066 530.134,11.5207 522.5,27.5C 522.5,26.8333 522.167,26.5 521.5,26.5C 529.434,9.71156 542.101,4.87823 559.5,12C 567.839,17.1781 572.173,24.6781 572.5,34.5 Z"/></g>
<g><path style="opacity:1" fill="#fefefe" d="M 236.5,185.5 C 230.523,184.859 224.523,184.359 218.5,184C 208.016,179.203 197.016,177.037 185.5,177.5C 185.5,141.5 185.5,105.5 185.5,69.5C 188.059,69.8016 190.393,69.4682 192.5,68.5C 193.5,68.5 194.5,68.5 195.5,68.5C 203.687,68.0378 211.353,65.8712 218.5,62C 224.491,61.5005 230.491,61.3338 236.5,61.5C 236.5,102.833 236.5,144.167 236.5,185.5 Z"/></g>
<g><path style="opacity:1" fill="#c0c0c0" d="M 238.5,60.5 C 239.496,74.3234 239.829,88.3234 239.5,102.5C 242.5,102.5 245.5,102.5 248.5,102.5C 245.375,103.479 242.042,103.813 238.5,103.5C 238.5,89.1667 238.5,74.8333 238.5,60.5 Z"/></g>
<g><path style="opacity:1" fill="#242323" d="M 217.5,186.5 C 217.328,187.492 217.662,188.158 218.5,188.5C 193.27,222.282 159.603,238.615 117.5,237.5C 114.167,237.167 110.833,236.833 107.5,236.5C 58.9863,227.828 27.4863,199.828 13,152.5C 11.7139,147.904 10.8806,143.237 10.5,138.5C 10.577,134.785 10.2436,131.119 9.5,127.5C 9.12843,90.4125 22.7951,59.5792 50.5,35C 53.5394,31.8121 57.2061,29.6454 61.5,28.5C 12.0299,67.3655 -0.470076,116.366 24,175.5C 49.8233,219.497 88.3233,239.331 139.5,235C 172.385,229.561 198.385,213.395 217.5,186.5 Z"/></g>
<g><path style="opacity:1" fill="#fdfdfd" d="M 519.5,111.5 C 516.833,119.167 516.833,126.833 519.5,134.5C 519.829,149.343 519.496,164.01 518.5,178.5C 496.775,166.918 485.441,148.751 484.5,124C 484.957,98.5804 496.29,79.7471 518.5,67.5C 519.499,82.1515 519.833,96.8182 519.5,111.5 Z"/></g>
<g><path style="opacity:1" fill="#fcfcfb" d="M 572.5,67.5 C 595.405,78.7849 607.405,97.2849 608.5,123C 607.535,149.084 595.535,167.917 572.5,179.5C 571.979,160.751 572.646,142.084 574.5,123.5C 572.664,104.902 571.997,86.2355 572.5,67.5 Z"/></g>
<g><path style="opacity:1" fill="#303030" d="M 180.5,79.5 C 180.263,80.791 180.596,81.791 181.5,82.5C 180.774,85.1794 179.941,87.846 179,90.5C 178.333,111.833 178.333,133.167 179,154.5C 179.943,157.824 180.776,161.157 181.5,164.5C 181.66,166.153 182.326,167.486 183.5,168.5C 183.371,170.216 183.038,171.883 182.5,173.5C 181.086,168.814 179.42,164.147 177.5,159.5C 156.302,185.95 129.635,193.45 97.5,182C 68.7477,166.329 56.581,142.163 61,109.5C 73.2025,71.6449 99.0358,55.4782 138.5,61C 154.93,64.8746 167.93,73.7079 177.5,87.5C 178.515,84.7237 179.515,82.0571 180.5,79.5 Z"/></g>
<g><path style="opacity:1" fill="#fdfdfd" d="M 111.5,61.5 C 135.981,58.8234 156.481,66.4901 173,84.5C 174.84,86.6808 176.007,89.1808 176.5,92C 175.375,113.841 175.208,135.674 176,157.5C 158.377,180.821 135.21,189.321 106.5,183C 73.4804,170.151 58.9804,145.984 63,110.5C 70.0547,84.9461 86.2213,68.6128 111.5,61.5 Z"/></g>
<g><path style="opacity:1" fill="#fcfbfa" d="M 181.5,81.5 C 182.833,109.167 182.833,136.833 181.5,164.5C 180.776,161.157 179.943,157.824 179,154.5C 178.333,133.167 178.333,111.833 179,90.5C 179.941,87.846 180.774,85.1794 181.5,82.5C 181.5,82.1667 181.5,81.8333 181.5,81.5 Z"/></g>
<g><path style="opacity:1" fill="#848282" d="M 253.5,97.5 C 273.996,96.3374 294.663,96.1707 315.5,97C 316.833,97.3333 318.167,97.6667 319.5,98C 318.584,98.2784 317.918,98.7784 317.5,99.5C 316.85,99.1961 316.183,98.8627 315.5,98.5C 314.828,99.9492 314.161,101.282 313.5,102.5C 313.5,101.5 313.5,100.5 313.5,99.5C 293.833,99.5 274.167,99.5 254.5,99.5C 273.996,98.6682 293.662,98.1682 313.5,98C 293.503,97.5 273.503,97.3334 253.5,97.5 Z"/></g>
<g><path style="opacity:1" fill="#868585" d="M 183.5,168.5 C 182.326,167.486 181.66,166.153 181.5,164.5C 182.833,136.833 182.833,109.167 181.5,81.5C 181.987,80.5266 182.487,79.5266 183,78.5C 183.5,108.498 183.667,138.498 183.5,168.5 Z"/></g>
<g><path style="opacity:1" fill="#dfdedc" d="M 318.5,103.5 C 318.5,116.833 318.5,130.167 318.5,143.5C 317.5,143.5 316.5,143.5 315.5,143.5C 315.5,130.167 315.5,116.833 315.5,103.5C 316.5,103.5 317.5,103.5 318.5,103.5 Z"/></g>
<g><path style="opacity:1" fill="#5e5d5b" d="M 318.5,103.5 C 319.167,116.5 319.833,129.5 320.5,142.5C 321.833,148.5 319.5,150.833 313.5,149.5C 315.667,148.802 317.5,147.469 319,145.5C 319.692,144.563 319.525,143.897 318.5,143.5C 318.5,130.167 318.5,116.833 318.5,103.5 Z"/></g>
<g><path style="opacity:1" fill="#171616" d="M 521.5,26.5 C 522.167,26.5 522.5,26.8333 522.5,27.5C 521.344,89.805 521.178,152.138 522,214.5C 523.066,221.8 526.566,227.633 532.5,232C 550.554,239.878 563.054,234.712 570,216.5C 570.5,155.834 570.667,95.1676 570.5,34.5C 571.167,34.5 571.833,34.5 572.5,34.5C 572.5,44.8333 572.5,55.1667 572.5,65.5C 572.5,66.1667 572.5,66.8333 572.5,67.5C 571.997,86.2355 572.664,104.902 574.5,123.5C 572.646,142.084 571.979,160.751 572.5,179.5C 572.062,179.435 571.728,179.601 571.5,180C 572.416,180.278 573.082,180.778 573.5,181.5C 572.669,192.993 572.169,204.659 572,216.5C 566.794,232.861 555.627,239.694 538.5,237C 529.573,233.74 523.739,227.573 521,218.5C 520.833,206.153 520.333,193.82 519.5,181.5C 518.817,181.137 518.15,180.804 517.5,180.5C 517.5,179.833 517.833,179.5 518.5,179.5C 519.831,172.364 520.497,164.864 520.5,157C 520.5,149.326 520.166,141.826 519.5,134.5C 516.833,126.833 516.833,119.167 519.5,111.5C 520.498,85.0052 520.831,58.3386 520.5,31.5C 520.366,29.7085 520.699,28.0418 521.5,26.5 Z"/></g>
<g><path style="opacity:1" fill="#737371" d="M 9.5,127.5 C 10.2436,131.119 10.577,134.785 10.5,138.5C 9.73209,139.263 9.23209,140.263 9,141.5C 8.83333,140.667 8.66667,139.833 8.5,139C 8.99315,135.02 9.32648,131.187 9.5,127.5 Z"/></g>
<g><path style="opacity:1" fill="#868585" d="M 519.5,134.5 C 520.166,141.826 520.5,149.326 520.5,157C 520.497,164.864 519.831,172.364 518.5,179.5C 518.5,179.167 518.5,178.833 518.5,178.5C 519.496,164.01 519.829,149.343 519.5,134.5 Z"/></g>
<g><path style="opacity:1" fill="#b9b9b9" d="M 239.5,143.5 C 239.5,157.833 239.5,172.167 239.5,186.5C 240.552,186.351 241.552,186.517 242.5,187C 240.866,187.494 239.199,187.66 237.5,187.5C 238.151,172.735 238.818,158.069 239.5,143.5 Z"/></g>
<g><path style="opacity:1" fill="#3c3b3b" d="M 520.5,31.5 C 520.831,58.3386 520.498,85.0052 519.5,111.5C 519.833,96.8182 519.499,82.1515 518.5,67.5C 496.29,79.7471 484.957,98.5804 484.5,124C 485.441,148.751 496.775,166.918 518.5,178.5C 518.5,178.833 518.5,179.167 518.5,179.5C 517.833,179.5 517.5,179.833 517.5,180.5C 501.493,172.321 490.659,159.655 485,142.5C 477.142,110.388 486.975,85.2215 514.5,67C 516.025,65.9914 517.692,65.4914 519.5,65.5C 519.172,53.9877 519.505,42.6544 520.5,31.5 Z"/></g>
<g><path style="opacity:1" fill="#272727" d="M 572.5,65.5 C 583.47,69.6193 592.304,76.6193 599,86.5C 617.535,118.308 613.701,147.142 587.5,173C 583.211,176.456 578.544,179.289 573.5,181.5C 573.082,180.778 572.416,180.278 571.5,180C 571.728,179.601 572.062,179.435 572.5,179.5C 595.535,167.917 607.535,149.084 608.5,123C 607.405,97.2849 595.405,78.7849 572.5,67.5C 572.5,66.8333 572.5,66.1667 572.5,65.5 Z"/></g>
<g><path style="opacity:1" fill="#171616" d="M 238.5,60.5 C 238.5,74.8333 238.5,89.1667 238.5,103.5C 242.042,103.813 245.375,103.479 248.5,102.5C 249.939,100.64 251.605,98.973 253.5,97.5C 273.503,97.3334 293.503,97.5 313.5,98C 293.662,98.1682 273.996,98.6682 254.5,99.5C 254.5,100.5 254.5,101.5 254.5,102.5C 274.167,102.5 293.833,102.5 313.5,102.5C 314.161,101.282 314.828,99.9492 315.5,98.5C 316.183,98.8627 316.85,99.1961 317.5,99.5C 318.458,99.9528 319.292,100.619 320,101.5C 320.5,115.163 320.667,128.829 320.5,142.5C 319.833,129.5 319.167,116.5 318.5,103.5C 317.5,103.5 316.5,103.5 315.5,103.5C 315.5,116.833 315.5,130.167 315.5,143.5C 316.5,143.5 317.5,143.5 318.5,143.5C 319.525,143.897 319.692,144.563 319,145.5C 317.5,147.469 315.667,148.802 313.5,149.5C 293.164,149.667 272.831,149.5 252.5,149C 251.636,146.929 250.303,145.262 248.5,144C 245.518,143.502 242.518,143.335 239.5,143.5C 238.818,158.069 238.151,172.735 237.5,187.5C 231.582,186.379 225.582,186.212 219.5,187C 218.944,187.383 218.611,187.883 218.5,188.5C 217.662,188.158 217.328,187.492 217.5,186.5C 206.905,181.278 195.572,178.778 183.5,179C 182.594,177.301 182.261,175.467 182.5,173.5C 183.038,171.883 183.371,170.216 183.5,168.5C 183.667,138.498 183.5,108.498 183,78.5C 182.487,79.5266 181.987,80.5266 181.5,81.5C 181.5,81.8333 181.5,82.1667 181.5,82.5C 180.596,81.791 180.263,80.791 180.5,79.5C 181.132,75.2976 182.132,71.2976 183.5,67.5C 187.702,67.1832 191.702,67.5166 195.5,68.5C 194.5,68.5 193.5,68.5 192.5,68.5C 189.833,68.5 187.167,68.5 184.5,68.5C 184.168,105.004 184.502,141.337 185.5,177.5C 197.016,177.037 208.016,179.203 218.5,184C 224.523,184.359 230.523,184.859 236.5,185.5C 237.167,143.833 237.833,102.167 238.5,60.5 Z"/></g>
<g><path style="opacity:1" fill="#fefefe" d="M 254.5,144.5 C 274.167,144.5 293.833,144.5 313.5,144.5C 313.5,145.5 313.5,146.5 313.5,147.5C 293.833,147.5 274.167,147.5 254.5,147.5C 254.5,146.5 254.5,145.5 254.5,144.5 Z"/></g>
<g><path style="opacity:1" fill="#c1c1c1" d="M 239.5,105.5 C 239.5,117.167 239.5,128.833 239.5,140.5C 242.385,140.194 245.052,140.527 247.5,141.5C 244.5,141.5 241.5,141.5 238.5,141.5C 238.172,129.322 238.505,117.322 239.5,105.5 Z"/></g>
<g><path style="opacity:1" fill="#fdfdfd" d="M 247.5,141.5 C 245.052,140.527 242.385,140.194 239.5,140.5C 239.5,128.833 239.5,117.167 239.5,105.5C 242.518,105.665 245.518,105.498 248.5,105C 249.931,104.535 251.097,103.701 252,102.5C 252.667,116.5 252.667,130.5 252,144.5C 250.729,143.117 249.229,142.117 247.5,141.5 Z"/></g>
<g><path style="opacity:1" fill="#fcfcfc" d="M 254.5,103.5 C 274.5,103.5 294.5,103.5 314.5,103.5C 314.5,116.833 314.5,130.167 314.5,143.5C 294.5,143.5 274.5,143.5 254.5,143.5C 254.5,130.167 254.5,116.833 254.5,103.5 Z"/></g>
<g><path style="opacity:1" fill="#fefdfd" d="M 254.5,99.5 C 274.167,99.5 293.833,99.5 313.5,99.5C 313.5,100.5 313.5,101.5 313.5,102.5C 293.833,102.5 274.167,102.5 254.5,102.5C 254.5,101.5 254.5,100.5 254.5,99.5 Z"/></g>
<g><path style="opacity:1" fill="#878585" d="M 192.5,68.5 C 190.393,69.4682 188.059,69.8016 185.5,69.5C 185.5,105.5 185.5,141.5 185.5,177.5C 184.502,141.337 184.168,105.004 184.5,68.5C 187.167,68.5 189.833,68.5 192.5,68.5 Z"/></g>
<g><path style="opacity:1" fill="#6f6d6e" d="M 107.5,236.5 C 110.833,236.833 114.167,237.167 117.5,237.5C 113.627,237.885 109.627,238.218 105.5,238.5C 104.5,238.333 103.5,238.167 102.5,238C 104.382,237.802 106.048,237.302 107.5,236.5 Z"/></g>
</svg>
