<?xml version="1.0" encoding="UTF-8"?>
<!DOCTYPE svg PUBLIC "-//W3C//DTD SVG 1.1//EN" "http://www.w3.org/Graphics/SVG/1.1/DTD/svg11.dtd">
<svg xmlns="http://www.w3.org/2000/svg" version="1.1" width="245px" height="335px" style="shape-rendering:geometricPrecision; text-rendering:geometricPrecision; image-rendering:optimizeQuality; fill-rule:evenodd; clip-rule:evenodd" xmlns:xlink="http://www.w3.org/1999/xlink">
<g><path style="opacity:1" fill="#fdfdfd" d="M -0.5,-0.5 C 81.1667,-0.5 162.833,-0.5 244.5,-0.5C 244.5,111.167 244.5,222.833 244.5,334.5C 162.833,334.5 81.1667,334.5 -0.5,334.5C -0.5,222.833 -0.5,111.167 -0.5,-0.5 Z"/></g>
<g><path style="opacity:1" fill="#777777" d="M 132.5,10.5 C 123.467,10.2841 114.467,10.6175 105.5,11.5C 106.263,10.7321 107.263,10.2321 108.5,10C 116.677,9.17721 124.677,9.34387 132.5,10.5 Z"/></g>
<g><path style="opacity:1" fill="#565656" d="M 105.5,11.5 C 105.842,12.3382 106.508,12.6716 107.5,12.5C 106.791,13.404 105.791,13.7373 104.5,13.5C 101.656,12.4489 98.6558,12.4489 95.5,13.5C 95.9175,12.7784 96.5842,12.2784 97.5,12C 100.146,11.5026 102.813,11.3359 105.5,11.5 Z"/></g>
<g><path style="opacity:1" fill="#c0c0c0" d="M 107.5,12.5 C 118.346,12.1722 129.013,12.5056 139.5,13.5C 126.482,13.3393 113.482,13.6727 100.5,14.5C 101.568,13.5655 102.901,13.2322 104.5,13.5C 105.791,13.7373 106.791,13.404 107.5,12.5 Z"/></g>
<g><path style="opacity:1" fill="#fcfcfc" d="M 139.5,13.5 C 181.261,20.4227 211.094,43.0894 229,81.5C 231.095,86.3467 232.595,91.3467 233.5,96.5C 233.41,99.1522 234.076,101.485 235.5,103.5C 242.682,151.994 226.682,190.661 187.5,219.5C 182.584,208.584 180.251,197.251 180.5,185.5C 173.714,184.129 167.048,182.129 160.5,179.5C 160.624,178.893 160.957,178.56 161.5,178.5C 184.307,160.596 192.807,137.262 187,108.5C 174.794,74.6576 150.627,58.8243 114.5,61C 85.4271,67.1293 67.2605,84.6293 60,113.5C 56.8106,141.139 65.9772,163.472 87.5,180.5C 80.8333,181.833 74.1667,183.167 67.5,184.5C 67.9265,195.869 66.0931,206.869 62,217.5C 61.5831,218.756 60.7498,219.423 59.5,219.5C 31.3999,198.983 15.3999,171.316 11.5,136.5C 11.3994,126.148 11.7327,115.815 12.5,105.5C 19.6536,68.811 39.6536,41.811 72.5,24.5C 76.1645,24.4982 79.1645,23.1648 81.5,20.5C 86.8541,19.6439 91.8541,17.9772 96.5,15.5C 97.5676,14.5655 98.901,14.2322 100.5,14.5C 113.482,13.6727 126.482,13.3393 139.5,13.5 Z"/></g>
<g><path style="opacity:1" fill="#606060" d="M 94.5,13.5 C 91.0615,15.2043 87.3948,16.5376 83.5,17.5C 86.6257,15.0103 90.2924,13.677 94.5,13.5 Z"/></g>
<g><path style="opacity:1" fill="#b6b6b6" d="M 96.5,15.5 C 91.8541,17.9772 86.8541,19.6439 81.5,20.5C 86.085,17.8605 91.085,16.1938 96.5,15.5 Z"/></g>
<g><path style="opacity:1" fill="#c1c1c1" d="M 81.5,20.5 C 79.1645,23.1648 76.1645,24.4982 72.5,24.5C 75.0884,22.4082 78.0884,21.0749 81.5,20.5 Z"/></g>
<g><path style="opacity:1" fill="#282828" d="M 132.5,10.5 C 184.289,16.4422 218.789,44.1089 236,93.5C 246.804,140.205 234.97,180.038 200.5,213C 196.756,215.955 192.922,218.789 189,221.5C 188.501,225.152 188.335,228.818 188.5,232.5C 187.679,229.359 187.179,226.025 187,222.5C 186.517,223.448 186.351,224.448 186.5,225.5C 186.167,225.5 185.833,225.5 185.5,225.5C 185.117,220.183 183.617,215.183 181,210.5C 180.172,206.534 179.672,202.534 179.5,198.5C 180.485,194.366 180.818,190.032 180.5,185.5C 180.251,197.251 182.584,208.584 187.5,219.5C 226.682,190.661 242.682,151.994 235.5,103.5C 235.59,100.848 234.924,98.5145 233.5,96.5C 232.595,91.3467 231.095,86.3467 229,81.5C 211.094,43.0894 181.261,20.4227 139.5,13.5C 129.013,12.5056 118.346,12.1722 107.5,12.5C 106.508,12.6716 105.842,12.3382 105.5,11.5C 114.467,10.6175 123.467,10.2841 132.5,10.5 Z"/></g>
<g><path style="opacity:1" fill="#222222" d="M 104.5,13.5 C 102.901,13.2322 101.568,13.5655 100.5,14.5C 98.901,14.2322 97.5676,14.5655 96.5,15.5C 91.085,16.1938 86.085,17.8605 81.5,20.5C 78.0884,21.0749 75.0884,22.4082 72.5,24.5C 39.6536,41.811 19.6536,68.811 12.5,105.5C 10.9929,111.427 10.3262,117.594 10.5,124C 10.501,128.347 10.8343,132.514 11.5,136.5C 15.3999,171.316 31.3999,198.983 59.5,219.5C 58.5084,219.328 57.8417,219.662 57.5,220.5C 18.4664,190.826 2.63306,151.493 10,102.5C 19.6316,63.2016 42.7983,35.035 79.5,18C 80.7932,17.51 82.1266,17.3433 83.5,17.5C 87.3948,16.5376 91.0615,15.2043 94.5,13.5C 94.8333,13.5 95.1667,13.5 95.5,13.5C 98.6558,12.4489 101.656,12.4489 104.5,13.5 Z"/></g>
<g><path style="opacity:1" fill="#232323" d="M 161.5,178.5 C 161.158,177.662 160.492,177.328 159.5,177.5C 184.671,157.469 192.171,132.136 182,101.5C 173.946,83.9396 160.779,72.273 142.5,66.5C 132.055,62.1851 121.389,61.5184 110.5,64.5C 83.4068,72.0959 67.2402,89.7626 62,117.5C 60.3239,142.808 69.4905,163.142 89.5,178.5C 88.8333,179.167 88.1667,179.833 87.5,180.5C 65.9772,163.472 56.8106,141.139 60,113.5C 67.2605,84.6293 85.4271,67.1293 114.5,61C 150.627,58.8243 174.794,74.6576 187,108.5C 192.807,137.262 184.307,160.596 161.5,178.5 Z"/></g>
<g><path style="opacity:1" fill="#c5c5c5" d="M 142.5,66.5 C 136.231,65.1775 129.898,64.1775 123.5,63.5C 119.182,64.0816 114.849,64.415 110.5,64.5C 121.389,61.5184 132.055,62.1851 142.5,66.5 Z"/></g>
<g><path style="opacity:1" fill="#fcfcfc" d="M 142.5,66.5 C 160.779,72.273 173.946,83.9396 182,101.5C 192.171,132.136 184.671,157.469 159.5,177.5C 136.242,178.489 112.908,178.823 89.5,178.5C 69.4905,163.142 60.3239,142.808 62,117.5C 67.2402,89.7626 83.4068,72.0959 110.5,64.5C 114.849,64.415 119.182,64.0816 123.5,63.5C 129.898,64.1775 136.231,65.1775 142.5,66.5 Z"/></g>
<g><path style="opacity:1" fill="#aaaaaa" d="M 233.5,96.5 C 234.924,98.5145 235.59,100.848 235.5,103.5C 234.076,101.485 233.41,99.1522 233.5,96.5 Z"/></g>
<g><path style="opacity:1" fill="#bdbdbd" d="M 12.5,105.5 C 11.7327,115.815 11.3994,126.148 11.5,136.5C 10.8343,132.514 10.501,128.347 10.5,124C 10.3262,117.594 10.9929,111.427 12.5,105.5 Z"/></g>
<g><path style="opacity:1" fill="#fefefe" d="M 178.5,188.5 C 178.19,191.713 178.523,194.713 179.5,197.5C 179.5,197.833 179.5,198.167 179.5,198.5C 179.672,202.534 180.172,206.534 181,210.5C 183.617,215.183 185.117,220.183 185.5,225.5C 185.5,229.833 185.5,234.167 185.5,238.5C 144.167,238.5 102.833,238.5 61.5,238.5C 61.0578,228.687 62.8911,219.354 67,210.5C 68.1609,204.874 68.9942,199.207 69.5,193.5C 70.4511,192.081 70.7845,190.415 70.5,188.5C 106.5,188.5 142.5,188.5 178.5,188.5 Z"/></g>
<g><path style="opacity:1" fill="#222222" d="M 159.5,177.5 C 160.492,177.328 161.158,177.662 161.5,178.5C 160.957,178.56 160.624,178.893 160.5,179.5C 167.048,182.129 173.714,184.129 180.5,185.5C 180.818,190.032 180.485,194.366 179.5,198.5C 179.5,198.167 179.5,197.833 179.5,197.5C 179.5,193.833 179.5,190.167 179.5,186.5C 142.663,186.168 105.996,186.502 69.5,187.5C 69.5,189.5 69.5,191.5 69.5,193.5C 68.9942,199.207 68.1609,204.874 67,210.5C 62.8911,219.354 61.0578,228.687 61.5,238.5C 102.997,239.499 144.663,239.832 186.5,239.5C 186.5,234.833 186.5,230.167 186.5,225.5C 186.351,224.448 186.517,223.448 187,222.5C 187.179,226.025 187.679,229.359 188.5,232.5C 188.5,235.5 188.5,238.5 188.5,241.5C 173.833,241.5 159.167,241.5 144.5,241.5C 144.335,244.85 144.502,248.183 145,251.5C 146.129,253.141 147.629,254.141 149.5,254.5C 150.655,276.094 150.821,297.761 150,319.5C 149.283,320.044 148.783,320.711 148.5,321.5C 147.373,322.122 146.373,322.955 145.5,324C 130.994,324.827 116.661,324.661 102.5,323.5C 116.01,323.829 129.344,323.496 142.5,322.5C 143.404,321.791 143.737,320.791 143.5,319.5C 144.833,319.5 145.5,318.833 145.5,317.5C 146.791,317.737 147.791,317.404 148.5,316.5C 149.154,296.472 148.488,276.805 146.5,257.5C 146.167,257.5 145.833,257.5 145.5,257.5C 145.672,256.508 145.338,255.842 144.5,255.5C 144.672,254.508 144.338,253.842 143.5,253.5C 141.657,249.813 140.99,245.813 141.5,241.5C 129.833,241.5 118.167,241.5 106.5,241.5C 106.665,244.85 106.498,248.183 106,251.5C 105.722,252.416 105.222,253.082 104.5,253.5C 104.158,252.662 103.492,252.328 102.5,252.5C 103.423,248.936 103.756,245.269 103.5,241.5C 88.8333,241.5 74.1667,241.5 59.5,241.5C 59.6663,234.825 59.4996,228.158 59,221.5C 58.6174,220.944 58.1174,220.611 57.5,220.5C 57.8417,219.662 58.5084,219.328 59.5,219.5C 60.7498,219.423 61.5831,218.756 62,217.5C 66.0931,206.869 67.9265,195.869 67.5,184.5C 74.1667,183.167 80.8333,181.833 87.5,180.5C 88.1667,179.833 88.8333,179.167 89.5,178.5C 112.908,178.823 136.242,178.489 159.5,177.5 Z"/></g>
<g><path style="opacity:1" fill="#989898" d="M 185.5,225.5 C 185.833,225.5 186.167,225.5 186.5,225.5C 186.5,230.167 186.5,234.833 186.5,239.5C 144.663,239.832 102.997,239.499 61.5,238.5C 102.833,238.5 144.167,238.5 185.5,238.5C 185.5,234.167 185.5,229.833 185.5,225.5 Z"/></g>
<g><path style="opacity:1" fill="#e2e2e2" d="M 69.5,187.5 C 106.004,187.168 142.337,187.502 178.5,188.5C 142.5,188.5 106.5,188.5 70.5,188.5C 70.7845,190.415 70.4511,192.081 69.5,193.5C 69.5,191.5 69.5,189.5 69.5,187.5 Z"/></g>
<g><path style="opacity:1" fill="#6d6d6d" d="M 69.5,187.5 C 105.996,186.502 142.663,186.168 179.5,186.5C 179.5,190.167 179.5,193.833 179.5,197.5C 178.523,194.713 178.19,191.713 178.5,188.5C 142.337,187.502 106.004,187.168 69.5,187.5 Z"/></g>
<g><path style="opacity:1" fill="#777777" d="M 84.5,183.5 C 111.167,184.833 137.833,184.833 164.5,183.5C 166.379,183.393 166.712,183.893 165.5,185C 137.494,185.833 109.494,185.667 81.5,184.5C 82.325,183.614 83.325,183.281 84.5,183.5 Z"/></g>
<g><path style="opacity:1" fill="#fafafa" d="M 156.5,181.5 C 159.167,182.167 161.833,182.833 164.5,183.5C 137.833,184.833 111.167,184.833 84.5,183.5C 84.8333,183.5 85.1667,183.5 85.5,183.5C 87.9267,183.477 90.26,182.977 92.5,182C 113.831,181.5 135.164,181.333 156.5,181.5 Z"/></g>
<g><path style="opacity:1" fill="#d5d5d5" d="M 156.5,181.5 C 135.164,181.333 113.831,181.5 92.5,182C 90.26,182.977 87.9267,183.477 85.5,183.5C 87.0188,182.59 88.6854,181.757 90.5,181C 112.671,180.17 134.671,180.337 156.5,181.5 Z"/></g>
<g><path style="opacity:1" fill="#fcfcfc" d="M 143.5,253.5 C 130.5,254.833 117.5,254.833 104.5,253.5C 105.222,253.082 105.722,252.416 106,251.5C 106.498,248.183 106.665,244.85 106.5,241.5C 118.167,241.5 129.833,241.5 141.5,241.5C 140.99,245.813 141.657,249.813 143.5,253.5 Z"/></g>
<g><path style="opacity:1" fill="#1b1b1b" d="M 102.5,252.5 C 103.492,252.328 104.158,252.662 104.5,253.5C 103.957,253.56 103.624,253.893 103.5,254.5C 117.15,255.499 130.817,255.833 144.5,255.5C 145.338,255.842 145.672,256.508 145.5,257.5C 145.5,277.5 145.5,297.5 145.5,317.5C 145.5,318.833 144.833,319.5 143.5,319.5C 130.5,319.5 117.5,319.5 104.5,319.5C 104.5,320.5 104.5,321.5 104.5,322.5C 117.167,322.5 129.833,322.5 142.5,322.5C 129.344,323.496 116.01,323.829 102.5,323.5C 100.833,322.5 99.5,321.167 98.5,319.5C 98.3284,318.508 98.6618,317.842 99.5,317.5C 100.5,317.5 101.5,317.5 102.5,317.5C 102.5,297.5 102.5,277.5 102.5,257.5C 101.5,257.5 100.5,257.5 99.5,257.5C 98.6618,257.158 98.3284,256.492 98.5,255.5C 99.4363,254.026 100.77,253.026 102.5,252.5 Z"/></g>
<g><path style="opacity:1" fill="#878787" d="M 104.5,253.5 C 117.5,254.833 130.5,254.833 143.5,253.5C 144.338,253.842 144.672,254.508 144.5,255.5C 130.817,255.833 117.15,255.499 103.5,254.5C 103.624,253.893 103.957,253.56 104.5,253.5 Z"/></g>
<g><path style="opacity:1" fill="#bcbcbc" d="M 149.5,254.5 C 150.832,265.146 151.499,276.146 151.5,287.5C 151.333,298.5 151.167,309.5 151,320.5C 150.329,321.252 149.496,321.586 148.5,321.5C 148.783,320.711 149.283,320.044 150,319.5C 150.821,297.761 150.655,276.094 149.5,254.5 Z"/></g>
<g><path style="opacity:1" fill="#292929" d="M 98.5,255.5 C 98.3284,256.492 98.6618,257.158 99.5,257.5C 99.5,277.5 99.5,297.5 99.5,317.5C 98.6618,317.842 98.3284,318.508 98.5,319.5C 97.1667,298.167 97.1667,276.833 98.5,255.5 Z"/></g>
<g><path style="opacity:1" fill="#c6c6c6" d="M 146.5,257.5 C 148.488,276.805 149.154,296.472 148.5,316.5C 146.512,297.195 145.846,277.528 146.5,257.5 Z"/></g>
<g><path style="opacity:1" fill="#8b8b8b" d="M 145.5,257.5 C 145.833,257.5 146.167,257.5 146.5,257.5C 145.846,277.528 146.512,297.195 148.5,316.5C 147.791,317.404 146.791,317.737 145.5,317.5C 145.5,297.5 145.5,277.5 145.5,257.5 Z"/></g>
<g><path style="opacity:1" fill="#b3b3b3" d="M 105.5,257.5 C 105.5,277.167 105.5,296.833 105.5,316.5C 117.833,316.5 130.167,316.5 142.5,316.5C 142.5,296.833 142.5,277.167 142.5,257.5C 143.497,277.326 143.83,297.326 143.5,317.5C 130.5,317.5 117.5,317.5 104.5,317.5C 104.17,297.326 104.503,277.326 105.5,257.5 Z"/></g>
<g><path style="opacity:1" fill="#fefefe" d="M 105.5,257.5 C 117.833,257.5 130.167,257.5 142.5,257.5C 142.5,277.167 142.5,296.833 142.5,316.5C 130.167,316.5 117.833,316.5 105.5,316.5C 105.5,296.833 105.5,277.167 105.5,257.5 Z"/></g>
<g><path style="opacity:1" fill="#a9a9a9" d="M 99.5,257.5 C 100.5,257.5 101.5,257.5 102.5,257.5C 102.5,277.5 102.5,297.5 102.5,317.5C 101.5,317.5 100.5,317.5 99.5,317.5C 99.5,297.5 99.5,277.5 99.5,257.5 Z"/></g>
<g><path style="opacity:1" fill="#b4b4b4" d="M 143.5,319.5 C 143.737,320.791 143.404,321.791 142.5,322.5C 129.833,322.5 117.167,322.5 104.5,322.5C 104.5,321.5 104.5,320.5 104.5,319.5C 117.5,319.5 130.5,319.5 143.5,319.5 Z"/></g>
</svg>
