<?xml version="1.0" encoding="UTF-8"?>
<!DOCTYPE svg PUBLIC "-//W3C//DTD SVG 1.1//EN" "http://www.w3.org/Graphics/SVG/1.1/DTD/svg11.dtd">
<svg xmlns="http://www.w3.org/2000/svg" version="1.1" width="264px" height="266px" style="shape-rendering:geometricPrecision; text-rendering:geometricPrecision; image-rendering:optimizeQuality; fill-rule:evenodd; clip-rule:evenodd" xmlns:xlink="http://www.w3.org/1999/xlink">
<g><path style="opacity:1" fill="#fdfdfd" d="M -0.5,-0.5 C 87.5,-0.5 175.5,-0.5 263.5,-0.5C 263.5,88.1667 263.5,176.833 263.5,265.5C 175.5,265.5 87.5,265.5 -0.5,265.5C -0.5,176.833 -0.5,88.1667 -0.5,-0.5 Z"/></g>
<g><path style="opacity:1" fill="#fcfcfc" d="M 154.5,13.5 C 158.5,14.1667 162.5,14.8333 166.5,15.5C 199.407,24.9 224.24,44.5666 241,74.5C 243.119,78.4023 244.952,82.4023 246.5,86.5C 250.591,95.875 253.258,105.542 254.5,115.5C 255.411,124.126 255.745,132.792 255.5,141.5C 253.822,151.875 251.489,162.208 248.5,172.5C 239.179,196.825 223.846,216.491 202.5,231.5C 199.152,225.448 196.819,219.114 195.5,212.5C 195.666,206.824 195.499,201.157 195,195.5C 191.6,194.46 188.1,193.794 184.5,193.5C 180.928,191.917 177.262,190.417 173.5,189C 199.518,168.281 208.351,141.781 200,109.5C 182.326,71.082 152.826,56.9153 111.5,67C 74.5996,83.9679 60.4329,112.468 69,152.5C 74.1922,167.743 83.3588,179.909 96.5,189C 89.4739,191.787 82.1406,193.621 74.5,194.5C 75.4996,207.539 73.1663,219.872 67.5,231.5C 49.1657,219.837 35.499,204.17 26.5,184.5C 21.007,174.534 17.6737,163.867 16.5,152.5C 15.1932,138.501 15.1932,124.501 16.5,110.5C 16.5,109.833 16.5,109.167 16.5,108.5C 17.9238,106.485 18.5905,104.152 18.5,101.5C 20.114,92.6574 23.114,84.3241 27.5,76.5C 36.5926,59.0701 49.2593,44.7368 65.5,33.5C 78.4704,24.1836 92.8037,17.8503 108.5,14.5C 116.297,13.5083 124.13,12.8416 132,12.5C 139.499,12.9167 146.999,13.2501 154.5,13.5 Z"/></g>
<g><path style="opacity:1" fill="#2d2d2d" d="M 169.5,14.5 C 168.209,14.2627 167.209,14.596 166.5,15.5C 162.5,14.8333 158.5,14.1667 154.5,13.5C 147.903,11.9699 141.07,11.3032 134,11.5C 125.19,11.0852 116.69,12.0852 108.5,14.5C 92.8037,17.8503 78.4704,24.1836 65.5,33.5C 65.1583,32.6618 64.4916,32.3284 63.5,32.5C 88.9533,13.4679 117.62,5.96793 149.5,10C 156.372,11.1932 163.038,12.6932 169.5,14.5 Z"/></g>
<g><path style="opacity:1" fill="#bcbcbc" d="M 154.5,13.5 C 146.999,13.2501 139.499,12.9167 132,12.5C 124.13,12.8416 116.297,13.5083 108.5,14.5C 116.69,12.0852 125.19,11.0852 134,11.5C 141.07,11.3032 147.903,11.9699 154.5,13.5 Z"/></g>
<g><path style="opacity:1" fill="#212121" d="M 166.5,15.5 C 167.209,14.596 168.209,14.2627 169.5,14.5C 206.136,25.4688 232.136,48.4688 247.5,83.5C 247.737,84.791 247.404,85.791 246.5,86.5C 244.952,82.4023 243.119,78.4023 241,74.5C 224.24,44.5666 199.407,24.9 166.5,15.5 Z"/></g>
<g><path style="opacity:1" fill="#1e1e1e" d="M 63.5,32.5 C 64.4916,32.3284 65.1583,32.6618 65.5,33.5C 49.2593,44.7368 36.5926,59.0701 27.5,76.5C 26.6618,76.1583 26.3284,75.4916 26.5,74.5C 35.2341,57.4262 47.5675,43.4262 63.5,32.5 Z"/></g>
<g><path style="opacity:1" fill="#363636" d="M 247.5,83.5 C 252.128,93.266 255.128,103.599 256.5,114.5C 255.732,113.737 255.232,112.737 255,111.5C 254.51,112.793 254.343,114.127 254.5,115.5C 253.258,105.542 250.591,95.875 246.5,86.5C 247.404,85.791 247.737,84.791 247.5,83.5 Z"/></g>
<g><path style="opacity:1" fill="#989898" d="M 18.5,101.5 C 18.5905,104.152 17.9238,106.485 16.5,108.5C 16.4095,105.848 17.0762,103.515 18.5,101.5 Z"/></g>
<g><path style="opacity:1" fill="#141414" d="M 256.5,114.5 C 256.5,114.833 256.5,115.167 256.5,115.5C 256.85,126.215 256.517,134.882 255.5,141.5C 255.745,132.792 255.411,124.126 254.5,115.5C 254.343,114.127 254.51,112.793 255,111.5C 255.232,112.737 255.732,113.737 256.5,114.5 Z"/></g>
<g><path style="opacity:1" fill="#303030" d="M 26.5,74.5 C 26.3284,75.4916 26.6618,76.1583 27.5,76.5C 23.114,84.3241 20.114,92.6574 18.5,101.5C 17.0762,103.515 16.4095,105.848 16.5,108.5C 16.5,109.167 16.5,109.833 16.5,110.5C 14.9699,117.097 14.3032,123.93 14.5,131C 14.3267,138.396 14.9934,145.562 16.5,152.5C 17.6737,163.867 21.007,174.534 26.5,184.5C 25.6618,184.842 25.3284,185.508 25.5,186.5C 16.1651,169.355 11.8318,150.855 12.5,131C 11.7908,110.671 16.4574,91.838 26.5,74.5 Z"/></g>
<g><path style="opacity:1" fill="#c9c9c9" d="M 16.5,110.5 C 15.1932,124.501 15.1932,138.501 16.5,152.5C 14.9934,145.562 14.3267,138.396 14.5,131C 14.3032,123.93 14.9699,117.097 16.5,110.5 Z"/></g>
<g><path style="opacity:1" fill="#232323" d="M 184.5,193.5 C 183.508,193.328 182.842,193.662 182.5,194.5C 181.609,193.89 180.609,193.557 179.5,193.5C 175.207,192.343 170.873,191.343 166.5,190.5C 166.5,190.167 166.5,189.833 166.5,189.5C 166.5,189.167 166.5,188.833 166.5,188.5C 144.993,188.169 123.66,188.503 102.5,189.5C 102.5,189.833 102.5,190.167 102.5,190.5C 98.3967,191.09 94.3967,192.09 90.5,193.5C 89.0783,193.709 87.745,194.209 86.5,195C 93.1583,195.5 99.825,195.666 106.5,195.5C 106.5,193.5 106.5,191.5 106.5,189.5C 107.167,190.167 107.833,190.833 108.5,191.5C 108.433,192.959 108.766,194.292 109.5,195.5C 109.5,195.833 109.5,196.167 109.5,196.5C 108.503,214.659 108.17,232.992 108.5,251.5C 107.833,251.833 107.167,252.167 106.5,252.5C 106.83,233.992 106.497,215.659 105.5,197.5C 95.8333,197.5 86.1667,197.5 76.5,197.5C 77.2868,210.449 74.9535,222.782 69.5,234.5C 68.5184,237.962 68.185,241.629 68.5,245.5C 67.8333,241.833 67.1667,238.167 66.5,234.5C 48.4901,222.161 34.8235,206.161 25.5,186.5C 25.3284,185.508 25.6618,184.842 26.5,184.5C 35.499,204.17 49.1657,219.837 67.5,231.5C 73.1663,219.872 75.4996,207.539 74.5,194.5C 82.1406,193.621 89.4739,191.787 96.5,189C 83.3588,179.909 74.1922,167.743 69,152.5C 60.4329,112.468 74.5996,83.9679 111.5,67C 152.826,56.9153 182.326,71.082 200,109.5C 208.351,141.781 199.518,168.281 173.5,189C 177.262,190.417 180.928,191.917 184.5,193.5 Z"/></g>
<g><path style="opacity:1" fill="#fdfdfd" d="M 166.5,188.5 C 144.627,187.173 122.627,187.173 100.5,188.5C 73.6859,169.909 63.8526,144.576 71,112.5C 83.7429,80.0401 107.576,64.5401 142.5,66C 181.458,73.9543 200.958,97.7876 201,137.5C 198.676,157.658 189.509,173.825 173.5,186C 171.559,187.903 169.226,188.736 166.5,188.5 Z"/></g>
<g><path style="opacity:1" fill="#3c3c3c" d="M 256.5,115.5 C 259.414,136.102 257.081,156.102 249.5,175.5C 249.737,174.209 249.404,173.209 248.5,172.5C 251.489,162.208 253.822,151.875 255.5,141.5C 256.517,134.882 256.85,126.215 256.5,115.5 Z"/></g>
<g><path style="opacity:1" fill="#ebebeb" d="M 102.5,190.5 C 103.5,190.5 104.5,190.5 105.5,190.5C 105.5,191.833 105.5,193.167 105.5,194.5C 100.305,194.821 95.3054,194.487 90.5,193.5C 94.3967,192.09 98.3967,191.09 102.5,190.5 Z"/></g>
<g><path style="opacity:1" fill="#ededed" d="M 166.5,190.5 C 170.873,191.343 175.207,192.343 179.5,193.5C 174.36,194.488 169.026,194.821 163.5,194.5C 163.5,193.167 163.5,191.833 163.5,190.5C 164.5,190.5 165.5,190.5 166.5,190.5 Z"/></g>
<g><path style="opacity:1" fill="#929292" d="M 108.5,191.5 C 110.252,191.418 111.252,192.251 111.5,194C 111.164,195.03 110.497,195.53 109.5,195.5C 108.766,194.292 108.433,192.959 108.5,191.5 Z"/></g>
<g><path style="opacity:1" fill="#8c8c8c" d="M 102.5,190.5 C 102.5,190.167 102.5,189.833 102.5,189.5C 103.833,189.5 105.167,189.5 106.5,189.5C 106.5,191.5 106.5,193.5 106.5,195.5C 99.825,195.666 93.1583,195.5 86.5,195C 87.745,194.209 89.0783,193.709 90.5,193.5C 95.3054,194.487 100.305,194.821 105.5,194.5C 105.5,193.167 105.5,191.833 105.5,190.5C 104.5,190.5 103.5,190.5 102.5,190.5 Z"/></g>
<g><path style="opacity:1" fill="#828282" d="M 166.5,189.5 C 166.5,189.833 166.5,190.167 166.5,190.5C 165.5,190.5 164.5,190.5 163.5,190.5C 163.5,191.833 163.5,193.167 163.5,194.5C 169.026,194.821 174.36,194.488 179.5,193.5C 180.609,193.557 181.609,193.89 182.5,194.5C 176.592,195.499 169.926,195.833 162.5,195.5C 162.5,193.5 162.5,191.5 162.5,189.5C 163.833,189.5 165.167,189.5 166.5,189.5 Z"/></g>
<g><path style="opacity:1" fill="#757575" d="M 193.5,209.5 C 192.518,206.038 192.185,202.371 192.5,198.5C 183.014,197.506 173.348,197.173 163.5,197.5C 163.5,215.833 163.5,234.167 163.5,252.5C 163.167,252.5 162.833,252.5 162.5,252.5C 162.5,233.833 162.5,215.167 162.5,196.5C 172.833,196.5 183.167,196.5 193.5,196.5C 193.5,200.833 193.5,205.167 193.5,209.5 Z"/></g>
<g><path style="opacity:1" fill="#fdfdfd" d="M 105.5,197.5 C 105.5,215.5 105.5,233.5 105.5,251.5C 93.5,251.5 81.5,251.5 69.5,251.5C 69.5,245.833 69.5,240.167 69.5,234.5C 74.9535,222.782 77.2868,210.449 76.5,197.5C 86.1667,197.5 95.8333,197.5 105.5,197.5 Z"/></g>
<g><path style="opacity:1" fill="#9b9b9b" d="M 109.5,196.5 C 110.832,205.141 111.498,214.141 111.5,223.5C 111.333,232.5 111.167,241.5 111,250.5C 110.329,251.252 109.496,251.586 108.5,251.5C 108.17,232.992 108.503,214.659 109.5,196.5 Z"/></g>
<g><path style="opacity:1" fill="#e9e9e9" d="M 192.5,198.5 C 183.167,198.5 173.833,198.5 164.5,198.5C 164.5,216.167 164.5,233.833 164.5,251.5C 176.5,251.5 188.5,251.5 200.5,251.5C 188.345,252.495 176.011,252.829 163.5,252.5C 163.5,234.167 163.5,215.833 163.5,197.5C 173.348,197.173 183.014,197.506 192.5,198.5 Z"/></g>
<g><path style="opacity:1" fill="#fdfdfd" d="M 192.5,198.5 C 192.185,202.371 192.518,206.038 193.5,209.5C 193.5,210.5 193.5,211.5 193.5,212.5C 194.745,219.484 196.911,226.151 200,232.5C 200.497,235.146 200.664,237.813 200.5,240.5C 200.5,244.167 200.5,247.833 200.5,251.5C 188.5,251.5 176.5,251.5 164.5,251.5C 164.5,233.833 164.5,216.167 164.5,198.5C 173.833,198.5 183.167,198.5 192.5,198.5 Z"/></g>
<g><path style="opacity:1" fill="#1f1f1f" d="M 248.5,172.5 C 249.404,173.209 249.737,174.209 249.5,175.5C 239.747,199.66 224.247,219.326 203,234.5C 202.503,236.81 202.337,239.143 202.5,241.5C 202.666,245.514 202.499,249.514 202,253.5C 201.825,248.981 201.325,244.647 200.5,240.5C 200.664,237.813 200.497,235.146 200,232.5C 196.911,226.151 194.745,219.484 193.5,212.5C 194.268,213.263 194.768,214.263 195,215.5C 195.483,214.552 195.649,213.552 195.5,212.5C 196.819,219.114 199.152,225.448 202.5,231.5C 223.846,216.491 239.179,196.825 248.5,172.5 Z"/></g>
<g><path style="opacity:1" fill="#1b1b1b" d="M 102.5,189.5 C 123.66,188.503 144.993,188.169 166.5,188.5C 166.5,188.833 166.5,189.167 166.5,189.5C 165.167,189.5 163.833,189.5 162.5,189.5C 162.5,191.5 162.5,193.5 162.5,195.5C 169.926,195.833 176.592,195.499 182.5,194.5C 182.842,193.662 183.508,193.328 184.5,193.5C 188.1,193.794 191.6,194.46 195,195.5C 195.499,201.157 195.666,206.824 195.5,212.5C 195.649,213.552 195.483,214.552 195,215.5C 194.768,214.263 194.268,213.263 193.5,212.5C 193.5,211.5 193.5,210.5 193.5,209.5C 193.5,205.167 193.5,200.833 193.5,196.5C 183.167,196.5 172.833,196.5 162.5,196.5C 162.5,215.167 162.5,233.833 162.5,252.5C 143.846,251.195 125.18,251.195 106.5,252.5C 107.167,252.167 107.833,251.833 108.5,251.5C 109.496,251.586 110.329,251.252 111,250.5C 111.167,241.5 111.333,232.5 111.5,223.5C 111.498,214.141 110.832,205.141 109.5,196.5C 109.5,196.167 109.5,195.833 109.5,195.5C 110.497,195.53 111.164,195.03 111.5,194C 111.252,192.251 110.252,191.418 108.5,191.5C 107.833,190.833 107.167,190.167 106.5,189.5C 105.167,189.5 103.833,189.5 102.5,189.5 Z"/></g>
<g><path style="opacity:1" fill="#b8b8b8" d="M 114.5,197.5 C 114.5,214.5 114.5,231.5 114.5,248.5C 128.167,248.5 141.833,248.5 155.5,248.5C 155.5,231.5 155.5,214.5 155.5,197.5C 155.833,197.5 156.167,197.5 156.5,197.5C 156.5,214.833 156.5,232.167 156.5,249.5C 142.167,249.5 127.833,249.5 113.5,249.5C 113.17,231.992 113.503,214.659 114.5,197.5 Z"/></g>
<g><path style="opacity:1" fill="#d7d7d7" d="M 160.5,197.5 C 160.83,215.341 160.497,233.008 159.5,250.5C 159.167,250.5 158.833,250.5 158.5,250.5C 157.847,232.468 158.514,214.802 160.5,197.5 Z"/></g>
<g><path style="opacity:1" fill="#4c4c4c" d="M 160.5,197.5 C 161.827,215.338 161.827,233.338 160.5,251.5C 159.893,251.376 159.56,251.043 159.5,250.5C 160.497,233.008 160.83,215.341 160.5,197.5 Z"/></g>
<g><path style="opacity:1" fill="#fefefe" d="M 114.5,197.5 C 128.167,197.5 141.833,197.5 155.5,197.5C 155.5,214.5 155.5,231.5 155.5,248.5C 141.833,248.5 128.167,248.5 114.5,248.5C 114.5,231.5 114.5,214.5 114.5,197.5 Z"/></g>
<g><path style="opacity:1" fill="#282828" d="M 160.5,191.5 C 161.573,193.347 161.573,195.347 160.5,197.5C 158.514,214.802 157.847,232.468 158.5,250.5C 157.833,232.833 157.167,215.167 156.5,197.5C 156.5,196.833 156.5,196.167 156.5,195.5C 157.492,195.672 158.158,195.338 158.5,194.5C 160.048,194.179 160.715,193.179 160.5,191.5 Z"/></g>
<g><path style="opacity:1" fill="#a3a3a3" d="M 156.5,195.5 C 142.151,195.833 127.818,195.499 113.5,194.5C 120.667,194.167 127.833,193.833 135,193.5C 142.533,193.503 149.699,194.169 156.5,195.5 Z"/></g>
<g><path style="opacity:1" fill="#b6b6b6" d="M 160.5,191.5 C 160.715,193.179 160.048,194.179 158.5,194.5C 158.285,192.821 158.952,191.821 160.5,191.5 Z"/></g>
<g><path style="opacity:1" fill="#7c7c7c" d="M 112.5,189.5 C 127.515,189.167 142.515,189.501 157.5,190.5C 150,190.833 142.5,191.167 135,191.5C 127.136,191.497 119.636,190.831 112.5,189.5 Z"/></g>
<g><path style="opacity:1" fill="#c2c2c2" d="M 105.5,197.5 C 106.497,215.659 106.83,233.992 106.5,252.5C 93.8333,252.5 81.1667,252.5 68.5,252.5C 68.5,250.167 68.5,247.833 68.5,245.5C 68.185,241.629 68.5184,237.962 69.5,234.5C 69.5,240.167 69.5,245.833 69.5,251.5C 81.5,251.5 93.5,251.5 105.5,251.5C 105.5,233.5 105.5,215.5 105.5,197.5 Z"/></g>
<g><path style="opacity:1" fill="#2e2e2e" d="M 66.5,234.5 C 67.1667,238.167 67.8333,241.833 68.5,245.5C 68.5,247.833 68.5,250.167 68.5,252.5C 81.1667,252.5 93.8333,252.5 106.5,252.5C 125.18,251.195 143.846,251.195 162.5,252.5C 162.833,252.5 163.167,252.5 163.5,252.5C 176.011,252.829 188.345,252.495 200.5,251.5C 200.5,247.833 200.5,244.167 200.5,240.5C 201.325,244.647 201.825,248.981 202,253.5C 202.499,249.514 202.666,245.514 202.5,241.5C 203.485,245.634 203.818,249.968 203.5,254.5C 157.833,254.5 112.167,254.5 66.5,254.5C 66.5,247.833 66.5,241.167 66.5,234.5 Z"/></g>
</svg>
