<?xml version="1.0" encoding="UTF-8"?>
<!DOCTYPE svg PUBLIC "-//W3C//DTD SVG 1.1//EN" "http://www.w3.org/Graphics/SVG/1.1/DTD/svg11.dtd">
<svg xmlns="http://www.w3.org/2000/svg" version="1.1" width="501px" height="254px" style="shape-rendering:geometricPrecision; text-rendering:geometricPrecision; image-rendering:optimizeQuality; fill-rule:evenodd; clip-rule:evenodd" xmlns:xlink="http://www.w3.org/1999/xlink">
<g><path style="opacity:1" fill="#fdfdfd" d="M -0.5,-0.5 C 166.5,-0.5 333.5,-0.5 500.5,-0.5C 500.5,84.1667 500.5,168.833 500.5,253.5C 333.5,253.5 166.5,253.5 -0.5,253.5C -0.5,168.833 -0.5,84.1667 -0.5,-0.5 Z"/></g>
<g><path style="opacity:1" fill="#fefefe" d="M 479.5,58.5 C 482.5,58.5 485.5,58.5 488.5,58.5C 488.5,71.1667 488.5,83.8333 488.5,96.5C 487.494,96.9377 487.494,97.6043 488.5,98.5C 488.448,114.944 488.448,131.611 488.5,148.5C 488.5,149.167 488.5,149.833 488.5,150.5C 488.5,163.5 488.5,176.5 488.5,189.5C 482.183,188.906 475.849,188.406 469.5,188C 458.423,182.685 446.756,180.518 434.5,181.5C 434.515,152.861 434.515,124.528 434.5,96.5C 434.5,86.5 434.5,76.5 434.5,66.5C 438.042,66.8128 441.375,66.4794 444.5,65.5C 453.203,64.7408 461.537,62.5742 469.5,59C 472.817,58.5017 476.15,58.335 479.5,58.5 Z"/></g>
<g><path style="opacity:1" fill="#242423" d="M 64.5,2.5 C 82.3084,-0.208359 94.1417,6.79164 100,23.5C 100.333,36.1667 100.667,48.8333 101,61.5C 136.541,81.7754 147.874,111.442 135,150.5C 128.058,166.442 116.725,178.108 101,185.5C 100.667,197.5 100.333,209.5 100,221.5C 96.8149,236.34 87.6482,244.007 72.5,244.5C 57.7869,243.631 48.6202,235.964 45,221.5C 44.6667,209.5 44.3333,197.5 44,185.5C 12.2441,167.927 -0.0892618,141.26 7,105.5C 13.1823,85.4818 25.6823,70.8151 44.5,61.5C 45.3327,48.1791 45.8327,34.8458 46,21.5C 49.6871,12.6475 55.8538,6.31412 64.5,2.5 Z"/></g>
<g><path style="opacity:1" fill="#fcfcfc" d="M 63.5,57.5 C 103.922,56.45 128.756,75.45 138,114.5C 140.637,144.395 129.137,166.895 103.5,182C 67.8137,196.954 38.647,188.788 16,157.5C -1.29724,121.089 6.20276,90.9227 38.5,67C 46.4718,62.515 54.8051,59.3483 63.5,57.5 Z"/></g>
<g><path style="opacity:1" fill="#888484" d="M 47.5,25.5 C 46.8556,37.216 47.5223,48.5493 49.5,59.5C 48.791,60.404 47.791,60.7373 46.5,60.5C 46.1717,48.6547 46.5051,36.988 47.5,25.5 Z"/></g>
<g><path style="opacity:1" fill="#fdfdfd" d="M 49.5,59.5 C 47.5223,48.5493 46.8556,37.216 47.5,25.5C 52.7547,7.78241 64.4214,1.28241 82.5,6C 90.5975,9.68614 95.7642,15.8528 98,24.5C 98.8326,36.5139 98.6659,48.5139 97.5,60.5C 81.5927,54.2759 65.5927,53.9426 49.5,59.5 Z"/></g>
<g><path style="opacity:1" fill="#bebebe" d="M 490.5,55.5 C 491.17,86.9023 491.837,118.402 492.5,150C 491.842,162.598 491.176,175.098 490.5,187.5C 490.829,174.989 490.495,162.655 489.5,150.5C 490.833,132.5 490.833,114.5 489.5,96.5C 490.496,83.0102 490.829,69.3435 490.5,55.5 Z"/></g>
<g><path style="opacity:1" fill="#2a2a29" d="M 490.5,55.5 C 490.829,69.3435 490.496,83.0102 489.5,96.5C 489.5,83.5 489.5,70.5 489.5,57.5C 485.958,57.1872 482.625,57.5206 479.5,58.5C 476.15,58.335 472.817,58.5017 469.5,59C 461.537,62.5742 453.203,64.7408 444.5,65.5C 440.833,65.5 437.167,65.5 433.5,65.5C 433.172,76.0135 433.506,86.3468 434.5,96.5C 434.515,124.528 434.515,152.861 434.5,181.5C 446.756,180.518 458.423,182.685 469.5,188C 475.849,188.406 482.183,188.906 488.5,189.5C 488.5,176.5 488.5,163.5 488.5,150.5C 488.833,150.5 489.167,150.5 489.5,150.5C 490.495,162.655 490.829,174.989 490.5,187.5C 490.67,188.822 490.337,189.989 489.5,191C 483.182,190.725 476.849,190.725 470.5,191C 455.87,212.808 436.203,227.975 411.5,236.5C 410.833,236.5 410.5,236.167 410.5,235.5C 434.652,226.519 453.985,211.352 468.5,190C 457.063,184.979 445.063,182.646 432.5,183C 430.608,175.821 428.608,168.654 426.5,161.5C 400.421,193.016 369.088,199.516 332.5,181C 300.276,156.128 293.11,125.295 311,88.5C 331.463,59.0337 358.963,49.5337 393.5,60C 407.334,65.1692 418.168,74.0025 426,86.5C 428.377,79.0377 430.544,71.5377 432.5,64C 445.058,64.3506 457.058,62.0173 468.5,57C 447.677,26.9125 419.01,9.5792 382.5,5C 324.26,2.03076 282.76,26.8641 258,79.5C 250.807,100.274 248.474,121.608 251,143.5C 243.152,87.3614 263.652,44.8614 312.5,16C 358.595,-6.2732 402.261,-2.60653 443.5,27C 453.913,35.4104 462.913,45.077 470.5,56C 477.156,56.0475 483.822,55.8809 490.5,55.5 Z"/></g>
<g><path style="opacity:1" fill="#595959" d="M 479.5,58.5 C 482.625,57.5206 485.958,57.1872 489.5,57.5C 489.5,70.5 489.5,83.5 489.5,96.5C 489.167,96.5 488.833,96.5 488.5,96.5C 488.5,83.8333 488.5,71.1667 488.5,58.5C 485.5,58.5 482.5,58.5 479.5,58.5 Z"/></g>
<g><path style="opacity:1" fill="#fdfdfd" d="M 424.5,93.5 C 424.212,114.86 424.545,136.193 425.5,157.5C 412.362,178.244 393.362,188.911 368.5,189.5C 335.778,186.889 314.611,169.889 305,138.5C 299.533,104.269 312.033,79.102 342.5,63C 372.122,52.2568 397.956,58.0902 420,80.5C 421.635,83.6319 423.468,86.6319 425.5,89.5C 424.754,90.7362 424.421,92.0695 424.5,93.5 Z"/></g>
<g><path style="opacity:1" fill="#868484" d="M 431.5,100.5 C 431.825,92.9809 431.492,85.6476 430.5,78.5C 430.709,77.0783 431.209,75.745 432,74.5C 432.824,83.3433 432.657,92.0099 431.5,100.5 Z"/></g>
<g><path style="opacity:1" fill="#898888" d="M 444.5,65.5 C 441.375,66.4794 438.042,66.8128 434.5,66.5C 434.5,76.5 434.5,86.5 434.5,96.5C 433.506,86.3468 433.172,76.0135 433.5,65.5C 437.167,65.5 440.833,65.5 444.5,65.5 Z"/></g>
<g><path style="opacity:1" fill="#4a4949" d="M 84.5,99.5 C 75.1765,96.3179 66.1765,96.9845 57.5,101.5C 59.6489,99.2542 62.3156,97.7542 65.5,97C 70.1667,96.3333 74.8333,96.3333 79.5,97C 81.4913,97.3736 83.158,98.207 84.5,99.5 Z"/></g>
<g><path style="opacity:1" fill="#454545" d="M 84.5,99.5 C 86.9366,99.886 88.9366,101.053 90.5,103C 89.8333,103.667 89.1667,103.667 88.5,103C 86.9069,102.051 85.5736,100.885 84.5,99.5 Z"/></g>
<g><path style="opacity:1" fill="#fafafa" d="M 430.5,78.5 C 431.492,85.6476 431.825,92.9809 431.5,100.5C 432.141,115.909 431.474,131.076 429.5,146C 430.094,146.464 430.761,146.631 431.5,146.5C 431.825,154.019 431.492,161.352 430.5,168.5C 429.922,163.835 428.589,159.501 426.5,155.5C 426.5,134.5 426.5,113.5 426.5,92.5C 427.998,87.9914 429.331,83.3247 430.5,78.5 Z"/></g>
<g><path style="opacity:1" fill="#111111" d="M 426.5,92.5 C 426.5,113.5 426.5,134.5 426.5,155.5C 426.672,156.492 426.338,157.158 425.5,157.5C 424.545,136.193 424.212,114.86 424.5,93.5C 425.167,93.1667 425.833,92.8333 426.5,92.5 Z"/></g>
<g><path style="opacity:1" fill="#121111" d="M 488.5,96.5 C 488.833,96.5 489.167,96.5 489.5,96.5C 490.833,114.5 490.833,132.5 489.5,150.5C 489.167,150.5 488.833,150.5 488.5,150.5C 488.5,149.833 488.5,149.167 488.5,148.5C 489.824,131.931 489.824,115.265 488.5,98.5C 487.494,97.6043 487.494,96.9377 488.5,96.5 Z"/></g>
<g><path style="opacity:1" fill="#4f4f4e" d="M 96.5,111.5 C 95.1154,110.426 93.9487,109.093 93,107.5C 92.3333,106.833 92.3333,106.167 93,105.5C 94.9473,107.063 96.114,109.063 96.5,111.5 Z"/></g>
<g><path style="opacity:1" fill="#4b4b4a" d="M 57.5,101.5 C 49.0003,108.843 45.167,118.176 46,129.5C 44.5007,121.627 45.8341,114.294 50,107.5C 52.1057,104.882 54.6057,102.882 57.5,101.5 Z"/></g>
<g><path style="opacity:1" fill="#646361" d="M 96.5,111.5 C 97.9663,112.347 98.7996,113.68 99,115.5C 101.426,121.885 100.926,127.885 97.5,133.5C 99.0054,126.074 98.6721,118.74 96.5,111.5 Z"/></g>
<g><path style="opacity:1" fill="#515051" d="M 488.5,98.5 C 489.824,115.265 489.824,131.931 488.5,148.5C 488.448,131.611 488.448,114.944 488.5,98.5 Z"/></g>
<g><path style="opacity:1" fill="#4d4d4b" d="M 97.5,133.5 C 97.4452,136.614 96.1119,138.948 93.5,140.5C 94.5839,137.996 95.9172,135.663 97.5,133.5 Z"/></g>
<g><path style="opacity:1" fill="#bab9b9" d="M 89.5,140.5 C 90.7054,141.686 92.0387,141.686 93.5,140.5C 91.7609,143.41 89.4276,145.91 86.5,148C 85.2068,148.49 83.8734,148.657 82.5,148.5C 83.6602,147.735 84.6602,146.735 85.5,145.5C 85.0431,144.702 84.3764,144.369 83.5,144.5C 85.2048,142.808 87.2048,141.475 89.5,140.5 Z"/></g>
<g><path style="opacity:1" fill="#242423" d="M 89.5,140.5 C 87.2048,141.475 85.2048,142.808 83.5,144.5C 67.6152,149.973 56.4485,144.973 50,129.5C 47.9224,115.584 53.4224,106.084 66.5,101C 87.5127,99.6796 97.0127,109.513 95,130.5C 93.4082,134.021 91.5749,137.354 89.5,140.5 Z"/></g>
<g><path style="opacity:1" fill="#fbfbfb" d="M 66.5,102.5 C 87.4219,102.031 95.9219,112.031 92,132.5C 86.3434,142.287 77.8434,146.12 66.5,144C 51.7608,137.022 47.9274,126.189 55,111.5C 58.1607,107.491 61.994,104.491 66.5,102.5 Z"/></g>
<g><path style="opacity:1" fill="#545352" d="M 82.5,148.5 C 79.4872,150.753 76.1539,151.42 72.5,150.5C 75.7527,149.402 79.0861,148.736 82.5,148.5 Z"/></g>
<g><path style="opacity:1" fill="#858484" d="M 431.5,146.5 C 432.657,154.99 432.824,163.657 432,172.5C 431.209,171.255 430.709,169.922 430.5,168.5C 431.492,161.352 431.825,154.019 431.5,146.5 Z"/></g>
<g><path style="opacity:1" fill="#fdfdfd" d="M 47.5,221.5 C 46.8556,209.784 47.5223,198.451 49.5,187.5C 65.5999,193.088 81.5999,192.754 97.5,186.5C 98.6659,198.152 98.8325,209.819 98,221.5C 93.1958,238.333 82.0291,245.167 64.5,242C 55.317,237.992 49.6504,231.159 47.5,221.5 Z"/></g>
<g><path style="opacity:1" fill="#868382" d="M 49.5,187.5 C 47.5223,198.451 46.8556,209.784 47.5,221.5C 46.5051,210.012 46.1717,198.345 46.5,186.5C 47.791,186.263 48.791,186.596 49.5,187.5 Z"/></g>
<g><path style="opacity:1" fill="#272626" d="M 394.5,240.5 C 394.5,240.833 394.5,241.167 394.5,241.5C 392.254,242.455 389.921,243.122 387.5,243.5C 378.524,244.308 369.524,244.642 360.5,244.5C 304.799,237.96 268.633,207.96 252,154.5C 251.333,151.5 251.333,148.5 252,145.5C 263.766,196.932 295.266,228.765 346.5,241C 362.547,243.165 378.547,242.998 394.5,240.5 Z"/></g>
<g><path style="opacity:1" fill="#727272" d="M 410.5,235.5 C 410.5,236.167 410.833,236.5 411.5,236.5C 408.83,237.248 406.163,238.248 403.5,239.5C 403.5,238.833 403.167,238.5 402.5,238.5C 404.979,237.205 407.646,236.205 410.5,235.5 Z"/></g>
<g><path style="opacity:1" fill="#202020" d="M 402.5,238.5 C 403.167,238.5 403.5,238.833 403.5,239.5C 402.609,240.11 401.609,240.443 400.5,240.5C 398.901,240.768 397.568,240.434 396.5,239.5C 398.5,239.167 400.5,238.833 402.5,238.5 Z"/></g>
<g><path style="opacity:1" fill="#939393" d="M 396.5,239.5 C 397.568,240.434 398.901,240.768 400.5,240.5C 398.735,241.461 396.735,241.795 394.5,241.5C 394.5,241.167 394.5,240.833 394.5,240.5C 394.842,239.662 395.508,239.328 396.5,239.5 Z"/></g>
<g><path style="opacity:1" fill="#919091" d="M 387.5,243.5 C 386.737,244.268 385.737,244.768 384.5,245C 376.323,245.823 368.323,245.656 360.5,244.5C 369.524,244.642 378.524,244.308 387.5,243.5 Z"/></g>
</svg>
