<?xml version="1.0" encoding="UTF-8"?>
<!DOCTYPE svg PUBLIC "-//W3C//DTD SVG 1.1//EN" "http://www.w3.org/Graphics/SVG/1.1/DTD/svg11.dtd">
<svg xmlns="http://www.w3.org/2000/svg" version="1.1" width="222px" height="407px" style="shape-rendering:geometricPrecision; text-rendering:geometricPrecision; image-rendering:optimizeQuality; fill-rule:evenodd; clip-rule:evenodd" xmlns:xlink="http://www.w3.org/1999/xlink">
<g><path style="opacity:1" fill="#fefefe" d="M -0.5,-0.5 C 73.5,-0.5 147.5,-0.5 221.5,-0.5C 221.5,135.167 221.5,270.833 221.5,406.5C 147.5,406.5 73.5,406.5 -0.5,406.5C -0.5,270.833 -0.5,135.167 -0.5,-0.5 Z"/></g>
<g><path style="opacity:1" fill="#b7b7b7" d="M 93.5,11.5 C 104.993,10.3405 116.659,10.1739 128.5,11C 132.133,11.1489 135.466,11.9823 138.5,13.5C 123.57,11.7174 108.57,11.0508 93.5,11.5 Z"/></g>
<g><path style="opacity:1" fill="#3c3c3c" d="M 93.5,11.5 C 108.57,11.0508 123.57,11.7174 138.5,13.5C 143.074,14.8092 147.74,15.8092 152.5,16.5C 156.94,18.5376 161.607,20.2042 166.5,21.5C 181.163,27.4892 194.496,35.4892 206.5,45.5C 174.713,46.8261 142.713,47.4928 110.5,47.5C 77.382,47.1514 44.382,47.1514 11.5,47.5C 27.0717,32.7062 45.405,22.5395 66.5,17C 75.4316,14.7343 84.4316,12.901 93.5,11.5 Z"/></g>
<g><path style="opacity:1" fill="#fbfbfb" d="M 92.5,13.5 C 134.188,10.1267 171.521,20.96 204.5,46C 141.833,46.6667 79.1667,46.6667 16.5,46C 38.7423,28.0812 64.0757,17.2479 92.5,13.5 Z"/></g>
<g><path style="opacity:1" fill="#a1a1a1" d="M 152.5,16.5 C 157.703,17.0094 162.37,18.6761 166.5,21.5C 161.607,20.2042 156.94,18.5376 152.5,16.5 Z"/></g>
<g><path style="opacity:1" fill="#292929" d="M 206.5,45.5 C 207.15,45.8039 207.817,46.1373 208.5,46.5C 209.491,50.4454 209.824,54.4454 209.5,58.5C 208.508,58.6716 207.842,58.3382 207.5,57.5C 207.5,54.8333 207.5,52.1667 207.5,49.5C 142.833,49.5 78.1667,49.5 13.5,49.5C 13.5,52.1667 13.5,54.8333 13.5,57.5C 13.1583,58.3382 12.4916,58.6716 11.5,58.5C 11.5,54.8333 11.5,51.1667 11.5,47.5C 44.382,47.1514 77.382,47.1514 110.5,47.5C 142.713,47.4928 174.713,46.8261 206.5,45.5 Z"/></g>
<g><path style="opacity:1" fill="#f2f2f2" d="M 207.5,57.5 C 142.833,57.5 78.1667,57.5 13.5,57.5C 13.5,54.8333 13.5,52.1667 13.5,49.5C 78.1667,49.5 142.833,49.5 207.5,49.5C 207.5,52.1667 207.5,54.8333 207.5,57.5 Z"/></g>
<g><path style="opacity:1" fill="#343434" d="M 13.5,57.5 C 78.1667,57.5 142.833,57.5 207.5,57.5C 207.842,58.3382 208.508,58.6716 209.5,58.5C 191.671,59.3317 173.671,59.8317 155.5,60C 155,60.5 154.5,61 154,61.5C 153.832,78.6716 153.332,95.6716 152.5,112.5C 152.672,111.508 152.338,110.842 151.5,110.5C 151.5,93.5 151.5,76.5 151.5,59.5C 123.995,59.1688 96.6616,59.5021 69.5,60.5C 69.5,60.8333 69.5,61.1667 69.5,61.5C 69.5,77.8333 69.5,94.1667 69.5,110.5C 68.6618,110.842 68.3284,111.508 68.5,112.5C 68.1667,112.5 67.8333,112.5 67.5,112.5C 67.6666,95.4967 67.4999,78.4967 67,61.5C 66.5,61 66,60.5 65.5,60C 47.3287,59.8317 29.3287,59.3317 11.5,58.5C 12.4916,58.6716 13.1583,58.3382 13.5,57.5 Z"/></g>
<g><path style="opacity:1" fill="#fefefe" d="M 69.5,61.5 C 69.5,61.1667 69.5,60.8333 69.5,60.5C 96.5,60.5 123.5,60.5 150.5,60.5C 150.5,76.8333 150.5,93.1667 150.5,109.5C 123.833,109.5 97.1667,109.5 70.5,109.5C 70.8297,93.3246 70.4964,77.3246 69.5,61.5 Z"/></g>
<g><path style="opacity:1" fill="#d1d1d1" d="M 69.5,60.5 C 96.6616,59.5021 123.995,59.1688 151.5,59.5C 151.5,76.5 151.5,93.5 151.5,110.5C 124.167,110.5 96.8333,110.5 69.5,110.5C 69.5,94.1667 69.5,77.8333 69.5,61.5C 70.4964,77.3246 70.8297,93.3246 70.5,109.5C 97.1667,109.5 123.833,109.5 150.5,109.5C 150.5,93.1667 150.5,76.8333 150.5,60.5C 123.5,60.5 96.5,60.5 69.5,60.5 Z"/></g>
<g><path style="opacity:1" fill="#dcdcdc" d="M 67.5,112.5 C 67.8333,112.5 68.1667,112.5 68.5,112.5C 70.5,112.5 72.5,112.5 74.5,112.5C 74.5,205.167 74.5,297.833 74.5,390.5C 73.5006,298.335 73.1673,206.002 73.5,113.5C 71.2646,113.795 69.2646,113.461 67.5,112.5 Z"/></g>
<g><path style="opacity:1" fill="#e2e2e2" d="M 152.5,112.5 C 151.081,113.451 149.415,113.784 147.5,113.5C 147.833,206.002 147.499,298.335 146.5,390.5C 146.5,297.833 146.5,205.167 146.5,112.5C 148.5,112.5 150.5,112.5 152.5,112.5 Z"/></g>
<g><path style="opacity:1" fill="#262626" d="M 69.5,110.5 C 96.8333,110.5 124.167,110.5 151.5,110.5C 152.338,110.842 152.672,111.508 152.5,112.5C 150.5,112.5 148.5,112.5 146.5,112.5C 146.5,205.167 146.5,297.833 146.5,390.5C 143.911,391.419 141.911,393.086 140.5,395.5C 139.833,395.833 139.167,396.167 138.5,396.5C 137.833,394.5 137.167,392.5 136.5,390.5C 136.5,389.833 136.5,389.167 136.5,388.5C 137.833,321.833 137.833,255.167 136.5,188.5C 137.167,187.167 137.833,187.167 138.5,188.5C 138.5,255.167 138.5,321.833 138.5,388.5C 140.5,388.5 142.5,388.5 144.5,388.5C 144.5,321.833 144.5,255.167 144.5,188.5C 144.831,162.995 144.498,137.661 143.5,112.5C 121.5,112.5 99.5,112.5 77.5,112.5C 76.1667,137.167 76.1667,161.833 77.5,186.5C 77.5,187.167 77.5,187.833 77.5,188.5C 76.5008,254.998 76.1675,321.665 76.5,388.5C 78.5,388.5 80.5,388.5 82.5,388.5C 82.8325,321.665 82.4992,254.998 81.5,188.5C 82.5,187.167 83.5,187.167 84.5,188.5C 83.1667,255.167 83.1667,321.833 84.5,388.5C 84.5,389.167 84.5,389.833 84.5,390.5C 84.0603,392.844 83.0603,394.844 81.5,396.5C 81.1667,395.5 80.5,394.833 79.5,394.5C 78.4154,392.413 76.7488,391.08 74.5,390.5C 74.5,297.833 74.5,205.167 74.5,112.5C 72.5,112.5 70.5,112.5 68.5,112.5C 68.3284,111.508 68.6618,110.842 69.5,110.5 Z"/></g>
<g><path style="opacity:1" fill="#7d7d7d" d="M 77.5,188.5 C 78.8333,188.5 80.1667,188.5 81.5,188.5C 82.4992,254.998 82.8325,321.665 82.5,388.5C 80.5,388.5 78.5,388.5 76.5,388.5C 76.1675,321.665 76.5008,254.998 77.5,188.5 Z"/></g>
<g><path style="opacity:1" fill="#838383" d="M 138.5,188.5 C 140.5,188.5 142.5,188.5 144.5,188.5C 144.5,255.167 144.5,321.833 144.5,388.5C 142.5,388.5 140.5,388.5 138.5,388.5C 138.5,321.833 138.5,255.167 138.5,188.5 Z"/></g>
<g><path style="opacity:1" fill="#fafafa" d="M 139.5,189.5 C 140.833,189.5 142.167,189.5 143.5,189.5C 143.5,255.5 143.5,321.5 143.5,387.5C 142.167,387.5 140.833,387.5 139.5,387.5C 139.5,321.5 139.5,255.5 139.5,189.5 Z"/></g>
<g><path style="opacity:1" fill="#fafafa" d="M 77.5,189.5 C 78.8333,189.5 80.1667,189.5 81.5,189.5C 81.5,255.5 81.5,321.5 81.5,387.5C 80.1667,387.5 78.8333,387.5 77.5,387.5C 77.5,321.5 77.5,255.5 77.5,189.5 Z"/></g>
<g><path style="opacity:1" fill="#4a4a4a" d="M 143.5,112.5 C 144.498,137.661 144.831,162.995 144.5,188.5C 142.5,188.5 140.5,188.5 138.5,188.5C 137.833,187.167 137.167,187.167 136.5,188.5C 119.167,188.5 101.833,188.5 84.5,188.5C 83.5,187.167 82.5,187.167 81.5,188.5C 80.1667,188.5 78.8333,188.5 77.5,188.5C 77.5,187.833 77.5,187.167 77.5,186.5C 99.673,186.831 121.673,186.497 143.5,185.5C 143.5,161.167 143.5,136.833 143.5,112.5 Z"/></g>
<g><path style="opacity:1" fill="#acacac" d="M 77.5,112.5 C 77.5,136.833 77.5,161.167 77.5,185.5C 99.5,185.5 121.5,185.5 143.5,185.5C 121.673,186.497 99.673,186.831 77.5,186.5C 76.1667,161.833 76.1667,137.167 77.5,112.5 Z"/></g>
<g><path style="opacity:1" fill="#fefefe" d="M 77.5,112.5 C 99.5,112.5 121.5,112.5 143.5,112.5C 143.5,136.833 143.5,161.167 143.5,185.5C 121.5,185.5 99.5,185.5 77.5,185.5C 77.5,161.167 77.5,136.833 77.5,112.5 Z"/></g>
<g><path style="opacity:1" fill="#737373" d="M 84.5,188.5 C 101.833,188.5 119.167,188.5 136.5,188.5C 137.833,255.167 137.833,321.833 136.5,388.5C 119.167,388.5 101.833,388.5 84.5,388.5C 83.1667,321.833 83.1667,255.167 84.5,188.5 Z"/></g>
<g><path style="opacity:1" fill="#fefefe" d="M 84.5,189.5 C 101.833,189.5 119.167,189.5 136.5,189.5C 136.5,255.5 136.5,321.5 136.5,387.5C 119.167,387.5 101.833,387.5 84.5,387.5C 84.5,321.5 84.5,255.5 84.5,189.5 Z"/></g>
<g><path style="opacity:1" fill="#2b2b2b" d="M 84.5,388.5 C 101.833,388.5 119.167,388.5 136.5,388.5C 136.5,389.167 136.5,389.833 136.5,390.5C 119.167,390.5 101.833,390.5 84.5,390.5C 84.5,389.833 84.5,389.167 84.5,388.5 Z"/></g>
<g><path style="opacity:1" fill="#828282" d="M 79.5,390.5 C 80.5,390.5 81.5,390.5 82.5,390.5C 81.7542,394.31 80.7542,394.31 79.5,390.5 Z"/></g>
<g><path style="opacity:1" fill="#848484" d="M 138.5,390.5 C 141.957,390.667 142.29,391.667 139.5,393.5C 138.614,392.675 138.281,391.675 138.5,390.5 Z"/></g>
<g><path style="opacity:1" fill="#2d2d2d" d="M 84.5,390.5 C 84.5,392.167 84.5,393.833 84.5,395.5C 101.833,395.5 119.167,395.5 136.5,395.5C 136.5,393.833 136.5,392.167 136.5,390.5C 137.167,392.5 137.833,394.5 138.5,396.5C 119.5,397.833 100.5,397.833 81.5,396.5C 83.0603,394.844 84.0603,392.844 84.5,390.5 Z"/></g>
<g><path style="opacity:1" fill="#eaeaea" d="M 84.5,390.5 C 101.833,390.5 119.167,390.5 136.5,390.5C 136.5,392.167 136.5,393.833 136.5,395.5C 119.167,395.5 101.833,395.5 84.5,395.5C 84.5,393.833 84.5,392.167 84.5,390.5 Z"/></g>
<g><path style="opacity:1" fill="#c4c4c4" d="M 79.5,394.5 C 80.5,394.833 81.1667,395.5 81.5,396.5C 100.5,397.833 119.5,397.833 138.5,396.5C 139.167,396.167 139.833,395.833 140.5,395.5C 140.5,396.5 140.5,397.5 140.5,398.5C 120.591,398.174 100.757,398.507 81,399.5C 80.3923,397.846 79.8923,396.179 79.5,394.5 Z"/></g>
</svg>
