<?xml version="1.0" encoding="UTF-8"?>
<!DOCTYPE svg PUBLIC "-//W3C//DTD SVG 1.1//EN" "http://www.w3.org/Graphics/SVG/1.1/DTD/svg11.dtd">
<svg xmlns="http://www.w3.org/2000/svg" version="1.1" width="745px" height="228px" style="shape-rendering:geometricPrecision; text-rendering:geometricPrecision; image-rendering:optimizeQuality; fill-rule:evenodd; clip-rule:evenodd" xmlns:xlink="http://www.w3.org/1999/xlink">
<g><path style="opacity:1" fill="#fefefe" d="M -0.5,-0.5 C 247.833,-0.5 496.167,-0.5 744.5,-0.5C 744.5,75.5 744.5,151.5 744.5,227.5C 496.167,227.5 247.833,227.5 -0.5,227.5C -0.5,151.5 -0.5,75.5 -0.5,-0.5 Z"/></g>
<g><path style="opacity:1" fill="#fcfcfc" d="M 85.5,212.5 C 83.9724,211.691 82.3057,211.024 80.5,210.5C 43.3267,197.156 20.4934,171.156 12,132.5C 5.75008,80.4548 25.9168,42.6214 72.5,19C 122.064,1.71343 163.564,13.2134 197,53.5C 216.173,81.8749 220.839,112.542 211,145.5C 191.876,193.651 156.376,217.151 104.5,216C 98.0628,215.306 91.7295,214.14 85.5,212.5 Z"/></g>
<g><path style="opacity:1" fill="#353535" d="M 379.5,64.5 C 378.833,48.1667 378.167,31.8333 377.5,15.5C 377.5,13.8333 377.5,12.1667 377.5,10.5C 374.167,10.5 370.833,10.5 367.5,10.5C 367.5,14.5 367.5,18.5 367.5,22.5C 367.167,22.5 366.833,22.5 366.5,22.5C 366.838,18.7043 366.505,15.7043 365.5,13.5C 336.603,49.3965 325.27,90.3965 331.5,136.5C 331.672,137.492 331.338,138.158 330.5,138.5C 330.167,137.167 329.833,135.833 329.5,134.5C 329.54,131.119 329.207,127.786 328.5,124.5C 325.402,80.6911 338.069,42.1911 366.5,9C 370.755,8.20385 374.921,8.37052 379,9.5C 379.5,27.8303 379.667,46.1636 379.5,64.5 Z"/></g>
<g><path style="opacity:1" fill="#fdfdfc" d="M 365.5,13.5 C 365.832,80.0021 365.499,146.335 364.5,212.5C 349.717,194.265 339.717,173.598 334.5,150.5C 333.701,145.675 332.701,141.008 331.5,136.5C 325.27,90.3965 336.603,49.3965 365.5,13.5 Z"/></g>
<g><path style="opacity:1" fill="#272727" d="M 85.5,213.5 C 85.5,213.167 85.5,212.833 85.5,212.5C 91.7295,214.14 98.0628,215.306 104.5,216C 156.376,217.151 191.876,193.651 211,145.5C 220.839,112.542 216.173,81.8749 197,53.5C 163.564,13.2134 122.064,1.71343 72.5,19C 25.9168,42.6214 5.75008,80.4548 12,132.5C 20.4934,171.156 43.3267,197.156 80.5,210.5C 79.791,211.404 78.791,211.737 77.5,211.5C 46.5209,200.021 25.3543,178.687 14,147.5C 0.945725,103.342 11.1124,65.5089 44.5,34C 73.2781,11.5465 103.611,3.8798 135.5,11C 172.154,20.32 197.654,42.4867 212,77.5C 225.573,123.495 214.739,162.661 179.5,195C 151.073,216.519 119.739,222.686 85.5,213.5 Z"/></g>
<g><path style="opacity:1" fill="#858584" d="M 366.5,22.5 C 366.5,86.1667 366.5,149.833 366.5,213.5C 365.508,213.672 364.842,213.338 364.5,212.5C 365.499,146.335 365.832,80.0021 365.5,13.5C 366.505,15.7043 366.838,18.7043 366.5,22.5 Z"/></g>
<g><path style="opacity:1" fill="#f4f4f4" d="M 156.5,148.5 C 155.508,150.456 154.508,152.456 153.5,154.5C 151.407,155.045 149.407,155.878 147.5,157C 123.437,157.97 99.4369,157.637 75.5,156C 72.8941,154.062 71.0608,151.562 70,148.5C 69.1769,124.457 69.3436,100.457 70.5,76.5C 72.5198,72.9808 75.5198,70.8141 79.5,70C 101.833,69.3333 124.167,69.3333 146.5,70C 150.617,70.8064 153.784,72.973 156,76.5C 156.5,100.498 156.667,124.498 156.5,148.5 Z"/></g>
<g><path style="opacity:1" fill="#858583" d="M 377.5,15.5 C 377.832,82.6687 377.499,149.669 376.5,216.5C 376.5,148.167 376.5,79.8333 376.5,11.5C 373.833,11.5 371.167,11.5 368.5,11.5C 368.5,79.8333 368.5,148.167 368.5,216.5C 367.501,152.002 367.168,87.3355 367.5,22.5C 367.5,18.5 367.5,14.5 367.5,10.5C 370.833,10.5 374.167,10.5 377.5,10.5C 377.5,12.1667 377.5,13.8333 377.5,15.5 Z"/></g>
<g><path style="opacity:1" fill="#fefefc" d="M 376.5,216.5 C 373.833,216.5 371.167,216.5 368.5,216.5C 368.5,148.167 368.5,79.8333 368.5,11.5C 371.167,11.5 373.833,11.5 376.5,11.5C 376.5,79.8333 376.5,148.167 376.5,216.5 Z"/></g>
<g><path style="opacity:1" fill="#1b1a1a" d="M 377.5,15.5 C 378.167,31.8333 378.833,48.1667 379.5,64.5C 379.511,66.0174 380.177,67.1841 381.5,68C 399.497,68.4999 417.497,68.6666 435.5,68.5C 435.5,70.8333 435.5,73.1667 435.5,75.5C 533.501,75.3333 631.501,75.5 729.5,76C 731.373,77.7038 733.04,79.5372 734.5,81.5C 734.672,82.4916 734.338,83.1583 733.5,83.5C 730.975,78.8046 729.642,78.8046 729.5,83.5C 729.5,84.1667 729.5,84.8333 729.5,85.5C 729.5,104.167 729.5,122.833 729.5,141.5C 729.5,142.167 729.5,142.833 729.5,143.5C 729.642,148.195 730.975,148.195 733.5,143.5C 734.5,143.167 735.167,142.5 735.5,141.5C 735.5,122.833 735.5,104.167 735.5,85.5C 735.328,84.5084 735.662,83.8417 736.5,83.5C 737.662,103.329 737.829,123.329 737,143.5C 736.667,144.833 736.333,146.167 736,147.5C 735.667,146.833 735.333,146.167 735,145.5C 732.768,146.843 730.934,148.51 729.5,150.5C 631.332,150.167 533.332,150.501 435.5,151.5C 435.5,153.833 435.5,156.167 435.5,158.5C 417.326,158.17 399.326,158.503 381.5,159.5C 380.5,159.833 379.833,160.5 379.5,161.5C 378.503,179.993 378.17,198.659 378.5,217.5C 374.5,217.5 370.5,217.5 366.5,217.5C 365.833,217.5 365.5,217.167 365.5,216.5C 366.11,215.609 366.443,214.609 366.5,213.5C 366.5,149.833 366.5,86.1667 366.5,22.5C 366.833,22.5 367.167,22.5 367.5,22.5C 367.168,87.3355 367.501,152.002 368.5,216.5C 371.167,216.5 373.833,216.5 376.5,216.5C 377.499,149.669 377.832,82.6687 377.5,15.5 Z"/></g>
<g><path style="opacity:1" fill="#838381" d="M 380.5,69.5 C 379.167,98.8333 379.167,128.167 380.5,157.5C 380.44,158.043 380.107,158.376 379.5,158.5C 378.167,128.5 378.167,98.5 379.5,68.5C 380.107,68.6236 380.44,68.9569 380.5,69.5 Z"/></g>
<g><path style="opacity:1" fill="#fcfcfb" d="M 380.5,69.5 C 398.167,69.5 415.833,69.5 433.5,69.5C 433.5,98.8333 433.5,128.167 433.5,157.5C 415.833,157.5 398.167,157.5 380.5,157.5C 379.167,128.167 379.167,98.8333 380.5,69.5 Z"/></g>
<g><path style="opacity:1" fill="#fdfdfd" d="M 513.5,77.5 C 513.5,101.167 513.5,124.833 513.5,148.5C 487.5,148.5 461.5,148.5 435.5,148.5C 435.5,124.833 435.5,101.167 435.5,77.5C 461.5,77.5 487.5,77.5 513.5,77.5 Z"/></g>
<g><path style="opacity:1" fill="#f5f4f5" d="M 516.5,77.5 C 586.833,77.5 657.167,77.5 727.5,77.5C 727.5,79.5 727.5,81.5 727.5,83.5C 657.167,83.5 586.833,83.5 516.5,83.5C 516.5,81.5 516.5,79.5 516.5,77.5 Z"/></g>
<g><path style="opacity:1" fill="#e0e0de" d="M 733.5,83.5 C 732.167,83.5 730.833,83.5 729.5,83.5C 729.642,78.8046 730.975,78.8046 733.5,83.5 Z"/></g>
<g><path style="opacity:1" fill="#515151" d="M 68.5,77.5 C 68.1856,102.545 68.5189,127.545 69.5,152.5C 68.8826,152.611 68.3826,152.944 68,153.5C 67.17,127.997 67.3366,102.663 68.5,77.5 Z"/></g>
<g><path style="opacity:1" fill="#656464" d="M 516.5,77.5 C 516.5,79.5 516.5,81.5 516.5,83.5C 586.833,83.5 657.167,83.5 727.5,83.5C 727.5,84.1667 727.5,84.8333 727.5,85.5C 657.167,85.5 586.833,85.5 516.5,85.5C 516.5,104.167 516.5,122.833 516.5,141.5C 516.167,141.5 515.833,141.5 515.5,141.5C 515.169,119.993 515.503,98.6601 516.5,77.5 Z"/></g>
<g><path style="opacity:1" fill="#555452" d="M 734.5,81.5 C 735.5,81.8333 736.167,82.5 736.5,83.5C 735.662,83.8417 735.328,84.5084 735.5,85.5C 733.5,85.5 731.5,85.5 729.5,85.5C 729.5,84.8333 729.5,84.1667 729.5,83.5C 730.833,83.5 732.167,83.5 733.5,83.5C 734.338,83.1583 734.672,82.4916 734.5,81.5 Z"/></g>
<g><path style="opacity:1" fill="#fefefe" d="M 727.5,85.5 C 727.5,104.167 727.5,122.833 727.5,141.5C 657.167,141.5 586.833,141.5 516.5,141.5C 516.5,122.833 516.5,104.167 516.5,85.5C 586.833,85.5 657.167,85.5 727.5,85.5 Z"/></g>
<g><path style="opacity:1" fill="#f5f4f4" d="M 729.5,85.5 C 731.5,85.5 733.5,85.5 735.5,85.5C 735.5,104.167 735.5,122.833 735.5,141.5C 733.5,141.5 731.5,141.5 729.5,141.5C 729.5,122.833 729.5,104.167 729.5,85.5 Z"/></g>
<g><path style="opacity:1" fill="#1b1b1b" d="M 157.5,150.5 C 156.662,150.158 156.328,149.492 156.5,148.5C 156.667,124.498 156.5,100.498 156,76.5C 153.784,72.973 150.617,70.8064 146.5,70C 124.167,69.3333 101.833,69.3333 79.5,70C 75.5198,70.8141 72.5198,72.9808 70.5,76.5C 69.3436,100.457 69.1769,124.457 70,148.5C 71.0608,151.562 72.8941,154.062 75.5,156C 99.4369,157.637 123.437,157.97 147.5,157C 149.407,155.878 151.407,155.045 153.5,154.5C 153.5,154.833 153.5,155.167 153.5,155.5C 152.653,156.966 151.32,157.8 149.5,158C 124.833,158.667 100.167,158.667 75.5,158C 73.0038,156.669 71.0038,154.836 69.5,152.5C 68.5189,127.545 68.1856,102.545 68.5,77.5C 69.5237,73.6381 71.8571,70.8048 75.5,69C 100.167,68.3333 124.833,68.3333 149.5,69C 153.573,70.0721 156.407,72.5721 158,76.5C 158.176,100.876 158.676,125.209 159.5,149.5C 159.043,150.298 158.376,150.631 157.5,150.5 Z"/></g>
<g><path style="opacity:1" fill="#242424" d="M 104.5,76.5 C 134.829,74.999 149.995,89.3324 150,119.5C 145.277,139.533 132.61,149.866 112,150.5C 94.1524,148.994 82.4858,139.661 77,122.5C 73.9417,99.7493 83.1084,84.416 104.5,76.5 Z"/></g>
<g><path style="opacity:1" fill="#2d2d2d" d="M 93.5,138.5 C 92.5423,137.038 91.3756,135.705 90,134.5C 89.3123,133.668 89.479,133.002 90.5,132.5C 98.9039,141.577 109.237,144.743 121.5,142C 138.58,136.239 145.747,124.406 143,106.5C 135.26,88.138 121.76,81.638 102.5,87C 94.73,89.7705 89.23,94.9372 86,102.5C 85.3292,103.252 84.4959,103.586 83.5,103.5C 90.9606,88.0499 103.294,81.5499 120.5,84C 139.452,89.3108 147.619,101.811 145,121.5C 138.125,139.695 124.959,147.195 105.5,144C 101.354,142.426 97.3544,140.593 93.5,138.5 Z"/></g>
<g><path style="opacity:1" fill="#fcfcfc" d="M 93.5,138.5 C 93.1667,139.5 92.5,140.167 91.5,140.5C 79.9737,130.765 75.9737,118.431 79.5,103.5C 80.7024,102.595 82.0357,102.595 83.5,103.5C 84.4959,103.586 85.3292,103.252 86,102.5C 89.23,94.9372 94.73,89.7705 102.5,87C 121.76,81.638 135.26,88.138 143,106.5C 145.747,124.406 138.58,136.239 121.5,142C 109.237,144.743 98.9039,141.577 90.5,132.5C 89.479,133.002 89.3123,133.668 90,134.5C 91.3756,135.705 92.5423,137.038 93.5,138.5 Z"/></g>
<g><path style="opacity:1" fill="#7c7c7c" d="M 328.5,124.5 C 329.207,127.786 329.54,131.119 329.5,134.5C 328.105,136.054 327.439,135.721 327.5,133.5C 327.944,130.362 328.277,127.362 328.5,124.5 Z"/></g>
<g><path style="opacity:1" fill="#e9e9e9" d="M 91.5,140.5 C 92.5,140.167 93.1667,139.5 93.5,138.5C 97.3544,140.593 101.354,142.426 105.5,144C 124.959,147.195 138.125,139.695 145,121.5C 147.619,101.811 139.452,89.3108 120.5,84C 103.294,81.5499 90.9606,88.0499 83.5,103.5C 82.0357,102.595 80.7024,102.595 79.5,103.5C 87.7605,83.0345 102.761,75.2011 124.5,80C 144.795,89.4234 151.962,104.923 146,126.5C 136.548,144.807 121.715,151.64 101.5,147C 97.5891,145.556 94.2558,143.389 91.5,140.5 Z"/></g>
<g><path style="opacity:1" fill="#606060" d="M 515.5,141.5 C 515.833,141.5 516.167,141.5 516.5,141.5C 586.833,141.5 657.167,141.5 727.5,141.5C 727.5,142.167 727.5,142.833 727.5,143.5C 657.167,143.5 586.833,143.5 516.5,143.5C 516.5,145.5 516.5,147.5 516.5,149.5C 515.527,147.052 515.194,144.385 515.5,141.5 Z"/></g>
<g><path style="opacity:1" fill="#5e5d5b" d="M 729.5,141.5 C 731.5,141.5 733.5,141.5 735.5,141.5C 735.167,142.5 734.5,143.167 733.5,143.5C 732.167,143.5 730.833,143.5 729.5,143.5C 729.5,142.833 729.5,142.167 729.5,141.5 Z"/></g>
<g><path style="opacity:1" fill="#f4f4f4" d="M 727.5,143.5 C 727.5,145.5 727.5,147.5 727.5,149.5C 657.167,149.5 586.833,149.5 516.5,149.5C 516.5,147.5 516.5,145.5 516.5,143.5C 586.833,143.5 657.167,143.5 727.5,143.5 Z"/></g>
<g><path style="opacity:1" fill="#e1dfe0" d="M 729.5,143.5 C 730.833,143.5 732.167,143.5 733.5,143.5C 730.975,148.195 729.642,148.195 729.5,143.5 Z"/></g>
<g><path style="opacity:1" fill="#aeaeae" d="M 513.5,77.5 C 514.498,101.328 514.831,125.328 514.5,149.5C 487.995,149.831 461.661,149.498 435.5,148.5C 461.5,148.5 487.5,148.5 513.5,148.5C 513.5,124.833 513.5,101.167 513.5,77.5 Z"/></g>
<g><path style="opacity:1" fill="#7e7e7e" d="M 331.5,136.5 C 332.701,141.008 333.701,145.675 334.5,150.5C 333.566,151.568 333.232,152.901 333.5,154.5C 332.763,149.218 331.763,143.885 330.5,138.5C 331.338,138.158 331.672,137.492 331.5,136.5 Z"/></g>
<g><path style="opacity:1" fill="#4e4e4e" d="M 435.5,151.5 C 533.332,150.501 631.332,150.167 729.5,150.5C 658.098,151.168 586.598,151.835 515,152.5C 488.574,151.505 462.074,151.172 435.5,151.5 Z"/></g>
<g><path style="opacity:1" fill="#646464" d="M 156.5,148.5 C 156.328,149.492 156.662,150.158 157.5,150.5C 156.136,152.191 154.803,153.858 153.5,155.5C 153.5,155.167 153.5,154.833 153.5,154.5C 154.508,152.456 155.508,150.456 156.5,148.5 Z"/></g>
<g><path style="opacity:1" fill="#848382" d="M 381.5,159.5 C 399.326,158.503 417.326,158.17 435.5,158.5C 435.378,162.838 435.045,163.172 434.5,159.5C 416.833,159.5 399.167,159.5 381.5,159.5 Z"/></g>
<g><path style="opacity:1" fill="#252424" d="M 334.5,150.5 C 339.717,173.598 349.717,194.265 364.5,212.5C 364.842,213.338 365.508,213.672 366.5,213.5C 366.443,214.609 366.11,215.609 365.5,216.5C 349.586,198.676 338.919,178.009 333.5,154.5C 333.232,152.901 333.566,151.568 334.5,150.5 Z"/></g>
<g><path style="opacity:1" fill="#7e7e7d" d="M 379.5,161.5 C 379.84,183.196 379.506,202.196 378.5,218.5C 374.298,218.817 370.298,218.483 366.5,217.5C 370.5,217.5 374.5,217.5 378.5,217.5C 378.17,198.659 378.503,179.993 379.5,161.5 Z"/></g>
<g><path style="opacity:1" fill="#8b8b8b" d="M 80.5,210.5 C 82.3057,211.024 83.9724,211.691 85.5,212.5C 85.5,212.833 85.5,213.167 85.5,213.5C 82.6697,213.037 80.003,212.371 77.5,211.5C 78.791,211.737 79.791,211.404 80.5,210.5 Z"/></g>
</svg>
