<?xml version="1.0" encoding="UTF-8"?>
<!DOCTYPE svg PUBLIC "-//W3C//DTD SVG 1.1//EN" "http://www.w3.org/Graphics/SVG/1.1/DTD/svg11.dtd">
<svg xmlns="http://www.w3.org/2000/svg" version="1.1" width="157px" height="408px" style="shape-rendering:geometricPrecision; text-rendering:geometricPrecision; image-rendering:optimizeQuality; fill-rule:evenodd; clip-rule:evenodd" xmlns:xlink="http://www.w3.org/1999/xlink">
<g><path style="opacity:1" fill="#fcfcfc" d="M -0.5,-0.5 C 51.8333,-0.5 104.167,-0.5 156.5,-0.5C 156.5,135.5 156.5,271.5 156.5,407.5C 104.167,407.5 51.8333,407.5 -0.5,407.5C -0.5,271.5 -0.5,135.5 -0.5,-0.5 Z"/></g>
<g><path style="opacity:1" fill="#0f0f0f" d="M 45.5,6.5 C 68.5,6.5 91.5,6.5 114.5,6.5C 114.629,8.2161 114.962,9.88277 115.5,11.5C 115.167,11.5 114.833,11.5 114.5,11.5C 113.728,10.3065 112.728,9.30646 111.5,8.5C 102.823,8.00266 94.156,8.00266 85.5,8.5C 78.2454,7.28408 70.912,7.61742 63.5,9.5C 62.8333,8.83333 62.1667,8.16667 61.5,7.5C 56.5,7.5 51.5,7.5 46.5,7.5C 45.8333,7.5 45.5,7.16667 45.5,6.5 Z"/></g>
<g><path style="opacity:1" fill="#f8f8f8" d="M 85.5,8.5 C 89.4309,9.31134 93.4309,10.3113 97.5,11.5C 128.074,24.6443 140.241,47.6443 134,80.5C 127.316,100.35 114.149,113.684 94.5,120.5C 81.9406,123.64 69.6073,122.974 57.5,118.5C 38.0377,109.689 26.3711,94.6891 22.5,73.5C 22.3257,66.4648 22.6591,59.4648 23.5,52.5C 28.9864,31.0139 42.3197,17.0139 63.5,10.5C 70.7549,9.06203 78.0882,8.39536 85.5,8.5 Z"/></g>
<g><path style="opacity:1" fill="#595959" d="M 111.5,8.5 C 106.968,8.18178 102.634,8.51511 98.5,9.5C 96.3023,9.40879 95.9689,10.0755 97.5,11.5C 93.4309,10.3113 89.4309,9.31134 85.5,8.5C 94.156,8.00266 102.823,8.00266 111.5,8.5 Z"/></g>
<g><path style="opacity:1" fill="#dedede" d="M 98.5,9.5 C 102.634,8.51511 106.968,8.18178 111.5,8.5C 112.728,9.30646 113.728,10.3065 114.5,11.5C 116.021,14.466 117.188,17.466 118,20.5C 112.17,15.6678 105.67,12.0011 98.5,9.5 Z"/></g>
<g><path style="opacity:1" fill="#878787" d="M 85.5,8.5 C 78.0882,8.39536 70.7549,9.06203 63.5,10.5C 63.5,10.1667 63.5,9.83333 63.5,9.5C 70.912,7.61742 78.2454,7.28408 85.5,8.5 Z"/></g>
<g><path style="opacity:1" fill="#2d2d2d" d="M 103.5,45.5 C 113.099,61.8548 111.099,76.6882 97.5,90C 77.7399,100.909 62.2399,96.7428 51,77.5C 48.8491,71.6997 48.0157,65.6997 48.5,59.5C 54.7182,38.7979 68.3848,30.9646 89.5,36C 94.5741,38.5754 99.2408,41.7421 103.5,45.5 Z"/></g>
<g><path style="opacity:1" fill="#fbfbfb" d="M 51.5,71.5 C 51.1515,65.0133 51.8182,58.6799 53.5,52.5C 61.3018,38.0267 73.1351,33.36 89,38.5C 107.216,47.8146 111.883,61.8146 103,80.5C 94.2423,92.3082 82.7423,96.1415 68.5,92C 59.317,87.9919 53.6504,81.1586 51.5,71.5 Z"/></g>
<g><path style="opacity:1" fill="#595959" d="M 23.5,52.5 C 22.6591,59.4648 22.3257,66.4648 22.5,73.5C 21.8333,67.8333 21.1667,62.1667 20.5,56.5C 20.7373,55.209 20.404,54.209 19.5,53.5C 19.7828,52.7109 20.2828,52.0442 21,51.5C 21.3333,52.8333 21.6667,54.1667 22,55.5C 22.2321,54.2625 22.7321,53.2625 23.5,52.5 Z"/></g>
<g><path style="opacity:1" fill="#e5e5e5" d="M 19.5,53.5 C 20.404,54.209 20.7373,55.209 20.5,56.5C 19.5147,63.1529 19.348,69.8196 20,76.5C 17.1175,72.4122 15.1175,68.0788 14,63.5C 16.1118,60.2729 17.9451,56.9396 19.5,53.5 Z"/></g>
<g><path style="opacity:1" fill="#bfbfbf" d="M 53.5,52.5 C 51.8182,58.6799 51.1515,65.0133 51.5,71.5C 50.3516,67.0189 50.1849,62.3522 51,57.5C 51.3736,55.5087 52.207,53.842 53.5,52.5 Z"/></g>
<g><path style="opacity:1" fill="#242424" d="M 45.5,6.5 C 45.5,7.16667 45.8333,7.5 46.5,7.5C 46.5,7.83333 46.5,8.16667 46.5,8.5C 43.9415,11.9328 41.6081,15.5995 39.5,19.5C 39.8333,19.8333 40.1667,20.1667 40.5,20.5C 45.7751,15.0284 52.1084,11.3617 59.5,9.5C 60.8333,9.5 61.5,8.83333 61.5,7.5C 62.1667,8.16667 62.8333,8.83333 63.5,9.5C 63.5,9.83333 63.5,10.1667 63.5,10.5C 42.3197,17.0139 28.9864,31.0139 23.5,52.5C 22.7321,53.2625 22.2321,54.2625 22,55.5C 21.6667,54.1667 21.3333,52.8333 21,51.5C 20.2828,52.0442 19.7828,52.7109 19.5,53.5C 17.9451,56.9396 16.1118,60.2729 14,63.5C 15.1175,68.0788 17.1175,72.4122 20,76.5C 19.348,69.8196 19.5147,63.1529 20.5,56.5C 21.1667,62.1667 21.8333,67.8333 22.5,73.5C 26.3711,94.6891 38.0377,109.689 57.5,118.5C 56.5084,118.328 55.8417,118.662 55.5,119.5C 49.1115,117.218 43.6115,113.552 39,108.5C 41.3806,112.936 43.5473,117.602 45.5,122.5C 45.1667,122.5 44.8333,122.5 44.5,122.5C 32.6159,103.906 21.6159,84.739 11.5,65C 21.7247,44.6982 33.058,25.1982 45.5,6.5 Z"/></g>
<g><path style="opacity:1" fill="#e1e1e1" d="M 46.5,8.5 C 51.0323,8.18178 55.3656,8.51511 59.5,9.5C 52.1084,11.3617 45.7751,15.0284 40.5,20.5C 40.1667,20.1667 39.8333,19.8333 39.5,19.5C 41.6081,15.5995 43.9415,11.9328 46.5,8.5 Z"/></g>
<g><path style="opacity:1" fill="#6d6d6d" d="M 46.5,8.5 C 46.5,8.16667 46.5,7.83333 46.5,7.5C 51.5,7.5 56.5,7.5 61.5,7.5C 61.5,8.83333 60.8333,9.5 59.5,9.5C 55.3656,8.51511 51.0323,8.18178 46.5,8.5 Z"/></g>
<g><path style="opacity:1" fill="#202020" d="M 98.5,9.5 C 105.67,12.0011 112.17,15.6678 118,20.5C 117.188,17.466 116.021,14.466 114.5,11.5C 114.833,11.5 115.167,11.5 115.5,11.5C 126.717,28.759 137.05,46.5923 146.5,65C 136.465,84.2406 125.799,103.074 114.5,121.5C 114.062,120.494 113.396,120.494 112.5,121.5C 114.728,117.043 116.895,112.71 119,108.5C 112.639,114.765 105.139,119.098 96.5,121.5C 96.1583,120.662 95.4916,120.328 94.5,120.5C 114.149,113.684 127.316,100.35 134,80.5C 140.241,47.6443 128.074,24.6443 97.5,11.5C 95.9689,10.0755 96.3023,9.40879 98.5,9.5 Z"/></g>
<g><path style="opacity:1" fill="#e7e7e7" d="M 137.5,53.5 C 140.191,57.0359 142.524,60.8692 144.5,65C 142.467,68.8984 140.3,72.7318 138,76.5C 138.781,68.8435 138.614,61.1768 137.5,53.5 Z"/></g>
<g><path style="opacity:1" fill="#282828" d="M 45.5,72.5 C 54.6846,97.4215 71.6846,104.922 96.5,95C 111.065,84.6991 116.232,70.8657 112,53.5C 110.418,49.106 107.918,45.4393 104.5,42.5C 101.55,38.1696 97.5504,35.0029 92.5,33C 87.8272,31.8318 83.1605,30.6651 78.5,29.5C 97.6912,29.5099 109.858,38.8432 115,57.5C 117.436,80.4933 107.602,94.9933 85.5,101C 64.8114,103.576 50.9781,95.0755 44,75.5C 42.5471,71.8542 42.3805,68.1875 43.5,64.5C 44.2604,67.1867 44.9271,69.8534 45.5,72.5 Z"/></g>
<g><path style="opacity:1" fill="#e4e4e4" d="M 104.5,42.5 C 107.918,45.4393 110.418,49.106 112,53.5C 116.232,70.8657 111.065,84.6991 96.5,95C 71.6846,104.922 54.6846,97.4215 45.5,72.5C 47.1349,68.427 48.1349,64.0937 48.5,59.5C 48.0157,65.6997 48.8491,71.6997 51,77.5C 62.2399,96.7428 77.7399,100.909 97.5,90C 111.099,76.6882 113.099,61.8548 103.5,45.5C 104.404,44.791 104.737,43.791 104.5,42.5 Z"/></g>
<g><path style="opacity:1" fill="#e2e2e2" d="M 112.5,121.5 C 107.167,122.833 101.833,122.833 96.5,121.5C 105.139,119.098 112.639,114.765 119,108.5C 116.895,112.71 114.728,117.043 112.5,121.5 Z"/></g>
<g><path style="opacity:1" fill="#e5e5e5" d="M 55.5,119.5 C 57.5115,120.228 59.5115,121.062 61.5,122C 56.1771,122.499 50.8437,122.666 45.5,122.5C 43.5473,117.602 41.3806,112.936 39,108.5C 43.6115,113.552 49.1115,117.218 55.5,119.5 Z"/></g>
<g><path style="opacity:1" fill="#161616" d="M 55.5,119.5 C 55.8417,118.662 56.5084,118.328 57.5,118.5C 69.6073,122.974 81.9406,123.64 94.5,120.5C 95.4916,120.328 96.1583,120.662 96.5,121.5C 101.833,122.833 107.167,122.833 112.5,121.5C 113.396,120.494 114.062,120.494 114.5,121.5C 114.196,122.15 113.863,122.817 113.5,123.5C 102,123.833 90.5,124.167 79,124.5C 67.1467,124.499 55.6467,123.832 44.5,122.5C 44.8333,122.5 45.1667,122.5 45.5,122.5C 50.8437,122.666 56.1771,122.499 61.5,122C 59.5115,121.062 57.5115,120.228 55.5,119.5 Z"/></g>
<g><path style="opacity:1" fill="#585858" d="M 18.5,176.5 C 57.6645,175.335 96.9979,175.169 136.5,176C 140.027,177.176 143.527,178.342 147,179.5C 147.832,250.335 147.665,321.001 146.5,391.5C 146.667,321.166 146.5,250.833 146,180.5C 145.833,250.335 145.333,320.001 144.5,389.5C 144.833,319.83 144.5,250.163 143.5,180.5C 140.904,179.518 138.238,178.851 135.5,178.5C 133.19,177.836 130.69,177.503 128,177.5C 124.195,177.304 120.695,177.97 117.5,179.5C 117.158,180.338 116.492,180.672 115.5,180.5C 115.167,180.5 114.833,180.5 114.5,180.5C 114.5,179.833 114.167,179.5 113.5,179.5C 113.611,178.883 113.944,178.383 114.5,178C 111.633,177.199 108.966,177.366 106.5,178.5C 103.262,177.252 99.7622,176.585 96,176.5C 92.6482,176.502 89.4815,176.835 86.5,177.5C 84.5,177.5 82.5,177.5 80.5,177.5C 79.791,176.596 78.791,176.263 77.5,176.5C 65.8333,176.5 54.1667,176.5 42.5,176.5C 42.762,177.978 42.4287,179.311 41.5,180.5C 39.8888,179.68 39.2222,178.346 39.5,176.5C 37.901,176.232 36.5676,176.566 35.5,177.5C 34.209,177.263 33.209,177.596 32.5,178.5C 31.8444,177.722 31.0111,177.056 30,176.5C 29.2352,176.57 28.7352,176.903 28.5,177.5C 27.5,177.5 26.5,177.5 25.5,177.5C 23.3926,176.532 21.0593,176.198 18.5,176.5 Z"/></g>
<g><path style="opacity:1" fill="#242424" d="M 77.5,177.5 C 77.5,177.167 77.5,176.833 77.5,176.5C 78.791,176.263 79.791,176.596 80.5,177.5C 79.5008,248.998 79.1674,320.665 79.5,392.5C 78.8333,391.5 78.1667,390.5 77.5,389.5C 77.5,388.833 77.5,388.167 77.5,387.5C 77.5,319.5 77.5,251.5 77.5,183.5C 77.5,182.833 77.5,182.167 77.5,181.5C 78.8333,180.167 78.8333,178.833 77.5,177.5 Z"/></g>
<g><path style="opacity:1" fill="#989898" d="M 106.5,178.5 C 108.966,177.366 111.633,177.199 114.5,178C 113.944,178.383 113.611,178.883 113.5,179.5C 111.097,179.552 108.764,179.219 106.5,178.5 Z"/></g>
<g><path style="opacity:1" fill="#c3c3c3" d="M 25.5,177.5 C 26.5,177.5 27.5,177.5 28.5,177.5C 33.1312,181.63 37.6312,185.963 42,190.5C 42.7805,191.944 42.6139,193.277 41.5,194.5C 39.812,193.479 38.4787,192.145 37.5,190.5C 32.7944,186.704 28.7944,182.371 25.5,177.5 Z"/></g>
<g><path style="opacity:1" fill="#fbfbfb" d="M 49.5,180.5 C 48.8333,180.5 48.5,180.167 48.5,179.5C 58.008,178.177 67.6746,178.177 77.5,179.5C 68.1904,180.498 58.8571,180.832 49.5,180.5 Z"/></g>
<g><path style="opacity:1" fill="#fefefe" d="M 100.5,179.5 C 102.764,180.219 105.097,180.552 107.5,180.5C 108.209,181.404 109.209,181.737 110.5,181.5C 110.5,250.833 110.5,320.167 110.5,389.5C 103.425,391.421 96.0915,392.421 88.5,392.5C 85.8333,392.5 83.1667,392.5 80.5,392.5C 80.5,321.167 80.5,249.833 80.5,178.5C 87.1802,178.612 93.8469,178.946 100.5,179.5 Z"/></g>
<g><path style="opacity:1" fill="#8d8d8d" d="M 135.5,178.5 C 129.464,178.36 123.464,178.693 117.5,179.5C 120.695,177.97 124.195,177.304 128,177.5C 130.69,177.503 133.19,177.836 135.5,178.5 Z"/></g>
<g><path style="opacity:1" fill="#fefefe" d="M 135.5,178.5 C 138.238,178.851 140.904,179.518 143.5,180.5C 144.5,250.163 144.833,319.83 144.5,389.5C 144.5,390.167 144.167,390.5 143.5,390.5C 140.692,391.929 137.692,392.595 134.5,392.5C 128.044,392.768 121.711,392.101 115.5,390.5C 114.833,390.5 114.5,390.167 114.5,389.5C 114.17,319.762 114.504,250.096 115.5,180.5C 116.492,180.672 117.158,180.338 117.5,179.5C 123.464,178.693 129.464,178.36 135.5,178.5 Z"/></g>
<g><path style="opacity:1" fill="#bbbbbb" d="M 77.5,177.5 C 78.8333,178.833 78.8333,180.167 77.5,181.5C 68.1667,181.5 58.8333,181.5 49.5,181.5C 49.5,181.167 49.5,180.833 49.5,180.5C 58.8571,180.832 68.1904,180.498 77.5,179.5C 67.6746,178.177 58.008,178.177 48.5,179.5C 47.6236,179.631 46.9569,179.298 46.5,178.5C 56.8119,177.501 67.1452,177.168 77.5,177.5 Z"/></g>
<g><path style="opacity:1" fill="#3f3f3f" d="M 49.5,181.5 C 58.8333,181.5 68.1667,181.5 77.5,181.5C 77.5,182.167 77.5,182.833 77.5,183.5C 68.5,183.5 59.5,183.5 50.5,183.5C 50.1667,182.833 49.8333,182.167 49.5,181.5 Z"/></g>
<g><path style="opacity:1" fill="#212121" d="M 86.5,177.5 C 89.4815,176.835 92.6482,176.502 96,176.5C 99.7622,176.585 103.262,177.252 106.5,178.5C 108.764,179.219 111.097,179.552 113.5,179.5C 114.167,179.5 114.5,179.833 114.5,180.5C 113.501,249.998 113.167,319.665 113.5,389.5C 112.833,320.167 112.167,250.833 111.5,181.5C 110.432,180.566 109.099,180.232 107.5,180.5C 105.097,180.552 102.764,180.219 100.5,179.5C 96.1193,177.789 91.4526,177.123 86.5,177.5 Z"/></g>
<g><path style="opacity:1" fill="#cbcbcb" d="M 107.5,180.5 C 109.099,180.232 110.432,180.566 111.5,181.5C 111.833,251.002 111.499,320.335 110.5,389.5C 110.5,320.167 110.5,250.833 110.5,181.5C 109.209,181.737 108.209,181.404 107.5,180.5 Z"/></g>
<g><path style="opacity:1" fill="#cacaca" d="M 114.5,180.5 C 114.833,180.5 115.167,180.5 115.5,180.5C 114.504,250.096 114.17,319.762 114.5,389.5C 114.167,389.5 113.833,389.5 113.5,389.5C 113.167,319.665 113.501,249.998 114.5,180.5 Z"/></g>
<g><path style="opacity:1" fill="#787878" d="M 80.5,177.5 C 82.5,177.5 84.5,177.5 86.5,177.5C 91.4526,177.123 96.1193,177.789 100.5,179.5C 93.8469,178.946 87.1802,178.612 80.5,178.5C 80.5,249.833 80.5,321.167 80.5,392.5C 83.1667,392.5 85.8333,392.5 88.5,392.5C 85.5,393.833 82.5,393.833 79.5,392.5C 79.1674,320.665 79.5008,248.998 80.5,177.5 Z"/></g>
<g><path style="opacity:1" fill="#080808" d="M 146.5,391.5 C 145.292,392.234 143.959,392.567 142.5,392.5C 142.833,391.833 143.167,391.167 143.5,390.5C 144.167,390.5 144.5,390.167 144.5,389.5C 145.333,320.001 145.833,250.335 146,180.5C 146.5,250.833 146.667,321.166 146.5,391.5 Z"/></g>
<g><path style="opacity:1" fill="#cdcdcd" d="M 35.5,191.5 C 39.4707,193.786 41.8041,197.119 42.5,201.5C 34.5888,195.094 27.0888,188.094 20,180.5C 19.4092,179.517 19.7425,178.85 21,178.5C 25.9906,182.657 30.824,186.991 35.5,191.5 Z"/></g>
<g><path style="opacity:1" fill="#afafaf" d="M 45.5,201.5 C 47.9754,202.687 48.9754,204.687 48.5,207.5C 44.8094,206.664 43.8094,204.664 45.5,201.5 Z"/></g>
<g><path style="opacity:1" fill="#2f2f2f" d="M 18.5,176.5 C 21.0593,176.198 23.3926,176.532 25.5,177.5C 28.7944,182.371 32.7944,186.704 37.5,190.5C 36.5084,190.328 35.8417,190.662 35.5,191.5C 30.824,186.991 25.9906,182.657 21,178.5C 19.7425,178.85 19.4092,179.517 20,180.5C 27.0888,188.094 34.5888,195.094 42.5,201.5C 43.3286,201.164 44.3286,201.164 45.5,201.5C 43.8094,204.664 44.8094,206.664 48.5,207.5C 47.8333,208.167 47.1667,208.833 46.5,209.5C 45.8826,209.389 45.3826,209.056 45,208.5C 43.8785,211.872 45.0451,213.872 48.5,214.5C 47.8333,215.167 47.1667,215.833 46.5,216.5C 45.8826,216.389 45.3826,216.056 45,215.5C 43.8785,218.872 45.0451,220.872 48.5,221.5C 48.5,222.833 48.5,224.167 48.5,225.5C 47.2058,224.71 46.0391,223.71 45,222.5C 44.5172,223.448 44.3505,224.448 44.5,225.5C 43.8333,224.5 43.1667,223.5 42.5,222.5C 41.8333,223.167 41.1667,223.833 40.5,224.5C 31.7017,216.202 23.035,207.702 14.5,199C 13.5165,198.409 12.8499,198.743 12.5,200C 21.7131,210.714 31.7131,220.547 42.5,229.5C 42.4431,230.609 42.1098,231.609 41.5,232.5C 32.1141,223.111 22.4474,214.111 12.5,205.5C 11.5017,239.329 11.1683,273.329 11.5,307.5C 11.5,335.5 11.5,363.5 11.5,391.5C 10.3345,321.001 10.1678,250.335 11,179.5C 13.4799,178.188 15.9799,177.188 18.5,176.5 Z"/></g>
<g><path style="opacity:1" fill="#c5c5c5" d="M 42.5,222.5 C 32.2539,213.758 22.4205,204.425 13,194.5C 12.2506,193.365 12.4173,192.365 13.5,191.5C 23.1525,200.652 32.6525,209.986 42,219.5C 42.4828,220.448 42.6495,221.448 42.5,222.5 Z"/></g>
<g><path style="opacity:1" fill="#cecece" d="M 12.5,183.5 C 22.0988,192.763 31.7655,202.096 41.5,211.5C 42.8333,212.833 42.8333,214.167 41.5,215.5C 31.8475,206.348 22.3475,197.014 13,187.5C 12.51,186.207 12.3433,184.873 12.5,183.5 Z"/></g>
<g><path style="opacity:1" fill="#cecece" d="M 14.5,180.5 C 15.552,180.351 16.552,180.517 17.5,181C 25.6667,189.167 33.8333,197.333 42,205.5C 42.7494,206.635 42.5827,207.635 41.5,208.5C 31.757,199.759 22.757,190.426 14.5,180.5 Z"/></g>
<g><path style="opacity:1" fill="#d5d5d5" d="M 40.5,224.5 C 41.9418,225.82 42.6085,227.486 42.5,229.5C 31.7131,220.547 21.7131,210.714 12.5,200C 12.8499,198.743 13.5165,198.409 14.5,199C 23.035,207.702 31.7017,216.202 40.5,224.5 Z"/></g>
<g><path style="opacity:1" fill="#1f1f1f" d="M 28.5,177.5 C 28.7352,176.903 29.2352,176.57 30,176.5C 31.0111,177.056 31.8444,177.722 32.5,178.5C 35.1456,181.812 38.1456,184.812 41.5,187.5C 42.6139,186.277 42.7805,184.944 42,183.5C 39.9633,181.294 37.7966,179.294 35.5,177.5C 36.5676,176.566 37.901,176.232 39.5,176.5C 39.2222,178.346 39.8888,179.68 41.5,180.5C 42.4287,179.311 42.762,177.978 42.5,176.5C 54.1667,176.5 65.8333,176.5 77.5,176.5C 77.5,176.833 77.5,177.167 77.5,177.5C 67.1452,177.168 56.8119,177.501 46.5,178.5C 46.9569,179.298 47.6236,179.631 48.5,179.5C 48.5,180.167 48.8333,180.5 49.5,180.5C 49.5,180.833 49.5,181.167 49.5,181.5C 49.8333,182.167 50.1667,182.833 50.5,183.5C 50.5,251.5 50.5,319.5 50.5,387.5C 59.5,387.5 68.5,387.5 77.5,387.5C 77.5,388.167 77.5,388.833 77.5,389.5C 68.1607,389.334 58.8274,389.5 49.5,390C 48.944,390.383 48.6107,390.883 48.5,391.5C 48.1667,391.5 47.8333,391.5 47.5,391.5C 46.596,392.209 46.2627,393.209 46.5,394.5C 43.6146,394.806 40.9479,394.473 38.5,393.5C 39.1667,393.167 39.8333,392.833 40.5,392.5C 43.1322,390.301 42.7988,388.301 39.5,386.5C 39.5,385.833 39.8333,385.5 40.5,385.5C 42.8466,384.393 43.18,382.726 41.5,380.5C 41.8333,379.833 42.1667,379.167 42.5,378.5C 42.634,376.708 42.3007,375.042 41.5,373.5C 41.56,372.957 41.8933,372.624 42.5,372.5C 43.1818,373.243 43.8485,373.909 44.5,374.5C 45.7124,375.23 46.7124,376.23 47.5,377.5C 48.6664,375.833 48.6664,374.166 47.5,372.5C 47.8333,371.833 48.1667,371.167 48.5,370.5C 48.7475,368.142 48.0808,366.142 46.5,364.5C 47.1667,363.833 47.8333,363.167 48.5,362.5C 48.6085,360.486 47.9418,358.82 46.5,357.5C 47.1667,356.833 47.8333,356.167 48.5,355.5C 48.5674,354.041 48.2341,352.708 47.5,351.5C 47.8333,350.833 48.1667,350.167 48.5,349.5C 48.7475,347.142 48.0808,345.142 46.5,343.5C 47.1667,342.833 47.8333,342.167 48.5,341.5C 48.3775,338.708 47.0442,336.708 44.5,335.5C 43.5,336.5 42.5,337.5 41.5,338.5C 40.8333,338.5 40.5,338.167 40.5,337.5C 41.1667,336.833 41.8333,336.167 42.5,335.5C 42.6085,333.486 41.9418,331.82 40.5,330.5C 41.1667,329.833 41.8333,329.167 42.5,328.5C 42.6495,327.448 42.4828,326.448 42,325.5C 32.8333,316.333 23.6667,307.167 14.5,298C 12.1718,298.222 11.8384,299.388 13.5,301.5C 12.9518,303.626 12.2852,305.626 11.5,307.5C 11.1683,273.329 11.5017,239.329 12.5,205.5C 12.5,206.5 12.5,207.5 12.5,208.5C 12.5,209.833 12.5,211.167 12.5,212.5C 12.5,213.5 12.5,214.5 12.5,215.5C 12.5,216.833 12.5,218.167 12.5,219.5C 12.5,220.5 12.5,221.5 12.5,222.5C 12.5,223.833 12.5,225.167 12.5,226.5C 12.3915,228.514 13.0582,230.18 14.5,231.5C 13.8333,232.167 13.1667,232.833 12.5,233.5C 12.3505,234.552 12.5172,235.552 13,236.5C 22.7016,246.369 32.5349,256.036 42.5,265.5C 43.8333,266.5 43.8333,267.5 42.5,268.5C 33.035,259.536 23.7016,250.369 14.5,241C 13.5165,240.409 12.8499,240.743 12.5,242C 22.0232,253.03 32.0232,262.863 42.5,271.5C 43.1667,272.833 43.8333,274.167 44.5,275.5C 45.7124,276.23 46.7124,277.23 47.5,278.5C 48.7698,276.243 48.4364,274.243 46.5,272.5C 46.5,271.833 46.8333,271.5 47.5,271.5C 48.8081,269.362 48.4748,267.362 46.5,265.5C 46.5,264.833 46.8333,264.5 47.5,264.5C 48.8081,262.362 48.4748,260.362 46.5,258.5C 46.5,257.833 46.8333,257.5 47.5,257.5C 49.0563,254.312 48.0563,251.979 44.5,250.5C 44.8333,249.833 45.1667,249.167 45.5,248.5C 46.4584,248.953 47.2917,249.619 48,250.5C 48.7484,248.16 48.2484,246.16 46.5,244.5C 47.1667,243.833 47.8333,243.167 48.5,242.5C 48.3775,239.708 47.0442,237.708 44.5,236.5C 43.6043,237.506 42.9377,237.506 42.5,236.5C 42.7678,234.901 42.4345,233.568 41.5,232.5C 42.1098,231.609 42.4431,230.609 42.5,229.5C 42.6085,227.486 41.9418,225.82 40.5,224.5C 41.1667,223.833 41.8333,223.167 42.5,222.5C 43.1667,223.5 43.8333,224.5 44.5,225.5C 46.374,229.165 47.7073,229.165 48.5,225.5C 48.5,224.167 48.5,222.833 48.5,221.5C 48.8799,219.302 48.2132,217.635 46.5,216.5C 47.1667,215.833 47.8333,215.167 48.5,214.5C 48.6085,212.486 47.9418,210.82 46.5,209.5C 47.1667,208.833 47.8333,208.167 48.5,207.5C 48.9754,204.687 47.9754,202.687 45.5,201.5C 44.3286,201.164 43.3286,201.164 42.5,201.5C 41.8041,197.119 39.4707,193.786 35.5,191.5C 35.8417,190.662 36.5084,190.328 37.5,190.5C 38.4787,192.145 39.812,193.479 41.5,194.5C 42.6139,193.277 42.7805,191.944 42,190.5C 37.6312,185.963 33.1312,181.63 28.5,177.5 Z"/></g>
<g><path style="opacity:1" fill="#d9d9d9" d="M 12.5,219.5 C 22.7461,228.242 32.5795,237.575 42,247.5C 42.6667,248.833 42.6667,250.167 42,251.5C 32.2984,241.631 22.4651,231.964 12.5,222.5C 12.5,221.5 12.5,220.5 12.5,219.5 Z"/></g>
<g><path style="opacity:1" fill="#cdcdcd" d="M 44.5,229.5 C 47.4669,230.737 48.4669,232.737 47.5,235.5C 45.0217,234.278 44.0217,232.278 44.5,229.5 Z"/></g>
<g><path style="opacity:1" fill="#d7d7d7" d="M 12.5,212.5 C 22.7461,221.242 32.5795,230.575 42,240.5C 42.6667,241.833 42.6667,243.167 42,244.5C 32.2984,234.631 22.4651,224.964 12.5,215.5C 12.5,214.5 12.5,213.5 12.5,212.5 Z"/></g>
<g><path style="opacity:1" fill="#bdbdbd" d="M 48.5,225.5 C 47.7073,229.165 46.374,229.165 44.5,225.5C 44.3505,224.448 44.5172,223.448 45,222.5C 46.0391,223.71 47.2058,224.71 48.5,225.5 Z"/></g>
<g><path style="opacity:1" fill="#bfbfbf" d="M 46.5,216.5 C 48.2132,217.635 48.8799,219.302 48.5,221.5C 45.0451,220.872 43.8785,218.872 45,215.5C 45.3826,216.056 45.8826,216.389 46.5,216.5 Z"/></g>
<g><path style="opacity:1" fill="#c5c5c5" d="M 46.5,209.5 C 47.9418,210.82 48.6085,212.486 48.5,214.5C 45.0451,213.872 43.8785,211.872 45,208.5C 45.3826,209.056 45.8826,209.389 46.5,209.5 Z"/></g>
<g><path style="opacity:1" fill="#d0d0d0" d="M 12.5,205.5 C 22.4474,214.111 32.1141,223.111 41.5,232.5C 42.4345,233.568 42.7678,234.901 42.5,236.5C 32.2191,227.555 22.2191,218.222 12.5,208.5C 12.5,207.5 12.5,206.5 12.5,205.5 Z"/></g>
<g><path style="opacity:1" fill="#c0c0c0" d="M 44.5,194.5 C 48.1702,195.193 49.1702,197.193 47.5,200.5C 45.4228,199.012 44.4228,197.012 44.5,194.5 Z"/></g>
<g><path style="opacity:1" fill="#b1b1b1" d="M 44.5,187.5 C 48.1702,188.193 49.1702,190.193 47.5,193.5C 45.0217,192.278 44.0217,190.278 44.5,187.5 Z"/></g>
<g><path style="opacity:1" fill="#cfcfcf" d="M 44.5,180.5 C 47.0161,181.6 48.0161,183.267 47.5,185.5C 45.244,184.579 44.244,182.912 44.5,180.5 Z"/></g>
<g><path style="opacity:1" fill="#bebebe" d="M 35.5,177.5 C 37.7966,179.294 39.9633,181.294 42,183.5C 42.7805,184.944 42.6139,186.277 41.5,187.5C 38.1456,184.812 35.1456,181.812 32.5,178.5C 33.209,177.596 34.209,177.263 35.5,177.5 Z"/></g>
<g><path style="opacity:1" fill="#cecece" d="M 44.5,236.5 C 47.0442,237.708 48.3775,239.708 48.5,242.5C 45.2244,241.878 43.8911,239.878 44.5,236.5 Z"/></g>
<g><path style="opacity:1" fill="#dadada" d="M 12.5,226.5 C 22.7461,235.242 32.5795,244.575 42,254.5C 42.6667,255.833 42.6667,257.167 42,258.5C 32.965,249.298 23.7984,240.298 14.5,231.5C 13.0582,230.18 12.3915,228.514 12.5,226.5 Z"/></g>
<g><path style="opacity:1" fill="#cdcdcd" d="M 46.5,244.5 C 48.2484,246.16 48.7484,248.16 48,250.5C 47.2917,249.619 46.4584,248.953 45.5,248.5C 44.5269,246.932 44.3603,245.265 45,243.5C 45.3826,244.056 45.8826,244.389 46.5,244.5 Z"/></g>
<g><path style="opacity:1" fill="#dddddd" d="M 50.5,183.5 C 59.5,183.5 68.5,183.5 77.5,183.5C 77.5,251.5 77.5,319.5 77.5,387.5C 68.5,387.5 59.5,387.5 50.5,387.5C 50.5,319.5 50.5,251.5 50.5,183.5 Z"/></g>
<g><path style="opacity:1" fill="#fefefe" d="M 51.5,184.5 C 59.8333,184.5 68.1667,184.5 76.5,184.5C 76.5,251.833 76.5,319.167 76.5,386.5C 68.1667,386.5 59.8333,386.5 51.5,386.5C 51.5,319.167 51.5,251.833 51.5,184.5 Z"/></g>
<g><path style="opacity:1" fill="#d8d8d8" d="M 42.5,268.5 C 42.5,269.5 42.5,270.5 42.5,271.5C 32.0232,262.863 22.0232,253.03 12.5,242C 12.8499,240.743 13.5165,240.409 14.5,241C 23.7016,250.369 33.035,259.536 42.5,268.5 Z"/></g>
<g><path style="opacity:1" fill="#232323" d="M 12.5,208.5 C 22.2191,218.222 32.2191,227.555 42.5,236.5C 42.9377,237.506 43.6043,237.506 44.5,236.5C 43.8911,239.878 45.2244,241.878 48.5,242.5C 47.8333,243.167 47.1667,243.833 46.5,244.5C 45.8826,244.389 45.3826,244.056 45,243.5C 44.3603,245.265 44.5269,246.932 45.5,248.5C 45.1667,249.167 44.8333,249.833 44.5,250.5C 44.1496,253.453 45.1496,255.787 47.5,257.5C 46.8333,257.5 46.5,257.833 46.5,258.5C 45.1054,256.946 44.4387,257.279 44.5,259.5C 45.0924,261.423 46.0924,263.089 47.5,264.5C 46.8333,264.5 46.5,264.833 46.5,265.5C 45.1054,263.946 44.4387,264.279 44.5,266.5C 45.0924,268.423 46.0924,270.089 47.5,271.5C 46.8333,271.5 46.5,271.833 46.5,272.5C 44.9519,272.821 44.2852,273.821 44.5,275.5C 43.8333,274.167 43.1667,272.833 42.5,271.5C 42.5,270.5 42.5,269.5 42.5,268.5C 43.8333,267.5 43.8333,266.5 42.5,265.5C 42.6567,264.127 42.49,262.793 42,261.5C 32.5795,251.575 22.7461,242.242 12.5,233.5C 13.1667,232.833 13.8333,232.167 14.5,231.5C 23.7984,240.298 32.965,249.298 42,258.5C 42.6667,257.167 42.6667,255.833 42,254.5C 32.5795,244.575 22.7461,235.242 12.5,226.5C 12.5,225.167 12.5,223.833 12.5,222.5C 22.4651,231.964 32.2984,241.631 42,251.5C 42.6667,250.167 42.6667,248.833 42,247.5C 32.5795,237.575 22.7461,228.242 12.5,219.5C 12.5,218.167 12.5,216.833 12.5,215.5C 22.4651,224.964 32.2984,234.631 42,244.5C 42.6667,243.167 42.6667,241.833 42,240.5C 32.5795,230.575 22.7461,221.242 12.5,212.5C 12.5,211.167 12.5,209.833 12.5,208.5 Z"/></g>
<g><path style="opacity:1" fill="#cfcfcf" d="M 44.5,250.5 C 48.0563,251.979 49.0563,254.312 47.5,257.5C 45.1496,255.787 44.1496,253.453 44.5,250.5 Z"/></g>
<g><path style="opacity:1" fill="#d8d8d8" d="M 12.5,233.5 C 22.7461,242.242 32.5795,251.575 42,261.5C 42.49,262.793 42.6567,264.127 42.5,265.5C 32.5349,256.036 22.7016,246.369 13,236.5C 12.5172,235.552 12.3505,234.552 12.5,233.5 Z"/></g>
<g><path style="opacity:1" fill="#cccccc" d="M 46.5,258.5 C 48.4748,260.362 48.8081,262.362 47.5,264.5C 46.0924,263.089 45.0924,261.423 44.5,259.5C 44.4387,257.279 45.1054,256.946 46.5,258.5 Z"/></g>
<g><path style="opacity:1" fill="#d9d9d9" d="M 12.5,247.5 C 22.7461,256.242 32.5795,265.575 42,275.5C 42.7805,276.944 42.6139,278.277 41.5,279.5C 32.181,269.681 22.681,260.014 13,250.5C 12.5172,249.552 12.3505,248.552 12.5,247.5 Z"/></g>
<g><path style="opacity:1" fill="#d9d9d9" d="M 12.5,254.5 C 13.2389,254.369 13.9056,254.536 14.5,255C 23.527,264.272 32.6937,273.439 42,282.5C 42.7805,283.944 42.6139,285.277 41.5,286.5C 32.5,276.833 23.1667,267.5 13.5,258.5C 12.5713,257.311 12.238,255.978 12.5,254.5 Z"/></g>
<g><path style="opacity:1" fill="#cacaca" d="M 46.5,265.5 C 48.4748,267.362 48.8081,269.362 47.5,271.5C 46.0924,270.089 45.0924,268.423 44.5,266.5C 44.4387,264.279 45.1054,263.946 46.5,265.5 Z"/></g>
<g><path style="opacity:1" fill="#d7d7d7" d="M 12.5,261.5 C 22.0791,269.575 31.2458,278.242 40,287.5C 40.8498,289.01 41.6831,290.51 42.5,292C 42.1667,292.5 41.8333,293 41.5,293.5C 32.5,283.833 23.1667,274.5 13.5,265.5C 12.5713,264.311 12.238,262.978 12.5,261.5 Z"/></g>
<g><path style="opacity:1" fill="#cacaca" d="M 46.5,272.5 C 48.4364,274.243 48.7698,276.243 47.5,278.5C 46.7124,277.23 45.7124,276.23 44.5,275.5C 44.2852,273.821 44.9519,272.821 46.5,272.5 Z"/></g>
<g><path style="opacity:1" fill="#d8d8d8" d="M 40.5,299.5 C 33.1667,291.5 25.5,283.833 17.5,276.5C 11.8431,268.927 12.5097,268.094 19.5,274C 26.9459,281.446 34.4459,288.946 42,296.5C 42.7805,297.944 42.6139,299.277 41.5,300.5C 40.8933,300.376 40.56,300.043 40.5,299.5 Z"/></g>
<g><path style="opacity:1" fill="#c6c6c6" d="M 44.5,279.5 C 48.1702,280.193 49.1702,282.193 47.5,285.5C 45.585,283.929 44.585,281.929 44.5,279.5 Z"/></g>
<g><path style="opacity:1" fill="#d3d3d3" d="M 17.5,278.5 C 24.4421,286.617 31.7755,294.284 39.5,301.5C 42.3219,302.789 42.9886,304.789 41.5,307.5C 31.8743,298.375 22.3743,289.042 13,279.5C 12.2195,278.056 12.3861,276.723 13.5,275.5C 14.8518,276.524 16.1851,277.524 17.5,278.5 Z"/></g>
<g><path style="opacity:1" fill="#cbcbcb" d="M 44.5,286.5 C 48.1757,287.232 49.1757,289.232 47.5,292.5C 45.4228,291.012 44.4228,289.012 44.5,286.5 Z"/></g>
<g><path style="opacity:1" fill="#323232" d="M 17.5,276.5 C 25.5,283.833 33.1667,291.5 40.5,299.5C 39.6618,299.842 39.3284,300.508 39.5,301.5C 31.7755,294.284 24.4421,286.617 17.5,278.5C 17.5,277.833 17.5,277.167 17.5,276.5 Z"/></g>
<g><path style="opacity:1" fill="#b4b4b4" d="M 44.5,293.5 C 48.1702,294.193 49.1702,296.193 47.5,299.5C 45.0217,298.278 44.0217,296.278 44.5,293.5 Z"/></g>
<g><path style="opacity:1" fill="#d4d4d4" d="M 12.5,282.5 C 22.0988,291.763 31.7655,301.096 41.5,310.5C 42.8333,311.833 42.8333,313.167 41.5,314.5C 31.8475,305.348 22.3475,296.014 13,286.5C 12.51,285.207 12.3433,283.873 12.5,282.5 Z"/></g>
<g><path style="opacity:1" fill="#c6c6c6" d="M 44.5,300.5 C 48.1702,301.193 49.1702,303.193 47.5,306.5C 45.4228,305.012 44.4228,303.012 44.5,300.5 Z"/></g>
<g><path style="opacity:1" fill="#d6d6d6" d="M 12.5,289.5 C 22.4174,298.916 32.2508,308.583 42,318.5C 42.7494,319.635 42.5827,320.635 41.5,321.5C 31.8475,312.348 22.3475,303.014 13,293.5C 12.51,292.207 12.3433,290.873 12.5,289.5 Z"/></g>
<g><path style="opacity:1" fill="#d6d6d6" d="M 40.5,330.5 C 41.9418,331.82 42.6085,333.486 42.5,335.5C 32.5874,327.091 23.0874,318.091 14,308.5C 13.3333,307.167 13.3333,305.833 14,304.5C 22.7017,313.369 31.535,322.036 40.5,330.5 Z"/></g>
<g><path style="opacity:1" fill="#bfbfbf" d="M 44.5,307.5 C 48.1702,308.193 49.1702,310.193 47.5,313.5C 45.4228,312.012 44.4228,310.012 44.5,307.5 Z"/></g>
<g><path style="opacity:1" fill="#d3d3d3" d="M 42.5,328.5 C 32.5526,319.889 22.8859,310.889 13.5,301.5C 11.8384,299.388 12.1718,298.222 14.5,298C 23.6667,307.167 32.8333,316.333 42,325.5C 42.4828,326.448 42.6495,327.448 42.5,328.5 Z"/></g>
<g><path style="opacity:1" fill="#c8c8c8" d="M 44.5,314.5 C 47.4669,315.737 48.4669,317.737 47.5,320.5C 45.0217,319.278 44.0217,317.278 44.5,314.5 Z"/></g>
<g><path style="opacity:1" fill="#cdcdcd" d="M 44.5,321.5 C 47.4669,322.737 48.4669,324.737 47.5,327.5C 45.0217,326.278 44.0217,324.278 44.5,321.5 Z"/></g>
<g><path style="opacity:1" fill="#c7c7c7" d="M 44.5,328.5 C 47.4669,329.737 48.4669,331.737 47.5,334.5C 45.0217,333.278 44.0217,331.278 44.5,328.5 Z"/></g>
<g><path style="opacity:1" fill="#cacaca" d="M 44.5,335.5 C 47.0442,336.708 48.3775,338.708 48.5,341.5C 45.2244,340.878 43.8911,338.878 44.5,335.5 Z"/></g>
<g><path style="opacity:1" fill="#c4c4c4" d="M 46.5,343.5 C 48.0808,345.142 48.7475,347.142 48.5,349.5C 45.3024,348.146 44.1358,345.813 45,342.5C 45.3826,343.056 45.8826,343.389 46.5,343.5 Z"/></g>
<g><path style="opacity:1" fill="#252525" d="M 13.5,301.5 C 22.8859,310.889 32.5526,319.889 42.5,328.5C 41.8333,329.167 41.1667,329.833 40.5,330.5C 31.535,322.036 22.7017,313.369 14,304.5C 13.3333,305.833 13.3333,307.167 14,308.5C 23.0874,318.091 32.5874,327.091 42.5,335.5C 41.8333,336.167 41.1667,336.833 40.5,337.5C 31.7017,329.202 23.035,320.702 14.5,312C 13.5165,311.409 12.8499,311.743 12.5,313C 21.4571,322.958 30.7904,332.625 40.5,342C 42.8282,341.778 43.1616,340.612 41.5,338.5C 42.5,337.5 43.5,336.5 44.5,335.5C 43.8911,338.878 45.2244,340.878 48.5,341.5C 47.8333,342.167 47.1667,342.833 46.5,343.5C 45.8826,343.389 45.3826,343.056 45,342.5C 44.1358,345.813 45.3024,348.146 48.5,349.5C 48.1667,350.167 47.8333,350.833 47.5,351.5C 44.7984,348.73 43.965,349.397 45,353.5C 45.8159,354.823 46.9826,355.489 48.5,355.5C 47.8333,356.167 47.1667,356.833 46.5,357.5C 45.8826,357.389 45.3826,357.056 45,356.5C 43.8785,359.872 45.0451,361.872 48.5,362.5C 47.8333,363.167 47.1667,363.833 46.5,364.5C 45.8826,364.389 45.3826,364.056 45,363.5C 44.2075,366.86 45.3741,369.194 48.5,370.5C 48.1667,371.167 47.8333,371.833 47.5,372.5C 45.4017,371.086 44.4017,371.752 44.5,374.5C 43.8485,373.909 43.1818,373.243 42.5,372.5C 41.8933,372.624 41.56,372.957 41.5,373.5C 32.3683,364.869 23.3683,356.036 14.5,347C 13.5165,346.409 12.8499,346.743 12.5,348C 22.0416,358.707 32.0416,368.874 42.5,378.5C 42.1667,379.167 41.8333,379.833 41.5,380.5C 32.3683,371.869 23.3683,363.036 14.5,354C 13.5165,353.409 12.8499,353.743 12.5,355C 12.9783,356.303 13.645,357.469 14.5,358.5C 13.8921,359.8 13.2255,361.133 12.5,362.5C 12.5427,363.416 12.8761,364.083 13.5,364.5C 12.3773,366.979 12.3773,369.312 13.5,371.5C 13.5,371.833 13.5,372.167 13.5,372.5C 13.1667,373.167 12.8333,373.833 12.5,374.5C 12.238,375.978 12.5713,377.311 13.5,378.5C 18.8544,383.188 23.8544,388.188 28.5,393.5C 26.0521,394.473 23.3854,394.806 20.5,394.5C 17.2854,394.095 14.2854,393.095 11.5,391.5C 11.5,363.5 11.5,335.5 11.5,307.5C 12.2852,305.626 12.9518,303.626 13.5,301.5 Z"/></g>
<g><path style="opacity:1" fill="#d7d7d7" d="M 12.5,325.5 C 22.7461,334.242 32.5795,343.575 42,353.5C 42.6667,354.833 42.6667,356.167 42,357.5C 32.6525,347.986 23.1525,338.652 13.5,329.5C 12.5713,328.311 12.238,326.978 12.5,325.5 Z"/></g>
<g><path style="opacity:1" fill="#d7d7d7" d="M 12.5,318.5 C 22.7461,327.242 32.5795,336.575 42,346.5C 42.6667,347.833 42.6667,349.167 42,350.5C 32.3333,340.833 22.6667,331.167 13,321.5C 12.5172,320.552 12.3505,319.552 12.5,318.5 Z"/></g>
<g><path style="opacity:1" fill="#d3d3d3" d="M 40.5,337.5 C 40.5,338.167 40.8333,338.5 41.5,338.5C 43.1616,340.612 42.8282,341.778 40.5,342C 30.7904,332.625 21.4571,322.958 12.5,313C 12.8499,311.743 13.5165,311.409 14.5,312C 23.035,320.702 31.7017,329.202 40.5,337.5 Z"/></g>
<g><path style="opacity:1" fill="#d5d5d5" d="M 12.5,332.5 C 22.7461,341.242 32.5795,350.575 42,360.5C 42.7805,361.944 42.6139,363.277 41.5,364.5C 32.181,354.681 22.681,345.014 13,335.5C 12.5172,334.552 12.3505,333.552 12.5,332.5 Z"/></g>
<g><path style="opacity:1" fill="#c8c8c8" d="M 47.5,351.5 C 48.2341,352.708 48.5674,354.041 48.5,355.5C 46.9826,355.489 45.8159,354.823 45,353.5C 43.965,349.397 44.7984,348.73 47.5,351.5 Z"/></g>
<g><path style="opacity:1" fill="#d2d2d2" d="M 12.5,339.5 C 22.7461,348.242 32.5795,357.575 42,367.5C 42.7805,368.944 42.6139,370.277 41.5,371.5C 32.181,361.681 22.681,352.014 13,342.5C 12.5172,341.552 12.3505,340.552 12.5,339.5 Z"/></g>
<g><path style="opacity:1" fill="#cfcfcf" d="M 46.5,357.5 C 47.9418,358.82 48.6085,360.486 48.5,362.5C 45.0451,361.872 43.8785,359.872 45,356.5C 45.3826,357.056 45.8826,357.389 46.5,357.5 Z"/></g>
<g><path style="opacity:1" fill="#343434" d="M 14.5,358.5 C 23.8885,366.887 32.5552,375.887 40.5,385.5C 39.8333,385.5 39.5,385.833 39.5,386.5C 31.492,377.865 22.992,369.531 14,361.5C 13.5172,362.448 13.3505,363.448 13.5,364.5C 12.8761,364.083 12.5427,363.416 12.5,362.5C 13.2255,361.133 13.8921,359.8 14.5,358.5 Z"/></g>
<g><path style="opacity:1" fill="#d3d3d3" d="M 41.5,380.5 C 43.18,382.726 42.8466,384.393 40.5,385.5C 32.5552,375.887 23.8885,366.887 14.5,358.5C 13.645,357.469 12.9783,356.303 12.5,355C 12.8499,353.743 13.5165,353.409 14.5,354C 23.3683,363.036 32.3683,371.869 41.5,380.5 Z"/></g>
<g><path style="opacity:1" fill="#d3d3d3" d="M 41.5,373.5 C 42.3007,375.042 42.634,376.708 42.5,378.5C 32.0416,368.874 22.0416,358.707 12.5,348C 12.8499,346.743 13.5165,346.409 14.5,347C 23.3683,356.036 32.3683,364.869 41.5,373.5 Z"/></g>
<g><path style="opacity:1" fill="#c7c7c7" d="M 46.5,364.5 C 48.0808,366.142 48.7475,368.142 48.5,370.5C 45.3741,369.194 44.2075,366.86 45,363.5C 45.3826,364.056 45.8826,364.389 46.5,364.5 Z"/></g>
<g><path style="opacity:1" fill="#d6d6d6" d="M 39.5,386.5 C 42.7988,388.301 43.1322,390.301 40.5,392.5C 32.2216,382.553 23.2216,373.22 13.5,364.5C 13.3505,363.448 13.5172,362.448 14,361.5C 22.992,369.531 31.492,377.865 39.5,386.5 Z"/></g>
<g><path style="opacity:1" fill="#c7c7c7" d="M 47.5,372.5 C 48.6664,374.166 48.6664,375.833 47.5,377.5C 46.7124,376.23 45.7124,375.23 44.5,374.5C 44.4017,371.752 45.4017,371.086 47.5,372.5 Z"/></g>
<g><path style="opacity:1" fill="#3b3b3b" d="M 13.5,364.5 C 23.2216,373.22 32.2216,382.553 40.5,392.5C 39.8333,392.833 39.1667,393.167 38.5,393.5C 30.6116,385.109 22.4449,376.776 14,368.5C 13.5172,369.448 13.3505,370.448 13.5,371.5C 12.3773,369.312 12.3773,366.979 13.5,364.5 Z"/></g>
<g><path style="opacity:1" fill="#cccccc" d="M 12.5,374.5 C 18.7504,379.91 24.9171,385.577 31,391.5C 31.1881,393.061 30.3547,393.728 28.5,393.5C 23.8544,388.188 18.8544,383.188 13.5,378.5C 12.5713,377.311 12.238,375.978 12.5,374.5 Z"/></g>
<g><path style="opacity:1" fill="#cacaca" d="M 12.5,381.5 C 16.2506,384.747 19.9173,388.247 23.5,392C 22.1667,392.667 20.8333,392.667 19.5,392C 15.652,389.353 13.3186,385.853 12.5,381.5 Z"/></g>
<g><path style="opacity:1" fill="#dbdbdb" d="M 38.5,393.5 C 37.0222,393.762 35.6888,393.429 34.5,392.5C 28.1114,385.109 21.1114,378.443 13.5,372.5C 13.5,372.167 13.5,371.833 13.5,371.5C 13.3505,370.448 13.5172,369.448 14,368.5C 22.4449,376.776 30.6116,385.109 38.5,393.5 Z"/></g>
<g><path style="opacity:1" fill="#2d2d2d" d="M 111.5,181.5 C 112.167,250.833 112.833,320.167 113.5,389.5C 113.833,389.5 114.167,389.5 114.5,389.5C 114.5,390.167 114.833,390.5 115.5,390.5C 117.019,391.41 118.685,392.243 120.5,393C 125.352,393.815 130.019,393.648 134.5,392.5C 137.692,392.595 140.692,391.929 143.5,390.5C 143.167,391.167 142.833,391.833 142.5,392.5C 141.329,393.345 139.995,394.011 138.5,394.5C 99.1906,395.476 59.8573,395.81 20.5,395.5C 20.5,395.167 20.5,394.833 20.5,394.5C 23.3854,394.806 26.0521,394.473 28.5,393.5C 30.3547,393.728 31.1881,393.061 31,391.5C 24.9171,385.577 18.7504,379.91 12.5,374.5C 12.8333,373.833 13.1667,373.167 13.5,372.5C 21.1114,378.443 28.1114,385.109 34.5,392.5C 35.6888,393.429 37.0222,393.762 38.5,393.5C 40.9479,394.473 43.6146,394.806 46.5,394.5C 46.2627,393.209 46.596,392.209 47.5,391.5C 52.1194,392.828 57.1194,393.494 62.5,393.5C 67.6782,393.499 72.6782,393.166 77.5,392.5C 77.5,391.5 77.5,390.5 77.5,389.5C 78.1667,390.5 78.8333,391.5 79.5,392.5C 82.5,393.833 85.5,393.833 88.5,392.5C 96.0915,392.421 103.425,391.421 110.5,389.5C 111.499,320.335 111.833,251.002 111.5,181.5 Z"/></g>
<g><path style="opacity:1" fill="#a5a5a5" d="M 115.5,390.5 C 121.711,392.101 128.044,392.768 134.5,392.5C 130.019,393.648 125.352,393.815 120.5,393C 118.685,392.243 117.019,391.41 115.5,390.5 Z"/></g>
<g><path style="opacity:1" fill="#a9a9a9" d="M 110.5,391.5 C 112.103,391.312 113.437,391.812 114.5,393C 111.833,393.667 109.167,393.667 106.5,393C 108.058,392.79 109.391,392.29 110.5,391.5 Z"/></g>
<g><path style="opacity:1" fill="#c2c2c2" d="M 47.5,391.5 C 47.8333,391.5 48.1667,391.5 48.5,391.5C 57.9856,392.494 67.6522,392.827 77.5,392.5C 72.6782,393.166 67.6782,393.499 62.5,393.5C 57.1194,393.494 52.1194,392.828 47.5,391.5 Z"/></g>
<g><path style="opacity:1" fill="#eeeeee" d="M 77.5,389.5 C 77.5,390.5 77.5,391.5 77.5,392.5C 67.6522,392.827 57.9856,392.494 48.5,391.5C 48.6107,390.883 48.944,390.383 49.5,390C 58.8274,389.5 68.1607,389.334 77.5,389.5 Z"/></g>
<g><path style="opacity:1" fill="#c9c9c9" d="M 44.5,385.5 C 47.2748,385.834 47.9415,387.167 46.5,389.5C 44.8888,388.68 44.2222,387.346 44.5,385.5 Z"/></g>
<g><path style="opacity:1" fill="#c9c9c9" d="M 44.5,378.5 C 48.1702,379.193 49.1702,381.193 47.5,384.5C 45.585,382.929 44.585,380.929 44.5,378.5 Z"/></g>
<g><path style="opacity:1" fill="#cfcfcf" d="M 138.5,394.5 C 137.737,395.268 136.737,395.768 135.5,396C 96.9978,396.831 58.6645,396.664 20.5,395.5C 59.8573,395.81 99.1906,395.476 138.5,394.5 Z"/></g>
</svg>
