<?xml version="1.0" encoding="UTF-8"?>
<!DOCTYPE svg PUBLIC "-//W3C//DTD SVG 1.1//EN" "http://www.w3.org/Graphics/SVG/1.1/DTD/svg11.dtd">
<svg xmlns="http://www.w3.org/2000/svg" version="1.1" width="203px" height="308px" style="shape-rendering:geometricPrecision; text-rendering:geometricPrecision; image-rendering:optimizeQuality; fill-rule:evenodd; clip-rule:evenodd" xmlns:xlink="http://www.w3.org/1999/xlink">
<g><path style="opacity:1" fill="#fdfdfd" d="M -0.5,-0.5 C 67.1667,-0.5 134.833,-0.5 202.5,-0.5C 202.5,102.167 202.5,204.833 202.5,307.5C 134.833,307.5 67.1667,307.5 -0.5,307.5C -0.5,204.833 -0.5,102.167 -0.5,-0.5 Z"/></g>
<g><path style="opacity:1" fill="#7c7c7c" d="M 93.5,8.5 C 89.7328,9.09717 86.0661,10.0972 82.5,11.5C 81.1667,11.5 79.8333,11.5 78.5,11.5C 83.073,8.98163 88.073,7.98163 93.5,8.5 Z"/></g>
<g><path style="opacity:1" fill="#f9f9f9" d="M 118.5,15.5 C 118.002,20.1522 117.669,24.8189 117.5,29.5C 117.5,30.5 117.5,31.5 117.5,32.5C 116.194,35.6868 116.194,39.0202 117.5,42.5C 118.107,42.3764 118.44,42.0431 118.5,41.5C 118.232,39.901 118.566,38.5676 119.5,37.5C 121.277,34.4954 122.277,31.1621 122.5,27.5C 123.017,23.7783 123.85,20.1117 125,16.5C 128.738,14.1287 132.571,14.2953 136.5,17C 142.375,19.7645 147.709,23.2645 152.5,27.5C 155.326,29.3088 157.326,31.8088 158.5,35C 153.383,42.0623 148.383,49.229 143.5,56.5C 144.002,57.521 144.668,57.6877 145.5,57C 152.014,50.3186 158.681,43.8186 165.5,37.5C 176.845,46.5202 182.511,58.1869 182.5,72.5C 174.681,75.9101 167.014,79.5767 159.5,83.5C 160.167,83.8333 160.833,84.1667 161.5,84.5C 170.257,82.4168 178.923,80.0835 187.5,77.5C 188.086,77.7093 188.586,78.0426 189,78.5C 192.44,91.3311 191.94,103.998 187.5,116.5C 179.121,116.429 170.788,115.762 162.5,114.5C 161.5,114.833 160.5,115.167 159.5,115.5C 164.9,117.935 170.567,119.602 176.5,120.5C 180.011,121.664 183.677,122.664 187.5,123.5C 185.167,136.666 178.833,147.499 168.5,156C 167.5,156.667 166.5,156.667 165.5,156C 158.989,151.577 152.655,146.911 146.5,142C 145.365,141.251 144.365,141.417 143.5,142.5C 150.126,148.624 156.626,154.958 163,161.5C 163.667,162.833 163.667,164.167 163,165.5C 153.415,174.922 141.915,179.922 128.5,180.5C 128.313,178.436 127.813,176.436 127,174.5C 123.536,168.546 120.369,162.546 117.5,156.5C 117.167,157 116.833,157.5 116.5,158C 119.483,167.415 122.149,176.915 124.5,186.5C 121.461,187.01 118.461,187.677 115.5,188.5C 109.158,188.666 102.825,188.5 96.5,188C 92.8712,187.686 89.5379,186.519 86.5,184.5C 86.142,180.599 86.142,176.599 86.5,172.5C 86.9588,167.435 86.9588,162.435 86.5,157.5C 84.3587,161.59 83.0253,165.924 82.5,170.5C 80.4127,175.174 79.0794,180.174 78.5,185.5C 65.9027,183.281 55.4027,177.281 47,167.5C 46.2086,166.255 45.7086,164.922 45.5,163.5C 50.0864,157.067 54.9197,150.734 60,144.5C 60.7494,143.365 60.5827,142.365 59.5,141.5C 52.6811,147.819 46.0144,154.319 39.5,161C 38.5,161.667 37.5,161.667 36.5,161C 27.5236,151.213 22.1903,139.713 20.5,126.5C 27.4681,123.686 34.4681,120.853 41.5,118C 43.9042,117.492 44.5709,116.325 43.5,114.5C 34.9478,117.239 26.2812,119.573 17.5,121.5C 16.8333,121.167 16.1667,120.833 15.5,120.5C 11.3277,108.395 11.661,96.3947 16.5,84.5C 25.8608,84.2388 35.1941,84.2388 44.5,84.5C 35.3428,81.2022 26.0095,78.5356 16.5,76.5C 18.86,63.315 25.1933,52.4817 35.5,44C 36.8333,43.3333 38.1667,43.3333 39.5,44C 45.6554,48.9108 51.9888,53.5774 58.5,58C 59.3317,58.6877 59.9984,58.521 60.5,57.5C 53.637,50.472 46.9703,43.3053 40.5,36C 43.6398,31.4242 47.6398,27.7575 52.5,25C 57.4375,22.0924 62.7708,20.0924 68.5,19C 70.9018,18.1859 73.2351,18.3526 75.5,19.5C 77.9074,25.3137 80.5741,30.9804 83.5,36.5C 83.9617,38.7567 84.9617,40.7567 86.5,42.5C 86.8333,41.8333 87.1667,41.1667 87.5,40.5C 84.9258,31.4646 82.5925,22.4646 80.5,13.5C 81.1667,12.8333 81.8333,12.1667 82.5,11.5C 95.0349,9.22628 107.035,10.5596 118.5,15.5 Z"/></g>
<g><path style="opacity:1" fill="#848484" d="M 78.5,11.5 C 78.5,13.1667 78.5,14.8333 78.5,16.5C 74.1311,16.4672 69.7978,16.8005 65.5,17.5C 69.1829,15.7501 73.1829,15.0834 77.5,15.5C 77.2322,13.901 77.5655,12.5676 78.5,11.5 Z"/></g>
<g><path style="opacity:1" fill="#424242" d="M 80.5,13.5 C 82.5925,22.4646 84.9258,31.4646 87.5,40.5C 87.1667,41.1667 86.8333,41.8333 86.5,42.5C 84.9617,40.7567 83.9617,38.7567 83.5,36.5C 84.6129,35.0536 84.7796,33.3869 84,31.5C 82.3706,29.2625 80.8706,26.9292 79.5,24.5C 80.8189,22.3945 80.4856,20.3945 78.5,18.5C 77.8933,18.6236 77.56,18.9569 77.5,19.5C 76.9569,19.44 76.6236,19.1067 76.5,18.5C 77.325,17.6143 78.325,17.281 79.5,17.5C 79.2322,15.901 79.5655,14.5676 80.5,13.5 Z"/></g>
<g><path style="opacity:1" fill="#969696" d="M 79.5,24.5 C 78.8333,22.8333 78.1667,21.1667 77.5,19.5C 77.56,18.9569 77.8933,18.6236 78.5,18.5C 80.4856,20.3945 80.8189,22.3945 79.5,24.5 Z"/></g>
<g><path style="opacity:1" fill="#666666" d="M 118.5,15.5 C 119.302,16.9516 119.802,18.6183 120,20.5C 120.219,19.062 120.719,17.7287 121.5,16.5C 121.833,17.3333 122.167,18.1667 122.5,19C 121.929,21.5436 121.262,24.0436 120.5,26.5C 119.732,25.7375 119.232,24.7375 119,23.5C 118.809,25.7078 118.309,27.7078 117.5,29.5C 117.669,24.8189 118.002,20.1522 118.5,15.5 Z"/></g>
<g><path style="opacity:1" fill="#373737" d="M 93.5,8.5 C 103.814,8.30117 113.647,10.3012 123,14.5C 123.483,13.552 123.649,12.552 123.5,11.5C 135.105,13.3026 145.105,18.3026 153.5,26.5C 152.833,26.5 152.5,26.8333 152.5,27.5C 147.709,23.2645 142.375,19.7645 136.5,17C 132.571,14.2953 128.738,14.1287 125,16.5C 123.85,20.1117 123.017,23.7783 122.5,27.5C 122.167,27.5 121.833,27.5 121.5,27.5C 121.5,26.8333 121.167,26.5 120.5,26.5C 121.262,24.0436 121.929,21.5436 122.5,19C 122.167,18.1667 121.833,17.3333 121.5,16.5C 120.719,17.7287 120.219,19.062 120,20.5C 119.802,18.6183 119.302,16.9516 118.5,15.5C 107.035,10.5596 95.0349,9.22628 82.5,11.5C 86.0661,10.0972 89.7328,9.09717 93.5,8.5 Z"/></g>
<g><path style="opacity:1" fill="#111111" d="M 120.5,26.5 C 121.167,26.5 121.5,26.8333 121.5,27.5C 120.626,30.7893 119.959,34.1226 119.5,37.5C 118.566,38.5676 118.232,39.901 118.5,41.5C 117.523,38.7131 117.19,35.7131 117.5,32.5C 117.5,31.5 117.5,30.5 117.5,29.5C 118.309,27.7078 118.809,25.7078 119,23.5C 119.232,24.7375 119.732,25.7375 120.5,26.5 Z"/></g>
<g><path style="opacity:1" fill="#9b9b9b" d="M 121.5,27.5 C 121.833,27.5 122.167,27.5 122.5,27.5C 122.277,31.1621 121.277,34.4954 119.5,37.5C 119.959,34.1226 120.626,30.7893 121.5,27.5 Z"/></g>
<g><path style="opacity:1" fill="#626262" d="M 117.5,32.5 C 117.19,35.7131 117.523,38.7131 118.5,41.5C 118.44,42.0431 118.107,42.3764 117.5,42.5C 116.194,39.0202 116.194,35.6868 117.5,32.5 Z"/></g>
<g><path style="opacity:1" fill="#202020" d="M 152.5,27.5 C 152.5,26.8333 152.833,26.5 153.5,26.5C 157.19,29.1907 160.19,32.524 162.5,36.5C 163.62,35.1666 164.953,34.6666 166.5,35C 178.636,45.7724 184.969,59.2724 185.5,75.5C 187.766,75.1412 189.599,75.8078 191,77.5C 195.391,92.5136 193.891,106.847 186.5,120.5C 186.624,121.107 186.957,121.44 187.5,121.5C 187.44,122.043 187.107,122.376 186.5,122.5C 185.828,121.051 185.161,119.718 184.5,118.5C 183.5,118.5 182.5,118.5 181.5,118.5C 179.712,117.378 177.712,117.211 175.5,118C 176.252,118.671 176.586,119.504 176.5,120.5C 170.567,119.602 164.9,117.935 159.5,115.5C 160.5,115.167 161.5,114.833 162.5,114.5C 170.788,115.762 179.121,116.429 187.5,116.5C 191.94,103.998 192.44,91.3311 189,78.5C 188.586,78.0426 188.086,77.7093 187.5,77.5C 178.923,80.0835 170.257,82.4168 161.5,84.5C 160.833,84.1667 160.167,83.8333 159.5,83.5C 167.014,79.5767 174.681,75.9101 182.5,72.5C 182.511,58.1869 176.845,46.5202 165.5,37.5C 158.681,43.8186 152.014,50.3186 145.5,57C 144.668,57.6877 144.002,57.521 143.5,56.5C 148.383,49.229 153.383,42.0623 158.5,35C 157.326,31.8088 155.326,29.3088 152.5,27.5 Z"/></g>
<g><path style="opacity:1" fill="#a7a7a7" d="M 180.5,75.5 C 181.552,75.3505 182.552,75.5172 183.5,76C 181.13,77.9019 178.464,78.5686 175.5,78C 177.315,77.2432 178.981,76.4098 180.5,75.5 Z"/></g>
<g><path style="opacity:1" fill="#a1a1a1" d="M 159.5,37.5 C 160.573,38.2506 160.74,39.2506 160,40.5C 158.887,42.3293 157.387,43.1626 155.5,43C 156.965,41.2258 158.298,39.3925 159.5,37.5 Z"/></g>
<g><path style="opacity:1" fill="#bbbbbb" d="M 59.5,95.5 C 59.2011,102.289 59.8678,108.956 61.5,115.5C 60.3995,113.723 59.5662,111.723 59,109.5C 58.1849,104.648 58.3516,99.9811 59.5,95.5 Z"/></g>
<g><path style="opacity:1" fill="#333333" d="M 61.5,115.5 C 59.8678,108.956 59.2011,102.289 59.5,95.5C 63.0761,71.9245 76.7428,58.9245 100.5,56.5C 130.478,59.1435 145.312,75.4769 145,105.5C 138.289,133.111 120.789,145.277 92.5,142C 78.0102,138.009 67.6769,129.176 61.5,115.5 Z"/></g>
<g><path style="opacity:1" fill="#fcfcfc" d="M 96.5,58.5 C 128.953,59.4525 144.12,76.1192 142,108.5C 134.364,132.786 117.864,143.286 92.5,140C 69.2693,131.728 59.1026,115.228 62,90.5C 67.3501,73.0947 78.8501,62.428 96.5,58.5 Z"/></g>
<g><path style="opacity:1" fill="#242424" d="M 78.5,11.5 C 79.8333,11.5 81.1667,11.5 82.5,11.5C 81.8333,12.1667 81.1667,12.8333 80.5,13.5C 79.5655,14.5676 79.2322,15.901 79.5,17.5C 78.325,17.281 77.325,17.6143 76.5,18.5C 76.6236,19.1067 76.9569,19.44 77.5,19.5C 78.1667,21.1667 78.8333,22.8333 79.5,24.5C 80.8706,26.9292 82.3706,29.2625 84,31.5C 84.7796,33.3869 84.6129,35.0536 83.5,36.5C 80.5741,30.9804 77.9074,25.3137 75.5,19.5C 73.2351,18.3526 70.9018,18.1859 68.5,19C 62.7708,20.0924 57.4375,22.0924 52.5,25C 47.6398,27.7575 43.6398,31.4242 40.5,36C 46.9703,43.3053 53.637,50.472 60.5,57.5C 59.9984,58.521 59.3317,58.6877 58.5,58C 51.9888,53.5774 45.6554,48.9108 39.5,44C 38.1667,43.3333 36.8333,43.3333 35.5,44C 25.1933,52.4817 18.86,63.315 16.5,76.5C 26.0095,78.5356 35.3428,81.2022 44.5,84.5C 35.1941,84.2388 25.8608,84.2388 16.5,84.5C 11.661,96.3947 11.3277,108.395 15.5,120.5C 16.1667,120.833 16.8333,121.167 17.5,121.5C 26.2812,119.573 34.9478,117.239 43.5,114.5C 44.5709,116.325 43.9042,117.492 41.5,118C 34.4681,120.853 27.4681,123.686 20.5,126.5C 22.1903,139.713 27.5236,151.213 36.5,161C 37.5,161.667 38.5,161.667 39.5,161C 46.0144,154.319 52.6811,147.819 59.5,141.5C 60.5827,142.365 60.7494,143.365 60,144.5C 54.9197,150.734 50.0864,157.067 45.5,163.5C 44.8333,164.167 44.1667,164.833 43.5,165.5C 42.5298,161.873 40.8631,161.539 38.5,164.5C 37.8333,164.333 37.1667,164.167 36.5,164C 25.4676,152.766 19.1343,139.266 17.5,123.5C 15.1912,124.933 13.6912,124.266 13,121.5C 9.66704,110.164 9.66704,98.8307 13,87.5C 13.8485,84.3022 15.3485,81.4689 17.5,79C 16.5838,78.6258 15.7504,78.1258 15,77.5C 16.9162,60.8645 25.0829,48.0312 39.5,39C 37.7888,37.8668 37.2888,36.3668 38,34.5C 45.5494,26.0977 54.716,20.4311 65.5,17.5C 69.7978,16.8005 74.1311,16.4672 78.5,16.5C 78.5,14.8333 78.5,13.1667 78.5,11.5 Z"/></g>
<g><path style="opacity:1" fill="#b6b6b6" d="M 18.5,79.5 C 21.2706,79.4207 23.9373,79.9207 26.5,81C 25.1667,81.1667 23.8333,81.3333 22.5,81.5C 20.6672,81.4146 19.3339,80.7479 18.5,79.5 Z"/></g>
<g><path style="opacity:1" fill="#a7a7a7" d="M 40.5,41.5 C 42.5441,42.0312 44.2107,43.1978 45.5,45C 44.8333,45.6667 44.1667,45.6667 43.5,45C 41.9371,44.2411 40.9371,43.0744 40.5,41.5 Z"/></g>
<g><path style="opacity:1" fill="#b3b3b3" d="M 23.5,121.5 C 24.8734,121.343 26.2068,121.51 27.5,122C 25.2849,123.814 22.9515,124.314 20.5,123.5C 21.6016,122.824 22.6016,122.158 23.5,121.5 Z"/></g>
<g><path style="opacity:1" fill="#9e9e9e" d="M 47.5,155.5 C 47.5769,158.025 46.4102,160.358 44,162.5C 43.3333,161.5 43.3333,160.5 44,159.5C 45.3756,158.295 46.5423,156.962 47.5,155.5 Z"/></g>
<g><path style="opacity:1" fill="#292929" d="M 181.5,118.5 C 180.761,118.369 180.094,118.536 179.5,119C 180.609,119.638 181.775,120.138 183,120.5C 184.03,120.164 184.53,119.497 184.5,118.5C 185.161,119.718 185.828,121.051 186.5,122.5C 187.107,122.376 187.44,122.043 187.5,121.5C 188.725,122.152 189.392,123.319 189.5,125C 186.5,139.844 178.667,151.344 166,159.5C 165.647,160.672 165.813,161.838 166.5,163C 163.846,168.321 159.846,172.321 154.5,175C 145.797,180.008 136.463,182.841 126.5,183.5C 126.714,185.144 126.38,186.644 125.5,188C 123.187,188.662 120.854,189.162 118.5,189.5C 117.209,189.737 116.209,189.404 115.5,188.5C 118.461,187.677 121.461,187.01 124.5,186.5C 122.149,176.915 119.483,167.415 116.5,158C 116.833,157.5 117.167,157 117.5,156.5C 120.369,162.546 123.536,168.546 127,174.5C 127.813,176.436 128.313,178.436 128.5,180.5C 141.915,179.922 153.415,174.922 163,165.5C 163.667,164.167 163.667,162.833 163,161.5C 156.626,154.958 150.126,148.624 143.5,142.5C 144.365,141.417 145.365,141.251 146.5,142C 152.655,146.911 158.989,151.577 165.5,156C 166.5,156.667 167.5,156.667 168.5,156C 178.833,147.499 185.167,136.666 187.5,123.5C 183.677,122.664 180.011,121.664 176.5,120.5C 176.586,119.504 176.252,118.671 175.5,118C 177.712,117.211 179.712,117.378 181.5,118.5 Z"/></g>
<g><path style="opacity:1" fill="#888888" d="M 156.5,153.5 C 156.897,152.475 157.563,152.308 158.5,153C 160.585,154.041 162.252,155.541 163.5,157.5C 162.998,158.521 162.332,158.688 161.5,158C 159.963,156.293 158.296,154.793 156.5,153.5 Z"/></g>
<g><path style="opacity:1" fill="#cecece" d="M 181.5,118.5 C 182.5,118.5 183.5,118.5 184.5,118.5C 184.53,119.497 184.03,120.164 183,120.5C 181.775,120.138 180.609,119.638 179.5,119C 180.094,118.536 180.761,118.369 181.5,118.5 Z"/></g>
<g><path style="opacity:1" fill="#212121" d="M 86.5,172.5 C 85.6909,174.292 85.1909,176.292 85,178.5C 84.89,174.852 84.0566,172.185 82.5,170.5C 83.0253,165.924 84.3587,161.59 86.5,157.5C 86.9588,162.435 86.9588,167.435 86.5,172.5 Z"/></g>
<g><path style="opacity:1" fill="#a4a4a4" d="M 123.5,174.5 C 125.61,176.328 126.444,178.661 126,181.5C 124.477,179.431 123.643,177.097 123.5,174.5 Z"/></g>
<g><path style="opacity:1" fill="#404040" d="M 45.5,163.5 C 45.7086,164.922 46.2086,166.255 47,167.5C 55.4027,177.281 65.9027,183.281 78.5,185.5C 79.0794,180.174 80.4127,175.174 82.5,170.5C 84.0566,172.185 84.89,174.852 85,178.5C 85.1909,176.292 85.6909,174.292 86.5,172.5C 86.142,176.599 86.142,180.599 86.5,184.5C 89.5379,186.519 92.8712,187.686 96.5,188C 102.825,188.5 109.158,188.666 115.5,188.5C 116.209,189.404 117.209,189.737 118.5,189.5C 111.345,190.655 104.012,190.822 96.5,190C 91.4141,189.201 86.5807,187.701 82,185.5C 79.3938,187.317 76.5605,187.817 73.5,187C 60.8042,183.453 50.8042,176.286 43.5,165.5C 44.1667,164.833 44.8333,164.167 45.5,163.5 Z"/></g>
<g><path style="opacity:1" fill="#b0b0b0" d="M 82.5,176.5 C 83.7928,178.364 83.7928,180.364 82.5,182.5C 82.0798,180.674 82.0798,178.674 82.5,176.5 Z"/></g>
<g><path style="opacity:1" fill="#242424" d="M 13.5,268.5 C 15.7522,269.333 17.9189,269.333 20,268.5C 22.4336,269.632 24.9336,270.632 27.5,271.5C 29.5,270.5 31.5,269.5 33.5,268.5C 37.3018,270.323 41.3018,271.323 45.5,271.5C 45.5,270.5 45.5,269.5 45.5,268.5C 49.8481,269.952 54.1814,271.619 58.5,273.5C 62.1695,271.551 66.0029,269.884 70,268.5C 74.9363,271.223 80.103,273.223 85.5,274.5C 85.4027,271.686 86.5693,269.686 89,268.5C 93.1902,270.563 97.5235,272.23 102,273.5C 106.321,271.841 110.655,270.174 115,268.5C 116.986,270.429 118.986,272.429 121,274.5C 125.333,272.5 129.667,270.5 134,268.5C 137.832,270.273 141.665,271.94 145.5,273.5C 149.387,271.974 153.22,270.307 157,268.5C 158.136,269.783 159.469,270.783 161,271.5C 164.136,270.399 167.303,269.399 170.5,268.5C 172.571,269.618 174.738,270.618 177,271.5C 179.62,270.794 182.12,269.794 184.5,268.5C 186.416,269.248 188.416,269.248 190.5,268.5C 191.833,275.833 191.833,283.167 190.5,290.5C 185.431,291.091 180.764,290.091 176.5,287.5C 174.651,289.174 172.484,290.174 170,290.5C 166.074,289.727 162.241,288.727 158.5,287.5C 158.5,288.5 158.5,289.5 158.5,290.5C 154.168,289.578 150.001,288.245 146,286.5C 141.913,287.542 137.913,288.876 134,290.5C 129.667,288.833 125.333,287.167 121,285.5C 118.829,287.198 116.662,288.865 114.5,290.5C 110.169,289.252 106.003,287.585 102,285.5C 97.6667,287.167 93.3333,288.833 89,290.5C 87.6057,289.387 86.439,288.053 85.5,286.5C 84.5539,286.013 83.5539,285.68 82.5,285.5C 77.9201,287.081 73.4201,288.747 69,290.5C 65.2116,289.022 61.3783,287.688 57.5,286.5C 53.4887,287.841 49.4887,289.174 45.5,290.5C 45.5,289.5 45.5,288.5 45.5,287.5C 41.4142,288.083 37.4142,289.083 33.5,290.5C 31.5229,289.54 29.5229,288.54 27.5,287.5C 23.1559,289.96 18.4892,290.96 13.5,290.5C 12.2101,283.159 12.2101,275.826 13.5,268.5 Z"/></g>
<g><path style="opacity:1" fill="#bababa" d="M 107.5,285.5 C 110.287,284.523 113.287,284.19 116.5,284.5C 116.853,286.635 116.02,287.968 114,288.5C 111.747,287.623 109.581,286.623 107.5,285.5 Z"/></g>
<g><path style="opacity:1" fill="#e4e4e4" d="M 64.5,286.5 C 67.8333,285.167 71.1667,285.167 74.5,286.5C 71.212,288.971 67.8787,288.971 64.5,286.5 Z"/></g>
<g><path style="opacity:1" fill="#c0c0c0" d="M 39.5,284.5 C 40.8734,284.343 42.2068,284.51 43.5,285C 40.4675,286.389 37.3008,287.555 34,288.5C 32.9412,288.37 32.1079,287.87 31.5,287C 34.166,285.939 36.8327,285.106 39.5,284.5 Z"/></g>
<g><path style="opacity:1" fill="#959595" d="M 74.5,286.5 C 71.1667,285.167 67.8333,285.167 64.5,286.5C 63.9569,286.44 63.6236,286.107 63.5,285.5C 67.8333,284.167 72.1667,284.167 76.5,285.5C 76.0431,286.298 75.3764,286.631 74.5,286.5 Z"/></g>
<g><path style="opacity:1" fill="#d7d7d7" d="M 182.5,281.5 C 184.5,281.833 186.5,282.167 188.5,282.5C 188.799,284.604 188.466,286.604 187.5,288.5C 184.71,287.803 182.043,286.803 179.5,285.5C 180.524,284.148 181.524,282.815 182.5,281.5 Z"/></g>
<g><path style="opacity:1" fill="#e5e5e5" d="M 157.5,279.5 C 161.235,280.301 164.901,281.301 168.5,282.5C 168.5,284.167 168.5,285.833 168.5,287.5C 163.32,286.998 158.653,285.331 154.5,282.5C 155.77,281.712 156.77,280.712 157.5,279.5 Z"/></g>
<g><path style="opacity:1" fill="#474747" d="M 73.5,275.5 C 75.2959,276.793 76.9625,278.293 78.5,280C 79.448,280.483 80.448,280.649 81.5,280.5C 81.5,279.167 81.5,277.833 81.5,276.5C 82.4511,277.919 82.7845,279.585 82.5,281.5C 75.9949,283.41 69.3282,283.91 62.5,283C 63.2438,281.961 64.2438,281.461 65.5,281.5C 69.3112,282.645 73.3112,282.812 77.5,282C 76.2899,280.961 75.2899,279.794 74.5,278.5C 73.8902,277.609 73.5569,276.609 73.5,275.5 Z"/></g>
<g><path style="opacity:1" fill="#dddddd" d="M 115.5,279.5 C 117.048,279.821 117.715,280.821 117.5,282.5C 114.813,282.664 112.146,282.497 109.5,282C 111.611,281.155 113.611,280.322 115.5,279.5 Z"/></g>
<g><path style="opacity:1" fill="#dcdcdc" d="M 74.5,278.5 C 75.2899,279.794 76.2899,280.961 77.5,282C 73.3112,282.812 69.3112,282.645 65.5,281.5C 68.2854,279.905 71.2854,278.905 74.5,278.5 Z"/></g>
<g><path style="opacity:1" fill="#e3e3e3" d="M 182.5,272.5 C 183.649,272.791 184.316,273.624 184.5,275C 181.68,280.827 177.347,284.827 171.5,287C 170.446,285.612 170.28,284.112 171,282.5C 175.186,279.503 179.019,276.17 182.5,272.5 Z"/></g>
<g><path style="opacity:1" fill="#d7d7d7" d="M 122.5,278.5 C 125.663,279.321 128.33,280.988 130.5,283.5C 131.645,284.891 131.645,286.224 130.5,287.5C 128.063,286.074 125.563,284.741 123,283.5C 122.506,281.866 122.34,280.199 122.5,278.5 Z"/></g>
<g><path style="opacity:1" fill="#d8d8d8" d="M 34.5,278.5 C 37.6768,279.447 40.6768,280.781 43.5,282.5C 37.7578,283.366 32.0911,284.199 26.5,285C 29.3553,282.969 32.022,280.803 34.5,278.5 Z"/></g>
<g><path style="opacity:1" fill="#d4d4d4" d="M 15.5,278.5 C 16.9953,278.415 17.9953,279.081 18.5,280.5C 17.2643,282.311 17.2643,284.144 18.5,286C 17.9681,288.02 16.6348,288.853 14.5,288.5C 14.3424,285.098 14.6758,281.764 15.5,278.5 Z"/></g>
<g><path style="opacity:1" fill="#dadada" d="M 186.5,270.5 C 187.5,270.5 188.5,270.5 189.5,270.5C 189.664,273.187 189.497,275.854 189,278.5C 188.174,280.405 187.007,280.739 185.5,279.5C 186.407,276.579 186.74,273.579 186.5,270.5 Z"/></g>
<g><path style="opacity:1" fill="#dddddd" d="M 125.5,277.5 C 130.316,276.35 135.316,276.184 140.5,277C 137.534,278.266 134.534,279.433 131.5,280.5C 129.506,279.511 127.506,278.511 125.5,277.5 Z"/></g>
<g><path style="opacity:1" fill="#dadada" d="M 86.5,276.5 C 89.8499,276.335 93.1832,276.502 96.5,277C 93.5,278.5 90.5,280 87.5,281.5C 86.5481,279.955 86.2148,278.288 86.5,276.5 Z"/></g>
<g><path style="opacity:1" fill="#e1e1e1" d="M 176.5,273.5 C 177.239,273.369 177.906,273.536 178.5,274C 174.924,277.959 170.59,279.959 165.5,280C 163.668,279.252 162.001,278.252 160.5,277C 166.111,276.514 171.444,275.347 176.5,273.5 Z"/></g>
<g><path style="opacity:1" fill="#e6e6e6" d="M 81.5,276.5 C 81.5,277.833 81.5,279.167 81.5,280.5C 80.448,280.649 79.448,280.483 78.5,280C 76.9625,278.293 75.2959,276.793 73.5,275.5C 73.5858,274.504 73.2524,273.671 72.5,273C 73,272.833 73.5,272.667 74,272.5C 76.498,273.997 78.998,275.33 81.5,276.5 Z"/></g>
<g><path style="opacity:1" fill="#ebebeb" d="M 155.5,271.5 C 157.969,272.607 158.969,274.607 158.5,277.5C 151.295,280.101 144.295,283.267 137.5,287C 136.207,287.49 134.873,287.657 133.5,287.5C 132.862,285.54 132.862,283.707 133.5,282C 141.272,279.147 148.605,275.647 155.5,271.5 Z"/></g>
<g><path style="opacity:1" fill="#d7d7d7" d="M 132.5,270.5 C 135.254,271.366 137.921,272.533 140.5,274C 136.167,274.667 131.833,274.667 127.5,274C 129.233,272.811 130.9,271.644 132.5,270.5 Z"/></g>
<g><path style="opacity:1" fill="#d3d3d3" d="M 88.5,271.5 C 91.4245,271.46 94.0912,272.293 96.5,274C 93.4459,274.821 90.4459,274.655 87.5,273.5C 87.8627,272.817 88.1961,272.15 88.5,271.5 Z"/></g>
<g><path style="opacity:1" fill="#e8e8e8" d="M 31.5,271.5 C 32.6935,271.97 33.3601,272.97 33.5,274.5C 33.3333,275.5 33.1667,276.5 33,277.5C 28.7171,280.115 24.7171,283.115 21,286.5C 20.1923,284.421 20.359,282.421 21.5,280.5C 24.879,277.449 28.2123,274.449 31.5,271.5 Z"/></g>
<g><path style="opacity:1" fill="#cccccc" d="M 165.5,271.5 C 167.924,271.192 170.257,271.526 172.5,272.5C 168.601,273.984 164.601,274.484 160.5,274C 162.491,273.626 164.158,272.793 165.5,271.5 Z"/></g>
<g><path style="opacity:1" fill="#eaeaea" d="M 111.5,271.5 C 116.159,271.015 117.492,272.848 115.5,277C 106.438,280.869 97.4376,284.703 88.5,288.5C 87.8617,286.54 87.8617,284.707 88.5,283C 96.5375,279.648 104.204,275.815 111.5,271.5 Z"/></g>
<g><path style="opacity:1" fill="#e9e9e9" d="M 66.5,271.5 C 70.6917,271.403 72.0251,273.236 70.5,277C 63.0452,280.227 55.7119,283.727 48.5,287.5C 46.3771,285.878 46.0437,283.878 47.5,281.5C 54.0528,278.392 60.3861,275.059 66.5,271.5 Z"/></g>
<g><path style="opacity:1" fill="#e9e9e9" d="M 35.5,271.5 C 40.164,273.165 44.8307,274.832 49.5,276.5C 48.2034,278.4 46.37,279.4 44,279.5C 41.5284,278.678 39.0284,278.011 36.5,277.5C 36.1667,275.5 35.8333,273.5 35.5,271.5 Z"/></g>
<g><path style="opacity:1" fill="#e7e7e7" d="M 16.5,271.5 C 19.3626,271.929 22.0293,272.929 24.5,274.5C 22.9124,277.257 20.579,278.09 17.5,277C 16.5939,275.301 16.2606,273.467 16.5,271.5 Z"/></g>
</svg>
