<?xml version="1.0" encoding="UTF-8"?>
<!DOCTYPE svg PUBLIC "-//W3C//DTD SVG 1.1//EN" "http://www.w3.org/Graphics/SVG/1.1/DTD/svg11.dtd">
<svg xmlns="http://www.w3.org/2000/svg" version="1.1" width="208px" height="297px" style="shape-rendering:geometricPrecision; text-rendering:geometricPrecision; image-rendering:optimizeQuality; fill-rule:evenodd; clip-rule:evenodd" xmlns:xlink="http://www.w3.org/1999/xlink">
<g><path style="opacity:1" fill="#fdfdfd" d="M -0.5,-0.5 C 68.8333,-0.5 138.167,-0.5 207.5,-0.5C 207.5,98.5 207.5,197.5 207.5,296.5C 138.167,296.5 68.8333,296.5 -0.5,296.5C -0.5,197.5 -0.5,98.5 -0.5,-0.5 Z"/></g>
<g><path style="opacity:1" fill="#3b3b3b" d="M 168.5,29.5 C 167.833,29.5 167.5,29.8333 167.5,30.5C 158.947,22.7226 149.28,16.7226 138.5,12.5C 135.916,10.5275 132.916,9.52751 129.5,9.5C 99.4468,2.3361 72.4468,8.3361 48.5,27.5C 48.5,26.8333 48.1667,26.5 47.5,26.5C 70.5831,6.17024 97.2498,-0.329762 127.5,7C 134.985,9.03439 142.318,11.3677 149.5,14C 154.167,17.3333 158.833,20.6667 163.5,24C 165.373,25.7038 167.04,27.5372 168.5,29.5 Z"/></g>
<g><path style="opacity:1" fill="#f8f8f8" d="M 129.5,9.5 C 132.215,11.0719 135.215,12.0719 138.5,12.5C 149.28,16.7226 158.947,22.7226 167.5,30.5C 191.204,54.1224 199.704,82.4557 193,115.5C 187.868,134.449 178.035,150.449 163.5,163.5C 133.538,184.613 101.538,188.279 67.5,174.5C 39.8607,159.675 23.6941,136.675 19,105.5C 16.1287,74.6042 25.9621,48.6042 48.5,27.5C 72.4468,8.3361 99.4468,2.3361 129.5,9.5 Z"/></g>
<g><path style="opacity:1" fill="#838383" d="M 129.5,9.5 C 132.916,9.52751 135.916,10.5275 138.5,12.5C 135.215,12.0719 132.215,11.0719 129.5,9.5 Z"/></g>
<g><path style="opacity:1" fill="#747474" d="M 93.5,26.5 C 92.7321,25.7375 92.2321,24.7375 92,23.5C 91.5017,26.8168 91.335,30.1501 91.5,33.5C 90.5184,30.0381 90.185,26.3714 90.5,22.5C 91.5,22.5 92.5,22.5 93.5,22.5C 93.5,23.8333 93.5,25.1667 93.5,26.5 Z"/></g>
<g><path style="opacity:1" fill="#191919" d="M 117.5,41.5 C 116.029,39.7844 115.029,37.7844 114.5,35.5C 116.044,31.3683 117.877,27.3683 120,23.5C 119.501,29.499 118.668,35.499 117.5,41.5 Z"/></g>
<g><path style="opacity:1" fill="#919191" d="M 93.5,27.5 C 94.9238,29.5145 95.5905,31.8478 95.5,34.5C 94.0762,32.4855 93.4095,30.1522 93.5,27.5 Z"/></g>
<g><path style="opacity:1" fill="#252525" d="M 47.5,26.5 C 48.1667,26.5 48.5,26.8333 48.5,27.5C 25.9621,48.6042 16.1287,74.6042 19,105.5C 23.6941,136.675 39.8607,159.675 67.5,174.5C 67.1583,175.338 66.4916,175.672 65.5,175.5C 38.8631,160.99 22.6964,138.657 17,108.5C 12.9276,75.6819 23.0942,48.3486 47.5,26.5 Z"/></g>
<g><path style="opacity:1" fill="#252525" d="M 167.5,30.5 C 167.5,29.8333 167.833,29.5 168.5,29.5C 191.889,51.4977 201.056,78.4977 196,110.5C 192.007,132.851 181.174,150.851 163.5,164.5C 163.5,164.167 163.5,163.833 163.5,163.5C 178.035,150.449 187.868,134.449 193,115.5C 199.704,82.4557 191.204,54.1224 167.5,30.5 Z"/></g>
<g><path style="opacity:1" fill="#242424" d="M 93.5,26.5 C 93.5,26.8333 93.5,27.1667 93.5,27.5C 93.4095,30.1522 94.0762,32.4855 95.5,34.5C 96.4997,39.1656 97.4997,43.8322 98.5,48.5C 100.003,49.0522 101.669,49.0522 103.5,48.5C 105.833,48.5 108.167,48.5 110.5,48.5C 110.5,47.5 110.5,46.5 110.5,45.5C 111.508,43.4561 112.508,41.4561 113.5,39.5C 113.171,42.3266 113.171,45.3266 113.5,48.5C 114.624,46.6314 115.457,44.6314 116,42.5C 116.464,43.0944 116.631,43.7611 116.5,44.5C 116.167,46.5 115.833,48.5 115.5,50.5C 119.956,50.591 124.29,51.091 128.5,52C 134.011,45.6573 139.677,39.4907 145.5,33.5C 146.583,34.365 146.749,35.365 146,36.5C 141.304,43.0301 136.804,49.6968 132.5,56.5C 135.735,58.7048 138.902,61.0382 142,63.5C 150.195,59.9874 158.362,56.3207 166.5,52.5C 167.594,53.868 167.26,55.0347 165.5,56C 158.328,60.4186 151.328,65.0852 144.5,70C 147.361,72.2194 149.361,75.0527 150.5,78.5C 156.128,79.4954 161.794,79.8288 167.5,79.5C 171.182,79.3347 174.848,79.5014 178.5,80C 177.944,80.3826 177.611,80.8826 177.5,81.5C 168.835,82.8331 160.168,84.1664 151.5,85.5C 152.742,89.7429 153.742,94.0762 154.5,98.5C 163.026,101.451 171.36,104.784 179.5,108.5C 178.667,108.833 177.833,109.167 177,109.5C 168.499,107.719 159.999,106.052 151.5,104.5C 150.778,108.114 149.778,111.781 148.5,115.5C 149.188,116.855 150.188,117.855 151.5,118.5C 157.173,123.84 162.839,129.173 168.5,134.5C 167.635,135.583 166.635,135.749 165.5,135C 158.638,129.972 151.638,125.138 144.5,120.5C 142.659,124.183 140.326,127.516 137.5,130.5C 152.855,162.307 151.188,163.307 132.5,133.5C 132.196,132.85 131.863,132.183 131.5,131.5C 132.949,130.828 134.282,130.161 135.5,129.5C 138.584,126.336 140.918,122.67 142.5,118.5C 144.053,117.561 145.387,116.394 146.5,115C 147.825,110.581 148.825,106.081 149.5,101.5C 150.086,101.291 150.586,100.957 151,100.5C 152.102,95.816 151.436,91.4826 149,87.5C 150.156,80.5108 147.823,74.8441 142,70.5C 142.053,67.3873 140.886,64.8873 138.5,63C 133.153,60.9055 128.487,57.9055 124.5,54C 118.58,52.8699 112.746,51.7032 107,50.5C 103.52,50.4523 100.187,51.119 97,52.5C 96.1268,52.2645 95.2935,51.9312 94.5,51.5C 88.9662,54.0984 83.6328,56.9317 78.5,60C 74.619,62.9276 72.119,66.7609 71,71.5C 68.4054,72.2309 66.7387,73.8975 66,76.5C 64.9764,82.4366 63.8097,88.27 62.5,94C 63.5723,99.4582 64.4057,104.958 65,110.5C 66.2305,113.732 68.2305,116.399 71,118.5C 71.2022,120.256 71.7022,121.922 72.5,123.5C 76.6322,127.4 80.9655,131.067 85.5,134.5C 86.4168,135.127 87.4168,135.461 88.5,135.5C 91.8448,137.217 95.5115,137.884 99.5,137.5C 101.159,138.97 103.159,139.637 105.5,139.5C 111.08,138.102 116.746,137.436 122.5,137.5C 121.86,146.266 121.193,154.932 120.5,163.5C 119.013,158.29 118.013,152.957 117.5,147.5C 117.369,146.761 117.536,146.094 118,145.5C 118.219,146.938 118.719,148.271 119.5,149.5C 120.655,146.554 120.821,143.554 120,140.5C 119.586,140.043 119.086,139.709 118.5,139.5C 117.719,140.729 117.219,142.062 117,143.5C 116.768,142.263 116.268,141.263 115.5,140.5C 111.19,141.08 106.857,141.414 102.5,141.5C 102.634,143.292 102.301,144.958 101.5,146.5C 100.392,145.177 100.392,143.677 101.5,142C 100.99,140.174 100.156,140.007 99,141.5C 98.5639,143.847 98.0639,146.181 97.5,148.5C 98.1953,149.476 98.862,150.476 99.5,151.5C 98.2614,156.77 96.2614,161.77 93.5,166.5C 93.1667,165.333 92.8333,164.167 92.5,163C 93.6191,159.592 94.2857,156.092 94.5,152.5C 95.9238,150.485 96.5905,148.152 96.5,145.5C 96.5,145.167 96.5,144.833 96.5,144.5C 97.4614,142.735 97.7947,140.735 97.5,138.5C 95.5,138.5 93.5,138.5 91.5,138.5C 89.1806,137.833 86.8473,137.666 84.5,138C 62.8475,163.105 61.3475,161.939 80,134.5C 80.6667,133.833 80.6667,133.167 80,132.5C 76.8793,130.36 73.7126,128.36 70.5,126.5C 63.396,129.52 56.396,132.686 49.5,136C 48.365,136.749 47.365,136.583 46.5,135.5C 53.8333,130.167 61.1667,124.833 68.5,119.5C 66.3328,117.17 64.6662,114.503 63.5,111.5C 54.1667,110.833 44.8333,110.167 35.5,109.5C 43.7738,107.396 52.1072,105.396 60.5,103.5C 60.9976,99.5751 60.9976,95.5751 60.5,91.5C 52.1981,88.6879 43.8647,85.8546 35.5,83C 34.0977,81.6575 34.4311,80.8242 36.5,80.5C 45.0239,82.9382 53.6906,84.6048 62.5,85.5C 62.7174,81.3921 63.2174,77.3921 64,73.5C 57.9588,67.2911 51.7921,61.2911 45.5,55.5C 46.79,54.5923 48.1233,54.759 49.5,56C 55.9129,60.6233 62.4129,65.1233 69,69.5C 70.665,65.4982 72.8316,61.8315 75.5,58.5C 61.4741,28.0295 63.1408,27.0295 80.5,55.5C 81,55.8333 81.5,56.1667 82,56.5C 84.5731,53.6309 87.7397,51.9642 91.5,51.5C 91.5,45.5 91.5,39.5 91.5,33.5C 91.335,30.1501 91.5017,26.8168 92,23.5C 92.2321,24.7375 92.7321,25.7375 93.5,26.5 Z"/></g>
<g><path style="opacity:1" fill="#9a9a9a" d="M 74.5,50.5 C 76.3031,52.4813 77.9697,54.648 79.5,57C 78.552,57.4828 77.552,57.6495 76.5,57.5C 75.8333,55.1667 75.1667,52.8333 74.5,50.5 Z"/></g>
<g><path style="opacity:1" fill="#a0a0a0" d="M 134.5,47.5 C 135.095,50.3211 133.929,52.6545 131,54.5C 131.066,51.6999 132.233,49.3666 134.5,47.5 Z"/></g>
<g><path style="opacity:1" fill="#fcfcfc" d="M 135.5,129.5 C 133.712,129.215 132.045,129.548 130.5,130.5C 127.97,133.181 125.304,135.514 122.5,137.5C 116.746,137.436 111.08,138.102 105.5,139.5C 103.159,139.637 101.159,138.97 99.5,137.5C 96.0264,136.475 92.3597,135.808 88.5,135.5C 87.4168,135.461 86.4168,135.127 85.5,134.5C 80.9655,131.067 76.6322,127.4 72.5,123.5C 71.7022,121.922 71.2022,120.256 71,118.5C 68.2305,116.399 66.2305,113.732 65,110.5C 64.4057,104.958 63.5723,99.4582 62.5,94C 63.8097,88.27 64.9764,82.4366 66,76.5C 66.7387,73.8975 68.4054,72.2309 71,71.5C 72.119,66.7609 74.619,62.9276 78.5,60C 83.6328,56.9317 88.9662,54.0984 94.5,51.5C 95.2935,51.9312 96.1268,52.2645 97,52.5C 100.187,51.119 103.52,50.4523 107,50.5C 112.746,51.7032 118.58,52.8699 124.5,54C 128.487,57.9055 133.153,60.9055 138.5,63C 140.886,64.8873 142.053,67.3873 142,70.5C 147.823,74.8441 150.156,80.5108 149,87.5C 151.436,91.4826 152.102,95.816 151,100.5C 150.586,100.957 150.086,101.291 149.5,101.5C 148.825,106.081 147.825,110.581 146.5,115C 145.387,116.394 144.053,117.561 142.5,118.5C 140.918,122.67 138.584,126.336 135.5,129.5 Z"/></g>
<g><path style="opacity:1" fill="#9f9f9f" d="M 110.5,45.5 C 110.5,46.5 110.5,47.5 110.5,48.5C 108.167,48.5 105.833,48.5 103.5,48.5C 105.974,47.8953 108.307,46.8953 110.5,45.5 Z"/></g>
<g><path style="opacity:1" fill="#969696" d="M 93.5,41.5 C 95.5567,43.8569 95.89,46.5236 94.5,49.5C 93.52,46.9135 93.1866,44.2469 93.5,41.5 Z"/></g>
<g><path style="opacity:1" fill="#676767" d="M 114.5,35.5 C 115.029,37.7844 116.029,39.7844 117.5,41.5C 117.737,42.791 117.404,43.791 116.5,44.5C 116.631,43.7611 116.464,43.0944 116,42.5C 115.457,44.6314 114.624,46.6314 113.5,48.5C 113.171,45.3266 113.171,42.3266 113.5,39.5C 113.232,37.901 113.566,36.5676 114.5,35.5 Z"/></g>
<g><path style="opacity:1" fill="#a7a7a7" d="M 150.5,61.5 C 152.379,61.3932 152.712,61.8932 151.5,63C 149.167,64.5 146.833,66 144.5,67.5C 144.167,67.1667 143.833,66.8333 143.5,66.5C 145.687,64.5784 148.02,62.9117 150.5,61.5 Z"/></g>
<g><path style="opacity:1" fill="#b5b5b5" d="M 61.5,68.5 C 61.56,67.9569 61.8933,67.6236 62.5,67.5C 64.1667,68.6667 65.8333,69.8333 67.5,71C 66.5,71.6667 65.5,71.6667 64.5,71C 63.6266,69.955 62.6266,69.1217 61.5,68.5 Z"/></g>
<g><path style="opacity:1" fill="#8e8e8e" d="M 167.5,79.5 C 171.298,78.5166 175.298,78.1832 179.5,78.5C 179.715,80.1788 179.048,81.1788 177.5,81.5C 177.611,80.8826 177.944,80.3826 178.5,80C 174.848,79.5014 171.182,79.3347 167.5,79.5 Z"/></g>
<g><path style="opacity:1" fill="#c0c0c0" d="M 152.5,81.5 C 155.518,81.3354 158.518,81.502 161.5,82C 158.199,82.9967 154.866,83.3301 151.5,83C 152.056,82.6174 152.389,82.1174 152.5,81.5 Z"/></g>
<g><path style="opacity:1" fill="#a7a7a7" d="M 50.5,86.5 C 53.9751,85.5264 57.3084,86.1931 60.5,88.5C 60.1667,88.8333 59.8333,89.1667 59.5,89.5C 56.5504,88.2946 53.5504,87.2946 50.5,86.5 Z"/></g>
<g><path style="opacity:1" fill="#b4b4b4" d="M 152.5,100.5 C 155.311,100.826 157.978,101.659 160.5,103C 158.473,103.498 156.473,103.331 154.5,102.5C 153.287,102.253 152.62,101.586 152.5,100.5 Z"/></g>
<g><path style="opacity:1" fill="#868686" d="M 59.5,105.5 C 61.9424,105.354 62.6091,106.187 61.5,108C 57.8333,108.667 54.1667,108.667 50.5,108C 53.6282,107.159 56.6282,106.325 59.5,105.5 Z"/></g>
<g><path style="opacity:1" fill="#b9b9b9" d="M 151.5,104.5 C 151.109,109.259 151.109,113.925 151.5,118.5C 150.188,117.855 149.188,116.855 148.5,115.5C 149.778,111.781 150.778,108.114 151.5,104.5 Z"/></g>
<g><path style="opacity:1" fill="#9b9b9b" d="M 146.5,119.5 C 147.251,118.427 148.251,118.26 149.5,119C 150.833,120.333 152.167,121.667 153.5,123C 151.139,122.202 148.806,121.035 146.5,119.5 Z"/></g>
<g><path style="opacity:1" fill="#a3a3a3" d="M 67.5,122.5 C 69.5492,122.706 69.8825,123.539 68.5,125C 66.5979,126.301 64.5979,126.968 62.5,127C 64.2395,125.483 65.9062,123.983 67.5,122.5 Z"/></g>
<g><path style="opacity:1" fill="#4d4d4d" d="M 135.5,129.5 C 134.282,130.161 132.949,130.828 131.5,131.5C 131.863,132.183 132.196,132.85 132.5,133.5C 129.305,135.353 126.139,137.353 123,139.5C 122.832,148.518 122.332,157.518 121.5,166.5C 120.614,165.675 120.281,164.675 120.5,163.5C 121.193,154.932 121.86,146.266 122.5,137.5C 125.304,135.514 127.97,133.181 130.5,130.5C 132.045,129.548 133.712,129.215 135.5,129.5 Z"/></g>
<g><path style="opacity:1" fill="#9f9f9f" d="M 134.5,132.5 C 137.452,133.399 138.619,135.399 138,138.5C 136.558,136.609 135.391,134.609 134.5,132.5 Z"/></g>
<g><path style="opacity:1" fill="#999999" d="M 81.5,134.5 C 83.2252,134.843 83.7252,135.843 83,137.5C 81.6667,138.833 80.3333,140.167 79,141.5C 79.7559,139.285 80.5892,136.951 81.5,134.5 Z"/></g>
<g><path style="opacity:1" fill="#a5a5a5" d="M 88.5,135.5 C 92.3597,135.808 96.0264,136.475 99.5,137.5C 95.5115,137.884 91.8448,137.217 88.5,135.5 Z"/></g>
<g><path style="opacity:1" fill="#727272" d="M 91.5,138.5 C 93.5,138.5 95.5,138.5 97.5,138.5C 97.7947,140.735 97.4614,142.735 96.5,144.5C 96.5,142.833 96.5,141.167 96.5,139.5C 94.5853,139.784 92.9187,139.451 91.5,138.5 Z"/></g>
<g><path style="opacity:1" fill="#5e5e5e" d="M 101.5,146.5 C 101.204,148.403 100.537,150.07 99.5,151.5C 98.862,150.476 98.1953,149.476 97.5,148.5C 98.0639,146.181 98.5639,143.847 99,141.5C 100.156,140.007 100.99,140.174 101.5,142C 100.392,143.677 100.392,145.177 101.5,146.5 Z"/></g>
<g><path style="opacity:1" fill="#707070" d="M 117.5,147.5 C 116.076,145.485 115.41,143.152 115.5,140.5C 116.268,141.263 116.768,142.263 117,143.5C 117.219,142.062 117.719,140.729 118.5,139.5C 119.086,139.709 119.586,140.043 120,140.5C 120.821,143.554 120.655,146.554 119.5,149.5C 118.719,148.271 118.219,146.938 118,145.5C 117.536,146.094 117.369,146.761 117.5,147.5 Z"/></g>
<g><path style="opacity:1" fill="#9c9c9c" d="M 96.5,145.5 C 96.5905,148.152 95.9238,150.485 94.5,152.5C 94.4095,149.848 95.0762,147.515 96.5,145.5 Z"/></g>
<g><path style="opacity:1" fill="#3c3c3c" d="M 163.5,163.5 C 163.5,163.833 163.5,164.167 163.5,164.5C 153.65,173.094 142.317,179.094 129.5,182.5C 123.651,183.196 117.984,184.196 112.5,185.5C 105.11,185.764 97.7771,185.43 90.5,184.5C 88.8984,182.926 86.8984,182.259 84.5,182.5C 77.5491,181.476 71.2157,179.142 65.5,175.5C 66.4916,175.672 67.1583,175.338 67.5,174.5C 101.538,188.279 133.538,184.613 163.5,163.5 Z"/></g>
<g><path style="opacity:1" fill="#9b9b9b" d="M 84.5,182.5 C 86.8984,182.259 88.8984,182.926 90.5,184.5C 88.1016,184.741 86.1016,184.074 84.5,182.5 Z"/></g>
<g><path style="opacity:1" fill="#a6a6a6" d="M 129.5,182.5 C 129.082,183.222 128.416,183.722 127.5,184C 122.536,184.912 117.536,185.412 112.5,185.5C 117.984,184.196 123.651,183.196 129.5,182.5 Z"/></g>
<g><path style="opacity:1" fill="#4c4c4c" d="M 52.5,274.5 C 54.8097,273.836 57.3097,273.503 60,273.5C 62.9294,273.525 65.4294,274.191 67.5,275.5C 62.5947,274.555 57.5947,274.221 52.5,274.5 Z"/></g>
<g><path style="opacity:1" fill="#111111" d="M 146.5,275.5 C 149.962,274.518 153.629,274.185 157.5,274.5C 170.442,276.081 183.442,276.748 196.5,276.5C 196.81,279.713 196.477,282.713 195.5,285.5C 195.5,282.833 195.5,280.167 195.5,277.5C 191.774,277.177 188.107,277.511 184.5,278.5C 184.624,279.107 184.957,279.44 185.5,279.5C 186.5,281.167 187.833,282.5 189.5,283.5C 189.5,283.833 189.5,284.167 189.5,284.5C 189.062,285.506 188.396,285.506 187.5,284.5C 187.5,283.833 187.167,283.5 186.5,283.5C 184.691,282.519 183.357,281.019 182.5,279C 178.514,278.501 174.514,278.334 170.5,278.5C 169.5,278.5 168.5,278.5 167.5,278.5C 167.167,278.5 166.833,278.5 166.5,278.5C 162.649,277.191 158.649,277.191 154.5,278.5C 152.4,280.731 152.067,283.064 153.5,285.5C 153.5,286.5 153.5,287.5 153.5,288.5C 151.167,288.5 148.833,288.5 146.5,288.5C 146.47,287.503 146.97,286.836 148,286.5C 149.3,287.452 150.467,287.452 151.5,286.5C 150.388,285.735 149.721,284.735 149.5,283.5C 150.622,281.712 150.789,279.712 150,277.5C 149.329,276.748 148.496,276.414 147.5,276.5C 147.5,275.833 147.167,275.5 146.5,275.5 Z"/></g>
<g><path style="opacity:1" fill="#202020" d="M 52.5,274.5 C 57.5947,274.221 62.5947,274.555 67.5,275.5C 69.5,275.167 71.5,274.833 73.5,274.5C 74.8734,274.343 76.2068,274.51 77.5,275C 76.5842,275.278 75.9175,275.778 75.5,276.5C 75.5,277.167 75.1667,277.5 74.5,277.5C 73.8333,277.167 73.1667,276.833 72.5,276.5C 71.1667,276.5 69.8333,276.5 68.5,276.5C 68.5,277.5 68.5,278.5 68.5,279.5C 70.4318,280.976 70.7652,282.643 69.5,284.5C 66.3178,285.14 65.9845,286.14 68.5,287.5C 62.69,288.49 56.69,288.823 50.5,288.5C 39.1813,287.778 27.8479,287.445 16.5,287.5C 16.5,283.833 16.5,280.167 16.5,276.5C 28.5911,276.83 40.5911,276.163 52.5,274.5 Z"/></g>
<g><path style="opacity:1" fill="#eeeeee" d="M 41.5,283.5 C 37.9674,284.715 34.3008,284.715 30.5,283.5C 24.7484,279.991 25.2484,278.324 32,278.5C 36.4475,277.789 39.6142,279.456 41.5,283.5 Z"/></g>
<g><path style="opacity:1" fill="#f3f3f3" d="M 56.5,283.5 C 53.3752,284.479 50.0419,284.813 46.5,284.5C 44.3702,282.873 42.3702,281.04 40.5,279C 46.9268,277.21 52.2602,278.71 56.5,283.5 Z"/></g>
<g><path style="opacity:1" fill="#959595" d="M 72.5,276.5 C 71.7377,278.262 70.4044,279.262 68.5,279.5C 68.5,278.5 68.5,277.5 68.5,276.5C 69.8333,276.5 71.1667,276.5 72.5,276.5 Z"/></g>
<g><path style="opacity:1" fill="#a4a4a4" d="M 146.5,275.5 C 147.167,275.5 147.5,275.833 147.5,276.5C 144.965,280.772 143.632,280.439 143.5,275.5C 144.5,275.5 145.5,275.5 146.5,275.5 Z"/></g>
<g><path style="opacity:1" fill="#efefef" d="M 166.5,278.5 C 166.833,278.5 167.167,278.5 167.5,278.5C 169.167,280.5 170.833,282.5 172.5,284.5C 168.434,284.693 164.434,284.36 160.5,283.5C 158.855,282.521 157.521,281.188 156.5,279.5C 159.768,278.513 163.102,278.18 166.5,278.5 Z"/></g>
<g><path style="opacity:1" fill="#c5c5c5" d="M 64.5,277.5 C 68.4388,279.702 68.4388,282.035 64.5,284.5C 63.4249,282.189 63.4249,279.856 64.5,277.5 Z"/></g>
<g><path style="opacity:1" fill="#bfbfbf" d="M 54.5,277.5 C 56.5,277.5 58.5,277.5 60.5,277.5C 60.7989,279.604 60.4656,281.604 59.5,283.5C 57.0623,282.069 55.3956,280.069 54.5,277.5 Z"/></g>
<g><path style="opacity:1" fill="#3c3c3c" d="M 166.5,278.5 C 163.102,278.18 159.768,278.513 156.5,279.5C 157.521,281.188 158.855,282.521 160.5,283.5C 160.5,283.833 160.5,284.167 160.5,284.5C 159.833,284.833 159.167,285.167 158.5,285.5C 157.785,283.44 156.451,281.774 154.5,280.5C 153.548,282.045 153.215,283.712 153.5,285.5C 152.067,283.064 152.4,280.731 154.5,278.5C 158.649,277.191 162.649,277.191 166.5,278.5 Z"/></g>
<g><path style="opacity:1" fill="#dfdfdf" d="M 18.5,278.5 C 22.5473,279.195 25.8806,281.195 28.5,284.5C 25.2317,285.487 21.8984,285.82 18.5,285.5C 18.5,283.167 18.5,280.833 18.5,278.5 Z"/></g>
<g><path style="opacity:1" fill="#969696" d="M 30.5,283.5 C 34.3008,284.715 37.9674,284.715 41.5,283.5C 42.0431,283.56 42.3764,283.893 42.5,284.5C 38.878,285.659 35.2113,285.825 31.5,285C 30.944,284.617 30.6107,284.117 30.5,283.5 Z"/></g>
<g><path style="opacity:1" fill="#929292" d="M 56.5,283.5 C 57.0431,283.56 57.3764,283.893 57.5,284.5C 53.6853,285.808 50.0187,285.808 46.5,284.5C 50.0419,284.813 53.3752,284.479 56.5,283.5 Z"/></g>
<g><path style="opacity:1" fill="#cdcdcd" d="M 158.5,285.5 C 156.833,285.5 155.167,285.5 153.5,285.5C 153.215,283.712 153.548,282.045 154.5,280.5C 156.451,281.774 157.785,283.44 158.5,285.5 Z"/></g>
<g><path style="opacity:1" fill="#888888" d="M 160.5,284.5 C 160.5,284.167 160.5,283.833 160.5,283.5C 164.434,284.36 168.434,284.693 172.5,284.5C 169.185,285.842 165.185,285.842 160.5,284.5 Z"/></g>
<g><path style="opacity:1" fill="#8d8d8d" d="M 195.5,285.5 C 193.379,285.675 191.379,285.341 189.5,284.5C 189.5,284.167 189.5,283.833 189.5,283.5C 191.117,284.038 192.784,284.371 194.5,284.5C 194.5,282.5 194.5,280.5 194.5,278.5C 191.287,278.19 188.287,278.523 185.5,279.5C 184.957,279.44 184.624,279.107 184.5,278.5C 188.107,277.511 191.774,277.177 195.5,277.5C 195.5,280.167 195.5,282.833 195.5,285.5 Z"/></g>
<g><path style="opacity:1" fill="#292929" d="M 73.5,274.5 C 74.0968,273.861 74.9302,273.528 76,273.5C 81.3572,277.408 86.8572,277.408 92.5,273.5C 98.2277,277.366 104.061,277.366 110,273.5C 113.669,274.501 117.336,275.501 121,276.5C 123.402,275.267 125.902,274.267 128.5,273.5C 138.312,273.616 147.978,273.949 157.5,274.5C 153.629,274.185 149.962,274.518 146.5,275.5C 145.5,275.5 144.5,275.5 143.5,275.5C 143.632,280.439 144.965,280.772 147.5,276.5C 148.496,276.414 149.329,276.748 150,277.5C 150.789,279.712 150.622,281.712 149.5,283.5C 149.721,284.735 150.388,285.735 151.5,286.5C 150.467,287.452 149.3,287.452 148,286.5C 146.97,286.836 146.47,287.503 146.5,288.5C 114.588,288.935 82.5883,288.935 50.5,288.5C 56.69,288.823 62.69,288.49 68.5,287.5C 70.7957,287.196 71.129,286.196 69.5,284.5C 70.7652,282.643 70.4318,280.976 68.5,279.5C 70.4044,279.262 71.7377,278.262 72.5,276.5C 73.1667,276.833 73.8333,277.167 74.5,277.5C 71.2244,279.967 70.7244,282.967 73,286.5C 77.3189,284.873 78.9855,281.873 78,277.5C 77.3292,276.748 76.4959,276.414 75.5,276.5C 75.9175,275.778 76.5842,275.278 77.5,275C 76.2068,274.51 74.8734,274.343 73.5,274.5 Z"/></g>
<g><path style="opacity:1" fill="#acacac" d="M 96.5,282.5 C 97.5,282.5 98.5,282.5 99.5,282.5C 99.5,283.833 99.5,285.167 99.5,286.5C 95.8141,286.87 94.8141,285.537 96.5,282.5 Z"/></g>
<g><path style="opacity:1" fill="#8b8b8b" d="M 129.5,283.5 C 130.978,283.238 132.311,283.571 133.5,284.5C 132.833,284.833 132.167,285.167 131.5,285.5C 130.287,285.253 129.62,284.586 129.5,283.5 Z"/></g>
<g><path style="opacity:1" fill="#e0e0e0" d="M 149.5,283.5 C 148.778,283.918 148.278,284.584 148,285.5C 145.895,282.989 146.062,280.656 148.5,278.5C 149.452,280.045 149.785,281.712 149.5,283.5 Z"/></g>
<g><path style="opacity:1" fill="#dddddd" d="M 139.5,276.5 C 142.128,277.625 142.961,279.625 142,282.5C 138.516,287.448 136.016,287.282 134.5,282C 136.351,280.317 138.017,278.484 139.5,276.5 Z"/></g>
<g><path style="opacity:1" fill="#e6e6e6" d="M 130.5,276.5 C 135.719,275.907 136.386,276.907 132.5,279.5C 131.081,278.995 130.415,277.995 130.5,276.5 Z"/></g>
<g><path style="opacity:1" fill="#e4e4e4" d="M 125.5,276.5 C 128.452,277.399 129.619,279.399 129,282.5C 126.651,283.84 124.317,285.174 122,286.5C 120.462,285.295 119.295,283.795 118.5,282C 120.508,279.673 122.842,277.84 125.5,276.5 Z"/></g>
<g><path style="opacity:1" fill="#cdcdcd" d="M 113.5,276.5 C 117.299,276.881 117.965,278.214 115.5,280.5C 114.295,279.423 113.628,278.09 113.5,276.5 Z"/></g>
<g><path style="opacity:1" fill="#e3e3e3" d="M 108.5,276.5 C 111.944,277.045 113.111,279.045 112,282.5C 109.473,284.097 106.806,285.43 104,286.5C 102.462,285.295 101.295,283.795 100.5,282C 103.029,279.907 105.696,278.074 108.5,276.5 Z"/></g>
<g><path style="opacity:1" fill="#e8e8e8" d="M 90.5,276.5 C 93.9444,277.045 95.1111,279.045 94,282.5C 91.2995,284.269 88.4662,285.602 85.5,286.5C 84.9862,284.488 84.8195,282.488 85,280.5C 87.0153,279.303 88.8487,277.97 90.5,276.5 Z"/></g>
<g><path style="opacity:1" fill="#dfdfdf" d="M 75.5,276.5 C 76.4959,276.414 77.3292,276.748 78,277.5C 78.9855,281.873 77.3189,284.873 73,286.5C 70.7244,282.967 71.2244,279.967 74.5,277.5C 75.1667,277.5 75.5,277.167 75.5,276.5 Z"/></g>
<g><path style="opacity:1" fill="#252525" d="M 196.5,276.5 C 197.82,279.899 197.82,283.399 196.5,287C 182.296,287.258 168.13,288.091 154,289.5C 151.31,289.497 148.81,289.164 146.5,288.5C 148.833,288.5 151.167,288.5 153.5,288.5C 153.5,287.5 153.5,286.5 153.5,285.5C 155.167,285.5 156.833,285.5 158.5,285.5C 159.167,285.167 159.833,284.833 160.5,284.5C 165.185,285.842 169.185,285.842 172.5,284.5C 170.833,282.5 169.167,280.5 167.5,278.5C 168.5,278.5 169.5,278.5 170.5,278.5C 172.167,280.833 174.167,282.833 176.5,284.5C 180.167,285.833 183.833,285.833 187.5,284.5C 188.396,285.506 189.062,285.506 189.5,284.5C 191.379,285.341 193.379,285.675 195.5,285.5C 196.477,282.713 196.81,279.713 196.5,276.5 Z"/></g>
<g><path style="opacity:1" fill="#959595" d="M 186.5,283.5 C 187.167,283.5 187.5,283.833 187.5,284.5C 183.833,285.833 180.167,285.833 176.5,284.5C 180.042,284.813 183.375,284.479 186.5,283.5 Z"/></g>
<g><path style="opacity:1" fill="#efefef" d="M 189.5,283.5 C 187.833,282.5 186.5,281.167 185.5,279.5C 188.287,278.523 191.287,278.19 194.5,278.5C 194.5,280.5 194.5,282.5 194.5,284.5C 192.784,284.371 191.117,284.038 189.5,283.5 Z"/></g>
<g><path style="opacity:1" fill="#f0f0f0" d="M 170.5,278.5 C 174.514,278.334 178.514,278.501 182.5,279C 183.357,281.019 184.691,282.519 186.5,283.5C 183.375,284.479 180.042,284.813 176.5,284.5C 174.167,282.833 172.167,280.833 170.5,278.5 Z"/></g>
<g><path style="opacity:1" fill="#bababa" d="M 69.5,284.5 C 71.129,286.196 70.7957,287.196 68.5,287.5C 65.9845,286.14 66.3178,285.14 69.5,284.5 Z"/></g>
<g><path style="opacity:1" fill="#aaaaaa" d="M 80.5,283.5 C 82.9118,283.694 83.9118,285.027 83.5,287.5C 81.396,287.799 79.396,287.466 77.5,286.5C 78.3398,285.265 79.3398,284.265 80.5,283.5 Z"/></g>
</svg>
