<?xml version="1.0" encoding="UTF-8"?>
<!DOCTYPE svg PUBLIC "-//W3C//DTD SVG 1.1//EN" "http://www.w3.org/Graphics/SVG/1.1/DTD/svg11.dtd">
<svg xmlns="http://www.w3.org/2000/svg" version="1.1" width="268px" height="236px" style="shape-rendering:geometricPrecision; text-rendering:geometricPrecision; image-rendering:optimizeQuality; fill-rule:evenodd; clip-rule:evenodd" xmlns:xlink="http://www.w3.org/1999/xlink">
<g><path style="opacity:1" fill="#fdfdfd" d="M -0.5,-0.5 C 88.8333,-0.5 178.167,-0.5 267.5,-0.5C 267.5,78.1667 267.5,156.833 267.5,235.5C 178.167,235.5 88.8333,235.5 -0.5,235.5C -0.5,156.833 -0.5,78.1667 -0.5,-0.5 Z"/></g>
<g><path style="opacity:1" fill="#222222" d="M 125.5,5.5 C 185.029,4.82639 226.863,31.4931 251,85.5C 265.118,130.468 257.784,171.468 229,208.5C 222.764,215.407 215.931,221.573 208.5,227C 201.282,228.481 196.448,225.647 194,218.5C 188.862,200.252 184.029,181.918 179.5,163.5C 179.667,162.167 179.833,160.833 180,159.5C 190.379,147.87 195.546,134.203 195.5,118.5C 195.598,112.27 194.765,106.27 193,100.5C 199.953,95.3999 207.453,91.2332 215.5,88C 218.245,82.9378 217.745,78.1044 214,73.5C 202.427,58.6014 187.927,47.4347 170.5,40C 162.596,38.2363 158.429,41.403 158,49.5C 155.275,55.0589 151.109,59.0589 145.5,61.5C 137.862,60.7313 130.195,60.2313 122.5,60C 116.571,55.6442 113.071,49.8109 112,42.5C 109.521,39.3306 106.354,38.164 102.5,39C 82.403,47.1019 66.5696,60.2686 55,78.5C 53.5568,83.212 54.7235,87.0453 58.5,90C 64.2566,92.3772 69.9233,95.0439 75.5,98C 77.2148,98.7771 78.2148,100.11 78.5,102C 73.012,123.954 77.512,143.454 92,160.5C 92.1667,161.667 92.3333,162.833 92.5,164C 87.505,183.642 82.005,203.142 76,222.5C 70.5905,228.432 64.7572,228.932 58.5,224C 16.4612,185.536 3.96116,139.036 21,84.5C 41.0941,38.5616 75.9274,12.2283 125.5,5.5 Z"/></g>
<g><path style="opacity:1" fill="#fbfbfb" d="M 147.5,9.5 C 183.135,13.0041 211.635,29.0041 233,57.5C 239.962,66.5396 245.129,76.5396 248.5,87.5C 249.057,92.1646 250.39,96.4979 252.5,100.5C 254.716,117.116 255.05,133.782 253.5,150.5C 247.909,180.183 233.242,204.35 209.5,223C 204.08,225.856 199.913,224.689 197,219.5C 191.908,200.964 186.741,182.464 181.5,164C 185.686,157.809 189.519,151.309 193,144.5C 197.735,130.375 198.735,116.042 196,101.5C 201.569,97.2267 207.736,94.06 214.5,92C 221.3,86.6612 222.134,80.4945 217,73.5C 204.924,56.4222 189.091,44.2555 169.5,37C 164.265,35.5341 160.099,37.0341 157,41.5C 156.002,48.3386 152.836,53.8386 147.5,58C 143.667,58.1667 139.833,58.3333 136,58.5C 128.198,60.2824 122.198,57.949 118,51.5C 114.085,36.078 105.251,32.578 91.5,41C 75.0436,50.1252 61.877,62.6252 52,78.5C 50.786,83.3434 51.9527,87.51 55.5,91C 62.8874,94.3557 69.8874,98.1891 76.5,102.5C 71.8612,119.498 73.6945,135.831 82,151.5C 84.0917,154.681 86.425,157.681 89,160.5C 89.1667,162 89.3333,163.5 89.5,165C 84.9125,182.846 80.0791,200.679 75,218.5C 72.983,223.924 69.1497,225.758 63.5,224C 32.3234,198.977 16.3234,166.31 15.5,126C 15.7192,116.863 17.0525,108.03 19.5,99.5C 21.7444,94.7669 23.4111,89.7669 24.5,84.5C 37.1626,53.0026 59.1626,30.5026 90.5,17C 97.8686,13.7415 105.535,11.5748 113.5,10.5C 124.815,9.70588 136.148,9.37255 147.5,9.5 Z"/></g>
<g><path style="opacity:1" fill="#bcbcbc" d="M 147.5,9.5 C 136.148,9.37255 124.815,9.70588 113.5,10.5C 119.93,8.975 126.596,8.30833 133.5,8.5C 138.346,8.5008 143.012,8.83413 147.5,9.5 Z"/></g>
<g><path style="opacity:1" fill="#b7b7b7" d="M 24.5,84.5 C 23.4111,89.7669 21.7444,94.7669 19.5,99.5C 20.1938,94.085 21.8605,89.085 24.5,84.5 Z"/></g>
<g><path style="opacity:1" fill="#aeaeae" d="M 248.5,87.5 C 250.61,91.5021 251.943,95.8354 252.5,100.5C 250.39,96.4979 249.057,92.1646 248.5,87.5 Z"/></g>
<g><path style="opacity:1" fill="#c8c8c8" d="M 252.5,100.5 C 254.918,109.534 255.918,118.868 255.5,128.5C 255.71,136.068 255.044,143.401 253.5,150.5C 255.05,133.782 254.716,117.116 252.5,100.5 Z"/></g>
</svg>
