<?xml version="1.0" encoding="UTF-8"?>
<!DOCTYPE svg PUBLIC "-//W3C//DTD SVG 1.1//EN" "http://www.w3.org/Graphics/SVG/1.1/DTD/svg11.dtd">
<svg xmlns="http://www.w3.org/2000/svg" version="1.1" width="278px" height="184px" style="shape-rendering:geometricPrecision; text-rendering:geometricPrecision; image-rendering:optimizeQuality; fill-rule:evenodd; clip-rule:evenodd" xmlns:xlink="http://www.w3.org/1999/xlink">
<g><path style="opacity:1" fill="#fdfdfd" d="M -0.5,-0.5 C 92.1667,-0.5 184.833,-0.5 277.5,-0.5C 277.5,60.8333 277.5,122.167 277.5,183.5C 184.833,183.5 92.1667,183.5 -0.5,183.5C -0.5,122.167 -0.5,60.8333 -0.5,-0.5 Z"/></g>
<g><path style="opacity:1" fill="#11100e" d="M 269.5,177.5 C 268.508,177.672 267.842,177.338 267.5,176.5C 267.5,119.833 267.5,63.1667 267.5,6.5C 264.287,6.19 261.287,6.52333 258.5,7.5C 257.833,64.1667 257.167,120.833 256.5,177.5C 256.5,120.167 256.5,62.8333 256.5,5.5C 260.833,5.5 265.167,5.5 269.5,5.5C 269.5,62.8333 269.5,120.167 269.5,177.5 Z"/></g>
<g><path style="opacity:1" fill="#525150" d="M 258.5,7.5 C 258.5,63.8333 258.5,120.167 258.5,176.5C 261.5,176.5 264.5,176.5 267.5,176.5C 267.842,177.338 268.508,177.672 269.5,177.5C 265.167,178.833 260.833,178.833 256.5,177.5C 257.167,120.833 257.833,64.1667 258.5,7.5 Z"/></g>
<g><path style="opacity:1" fill="#fdfdfc" d="M 267.5,176.5 C 264.5,176.5 261.5,176.5 258.5,176.5C 258.5,120.167 258.5,63.8333 258.5,7.5C 261.287,6.52333 264.287,6.19 267.5,6.5C 267.5,63.1667 267.5,119.833 267.5,176.5 Z"/></g>
<g><path style="opacity:1" fill="#252424" d="M 199.5,117.5 C 198.469,119.961 197.802,122.627 197.5,125.5C 197.206,128.754 195.873,131.421 193.5,133.5C 188.513,152.335 177.846,167.168 161.5,178C 157.726,179.183 154.559,178.349 152,175.5C 148,162.167 144,148.833 140,135.5C 139.333,132.167 139.333,128.833 140,125.5C 150.608,111.737 153.941,96.4039 150,79.5C 150.833,78 152,76.8333 153.5,76C 158.694,74.1531 163.528,71.6531 168,68.5C 168.667,66.1667 168.667,63.8333 168,61.5C 159.639,49.1359 148.805,39.6359 135.5,33C 127.855,29.2834 123.355,31.4501 122,39.5C 120.101,43.6601 117.101,46.6601 113,48.5C 106.82,47.4095 100.653,47.2428 94.5,48C 89.5173,43.8608 86.184,38.6942 84.5,32.5C 81.8971,31.4383 79.2305,31.2716 76.5,32C 60.3444,38.4898 48.3444,49.4898 40.5,65C 40.6251,66.6268 41.1251,68.1268 42,69.5C 47.6982,72.5148 53.3648,75.5148 59,78.5C 54.9623,96.278 58.629,112.278 70,126.5C 70.1667,127.667 70.3333,128.833 70.5,130C 66.4369,144.084 62.6036,158.251 59,172.5C 53.9725,180 48.1392,180.5 41.5,174C 23.0229,157.213 12.3562,136.38 9.5,111.5C 9.44759,107.802 9.11425,104.135 8.5,100.5C 11.0823,56.4456 32.749,26.2789 73.5,10C 114.129,-1.30334 148.962,8.19666 178,38.5C 196.852,61.5662 204.018,87.8995 199.5,117.5 Z"/></g>
<g><path style="opacity:1" fill="#fcfcfc" d="M 193.5,133.5 C 187.085,149.794 177.085,163.627 163.5,175C 159.526,177.364 156.026,176.864 153,173.5C 149.035,158.606 144.869,143.773 140.5,129C 143.669,124.806 146.503,120.306 149,115.5C 153.721,104.073 154.554,92.4064 151.5,80.5C 157.086,76.7887 162.919,73.4554 169,70.5C 171.121,66.0029 170.788,61.6695 168,57.5C 159.01,44.5966 147.176,35.4299 132.5,30C 129.833,29.3333 127.167,29.3333 124.5,30C 122.16,34.5063 119.66,39.0063 117,43.5C 115.649,45.0097 113.982,46.0097 112,46.5C 106.488,45.422 100.988,45.2554 95.5,46C 94,44.5 92.5,43 91,41.5C 89.6084,37.5535 87.7751,33.8868 85.5,30.5C 82.227,29.4149 78.8936,29.2483 75.5,30C 60.0123,36.6592 47.8456,47.1592 39,61.5C 38.2018,64.7107 38.7018,67.7107 40.5,70.5C 45.8883,73.6126 51.3883,76.6126 57,79.5C 54.3882,91.4391 55.3882,103.106 60,114.5C 62.733,119.477 65.5664,124.31 68.5,129C 64.7263,143.926 60.5597,158.759 56,173.5C 53.7897,176.29 50.9563,177.123 47.5,176C 14.8179,148.138 3.98454,113.305 15,71.5C 34.0794,25.5302 68.5794,4.36357 118.5,8C 159.761,16.2577 185.928,40.7577 197,81.5C 199.741,99.1282 198.574,116.462 193.5,133.5 Z"/></g>
<g><path style="opacity:1" fill="#696969" d="M 8.5,100.5 C 9.11425,104.135 9.44759,107.802 9.5,111.5C 8.73209,112.263 8.23209,113.263 8,114.5C 7.83333,113.667 7.66667,112.833 7.5,112C 7.72788,108.042 8.06121,104.209 8.5,100.5 Z"/></g>
<g><path style="opacity:1" fill="#a2a2a2" d="M 199.5,117.5 C 201.007,120.618 200.34,123.285 197.5,125.5C 197.802,122.627 198.469,119.961 199.5,117.5 Z"/></g>
</svg>
