<?xml version="1.0" encoding="UTF-8"?>
<!DOCTYPE svg PUBLIC "-//W3C//DTD SVG 1.1//EN" "http://www.w3.org/Graphics/SVG/1.1/DTD/svg11.dtd">
<svg xmlns="http://www.w3.org/2000/svg" version="1.1" width="113px" height="438px" style="shape-rendering:geometricPrecision; text-rendering:geometricPrecision; image-rendering:optimizeQuality; fill-rule:evenodd; clip-rule:evenodd" xmlns:xlink="http://www.w3.org/1999/xlink">
<g><path style="opacity:1" fill="#fcfcfc" d="M -0.5,-0.5 C 37.1667,-0.5 74.8333,-0.5 112.5,-0.5C 112.5,145.5 112.5,291.5 112.5,437.5C 74.8333,437.5 37.1667,437.5 -0.5,437.5C -0.5,291.5 -0.5,145.5 -0.5,-0.5 Z"/></g>
<g><path style="opacity:1" fill="#383838" d="M 65.5,103.5 C 58.8689,104.331 52.2022,104.664 45.5,104.5C 17.3216,96.4909 4.15496,77.8242 6,48.5C 12.1468,24.1803 27.6468,10.8469 52.5,8.5C 87.2199,11.7196 103.387,30.7196 101,65.5C 96.5663,85.0998 84.7329,97.7665 65.5,103.5 Z"/></g>
<g><path style="opacity:1" fill="#f8f8f8" d="M 44.5,10.5 C 74.1676,8.56598 92.6676,21.8993 100,50.5C 101.051,77.574 88.5509,94.7407 62.5,102C 42.5577,105.273 26.7244,98.7727 15,82.5C 1.79867,57.4944 5.96534,35.9944 27.5,18C 33.0319,14.8942 38.6986,12.3942 44.5,10.5 Z"/></g>
<g><path style="opacity:1" fill="#5d5d5d" d="M 42.5,77.5 C 50.1667,77.5 57.8333,77.5 65.5,77.5C 63.4368,78.3715 61.4368,79.5382 59.5,81C 59.7284,81.3988 60.0618,81.5654 60.5,81.5C 58.3587,82.1633 56.0254,82.4966 53.5,82.5C 49.8589,82.6852 46.5256,82.0186 43.5,80.5C 44.3764,80.6309 45.0431,80.2975 45.5,79.5C 44.3984,78.8243 43.3984,78.1577 42.5,77.5 Z"/></g>
<g><path style="opacity:1" fill="#343434" d="M 60.5,81.5 C 60.0618,81.5654 59.7284,81.3988 59.5,81C 61.4368,79.5382 63.4368,78.3715 65.5,77.5C 69.3076,71.2303 73.141,64.8969 77,58.5C 77.6667,57.1667 77.6667,55.8333 77,54.5C 73.2919,48.2494 69.4586,42.0827 65.5,36C 57.5,35.3333 49.5,35.3333 41.5,36C 37.8735,42.0855 34.3735,48.2521 31,54.5C 30.3333,55.8333 30.3333,57.1667 31,58.5C 34.6966,65.0044 38.5299,71.3378 42.5,77.5C 43.3984,78.1577 44.3984,78.8243 45.5,79.5C 45.0431,80.2975 44.3764,80.6309 43.5,80.5C 30.4531,73.7234 25.4531,63.0567 28.5,48.5C 30.0919,47.3984 30.9252,48.065 31,50.5C 33.0414,46.9162 35.208,43.4162 37.5,40C 36.8333,39.3333 36.1667,39.3333 35.5,40C 34,42.1667 32.5,44.3333 31,46.5C 30.5357,45.9056 30.369,45.2389 30.5,44.5C 35.5445,35.3858 43.3778,30.7191 54,30.5C 75.9939,34.4871 83.6606,47.1538 77,68.5C 73.6856,75.5776 68.1856,79.9109 60.5,81.5 Z"/></g>
<g><path style="opacity:1" fill="#aaaaaa" d="M 75.5,63.5 C 76.1614,66.9012 74.9948,69.9012 72,72.5C 72.5752,69.3368 73.7419,66.3368 75.5,63.5 Z"/></g>
<g><path style="opacity:1" fill="#9b9b9b" d="M 30.5,62.5 C 33.4309,65.695 35.2642,69.3616 36,73.5C 33.0956,70.3578 31.2622,66.6911 30.5,62.5 Z"/></g>
<g><path style="opacity:1" fill="#989898" d="M 28.5,48.5 C 28.6596,46.847 29.3263,45.5137 30.5,44.5C 30.369,45.2389 30.5357,45.9056 31,46.5C 32.5,44.3333 34,42.1667 35.5,40C 36.1667,39.3333 36.8333,39.3333 37.5,40C 35.208,43.4162 33.0414,46.9162 31,50.5C 30.9252,48.065 30.0919,47.3984 28.5,48.5 Z"/></g>
<g><path style="opacity:1" fill="#a1a1a1" d="M 70.5,39.5 C 73.896,42.0414 75.7293,45.3748 76,49.5C 73.8882,46.2729 72.0549,42.9396 70.5,39.5 Z"/></g>
<g><path style="opacity:1" fill="#ececec" d="M 65.5,77.5 C 57.8333,77.5 50.1667,77.5 42.5,77.5C 38.5299,71.3378 34.6966,65.0044 31,58.5C 30.3333,57.1667 30.3333,55.8333 31,54.5C 34.3735,48.2521 37.8735,42.0855 41.5,36C 49.5,35.3333 57.5,35.3333 65.5,36C 69.4586,42.0827 73.2919,48.2494 77,54.5C 77.6667,55.8333 77.6667,57.1667 77,58.5C 73.141,64.8969 69.3076,71.2303 65.5,77.5 Z"/></g>
<g><path style="opacity:1" fill="#484848" d="M 47.5,41.5 C 59.7775,39.6168 67.1109,44.6168 69.5,56.5C 66.9382,69.447 59.2715,74.2803 46.5,71C 35.5263,60.6072 35.8596,50.7739 47.5,41.5 Z"/></g>
<g><path style="opacity:1" fill="#f7f7f7" d="M 48.5,43.5 C 61.1683,41.6817 67.335,47.015 67,59.5C 63.5541,68.5542 57.0541,71.7209 47.5,69C 40.6371,64.0425 38.8037,57.5425 42,49.5C 44.0627,47.2659 46.2294,45.2659 48.5,43.5 Z"/></g>
<g><path style="opacity:1" fill="#a1a1a1" d="M 47.5,32.5 C 52.032,32.0692 56.3654,32.5692 60.5,34C 55.8333,34.6667 51.1667,34.6667 46.5,34C 47.056,33.6174 47.3893,33.1174 47.5,32.5 Z"/></g>
<g><path style="opacity:1" fill="#bcbcbc" d="M 65.5,103.5 C 61.966,105.048 58.1327,105.714 54,105.5C 50.9792,105.498 48.1459,105.164 45.5,104.5C 52.2022,104.664 58.8689,104.331 65.5,103.5 Z"/></g>
<g><path style="opacity:1" fill="#dddddd" d="M 101.5,127.5 C 100.711,127.217 100.044,126.717 99.5,126C 68.6639,125.169 37.9973,125.336 7.5,126.5C 7.16667,126.5 6.83333,126.5 6.5,126.5C 37.5257,124.823 68.859,123.823 100.5,123.5C 100.376,124.61 100.709,125.944 101.5,127.5 Z"/></g>
<g><path style="opacity:1" fill="#fafafa" d="M 8.5,127.5 C 14.8333,127.5 21.1667,127.5 27.5,127.5C 27.1729,137.348 27.5062,147.014 28.5,156.5C 30.9795,158.103 33.6462,159.603 36.5,161C 26.8391,161.5 17.1724,161.666 7.5,161.5C 7.18937,150.086 7.5227,138.752 8.5,127.5 Z"/></g>
<g><path style="opacity:1" fill="#fcfcfc" d="M 98.5,127.5 C 99.1667,127.5 99.5,127.833 99.5,128.5C 99.5,139.5 99.5,150.5 99.5,161.5C 89.985,161.827 80.6517,161.494 71.5,160.5C 73.8525,159.66 75.8525,158.326 77.5,156.5C 78.1667,156.5 78.8333,156.5 79.5,156.5C 80.4938,147.014 80.8271,137.348 80.5,127.5C 86.5,127.5 92.5,127.5 98.5,127.5 Z"/></g>
<g><path style="opacity:1" fill="#f8f8f8" d="M 29.5,128.5 C 32.306,130.619 35.306,130.952 38.5,129.5C 39.4927,137.65 39.8261,145.983 39.5,154.5C 36.1667,154.5 32.8333,154.5 29.5,154.5C 29.5,145.833 29.5,137.167 29.5,128.5 Z"/></g>
<g><path style="opacity:1" fill="#f7f7f7" d="M 67.5,128.5 C 70.3728,130.355 73.3728,130.688 76.5,129.5C 77.4927,137.65 77.8261,145.983 77.5,154.5C 74.1667,154.5 70.8333,154.5 67.5,154.5C 67.5,145.833 67.5,137.167 67.5,128.5 Z"/></g>
<g><path style="opacity:1" fill="#383838" d="M 6.5,126.5 C 6.83333,126.5 7.16667,126.5 7.5,126.5C 7.5,127.167 7.83333,127.5 8.5,127.5C 7.5227,138.752 7.18937,150.086 7.5,161.5C 6.66175,161.842 6.32842,162.508 6.5,163.5C 5.17974,151.265 5.17974,138.931 6.5,126.5 Z"/></g>
<g><path style="opacity:1" fill="#858585" d="M 43.5,128.5 C 42.507,136.984 42.1736,145.651 42.5,154.5C 41.507,146.016 41.1736,137.349 41.5,128.5C 42.1667,127.167 42.8333,127.167 43.5,128.5 Z"/></g>
<g><path style="opacity:1" fill="#979797" d="M 76.5,129.5 C 76.56,128.957 76.8933,128.624 77.5,128.5C 78.8214,137.325 78.8214,145.991 77.5,154.5C 77.8261,145.983 77.4927,137.65 76.5,129.5 Z"/></g>
<g><path style="opacity:1" fill="#585858" d="M 27.5,127.5 C 28.1667,127.833 28.8333,128.167 29.5,128.5C 29.5,137.167 29.5,145.833 29.5,154.5C 28.6618,154.842 28.3284,155.508 28.5,156.5C 27.5062,147.014 27.1729,137.348 27.5,127.5 Z"/></g>
<g><path style="opacity:1" fill="#a1a1a1" d="M 38.5,129.5 C 38.8417,128.662 39.5084,128.328 40.5,128.5C 40.8264,137.349 40.493,146.016 39.5,154.5C 39.8261,145.983 39.4927,137.65 38.5,129.5 Z"/></g>
<g><path style="opacity:1" fill="#bdbdbd" d="M 63.5,128.5 C 64.1667,127.167 64.8333,127.167 65.5,128.5C 65.8264,137.349 65.493,146.016 64.5,154.5C 64.8264,145.651 64.493,136.984 63.5,128.5 Z"/></g>
<g><path style="opacity:1" fill="#424242" d="M 40.5,128.5 C 40.8333,128.5 41.1667,128.5 41.5,128.5C 41.1736,137.349 41.507,146.016 42.5,154.5C 49.8333,154.5 57.1667,154.5 64.5,154.5C 65.493,146.016 65.8264,137.349 65.5,128.5C 66.1667,128.5 66.8333,128.5 67.5,128.5C 67.5,137.167 67.5,145.833 67.5,154.5C 70.8333,154.5 74.1667,154.5 77.5,154.5C 76.4937,155.396 76.4937,156.062 77.5,156.5C 75.8525,158.326 73.8525,159.66 71.5,160.5C 71.1667,160.5 70.8333,160.5 70.5,160.5C 70.1667,160.5 69.8333,160.5 69.5,160.5C 70.7489,158.864 72.4156,157.697 74.5,157C 60.8333,156.333 47.1667,156.333 33.5,157C 35.0931,157.949 36.4264,159.115 37.5,160.5C 32.8806,161.828 27.8806,162.494 22.5,162.5C 17.3218,162.499 12.3218,162.166 7.5,161.5C 17.1724,161.666 26.8391,161.5 36.5,161C 33.6462,159.603 30.9795,158.103 28.5,156.5C 28.3284,155.508 28.6618,154.842 29.5,154.5C 32.8333,154.5 36.1667,154.5 39.5,154.5C 40.493,146.016 40.8264,137.349 40.5,128.5 Z"/></g>
<g><path style="opacity:1" fill="#fcfcfc" d="M 43.5,128.5 C 43.8333,128.5 44.1667,128.5 44.5,128.5C 47.1864,129.991 50.1864,130.657 53.5,130.5C 56.8136,130.657 59.8136,129.991 62.5,128.5C 62.8333,128.5 63.1667,128.5 63.5,128.5C 64.493,136.984 64.8264,145.651 64.5,154.5C 57.1667,154.5 49.8333,154.5 42.5,154.5C 42.1736,145.651 42.507,136.984 43.5,128.5 Z"/></g>
<g><path style="opacity:1" fill="#f6f6f6" d="M 69.5,160.5 C 58.8333,160.5 48.1667,160.5 37.5,160.5C 36.4264,159.115 35.0931,157.949 33.5,157C 47.1667,156.333 60.8333,156.333 74.5,157C 72.4156,157.697 70.7489,158.864 69.5,160.5 Z"/></g>
<g><path style="opacity:1" fill="#848484" d="M 99.5,128.5 C 100.495,139.654 100.828,150.988 100.5,162.5C 90.1107,163.141 80.1107,162.474 70.5,160.5C 70.8333,160.5 71.1667,160.5 71.5,160.5C 80.6517,161.494 89.985,161.827 99.5,161.5C 99.5,150.5 99.5,139.5 99.5,128.5 Z"/></g>
<g><path style="opacity:1" fill="#fefefe" d="M 69.5,163.5 C 73.5,163.5 77.5,163.5 81.5,163.5C 81.5,194.167 81.5,224.833 81.5,255.5C 79.3987,258.797 78.0653,262.463 77.5,266.5C 61.911,267.484 46.2444,267.817 30.5,267.5C 29.5075,264.177 28.5075,260.844 27.5,257.5C 26.5226,226.531 26.1892,195.531 26.5,164.5C 30.1667,164.5 33.8333,164.5 37.5,164.5C 37.1872,168.042 37.5206,171.375 38.5,174.5C 43.7937,178.154 49.4604,180.654 55.5,182C 59.8333,179.5 64.1667,177 68.5,174.5C 69.4892,170.893 69.8226,167.226 69.5,163.5 Z"/></g>
<g><path style="opacity:1" fill="#4e4e4e" d="M 25.5,163.5 C 25.3334,194.168 25.5,224.835 26,255.5C 26.2784,256.416 26.7784,257.082 27.5,257.5C 28.5075,260.844 29.5075,264.177 30.5,267.5C 46.2444,267.817 61.911,267.484 77.5,266.5C 69.1934,267.831 60.5267,268.498 51.5,268.5C 42.6601,268.5 33.9934,268.166 25.5,267.5C 24.6618,267.842 24.3284,268.508 24.5,269.5C 24.5,321.167 24.5,372.833 24.5,424.5C 23.5006,338.002 23.1673,251.335 23.5,164.5C 24.1667,164.167 24.8333,163.833 25.5,163.5 Z"/></g>
<g><path style="opacity:1" fill="#c9c9c9" d="M 25.5,163.5 C 29.8333,163.5 34.1667,163.5 38.5,163.5C 38.5,163.833 38.5,164.167 38.5,164.5C 38.5,167.833 38.5,171.167 38.5,174.5C 37.5206,171.375 37.1872,168.042 37.5,164.5C 33.8333,164.5 30.1667,164.5 26.5,164.5C 26.1892,195.531 26.5226,226.531 27.5,257.5C 26.7784,257.082 26.2784,256.416 26,255.5C 25.5,224.835 25.3334,194.168 25.5,163.5 Z"/></g>
<g><path style="opacity:1" fill="#6d6d6d" d="M 38.5,164.5 C 38.5,164.167 38.5,163.833 38.5,163.5C 39.1667,163.5 39.8333,163.5 40.5,163.5C 40.5,166.5 40.5,169.5 40.5,172.5C 39.8333,169.833 39.1667,167.167 38.5,164.5 Z"/></g>
<g><path style="opacity:1" fill="#dbdbdb" d="M 40.5,163.5 C 49.5,163.5 58.5,163.5 67.5,163.5C 67.5,166.5 67.5,169.5 67.5,172.5C 58.5,172.5 49.5,172.5 40.5,172.5C 40.5,169.5 40.5,166.5 40.5,163.5 Z"/></g>
<g><path style="opacity:1" fill="#2e2e2e" d="M 101.5,127.5 C 102.495,139.322 102.828,151.322 102.5,163.5C 96.2424,163.19 90.0758,163.524 84,164.5C 83.6667,251.167 83.3333,337.833 83,424.5C 81.5,426 80,427.5 78.5,429C 61.8333,429.667 45.1667,429.667 28.5,429C 27.944,428.617 27.6107,428.117 27.5,427.5C 28.968,426.221 29.6347,424.554 29.5,422.5C 29.5,371.5 29.5,320.5 29.5,269.5C 28.1667,269.5 26.8333,269.5 25.5,269.5C 25.1667,269.5 24.8333,269.5 24.5,269.5C 24.3284,268.508 24.6618,267.842 25.5,267.5C 33.9934,268.166 42.6601,268.5 51.5,268.5C 60.5267,268.498 69.1934,267.831 77.5,266.5C 78.1556,267.278 78.9889,267.944 80,268.5C 80.7648,268.43 81.2648,268.097 81.5,267.5C 81.8277,263.407 81.8277,259.407 81.5,255.5C 81.5,224.833 81.5,194.167 81.5,163.5C 77.5,163.5 73.5,163.5 69.5,163.5C 68.8333,163.5 68.1667,163.5 67.5,163.5C 58.5,163.5 49.5,163.5 40.5,163.5C 39.8333,163.5 39.1667,163.5 38.5,163.5C 34.1667,163.5 29.8333,163.5 25.5,163.5C 24.8333,163.833 24.1667,164.167 23.5,164.5C 17.9252,163.548 12.2586,163.214 6.5,163.5C 6.32842,162.508 6.66175,161.842 7.5,161.5C 12.3218,162.166 17.3218,162.499 22.5,162.5C 27.8806,162.494 32.8806,161.828 37.5,160.5C 48.1667,160.5 58.8333,160.5 69.5,160.5C 69.8333,160.5 70.1667,160.5 70.5,160.5C 80.1107,162.474 90.1107,163.141 100.5,162.5C 100.828,150.988 100.495,139.654 99.5,128.5C 99.5,127.833 99.1667,127.5 98.5,127.5C 92.3554,126.51 86.0221,126.177 79.5,126.5C 79.5,136.5 79.5,146.5 79.5,156.5C 78.8333,156.5 78.1667,156.5 77.5,156.5C 76.4937,156.062 76.4937,155.396 77.5,154.5C 78.8214,145.991 78.8214,137.325 77.5,128.5C 76.8933,128.624 76.56,128.957 76.5,129.5C 73.3728,130.688 70.3728,130.355 67.5,128.5C 66.8333,128.5 66.1667,128.5 65.5,128.5C 64.8333,127.167 64.1667,127.167 63.5,128.5C 63.1667,128.5 62.8333,128.5 62.5,128.5C 56.5734,125.903 50.5734,125.903 44.5,128.5C 44.1667,128.5 43.8333,128.5 43.5,128.5C 42.8333,127.167 42.1667,127.167 41.5,128.5C 41.1667,128.5 40.8333,128.5 40.5,128.5C 39.5084,128.328 38.8417,128.662 38.5,129.5C 35.306,130.952 32.306,130.619 29.5,128.5C 28.8333,128.167 28.1667,127.833 27.5,127.5C 21.1667,127.5 14.8333,127.5 8.5,127.5C 7.83333,127.5 7.5,127.167 7.5,126.5C 37.9973,125.336 68.6639,125.169 99.5,126C 100.044,126.717 100.711,127.217 101.5,127.5 Z"/></g>
<g><path style="opacity:1" fill="#8c8c8c" d="M 98.5,127.5 C 92.5,127.5 86.5,127.5 80.5,127.5C 80.8271,137.348 80.4938,147.014 79.5,156.5C 79.5,146.5 79.5,136.5 79.5,126.5C 86.0221,126.177 92.3554,126.51 98.5,127.5 Z"/></g>
<g><path style="opacity:1" fill="#5d5d5d" d="M 62.5,128.5 C 59.8136,129.991 56.8136,130.657 53.5,130.5C 50.1864,130.657 47.1864,129.991 44.5,128.5C 50.5734,125.903 56.5734,125.903 62.5,128.5 Z"/></g>
<g><path style="opacity:1" fill="#484848" d="M 67.5,163.5 C 68.1667,163.5 68.8333,163.5 69.5,163.5C 69.8226,167.226 69.4892,170.893 68.5,174.5C 64.1667,177 59.8333,179.5 55.5,182C 49.4604,180.654 43.7937,178.154 38.5,174.5C 38.5,171.167 38.5,167.833 38.5,164.5C 39.1667,167.167 39.8333,169.833 40.5,172.5C 49.5,172.5 58.5,172.5 67.5,172.5C 67.5,169.5 67.5,166.5 67.5,163.5 Z"/></g>
<g><path style="opacity:1" fill="#e7e7e7" d="M 43.5,175.5 C 49.987,174.346 56.6536,174.179 63.5,175C 60.5153,177.493 57.182,179.326 53.5,180.5C 50.1764,178.838 46.8431,177.172 43.5,175.5 Z"/></g>
<g><path style="opacity:1" fill="#fdfdfd" d="M 41.5,164.5 C 49.8333,164.5 58.1667,164.5 66.5,164.5C 66.5,166.833 66.5,169.167 66.5,171.5C 58.1667,171.5 49.8333,171.5 41.5,171.5C 41.5,169.167 41.5,166.833 41.5,164.5 Z"/></g>
<g><path style="opacity:1" fill="#575757" d="M 81.5,255.5 C 81.8277,259.407 81.8277,263.407 81.5,267.5C 81.2648,268.097 80.7648,268.43 80,268.5C 78.9889,267.944 78.1556,267.278 77.5,266.5C 78.0653,262.463 79.3987,258.797 81.5,255.5 Z"/></g>
<g><path style="opacity:1" fill="#c2c2c2" d="M 25.5,267.5 C 25.605,261.609 26.605,261.275 28.5,266.5C 27.675,267.386 26.675,267.719 25.5,267.5 Z"/></g>
<g><path style="opacity:1" fill="#e0e0e0" d="M 81.5,267.5 C 80.5028,267.53 79.8361,267.03 79.5,266C 81.0939,261.686 81.7606,262.186 81.5,267.5 Z"/></g>
<g><path style="opacity:1" fill="#3e3e3e" d="M 24.5,269.5 C 24.8333,269.5 25.1667,269.5 25.5,269.5C 25.1678,320.669 25.5011,371.669 26.5,422.5C 27.1667,422.5 27.8333,422.5 28.5,422.5C 28.8333,422.5 29.1667,422.5 29.5,422.5C 29.6347,424.554 28.968,426.221 27.5,427.5C 26.1667,426.833 25.1667,425.833 24.5,424.5C 24.5,372.833 24.5,321.167 24.5,269.5 Z"/></g>
<g><path style="opacity:1" fill="#bdbdbd" d="M 25.5,269.5 C 26.8333,269.5 28.1667,269.5 29.5,269.5C 29.5,320.5 29.5,371.5 29.5,422.5C 29.1667,422.5 28.8333,422.5 28.5,422.5C 27.8333,219.833 27.1667,219.833 26.5,422.5C 25.5011,371.669 25.1678,320.669 25.5,269.5 Z"/></g>
<g><path style="opacity:1" fill="#fcfcfc" d="M 28.5,422.5 C 27.8333,422.5 27.1667,422.5 26.5,422.5C 27.1667,219.833 27.8333,219.833 28.5,422.5 Z"/></g>
<g><path style="opacity:1" fill="#fefefe" d="M 81.5,270.5 C 81.5,321.167 81.5,371.833 81.5,422.5C 80.8333,422.5 80.1667,422.5 79.5,422.5C 78.8379,371.489 79.5045,320.822 81.5,270.5 Z"/></g>
<g><path style="opacity:1" fill="#bbbbbb" d="M 76.5,269.5 C 76.8322,320.669 76.4989,371.669 75.5,422.5C 75.5,371.833 75.5,321.167 75.5,270.5C 60.8333,270.5 46.1667,270.5 31.5,270.5C 31.5,321.167 31.5,371.833 31.5,422.5C 30.5011,371.669 30.1678,320.669 30.5,269.5C 45.8333,269.5 61.1667,269.5 76.5,269.5 Z"/></g>
<g><path style="opacity:1" fill="#fefefe" d="M 75.5,422.5 C 60.8333,422.5 46.1667,422.5 31.5,422.5C 31.5,371.833 31.5,321.167 31.5,270.5C 46.1667,270.5 60.8333,270.5 75.5,270.5C 75.5,321.167 75.5,371.833 75.5,422.5 Z"/></g>
<g><path style="opacity:1" fill="#d9d9d9" d="M 78.5,269.5 C 79.791,269.263 80.791,269.596 81.5,270.5C 79.5045,320.822 78.8379,371.489 79.5,422.5C 78.5011,371.669 78.1678,320.669 78.5,269.5 Z"/></g>
<g><path style="opacity:1" fill="#414141" d="M 76.5,269.5 C 77.1667,269.5 77.8333,269.5 78.5,269.5C 78.1678,320.669 78.5011,371.669 79.5,422.5C 80.1667,422.5 80.8333,422.5 81.5,422.5C 80.5265,425.135 78.8598,427.135 76.5,428.5C 76.5,428.167 76.5,427.833 76.5,427.5C 76.5,426.5 76.5,425.5 76.5,424.5C 61.5,424.5 46.5,424.5 31.5,424.5C 31.5,423.833 31.5,423.167 31.5,422.5C 46.1667,422.5 60.8333,422.5 75.5,422.5C 76.4989,371.669 76.8322,320.669 76.5,269.5 Z"/></g>
<g><path style="opacity:1" fill="#d2d2d2" d="M 31.5,425.5 C 31.5,425.167 31.5,424.833 31.5,424.5C 46.5,424.5 61.5,424.5 76.5,424.5C 76.5,425.5 76.5,426.5 76.5,427.5C 76.1667,427.5 75.8333,427.5 75.5,427.5C 61.2048,425.517 46.5381,424.85 31.5,425.5 Z"/></g>
<g><path style="opacity:1" fill="#fdfdfd" d="M 31.5,425.5 C 46.5381,424.85 61.2048,425.517 75.5,427.5C 60.4619,428.15 45.7952,427.483 31.5,425.5 Z"/></g>
<g><path style="opacity:1" fill="#9c9c9c" d="M 31.5,424.5 C 31.5,424.833 31.5,425.167 31.5,425.5C 45.7952,427.483 60.4619,428.15 75.5,427.5C 75.8333,427.5 76.1667,427.5 76.5,427.5C 76.5,427.833 76.5,428.167 76.5,428.5C 61.1667,428.5 45.8333,428.5 30.5,428.5C 30.2322,426.901 30.5655,425.568 31.5,424.5 Z"/></g>
</svg>
