<?xml version="1.0" encoding="UTF-8"?>
<!DOCTYPE svg PUBLIC "-//W3C//DTD SVG 1.1//EN" "http://www.w3.org/Graphics/SVG/1.1/DTD/svg11.dtd">
<svg xmlns="http://www.w3.org/2000/svg" version="1.1" width="239px" height="330px" style="shape-rendering:geometricPrecision; text-rendering:geometricPrecision; image-rendering:optimizeQuality; fill-rule:evenodd; clip-rule:evenodd" xmlns:xlink="http://www.w3.org/1999/xlink">
<g><path style="opacity:1" fill="#fdfdfd" d="M -0.5,-0.5 C 79.1667,-0.5 158.833,-0.5 238.5,-0.5C 238.5,109.5 238.5,219.5 238.5,329.5C 158.833,329.5 79.1667,329.5 -0.5,329.5C -0.5,219.5 -0.5,109.5 -0.5,-0.5 Z"/></g>
<g><path style="opacity:1" fill="#5c5c5c" d="M 128.5,3.5 C 130.167,4.16667 131.833,4.83333 133.5,5.5C 134.833,6.16667 136.167,6.83333 137.5,7.5C 126.857,6.6548 116.19,6.32147 105.5,6.5C 103.735,5.53862 101.735,5.20528 99.5,5.5C 100.952,4.69808 102.618,4.19808 104.5,4C 112.493,3.50029 120.493,3.33362 128.5,3.5 Z"/></g>
<g><path style="opacity:1" fill="#b5b5b5" d="M 128.5,3.5 C 133.911,3.12505 138.911,4.12505 143.5,6.5C 140.193,5.9492 136.86,5.61587 133.5,5.5C 131.833,4.83333 130.167,4.16667 128.5,3.5 Z"/></g>
<g><path style="opacity:1" fill="#363636" d="M 133.5,5.5 C 136.86,5.61587 140.193,5.9492 143.5,6.5C 158.259,10.1787 171.592,16.512 183.5,25.5C 182.833,25.5 182.5,25.8333 182.5,26.5C 168.758,17.1276 153.758,10.7943 137.5,7.5C 136.167,6.83333 134.833,6.16667 133.5,5.5 Z"/></g>
<g><path style="opacity:1" fill="#eaeaea" d="M 105.5,6.5 C 116.19,6.32147 126.857,6.6548 137.5,7.5C 153.758,10.7943 168.758,17.1276 182.5,26.5C 221.589,59.6357 232.756,100.636 216,149.5C 193.418,195.884 156.252,217.05 104.5,213C 53.4997,202.33 23.9997,171.163 16,119.5C 14.3209,68.3359 36.8209,32.5026 83.5,12C 90.7903,9.84409 98.1236,8.01076 105.5,6.5 Z"/></g>
<g><path style="opacity:1" fill="#373737" d="M 100.5,12.5 C 102.199,12.3398 103.866,12.5065 105.5,13C 104.263,13.2321 103.263,13.7321 102.5,14.5C 96.3219,15.3021 90.3219,16.8021 84.5,19C 75.0545,22.8883 66.3878,28.0549 58.5,34.5C 58.1583,33.6618 57.4916,33.3284 56.5,33.5C 69.0912,22.3365 83.7578,15.3365 100.5,12.5 Z"/></g>
<g><path style="opacity:1" fill="#373737" d="M 127.5,11.5 C 145.236,12.7212 161.236,18.3879 175.5,28.5C 174.833,28.5 174.5,28.8333 174.5,29.5C 160.105,20.5903 144.438,15.2569 127.5,13.5C 121.347,12.6721 115.013,12.1721 108.5,12C 114.825,11.5005 121.158,11.3338 127.5,11.5 Z"/></g>
<g><path style="opacity:1" fill="#fafafa" d="M 127.5,13.5 C 144.438,15.2569 160.105,20.5903 174.5,29.5C 215.169,61.375 226.335,101.708 208,150.5C 194.11,178.841 171.944,196.841 141.5,204.5C 121.378,208.369 101.712,206.869 82.5,200C 79.1378,197.45 75.4712,195.617 71.5,194.5C 36.2363,171.973 20.0697,139.64 23,97.5C 27.0669,72.0238 38.9003,51.0238 58.5,34.5C 66.3878,28.0549 75.0545,22.8883 84.5,19C 90.3219,16.8021 96.3219,15.3021 102.5,14.5C 110.8,13.6287 119.133,13.2953 127.5,13.5 Z"/></g>
<g><path style="opacity:1" fill="#717171" d="M 127.5,11.5 C 121.158,11.3338 114.825,11.5005 108.5,12C 115.013,12.1721 121.347,12.6721 127.5,13.5C 119.133,13.2953 110.8,13.6287 102.5,14.5C 103.263,13.7321 104.263,13.2321 105.5,13C 103.866,12.5065 102.199,12.3398 100.5,12.5C 105.58,10.9848 110.914,10.3182 116.5,10.5C 120.349,10.5013 124.016,10.8346 127.5,11.5 Z"/></g>
<g><path style="opacity:1" fill="#2b2b2b" d="M 99.5,5.5 C 101.735,5.20528 103.735,5.53862 105.5,6.5C 98.1236,8.01076 90.7903,9.84409 83.5,12C 36.8209,32.5026 14.3209,68.3359 16,119.5C 23.9997,171.163 53.4997,202.33 104.5,213C 156.252,217.05 193.418,195.884 216,149.5C 232.756,100.636 221.589,59.6357 182.5,26.5C 182.5,25.8333 182.833,25.5 183.5,25.5C 217.53,52.2777 231.03,87.2777 224,130.5C 215.786,167.542 194.286,193.542 159.5,208.5C 154.066,210.202 148.733,211.869 143.5,213.5C 138.257,214.81 132.923,215.476 127.5,215.5C 116.759,215.814 106.092,215.147 95.5,213.5C 43.2066,197.833 15.8732,162.5 13.5,107.5C 15.8583,67.2663 34.1916,36.7663 68.5,16C 75.6058,12.4472 82.9391,9.44722 90.5,7C 93.4781,6.30404 96.4781,5.80404 99.5,5.5 Z"/></g>
<g><path style="opacity:1" fill="#373737" d="M 167.5,156.5 C 167.328,157.492 167.662,158.158 168.5,158.5C 163.752,162.721 158.752,166.721 153.5,170.5C 146.687,173.438 139.687,175.771 132.5,177.5C 123.513,178.657 114.513,178.657 105.5,177.5C 103.485,176.076 101.152,175.41 98.5,175.5C 89.7691,172.97 82.1024,168.637 75.5,162.5C 76.1667,162.5 76.8333,162.5 77.5,162.5C 83.3592,166.598 89.6926,169.931 96.5,172.5C 98.5145,173.924 100.848,174.59 103.5,174.5C 108.245,175.999 113.245,176.666 118.5,176.5C 122.018,176.498 125.351,176.165 128.5,175.5C 143.465,173.184 156.465,166.851 167.5,156.5 Z"/></g>
<g><path style="opacity:1" fill="#222222" d="M 56.5,33.5 C 57.4916,33.3284 58.1583,33.6618 58.5,34.5C 38.9003,51.0238 27.0669,72.0238 23,97.5C 20.0697,139.64 36.2363,171.973 71.5,194.5C 70.5084,194.328 69.8417,194.662 69.5,195.5C 33.6381,172.439 17.4715,139.439 21,96.5C 25.0976,70.9545 36.9309,49.9545 56.5,33.5 Z"/></g>
<g><path style="opacity:1" fill="#1b1b1b" d="M 208.5,112.5 C 209.833,112.5 211.167,112.5 212.5,112.5C 212.5,113.833 212.5,115.167 212.5,116.5C 207.156,117.447 202.156,119.281 197.5,122C 202.304,124.213 207.304,125.713 212.5,126.5C 212.5,127.833 212.5,129.167 212.5,130.5C 205.344,128.927 198.344,126.76 191.5,124C 190.253,122.506 190.253,121.006 191.5,119.5C 197.37,117.39 203.037,115.057 208.5,112.5 Z"/></g>
<g><path style="opacity:1" fill="#424242" d="M 191.5,107.5 C 191.5,108.5 191.5,109.5 191.5,110.5C 198.167,110.5 204.833,110.5 211.5,110.5C 204.687,111.491 197.687,111.825 190.5,111.5C 190.232,109.901 190.566,108.568 191.5,107.5 Z"/></g>
<g><path style="opacity:1" fill="#a1a1a1" d="M 191.5,97.5 C 194.5,97.5 197.5,97.5 200.5,97.5C 200.813,101.042 200.479,104.375 199.5,107.5C 199.5,104.5 199.5,101.5 199.5,98.5C 196.615,98.8064 193.948,98.4731 191.5,97.5 Z"/></g>
<g><path style="opacity:1" fill="#252525" d="M 170.5,63.5 C 191.558,89.353 194.058,117.02 178,146.5C 175.381,150.95 172.214,154.95 168.5,158.5C 167.662,158.158 167.328,157.492 167.5,156.5C 189.138,131.773 192.305,104.773 177,75.5C 174.734,71.958 172.234,68.6247 169.5,65.5C 169.328,64.5084 169.662,63.8417 170.5,63.5 Z"/></g>
<g><path style="opacity:1" fill="#070707" d="M 212.5,94.5 C 212.5,95.5 212.5,96.5 212.5,97.5C 209.5,97.5 206.5,97.5 203.5,97.5C 203.5,100.833 203.5,104.167 203.5,107.5C 206.5,107.5 209.5,107.5 212.5,107.5C 212.737,108.791 212.404,109.791 211.5,110.5C 204.833,110.5 198.167,110.5 191.5,110.5C 191.5,109.5 191.5,108.5 191.5,107.5C 194.167,107.5 196.833,107.5 199.5,107.5C 200.479,104.375 200.813,101.042 200.5,97.5C 197.5,97.5 194.5,97.5 191.5,97.5C 191.5,96.5 191.5,95.5 191.5,94.5C 198.5,94.5 205.5,94.5 212.5,94.5 Z"/></g>
<g><path style="opacity:1" fill="#8a8a8a" d="M 212.5,94.5 C 205.5,94.5 198.5,94.5 191.5,94.5C 191.5,95.5 191.5,96.5 191.5,97.5C 190.566,96.4324 190.232,95.099 190.5,93.5C 198.019,93.175 205.352,93.5084 212.5,94.5 Z"/></g>
<g><path style="opacity:1" fill="#2b2b2b" d="M 76.5,56.5 C 77.4916,56.3284 78.1583,56.6618 78.5,57.5C 56.8453,75.6277 49.012,98.6277 55,126.5C 59.0696,140.717 66.5696,152.717 77.5,162.5C 76.8333,162.5 76.1667,162.5 75.5,162.5C 59.67,148.163 51.3367,130.163 50.5,108.5C 51.7466,87.3399 60.4133,70.0066 76.5,56.5 Z"/></g>
<g><path style="opacity:1" fill="#2a2a2a" d="M 175.5,28.5 C 198.638,44.0616 212.805,65.7283 218,93.5C 222.498,143.615 202.331,179.782 157.5,202C 151.514,203.607 145.514,205.107 139.5,206.5C 139.062,206.565 138.728,206.399 138.5,206C 139.737,205.768 140.737,205.268 141.5,204.5C 171.944,196.841 194.11,178.841 208,150.5C 226.335,101.708 215.169,61.375 174.5,29.5C 174.5,28.8333 174.833,28.5 175.5,28.5 Z"/></g>
<g><path style="opacity:1" fill="#f2f2f2" d="M 169.5,65.5 C 172.234,68.6247 174.734,71.958 177,75.5C 192.305,104.773 189.138,131.773 167.5,156.5C 156.465,166.851 143.465,173.184 128.5,175.5C 120.149,175.518 111.816,175.185 103.5,174.5C 101.485,173.076 99.1522,172.41 96.5,172.5C 89.6926,169.931 83.3592,166.598 77.5,162.5C 66.5696,152.717 59.0696,140.717 55,126.5C 49.012,98.6277 56.8453,75.6277 78.5,57.5C 99.7256,42.0056 122.726,39.1722 147.5,49C 155.835,53.3161 163.168,58.8161 169.5,65.5 Z"/></g>
<g><path style="opacity:1" fill="#2f2f2f" d="M 109.5,52.5 C 143.548,50.2542 165.715,65.2542 176,97.5C 180.258,131.826 166.091,154.659 133.5,166C 98.4471,171.282 75.2805,157.115 64,123.5C 58.8219,86.5556 73.9886,62.889 109.5,52.5 Z"/></g>
<g><path style="opacity:1" fill="#a1a1a1" d="M 99.5,161.5 C 103.162,161.723 106.495,162.723 109.5,164.5C 105.838,164.277 102.505,163.277 99.5,161.5 Z"/></g>
<g><path style="opacity:1" fill="#fcfcfc" d="M 109.5,164.5 C 106.495,162.723 103.162,161.723 99.5,161.5C 79.4626,152.622 67.9626,137.289 65,115.5C 63.9961,82.6833 79.4961,62.5167 111.5,55C 144.408,53.0257 165.241,67.8591 174,99.5C 176.962,133.522 162.129,155.355 129.5,165C 122.753,165.792 116.086,165.626 109.5,164.5 Z"/></g>
<g><path style="opacity:1" fill="#383838" d="M 170.5,63.5 C 169.662,63.8417 169.328,64.5084 169.5,65.5C 163.168,58.8161 155.835,53.3161 147.5,49C 122.726,39.1722 99.7256,42.0056 78.5,57.5C 78.1583,56.6618 77.4916,56.3284 76.5,56.5C 92.3729,43.147 110.706,38.3137 131.5,42C 146.909,45.0327 159.909,52.1994 170.5,63.5 Z"/></g>
<g><path style="opacity:1" fill="#9b9b9b" d="M 96.5,172.5 C 99.1522,172.41 101.485,173.076 103.5,174.5C 100.848,174.59 98.5145,173.924 96.5,172.5 Z"/></g>
<g><path style="opacity:1" fill="#b9b9b9" d="M 103.5,174.5 C 111.816,175.185 120.149,175.518 128.5,175.5C 125.351,176.165 122.018,176.498 118.5,176.5C 113.245,176.666 108.245,175.999 103.5,174.5 Z"/></g>
<g><path style="opacity:1" fill="#7f7f7f" d="M 98.5,175.5 C 101.152,175.41 103.485,176.076 105.5,177.5C 102.848,177.59 100.515,176.924 98.5,175.5 Z"/></g>
<g><path style="opacity:1" fill="#adadad" d="M 105.5,177.5 C 114.513,178.657 123.513,178.657 132.5,177.5C 128.966,179.048 125.133,179.714 121,179.5C 115.599,179.555 110.432,178.888 105.5,177.5 Z"/></g>
<g><path style="opacity:1" fill="#464646" d="M 71.5,194.5 C 75.4712,195.617 79.1378,197.45 82.5,200C 101.712,206.869 121.378,208.369 141.5,204.5C 140.737,205.268 139.737,205.768 138.5,206C 138.728,206.399 139.062,206.565 139.5,206.5C 114.692,212.366 91.3589,208.699 69.5,195.5C 69.8417,194.662 70.5084,194.328 71.5,194.5 Z"/></g>
<g><path style="opacity:1" fill="#bfbfbf" d="M 159.5,208.5 C 154.782,211.737 149.448,213.404 143.5,213.5C 148.733,211.869 154.066,210.202 159.5,208.5 Z"/></g>
<g><path style="opacity:1" fill="#9b9b9b" d="M 95.5,213.5 C 106.092,215.147 116.759,215.814 127.5,215.5C 120.345,216.655 113.012,216.822 105.5,216C 101.867,215.851 98.5341,215.018 95.5,213.5 Z"/></g>
<g><path style="opacity:1" fill="#1f1f1f" d="M 39.5,289.5 C 101.5,289.5 163.5,289.5 225.5,289.5C 225.5,296.167 225.5,302.833 225.5,309.5C 224.833,307.5 224.167,305.5 223.5,303.5C 223.167,302.833 222.833,302.167 222.5,301.5C 224.657,298.312 224.99,294.979 223.5,291.5C 219.967,290.285 216.301,290.285 212.5,291.5C 208.299,290.264 203.965,290.264 199.5,291.5C 196.313,290.194 192.98,290.194 189.5,291.5C 189.624,292.107 189.957,292.44 190.5,292.5C 192.194,294.861 194.194,296.861 196.5,298.5C 195.833,298.833 195.167,299.167 194.5,299.5C 192.098,296.785 189.432,294.285 186.5,292C 183.304,291.195 180.304,291.362 177.5,292.5C 177.5,293.833 177.5,295.167 177.5,296.5C 177.5,299.5 177.5,302.5 177.5,305.5C 177.5,306.167 177.167,306.5 176.5,306.5C 176.167,305.833 175.833,305.167 175.5,304.5C 175.5,304.167 175.5,303.833 175.5,303.5C 175.5,299.5 175.5,295.5 175.5,291.5C 138.5,291.5 101.5,291.5 64.5,291.5C 63.5151,295.634 63.1818,299.968 63.5,304.5C 63.5,305.167 63.5,305.833 63.5,306.5C 63.1667,306.5 62.8333,306.5 62.5,306.5C 62.7373,305.209 62.404,304.209 61.5,303.5C 61.1667,302.833 60.8333,302.167 60.5,301.5C 62.6567,298.312 62.99,294.979 61.5,291.5C 57.9674,290.285 54.3008,290.285 50.5,291.5C 46.8333,290.833 43.1667,290.167 39.5,289.5 Z"/></g>
<g><path style="opacity:1" fill="#e9e9e9" d="M 212.5,291.5 C 215.5,295.167 218.833,298.5 222.5,301.5C 222.833,302.167 223.167,302.833 223.5,303.5C 223.5,305.833 223.5,308.167 223.5,310.5C 222.448,310.649 221.448,310.483 220.5,310C 214.624,304.292 208.958,298.459 203.5,292.5C 206.428,291.516 209.428,291.183 212.5,291.5 Z"/></g>
<g><path style="opacity:1" fill="#373737" d="M 223.5,291.5 C 224.99,294.979 224.657,298.312 222.5,301.5C 218.833,298.5 215.5,295.167 212.5,291.5C 216.301,290.285 219.967,290.285 223.5,291.5 Z"/></g>
<g><path style="opacity:1" fill="#ebebeb" d="M 223.5,291.5 C 223.664,294.187 223.497,296.854 223,299.5C 220.5,297 218,294.5 215.5,292C 218.146,291.503 220.813,291.336 223.5,291.5 Z"/></g>
<g><path style="opacity:1" fill="#272727" d="M 39.5,289.5 C 43.1667,290.167 46.8333,290.833 50.5,291.5C 47.1501,291.335 43.8168,291.502 40.5,292C 45.8333,297.333 51.1667,302.667 56.5,308C 59.1858,307.823 60.8524,306.323 61.5,303.5C 62.404,304.209 62.7373,305.209 62.5,306.5C 61.5,307.833 60.5,309.167 59.5,310.5C 57.8546,311.479 56.5213,312.812 55.5,314.5C 98.4961,315.667 141.496,315.833 184.5,315C 183.956,314.283 183.289,313.783 182.5,313.5C 180.5,311.167 178.5,308.833 176.5,306.5C 177.167,306.5 177.5,306.167 177.5,305.5C 180.964,308.462 184.297,311.629 187.5,315C 190.554,315.821 193.554,315.655 196.5,314.5C 190.138,308.345 183.805,302.345 177.5,296.5C 177.5,295.167 177.5,293.833 177.5,292.5C 184.833,299.167 191.833,306.167 198.5,313.5C 198.611,314.117 198.944,314.617 199.5,315C 202.882,315.824 206.216,315.657 209.5,314.5C 209.145,313.478 208.478,312.811 207.5,312.5C 203.395,307.973 199.061,303.64 194.5,299.5C 195.167,299.167 195.833,298.833 196.5,298.5C 202.302,303.47 207.635,308.97 212.5,315C 215.579,316.09 217.912,315.257 219.5,312.5C 212.812,305.48 206.145,298.48 199.5,291.5C 203.965,290.264 208.299,290.264 212.5,291.5C 209.428,291.183 206.428,291.516 203.5,292.5C 208.958,298.459 214.624,304.292 220.5,310C 221.448,310.483 222.448,310.649 223.5,310.5C 223.5,308.167 223.5,305.833 223.5,303.5C 224.167,305.5 224.833,307.5 225.5,309.5C 223.5,312.167 221.167,314.5 218.5,316.5C 161.331,316.832 104.331,316.499 47.5,315.5C 42.0957,308.59 36.0957,302.09 29.5,296C 27.5448,295.047 25.8782,293.713 24.5,292C 21.4459,291.179 18.4459,291.345 15.5,292.5C 23.3224,299.489 30.6557,306.989 37.5,315C 40.4816,315.498 43.4816,315.665 46.5,315.5C 38.0161,316.493 29.3494,316.826 20.5,316.5C 18.2034,314.706 16.0367,312.706 14,310.5C 13.5004,303.508 13.3337,296.508 13.5,289.5C 22.1667,289.5 30.8333,289.5 39.5,289.5 Z"/></g>
<g><path style="opacity:1" fill="#b7b7b7" d="M 207.5,312.5 C 208.478,312.811 209.145,313.478 209.5,314.5C 206.216,315.657 202.882,315.824 199.5,315C 198.944,314.617 198.611,314.117 198.5,313.5C 200.288,313.971 202.122,314.304 204,314.5C 205.681,314.392 206.848,313.725 207.5,312.5 Z"/></g>
<g><path style="opacity:1" fill="#bdbdbd" d="M 59.5,310.5 C 59.4606,311.583 59.1272,312.583 58.5,313.5C 99.998,314.831 141.331,314.831 182.5,313.5C 183.289,313.783 183.956,314.283 184.5,315C 141.496,315.833 98.4961,315.667 55.5,314.5C 56.5213,312.812 57.8546,311.479 59.5,310.5 Z"/></g>
<g><path style="opacity:1" fill="#f4f4f4" d="M 62.5,306.5 C 62.8333,306.5 63.1667,306.5 63.5,306.5C 101.167,306.5 138.833,306.5 176.5,306.5C 178.5,308.833 180.5,311.167 182.5,313.5C 141.331,314.831 99.998,314.831 58.5,313.5C 59.1272,312.583 59.4606,311.583 59.5,310.5C 60.5,309.167 61.5,307.833 62.5,306.5 Z"/></g>
<g><path style="opacity:1" fill="#363636" d="M 63.5,304.5 C 100.833,304.5 138.167,304.5 175.5,304.5C 175.833,305.167 176.167,305.833 176.5,306.5C 138.833,306.5 101.167,306.5 63.5,306.5C 63.5,305.833 63.5,305.167 63.5,304.5 Z"/></g>
<g><path style="opacity:1" fill="#d5d5d5" d="M 64.5,291.5 C 64.5,295.5 64.5,299.5 64.5,303.5C 101.5,303.5 138.5,303.5 175.5,303.5C 175.5,303.833 175.5,304.167 175.5,304.5C 138.167,304.5 100.833,304.5 63.5,304.5C 63.1818,299.968 63.5151,295.634 64.5,291.5 Z"/></g>
<g><path style="opacity:1" fill="#eaeaea" d="M 177.5,296.5 C 183.805,302.345 190.138,308.345 196.5,314.5C 193.554,315.655 190.554,315.821 187.5,315C 184.297,311.629 180.964,308.462 177.5,305.5C 177.5,302.5 177.5,299.5 177.5,296.5 Z"/></g>
<g><path style="opacity:1" fill="#eaeaea" d="M 15.5,296.5 C 22.1475,302.147 28.4808,308.147 34.5,314.5C 31.2156,315.657 27.8823,315.824 24.5,315C 22.0374,311.535 19.2041,308.369 16,305.5C 15.502,302.518 15.3354,299.518 15.5,296.5 Z"/></g>
<g><path style="opacity:1" fill="#2f2f2f" d="M 61.5,291.5 C 62.99,294.979 62.6567,298.312 60.5,301.5C 56.8333,298.5 53.5,295.167 50.5,291.5C 54.3008,290.285 57.9674,290.285 61.5,291.5 Z"/></g>
<g><path style="opacity:1" fill="#eeeeee" d="M 199.5,291.5 C 206.145,298.48 212.812,305.48 219.5,312.5C 217.912,315.257 215.579,316.09 212.5,315C 207.635,308.97 202.302,303.47 196.5,298.5C 194.194,296.861 192.194,294.861 190.5,292.5C 193.287,291.523 196.287,291.19 199.5,291.5 Z"/></g>
<g><path style="opacity:1" fill="#f3f3f3" d="M 177.5,292.5 C 180.304,291.362 183.304,291.195 186.5,292C 189.432,294.285 192.098,296.785 194.5,299.5C 199.061,303.64 203.395,307.973 207.5,312.5C 206.848,313.725 205.681,314.392 204,314.5C 202.122,314.304 200.288,313.971 198.5,313.5C 191.833,306.167 184.833,299.167 177.5,292.5 Z"/></g>
<g><path style="opacity:1" fill="#fefefe" d="M 64.5,291.5 C 101.5,291.5 138.5,291.5 175.5,291.5C 175.5,295.5 175.5,299.5 175.5,303.5C 138.5,303.5 101.5,303.5 64.5,303.5C 64.5,299.5 64.5,295.5 64.5,291.5 Z"/></g>
<g><path style="opacity:1" fill="#ebebeb" d="M 61.5,291.5 C 61.6641,294.187 61.4974,296.854 61,299.5C 58.5,297 56,294.5 53.5,292C 56.146,291.503 58.8127,291.336 61.5,291.5 Z"/></g>
<g><path style="opacity:1" fill="#eeeeee" d="M 50.5,291.5 C 53.5,295.167 56.8333,298.5 60.5,301.5C 60.8333,302.167 61.1667,302.833 61.5,303.5C 60.8524,306.323 59.1858,307.823 56.5,308C 51.1667,302.667 45.8333,297.333 40.5,292C 43.8168,291.502 47.1501,291.335 50.5,291.5 Z"/></g>
<g><path style="opacity:1" fill="#ececec" d="M 28.5,291.5 C 31.5184,291.335 34.5184,291.502 37.5,292C 43.3333,297.833 49.1667,303.667 55,309.5C 54.9725,311.417 54.1392,313.084 52.5,314.5C 51.9984,315.521 51.3317,315.688 50.5,315C 43.3604,307.86 36.1937,300.694 29,293.5C 28.5357,292.906 28.369,292.239 28.5,291.5 Z"/></g>
<g><path style="opacity:1" fill="#ededed" d="M 47.5,315.5 C 47.1667,315.5 46.8333,315.5 46.5,315.5C 43.4816,315.665 40.4816,315.498 37.5,315C 30.6557,306.989 23.3224,299.489 15.5,292.5C 18.4459,291.345 21.4459,291.179 24.5,292C 25.8782,293.713 27.5448,295.047 29.5,296C 36.0957,302.09 42.0957,308.59 47.5,315.5 Z"/></g>
<g><path style="opacity:1" fill="#575757" d="M 199.5,291.5 C 196.287,291.19 193.287,291.523 190.5,292.5C 189.957,292.44 189.624,292.107 189.5,291.5C 192.98,290.194 196.313,290.194 199.5,291.5 Z"/></g>
<g><path style="opacity:1" fill="#454545" d="M 46.5,315.5 C 46.8333,315.5 47.1667,315.5 47.5,315.5C 104.331,316.499 161.331,316.832 218.5,316.5C 152.5,317.833 86.5,317.833 20.5,316.5C 29.3494,316.826 38.0161,316.493 46.5,315.5 Z"/></g>
</svg>
