<?xml version="1.0" encoding="UTF-8"?>
<!DOCTYPE svg PUBLIC "-//W3C//DTD SVG 1.1//EN" "http://www.w3.org/Graphics/SVG/1.1/DTD/svg11.dtd">
<svg xmlns="http://www.w3.org/2000/svg" version="1.1" width="128px" height="430px" style="shape-rendering:geometricPrecision; text-rendering:geometricPrecision; image-rendering:optimizeQuality; fill-rule:evenodd; clip-rule:evenodd" xmlns:xlink="http://www.w3.org/1999/xlink">
<g><path style="opacity:1" fill="#fdfdfd" d="M -0.5,-0.5 C 42.1667,-0.5 84.8333,-0.5 127.5,-0.5C 127.5,142.833 127.5,286.167 127.5,429.5C 84.8333,429.5 42.1667,429.5 -0.5,429.5C -0.5,286.167 -0.5,142.833 -0.5,-0.5 Z"/></g>
<g><path style="opacity:1" fill="#383838" d="M 54.5,7.5 C 88.3623,5.82287 109.862,21.1562 119,53.5C 121.643,91.0599 104.476,113.227 67.5,120C 32.5103,119.682 12.3437,102.182 7,67.5C 7.41934,35.2518 23.2527,15.2518 54.5,7.5 Z"/></g>
<g><path style="opacity:1" fill="#f4f4f4" d="M 54.5,9.5 C 86.6558,7.64315 107.489,21.9765 117,52.5C 120.276,83.1303 107.776,104.297 79.5,116C 49.0097,122.836 26.843,112.336 13,84.5C 3.67046,55.6805 11.5038,32.8471 36.5,16C 42.3051,12.914 48.3051,10.7473 54.5,9.5 Z"/></g>
<g><path style="opacity:1" fill="#323232" d="M 85.5,104.5 C 81.86,104.07 78.36,103.07 75,101.5C 73.6439,102.38 72.1439,102.714 70.5,102.5C 92.1491,95.4865 102.482,80.4865 101.5,57.5C 101.59,54.8478 100.924,52.5145 99.5,50.5C 94.1739,36.0148 83.8405,27.5148 68.5,25C 45.9511,23.1913 31.1178,33.0246 24,54.5C 21.5486,76.2729 30.0486,91.9396 49.5,101.5C 46.4521,103.119 43.1188,104.119 39.5,104.5C 38.8333,104.167 38.1667,103.833 37.5,103.5C 31.3224,91.1486 24.489,79.1486 17,67.5C 15.6986,65.6354 15.3653,63.6354 16,61.5C 23.3738,48.5846 30.8738,35.7513 38.5,23C 54.5,22.3333 70.5,22.3333 86.5,23C 94.1262,35.7513 101.626,48.5846 109,61.5C 109.635,63.6354 109.301,65.6354 108,67.5C 100.977,80.2301 93.4767,92.5635 85.5,104.5 Z"/></g>
<g><path style="opacity:1" fill="#d8d8d8" d="M 77.5,25.5 C 79.9664,24.3659 82.633,24.1993 85.5,25C 87.6609,27.1487 88.8276,29.6487 89,32.5C 85.7903,29.1199 81.957,26.7866 77.5,25.5 Z"/></g>
<g><path style="opacity:1" fill="#fcfcfc" d="M 99.5,50.5 C 99.4095,53.1522 100.076,55.4855 101.5,57.5C 102.482,80.4865 92.1491,95.4865 70.5,102.5C 63.4648,102.674 56.4648,102.341 49.5,101.5C 30.0486,91.9396 21.5486,76.2729 24,54.5C 31.1178,33.0246 45.9511,23.1913 68.5,25C 83.8405,27.5148 94.1739,36.0148 99.5,50.5 Z"/></g>
<g><path style="opacity:1" fill="#d4d4d4" d="M 39.5,24.5 C 41.8568,24.3367 44.1902,24.5034 46.5,25C 42.9729,27.5908 39.3062,29.5908 35.5,31C 37.0585,28.9481 38.3918,26.7815 39.5,24.5 Z"/></g>
<g><path style="opacity:1" fill="#adadad" d="M 99.5,50.5 C 100.924,52.5145 101.59,54.8478 101.5,57.5C 100.076,55.4855 99.4095,53.1522 99.5,50.5 Z"/></g>
<g><path style="opacity:1" fill="#dcdcdc" d="M 20.5,57.5 C 21.6453,61.3112 21.8119,65.3112 21,69.5C 19.7022,67.7348 18.5355,65.9014 17.5,64C 18.3773,61.7473 19.3773,59.5806 20.5,57.5 Z"/></g>
<g><path style="opacity:1" fill="#dddddd" d="M 103.5,56.5 C 108.453,60.6467 108.62,64.98 104,69.5C 103.501,65.1794 103.334,60.8461 103.5,56.5 Z"/></g>
<g><path style="opacity:1" fill="#dedede" d="M 35.5,96.5 C 35.56,95.9569 35.8933,95.6236 36.5,95.5C 39.796,98.2964 43.4626,100.463 47.5,102C 44.8333,102.667 42.1667,102.667 39.5,102C 38.3034,99.9847 36.9701,98.1513 35.5,96.5 Z"/></g>
<g><path style="opacity:1" fill="#dcdcdc" d="M 87.5,95.5 C 88.2389,95.369 88.9056,95.5357 89.5,96C 88.1667,98 86.8333,100 85.5,102C 82.8333,102.667 80.1667,102.667 77.5,102C 81.4109,100.556 84.7442,98.3891 87.5,95.5 Z"/></g>
<g><path style="opacity:1" fill="#1e1e1e" d="M 49.5,101.5 C 56.4648,102.341 63.4648,102.674 70.5,102.5C 72.1439,102.714 73.6439,102.38 75,101.5C 78.36,103.07 81.86,104.07 85.5,104.5C 70.1667,104.5 54.8333,104.5 39.5,104.5C 43.1188,104.119 46.4521,103.119 49.5,101.5 Z"/></g>
<g><path style="opacity:1" fill="#b8b8b8" d="M 37.5,103.5 C 38.1667,103.833 38.8333,104.167 39.5,104.5C 54.8333,104.5 70.1667,104.5 85.5,104.5C 77.6738,105.166 69.6738,105.5 61.5,105.5C 53.1376,105.498 45.1376,104.831 37.5,103.5 Z"/></g>
<g><path style="opacity:1" fill="#2d2d2d" d="M 115.5,195.5 C 112.993,196.898 110.66,196.564 108.5,194.5C 107.391,194.443 106.391,194.11 105.5,193.5C 105.5,192.833 105.833,192.5 106.5,192.5C 107.829,186.872 108.496,180.872 108.5,174.5C 108.5,168.324 108.166,162.324 107.5,156.5C 106.391,155.71 105.058,155.21 103.5,155C 98.8452,154.501 94.1785,154.334 89.5,154.5C 84.9054,153.622 80.2387,153.622 75.5,154.5C 65.8276,154.334 56.1609,154.5 46.5,155C 44.7818,155.346 43.1151,155.846 41.5,156.5C 40.501,168.482 40.1677,180.482 40.5,192.5C 40.5,193.833 39.8333,194.5 38.5,194.5C 31.3811,191.87 24.3811,191.87 17.5,194.5C 16.1067,195.26 14.6067,195.926 13,196.5C 11.9302,196.472 11.0968,196.139 10.5,195.5C 12.0295,194.933 13.5295,194.267 15,193.5C 15.1673,180.487 15.6673,167.487 16.5,154.5C 17.5,154 18.5,153.5 19.5,153C 47.5,152.333 75.5,152.333 103.5,153C 105.608,153.36 107.608,154.027 109.5,155C 110.158,168.104 110.825,181.271 111.5,194.5C 112.736,195.246 114.07,195.579 115.5,195.5 Z"/></g>
<g><path style="opacity:1" fill="#fcfcfc" d="M 89.5,154.5 C 94.1785,154.334 98.8452,154.501 103.5,155C 105.058,155.21 106.391,155.71 107.5,156.5C 107.828,168.345 107.495,180.012 106.5,191.5C 100.775,190.399 95.1083,190.399 89.5,191.5C 87.5216,180.215 86.8549,168.548 87.5,156.5C 88.1667,155.833 88.8333,155.167 89.5,154.5 Z"/></g>
<g><path style="opacity:1" fill="#fbfbfb" d="M 75.5,154.5 C 78.3447,155.344 81.3447,156.01 84.5,156.5C 84.8284,168.678 84.4951,180.678 83.5,192.5C 69.8083,189.998 56.1416,189.998 42.5,192.5C 41.8333,192.5 41.1667,192.5 40.5,192.5C 40.1677,180.482 40.501,168.482 41.5,156.5C 43.1151,155.846 44.7818,155.346 46.5,155C 56.1609,154.5 65.8276,154.334 75.5,154.5 Z"/></g>
<g><path style="opacity:1" fill="#fcfcfc" d="M 37.5,156.5 C 37.8283,168.345 37.4949,180.012 36.5,191.5C 30.7696,190.487 25.1029,190.487 19.5,191.5C 17.5216,180.215 16.8549,168.548 17.5,156.5C 17.9175,155.778 18.5842,155.278 19.5,155C 22,154.833 24.5,154.667 27,154.5C 30.8048,154.304 34.3048,154.97 37.5,156.5 Z"/></g>
<g><path style="opacity:1" fill="#929292" d="M 17.5,156.5 C 16.8549,168.548 17.5216,180.215 19.5,191.5C 18.791,192.404 17.791,192.737 16.5,192.5C 16.1716,180.322 16.5049,168.322 17.5,156.5 Z"/></g>
<g><path style="opacity:1" fill="#aeaeae" d="M 37.5,156.5 C 38.8245,168.34 38.8245,180.34 37.5,192.5C 36.8933,192.376 36.56,192.043 36.5,191.5C 37.4949,180.012 37.8283,168.345 37.5,156.5 Z"/></g>
<g><path style="opacity:1" fill="#b6b6b6" d="M 87.5,156.5 C 86.8549,168.548 87.5216,180.215 89.5,191.5C 88.791,192.404 87.791,192.737 86.5,192.5C 86.1716,180.322 86.5049,168.322 87.5,156.5 Z"/></g>
<g><path style="opacity:1" fill="#9c9c9c" d="M 107.5,156.5 C 108.166,162.324 108.5,168.324 108.5,174.5C 108.496,180.872 107.829,186.872 106.5,192.5C 106.5,192.167 106.5,191.833 106.5,191.5C 107.495,180.012 107.828,168.345 107.5,156.5 Z"/></g>
<g><path style="opacity:1" fill="#2b2b2b" d="M 89.5,154.5 C 88.8333,155.167 88.1667,155.833 87.5,156.5C 86.5049,168.322 86.1716,180.322 86.5,192.5C 87.791,192.737 88.791,192.404 89.5,191.5C 95.1083,190.399 100.775,190.399 106.5,191.5C 106.5,191.833 106.5,192.167 106.5,192.5C 105.833,192.5 105.5,192.833 105.5,193.5C 99.265,191.919 93.265,192.253 87.5,194.5C 86.5,194.5 85.5,194.5 84.5,194.5C 85.8206,181.735 85.8206,169.069 84.5,156.5C 81.3447,156.01 78.3447,155.344 75.5,154.5C 80.2387,153.622 84.9054,153.622 89.5,154.5 Z"/></g>
<g><path style="opacity:1" fill="#696969" d="M 84.5,156.5 C 85.8206,169.069 85.8206,181.735 84.5,194.5C 82.5853,194.784 80.9187,194.451 79.5,193.5C 81.099,193.768 82.4324,193.434 83.5,192.5C 84.4951,180.678 84.8284,168.678 84.5,156.5 Z"/></g>
<g><path style="opacity:1" fill="#3e3e3e" d="M 83.5,192.5 C 82.4324,193.434 81.099,193.768 79.5,193.5C 67.8238,192.249 56.1571,192.249 44.5,193.5C 43.5084,193.672 42.8417,193.338 42.5,192.5C 56.1416,189.998 69.8083,189.998 83.5,192.5 Z"/></g>
<g><path style="opacity:1" fill="#e0e0e0" d="M 38.5,194.5 C 31.5,195.833 24.5,195.833 17.5,194.5C 24.3811,191.87 31.3811,191.87 38.5,194.5 Z"/></g>
<g><path style="opacity:1" fill="#e4e4e4" d="M 79.5,193.5 C 80.9187,194.451 82.5853,194.784 84.5,194.5C 70.3393,195.661 56.0059,195.827 41.5,195C 42.7375,194.768 43.7375,194.268 44.5,193.5C 56.1571,192.249 67.8238,192.249 79.5,193.5 Z"/></g>
<g><path style="opacity:1" fill="#d5d5d5" d="M 105.5,193.5 C 106.391,194.11 107.391,194.443 108.5,194.5C 101.5,195.833 94.5,195.833 87.5,194.5C 93.265,192.253 99.265,191.919 105.5,193.5 Z"/></g>
<g><path style="opacity:1" fill="#484848" d="M 40.5,192.5 C 41.1667,192.5 41.8333,192.5 42.5,192.5C 42.8417,193.338 43.5084,193.672 44.5,193.5C 43.7375,194.268 42.7375,194.768 41.5,195C 56.0059,195.827 70.3393,195.661 84.5,194.5C 85.5,194.5 86.5,194.5 87.5,194.5C 94.5,195.833 101.5,195.833 108.5,194.5C 110.66,196.564 112.993,196.898 115.5,195.5C 116.833,196.167 117.833,197.167 118.5,198.5C 117.833,199.5 117.167,200.5 116.5,201.5C 116.5,200.167 116.5,198.833 116.5,197.5C 80.5,197.5 44.5,197.5 8.5,197.5C 8.5,198.833 8.5,200.167 8.5,201.5C 7.83333,200.5 7.16667,199.5 6.5,198.5C 7.26231,196.738 8.59565,195.738 10.5,195.5C 11.0968,196.139 11.9302,196.472 13,196.5C 14.6067,195.926 16.1067,195.26 17.5,194.5C 24.5,195.833 31.5,195.833 38.5,194.5C 39.8333,194.5 40.5,193.833 40.5,192.5 Z"/></g>
<g><path style="opacity:1" fill="#f2f2f2" d="M 116.5,201.5 C 80.5,202.833 44.5,202.833 8.5,201.5C 8.5,200.167 8.5,198.833 8.5,197.5C 44.5,197.5 80.5,197.5 116.5,197.5C 116.5,198.833 116.5,200.167 116.5,201.5 Z"/></g>
<g><path style="opacity:1" fill="#3a3a3a" d="M 6.5,198.5 C 7.16667,199.5 7.83333,200.5 8.5,201.5C 44.5,202.833 80.5,202.833 116.5,201.5C 117.167,200.5 117.833,199.5 118.5,198.5C 118.5,199.833 118.5,201.167 118.5,202.5C 117.711,202.783 117.044,203.283 116.5,204C 107.111,203.856 98.1109,204.69 89.5,206.5C 88.8333,228.833 88.1667,251.167 87.5,273.5C 87.5654,273.062 87.3988,272.728 87,272.5C 86.3623,273.609 85.8623,274.775 85.5,276C 85.8361,277.03 86.5028,277.53 87.5,277.5C 88.4988,323.997 88.8321,370.664 88.5,417.5C 87.1667,419.167 85.8333,420.833 84.5,422.5C 69.8295,422.667 55.1629,422.5 40.5,422C 38.9586,420.629 37.6253,419.129 36.5,417.5C 36.1679,370.664 36.5012,323.997 37.5,277.5C 39.8507,276.084 39.8507,274.417 37.5,272.5C 36.8333,250.5 36.1667,228.5 35.5,206.5C 26.8955,204.529 17.8955,203.862 8.5,204.5C 6.91917,202.858 6.2525,200.858 6.5,198.5 Z"/></g>
<g><path style="opacity:1" fill="#fdfdfd" d="M 87.5,205.5 C 87.6666,225.836 87.5,246.169 87,266.5C 85.2406,270.009 84.074,273.675 83.5,277.5C 69.5,277.5 55.5,277.5 41.5,277.5C 40.3587,273.941 39.3587,270.274 38.5,266.5C 38.5,246.167 38.5,225.833 38.5,205.5C 54.8333,205.5 71.1667,205.5 87.5,205.5 Z"/></g>
<g><path style="opacity:1" fill="#b7b7b7" d="M 87.5,205.5 C 71.1667,205.5 54.8333,205.5 38.5,205.5C 38.5,225.833 38.5,246.167 38.5,266.5C 37.5028,246.007 37.1695,225.34 37.5,204.5C 54.3417,204.17 71.0084,204.503 87.5,205.5 Z"/></g>
<g><path style="opacity:1" fill="#b1b1b1" d="M 37.5,272.5 C 39.8507,274.417 39.8507,276.084 37.5,277.5C 37.5,275.833 37.5,274.167 37.5,272.5 Z"/></g>
<g><path style="opacity:1" fill="#c7c7c7" d="M 87.5,273.5 C 87.5,274.833 87.5,276.167 87.5,277.5C 86.5028,277.53 85.8361,277.03 85.5,276C 85.8623,274.775 86.3623,273.609 87,272.5C 87.3988,272.728 87.5654,273.062 87.5,273.5 Z"/></g>
<g><path style="opacity:1" fill="#e0e0e0" d="M 42.5,279.5 C 55.8333,279.5 69.1667,279.5 82.5,279.5C 82.8321,325.003 82.4988,370.336 81.5,415.5C 81.5,370.5 81.5,325.5 81.5,280.5C 68.8333,280.5 56.1667,280.5 43.5,280.5C 43.5,325.5 43.5,370.5 43.5,415.5C 43.1667,415.5 42.8333,415.5 42.5,415.5C 42.5,370.167 42.5,324.833 42.5,279.5 Z"/></g>
<g><path style="opacity:1" fill="#fefefe" d="M 81.5,415.5 C 68.8333,415.5 56.1667,415.5 43.5,415.5C 43.5,370.5 43.5,325.5 43.5,280.5C 56.1667,280.5 68.8333,280.5 81.5,280.5C 81.5,325.5 81.5,370.5 81.5,415.5 Z"/></g>
<g><path style="opacity:1" fill="#c3c3c3" d="M 87.5,280.5 C 85.5051,325.154 84.8384,370.154 85.5,415.5C 84.5012,370.336 84.1679,325.003 84.5,279.5C 85.791,279.263 86.791,279.596 87.5,280.5 Z"/></g>
<g><path style="opacity:1" fill="#d1d1d1" d="M 8.5,204.5 C 17.8955,203.862 26.8955,204.529 35.5,206.5C 35.5,276.833 35.5,347.167 35.5,417.5C 34.5008,347.002 34.1675,276.335 34.5,205.5C 25.6506,205.826 16.9839,205.493 8.5,204.5 Z"/></g>
<g><path style="opacity:1" fill="#d4d4d4" d="M 40.5,279.5 C 40.5,324.833 40.5,370.167 40.5,415.5C 39.5,415.5 38.5,415.5 37.5,415.5C 37.5,370.167 37.5,324.833 37.5,279.5C 38.5,279.5 39.5,279.5 40.5,279.5 Z"/></g>
<g><path style="opacity:1" fill="#575757" d="M 35.5,206.5 C 36.1667,228.5 36.8333,250.5 37.5,272.5C 37.5,274.167 37.5,275.833 37.5,277.5C 36.5012,323.997 36.1679,370.664 36.5,417.5C 36.1667,417.5 35.8333,417.5 35.5,417.5C 35.5,347.167 35.5,276.833 35.5,206.5 Z"/></g>
<g><path style="opacity:1" fill="#4e4e4e" d="M 40.5,279.5 C 41.1667,279.5 41.8333,279.5 42.5,279.5C 42.5,324.833 42.5,370.167 42.5,415.5C 41.8333,415.5 41.1667,415.5 40.5,415.5C 40.5,370.167 40.5,324.833 40.5,279.5 Z"/></g>
<g><path style="opacity:1" fill="#eaeaea" d="M 87.5,280.5 C 88.1616,325.846 87.4949,370.846 85.5,415.5C 84.8384,370.154 85.5051,325.154 87.5,280.5 Z"/></g>
<g><path style="opacity:1" fill="#4d4d4d" d="M 89.5,206.5 C 89.8325,277.002 89.4992,347.335 88.5,417.5C 88.8321,370.664 88.4988,323.997 87.5,277.5C 87.5,276.167 87.5,274.833 87.5,273.5C 88.1667,251.167 88.8333,228.833 89.5,206.5 Z"/></g>
<g><path style="opacity:1" fill="#d3d3d3" d="M 118.5,202.5 C 118.586,203.496 118.252,204.329 117.5,205C 108.506,205.5 99.5062,205.666 90.5,205.5C 90.8238,277.529 90.4905,349.529 89.5,421.5C 87.7839,421.629 86.1172,421.962 84.5,422.5C 85.8333,420.833 87.1667,419.167 88.5,417.5C 89.4992,347.335 89.8325,277.002 89.5,206.5C 98.1109,204.69 107.111,203.856 116.5,204C 117.044,203.283 117.711,202.783 118.5,202.5 Z"/></g>
<g><path style="opacity:1" fill="#e1e1e1" d="M 42.5,417.5 C 55.8333,417.5 69.1667,417.5 82.5,417.5C 82.5,418.5 82.5,419.5 82.5,420.5C 69.1667,420.5 55.8333,420.5 42.5,420.5C 42.5,419.5 42.5,418.5 42.5,417.5 Z"/></g>
</svg>
