<?xml version="1.0" encoding="UTF-8"?>
<!DOCTYPE svg PUBLIC "-//W3C//DTD SVG 1.1//EN" "http://www.w3.org/Graphics/SVG/1.1/DTD/svg11.dtd">
<svg xmlns="http://www.w3.org/2000/svg" version="1.1" width="192px" height="350px" style="shape-rendering:geometricPrecision; text-rendering:geometricPrecision; image-rendering:optimizeQuality; fill-rule:evenodd; clip-rule:evenodd" xmlns:xlink="http://www.w3.org/1999/xlink">
<g><path style="opacity:1" fill="#fdfdfd" d="M -0.5,-0.5 C 63.5,-0.5 127.5,-0.5 191.5,-0.5C 191.5,116.167 191.5,232.833 191.5,349.5C 127.5,349.5 63.5,349.5 -0.5,349.5C -0.5,232.833 -0.5,116.167 -0.5,-0.5 Z"/></g>
<g><path style="opacity:1" fill="#515151" d="M 154.5,13.5 C 158.345,13.2878 161.679,14.2878 164.5,16.5C 163.494,16.9377 163.494,17.6043 164.5,18.5C 162.442,17.0669 160.108,16.4003 157.5,16.5C 152.36,15.5119 147.026,15.1786 141.5,15.5C 145.833,14.8333 150.167,14.1667 154.5,13.5 Z"/></g>
<g><path style="opacity:1" fill="#fdfdfd" d="M 157.5,16.5 C 160.108,16.4003 162.442,17.0669 164.5,18.5C 164.833,18.5 165.167,18.5 165.5,18.5C 165.83,37.3408 165.497,56.0075 164.5,74.5C 154.919,72.2713 145.252,71.9379 135.5,73.5C 134.168,64.859 133.502,55.859 133.5,46.5C 133.667,37.5 133.833,28.5 134,19.5C 135.816,18.6705 137.649,17.8372 139.5,17C 145.491,16.5005 151.491,16.3338 157.5,16.5 Z"/></g>
<g><path style="opacity:1" fill="#dddddd" d="M 141.5,15.5 C 147.026,15.1786 152.36,15.5119 157.5,16.5C 151.491,16.3338 145.491,16.5005 139.5,17C 137.649,17.8372 135.816,18.6705 134,19.5C 133.833,28.5 133.667,37.5 133.5,46.5C 133.502,55.859 134.168,64.859 135.5,73.5C 135.5,74.1667 135.167,74.5 134.5,74.5C 132.513,56.1966 131.846,37.5299 132.5,18.5C 135.208,16.6469 138.208,15.6469 141.5,15.5 Z"/></g>
<g><path style="opacity:1" fill="#828282" d="M 166.5,16.5 C 168.488,36.1387 169.155,56.1387 168.5,76.5C 167.822,56.5979 167.155,36.5979 166.5,16.5 Z"/></g>
<g><path style="opacity:1" fill="#7f7f7f" d="M 165.5,18.5 C 166.166,27.8274 166.5,37.3274 166.5,47C 166.498,56.8576 165.832,66.3576 164.5,75.5C 164.5,75.1667 164.5,74.8333 164.5,74.5C 165.497,56.0075 165.83,37.3408 165.5,18.5 Z"/></g>
<g><path style="opacity:1" fill="#6b6b6b" d="M 132.5,18.5 C 131.846,37.5299 132.513,56.1966 134.5,74.5C 133.791,75.404 132.791,75.7373 131.5,75.5C 131.17,56.326 131.503,37.326 132.5,18.5 Z"/></g>
<g><path style="opacity:1" fill="#f6f6f6" d="M 163.5,76.5 C 164.605,77.6005 165.938,78.2671 167.5,78.5C 119.167,79.8333 70.8333,79.8333 22.5,78.5C 34.8077,73.1692 47.141,73.1692 59.5,78.5C 70.3912,75.1084 81.5578,73.7751 93,74.5C 105.714,73.9019 118.214,75.2352 130.5,78.5C 141.223,73.9879 152.223,73.3212 163.5,76.5 Z"/></g>
<g><path style="opacity:1" fill="#2c2c2c" d="M 154.5,13.5 C 150.167,14.1667 145.833,14.8333 141.5,15.5C 138.208,15.6469 135.208,16.6469 132.5,18.5C 131.503,37.326 131.17,56.326 131.5,75.5C 132.791,75.7373 133.791,75.404 134.5,74.5C 135.167,74.5 135.5,74.1667 135.5,73.5C 145.252,71.9379 154.919,72.2713 164.5,74.5C 164.5,74.8333 164.5,75.1667 164.5,75.5C 163.833,75.5 163.5,75.8333 163.5,76.5C 152.223,73.3212 141.223,73.9879 130.5,78.5C 118.214,75.2352 105.714,73.9019 93,74.5C 81.5578,73.7751 70.3912,75.1084 59.5,78.5C 47.141,73.1692 34.8077,73.1692 22.5,78.5C 21.5,78.8333 20.8333,79.5 20.5,80.5C 18.9582,79.6993 17.2915,79.366 15.5,79.5C 17.396,78.5195 19.396,77.5195 21.5,76.5C 22.333,56.8418 22.833,37.1751 23,17.5C 26.3947,15.0198 30.228,13.5198 34.5,13C 74.6688,12.1688 114.669,12.3354 154.5,13.5 Z"/></g>
<g><path style="opacity:1" fill="#c6c6c6" d="M 62.5,18.5 C 61.5133,37.4238 61.18,56.4238 61.5,75.5C 60.8335,66.1726 60.5002,56.6726 60.5,47C 60.5015,37.1424 61.1682,27.6424 62.5,18.5 Z"/></g>
<g><path style="opacity:1" fill="#cbcbcb" d="M 25.5,18.5 C 25.1698,37.3408 25.5031,56.0075 26.5,74.5C 26.44,75.0431 26.1067,75.3764 25.5,75.5C 24.1723,56.3375 24.1723,37.3375 25.5,18.5 Z"/></g>
<g><path style="opacity:1" fill="#bebebe" d="M 57.5,18.5 C 58.8277,37.3375 58.8277,56.3375 57.5,75.5C 56.8933,75.3764 56.56,75.0431 56.5,74.5C 57.4969,56.0075 57.8302,37.3408 57.5,18.5 Z"/></g>
<g><path style="opacity:1" fill="#bdbdbd" d="M 75.5,16.5 C 71.4333,18.0538 67.1,18.7204 62.5,18.5C 66.5667,16.9462 70.9,16.2796 75.5,16.5 Z"/></g>
<g><path style="opacity:1" fill="#fbfbfb" d="M 122.5,17.5 C 124.265,18.4614 126.265,18.7947 128.5,18.5C 130.487,37.1373 131.154,56.1373 130.5,75.5C 107.443,71.5847 84.4426,71.5847 61.5,75.5C 61.18,56.4238 61.5133,37.4238 62.5,18.5C 67.1,18.7204 71.4333,18.0538 75.5,16.5C 91.0779,15.0104 106.745,15.3437 122.5,17.5 Z"/></g>
<g><path style="opacity:1" fill="#fcfcfc" d="M 57.5,18.5 C 57.8302,37.3408 57.4969,56.0075 56.5,74.5C 46.4557,71.8956 36.4557,71.8956 26.5,74.5C 25.5031,56.0075 25.1698,37.3408 25.5,18.5C 36.0564,14.5699 46.7231,14.5699 57.5,18.5 Z"/></g>
<g><path style="opacity:1" fill="#828282" d="M 128.5,18.5 C 126.265,18.7947 124.265,18.4614 122.5,17.5C 127.507,17.9902 128.174,17.1568 124.5,15C 127.554,14.1786 130.554,14.3452 133.5,15.5C 132.053,16.9348 130.386,17.9348 128.5,18.5 Z"/></g>
<g><path style="opacity:1" fill="#8d8d8d" d="M 56.5,14.5 C 59.5184,14.3354 62.5184,14.502 65.5,15C 64.0559,16.0637 62.3893,16.5637 60.5,16.5C 58.6672,16.4146 57.3339,15.7479 56.5,14.5 Z"/></g>
<g><path style="opacity:1" fill="#838383" d="M 22.5,78.5 C 70.8333,79.8333 119.167,79.8333 167.5,78.5C 168.756,78.4614 169.756,78.9614 170.5,80C 120.501,80.5 70.5011,80.6667 20.5,80.5C 20.8333,79.5 21.5,78.8333 22.5,78.5 Z"/></g>
<g><path style="opacity:1" fill="#050505" d="M 164.5,16.5 C 165.167,16.5 165.833,16.5 166.5,16.5C 167.155,36.5979 167.822,56.5979 168.5,76.5C 172.291,78.0493 176.124,79.716 180,81.5C 182.578,86.0663 181.744,89.7329 177.5,92.5C 122.997,92.8323 68.6641,92.499 14.5,91.5C 68.501,91.6667 122.501,91.5 176.5,91C 180.054,88.3446 180.387,85.3446 177.5,82C 122.833,81.3333 68.1667,81.3333 13.5,82C 12.6195,82.7083 11.9528,83.5416 11.5,84.5C 10.6618,84.1583 10.3284,83.4916 10.5,82.5C 11.4006,80.2729 13.0672,79.2729 15.5,79.5C 17.2915,79.366 18.9582,79.6993 20.5,80.5C 70.5011,80.6667 120.501,80.5 170.5,80C 169.756,78.9614 168.756,78.4614 167.5,78.5C 165.938,78.2671 164.605,77.6005 163.5,76.5C 163.5,75.8333 163.833,75.5 164.5,75.5C 165.832,66.3576 166.498,56.8576 166.5,47C 166.5,37.3274 166.166,27.8274 165.5,18.5C 165.167,18.5 164.833,18.5 164.5,18.5C 163.494,17.6043 163.494,16.9377 164.5,16.5 Z"/></g>
<g><path style="opacity:1" fill="#ebebeb" d="M 14.5,91.5 C 11.9078,89.9639 10.9078,87.6305 11.5,84.5C 11.9528,83.5416 12.6195,82.7083 13.5,82C 68.1667,81.3333 122.833,81.3333 177.5,82C 180.387,85.3446 180.054,88.3446 176.5,91C 122.501,91.5 68.501,91.6667 14.5,91.5 Z"/></g>
<g><path style="opacity:1" fill="#434343" d="M 10.5,82.5 C 10.3284,83.4916 10.6618,84.1583 11.5,84.5C 10.9078,87.6305 11.9078,89.9639 14.5,91.5C 68.6641,92.499 122.997,92.8323 177.5,92.5C 123.002,93.6651 68.3349,93.8318 13.5,93C 8.48869,90.4429 7.48869,86.9429 10.5,82.5 Z"/></g>
<g><path style="opacity:1" fill="#4d4d4d" d="M 109.5,169.5 C 107.585,169.216 105.919,169.549 104.5,170.5C 97.6457,170.176 90.979,170.509 84.5,171.5C 80.3425,171.332 76.3425,171.998 72.5,173.5C 71.791,172.596 70.791,172.263 69.5,172.5C 73.1323,170.46 77.1323,169.293 81.5,169C 91.0092,168.176 100.343,168.342 109.5,169.5 Z"/></g>
<g><path style="opacity:1" fill="#bbbbbb" d="M 84.5,171.5 C 90.979,170.509 97.6457,170.176 104.5,170.5C 108.122,170.322 111.456,170.989 114.5,172.5C 104.527,171.634 94.5274,171.301 84.5,171.5 Z"/></g>
<g><path style="opacity:1" fill="#f7f7f7" d="M 84.5,171.5 C 94.5274,171.301 104.527,171.634 114.5,172.5C 150.365,181.533 172.198,204.2 180,240.5C 184.361,282.962 167.528,313.462 129.5,332C 121.814,335.37 113.814,337.536 105.5,338.5C 98.8333,338.5 92.1667,338.5 85.5,338.5C 53.8463,332.838 31.1796,315.505 17.5,286.5C 6.2836,253.932 11.6169,224.598 33.5,198.5C 44.1068,186.583 57.1068,178.25 72.5,173.5C 76.3425,171.998 80.3425,171.332 84.5,171.5 Z"/></g>
<g><path style="opacity:1" fill="#363636" d="M 69.5,172.5 C 70.791,172.263 71.791,172.596 72.5,173.5C 57.1068,178.25 44.1068,186.583 33.5,198.5C 33.1583,197.662 32.4916,197.328 31.5,197.5C 41.5019,185.173 54.1685,176.84 69.5,172.5 Z"/></g>
<g><path style="opacity:1" fill="#f9f9f9" d="M 136.5,208.5 C 162.342,237.631 163.009,267.298 138.5,297.5C 128.793,306.354 117.46,312.02 104.5,314.5C 96.4659,314.698 88.4659,314.365 80.5,313.5C 53.7227,305.884 38.556,288.217 35,260.5C 33.0045,238.98 40.1711,221.147 56.5,207C 60.9053,203.13 65.9053,200.297 71.5,198.5C 75.767,197.744 79.767,196.411 83.5,194.5C 103.119,191.366 120.785,196.033 136.5,208.5 Z"/></g>
<g><path style="opacity:1" fill="#272727" d="M 140.5,206.5 C 139.849,207.091 139.182,207.757 138.5,208.5C 137.893,208.376 137.56,208.043 137.5,207.5C 137.938,207.565 138.272,207.399 138.5,207C 135.787,203.076 133.453,198.909 131.5,194.5C 125.863,193.337 120.196,193.17 114.5,194C 123.002,196.744 130.336,201.244 136.5,207.5C 136.5,207.833 136.5,208.167 136.5,208.5C 120.785,196.033 103.119,191.366 83.5,194.5C 79.0845,194.861 75.0845,196.194 71.5,198.5C 65.9053,200.297 60.9053,203.13 56.5,207C 40.1711,221.147 33.0045,238.98 35,260.5C 38.556,288.217 53.7227,305.884 80.5,313.5C 83.1709,315.118 86.1709,315.785 89.5,315.5C 85.1194,316.924 80.786,316.591 76.5,314.5C 67.2847,311.959 59.2847,307.292 52.5,300.5C 51.479,301.002 51.3123,301.668 52,302.5C 55.3671,306.59 58.2005,310.924 60.5,315.5C 60.1583,316.338 59.4916,316.672 58.5,316.5C 46.5117,295.861 34.5117,275.194 22.5,254.5C 34.3002,233.538 46.3002,212.704 58.5,192C 83.1734,191.167 107.84,191.334 132.5,192.5C 135.179,197.194 137.845,201.861 140.5,206.5 Z"/></g>
<g><path style="opacity:1" fill="#dedede" d="M 137.5,207.5 C 137.167,207.5 136.833,207.5 136.5,207.5C 130.336,201.244 123.002,196.744 114.5,194C 120.196,193.17 125.863,193.337 131.5,194.5C 133.453,198.909 135.787,203.076 138.5,207C 138.272,207.399 137.938,207.565 137.5,207.5 Z"/></g>
<g><path style="opacity:1" fill="#b8b8b8" d="M 83.5,194.5 C 79.767,196.411 75.767,197.744 71.5,198.5C 75.0845,196.194 79.0845,194.861 83.5,194.5 Z"/></g>
<g><path style="opacity:1" fill="#e3e3e3" d="M 59.5,193.5 C 64.8437,193.334 70.1771,193.501 75.5,194C 67.0293,196.731 59.696,201.231 53.5,207.5C 53.1667,207.167 52.8333,206.833 52.5,206.5C 55.1127,202.272 57.446,197.939 59.5,193.5 Z"/></g>
<g><path style="opacity:1" fill="#282828" d="M 104.5,170.5 C 105.919,169.549 107.585,169.216 109.5,169.5C 148.693,177.194 172.86,200.528 182,239.5C 186.393,286.576 166.893,319.076 123.5,337C 116.914,338.679 110.248,339.845 103.5,340.5C 97.8236,340.666 92.1569,340.499 86.5,340C 93.0133,339.828 99.3466,339.328 105.5,338.5C 113.814,337.536 121.814,335.37 129.5,332C 167.528,313.462 184.361,282.962 180,240.5C 172.198,204.2 150.365,181.533 114.5,172.5C 111.456,170.989 108.122,170.322 104.5,170.5 Z"/></g>
<g><path style="opacity:1" fill="#e5e5e5" d="M 32.5,240.5 C 32.3906,249.655 32.5572,258.988 33,268.5C 30.2598,263.936 27.7598,259.269 25.5,254.5C 27.8226,249.839 30.1559,245.173 32.5,240.5 Z"/></g>
<g><path style="opacity:1" fill="#1b1b1b" d="M 140.5,206.5 C 149.51,222.506 158.51,238.506 167.5,254.5C 157.758,272.319 147.758,289.986 137.5,307.5C 136.662,307.158 136.328,306.492 136.5,305.5C 137.167,304.167 137.833,302.833 138.5,301.5C 139.354,300.368 139.354,299.035 138.5,297.5C 163.009,267.298 162.342,237.631 136.5,208.5C 136.5,208.167 136.5,207.833 136.5,207.5C 136.833,207.5 137.167,207.5 137.5,207.5C 137.56,208.043 137.893,208.376 138.5,208.5C 139.182,207.757 139.849,207.091 140.5,206.5 Z"/></g>
<g><path style="opacity:1" fill="#e6e6e6" d="M 156.5,239.5 C 159.836,244.198 162.836,249.198 165.5,254.5C 163,258.833 160.5,263.167 158,267.5C 158.939,258.1 158.439,248.767 156.5,239.5 Z"/></g>
<g><path style="opacity:1" fill="#1d1d1d" d="M 31.5,197.5 C 32.4916,197.328 33.1583,197.662 33.5,198.5C 11.6169,224.598 6.2836,253.932 17.5,286.5C 17.5,287.167 17.1667,287.5 16.5,287.5C 4.6635,254.518 9.6635,224.518 31.5,197.5 Z"/></g>
<g><path style="opacity:1" fill="#2f2f2f" d="M 100.5,221.5 C 121.099,227.311 129.933,240.978 127,262.5C 123.416,275.75 114.916,283.917 101.5,287C 84.1589,289 71.8255,282.167 64.5,266.5C 58.6228,246.216 65.2894,231.716 84.5,223C 89.7674,221.809 95.1007,221.309 100.5,221.5 Z"/></g>
<g><path style="opacity:1" fill="#fbfbfb" d="M 106.5,282.5 C 98.0588,284.034 89.7255,283.701 81.5,281.5C 76.6217,279.461 72.7883,276.127 70,271.5C 59.5898,250.818 64.7564,235.318 85.5,225C 104.412,220.937 117.579,227.771 125,245.5C 127.364,259.41 123.198,270.91 112.5,280C 110.512,280.938 108.512,281.772 106.5,282.5 Z"/></g>
<g><path style="opacity:1" fill="#e4e4e4" d="M 94.5,217.5 C 116.976,218.809 129.643,230.642 132.5,253C 131.081,276.347 118.748,289.18 95.5,291.5C 79.2604,290.904 67.9271,283.238 61.5,268.5C 63.1788,268.715 64.1788,268.048 64.5,266.5C 71.8255,282.167 84.1589,289 101.5,287C 114.916,283.917 123.416,275.75 127,262.5C 129.933,240.978 121.099,227.311 100.5,221.5C 102.288,221.785 103.955,221.452 105.5,220.5C 101.787,219.222 98.12,218.222 94.5,217.5 Z"/></g>
<g><path style="opacity:1" fill="#2f2f2f" d="M 61.5,268.5 C 67.9271,283.238 79.2604,290.904 95.5,291.5C 118.748,289.18 131.081,276.347 132.5,253C 129.643,230.642 116.976,218.809 94.5,217.5C 108.467,215.045 119.634,220.045 128,232.5C 136.237,246.226 136.57,260.226 129,274.5C 119.077,289.208 105.244,295.374 87.5,293C 68.8775,287.945 58.5442,275.779 56.5,256.5C 56.8333,255.5 57.1667,254.5 57.5,253.5C 58.8351,258.513 60.1684,263.513 61.5,268.5 Z"/></g>
<g><path style="opacity:1" fill="#c6c6c6" d="M 81.5,281.5 C 89.7255,283.701 98.0588,284.034 106.5,282.5C 97.9953,286.729 89.6619,286.396 81.5,281.5 Z"/></g>
<g><path style="opacity:1" fill="#e1e1e1" d="M 76.5,314.5 C 71.3595,315.488 66.0262,315.821 60.5,315.5C 58.2005,310.924 55.3671,306.59 52,302.5C 51.3123,301.668 51.479,301.002 52.5,300.5C 59.2847,307.292 67.2847,311.959 76.5,314.5 Z"/></g>
<g><path style="opacity:1" fill="#e3e3e3" d="M 138.5,301.5 C 137.833,302.833 137.167,304.167 136.5,305.5C 134.15,308.349 132.15,311.515 130.5,315C 124.833,315.667 119.167,315.667 113.5,315C 122.657,311.844 130.823,307.011 138,300.5C 138.399,300.728 138.565,301.062 138.5,301.5 Z"/></g>
<g><path style="opacity:1" fill="#2e2e2e" d="M 17.5,286.5 C 31.1796,315.505 53.8463,332.838 85.5,338.5C 83.7354,339.461 81.7354,339.795 79.5,339.5C 49.7846,332.799 28.7846,315.465 16.5,287.5C 17.1667,287.5 17.5,287.167 17.5,286.5 Z"/></g>
<g><path style="opacity:1" fill="#9a9a9a" d="M 80.5,313.5 C 88.4659,314.365 96.4659,314.698 104.5,314.5C 99.6946,315.487 94.6946,315.821 89.5,315.5C 86.1709,315.785 83.1709,315.118 80.5,313.5 Z"/></g>
<g><path style="opacity:1" fill="#3b3b3b" d="M 138.5,297.5 C 139.354,299.035 139.354,300.368 138.5,301.5C 138.565,301.062 138.399,300.728 138,300.5C 130.823,307.011 122.657,311.844 113.5,315C 119.167,315.667 124.833,315.667 130.5,315C 132.15,311.515 134.15,308.349 136.5,305.5C 136.328,306.492 136.662,307.158 137.5,307.5C 135.636,310.723 133.636,313.89 131.5,317C 106.997,317.83 82.6632,317.663 58.5,316.5C 59.4916,316.672 60.1583,316.338 60.5,315.5C 66.0262,315.821 71.3595,315.488 76.5,314.5C 80.786,316.591 85.1194,316.924 89.5,315.5C 94.6946,315.821 99.6946,315.487 104.5,314.5C 117.46,312.02 128.793,306.354 138.5,297.5 Z"/></g>
<g><path style="opacity:1" fill="#818181" d="M 85.5,338.5 C 92.1667,338.5 98.8333,338.5 105.5,338.5C 99.3466,339.328 93.0133,339.828 86.5,340C 92.1569,340.499 97.8236,340.666 103.5,340.5C 100.351,341.165 97.0175,341.498 93.5,341.5C 88.5629,341.7 83.8962,341.033 79.5,339.5C 81.7354,339.795 83.7354,339.461 85.5,338.5 Z"/></g>
</svg>
