<?xml version="1.0" encoding="UTF-8"?>
<!DOCTYPE svg PUBLIC "-//W3C//DTD SVG 1.1//EN" "http://www.w3.org/Graphics/SVG/1.1/DTD/svg11.dtd">
<svg xmlns="http://www.w3.org/2000/svg" version="1.1" width="721px" height="164px" style="shape-rendering:geometricPrecision; text-rendering:geometricPrecision; image-rendering:optimizeQuality; fill-rule:evenodd; clip-rule:evenodd" xmlns:xlink="http://www.w3.org/1999/xlink">
<g><path style="opacity:1" fill="#fefefe" d="M -0.5,-0.5 C 239.833,-0.5 480.167,-0.5 720.5,-0.5C 720.5,54.1667 720.5,108.833 720.5,163.5C 480.167,163.5 239.833,163.5 -0.5,163.5C -0.5,108.833 -0.5,54.1667 -0.5,-0.5 Z"/></g>
<g><path style="opacity:1" fill="#262524" d="M 97.5,23.5 C 96.6043,22.4937 95.9377,22.4937 95.5,23.5C 86.5678,32.0963 77.5678,40.763 68.5,49.5C 67.5344,51.396 67.2011,53.396 67.5,55.5C 66.5084,55.3284 65.8417,55.6618 65.5,56.5C 56.5082,48.0083 47.6749,39.3417 39,30.5C 38.3333,33.5 38.3333,36.5 39,39.5C 46.7025,47.0351 54.2025,54.7017 61.5,62.5C 57.367,63.7263 53.367,63.7263 49.5,62.5C 48.391,62.5569 47.391,62.8902 46.5,63.5C 46.6716,62.5084 46.3382,61.8417 45.5,61.5C 43.5389,59.0365 41.3722,56.7032 39,54.5C 38.5026,57.146 38.3359,59.8127 38.5,62.5C 38.5,62.8333 38.5,63.1667 38.5,63.5C 37.8333,59.8333 37.1667,56.1667 36.5,52.5C 36.5,41.8333 36.5,31.1667 36.5,20.5C 36.3433,19.1266 36.51,17.7932 37,16.5C 40.5637,29.6446 46.0637,30.6446 53.5,19.5C 56.3351,17.0371 59.3351,16.8704 62.5,19C 65.751,22.7585 69.4177,25.9251 73.5,28.5C 77.9681,25.5317 81.9681,22.0317 85.5,18C 89.7929,16.7984 93.2929,17.9651 96,21.5C 96.3333,21.1667 96.6667,20.8333 97,20.5C 97.4828,21.448 97.6495,22.448 97.5,23.5 Z"/></g>
<g><path style="opacity:1" fill="#e9e9e9" d="M 87.5,18.5 C 89.9366,18.886 91.9366,20.0527 93.5,22C 85,30.5 76.5,39 68,47.5C 67.3333,44.1667 67.3333,40.8333 68,37.5C 75.0576,31.6074 81.5576,25.2741 87.5,18.5 Z"/></g>
<g><path style="opacity:1" fill="#e9e9e7" d="M 56.5,20.5 C 57.6009,19.4017 58.9343,19.235 60.5,20C 63.887,22.0016 65.387,24.835 65,28.5C 62.2972,25.6286 59.4639,22.9619 56.5,20.5 Z"/></g>
<g><path style="opacity:1" fill="#f8f7f7" d="M 95.5,23.5 C 95.6646,26.5184 95.498,29.5184 95,32.5C 86,41.5 77,50.5 68,59.5C 67.51,58.2068 67.3433,56.8734 67.5,55.5C 67.2011,53.396 67.5344,51.396 68.5,49.5C 77.5678,40.763 86.5678,32.0963 95.5,23.5 Z"/></g>
<g><path style="opacity:1" fill="#f9f9f7" d="M 53.5,21.5 C 57.7372,24.2281 61.5706,27.5615 65,31.5C 65.6667,34.5 65.6667,37.5 65,40.5C 60.1667,35.6667 55.3333,30.8333 50.5,26C 51.3862,24.3853 52.3862,22.8853 53.5,21.5 Z"/></g>
<g><path style="opacity:1" fill="#c0c0be" d="M 36.5,20.5 C 36.5,31.1667 36.5,41.8333 36.5,52.5C 36.8174,55.5719 36.4841,58.5719 35.5,61.5C 34.8933,61.3764 34.56,61.0431 34.5,60.5C 35.1667,47.1667 35.8333,33.8333 36.5,20.5 Z"/></g>
<g><path style="opacity:1" fill="#c9c8c6" d="M 67.5,27.5 C 68.8149,28.4756 70.1482,29.4756 71.5,30.5C 68.2382,35.3844 66.9049,34.3844 67.5,27.5 Z"/></g>
<g><path style="opacity:1" fill="#efeeec" d="M 38.5,25.5 C 40.2345,27.2351 42.2345,28.5684 44.5,29.5C 46.1871,29.2395 47.6871,28.5728 49,27.5C 54.3333,32.8333 59.6667,38.1667 65,43.5C 65.6667,46.8333 65.6667,50.1667 65,53.5C 55.575,44.5792 46.7417,35.2459 38.5,25.5 Z"/></g>
<g><path style="opacity:1" fill="#fafaf9" d="M 65.5,56.5 C 65.5,58.5 65.5,60.5 65.5,62.5C 64.1667,62.5 62.8333,62.5 61.5,62.5C 54.2025,54.7017 46.7025,47.0351 39,39.5C 38.3333,36.5 38.3333,33.5 39,30.5C 47.6749,39.3417 56.5082,48.0083 65.5,56.5 Z"/></g>
<g><path style="opacity:1" fill="#f7f6f5" d="M 49.5,62.5 C 46.2039,58.7024 42.7039,55.0357 39,51.5C 38.3333,48.5 38.3333,45.5 39,42.5C 45.5,49 52,55.5 58.5,62C 55.5184,62.498 52.5184,62.6646 49.5,62.5 Z"/></g>
<g><path style="opacity:1" fill="#525252" d="M 396.5,75.5 C 395.811,65.5987 395.144,55.5987 394.5,45.5C 395.222,45.0825 395.722,44.4158 396,43.5C 396.5,54.1615 396.667,64.8281 396.5,75.5 Z"/></g>
<g><path style="opacity:1" fill="#1d1d1c" d="M 394.5,45.5 C 395.144,55.5987 395.811,65.5987 396.5,75.5C 495.167,75.3333 593.834,75.5 692.5,76C 699.708,79.4299 706.374,83.5966 712.5,88.5C 706.298,92.532 699.965,96.3653 693.5,100C 594.501,100.5 495.501,100.667 396.5,100.5C 395.833,109.5 395.167,118.5 394.5,127.5C 394.667,101.165 394.5,74.8312 394,48.5C 392.833,46 391,44.1667 388.5,43C 391.294,42.0276 393.294,42.8609 394.5,45.5 Z"/></g>
<g><path style="opacity:1" fill="#fefefe" d="M 396.5,77.5 C 494.5,77.5 592.5,77.5 690.5,77.5C 690.5,84.5 690.5,91.5 690.5,98.5C 592.5,98.5 494.5,98.5 396.5,98.5C 396.5,91.5 396.5,84.5 396.5,77.5 Z"/></g>
<g><path style="opacity:1" fill="#f6f6f6" d="M 692.5,78.5 C 698.139,81.6546 703.806,84.8212 709.5,88C 704.332,91.4185 698.998,94.5852 693.5,97.5C 692.504,91.2015 692.17,84.8682 692.5,78.5 Z"/></g>
<g><path style="opacity:1" fill="#232322" d="M 97.5,23.5 C 97.5,28.8333 97.5,34.1667 97.5,39.5C 99.8568,39.3367 102.19,39.5034 104.5,40C 104.167,40.3333 103.833,40.6667 103.5,41C 105.709,42.8734 107.542,45.04 109,47.5C 109.667,73.5 109.667,99.5 109,125.5C 108.974,128.105 107.807,129.271 105.5,129C 106.191,127.933 106.691,126.766 107,125.5C 107.5,117.173 107.666,108.84 107.5,100.5C 78.9958,100.071 50.6625,100.571 22.5,102C 20,100.833 18.1667,99 17,96.5C 16.3333,90.1667 16.3333,83.8333 17,77.5C 20.554,72.5488 25.054,71.3821 30.5,74C 56.1645,74.5 81.8312,74.6666 107.5,74.5C 107.666,65.8269 107.5,57.1603 107,48.5C 105.078,44.4034 101.912,42.0701 97.5,41.5C 97.6663,48.5079 97.4996,55.5079 97,62.5C 96.5,63 96,63.5 95.5,64C 75.5,64.6667 55.5,64.6667 35.5,64C 26.3392,58.4439 18.5059,59.9439 12,68.5C 11.3333,81.1667 11.3333,93.8333 12,106.5C 16.3013,112.568 22.1346,115.235 29.5,114.5C 30.4916,114.328 31.1583,114.662 31.5,115.5C 22.0234,118.006 14.8567,115.006 10,106.5C 9.33333,93.8333 9.33333,81.1667 10,68.5C 15.8928,58.9247 24.0594,56.258 34.5,60.5C 34.56,61.0431 34.8933,61.3764 35.5,61.5C 36.4841,58.5719 36.8174,55.5719 36.5,52.5C 37.1667,56.1667 37.8333,59.8333 38.5,63.5C 41.1667,63.5 43.8333,63.5 46.5,63.5C 47.391,62.8902 48.391,62.5569 49.5,62.5C 53.367,63.7263 57.367,63.7263 61.5,62.5C 62.9187,63.4511 64.5853,63.7845 66.5,63.5C 66.8016,60.9407 66.4682,58.6074 65.5,56.5C 65.8417,55.6618 66.5084,55.3284 67.5,55.5C 67.3433,56.8734 67.51,58.2068 68,59.5C 77,50.5 86,41.5 95,32.5C 95.498,29.5184 95.6646,26.5184 95.5,23.5C 95.9377,22.4937 96.6043,22.4937 97.5,23.5 Z"/></g>
<g><path style="opacity:1" fill="#c0bfbe" d="M 41.5,97.5 C 63.1667,97.5 84.8333,97.5 106.5,97.5C 106.5,90.8333 106.5,84.1667 106.5,77.5C 83.9938,77.1692 61.6604,77.5026 39.5,78.5C 38.5266,78.0133 37.5266,77.5133 36.5,77C 60.1643,76.5 83.831,76.3334 107.5,76.5C 107.5,83.8333 107.5,91.1667 107.5,98.5C 84.1206,98.8339 62.1206,98.5006 41.5,97.5 Z"/></g>
<g><path style="opacity:1" fill="#4f4b4a" d="M 32.5,77.5 C 32.176,84.3543 32.5093,91.021 33.5,97.5C 33.44,98.0431 33.1067,98.3764 32.5,98.5C 31.1812,91.344 31.1812,84.344 32.5,77.5 Z"/></g>
<g><path style="opacity:1" fill="#f0eceb" d="M 32.5,77.5 C 33.766,78.0899 35.0993,78.5899 36.5,79C 32.6205,80.8571 32.9538,82.1904 37.5,83C 36.552,83.4828 35.552,83.6495 34.5,83.5C 34.5614,85.5922 35.5614,87.0922 37.5,88C 32.8074,88.8164 32.4741,90.3164 36.5,92.5C 33.285,93.4478 32.9516,94.7811 35.5,96.5C 35.0431,97.2975 34.3764,97.6309 33.5,97.5C 32.5093,91.021 32.176,84.3543 32.5,77.5 Z"/></g>
<g><path style="opacity:1" fill="#fdfdfd" d="M 39.5,78.5 C 61.6604,77.5026 83.9938,77.1692 106.5,77.5C 106.5,84.1667 106.5,90.8333 106.5,97.5C 84.8333,97.5 63.1667,97.5 41.5,97.5C 41.4226,96.2502 40.756,95.4169 39.5,95C 45.9543,93.7388 45.9543,92.0721 39.5,90C 40.3081,89.6924 40.9747,89.1924 41.5,88.5C 40.7366,87.2807 39.7366,86.2807 38.5,85.5C 42.3397,84.1399 42.3397,82.6399 38.5,81C 40.3588,80.3992 40.6921,79.5659 39.5,78.5 Z"/></g>
<g><path style="opacity:1" fill="#f1f1f0" d="M 22.5,74.5 C 25.3646,74.0548 27.8646,74.7215 30,76.5C 30.4997,84.1594 30.6664,91.8261 30.5,99.5C 25.8116,101.598 21.9782,100.598 19,96.5C 18.3333,90.5 18.3333,84.5 19,78.5C 20.3756,77.2949 21.5423,75.9616 22.5,74.5 Z"/></g>
<g><path style="opacity:1" fill="#838382" d="M 81.5,61.5 C 83.9479,62.4731 86.6146,62.8064 89.5,62.5C 86.6447,63.8032 83.6447,63.8032 80.5,62.5C 80.6236,61.8933 80.9569,61.56 81.5,61.5 Z"/></g>
<g><path style="opacity:1" fill="#6b6a68" d="M 65.5,56.5 C 66.4682,58.6074 66.8016,60.9407 66.5,63.5C 64.5853,63.7845 62.9187,63.4511 61.5,62.5C 62.8333,62.5 64.1667,62.5 65.5,62.5C 65.5,60.5 65.5,58.5 65.5,56.5 Z"/></g>
<g><path style="opacity:1" fill="#888785" d="M 45.5,61.5 C 46.3382,61.8417 46.6716,62.5084 46.5,63.5C 43.8333,63.5 41.1667,63.5 38.5,63.5C 38.5,63.1667 38.5,62.8333 38.5,62.5C 41.0593,62.8016 43.3926,62.4682 45.5,61.5 Z"/></g>
<g><path style="opacity:1" fill="#eeedeb" d="M 45.5,61.5 C 43.3926,62.4682 41.0593,62.8016 38.5,62.5C 38.3359,59.8127 38.5026,57.146 39,54.5C 41.3722,56.7032 43.5389,59.0365 45.5,61.5 Z"/></g>
<g><path style="opacity:1" fill="#f9f9f8" d="M 89.5,62.5 C 86.6146,62.8064 83.9479,62.4731 81.5,61.5C 86.1312,57.3701 90.6312,53.0367 95,48.5C 96.9719,54.776 95.1386,59.4426 89.5,62.5 Z"/></g>
<g><path style="opacity:1" fill="#ecebea" d="M 94.5,35.5 C 95.6408,38.6399 95.8075,41.9733 95,45.5C 89.1667,51.3333 83.3333,57.1667 77.5,63C 74.1667,63.6667 70.8333,63.6667 67.5,63C 76.7023,53.965 85.7023,44.7984 94.5,35.5 Z"/></g>
<g><path style="opacity:1" fill="#1a1a1a" d="M 384.5,133.5 C 385.833,134.167 387.167,134.833 388.5,135.5C 388.167,135.5 387.833,135.5 387.5,135.5C 385.708,135.634 384.042,135.301 382.5,134.5C 382.813,127.245 382.48,120.079 381.5,113C 343.5,112.667 305.5,112.333 267.5,112C 267,111.5 266.5,111 266,110.5C 265.502,107.183 265.335,103.85 265.5,100.5C 261.932,100.917 258.432,101.584 255,102.5C 250.3,102.987 247.3,100.987 246,96.5C 240.925,78.0825 247.425,71.0825 265.5,75.5C 265.125,72.6035 265.625,69.9368 267,67.5C 267.176,81.7414 267.676,95.9081 268.5,110C 306.405,110.17 344.238,110.67 382,111.5C 382.5,96.1703 382.667,80.837 382.5,65.5C 344.494,65.8332 306.494,65.4999 268.5,64.5C 306.162,63.6667 343.829,63.1667 381.5,63C 382.317,55.2457 382.817,47.4124 383,39.5C 384.419,40.4601 385.919,41.2935 387.5,42C 386.552,42.4828 385.552,42.6495 384.5,42.5C 384.5,72.8333 384.5,103.167 384.5,133.5 Z"/></g>
<g><path style="opacity:1" fill="#fdfdfc" d="M 261.5,77.5 C 262.833,77.5 264.167,77.5 265.5,77.5C 265.5,84.5 265.5,91.5 265.5,98.5C 264.167,98.5 262.833,98.5 261.5,98.5C 261.5,91.5 261.5,84.5 261.5,77.5 Z"/></g>
<g><path style="opacity:1" fill="#f9f9f9" d="M 251.5,75.5 C 254.119,75.2317 256.619,75.565 259,76.5C 259.814,84.4128 259.647,92.2462 258.5,100C 252.341,101.839 248.508,99.6725 247,93.5C 245.226,86.5231 246.726,80.5231 251.5,75.5 Z"/></g>
<g><path style="opacity:1" fill="#c0bfbe" d="M 34.5,114.5 C 34.56,113.957 34.8933,113.624 35.5,113.5C 36.4992,127.15 36.8325,140.817 36.5,154.5C 35.8333,141.167 35.1667,127.833 34.5,114.5 Z"/></g>
<g><path style="opacity:1" fill="#373736" d="M 396.5,100.5 C 396.666,109.839 396.5,119.173 396,128.5C 394.285,131.717 391.785,134.05 388.5,135.5C 387.167,134.833 385.833,134.167 384.5,133.5C 389.08,133.588 392.413,131.588 394.5,127.5C 395.167,118.5 395.833,109.5 396.5,100.5 Z"/></g>
<g><path style="opacity:1" fill="#787878" d="M 382.5,134.5 C 384.042,135.301 385.708,135.634 387.5,135.5C 385.81,136.103 384.31,137.103 383,138.5C 382.51,137.207 382.343,135.873 382.5,134.5 Z"/></g>
<g><path style="opacity:1" fill="#20201e" d="M 36.5,154.5 C 36.8325,140.817 36.4992,127.15 35.5,113.5C 34.8933,113.624 34.56,113.957 34.5,114.5C 33.391,114.557 32.391,114.89 31.5,115.5C 31.1583,114.662 30.4916,114.328 29.5,114.5C 31.5681,113.625 33.5681,112.459 35.5,111C 55.5,110.333 75.5,110.333 95.5,111C 96,111.5 96.5,112 97,112.5C 97.4996,119.492 97.6663,126.492 97.5,133.5C 100.797,133.329 101.131,133.995 98.5,135.5C 97.6701,141.138 97.1701,146.804 97,152.5C 94.5803,156.624 91.0803,158.457 86.5,158C 82.8504,154.419 79.1838,150.752 75.5,147C 74.8333,146.833 74.1667,146.667 73.5,146.5C 69.0479,149.778 64.7146,153.278 60.5,157C 58.0288,157.706 55.6954,157.373 53.5,156C 51.3209,152.488 48.4875,149.654 45,147.5C 41.9445,149.737 39.1111,152.07 36.5,154.5 Z"/></g>
<g><path style="opacity:1" fill="#f0efee" d="M 38.5,132.5 C 46.1457,139.479 53.479,146.812 60.5,154.5C 58.9255,155.631 57.2588,155.798 55.5,155C 53.4023,152.146 51.069,149.479 48.5,147C 39.5301,146.181 36.1967,141.348 38.5,132.5 Z"/></g>
<g><path style="opacity:1" fill="#efefed" d="M 94.5,121.5 C 95.6408,124.64 95.8075,127.973 95,131.5C 89.6667,136.833 84.3333,142.167 79,147.5C 77.2002,145.683 75.0336,144.516 72.5,144C 80.0358,136.632 87.3692,129.132 94.5,121.5 Z"/></g>
<g><path style="opacity:1" fill="#fafaf9" d="M 38.5,120.5 C 47.465,128.964 56.2983,137.631 65,146.5C 66.1153,150.021 64.9486,151.854 61.5,152C 54,144.5 46.5,137 39,129.5C 38.502,126.518 38.3354,123.518 38.5,120.5 Z"/></g>
<g><path style="opacity:1" fill="#f9f9f7" d="M 91.5,112.5 C 95.2253,112.78 96.392,114.78 95,118.5C 86,127.5 77,136.5 68,145.5C 67.3333,142.5 67.3333,139.5 68,136.5C 76.0358,128.632 83.8691,120.632 91.5,112.5 Z"/></g>
<g><path style="opacity:1" fill="#a5a4a2" d="M 75.5,113.5 C 73.3926,112.532 71.0593,112.198 68.5,112.5C 68.1984,115.059 68.5318,117.393 69.5,119.5C 69.44,120.043 69.1067,120.376 68.5,120.5C 67.5159,117.572 67.1826,114.572 67.5,111.5C 70.5719,111.183 73.5719,111.516 76.5,112.5C 76.3764,113.107 76.0431,113.44 75.5,113.5 Z"/></g>
<g><path style="opacity:1" fill="#f1f0ef" d="M 38.5,112.5 C 40.5273,112.338 42.5273,112.505 44.5,113C 51.3333,119.833 58.1667,126.667 65,133.5C 65.6667,136.833 65.6667,140.167 65,143.5C 56.3333,134.833 47.6667,126.167 39,117.5C 38.5065,115.866 38.3398,114.199 38.5,112.5 Z"/></g>
<g><path style="opacity:1" fill="#e6e5e3" d="M 79.5,111.5 C 82.5719,111.183 85.5719,111.516 88.5,112.5C 81.848,119.652 75.0147,126.652 68,133.5C 67.3333,130.167 67.3333,126.833 68,123.5C 72.037,119.631 75.8704,115.631 79.5,111.5 Z"/></g>
<g><path style="opacity:1" fill="#fcfcfa" d="M 75.5,113.5 C 73.1667,115.167 71.1667,117.167 69.5,119.5C 68.5318,117.393 68.1984,115.059 68.5,112.5C 71.0593,112.198 73.3926,112.532 75.5,113.5 Z"/></g>
<g><path style="opacity:1" fill="#fafaf8" d="M 59.5,113.5 C 61.2646,112.539 63.2646,112.205 65.5,112.5C 65.6621,114.527 65.4955,116.527 65,118.5C 63.2962,116.627 61.4628,114.96 59.5,113.5 Z"/></g>
<g><path style="opacity:1" fill="#fbfbf9" d="M 47.5,113.5 C 50.3035,112.362 53.3035,112.195 56.5,113C 59.3333,115.833 62.1667,118.667 65,121.5C 65.6667,124.5 65.6667,127.5 65,130.5C 59.2981,124.63 53.4647,118.964 47.5,113.5 Z"/></g>
<g><path style="opacity:1" fill="#eeeeec" d="M 94.5,133.5 C 95.6408,136.64 95.8075,139.973 95,143.5C 91.8333,146.667 88.6667,149.833 85.5,153C 84.8333,153.667 84.1667,153.667 83.5,153C 82.0552,151.29 81.2218,149.456 81,147.5C 85.7033,142.965 90.2033,138.298 94.5,133.5 Z"/></g>
<g><path style="opacity:1" fill="#f6f6f4" d="M 38.5,145.5 C 40.8519,146.543 41.0185,147.876 39,149.5C 38.51,148.207 38.3433,146.873 38.5,145.5 Z"/></g>
<g><path style="opacity:1" fill="#ebeaea" d="M 94.5,146.5 C 95.9823,150.951 94.3157,154.118 89.5,156C 88.365,156.749 87.365,156.583 86.5,155.5C 89.189,152.48 91.8556,149.48 94.5,146.5 Z"/></g>
</svg>
