<?xml version="1.0" encoding="UTF-8"?>
<!DOCTYPE svg PUBLIC "-//W3C//DTD SVG 1.1//EN" "http://www.w3.org/Graphics/SVG/1.1/DTD/svg11.dtd">
<svg xmlns="http://www.w3.org/2000/svg" version="1.1" width="109px" height="434px" style="shape-rendering:geometricPrecision; text-rendering:geometricPrecision; image-rendering:optimizeQuality; fill-rule:evenodd; clip-rule:evenodd" xmlns:xlink="http://www.w3.org/1999/xlink">
<g><path style="opacity:1" fill="#fefefe" d="M -0.5,-0.5 C 35.8333,-0.5 72.1667,-0.5 108.5,-0.5C 108.5,144.167 108.5,288.833 108.5,433.5C 72.1667,433.5 35.8333,433.5 -0.5,433.5C -0.5,288.833 -0.5,144.167 -0.5,-0.5 Z"/></g>
<g><path style="opacity:1" fill="#4d4d4d" d="M 65.5,28.5 C 64.5655,27.4324 64.2322,26.099 64.5,24.5C 57.3134,24.8245 50.3134,24.4912 43.5,23.5C 50.5,23.5 57.5,23.5 64.5,23.5C 65.23,15.664 61.5633,11.9973 53.5,12.5C 46.7466,12.0125 43.0799,15.0125 42.5,21.5C 41.8333,21.5 41.5,21.8333 41.5,22.5C 39.2314,16.2076 41.5648,12.3742 48.5,11C 55.8058,9.21475 61.9724,11.0481 67,16.5C 67.3251,20.6421 66.8251,24.6421 65.5,28.5 Z"/></g>
<g><path style="opacity:1" fill="#f4f4f4" d="M 43.5,23.5 C 43.1667,22.8333 42.8333,22.1667 42.5,21.5C 43.0799,15.0125 46.7466,12.0125 53.5,12.5C 61.5633,11.9973 65.23,15.664 64.5,23.5C 57.5,23.5 50.5,23.5 43.5,23.5 Z"/></g>
<g><path style="opacity:1" fill="#a5a5a5" d="M 41.5,24.5 C 42.4511,25.9187 42.7845,27.5853 42.5,29.5C 39.5,29.5 36.5,29.5 33.5,29.5C 35.9479,28.5269 38.6146,28.1936 41.5,28.5C 41.5,27.1667 41.5,25.8333 41.5,24.5 Z"/></g>
<g><path style="opacity:1" fill="#4d4d4d" d="M 74.5,30.5 C 75.3382,30.8417 75.6716,31.5084 75.5,32.5C 74.5017,65.9959 74.1684,99.6625 74.5,133.5C 74.1667,133.5 73.8333,133.5 73.5,133.5C 73.5,99.5 73.5,65.5 73.5,31.5C 74.1667,31.5 74.5,31.1667 74.5,30.5 Z"/></g>
<g><path style="opacity:1" fill="#c4c4c4" d="M 74.5,30.5 C 74.5,30.1667 74.5,29.8333 74.5,29.5C 76.4932,63.4838 77.1599,97.8171 76.5,132.5C 75.5017,99.3375 75.1684,66.0042 75.5,32.5C 75.6716,31.5084 75.3382,30.8417 74.5,30.5 Z"/></g>
<g><path style="opacity:1" fill="#373737" d="M 75.5,32.5 C 75.1684,66.0042 75.5017,99.3375 76.5,132.5C 76.5,132.833 76.5,133.167 76.5,133.5C 75.8333,133.5 75.1667,133.5 74.5,133.5C 74.1684,99.6625 74.5017,65.9959 75.5,32.5 Z"/></g>
<g><path style="opacity:1" fill="#bbbbbb" d="M 73.5,31.5 C 73.5,65.5 73.5,99.5 73.5,133.5C 60.1667,133.5 46.8333,133.5 33.5,133.5C 33.1683,99.3292 33.5017,65.3292 34.5,31.5C 47.5,30.1667 60.5,30.1667 73.5,31.5 Z"/></g>
<g><path style="opacity:1" fill="#fefefe" d="M 34.5,31.5 C 47.1667,31.5 59.8333,31.5 72.5,31.5C 72.5,65.1667 72.5,98.8333 72.5,132.5C 59.8333,132.5 47.1667,132.5 34.5,132.5C 34.5,98.8333 34.5,65.1667 34.5,31.5 Z"/></g>
<g><path style="opacity:1" fill="#222222" d="M 42.5,21.5 C 42.8333,22.1667 43.1667,22.8333 43.5,23.5C 50.3134,24.4912 57.3134,24.8245 64.5,24.5C 64.2322,26.099 64.5655,27.4324 65.5,28.5C 68.2869,29.4767 71.2869,29.81 74.5,29.5C 74.5,29.8333 74.5,30.1667 74.5,30.5C 74.5,31.1667 74.1667,31.5 73.5,31.5C 60.5,30.1667 47.5,30.1667 34.5,31.5C 33.5017,65.3292 33.1683,99.3292 33.5,133.5C 46.8333,133.5 60.1667,133.5 73.5,133.5C 73.8333,133.5 74.1667,133.5 74.5,133.5C 75.1667,133.5 75.8333,133.5 76.5,133.5C 83.1667,133.5 89.8333,133.5 96.5,133.5C 96.4307,139.881 93.4307,143.881 87.5,145.5C 80.1667,145.5 72.8333,145.5 65.5,145.5C 64.8333,145.5 64.1667,145.5 63.5,145.5C 57.1667,145.5 50.8333,145.5 44.5,145.5C 43.8333,145.5 43.1667,145.5 42.5,145.5C 34.8333,145.5 27.1667,145.5 19.5,145.5C 13.358,143.896 10.6913,139.896 11.5,133.5C 18.4222,133.812 25.2555,133.479 32,132.5C 32.1675,97.9976 32.6675,63.6642 33.5,29.5C 36.5,29.5 39.5,29.5 42.5,29.5C 42.7845,27.5853 42.4511,25.9187 41.5,24.5C 41.5,23.8333 41.5,23.1667 41.5,22.5C 41.5,21.8333 41.8333,21.5 42.5,21.5 Z"/></g>
<g><path style="opacity:1" fill="#fbfbfb" d="M 13.5,135.5 C 40.5,135.5 67.5,135.5 94.5,135.5C 94.4559,139.09 92.7892,141.59 89.5,143C 65.5,143.667 41.5,143.667 17.5,143C 14.9756,141.117 13.6423,138.617 13.5,135.5 Z"/></g>
<g><path style="opacity:1" fill="#a2a2a2" d="M 44.5,26.5 C 50.6446,25.5098 56.9779,25.1765 63.5,25.5C 63.5,26.8333 63.5,28.1667 63.5,29.5C 56.9779,29.8235 50.6446,29.4902 44.5,28.5C 68.5,27.8333 68.5,27.1667 44.5,26.5 Z"/></g>
<g><path style="opacity:1" fill="#f7f7f7" d="M 44.5,26.5 C 68.5,27.1667 68.5,27.8333 44.5,28.5C 44.5,27.8333 44.5,27.1667 44.5,26.5 Z"/></g>
<g><path style="opacity:1" fill="#424242" d="M 42.5,145.5 C 43.1667,145.5 43.8333,145.5 44.5,145.5C 44.5,145.833 44.5,146.167 44.5,146.5C 44.5,233.167 44.5,319.833 44.5,406.5C 50.6446,407.49 56.9779,407.823 63.5,407.5C 63.5,320.167 63.5,232.833 63.5,145.5C 64.1667,145.5 64.8333,145.5 65.5,145.5C 65.5,233.167 65.5,320.833 65.5,408.5C 64.8333,409.5 64.1667,410.5 63.5,411.5C 62.596,410.791 62.2627,409.791 62.5,408.5C 56.642,408.178 50.9753,408.511 45.5,409.5C 45.5,409.833 45.5,410.167 45.5,410.5C 45.5,411.167 45.5,411.833 45.5,412.5C 44.2719,411.694 43.2719,410.694 42.5,409.5C 42.5,321.5 42.5,233.5 42.5,145.5 Z"/></g>
<g><path style="opacity:1" fill="#fcfcfc" d="M 44.5,146.5 C 50.5,146.5 56.5,146.5 62.5,146.5C 62.5,233.167 62.5,319.833 62.5,406.5C 56.5,406.5 50.5,406.5 44.5,406.5C 44.5,319.833 44.5,233.167 44.5,146.5 Z"/></g>
<g><path style="opacity:1" fill="#b0b0b0" d="M 19.5,145.5 C 27.1667,145.5 34.8333,145.5 42.5,145.5C 42.5,233.5 42.5,321.5 42.5,409.5C 41.5006,322.002 41.1673,234.335 41.5,146.5C 33.9809,146.825 26.6476,146.492 19.5,145.5 Z"/></g>
<g><path style="opacity:1" fill="#acacac" d="M 44.5,146.5 C 44.5,146.167 44.5,145.833 44.5,145.5C 50.8333,145.5 57.1667,145.5 63.5,145.5C 63.5,232.833 63.5,320.167 63.5,407.5C 56.9779,407.823 50.6446,407.49 44.5,406.5C 50.5,406.5 56.5,406.5 62.5,406.5C 62.5,319.833 62.5,233.167 62.5,146.5C 56.5,146.5 50.5,146.5 44.5,146.5 Z"/></g>
<g><path style="opacity:1" fill="#e6e6e6" d="M 65.5,145.5 C 72.8333,145.5 80.1667,145.5 87.5,145.5C 80.6866,146.491 73.6866,146.825 66.5,146.5C 66.8327,234.002 66.4994,321.335 65.5,408.5C 65.5,320.833 65.5,233.167 65.5,145.5 Z"/></g>
<g><path style="opacity:1" fill="#f1f1f1" d="M 45.5,410.5 C 45.5,410.167 45.5,409.833 45.5,409.5C 50.8746,409.172 56.2079,409.505 61.5,410.5C 59.3163,414.881 56.6496,418.881 53.5,422.5C 50.81,418.435 48.1433,414.435 45.5,410.5 Z"/></g>
<g><path style="opacity:1" fill="#454545" d="M 45.5,409.5 C 50.9753,408.511 56.642,408.178 62.5,408.5C 62.2627,409.791 62.596,410.791 63.5,411.5C 60.8327,416.839 57.666,421.839 54,426.5C 53.228,426.355 52.5613,426.022 52,425.5C 49.8068,421.114 47.6401,416.78 45.5,412.5C 45.5,411.833 45.5,411.167 45.5,410.5C 48.1433,414.435 50.81,418.435 53.5,422.5C 56.6496,418.881 59.3163,414.881 61.5,410.5C 56.2079,409.505 50.8746,409.172 45.5,409.5 Z"/></g>
</svg>
