<?xml version="1.0" encoding="UTF-8"?>
<!DOCTYPE svg PUBLIC "-//W3C//DTD SVG 1.1//EN" "http://www.w3.org/Graphics/SVG/1.1/DTD/svg11.dtd">
<svg xmlns="http://www.w3.org/2000/svg" version="1.1" width="126px" height="429px" style="shape-rendering:geometricPrecision; text-rendering:geometricPrecision; image-rendering:optimizeQuality; fill-rule:evenodd; clip-rule:evenodd" xmlns:xlink="http://www.w3.org/1999/xlink">
<g><path style="opacity:1" fill="#fdfdfd" d="M -0.5,-0.5 C 41.5,-0.5 83.5,-0.5 125.5,-0.5C 125.5,142.5 125.5,285.5 125.5,428.5C 83.5,428.5 41.5,428.5 -0.5,428.5C -0.5,285.5 -0.5,142.5 -0.5,-0.5 Z"/></g>
<g><path style="opacity:1" fill="#bababa" d="M 10.5,53.5 C 10.347,59.8692 10.6803,66.2026 11.5,72.5C 10.7784,72.0825 10.2784,71.4158 10,70.5C 9.18163,64.6513 9.3483,58.9846 10.5,53.5 Z"/></g>
<g><path style="opacity:1" fill="#2f2f2f" d="M 76.5,113.5 C 69.8689,114.331 63.2022,114.664 56.5,114.5C 32.456,110.121 17.456,96.1207 11.5,72.5C 10.6803,66.2026 10.347,59.8692 10.5,53.5C 18.8124,21.0566 39.8124,6.22331 73.5,9C 100.454,15.9529 115.121,33.2863 117.5,61C 115.907,88.0542 102.241,105.554 76.5,113.5 Z"/></g>
<g><path style="opacity:1" fill="#f9f9f9" d="M 53.5,10.5 C 89.7978,8.63366 110.464,25.6337 115.5,61.5C 110.37,98.1303 89.3697,114.964 52.5,112C 23.9004,103.046 10.7337,83.5459 13,53.5C 17.7825,30.886 31.2825,16.5527 53.5,10.5 Z"/></g>
<g><path style="opacity:1" fill="#393939" d="M 56.5,31.5 C 63.3173,31.0643 69.984,31.7309 76.5,33.5C 92.763,42.4462 97.9296,55.7796 92,73.5C 84.6425,87.9312 72.8092,94.0979 56.5,92C 38.4123,85.552 30.579,72.7187 33,53.5C 37.1716,42.1589 45.005,34.8256 56.5,31.5 Z"/></g>
<g><path style="opacity:1" fill="#e7e7e7" d="M 59.5,32.5 C 75.7155,32.0157 86.5488,39.349 92,54.5C 94.0063,72.3143 86.5063,84.1477 69.5,90C 51.5302,91.7592 40.0302,83.9259 35,66.5C 34.1472,48.5023 42.3139,37.1689 59.5,32.5 Z"/></g>
<g><path style="opacity:1" fill="#313131" d="M 50.5,42.5 C 48.1638,44.0728 48.1638,45.4061 50.5,46.5C 47.8229,51.5062 45.1562,56.5062 42.5,61.5C 46.1165,67.735 49.4498,74.0683 52.5,80.5C 59.8635,80.8306 67.1968,80.4973 74.5,79.5C 77.9678,73.3973 81.3011,67.2306 84.5,61C 82.0209,56.5407 79.6875,52.0407 77.5,47.5C 78.4013,46.7095 79.0679,45.7095 79.5,44.5C 90.3982,56.4525 90.0649,68.2859 78.5,80C 65.2147,88.6926 53.7147,86.8593 44,74.5C 39.0246,64.8672 39.358,55.5339 45,46.5C 46.451,44.5359 48.2843,43.2026 50.5,42.5 Z"/></g>
<g><path style="opacity:1" fill="#7d7d7d" d="M 58.5,82.5 C 61.6399,81.3592 64.9733,81.1925 68.5,82C 65.2781,83.8175 61.9447,83.9842 58.5,82.5 Z"/></g>
<g><path style="opacity:1" fill="#f8f8f8" d="M 77.5,47.5 C 79.6875,52.0407 82.0209,56.5407 84.5,61C 81.3011,67.2306 77.9678,73.3973 74.5,79.5C 67.1968,80.4973 59.8635,80.8306 52.5,80.5C 49.4498,74.0683 46.1165,67.735 42.5,61.5C 45.1562,56.5062 47.8229,51.5062 50.5,46.5C 50.8039,45.8501 51.1373,45.1835 51.5,44.5C 59.5,43.1667 67.5,43.1667 75.5,44.5C 75.9424,45.7387 76.6091,46.7387 77.5,47.5 Z"/></g>
<g><path style="opacity:1" fill="#282828" d="M 59.5,38.5 C 67.1441,37.4945 73.8107,39.4945 79.5,44.5C 79.0679,45.7095 78.4013,46.7095 77.5,47.5C 76.6091,46.7387 75.9424,45.7387 75.5,44.5C 67.5,43.1667 59.5,43.1667 51.5,44.5C 51.1373,45.1835 50.8039,45.8501 50.5,46.5C 48.1638,45.4061 48.1638,44.0728 50.5,42.5C 51.6874,40.0246 53.6874,39.0246 56.5,39.5C 59.9292,41.3131 63.5959,41.8131 67.5,41C 64.7493,40.0572 62.0826,39.2239 59.5,38.5 Z"/></g>
<g><path style="opacity:1" fill="#727272" d="M 56.5,39.5 C 57.209,38.596 58.209,38.2627 59.5,38.5C 62.0826,39.2239 64.7493,40.0572 67.5,41C 63.5959,41.8131 59.9292,41.3131 56.5,39.5 Z"/></g>
<g><path style="opacity:1" fill="#9a9a9a" d="M 56.5,31.5 C 61.6503,30.3493 66.9836,30.1826 72.5,31C 74.3197,31.2004 75.653,32.0337 76.5,33.5C 69.984,31.7309 63.3173,31.0643 56.5,31.5 Z"/></g>
<g><path style="opacity:1" fill="#b1b1b1" d="M 76.5,113.5 C 76.3893,114.117 76.056,114.617 75.5,115C 68.9863,115.82 62.6529,115.653 56.5,114.5C 63.2022,114.664 69.8689,114.331 76.5,113.5 Z"/></g>
<g><path style="opacity:1" fill="#0f0f0f" d="M 33.5,151.5 C 33.5,151.167 33.5,150.833 33.5,150.5C 53.1667,150.5 72.8333,150.5 92.5,150.5C 92.5,150.833 92.5,151.167 92.5,151.5C 89.6122,150.99 87.2789,151.656 85.5,153.5C 85.1667,153.5 84.8333,153.5 84.5,153.5C 83.5084,153.328 82.8417,153.662 82.5,154.5C 80.8333,154.5 79.1667,154.5 77.5,154.5C 77.5,153.833 77.8333,153.5 78.5,153.5C 83.7866,152.039 83.4533,151.372 77.5,151.5C 76.2921,152.234 74.9587,152.567 73.5,152.5C 69.6575,154.002 65.6575,154.668 61.5,154.5C 59.3792,154.675 57.3792,154.341 55.5,153.5C 55.1583,152.662 54.4916,152.328 53.5,152.5C 49.5,151.167 45.5,151.167 41.5,152.5C 39.0521,151.527 36.3854,151.194 33.5,151.5 Z"/></g>
<g><path style="opacity:1" fill="#777777" d="M 77.5,151.5 C 83.4533,151.372 83.7866,152.039 78.5,153.5C 78.1667,152.833 77.8333,152.167 77.5,151.5 Z"/></g>
<g><path style="opacity:1" fill="#f9f9f9" d="M 33.5,152.5 C 35.8333,152.5 38.1667,152.5 40.5,152.5C 40.1765,159.022 40.5098,165.355 41.5,171.5C 47.4086,175.023 53.4086,178.356 59.5,181.5C 52.0074,182.166 44.3408,182.5 36.5,182.5C 28.4697,182.498 20.803,181.831 13.5,180.5C 17.4141,169.245 24.0807,159.911 33.5,152.5 Z"/></g>
<g><path style="opacity:1" fill="#f8f8f8" d="M 93.5,152.5 C 103.946,160.047 110.946,170.047 114.5,182.5C 98.9909,182.83 83.6576,182.496 68.5,181.5C 74.1667,178.167 79.8333,174.833 85.5,171.5C 86.4902,165.355 86.8235,159.022 86.5,152.5C 88.8333,152.5 91.1667,152.5 93.5,152.5 Z"/></g>
<g><path style="opacity:1" fill="#919191" d="M 33.5,152.5 C 33.5,152.167 33.5,151.833 33.5,151.5C 36.3854,151.194 39.0521,151.527 41.5,152.5C 41.5,158.833 41.5,165.167 41.5,171.5C 40.5098,165.355 40.1765,159.022 40.5,152.5C 38.1667,152.5 35.8333,152.5 33.5,152.5 Z"/></g>
<g><path style="opacity:1" fill="#686868" d="M 92.5,151.5 C 93.1667,151.5 93.5,151.833 93.5,152.5C 91.1667,152.5 88.8333,152.5 86.5,152.5C 86.8235,159.022 86.4902,165.355 85.5,171.5C 85.5,165.5 85.5,159.5 85.5,153.5C 87.2789,151.656 89.6122,150.99 92.5,151.5 Z"/></g>
<g><path style="opacity:1" fill="#282828" d="M 92.5,151.5 C 92.5,151.167 92.5,150.833 92.5,150.5C 98.6236,152.777 103.457,156.777 107,162.5C 111.232,168.298 114.399,174.631 116.5,181.5C 115.833,182.167 115.167,182.833 114.5,183.5C 114.5,183.167 114.5,182.833 114.5,182.5C 110.946,170.047 103.946,160.047 93.5,152.5C 93.5,151.833 93.1667,151.5 92.5,151.5 Z"/></g>
<g><path style="opacity:1" fill="#393939" d="M 33.5,150.5 C 33.5,150.833 33.5,151.167 33.5,151.5C 33.5,151.833 33.5,152.167 33.5,152.5C 24.0807,159.911 17.4141,169.245 13.5,180.5C 12.596,181.209 12.2627,182.209 12.5,183.5C 18.2595,184.203 24.5929,184.869 31.5,185.5C 24.5,185.5 17.5,185.5 10.5,185.5C 12.9608,170.38 20.6274,158.713 33.5,150.5 Z"/></g>
<g><path style="opacity:1" fill="#313131" d="M 53.5,152.5 C 53.1778,158.358 53.5111,164.025 54.5,169.5C 60.8333,169.5 67.1667,169.5 73.5,169.5C 73.5,163.833 73.5,158.167 73.5,152.5C 74.9587,152.567 76.2921,152.234 77.5,151.5C 77.8333,152.167 78.1667,152.833 78.5,153.5C 77.8333,153.5 77.5,153.833 77.5,154.5C 77.1667,154.5 76.8333,154.5 76.5,154.5C 75.4997,158.732 75.1663,163.732 75.5,169.5C 78.5,169.5 81.5,169.5 84.5,169.5C 84.5,164.167 84.5,158.833 84.5,153.5C 84.8333,153.5 85.1667,153.5 85.5,153.5C 85.5,159.5 85.5,165.5 85.5,171.5C 79.8333,174.833 74.1667,178.167 68.5,181.5C 67.5,181.833 66.8333,182.5 66.5,183.5C 65.6618,183.158 65.3284,182.492 65.5,181.5C 70.4356,178.358 75.4356,175.191 80.5,172C 69.1667,171.333 57.8333,171.333 46.5,172C 51.5644,175.191 56.5644,178.358 61.5,181.5C 61.6716,182.492 61.3382,183.158 60.5,183.5C 60.6716,182.508 60.3382,181.842 59.5,181.5C 53.4086,178.356 47.4086,175.023 41.5,171.5C 41.5,165.167 41.5,158.833 41.5,152.5C 45.5,151.167 49.5,151.167 53.5,152.5 Z"/></g>
<g><path style="opacity:1" fill="#c6c6c6" d="M 76.5,154.5 C 76.5,159.167 76.5,163.833 76.5,168.5C 78.8333,168.5 81.1667,168.5 83.5,168.5C 83.8195,163.637 83.4861,158.97 82.5,154.5C 82.8417,153.662 83.5084,153.328 84.5,153.5C 84.5,158.833 84.5,164.167 84.5,169.5C 81.5,169.5 78.5,169.5 75.5,169.5C 75.1663,163.732 75.4997,158.732 76.5,154.5 Z"/></g>
<g><path style="opacity:1" fill="#717171" d="M 50.5,154.5 C 50.56,153.957 50.8933,153.624 51.5,153.5C 52.8147,158.986 52.8147,164.32 51.5,169.5C 51.8205,164.305 51.4872,159.305 50.5,154.5 Z"/></g>
<g><path style="opacity:1" fill="#878787" d="M 44.5,154.5 C 43.5128,159.305 43.1795,164.305 43.5,169.5C 42.1853,164.32 42.1853,158.986 43.5,153.5C 44.1067,153.624 44.44,153.957 44.5,154.5 Z"/></g>
<g><path style="opacity:1" fill="#989898" d="M 53.5,152.5 C 54.4916,152.328 55.1583,152.662 55.5,153.5C 54.5128,158.305 54.1795,163.305 54.5,168.5C 54.5,168.833 54.5,169.167 54.5,169.5C 53.5111,164.025 53.1778,158.358 53.5,152.5 Z"/></g>
<g><path style="opacity:1" fill="#f9f9f9" d="M 76.5,154.5 C 76.8333,154.5 77.1667,154.5 77.5,154.5C 79.1667,154.5 80.8333,154.5 82.5,154.5C 83.4861,158.97 83.8195,163.637 83.5,168.5C 81.1667,168.5 78.8333,168.5 76.5,168.5C 76.5,163.833 76.5,159.167 76.5,154.5 Z"/></g>
<g><path style="opacity:1" fill="#c0c0c0" d="M 73.5,152.5 C 73.5,158.167 73.5,163.833 73.5,169.5C 67.1667,169.5 60.8333,169.5 54.5,169.5C 54.5,169.167 54.5,168.833 54.5,168.5C 60.5,168.5 66.5,168.5 72.5,168.5C 72.6658,163.821 72.4992,159.155 72,154.5C 68.3987,155.82 64.8987,155.82 61.5,154.5C 65.6575,154.668 69.6575,154.002 73.5,152.5 Z"/></g>
<g><path style="opacity:1" fill="#fcfcfc" d="M 55.5,153.5 C 57.3792,154.341 59.3792,154.675 61.5,154.5C 64.8987,155.82 68.3987,155.82 72,154.5C 72.4992,159.155 72.6658,163.821 72.5,168.5C 66.5,168.5 60.5,168.5 54.5,168.5C 54.1795,163.305 54.5128,158.305 55.5,153.5 Z"/></g>
<g><path style="opacity:1" fill="#f7f7f7" d="M 44.5,154.5 C 46.5,154.5 48.5,154.5 50.5,154.5C 51.4872,159.305 51.8205,164.305 51.5,169.5C 48.8333,169.5 46.1667,169.5 43.5,169.5C 43.1795,164.305 43.5128,159.305 44.5,154.5 Z"/></g>
<g><path style="opacity:1" fill="#838383" d="M 58.5,152.5 C 61.6399,151.359 64.9733,151.192 68.5,152C 65.2467,153.82 61.9133,153.987 58.5,152.5 Z"/></g>
<g><path style="opacity:1" fill="#eaeaea" d="M 65.5,181.5 C 64.1667,181.5 62.8333,181.5 61.5,181.5C 56.5644,178.358 51.5644,175.191 46.5,172C 57.8333,171.333 69.1667,171.333 80.5,172C 75.4356,175.191 70.4356,178.358 65.5,181.5 Z"/></g>
<g><path style="opacity:1" fill="#999999" d="M 13.5,180.5 C 20.803,181.831 28.4697,182.498 36.5,182.5C 44.3408,182.5 52.0074,182.166 59.5,181.5C 60.3382,181.842 60.6716,182.508 60.5,183.5C 44.5,183.5 28.5,183.5 12.5,183.5C 12.2627,182.209 12.596,181.209 13.5,180.5 Z"/></g>
<g><path style="opacity:1" fill="#101010" d="M 61.5,181.5 C 62.8333,181.5 64.1667,181.5 65.5,181.5C 65.3284,182.492 65.6618,183.158 66.5,183.5C 82.5,183.5 98.5,183.5 114.5,183.5C 115.167,182.833 115.833,182.167 116.5,181.5C 116.5,182.5 116.5,183.5 116.5,184.5C 109.313,184.175 102.313,184.509 95.5,185.5C 94.8333,185.5 94.5,185.833 94.5,186.5C 93.8333,185.833 93.1667,185.167 92.5,184.5C 72.9928,184.17 53.6595,184.503 34.5,185.5C 33.8333,185.833 33.1667,186.167 32.5,186.5C 32.5,185.833 32.1667,185.5 31.5,185.5C 24.5929,184.869 18.2595,184.203 12.5,183.5C 28.5,183.5 44.5,183.5 60.5,183.5C 61.3382,183.158 61.6716,182.492 61.5,181.5 Z"/></g>
<g><path style="opacity:1" fill="#9a9a9a" d="M 68.5,181.5 C 83.6576,182.496 98.9909,182.83 114.5,182.5C 114.5,182.833 114.5,183.167 114.5,183.5C 98.5,183.5 82.5,183.5 66.5,183.5C 66.8333,182.5 67.5,181.833 68.5,181.5 Z"/></g>
<g><path style="opacity:1" fill="#737373" d="M 116.5,181.5 C 117.434,182.568 117.768,183.901 117.5,185.5C 110.167,185.5 102.833,185.5 95.5,185.5C 102.313,184.509 109.313,184.175 116.5,184.5C 116.5,183.5 116.5,182.5 116.5,181.5 Z"/></g>
<g><path style="opacity:1" fill="#d2d2d2" d="M 31.5,185.5 C 32.1667,185.5 32.5,185.833 32.5,186.5C 32.1699,262.904 32.5032,339.238 33.5,415.5C 31.503,339.174 30.8363,262.507 31.5,185.5 Z"/></g>
<g><path style="opacity:1" fill="#949494" d="M 92.5,184.5 C 92.5,184.833 92.5,185.167 92.5,185.5C 73.5,185.5 54.5,185.5 35.5,185.5C 35.5,190.833 35.5,196.167 35.5,201.5C 54.5,201.5 73.5,201.5 92.5,201.5C 73.3405,202.497 54.0072,202.83 34.5,202.5C 34.5,196.833 34.5,191.167 34.5,185.5C 53.6595,184.503 72.9928,184.17 92.5,184.5 Z"/></g>
<g><path style="opacity:1" fill="#323232" d="M 92.5,184.5 C 93.1667,185.167 93.8333,185.833 94.5,186.5C 94.6667,262.501 94.5,338.501 94,414.5C 92.5,416 91,417.5 89.5,419C 72.1667,419.667 54.8333,419.667 37.5,419C 36.2949,417.624 34.9616,416.458 33.5,415.5C 32.5032,339.238 32.1699,262.904 32.5,186.5C 33.1667,186.167 33.8333,185.833 34.5,185.5C 34.5,191.167 34.5,196.833 34.5,202.5C 54.0072,202.83 73.3405,202.497 92.5,201.5C 92.5,196.167 92.5,190.833 92.5,185.5C 92.5,185.167 92.5,184.833 92.5,184.5 Z"/></g>
<g><path style="opacity:1" fill="#fdfdfd" d="M 92.5,185.5 C 92.5,190.833 92.5,196.167 92.5,201.5C 73.5,201.5 54.5,201.5 35.5,201.5C 35.5,196.167 35.5,190.833 35.5,185.5C 54.5,185.5 73.5,185.5 92.5,185.5 Z"/></g>
<g><path style="opacity:1" fill="#fefefe" d="M 86.5,204.5 C 86.5,273.5 86.5,342.5 86.5,411.5C 71.1667,411.5 55.8333,411.5 40.5,411.5C 40.5,342.5 40.5,273.5 40.5,204.5C 55.8333,204.5 71.1667,204.5 86.5,204.5 Z"/></g>
<g><path style="opacity:1" fill="#f2f2f2" d="M 92.5,204.5 C 92.5,273.5 92.5,342.5 92.5,411.5C 91.5,411.5 90.5,411.5 89.5,411.5C 89.5,342.5 89.5,273.5 89.5,204.5C 90.5,204.5 91.5,204.5 92.5,204.5 Z"/></g>
<g><path style="opacity:1" fill="#959595" d="M 92.5,204.5 C 91.5,204.5 90.5,204.5 89.5,204.5C 89.5,273.5 89.5,342.5 89.5,411.5C 90.5,411.5 91.5,411.5 92.5,411.5C 91.4324,412.434 90.099,412.768 88.5,412.5C 88.5,342.833 88.5,273.167 88.5,203.5C 90.099,203.232 91.4324,203.566 92.5,204.5 Z"/></g>
<g><path style="opacity:1" fill="#afafaf" d="M 34.5,203.5 C 35.8333,203.5 37.1667,203.5 38.5,203.5C 38.5,273.167 38.5,342.833 38.5,412.5C 37.1667,412.5 35.8333,412.5 34.5,412.5C 34.5,342.833 34.5,273.167 34.5,203.5 Z"/></g>
<g><path style="opacity:1" fill="#fefefe" d="M 35.5,204.5 C 36.8332,238.66 37.4999,273.16 37.5,308C 37.1667,342.5 36.8333,377 36.5,411.5C 35.5,342.503 35.1667,273.503 35.5,204.5 Z"/></g>
<g><path style="opacity:1" fill="#8e8e8e" d="M 86.5,204.5 C 87.4992,273.665 87.8325,342.998 87.5,412.5C 71.6578,412.83 55.9911,412.496 40.5,411.5C 55.8333,411.5 71.1667,411.5 86.5,411.5C 86.5,342.5 86.5,273.5 86.5,204.5 Z"/></g>
<g><path style="opacity:1" fill="#f5f5f5" d="M 86.5,414.5 C 86.5,415.5 86.5,416.5 86.5,417.5C 71.1667,417.5 55.8333,417.5 40.5,417.5C 40.5,416.5 40.5,415.5 40.5,414.5C 55.8333,414.5 71.1667,414.5 86.5,414.5 Z"/></g>
<g><path style="opacity:1" fill="#676767" d="M 86.5,414.5 C 87.4345,415.568 87.7678,416.901 87.5,418.5C 71.6578,418.83 55.9911,418.496 40.5,417.5C 55.8333,417.5 71.1667,417.5 86.5,417.5C 86.5,416.5 86.5,415.5 86.5,414.5 Z"/></g>
</svg>
