<?xml version="1.0" encoding="UTF-8"?>
<!DOCTYPE svg PUBLIC "-//W3C//DTD SVG 1.1//EN" "http://www.w3.org/Graphics/SVG/1.1/DTD/svg11.dtd">
<svg xmlns="http://www.w3.org/2000/svg" version="1.1" width="129px" height="426px" style="shape-rendering:geometricPrecision; text-rendering:geometricPrecision; image-rendering:optimizeQuality; fill-rule:evenodd; clip-rule:evenodd" xmlns:xlink="http://www.w3.org/1999/xlink">
<g><path style="opacity:1" fill="#fcfcfc" d="M -0.5,-0.5 C 42.5,-0.5 85.5,-0.5 128.5,-0.5C 128.5,141.5 128.5,283.5 128.5,425.5C 85.5,425.5 42.5,425.5 -0.5,425.5C -0.5,283.5 -0.5,141.5 -0.5,-0.5 Z"/></g>
<g><path style="opacity:1" fill="#fbfbfb" d="M 108.5,32.5 C 120.057,54.1932 118.891,75.1932 105,95.5C 85.4361,116.988 62.2694,121.988 35.5,110.5C 13.3783,96.2412 4.2116,75.9078 8,49.5C 18.2581,18.442 39.7581,4.60865 72.5,8C 87.8376,11.4847 99.8376,19.6514 108.5,32.5 Z"/></g>
<g><path style="opacity:1" fill="#747474" d="M 67.5,32.5 C 63.8333,32.5 60.1667,32.5 56.5,32.5C 56.8064,35.3854 56.4731,38.0521 55.5,40.5C 56.4731,38.0521 56.8064,35.3854 56.5,32.5C 60.1667,32.5 63.8333,32.5 67.5,32.5 Z"/></g>
<g><path style="opacity:1" fill="#202020" d="M 67.5,32.5 C 67.5,34.8333 67.5,37.1667 67.5,39.5C 67.5674,40.9587 67.2341,42.2921 66.5,43.5C 65.8333,42.8333 65.1667,42.1667 64.5,41.5C 62.5,41.5 60.5,41.5 58.5,41.5C 58.5,42.5 58.5,43.5 58.5,44.5C 56.7376,43.7377 55.7376,42.4044 55.5,40.5C 56.4731,38.0521 56.8064,35.3854 56.5,32.5C 60.1667,32.5 63.8333,32.5 67.5,32.5 Z"/></g>
<g><path style="opacity:1" fill="#eeeeee" d="M 64.5,39.5 C 62.2646,39.7947 60.2646,39.4614 58.5,38.5C 58.5,37.1667 58.5,35.8333 58.5,34.5C 60.5,34.5 62.5,34.5 64.5,34.5C 64.5,36.1667 64.5,37.8333 64.5,39.5 Z"/></g>
<g><path style="opacity:1" fill="#7c7c7c" d="M 64.5,39.5 C 64.5,37.8333 64.5,36.1667 64.5,34.5C 62.5,34.5 60.5,34.5 58.5,34.5C 58.5,35.8333 58.5,37.1667 58.5,38.5C 57.5489,37.0813 57.2155,35.4147 57.5,33.5C 60.1667,33.5 62.8333,33.5 65.5,33.5C 65.7947,35.7354 65.4614,37.7354 64.5,39.5 Z"/></g>
<g><path style="opacity:1" fill="#f4f4f4" d="M 64.5,41.5 C 64.3398,43.1992 64.5065,44.8659 65,46.5C 67.6115,52.8194 72.1115,56.8194 78.5,58.5C 79.5,58.5 80.5,58.5 81.5,58.5C 81.5,60.5 81.5,62.5 81.5,64.5C 74.0468,65.1016 68.5468,68.7683 65,75.5C 64.5045,77.4727 64.3379,79.4727 64.5,81.5C 62.8333,81.5 61.1667,81.5 59.5,81.5C 58.1255,73.7895 53.7922,68.4562 46.5,65.5C 44.9582,64.6993 43.2915,64.366 41.5,64.5C 41.5,62.5 41.5,60.5 41.5,58.5C 42.5,58.5 43.5,58.5 44.5,58.5C 52.1667,56.8333 56.8333,52.1667 58.5,44.5C 58.5,43.5 58.5,42.5 58.5,41.5C 60.5,41.5 62.5,41.5 64.5,41.5 Z"/></g>
<g><path style="opacity:1" fill="#3e3e3e" d="M 67.5,39.5 C 69.8505,46.8727 74.5172,52.206 81.5,55.5C 80.5,56.5 79.5,57.5 78.5,58.5C 72.1115,56.8194 67.6115,52.8194 65,46.5C 64.5065,44.8659 64.3398,43.1992 64.5,41.5C 65.1667,42.1667 65.8333,42.8333 66.5,43.5C 67.2341,42.2921 67.5674,40.9587 67.5,39.5 Z"/></g>
<g><path style="opacity:1" fill="#acacac" d="M 66.5,43.5 C 69.6436,48.8085 73.9769,52.9752 79.5,56C 72.1769,55.1812 67.8435,51.0145 66.5,43.5 Z"/></g>
<g><path style="opacity:1" fill="#212121" d="M 32.5,56.5 C 36.1817,56.3347 39.8484,56.5014 43.5,57C 44.056,57.3826 44.3893,57.8826 44.5,58.5C 43.5,58.5 42.5,58.5 41.5,58.5C 41.5,60.5 41.5,62.5 41.5,64.5C 43.2915,64.366 44.9582,64.6993 46.5,65.5C 46.5,65.8333 46.5,66.1667 46.5,66.5C 43.1469,66.3453 42.8136,67.0119 45.5,68.5C 45.1583,69.3382 44.4916,69.6716 43.5,69.5C 40.1552,67.783 36.4885,67.1164 32.5,67.5C 32.5,63.8333 32.5,60.1667 32.5,56.5 Z"/></g>
<g><path style="opacity:1" fill="#3f3f3f" d="M 55.5,40.5 C 55.7376,42.4044 56.7376,43.7377 58.5,44.5C 56.8333,52.1667 52.1667,56.8333 44.5,58.5C 44.3893,57.8826 44.056,57.3826 43.5,57C 39.8484,56.5014 36.1817,56.3347 32.5,56.5C 43.7297,56.2119 51.3964,50.8786 55.5,40.5 Z"/></g>
<g><path style="opacity:1" fill="#b0b0b0" d="M 55.5,44.5 C 56.6211,46.0894 56.4544,47.7561 55,49.5C 53.1667,51.3333 51.3333,53.1667 49.5,55C 47.9556,56.1871 46.2889,56.5205 44.5,56C 49.7189,53.6152 53.3856,49.7818 55.5,44.5 Z"/></g>
<g><path style="opacity:1" fill="#262626" d="M 81.5,55.5 C 84.7766,55.2161 87.9433,55.5495 91,56.5C 91.4986,60.1516 91.6653,63.8183 91.5,67.5C 87.7657,67.3227 84.0991,67.6561 80.5,68.5C 80.4326,67.0413 80.7659,65.7079 81.5,64.5C 81.5,62.5 81.5,60.5 81.5,58.5C 80.5,58.5 79.5,58.5 78.5,58.5C 79.5,57.5 80.5,56.5 81.5,55.5 Z"/></g>
<g><path style="opacity:1" fill="#aeaeae" d="M 33.5,57.5 C 35.5,57.8333 37.5,58.1667 39.5,58.5C 39.5,60.8333 39.5,63.1667 39.5,65.5C 37.5,65.5 35.5,65.5 33.5,65.5C 33.5,62.8333 33.5,60.1667 33.5,57.5 Z"/></g>
<g><path style="opacity:1" fill="#fbfbfb" d="M 34.5,58.5 C 35.7079,59.2341 37.0413,59.5674 38.5,59.5C 38.5,61.1667 38.5,62.8333 38.5,64.5C 37.1667,64.5 35.8333,64.5 34.5,64.5C 34.5,62.5 34.5,60.5 34.5,58.5 Z"/></g>
<g><path style="opacity:1" fill="#f2f2f2" d="M 89.5,58.5 C 90.0102,61.3878 89.3435,63.7211 87.5,65.5C 86.791,64.596 85.791,64.2627 84.5,64.5C 84.5,62.8333 84.5,61.1667 84.5,59.5C 86.2161,59.3713 87.8828,59.038 89.5,58.5 Z"/></g>
<g><path style="opacity:1" fill="#9e9e9e" d="M 89.5,58.5 C 87.8828,59.038 86.2161,59.3713 84.5,59.5C 84.5,61.1667 84.5,62.8333 84.5,64.5C 85.791,64.2627 86.791,64.596 87.5,65.5C 86.1667,65.5 84.8333,65.5 83.5,65.5C 83.1924,63.076 83.5258,60.7427 84.5,58.5C 86.3163,57.2651 87.983,57.2651 89.5,58.5 Z"/></g>
<g><path style="opacity:1" fill="#a8a8a8" d="M 46.5,66.5 C 50.4276,68.5915 53.5943,71.5915 56,75.5C 56.6667,76.8333 56.6667,78.1667 56,79.5C 53.6717,74.6727 50.1717,71.006 45.5,68.5C 42.8136,67.0119 43.1469,66.3453 46.5,66.5 Z"/></g>
<g><path style="opacity:1" fill="#454545" d="M 46.5,65.5 C 53.7922,68.4562 58.1255,73.7895 59.5,81.5C 61.1667,81.5 62.8333,81.5 64.5,81.5C 61.3906,82.0946 58.3906,82.0946 55.5,81.5C 53.1411,75.8077 49.1411,71.8077 43.5,69.5C 44.4916,69.6716 45.1583,69.3382 45.5,68.5C 50.1717,71.006 53.6717,74.6727 56,79.5C 56.6667,78.1667 56.6667,76.8333 56,75.5C 53.5943,71.5915 50.4276,68.5915 46.5,66.5C 46.5,66.1667 46.5,65.8333 46.5,65.5 Z"/></g>
<g><path style="opacity:1" fill="#414141" d="M 81.5,64.5 C 80.7659,65.7079 80.4326,67.0413 80.5,68.5C 75.5,71.5 71.5,75.5 68.5,80.5C 67.0413,80.4326 65.7079,80.7659 64.5,81.5C 64.3379,79.4727 64.5045,77.4727 65,75.5C 68.5468,68.7683 74.0468,65.1016 81.5,64.5 Z"/></g>
<g><path style="opacity:1" fill="#adadad" d="M 76.5,66.5 C 77.552,66.3505 78.552,66.5172 79.5,67C 74,69.8333 69.8333,74 67,79.5C 66.4795,77.7111 66.8129,76.0444 68,74.5C 70.7291,71.6007 73.5624,68.934 76.5,66.5 Z"/></g>
<g><path style="opacity:1" fill="#3c3c3c" d="M 109.5,31.5 C 108.833,31.5 108.5,31.8333 108.5,32.5C 99.8376,19.6514 87.8376,11.4847 72.5,8C 39.7581,4.60865 18.2581,18.442 8,49.5C 4.2116,75.9078 13.3783,96.2412 35.5,110.5C 34.8333,110.5 34.5,110.833 34.5,111.5C 12.436,97.698 2.93601,77.698 6,51.5C 11.7584,27.4087 26.5917,12.242 50.5,6C 75.5758,2.54938 95.2425,11.0494 109.5,31.5 Z"/></g>
<g><path style="opacity:1" fill="#272727" d="M 64.5,81.5 C 65.7079,80.7659 67.0413,80.4326 68.5,80.5C 67.6561,84.0991 67.3227,87.7657 67.5,91.5C 63.8183,91.6653 60.1516,91.4986 56.5,91C 55.5495,87.9433 55.2161,84.7766 55.5,81.5C 58.3906,82.0946 61.3906,82.0946 64.5,81.5 Z"/></g>
<g><path style="opacity:1" fill="#efefef" d="M 65.5,87.5 C 63.7211,89.3435 61.3878,90.0102 58.5,89.5C 58.062,85.0917 60.062,83.4251 64.5,84.5C 64.2627,85.791 64.596,86.791 65.5,87.5 Z"/></g>
<g><path style="opacity:1" fill="#828282" d="M 65.5,87.5 C 64.596,86.791 64.2627,85.791 64.5,84.5C 60.062,83.4251 58.062,85.0917 58.5,89.5C 57.193,87.7768 57.193,85.9435 58.5,84C 60.8098,83.5034 63.1432,83.3367 65.5,83.5C 65.5,84.8333 65.5,86.1667 65.5,87.5 Z"/></g>
<g><path style="opacity:1" fill="#2e2e2e" d="M 109.5,31.5 C 121.937,54.0753 120.77,76.0753 106,97.5C 85.4201,118.986 61.5868,123.653 34.5,111.5C 34.5,110.833 34.8333,110.5 35.5,110.5C 62.2694,121.988 85.4361,116.988 105,95.5C 118.891,75.1932 120.057,54.1932 108.5,32.5C 108.5,31.8333 108.833,31.5 109.5,31.5 Z"/></g>
<g><path style="opacity:1" fill="#343434" d="M 5.5,168.5 C 42.9963,167.502 80.663,167.168 118.5,167.5C 118.768,169.099 118.434,170.432 117.5,171.5C 117.5,170.5 117.5,169.5 117.5,168.5C 80.1667,168.5 42.8333,168.5 5.5,168.5 Z"/></g>
<g><path style="opacity:1" fill="#1c1c1c" d="M 5.5,168.5 C 42.8333,168.5 80.1667,168.5 117.5,168.5C 117.5,169.5 117.5,170.5 117.5,171.5C 116.833,171.5 116.5,171.833 116.5,172.5C 115.833,172.5 115.167,172.5 114.5,172.5C 114.5,172.167 114.5,171.833 114.5,171.5C 78.6274,170.177 42.6274,170.177 6.5,171.5C 5.59603,170.791 5.26269,169.791 5.5,168.5 Z"/></g>
<g><path style="opacity:1" fill="#595959" d="M 114.5,171.5 C 79.4984,171.333 44.4984,171.5 9.5,172C 18.8333,181.333 28.1667,190.667 37.5,200C 53.4965,200.5 69.4965,200.667 85.5,200.5C 69.5,201.167 53.5,201.833 37.5,202.5C 26.8333,192.5 16.5,182.167 6.5,171.5C 42.6274,170.177 78.6274,170.177 114.5,171.5 Z"/></g>
<g><path style="opacity:1" fill="#fcfcfc" d="M 114.5,171.5 C 114.5,171.833 114.5,172.167 114.5,172.5C 104.599,181.612 94.9324,190.945 85.5,200.5C 69.4965,200.667 53.4965,200.5 37.5,200C 28.1667,190.667 18.8333,181.333 9.5,172C 44.4984,171.5 79.4984,171.333 114.5,171.5 Z"/></g>
<g><path style="opacity:1" fill="#f0f0f0" d="M 80.5,218.5 C 81.5,218.5 82.5,218.5 83.5,218.5C 83.5,220.833 83.5,223.167 83.5,225.5C 69.1536,227.434 54.8202,229.434 40.5,231.5C 39.5258,229.257 39.1924,226.924 39.5,224.5C 47.3193,223.285 54.9859,221.952 62.5,220.5C 68.4742,219.615 74.4742,218.949 80.5,218.5 Z"/></g>
<g><path style="opacity:1" fill="#919191" d="M 60.5,219.5 C 56.186,220.275 51.8526,220.941 47.5,221.5C 46.791,220.596 45.791,220.263 44.5,220.5C 50.279,218.891 56.279,218.391 62.5,219C 61.9056,219.464 61.2389,219.631 60.5,219.5 Z"/></g>
<g><path style="opacity:1" fill="#999999" d="M 80.5,218.5 C 81.5676,217.566 82.901,217.232 84.5,217.5C 84.8064,220.385 84.4731,223.052 83.5,225.5C 83.5,223.167 83.5,220.833 83.5,218.5C 82.5,218.5 81.5,218.5 80.5,218.5 Z"/></g>
<g><path style="opacity:1" fill="#bebebe" d="M 87.5,215.5 C 86.4015,219.449 87.0681,223.115 89.5,226.5C 86.1032,225.742 84.7699,223.575 85.5,220C 85.5687,218.014 86.2353,216.514 87.5,215.5 Z"/></g>
<g><path style="opacity:1" fill="#d6d6d6" d="M 86.5,227.5 C 87.6431,227.908 88.6431,228.575 89.5,229.5C 86.2937,230.808 82.9604,231.475 79.5,231.5C 66.1799,232.857 52.8466,233.69 39.5,234C 55.0695,231.301 70.7362,229.134 86.5,227.5 Z"/></g>
<g><path style="opacity:1" fill="#ededed" d="M 84.5,236.5 C 84.7394,238.467 84.4061,240.301 83.5,242C 80.4133,242.259 77.4133,242.759 74.5,243.5C 62.7783,244.395 51.1117,245.728 39.5,247.5C 39.2606,245.533 39.5939,243.699 40.5,242C 55.1541,239.983 69.8207,238.15 84.5,236.5 Z"/></g>
<g><path style="opacity:1" fill="#414141" d="M 34.5,219.5 C 34.8417,220.338 35.5084,220.672 36.5,220.5C 33.8741,221.947 34.2074,222.947 37.5,223.5C 40.7156,222.205 44.0489,221.538 47.5,221.5C 51.8526,220.941 56.186,220.275 60.5,219.5C 60.8417,220.338 61.5084,220.672 62.5,220.5C 54.9859,221.952 47.3193,223.285 39.5,224.5C 39.1924,226.924 39.5258,229.257 40.5,231.5C 54.8202,229.434 69.1536,227.434 83.5,225.5C 84.5,226.167 85.5,226.833 86.5,227.5C 70.7362,229.134 55.0695,231.301 39.5,234C 52.8466,233.69 66.1799,232.857 79.5,231.5C 81.2922,232.309 83.2922,232.809 85.5,233C 84.9558,233.717 84.2891,234.217 83.5,234.5C 83.8333,235.167 84.1667,235.833 84.5,236.5C 69.8207,238.15 55.1541,239.983 40.5,242C 39.5939,243.699 39.2606,245.533 39.5,247.5C 51.1117,245.728 62.7783,244.395 74.5,243.5C 74.8417,244.338 75.5084,244.672 76.5,244.5C 63.5931,246.334 50.5931,248.334 37.5,250.5C 36.8333,250.5 36.1667,250.5 35.5,250.5C 37.5461,248.134 37.8794,245.467 36.5,242.5C 28.5,239.5 28.5,236.5 36.5,233.5C 37.8333,230.833 37.8333,228.167 36.5,225.5C 34.246,224.876 32.5794,223.543 31.5,221.5C 32.0047,220.081 33.0047,219.415 34.5,219.5 Z"/></g>
<g><path style="opacity:1" fill="#e1e1e1" d="M 83.5,234.5 C 68.3034,236.203 53.1367,238.203 38,240.5C 36.1878,240.507 34.6878,239.84 33.5,238.5C 34.0253,237.808 34.6919,237.308 35.5,237C 47.1996,236.376 58.8663,235.376 70.5,234C 75.0204,233.186 79.3537,233.353 83.5,234.5 Z"/></g>
<g><path style="opacity:1" fill="#cfcfcf" d="M 36.5,220.5 C 39.1667,220.5 41.8333,220.5 44.5,220.5C 45.791,220.263 46.791,220.596 47.5,221.5C 44.0489,221.538 40.7156,222.205 37.5,223.5C 34.2074,222.947 33.8741,221.947 36.5,220.5 Z"/></g>
<g><path style="opacity:1" fill="#dddddd" d="M 37.5,250.5 C 50.5931,248.334 63.5931,246.334 76.5,244.5C 80.163,243.888 83.8297,243.721 87.5,244C 88.6721,244.419 89.6721,245.085 90.5,246C 73.8457,247.923 57.1791,249.756 40.5,251.5C 39.2739,251.48 38.2739,251.147 37.5,250.5 Z"/></g>
<g><path style="opacity:1" fill="#e7e7e7" d="M 39.5,266.5 C 46.0397,264.92 52.7063,263.92 59.5,263.5C 68.2143,262.446 76.881,261.112 85.5,259.5C 87.0016,260.083 88.3349,260.916 89.5,262C 74.3426,264.477 59.0093,266.311 43.5,267.5C 41.9549,267.489 40.6216,267.156 39.5,266.5 Z"/></g>
<g><path style="opacity:1" fill="#313131" d="M 114.5,172.5 C 115.167,172.5 115.833,172.5 116.5,172.5C 106.255,182.243 96.0886,192.243 86,202.5C 84.9166,206.711 85.7499,210.378 88.5,213.5C 88.1373,214.183 87.8039,214.85 87.5,215.5C 86.2353,216.514 85.5687,218.014 85.5,220C 84.7699,223.575 86.1032,225.742 89.5,226.5C 90.2613,227.391 91.2613,228.058 92.5,228.5C 93.3857,229.325 93.719,230.325 93.5,231.5C 87.1298,232.182 84.7965,235.515 86.5,241.5C 89.1354,242.811 91.4687,244.478 93.5,246.5C 91.1667,248 88.8333,249.5 86.5,251C 85.4086,253.064 85.2419,255.231 86,257.5C 88.7581,258.795 91.2581,260.461 93.5,262.5C 91.3805,264.4 89.0472,266.066 86.5,267.5C 85.1667,269.833 85.1667,272.167 86.5,274.5C 89.2029,275.513 91.5362,277.013 93.5,279C 92.8699,280.31 91.8699,281.144 90.5,281.5C 88.3926,280.532 86.0593,280.198 83.5,280.5C 85.631,279.686 87.9644,279.186 90.5,279C 88.7225,277.196 86.5559,276.363 84,276.5C 74.148,277.798 64.3147,279.131 54.5,280.5C 52.7354,279.539 50.7354,279.205 48.5,279.5C 60.0514,277.916 71.718,276.25 83.5,274.5C 84.8333,272.5 84.8333,270.5 83.5,268.5C 74.9381,270.482 66.2714,271.816 57.5,272.5C 56.0813,271.549 54.4147,271.216 52.5,271.5C 63.4856,270.218 74.4856,268.385 85.5,266C 70.4655,266.587 55.4655,267.754 40.5,269.5C 39.7375,268.732 38.7375,268.232 37.5,268C 38.0442,267.283 38.7109,266.783 39.5,266.5C 40.6216,267.156 41.9549,267.489 43.5,267.5C 59.0093,266.311 74.3426,264.477 89.5,262C 88.3349,260.916 87.0016,260.083 85.5,259.5C 76.881,261.112 68.2143,262.446 59.5,263.5C 58.0813,262.549 56.4147,262.216 54.5,262.5C 64.3158,260.814 74.3158,259.48 84.5,258.5C 84.7989,256.396 84.4656,254.396 83.5,252.5C 69.1871,254.62 54.8537,256.62 40.5,258.5C 39.5344,260.396 39.2011,262.396 39.5,264.5C 38.8333,264.833 38.1667,265.167 37.5,265.5C 37.6621,263.473 37.4955,261.473 37,259.5C 34.0841,258.472 31.9175,256.638 30.5,254C 31.8157,252.341 33.4824,251.175 35.5,250.5C 36.1667,250.5 36.8333,250.5 37.5,250.5C 38.2739,251.147 39.2739,251.48 40.5,251.5C 57.1791,249.756 73.8457,247.923 90.5,246C 89.6721,245.085 88.6721,244.419 87.5,244C 83.8297,243.721 80.163,243.888 76.5,244.5C 75.5084,244.672 74.8417,244.338 74.5,243.5C 77.4133,242.759 80.4133,242.259 83.5,242C 84.4061,240.301 84.7394,238.467 84.5,236.5C 84.1667,235.833 83.8333,235.167 83.5,234.5C 84.2891,234.217 84.9558,233.717 85.5,233C 83.2922,232.809 81.2922,232.309 79.5,231.5C 82.9604,231.475 86.2937,230.808 89.5,229.5C 88.6431,228.575 87.6431,227.908 86.5,227.5C 85.5,226.833 84.5,226.167 83.5,225.5C 84.4731,223.052 84.8064,220.385 84.5,217.5C 82.901,217.232 81.5676,217.566 80.5,218.5C 74.4742,218.949 68.4742,219.615 62.5,220.5C 61.5084,220.672 60.8417,220.338 60.5,219.5C 61.2389,219.631 61.9056,219.464 62.5,219C 56.279,218.391 50.279,218.891 44.5,220.5C 41.8333,220.5 39.1667,220.5 36.5,220.5C 35.5084,220.672 34.8417,220.338 34.5,219.5C 35.172,218.733 36.0053,218.066 37,217.5C 37.4993,212.511 37.6659,207.511 37.5,202.5C 53.5,201.833 69.5,201.167 85.5,200.5C 94.9324,190.945 104.599,181.612 114.5,172.5 Z"/></g>
<g><path style="opacity:1" fill="#eeeeee" d="M 54.5,262.5 C 49.414,262.626 44.414,263.293 39.5,264.5C 39.2011,262.396 39.5344,260.396 40.5,258.5C 54.8537,256.62 69.1871,254.62 83.5,252.5C 84.4656,254.396 84.7989,256.396 84.5,258.5C 74.3158,259.48 64.3158,260.814 54.5,262.5 Z"/></g>
<g><path style="opacity:1" fill="#dfdfdf" d="M 75.5,249.5 C 78.5184,249.335 81.5184,249.502 84.5,250C 83.8333,250.333 83.1667,250.667 82.5,251C 67.5505,252.478 52.7171,254.644 38,257.5C 36.0486,257.112 34.5486,256.112 33.5,254.5C 47.568,252.321 61.568,250.654 75.5,249.5 Z"/></g>
<g><path style="opacity:1" fill="#6c6c6c" d="M 39.5,203.5 C 39.5,207.5 39.5,211.5 39.5,215.5C 44.8221,215.02 50.1554,214.687 55.5,214.5C 53.369,215.314 51.0356,215.814 48.5,216C 57.5369,216.118 66.5369,215.452 75.5,214C 74.2068,213.51 72.8734,213.343 71.5,213.5C 75.3357,212.622 79.3357,211.956 83.5,211.5C 83.8333,211.5 84.1667,211.5 84.5,211.5C 85.8499,212.824 85.6833,213.824 84,214.5C 69.876,216.354 55.7094,217.521 41.5,218C 42.5,217.667 43.5,217.333 44.5,217C 42.5273,216.505 40.5273,216.338 38.5,216.5C 38.1818,211.968 38.5151,207.634 39.5,203.5 Z"/></g>
<g><path style="opacity:1" fill="#424242" d="M 71.5,213.5 C 72.8734,213.343 74.2068,213.51 75.5,214C 66.5369,215.452 57.5369,216.118 48.5,216C 51.0356,215.814 53.369,215.314 55.5,214.5C 60.8333,214.167 66.1667,213.833 71.5,213.5 Z"/></g>
<g><path style="opacity:1" fill="#fafafa" d="M 39.5,203.5 C 54.1667,203.5 68.8333,203.5 83.5,203.5C 83.5,206.167 83.5,208.833 83.5,211.5C 79.3357,211.956 75.3357,212.622 71.5,213.5C 66.1667,213.833 60.8333,214.167 55.5,214.5C 50.1554,214.687 44.8221,215.02 39.5,215.5C 39.5,211.5 39.5,207.5 39.5,203.5 Z"/></g>
<g><path style="opacity:1" fill="#878787" d="M 39.5,203.5 C 54.324,202.504 69.324,202.171 84.5,202.5C 84.5,205.5 84.5,208.5 84.5,211.5C 84.1667,211.5 83.8333,211.5 83.5,211.5C 83.5,208.833 83.5,206.167 83.5,203.5C 68.8333,203.5 54.1667,203.5 39.5,203.5 Z"/></g>
<g><path style="opacity:1" fill="#e5e5e5" d="M 52.5,271.5 C 47.6219,271.785 42.7886,272.452 38,273.5C 36.0289,273.532 34.5289,272.698 33.5,271C 35.6775,269.798 38.0108,269.298 40.5,269.5C 55.4655,267.754 70.4655,266.587 85.5,266C 74.4856,268.385 63.4856,270.218 52.5,271.5 Z"/></g>
<g><path style="opacity:1" fill="#efefef" d="M 48.5,279.5 C 45.4552,279.508 42.4552,279.841 39.5,280.5C 39.2606,278.533 39.5939,276.699 40.5,275C 46.0953,273.653 51.762,272.82 57.5,272.5C 66.2714,271.816 74.9381,270.482 83.5,268.5C 84.8333,270.5 84.8333,272.5 83.5,274.5C 71.718,276.25 60.0514,277.916 48.5,279.5 Z"/></g>
<g><path style="opacity:1" fill="#e3e3e3" d="M 83.5,280.5 C 82.5,280.5 81.5,280.5 80.5,280.5C 77.9407,280.198 75.6074,280.532 73.5,281.5C 69.2984,281.183 65.2984,281.517 61.5,282.5C 53.4592,282.866 45.4592,283.366 37.5,284C 42.934,281.761 48.6007,280.594 54.5,280.5C 64.3147,279.131 74.148,277.798 84,276.5C 86.5559,276.363 88.7225,277.196 90.5,279C 87.9644,279.186 85.631,279.686 83.5,280.5 Z"/></g>
<g><path style="opacity:1" fill="#eeeeee" d="M 58.5,294.5 C 52.4015,294.943 46.4015,295.943 40.5,297.5C 39.5344,295.604 39.2011,293.604 39.5,291.5C 54.4137,289.024 69.4137,287.024 84.5,285.5C 84.7394,287.467 84.4061,289.301 83.5,291C 75.2477,292.795 66.9144,293.962 58.5,294.5 Z"/></g>
<g><path style="opacity:1" fill="#232323" d="M 54.5,262.5 C 56.4147,262.216 58.0813,262.549 59.5,263.5C 52.7063,263.92 46.0397,264.92 39.5,266.5C 38.7109,266.783 38.0442,267.283 37.5,268C 38.7375,268.232 39.7375,268.732 40.5,269.5C 38.0108,269.298 35.6775,269.798 33.5,271C 34.5289,272.698 36.0289,273.532 38,273.5C 42.7886,272.452 47.6219,271.785 52.5,271.5C 54.4147,271.216 56.0813,271.549 57.5,272.5C 51.762,272.82 46.0953,273.653 40.5,275C 39.5939,276.699 39.2606,278.533 39.5,280.5C 42.4552,279.841 45.4552,279.508 48.5,279.5C 50.7354,279.205 52.7354,279.539 54.5,280.5C 48.6007,280.594 42.934,281.761 37.5,284C 45.4592,283.366 53.4592,282.866 61.5,282.5C 64.0593,282.198 66.3926,282.532 68.5,283.5C 58.1648,284.209 47.8315,285.042 37.5,286C 32.5848,287.207 32.7515,288.707 38,290.5C 53.1498,288.104 68.3165,285.77 83.5,283.5C 84.4734,283.013 85.4734,282.513 86.5,282C 84.2922,281.809 82.2922,281.309 80.5,280.5C 81.5,280.5 82.5,280.5 83.5,280.5C 86.0593,280.198 88.3926,280.532 90.5,281.5C 85.7539,282.941 84.4205,285.941 86.5,290.5C 89.0472,291.934 91.3805,293.6 93.5,295.5C 91.3428,297.412 89.0094,299.079 86.5,300.5C 85.359,302.421 85.1923,304.421 86,306.5C 88.0344,308.032 90.2011,309.365 92.5,310.5C 93.3857,311.325 93.719,312.325 93.5,313.5C 89.3978,314.034 86.7311,316.2 85.5,320C 85.8333,321.167 86.1667,322.333 86.5,323.5C 89.1354,324.811 91.4687,326.478 93.5,328.5C 90.914,330.043 88.414,331.709 86,333.5C 85.6667,354.5 85.3333,375.5 85,396.5C 77.5,404 70,411.5 62.5,419C 60.5878,419.279 59.2544,418.446 58.5,416.5C 59.7416,414.389 59.7416,412.389 58.5,410.5C 58.5,409.833 58.5,409.167 58.5,408.5C 58.56,407.957 58.8933,407.624 59.5,407.5C 60.1818,408.243 60.8485,408.909 61.5,409.5C 61.1924,411.924 61.5258,414.257 62.5,416.5C 63.1067,416.376 63.44,416.043 63.5,415.5C 68.4729,409.86 73.8063,404.527 79.5,399.5C 80.5,399.167 81.1667,398.5 81.5,397.5C 82.5,396.5 83.5,395.5 84.5,394.5C 84.5,374.5 84.5,354.5 84.5,334.5C 83.1667,334.5 81.8333,334.5 80.5,334.5C 79.8333,334.5 79.5,334.167 79.5,333.5C 81.2915,333.634 82.9582,333.301 84.5,332.5C 85.2891,332.217 85.9558,331.717 86.5,331C 84.9419,330.79 83.6085,330.29 82.5,329.5C 85.2165,329.322 87.8832,328.822 90.5,328C 88.559,326.097 86.2257,325.264 83.5,325.5C 82.209,325.737 81.209,325.404 80.5,324.5C 84.0681,324.241 85.4015,322.241 84.5,318.5C 83.8333,317.833 83.1667,317.167 82.5,316.5C 86.4699,315.021 86.1366,314.354 81.5,314.5C 80.209,314.737 79.209,314.404 78.5,313.5C 82.5736,313.299 86.5736,312.632 90.5,311.5C 88.7567,309.962 86.7567,308.962 84.5,308.5C 83.8333,308.5 83.5,308.167 83.5,307.5C 84.4614,305.735 84.7947,303.735 84.5,301.5C 82.901,301.232 81.5676,301.566 80.5,302.5C 79.5,302.5 78.5,302.5 77.5,302.5C 76.209,302.737 75.209,302.404 74.5,301.5C 78.0564,301.358 81.3897,300.524 84.5,299C 70.5139,299.689 56.5139,300.523 42.5,301.5C 41.8333,301.5 41.5,301.167 41.5,300.5C 57.9134,299.054 74.2467,297.221 90.5,295C 88.9328,293.924 87.2662,293.091 85.5,292.5C 77.2436,294.158 68.9103,295.158 60.5,295.5C 59.5084,295.672 58.8417,295.338 58.5,294.5C 66.9144,293.962 75.2477,292.795 83.5,291C 84.4061,289.301 84.7394,287.467 84.5,285.5C 69.4137,287.024 54.4137,289.024 39.5,291.5C 38.8333,291.833 38.1667,292.167 37.5,292.5C 28.8639,289.654 28.5305,286.32 36.5,282.5C 37.8333,280.167 37.8333,277.833 36.5,275.5C 34.0562,274.552 32.0562,273.052 30.5,271C 32.4087,268.587 34.742,266.754 37.5,265.5C 38.1667,265.167 38.8333,264.833 39.5,264.5C 44.414,263.293 49.414,262.626 54.5,262.5 Z"/></g>
<g><path style="opacity:1" fill="#e2e2e2" d="M 79.5,282.5 C 81.099,282.232 82.4324,282.566 83.5,283.5C 68.3165,285.77 53.1498,288.104 38,290.5C 32.7515,288.707 32.5848,287.207 37.5,286C 47.8315,285.042 58.1648,284.209 68.5,283.5C 72.1788,283.276 75.8455,282.942 79.5,282.5 Z"/></g>
<g><path style="opacity:1" fill="#3d3d3d" d="M 61.5,282.5 C 65.2984,281.517 69.2984,281.183 73.5,281.5C 75.7354,281.205 77.7354,281.539 79.5,282.5C 75.8455,282.942 72.1788,283.276 68.5,283.5C 66.3926,282.532 64.0593,282.198 61.5,282.5 Z"/></g>
<g><path style="opacity:1" fill="#606060" d="M 73.5,281.5 C 75.6074,280.532 77.9407,280.198 80.5,280.5C 82.2922,281.309 84.2922,281.809 86.5,282C 85.4734,282.513 84.4734,283.013 83.5,283.5C 82.4324,282.566 81.099,282.232 79.5,282.5C 77.7354,281.539 75.7354,281.205 73.5,281.5 Z"/></g>
<g><path style="opacity:1" fill="#e8e8e8" d="M 41.5,300.5 C 38.4017,300.587 38.0684,300.087 40.5,299C 47.3331,297.986 53.9998,296.819 60.5,295.5C 68.9103,295.158 77.2436,294.158 85.5,292.5C 87.2662,293.091 88.9328,293.924 90.5,295C 74.2467,297.221 57.9134,299.054 41.5,300.5 Z"/></g>
<g><path style="opacity:1" fill="#e1e1e1" d="M 74.5,301.5 C 62.4424,302.732 50.4424,304.398 38.5,306.5C 36.3904,305.946 34.3904,305.112 32.5,304C 35.9523,303.115 39.2856,302.282 42.5,301.5C 56.5139,300.523 70.5139,299.689 84.5,299C 81.3897,300.524 78.0564,301.358 74.5,301.5 Z"/></g>
<g><path style="opacity:1" fill="#f1f1f1" d="M 77.5,302.5 C 78.5,302.5 79.5,302.5 80.5,302.5C 81.5,302.5 82.5,302.5 83.5,302.5C 83.5,304.167 83.5,305.833 83.5,307.5C 68.8333,309.5 54.1667,311.5 39.5,313.5C 39.5,311.5 39.5,309.5 39.5,307.5C 52.3243,305.981 64.9909,304.315 77.5,302.5 Z"/></g>
<g><path style="opacity:1" fill="#8d8d8d" d="M 80.5,302.5 C 81.5676,301.566 82.901,301.232 84.5,301.5C 84.7947,303.735 84.4614,305.735 83.5,307.5C 83.5,305.833 83.5,304.167 83.5,302.5C 82.5,302.5 81.5,302.5 80.5,302.5 Z"/></g>
<g><path style="opacity:1" fill="#dddddd" d="M 84.5,308.5 C 86.7567,308.962 88.7567,309.962 90.5,311.5C 86.5736,312.632 82.5736,313.299 78.5,313.5C 64.8035,314.797 51.1369,315.963 37.5,317C 37.8333,316.667 38.1667,316.333 38.5,316C 53.9442,313.344 69.2775,310.844 84.5,308.5 Z"/></g>
<g><path style="opacity:1" fill="#dbdbdb" d="M 81.5,314.5 C 86.1366,314.354 86.4699,315.021 82.5,316.5C 67.8667,318.571 53.2001,320.571 38.5,322.5C 36.5191,322.563 34.8524,321.896 33.5,320.5C 49.5339,317.955 65.5339,315.955 81.5,314.5 Z"/></g>
<g><path style="opacity:1" fill="#e9e9e9" d="M 84.5,318.5 C 85.4015,322.241 84.0681,324.241 80.5,324.5C 66.8699,326.412 53.2032,328.079 39.5,329.5C 39.1412,327.234 39.8078,325.401 41.5,324C 55.7713,321.64 70.1046,319.806 84.5,318.5 Z"/></g>
<g><path style="opacity:1" fill="#dbdbdb" d="M 83.5,325.5 C 86.2257,325.264 88.559,326.097 90.5,328C 87.8832,328.822 85.2165,329.322 82.5,329.5C 67.8388,331.095 53.1722,332.261 38.5,333C 42.012,331.686 45.6786,330.686 49.5,330C 61.0216,328.819 72.3549,327.319 83.5,325.5 Z"/></g>
<g><path style="opacity:1" fill="#363636" d="M 39.5,291.5 C 39.2011,293.604 39.5344,295.604 40.5,297.5C 46.4015,295.943 52.4015,294.943 58.5,294.5C 58.8417,295.338 59.5084,295.672 60.5,295.5C 53.9998,296.819 47.3331,297.986 40.5,299C 38.0684,300.087 38.4017,300.587 41.5,300.5C 41.5,301.167 41.8333,301.5 42.5,301.5C 39.2856,302.282 35.9523,303.115 32.5,304C 34.3904,305.112 36.3904,305.946 38.5,306.5C 50.4424,304.398 62.4424,302.732 74.5,301.5C 75.209,302.404 76.209,302.737 77.5,302.5C 64.9909,304.315 52.3243,305.981 39.5,307.5C 39.5,309.5 39.5,311.5 39.5,313.5C 54.1667,311.5 68.8333,309.5 83.5,307.5C 83.5,308.167 83.8333,308.5 84.5,308.5C 69.2775,310.844 53.9442,313.344 38.5,316C 38.1667,316.333 37.8333,316.667 37.5,317C 51.1369,315.963 64.8035,314.797 78.5,313.5C 79.209,314.404 80.209,314.737 81.5,314.5C 65.5339,315.955 49.5339,317.955 33.5,320.5C 34.8524,321.896 36.5191,322.563 38.5,322.5C 53.2001,320.571 67.8667,318.571 82.5,316.5C 83.1667,317.167 83.8333,317.833 84.5,318.5C 70.1046,319.806 55.7713,321.64 41.5,324C 39.8078,325.401 39.1412,327.234 39.5,329.5C 53.2032,328.079 66.8699,326.412 80.5,324.5C 81.209,325.404 82.209,325.737 83.5,325.5C 72.3549,327.319 61.0216,328.819 49.5,330C 45.6786,330.686 42.012,331.686 38.5,333C 53.1722,332.261 67.8388,331.095 82.5,329.5C 83.6085,330.29 84.9419,330.79 86.5,331C 85.9558,331.717 85.2891,332.217 84.5,332.5C 83.2067,331.842 81.7067,331.508 80,331.5C 64.318,332.884 48.818,334.55 33.5,336.5C 32.8333,336.833 32.1667,337.167 31.5,337.5C 30.2241,336.614 30.2241,335.614 31.5,334.5C 36.4195,332.991 38.4195,329.658 37.5,324.5C 28.7443,322.258 28.4109,319.258 36.5,315.5C 37.8333,313.167 37.8333,310.833 36.5,308.5C 28.4573,304.889 28.624,301.555 37,298.5C 37.4955,296.527 37.6621,294.527 37.5,292.5C 38.1667,292.167 38.8333,291.833 39.5,291.5 Z"/></g>
<g><path style="opacity:1" fill="#dbdbdb" d="M 84.5,332.5 C 82.9582,333.301 81.2915,333.634 79.5,333.5C 65.53,334.693 51.6967,336.693 38,339.5C 36.3336,338.652 34.8336,337.652 33.5,336.5C 48.818,334.55 64.318,332.884 80,331.5C 81.7067,331.508 83.2067,331.842 84.5,332.5 Z"/></g>
<g><path style="opacity:1" fill="#fcfcfc" d="M 80.5,335.5 C 81.5,335.5 82.5,335.5 83.5,335.5C 83.5,355.167 83.5,374.833 83.5,394.5C 75.5,394.5 67.5,394.5 59.5,394.5C 57.3144,387.111 54.8144,379.777 52,372.5C 51.2838,370.121 50.1172,368.121 48.5,366.5C 46.6471,359.764 44.4805,353.097 42,346.5C 41.6174,345.944 41.1174,345.611 40.5,345.5C 40.1412,343.234 40.8078,341.401 42.5,340C 55.1854,338.565 67.852,337.065 80.5,335.5 Z"/></g>
<g><path style="opacity:1" fill="#9e9e9e" d="M 80.5,335.5 C 80.5,335.167 80.5,334.833 80.5,334.5C 81.8333,334.5 83.1667,334.5 84.5,334.5C 84.5,354.5 84.5,374.5 84.5,394.5C 84.1667,394.5 83.8333,394.5 83.5,394.5C 83.5,374.833 83.5,355.167 83.5,335.5C 82.5,335.5 81.5,335.5 80.5,335.5 Z"/></g>
<g><path style="opacity:1" fill="#444444" d="M 79.5,333.5 C 79.5,334.167 79.8333,334.5 80.5,334.5C 80.5,334.833 80.5,335.167 80.5,335.5C 67.852,337.065 55.1854,338.565 42.5,340C 40.8078,341.401 40.1412,343.234 40.5,345.5C 39.7321,344.737 39.2321,343.737 39,342.5C 38.8333,343.333 38.6667,344.167 38.5,345C 39.0735,346.607 39.7402,348.107 40.5,349.5C 39.3388,364.661 39.1721,379.994 40,395.5C 46,401.5 52,407.5 58,413.5C 58.4828,412.552 58.6495,411.552 58.5,410.5C 59.7416,412.389 59.7416,414.389 58.5,416.5C 51.5351,410.036 44.7018,403.369 38,396.5C 37.6667,378.167 37.3333,359.833 37,341.5C 34.833,340.512 32.9997,339.179 31.5,337.5C 32.1667,337.167 32.8333,336.833 33.5,336.5C 34.8336,337.652 36.3336,338.652 38,339.5C 51.6967,336.693 65.53,334.693 79.5,333.5 Z"/></g>
<g><path style="opacity:1" fill="#f0f0f0" d="M 40.5,349.5 C 42.5069,356.559 44.5069,363.559 46.5,370.5C 49.8964,383.438 53.8964,396.105 58.5,408.5C 58.5,409.167 58.5,409.833 58.5,410.5C 58.6495,411.552 58.4828,412.552 58,413.5C 52,407.5 46,401.5 40,395.5C 39.1721,379.994 39.3388,364.661 40.5,349.5 Z"/></g>
<g><path style="opacity:1" fill="#232323" d="M 40.5,345.5 C 41.1174,345.611 41.6174,345.944 42,346.5C 44.4805,353.097 46.6471,359.764 48.5,366.5C 48.3404,368.153 47.6737,369.486 46.5,370.5C 44.5069,363.559 42.5069,356.559 40.5,349.5C 39.7402,348.107 39.0735,346.607 38.5,345C 38.6667,344.167 38.8333,343.333 39,342.5C 39.2321,343.737 39.7321,344.737 40.5,345.5 Z"/></g>
<g><path style="opacity:1" fill="#464646" d="M 48.5,366.5 C 50.1172,368.121 51.2838,370.121 52,372.5C 54.8144,379.777 57.3144,387.111 59.5,394.5C 67.5,394.5 75.5,394.5 83.5,394.5C 83.8333,394.5 84.1667,394.5 84.5,394.5C 83.5,395.5 82.5,396.5 81.5,397.5C 74.6866,396.509 67.6866,396.175 60.5,396.5C 60.1936,399.385 60.5269,402.052 61.5,404.5C 61.5,406.167 61.5,407.833 61.5,409.5C 60.8485,408.909 60.1818,408.243 59.5,407.5C 58.8933,407.624 58.56,407.957 58.5,408.5C 53.8964,396.105 49.8964,383.438 46.5,370.5C 47.6737,369.486 48.3404,368.153 48.5,366.5 Z"/></g>
<g><path style="opacity:1" fill="#adadad" d="M 49.5,374.5 C 52.6007,380.943 55.4341,387.61 58,394.5C 58.6667,397.5 58.6667,400.5 58,403.5C 55.261,393.785 52.4277,384.119 49.5,374.5 Z"/></g>
<g><path style="opacity:1" fill="#cdcdcd" d="M 81.5,397.5 C 81.1667,398.5 80.5,399.167 79.5,399.5C 73.9262,397.547 67.9262,396.88 61.5,397.5C 61.5,399.833 61.5,402.167 61.5,404.5C 60.5269,402.052 60.1936,399.385 60.5,396.5C 67.6866,396.175 74.6866,396.509 81.5,397.5 Z"/></g>
<g><path style="opacity:1" fill="#f8f8f8" d="M 79.5,399.5 C 73.8063,404.527 68.4729,409.86 63.5,415.5C 62.8333,413.5 62.1667,411.5 61.5,409.5C 61.5,407.833 61.5,406.167 61.5,404.5C 61.5,402.167 61.5,399.833 61.5,397.5C 67.9262,396.88 73.9262,397.547 79.5,399.5 Z"/></g>
<g><path style="opacity:1" fill="#888888" d="M 61.5,409.5 C 62.1667,411.5 62.8333,413.5 63.5,415.5C 63.44,416.043 63.1067,416.376 62.5,416.5C 61.5258,414.257 61.1924,411.924 61.5,409.5 Z"/></g>
</svg>
