<?xml version="1.0" encoding="UTF-8"?>
<!DOCTYPE svg PUBLIC "-//W3C//DTD SVG 1.1//EN" "http://www.w3.org/Graphics/SVG/1.1/DTD/svg11.dtd">
<svg xmlns="http://www.w3.org/2000/svg" version="1.1" width="127px" height="432px" style="shape-rendering:geometricPrecision; text-rendering:geometricPrecision; image-rendering:optimizeQuality; fill-rule:evenodd; clip-rule:evenodd" xmlns:xlink="http://www.w3.org/1999/xlink">
<g><path style="opacity:1" fill="#fcfcfc" d="M -0.5,-0.5 C 41.8333,-0.5 84.1667,-0.5 126.5,-0.5C 126.5,143.5 126.5,287.5 126.5,431.5C 84.1667,431.5 41.8333,431.5 -0.5,431.5C -0.5,287.5 -0.5,143.5 -0.5,-0.5 Z"/></g>
<g><path style="opacity:1" fill="#989898" d="M 68.5,6.5 C 62.4638,6.35988 56.4638,6.69322 50.5,7.5C 53.6952,5.97041 57.1952,5.30375 61,5.5C 63.6903,5.50291 66.1903,5.83625 68.5,6.5 Z"/></g>
<g><path style="opacity:1" fill="#373737" d="M 68.5,6.5 C 99.0864,11.6752 116.086,29.6752 119.5,60.5C 116.968,96.6983 97.635,116.365 61.5,119.5C 32.7077,116.695 14.5411,101.362 7,73.5C 3.03443,44.2614 14.2011,23.0947 40.5,10C 43.824,9.05724 47.1574,8.22391 50.5,7.5C 56.4638,6.69322 62.4638,6.35988 68.5,6.5 Z"/></g>
<g><path style="opacity:1" fill="#f4f4f4" d="M 55.5,7.5 C 87.9389,7.1294 108.439,22.4627 117,53.5C 119.482,77.7504 110.649,96.5837 90.5,110C 68.3843,121.367 47.3843,119.701 27.5,105C 3.49586,80.6225 1.3292,54.4558 21,26.5C 30.6172,16.6108 42.1172,10.2775 55.5,7.5 Z"/></g>
<g><path style="opacity:1" fill="#585858" d="M 37.5,21.5 C 53.328,20.3386 69.328,20.1719 85.5,21C 87.5564,23.6141 89.2231,26.4475 90.5,29.5C 89.7784,29.9175 89.2784,30.5842 89,31.5C 88.6012,31.2716 88.4346,30.9382 88.5,30.5C 87.2149,22.9414 82.8816,20.4414 75.5,23C 80.0363,24.7615 84.0363,27.2615 87.5,30.5C 86.8333,30.5 86.5,30.8333 86.5,31.5C 76.9187,24.7713 66.252,22.1046 54.5,23.5C 60.1913,22.2114 66.0247,22.2114 72,23.5C 73.0588,23.3699 73.8921,22.8699 74.5,22C 66.1733,21.5003 57.84,21.3336 49.5,21.5C 45.5,21.5 41.5,21.5 37.5,21.5 Z"/></g>
<g><path style="opacity:1" fill="#111111" d="M 49.5,21.5 C 57.84,21.3336 66.1733,21.5003 74.5,22C 73.8921,22.8699 73.0588,23.3699 72,23.5C 66.0247,22.2114 60.1913,22.2114 54.5,23.5C 53.8333,23.5 53.1667,23.5 52.5,23.5C 50.8212,23.7148 49.8212,23.0481 49.5,21.5 Z"/></g>
<g><path style="opacity:1" fill="#fcfcfc" d="M 52.5,23.5 C 53.1667,23.5 53.8333,23.5 54.5,23.5C 66.252,22.1046 76.9187,24.7713 86.5,31.5C 101.674,45.193 105.174,61.5264 97,80.5C 91.0811,91.2058 82.2478,98.2058 70.5,101.5C 64.1667,101.5 57.8333,101.5 51.5,101.5C 29.9712,92.7922 20.4712,76.7922 23,53.5C 27.6747,38.326 37.5081,28.326 52.5,23.5 Z"/></g>
<g><path style="opacity:1" fill="#cdcdcd" d="M 88.5,30.5 C 88.1667,30.5 87.8333,30.5 87.5,30.5C 84.0363,27.2615 80.0363,24.7615 75.5,23C 82.8816,20.4414 87.2149,22.9414 88.5,30.5 Z"/></g>
<g><path style="opacity:1" fill="#2f2f2f" d="M 90.5,29.5 C 97.0904,40.3468 103.424,51.3468 109.5,62.5C 101.742,76.3563 93.7416,90.023 85.5,103.5C 85.5,102.833 85.1667,102.5 84.5,102.5C 86.4534,100.088 87.6201,97.4209 88,94.5C 83.7744,97.8304 79.2744,100.497 74.5,102.5C 73.2921,101.766 71.9587,101.433 70.5,101.5C 82.2478,98.2058 91.0811,91.2058 97,80.5C 105.174,61.5264 101.674,45.193 86.5,31.5C 86.5,30.8333 86.8333,30.5 87.5,30.5C 87.8333,30.5 88.1667,30.5 88.5,30.5C 88.4346,30.9382 88.6012,31.2716 89,31.5C 89.2784,30.5842 89.7784,29.9175 90.5,29.5 Z"/></g>
<g><path style="opacity:1" fill="#e4e4e4" d="M 104.5,57.5 C 105.74,58.973 106.74,60.6396 107.5,62.5C 106.237,64.0287 105.237,65.6954 104.5,67.5C 103.167,64.1667 103.167,60.8333 104.5,57.5 Z"/></g>
<g><path style="opacity:1" fill="#7d7d7d" d="M 104.5,57.5 C 103.167,60.8333 103.167,64.1667 104.5,67.5C 104.013,68.4734 103.513,69.4734 103,70.5C 102.333,65.1667 102.333,59.8333 103,54.5C 103.513,55.5266 104.013,56.5266 104.5,57.5 Z"/></g>
<g><path style="opacity:1" fill="#343434" d="M 37.5,21.5 C 41.5,21.5 45.5,21.5 49.5,21.5C 49.8212,23.0481 50.8212,23.7148 52.5,23.5C 37.5081,28.326 27.6747,38.326 23,53.5C 20.4712,76.7922 29.9712,92.7922 51.5,101.5C 50.391,101.557 49.391,101.89 48.5,102.5C 48.1667,101.5 47.5,100.833 46.5,100.5C 42.4849,99.4089 38.9849,97.4089 36,94.5C 36.0846,97.3359 37.2513,99.6693 39.5,101.5C 39.5,101.833 39.5,102.167 39.5,102.5C 38.8333,102.5 38.5,102.833 38.5,103.5C 30.1548,89.9909 22.1548,76.1576 14.5,62C 22.0467,48.3224 29.7133,34.8224 37.5,21.5 Z"/></g>
<g><path style="opacity:1" fill="#e3e3e3" d="M 46.5,100.5 C 44.3926,101.468 42.0593,101.802 39.5,101.5C 37.2513,99.6693 36.0846,97.3359 36,94.5C 38.9849,97.4089 42.4849,99.4089 46.5,100.5 Z"/></g>
<g><path style="opacity:1" fill="#d3d3d3" d="M 19.5,56.5 C 20.6453,60.3112 20.8119,64.3112 20,68.5C 15.5342,64.6515 15.3675,60.6515 19.5,56.5 Z"/></g>
<g><path style="opacity:1" fill="#c8c8c8" d="M 38.5,22.5 C 41.5184,22.3354 44.5184,22.502 47.5,23C 43.4439,25.1144 39.6106,27.6144 36,30.5C 36.4911,27.8195 37.3244,25.1528 38.5,22.5 Z"/></g>
<g><path style="opacity:1" fill="#cccccc" d="M 84.5,102.5 C 81.1667,102.5 77.8333,102.5 74.5,102.5C 79.2744,100.497 83.7744,97.8304 88,94.5C 87.6201,97.4209 86.4534,100.088 84.5,102.5 Z"/></g>
<g><path style="opacity:1" fill="#8b8b8b" d="M 46.5,100.5 C 47.5,100.833 48.1667,101.5 48.5,102.5C 45.5,102.5 42.5,102.5 39.5,102.5C 39.5,102.167 39.5,101.833 39.5,101.5C 42.0593,101.802 44.3926,101.468 46.5,100.5 Z"/></g>
<g><path style="opacity:1" fill="#1e1e1e" d="M 51.5,101.5 C 57.8333,101.5 64.1667,101.5 70.5,101.5C 71.9587,101.433 73.2921,101.766 74.5,102.5C 77.8333,102.5 81.1667,102.5 84.5,102.5C 85.1667,102.5 85.5,102.833 85.5,103.5C 69.8333,103.5 54.1667,103.5 38.5,103.5C 38.5,102.833 38.8333,102.5 39.5,102.5C 42.5,102.5 45.5,102.5 48.5,102.5C 49.391,101.89 50.391,101.557 51.5,101.5 Z"/></g>
<g><path style="opacity:1" fill="#b6b6b6" d="M 14.5,158.5 C 15.1476,171.876 14.4809,184.876 12.5,197.5C 13.1493,184.402 13.816,171.402 14.5,158.5 Z"/></g>
<g><path style="opacity:1" fill="#303030" d="M 117.5,206.5 C 116.833,206.5 116.5,206.167 116.5,205.5C 116.768,203.901 116.434,202.568 115.5,201.5C 80.0023,200.667 44.3357,200.167 8.5,200C 9.05596,199.617 9.38929,199.117 9.5,198.5C 10.609,198.443 11.609,198.11 12.5,197.5C 14.4809,184.876 15.1476,171.876 14.5,158.5C 16.1887,157.069 18.1887,156.236 20.5,156C 48.8951,155.025 77.2284,155.358 105.5,157C 106.5,157.5 107.5,158 108.5,158.5C 109.167,171.5 109.833,184.5 110.5,197.5C 113.189,198.557 115.689,199.89 118,201.5C 118.64,203.265 118.473,204.932 117.5,206.5 Z"/></g>
<g><path style="opacity:1" fill="#cacaca" d="M 36.5,159.5 C 37.1667,159.5 37.5,159.833 37.5,160.5C 37.5,172.167 37.5,183.833 37.5,195.5C 35.901,195.768 34.5676,195.434 33.5,194.5C 34.5,194.5 35.5,194.5 36.5,194.5C 36.5,182.833 36.5,171.167 36.5,159.5 Z"/></g>
<g><path style="opacity:1" fill="#afafaf" d="M 83.5,159.5 C 84.4952,171.655 84.8286,183.989 84.5,196.5C 83.5,196.5 82.5,196.5 81.5,196.5C 81.5,196.167 81.5,195.833 81.5,195.5C 83.4791,183.88 84.1458,171.88 83.5,159.5 Z"/></g>
<g><path style="opacity:1" fill="#fbfbfb" d="M 105.5,195.5 C 105.082,194.778 104.416,194.278 103.5,194C 98.9796,193.186 94.6463,193.353 90.5,194.5C 89.4168,194.539 88.4168,194.873 87.5,195.5C 86.3341,183.514 86.1674,171.514 87,159.5C 93.4423,156.902 99.9423,156.902 106.5,159.5C 106.833,165.5 107.167,171.5 107.5,177.5C 107.496,183.872 106.829,189.872 105.5,195.5 Z"/></g>
<g><path style="opacity:1" fill="#fcfcfc" d="M 83.5,159.5 C 84.1458,171.88 83.4791,183.88 81.5,195.5C 67.4969,192.862 53.4969,192.862 39.5,195.5C 39.5,183.833 39.5,172.167 39.5,160.5C 41.8766,159.113 44.5432,158.279 47.5,158C 59.5698,157.17 71.5698,157.67 83.5,159.5 Z"/></g>
<g><path style="opacity:1" fill="#fdfdfd" d="M 36.5,159.5 C 36.5,171.167 36.5,182.833 36.5,194.5C 35.5,194.5 34.5,194.5 33.5,194.5C 32.8333,194.5 32.1667,194.5 31.5,194.5C 29.866,193.839 28.0326,193.506 26,193.5C 22.8502,193.36 20.0169,194.027 17.5,195.5C 16.3403,183.674 16.1737,171.674 17,159.5C 23.5142,156.861 30.0142,156.861 36.5,159.5 Z"/></g>
<g><path style="opacity:1" fill="#7f7f7f" d="M 31.5,194.5 C 28.1501,194.335 24.8168,194.502 21.5,195C 24.6946,195.181 27.6946,195.681 30.5,196.5C 27.1667,196.5 23.8333,196.5 20.5,196.5C 19.791,195.596 18.791,195.263 17.5,195.5C 20.0169,194.027 22.8502,193.36 26,193.5C 28.0326,193.506 29.866,193.839 31.5,194.5 Z"/></g>
<g><path style="opacity:1" fill="#858585" d="M 90.5,194.5 C 94.6463,193.353 98.9796,193.186 103.5,194C 104.416,194.278 105.082,194.778 105.5,195.5C 103.302,195.409 102.969,196.075 104.5,197.5C 100.566,196.64 96.5662,196.307 92.5,196.5C 95.6414,195.679 98.9748,195.179 102.5,195C 98.5138,194.501 94.5138,194.334 90.5,194.5 Z"/></g>
<g><path style="opacity:1" fill="#ededed" d="M 20.5,196.5 C 23.8333,196.5 27.1667,196.5 30.5,196.5C 32.2915,196.366 33.9582,196.699 35.5,197.5C 29.5,198.833 23.5,198.833 17.5,197.5C 18.391,196.89 19.391,196.557 20.5,196.5 Z"/></g>
<g><path style="opacity:1" fill="#f3f3f3" d="M 81.5,197.5 C 68.5,198.833 55.5,198.833 42.5,197.5C 55.4929,196.212 68.4929,196.212 81.5,197.5 Z"/></g>
<g><path style="opacity:1" fill="#565656" d="M 37.5,160.5 C 38.1667,160.5 38.8333,160.5 39.5,160.5C 39.5,172.167 39.5,183.833 39.5,195.5C 53.4969,192.862 67.4969,192.862 81.5,195.5C 81.5,195.833 81.5,196.167 81.5,196.5C 81.5,196.833 81.5,197.167 81.5,197.5C 68.4929,196.212 55.4929,196.212 42.5,197.5C 40.9731,197.427 39.9731,198.094 39.5,199.5C 38.8333,199.5 38.1667,199.5 37.5,199.5C 37.5,198.167 36.8333,197.5 35.5,197.5C 33.9582,196.699 32.2915,196.366 30.5,196.5C 27.6946,195.681 24.6946,195.181 21.5,195C 24.8168,194.502 28.1501,194.335 31.5,194.5C 32.1667,194.5 32.8333,194.5 33.5,194.5C 34.5676,195.434 35.901,195.768 37.5,195.5C 37.5,183.833 37.5,172.167 37.5,160.5 Z"/></g>
<g><path style="opacity:1" fill="#f3f3f3" d="M 92.5,196.5 C 96.5662,196.307 100.566,196.64 104.5,197.5C 104.833,197.5 105.167,197.5 105.5,197.5C 99.5,198.833 93.5,198.833 87.5,197.5C 89.0418,196.699 90.7085,196.366 92.5,196.5 Z"/></g>
<g><path style="opacity:1" fill="#989898" d="M 17.5,197.5 C 23.5,198.833 29.5,198.833 35.5,197.5C 36.8333,197.5 37.5,198.167 37.5,199.5C 29.8261,199.666 22.1594,199.5 14.5,199C 15.2438,197.961 16.2438,197.461 17.5,197.5 Z"/></g>
<g><path style="opacity:1" fill="#969696" d="M 42.5,197.5 C 55.5,198.833 68.5,198.833 81.5,197.5C 83.5,197.5 85.5,197.5 87.5,197.5C 93.5,198.833 99.5,198.833 105.5,197.5C 106.675,197.281 107.675,197.614 108.5,198.5C 85.5097,199.5 62.5097,199.833 39.5,199.5C 39.9731,198.094 40.9731,197.427 42.5,197.5 Z"/></g>
<g><path style="opacity:1" fill="#f2f2f2" d="M 115.5,201.5 C 116.434,202.568 116.768,203.901 116.5,205.5C 89.9075,206.491 63.2408,206.824 36.5,206.5C 27.1607,206.666 17.8274,206.5 8.5,206C 7.61983,204.644 7.28649,203.144 7.5,201.5C 43.5,201.5 79.5,201.5 115.5,201.5 Z"/></g>
<g><path style="opacity:1" fill="#5f5f5f" d="M 9.5,198.5 C 9.38929,199.117 9.05596,199.617 8.5,200C 44.3357,200.167 80.0023,200.667 115.5,201.5C 79.5,201.5 43.5,201.5 7.5,201.5C 7.28649,203.144 7.61983,204.644 8.5,206C 17.8274,206.5 27.1607,206.666 36.5,206.5C 53.3381,207.167 70.3381,207.833 87.5,208.5C 87.3764,209.107 87.0431,209.44 86.5,209.5C 70.0051,208.338 53.3384,208.172 36.5,209C 37.3333,209.833 38.1667,210.667 39,211.5C 39.4983,214.817 39.665,218.15 39.5,221.5C 38.8333,221.833 38.1667,222.167 37.5,222.5C 37.665,219.15 37.4983,215.817 37,212.5C 35.786,210.951 34.286,209.785 32.5,209C 24.1667,208.667 15.8333,208.333 7.5,208C 5.55611,205.847 5.05611,203.347 6,200.5C 6.81595,199.177 7.98261,198.511 9.5,198.5 Z"/></g>
<g><path style="opacity:1" fill="#3b3b3b" d="M 116.5,205.5 C 116.5,206.167 116.833,206.5 117.5,206.5C 117.082,207.222 116.416,207.722 115.5,208C 106.833,208.333 98.1667,208.667 89.5,209C 86.151,212.066 85.8177,215.399 88.5,219C 86.4013,222.667 86.068,226.5 87.5,230.5C 89.7098,231.766 91.7098,233.266 93.5,235C 91.7098,236.734 89.7098,238.234 87.5,239.5C 86.3526,241.765 86.1859,244.098 87,246.5C 88.8121,247.977 90.6455,249.31 92.5,250.5C 91.8333,250.833 91.1667,251.167 90.5,251.5C 89.0484,249.9 87.2151,248.9 85,248.5C 71.5901,250.982 58.0901,252.815 44.5,254C 42.3921,254.36 40.3921,255.027 38.5,256C 54.1753,255.214 69.842,254.047 85.5,252.5C 86.5063,253.396 86.5063,254.062 85.5,254.5C 68.8021,255.624 52.1354,257.124 35.5,259C 34.8333,259.333 34.1667,259.667 33.5,260C 34.7741,261.221 36.2741,262.054 38,262.5C 47.3923,260.388 56.8923,259.055 66.5,258.5C 67.9187,259.451 69.5853,259.784 71.5,259.5C 60.9496,260.652 50.2829,261.985 39.5,263.5C 39.5,265.5 39.5,267.5 39.5,269.5C 38.8333,269.833 38.1667,270.167 37.5,270.5C 37.6621,268.473 37.4955,266.473 37,264.5C 28.4979,261.306 28.4979,257.973 37,254.5C 37.6667,252.5 37.6667,250.5 37,248.5C 28.7539,245.318 28.5872,241.985 36.5,238.5C 37.8333,235.833 37.8333,233.167 36.5,230.5C 31.2038,227.345 31.5372,224.678 37.5,222.5C 38.1667,222.167 38.8333,221.833 39.5,221.5C 40.1667,221.5 40.8333,221.5 41.5,221.5C 49.3936,221.527 49.3936,222.193 41.5,223.5C 42.6016,224.176 43.6016,224.842 44.5,225.5C 41.6146,225.194 38.9479,225.527 36.5,226.5C 35.9569,226.56 35.6236,226.893 35.5,227.5C 36.6888,228.429 38.0222,228.762 39.5,228.5C 40.791,228.263 41.791,228.596 42.5,229.5C 41.5041,229.414 40.6708,229.748 40,230.5C 39.5045,232.473 39.3379,234.473 39.5,236.5C 40.8333,236.5 42.1667,236.5 43.5,236.5C 45.099,236.232 46.4324,236.566 47.5,237.5C 43.941,237.408 40.6076,238.241 37.5,240C 55.1697,238.697 72.8363,237.03 90.5,235C 89.3066,233.905 87.9733,233.072 86.5,232.5C 85.8333,231.833 85.1667,231.167 84.5,230.5C 84.5,227.833 84.5,225.167 84.5,222.5C 79.5754,223.685 74.5754,224.351 69.5,224.5C 68.2617,224.19 68.2617,223.69 69.5,223C 68.5,222.667 67.5,222.333 66.5,222C 72.842,221.222 79.1753,220.388 85.5,219.5C 80.9044,219.278 76.2377,219.112 71.5,219C 74.0356,218.814 76.369,218.314 78.5,217.5C 80.1992,217.66 81.8659,217.494 83.5,217C 84.0691,214.285 85.0691,211.785 86.5,209.5C 87.0431,209.44 87.3764,209.107 87.5,208.5C 70.3381,207.833 53.3381,207.167 36.5,206.5C 63.2408,206.824 89.9075,206.491 116.5,205.5 Z"/></g>
<g><path style="opacity:1" fill="#f8f8f8" d="M 86.5,209.5 C 85.0691,211.785 84.0691,214.285 83.5,217C 81.8659,217.494 80.1992,217.66 78.5,217.5C 65.9851,218.484 53.6517,219.817 41.5,221.5C 40.8333,221.5 40.1667,221.5 39.5,221.5C 39.665,218.15 39.4983,214.817 39,211.5C 38.1667,210.667 37.3333,209.833 36.5,209C 53.3384,208.172 70.0051,208.338 86.5,209.5 Z"/></g>
<g><path style="opacity:1" fill="#585858" d="M 78.5,217.5 C 76.369,218.314 74.0356,218.814 71.5,219C 76.2377,219.112 80.9044,219.278 85.5,219.5C 79.1753,220.388 72.842,221.222 66.5,222C 67.5,222.333 68.5,222.667 69.5,223C 68.2617,223.69 68.2617,224.19 69.5,224.5C 64.3178,225.674 58.9844,226.674 53.5,227.5C 51.8008,227.66 50.1341,227.494 48.5,227C 51.4245,226.012 54.4245,225.346 57.5,225C 53.1132,224.294 48.7799,224.46 44.5,225.5C 43.6016,224.842 42.6016,224.176 41.5,223.5C 49.3936,222.193 49.3936,221.527 41.5,221.5C 53.6517,219.817 65.9851,218.484 78.5,217.5 Z"/></g>
<g><path style="opacity:1" fill="#f0f0f0" d="M 84.5,230.5 C 70.6381,232.073 56.9714,234.073 43.5,236.5C 42.1667,236.5 40.8333,236.5 39.5,236.5C 39.3379,234.473 39.5045,232.473 40,230.5C 40.6708,229.748 41.5041,229.414 42.5,229.5C 46.3366,229.069 50.0032,228.402 53.5,227.5C 58.9844,226.674 64.3178,225.674 69.5,224.5C 74.5754,224.351 79.5754,223.685 84.5,222.5C 84.5,225.167 84.5,227.833 84.5,230.5 Z"/></g>
<g><path style="opacity:1" fill="#878787" d="M 53.5,227.5 C 50.0032,228.402 46.3366,229.069 42.5,229.5C 41.791,228.596 40.791,228.263 39.5,228.5C 40.2625,227.732 41.2625,227.232 42.5,227C 40.5273,226.505 38.5273,226.338 36.5,226.5C 38.9479,225.527 41.6146,225.194 44.5,225.5C 48.7799,224.46 53.1132,224.294 57.5,225C 54.4245,225.346 51.4245,226.012 48.5,227C 50.1341,227.494 51.8008,227.66 53.5,227.5 Z"/></g>
<g><path style="opacity:1" fill="#d9d9d9" d="M 36.5,226.5 C 38.5273,226.338 40.5273,226.505 42.5,227C 41.2625,227.232 40.2625,227.732 39.5,228.5C 38.0222,228.762 36.6888,228.429 35.5,227.5C 35.6236,226.893 35.9569,226.56 36.5,226.5 Z"/></g>
<g><path style="opacity:1" fill="#575757" d="M 84.5,230.5 C 85.1667,231.167 85.8333,231.833 86.5,232.5C 73.6066,234.245 60.6066,235.912 47.5,237.5C 46.4324,236.566 45.099,236.232 43.5,236.5C 56.9714,234.073 70.6381,232.073 84.5,230.5 Z"/></g>
<g><path style="opacity:1" fill="#e0e0e0" d="M 86.5,232.5 C 87.9733,233.072 89.3066,233.905 90.5,235C 72.8363,237.03 55.1697,238.697 37.5,240C 40.6076,238.241 43.941,237.408 47.5,237.5C 60.6066,235.912 73.6066,234.245 86.5,232.5 Z"/></g>
<g><path style="opacity:1" fill="#ececec" d="M 81.5,241.5 C 82.5,241.5 83.5,241.5 84.5,241.5C 84.7394,243.467 84.4061,245.301 83.5,247C 69.1193,249.018 54.786,251.185 40.5,253.5C 39.0623,251.002 39.3956,248.836 41.5,247C 55.0111,245.41 68.3445,243.577 81.5,241.5 Z"/></g>
<g><path style="opacity:1" fill="#d8d8d8" d="M 73.5,238.5 C 77.1817,238.335 80.8484,238.501 84.5,239C 72.2371,241.145 59.9037,242.812 47.5,244C 44.1675,244.249 41.0008,245.082 38,246.5C 36.3745,245.711 34.8745,244.711 33.5,243.5C 46.9029,241.454 60.2362,239.787 73.5,238.5 Z"/></g>
<g><path style="opacity:1" fill="#dcdcdc" d="M 90.5,251.5 C 88.7085,251.366 87.0418,251.699 85.5,252.5C 69.842,254.047 54.1753,255.214 38.5,256C 40.3921,255.027 42.3921,254.36 44.5,254C 58.0901,252.815 71.5901,250.982 85,248.5C 87.2151,248.9 89.0484,249.9 90.5,251.5 Z"/></g>
<g><path style="opacity:1" fill="#dfdfdf" d="M 85.5,254.5 C 85.0825,255.222 84.4158,255.722 83.5,256C 77.8612,257.08 72.1945,257.913 66.5,258.5C 56.8923,259.055 47.3923,260.388 38,262.5C 36.2741,262.054 34.7741,261.221 33.5,260C 34.1667,259.667 34.8333,259.333 35.5,259C 52.1354,257.124 68.8021,255.624 85.5,254.5 Z"/></g>
<g><path style="opacity:1" fill="#eeeeee" d="M 39.5,269.5 C 39.5,267.5 39.5,265.5 39.5,263.5C 50.2829,261.985 60.9496,260.652 71.5,259.5C 75.913,259.313 80.2464,258.646 84.5,257.5C 84.5,259.5 84.5,261.5 84.5,263.5C 69.4668,265.254 54.4668,267.254 39.5,269.5 Z"/></g>
<g><path style="opacity:1" fill="#2c2c2c" d="M 92.5,250.5 C 93.0431,250.56 93.3764,250.893 93.5,251.5C 91.3428,253.412 89.0094,255.079 86.5,256.5C 85.359,258.421 85.1923,260.421 86,262.5C 88.975,263.732 91.475,265.566 93.5,268C 91.625,269.86 89.4583,271.36 87,272.5C 86.3333,274.833 86.3333,277.167 87,279.5C 89.3333,281.006 91.5,282.673 93.5,284.5C 92.9953,285.919 91.9953,286.585 90.5,286.5C 89.0813,285.549 87.4147,285.216 85.5,285.5C 92.1152,284.738 92.1152,283.404 85.5,281.5C 75.8251,282.917 66.1584,284.251 56.5,285.5C 55.0813,284.549 53.4147,284.216 51.5,284.5C 61.6966,283.047 72.0299,281.547 82.5,280C 84.1922,278.599 84.8588,276.766 84.5,274.5C 70.1664,276.278 55.833,278.111 41.5,280C 38.8611,282.008 38.8611,283.841 41.5,285.5C 40.3285,286.345 38.9952,287.011 37.5,287.5C 37.8076,285.076 37.4742,282.743 36.5,280.5C 33.8668,279.7 31.8668,278.2 30.5,276C 32.4437,273.692 34.7771,271.859 37.5,270.5C 38.1667,270.167 38.8333,269.833 39.5,269.5C 54.4668,267.254 69.4668,265.254 84.5,263.5C 84.5,261.5 84.5,259.5 84.5,257.5C 80.2464,258.646 75.913,259.313 71.5,259.5C 69.5853,259.784 67.9187,259.451 66.5,258.5C 72.1945,257.913 77.8612,257.08 83.5,256C 84.4158,255.722 85.0825,255.222 85.5,254.5C 86.5063,254.062 86.5063,253.396 85.5,252.5C 87.0418,251.699 88.7085,251.366 90.5,251.5C 91.1667,251.167 91.8333,250.833 92.5,250.5 Z"/></g>
<g><path style="opacity:1" fill="#e1e1e1" d="M 79.5,270.5 C 87.0266,270.057 87.6933,270.89 81.5,273C 70.1667,274.333 58.8333,275.667 47.5,277C 44.3081,277.197 41.3081,278.03 38.5,279.5C 36.6675,278.752 35.0009,277.752 33.5,276.5C 34.376,275.749 35.376,275.249 36.5,275C 51.017,273.782 65.3503,272.282 79.5,270.5 Z"/></g>
<g><path style="opacity:1" fill="#e1e1e1" d="M 84.5,264.5 C 86.7567,264.962 88.7567,265.962 90.5,267.5C 72.8582,269.93 55.1916,271.764 37.5,273C 38.6226,271.956 39.9559,271.29 41.5,271C 56.0376,269.224 70.3709,267.057 84.5,264.5 Z"/></g>
<g><path style="opacity:1" fill="#f0f0f0" d="M 51.5,284.5 C 48.1667,284.833 44.8333,285.167 41.5,285.5C 38.8611,283.841 38.8611,282.008 41.5,280C 55.833,278.111 70.1664,276.278 84.5,274.5C 84.8588,276.766 84.1922,278.599 82.5,280C 72.0299,281.547 61.6966,283.047 51.5,284.5 Z"/></g>
<g><path style="opacity:1" fill="#dadada" d="M 85.5,285.5 C 69.8524,287.165 54.1857,288.332 38.5,289C 44.21,286.658 50.21,285.491 56.5,285.5C 66.1584,284.251 75.8251,282.917 85.5,281.5C 92.1152,283.404 92.1152,284.738 85.5,285.5 Z"/></g>
<g><path style="opacity:1" fill="#222222" d="M 51.5,284.5 C 53.4147,284.216 55.0813,284.549 56.5,285.5C 50.21,285.491 44.21,286.658 38.5,289C 54.1857,288.332 69.8524,287.165 85.5,285.5C 87.4147,285.216 89.0813,285.549 90.5,286.5C 89.1516,287.601 87.6516,288.601 86,289.5C 85.3333,291.5 85.3333,293.5 86,295.5C 88.7581,296.795 91.2581,298.461 93.5,300.5C 91.4504,302.547 89.117,304.214 86.5,305.5C 85.0387,306.686 83.7054,306.686 82.5,305.5C 86.6609,304.149 86.4942,303.482 82,303.5C 65.7345,304.856 49.5678,306.69 33.5,309C 34.8185,310.908 36.6518,311.742 39,311.5C 44.8028,310.504 50.6362,309.837 56.5,309.5C 57.4916,309.328 58.1583,309.662 58.5,310.5C 52.0133,310.748 45.6799,311.748 39.5,313.5C 38.8333,313.5 38.1667,313.5 37.5,313.5C 28.8073,311.031 28.4739,308.031 36.5,304.5C 37.6474,302.235 37.8141,299.902 37,297.5C 28.2257,293.686 28.3923,290.352 37.5,287.5C 38.9952,287.011 40.3285,286.345 41.5,285.5C 44.8333,285.167 48.1667,284.833 51.5,284.5 Z"/></g>
<g><path style="opacity:1" fill="#dfdfdf" d="M 83.5,297.5 C 86.4206,297.146 88.7539,298.146 90.5,300.5C 72.8458,302.931 55.1791,304.764 37.5,306C 38.3279,305.085 39.3279,304.419 40.5,304C 53.7982,302.07 67.1316,300.403 80.5,299C 81.7375,298.768 82.7375,298.268 83.5,297.5 Z"/></g>
<g><path style="opacity:1" fill="#f0f0f0" d="M 81.5,290.5 C 82.5,290.5 83.5,290.5 84.5,290.5C 84.5,292.5 84.5,294.5 84.5,296.5C 69.4528,298.209 54.4528,300.209 39.5,302.5C 39.5,300.5 39.5,298.5 39.5,296.5C 53.7045,295.018 67.7045,293.018 81.5,290.5 Z"/></g>
<g><path style="opacity:1" fill="#e4e4e4" d="M 83.5,286.5 C 87.1002,287.179 86.7668,288.013 82.5,289C 67.7517,290.719 53.085,292.885 38.5,295.5C 36.3367,295.255 34.67,294.255 33.5,292.5C 50.28,290.343 66.9466,288.343 83.5,286.5 Z"/></g>
<g><path style="opacity:1" fill="#dedede" d="M 82.5,305.5 C 73.6487,306.478 64.982,307.811 56.5,309.5C 50.6362,309.837 44.8028,310.504 39,311.5C 36.6518,311.742 34.8185,310.908 33.5,309C 49.5678,306.69 65.7345,304.856 82,303.5C 86.4942,303.482 86.6609,304.149 82.5,305.5 Z"/></g>
<g><path style="opacity:1" fill="#ececec" d="M 39.5,313.5 C 45.6799,311.748 52.0133,310.748 58.5,310.5C 67.1624,309.5 75.8291,308.5 84.5,307.5C 84.7394,309.467 84.4061,311.301 83.5,313C 68.8749,315.265 54.2082,317.099 39.5,318.5C 39.5,316.833 39.5,315.167 39.5,313.5 Z"/></g>
<g><path style="opacity:1" fill="#dfdfdf" d="M 80.5,318.5 C 74.6611,318.898 68.9944,319.565 63.5,320.5C 56.2727,320.475 49.106,321.142 42,322.5C 37.6627,322.093 37.8294,321.259 42.5,320C 56.3656,318.397 70.1989,316.563 84,314.5C 86.5559,314.363 88.7225,315.196 90.5,317C 87.2072,317.826 83.8738,318.326 80.5,318.5 Z"/></g>
<g><path style="opacity:1" fill="#303030" d="M 82.5,305.5 C 83.7054,306.686 85.0387,306.686 86.5,305.5C 86.1924,307.924 86.5258,310.257 87.5,312.5C 89.7098,313.766 91.7098,315.266 93.5,317C 92.6443,318.595 91.3109,319.428 89.5,319.5C 86.2869,319.81 83.2869,319.477 80.5,318.5C 83.8738,318.326 87.2072,317.826 90.5,317C 88.7225,315.196 86.5559,314.363 84,314.5C 70.1989,316.563 56.3656,318.397 42.5,320C 37.8294,321.259 37.6627,322.093 42,322.5C 49.106,321.142 56.2727,320.475 63.5,320.5C 65.7354,320.205 67.7354,320.539 69.5,321.5C 57.4668,322.147 45.4668,323.147 33.5,324.5C 32.8333,325.167 32.1667,325.833 31.5,326.5C 30.2241,325.614 30.2241,324.614 31.5,323.5C 36.4195,321.991 38.4195,318.658 37.5,313.5C 38.1667,313.5 38.8333,313.5 39.5,313.5C 39.5,315.167 39.5,316.833 39.5,318.5C 54.2082,317.099 68.8749,315.265 83.5,313C 84.4061,311.301 84.7394,309.467 84.5,307.5C 75.8291,308.5 67.1624,309.5 58.5,310.5C 58.1583,309.662 57.4916,309.328 56.5,309.5C 64.982,307.811 73.6487,306.478 82.5,305.5 Z"/></g>
<g><path style="opacity:1" fill="#414141" d="M 80.5,318.5 C 83.2869,319.477 86.2869,319.81 89.5,319.5C 86.6128,321.718 85.7795,324.718 87,328.5C 89.3333,330.006 91.5,331.673 93.5,333.5C 91.4622,335.276 89.2955,336.943 87,338.5C 86.8331,359.508 86.3331,380.508 85.5,401.5C 78.7087,408.792 71.7087,415.959 64.5,423C 63.2411,423.982 61.9078,424.315 60.5,424C 53,416.5 45.5,409 38,401.5C 37.5001,383.17 37.3334,364.836 37.5,346.5C 28.4836,343.491 28.3169,340.158 37,336.5C 37.6667,334.5 37.6667,332.5 37,330.5C 34.9847,329.303 33.1513,327.97 31.5,326.5C 32.1667,325.833 32.8333,325.167 33.5,324.5C 34.4009,326.389 35.9009,327.722 38,328.5C 52.4152,325.855 66.9152,323.689 81.5,322C 82.5,321.667 83.5,321.333 84.5,321C 79.4724,320.412 74.4724,320.578 69.5,321.5C 67.7354,320.539 65.7354,320.205 63.5,320.5C 68.9944,319.565 74.6611,318.898 80.5,318.5 Z"/></g>
<g><path style="opacity:1" fill="#dcdcdc" d="M 33.5,324.5 C 45.4668,323.147 57.4668,322.147 69.5,321.5C 74.4724,320.578 79.4724,320.412 84.5,321C 83.5,321.333 82.5,321.667 81.5,322C 66.9152,323.689 52.4152,325.855 38,328.5C 35.9009,327.722 34.4009,326.389 33.5,324.5 Z"/></g>
<g><path style="opacity:1" fill="#eaeaea" d="M 81.5,323.5 C 82.5,323.5 83.5,323.5 84.5,323.5C 84.5,325.5 84.5,327.5 84.5,329.5C 69.7518,330.99 55.0851,332.99 40.5,335.5C 39.5344,333.604 39.2011,331.604 39.5,329.5C 53.6534,327.65 67.6534,325.65 81.5,323.5 Z"/></g>
<g><path style="opacity:1" fill="#d9d9d9" d="M 83.5,330.5 C 86.2257,330.264 88.559,331.097 90.5,333C 73.6329,335.867 56.6329,337.533 39.5,338C 54.1856,335.316 68.8522,332.816 83.5,330.5 Z"/></g>
<g><path style="opacity:1" fill="#dbdbdb" d="M 78.5,336.5 C 80.8568,336.337 83.1902,336.503 85.5,337C 84.8333,337.333 84.1667,337.667 83.5,338C 68.4079,339.621 53.4079,341.788 38.5,344.5C 36.8927,344.363 35.5594,343.696 34.5,342.5C 40.3759,340.847 46.3759,339.68 52.5,339C 61.3649,338.669 70.0316,337.836 78.5,336.5 Z"/></g>
<g><path style="opacity:1" fill="#fafafa" d="M 59.5,399.5 C 56.6011,389.129 52.9345,379.129 48.5,369.5C 45.9692,362.316 43.3025,355.316 40.5,348.5C 40.5,347.5 40.5,346.5 40.5,345.5C 55.1303,343.541 69.797,341.874 84.5,340.5C 84.5,360.167 84.5,379.833 84.5,399.5C 76.1667,399.5 67.8333,399.5 59.5,399.5 Z"/></g>
<g><path style="opacity:1" fill="#f2f2f2" d="M 40.5,355.5 C 41.2341,356.708 41.5674,358.041 41.5,359.5C 42.0569,364.165 43.3902,368.498 45.5,372.5C 46.404,373.209 46.7373,374.209 46.5,375.5C 50.3622,388.635 54.3622,401.635 58.5,414.5C 58.6567,415.873 58.49,417.207 58,418.5C 52,412.5 46,406.5 40,400.5C 39.1723,385.328 39.3389,370.328 40.5,355.5 Z"/></g>
<g><path style="opacity:1" fill="#969696" d="M 41.5,359.5 C 43.6098,363.502 44.9431,367.835 45.5,372.5C 43.3902,368.498 42.0569,364.165 41.5,359.5 Z"/></g>
<g><path style="opacity:1" fill="#1d1d1d" d="M 37.5,346.5 C 37.56,345.957 37.8933,345.624 38.5,345.5C 39.1757,346.602 39.8423,347.602 40.5,348.5C 43.3025,355.316 45.9692,362.316 48.5,369.5C 48.3573,371.262 48.6906,372.929 49.5,374.5C 48.675,375.386 47.675,375.719 46.5,375.5C 46.7373,374.209 46.404,373.209 45.5,372.5C 44.9431,367.835 43.6098,363.502 41.5,359.5C 41.5674,358.041 41.2341,356.708 40.5,355.5C 39.4748,352.425 38.4748,349.425 37.5,346.5 Z"/></g>
<g><path style="opacity:1" fill="#4b4b4b" d="M 48.5,369.5 C 52.9345,379.129 56.6011,389.129 59.5,399.5C 58.8333,399.5 58.5,399.833 58.5,400.5C 56.1101,395.369 53.9435,390.036 52,384.5C 51.8333,385.167 51.6667,385.833 51.5,386.5C 53.4746,393.176 55.6412,399.843 58,406.5C 58.4935,404.866 58.6602,403.199 58.5,401.5C 59.1667,401.5 59.8333,401.5 60.5,401.5C 60.9981,406.152 61.3314,410.819 61.5,415.5C 60.8423,414.602 60.1757,413.602 59.5,412.5C 58.7025,412.957 58.3691,413.624 58.5,414.5C 54.3622,401.635 50.3622,388.635 46.5,375.5C 47.675,375.719 48.675,375.386 49.5,374.5C 48.6906,372.929 48.3573,371.262 48.5,369.5 Z"/></g>
<g><path style="opacity:1" fill="#b3b3b3" d="M 58.5,400.5 C 58.5,400.833 58.5,401.167 58.5,401.5C 58.6602,403.199 58.4935,404.866 58,406.5C 55.6412,399.843 53.4746,393.176 51.5,386.5C 51.6667,385.833 51.8333,385.167 52,384.5C 53.9435,390.036 56.1101,395.369 58.5,400.5 Z"/></g>
<g><path style="opacity:1" fill="#eeeeee" d="M 60.5,401.5 C 67.8409,401.334 75.1742,401.5 82.5,402C 76,408.5 69.5,415 63,421.5C 62.187,419.564 61.687,417.564 61.5,415.5C 61.3314,410.819 60.9981,406.152 60.5,401.5 Z"/></g>
</svg>
