<?xml version="1.0" encoding="UTF-8"?>
<!DOCTYPE svg PUBLIC "-//W3C//DTD SVG 1.1//EN" "http://www.w3.org/Graphics/SVG/1.1/DTD/svg11.dtd">
<svg xmlns="http://www.w3.org/2000/svg" version="1.1" width="134px" height="423px" style="shape-rendering:geometricPrecision; text-rendering:geometricPrecision; image-rendering:optimizeQuality; fill-rule:evenodd; clip-rule:evenodd" xmlns:xlink="http://www.w3.org/1999/xlink">
<g><path style="opacity:1" fill="#fcfcfc" d="M -0.5,-0.5 C 44.1667,-0.5 88.8333,-0.5 133.5,-0.5C 133.5,140.5 133.5,281.5 133.5,422.5C 88.8333,422.5 44.1667,422.5 -0.5,422.5C -0.5,281.5 -0.5,140.5 -0.5,-0.5 Z"/></g>
<g><path style="opacity:1" fill="#373737" d="M 59.5,3.5 C 93.5125,3.23414 114.346,19.5675 122,52.5C 123.549,87.2489 107.382,108.416 73.5,116C 42.452,118.228 21.6186,104.728 11,75.5C 4.96264,47.095 14.1293,25.2617 38.5,10C 45.4062,7.0317 52.4062,4.86503 59.5,3.5 Z"/></g>
<g><path style="opacity:1" fill="#fbfbfb" d="M 55.5,5.5 C 84.1596,3.07384 104.66,14.7405 117,40.5C 125.247,68.0937 117.747,90.2603 94.5,107C 65.1293,121.395 40.296,115.895 20,90.5C 11.5164,76.1937 9.1831,60.8604 13,44.5C 20.3888,23.9381 34.5554,10.9381 55.5,5.5 Z"/></g>
<g><path style="opacity:1" fill="#1d1d1d" d="M 60.5,31.5 C 61.1667,33.5 61.8333,35.5 62.5,37.5C 64.5,38.8333 66.5,38.8333 68.5,37.5C 68.9397,35.1561 69.9397,33.1561 71.5,31.5C 71.5,33.5 71.5,35.5 71.5,37.5C 71.8795,40.5669 70.8795,41.5669 68.5,40.5C 66.7354,39.5386 64.7354,39.2053 62.5,39.5C 62.6495,40.552 62.4828,41.552 62,42.5C 60.2942,41.6921 59.4609,40.3588 59.5,38.5C 59.1984,35.9407 59.5318,33.6074 60.5,31.5 Z"/></g>
<g><path style="opacity:1" fill="#eaeaea" d="M 68.5,37.5 C 66.5,38.8333 64.5,38.8333 62.5,37.5C 62.5,35.8333 62.5,34.1667 62.5,32.5C 64.5,32.5 66.5,32.5 68.5,32.5C 68.5,34.1667 68.5,35.8333 68.5,37.5 Z"/></g>
<g><path style="opacity:1" fill="#5b5b5b" d="M 60.5,31.5 C 64.1667,30.1667 67.8333,30.1667 71.5,31.5C 69.9397,33.1561 68.9397,35.1561 68.5,37.5C 68.5,35.8333 68.5,34.1667 68.5,32.5C 66.5,32.5 64.5,32.5 62.5,32.5C 62.5,34.1667 62.5,35.8333 62.5,37.5C 61.8333,35.5 61.1667,33.5 60.5,31.5 Z"/></g>
<g><path style="opacity:1" fill="#f4f4f4" d="M 68.5,40.5 C 69.8611,50.5277 75.5277,56.1944 85.5,57.5C 85.5,59.1667 85.5,60.8333 85.5,62.5C 74.9872,64.0108 69.3206,70.0108 68.5,80.5C 66.5,80.5 64.5,80.5 62.5,80.5C 62.5,79.5 62.5,78.5 62.5,77.5C 60.4159,68.411 54.7492,63.7444 45.5,63.5C 45.5,61.1667 45.5,58.8333 45.5,56.5C 53.9726,56.6949 59.3059,52.6949 61.5,44.5C 63.1042,43.713 63.7709,42.3797 63.5,40.5C 65.1667,40.5 66.8333,40.5 68.5,40.5 Z"/></g>
<g><path style="opacity:1" fill="#4c4c4c" d="M 59.5,38.5 C 59.4609,40.3588 60.2942,41.6921 62,42.5C 62.4828,41.552 62.6495,40.552 62.5,39.5C 64.7354,39.2053 66.7354,39.5386 68.5,40.5C 66.8333,40.5 65.1667,40.5 63.5,40.5C 63.7709,42.3797 63.1042,43.713 61.5,44.5C 61.1667,44.5 60.8333,44.5 60.5,44.5C 60.631,43.7611 60.4643,43.0944 60,42.5C 57.5501,47.2837 54.0501,51.117 49.5,54C 49.7284,54.3988 50.0618,54.5654 50.5,54.5C 48.0185,55.2583 45.3519,55.2583 42.5,54.5C 50.7663,51.8997 56.4329,46.5663 59.5,38.5 Z"/></g>
<g><path style="opacity:1" fill="#aaaaaa" d="M 60.5,44.5 C 58.8333,49.5 55.5,52.8333 50.5,54.5C 50.0618,54.5654 49.7284,54.3988 49.5,54C 54.0501,51.117 57.5501,47.2837 60,42.5C 60.4643,43.0944 60.631,43.7611 60.5,44.5 Z"/></g>
<g><path style="opacity:1" fill="#313131" d="M 71.5,37.5 C 74.8298,48.8081 82.4965,54.4747 94.5,54.5C 94.5,58.1667 94.5,61.8333 94.5,65.5C 92.1432,65.3367 89.8098,65.5034 87.5,66C 85.6803,66.2004 84.347,67.0337 83.5,68.5C 79.2539,69.7451 76.2539,72.4118 74.5,76.5C 71.8393,80.3104 70.8393,84.6437 71.5,89.5C 67.5,89.5 63.5,89.5 59.5,89.5C 59.5,86.1667 59.5,82.8333 59.5,79.5C 60.2905,78.5987 61.2905,77.9321 62.5,77.5C 62.5,78.5 62.5,79.5 62.5,80.5C 64.5,80.5 66.5,80.5 68.5,80.5C 69.3206,70.0108 74.9872,64.0108 85.5,62.5C 85.5,60.8333 85.5,59.1667 85.5,57.5C 75.5277,56.1944 69.8611,50.5277 68.5,40.5C 70.8795,41.5669 71.8795,40.5669 71.5,37.5 Z"/></g>
<g><path style="opacity:1" fill="#adadad" d="M 70.5,42.5 C 72.9341,45.1708 75.2674,48.0042 77.5,51C 79.6641,51.9143 81.6641,53.081 83.5,54.5C 81.8125,55.568 80.1459,55.4014 78.5,54C 74.3768,51.0657 71.7102,47.2323 70.5,42.5 Z"/></g>
<g><path style="opacity:1" fill="#f3f3f3" d="M 93.5,57.5 C 93.5,59.5 93.5,61.5 93.5,63.5C 89.0917,63.938 87.4251,61.938 88.5,57.5C 90.1667,57.5 91.8333,57.5 93.5,57.5 Z"/></g>
<g><path style="opacity:1" fill="#2c2c2c" d="M 60.5,44.5 C 60.8333,44.5 61.1667,44.5 61.5,44.5C 59.3059,52.6949 53.9726,56.6949 45.5,56.5C 45.5,58.8333 45.5,61.1667 45.5,63.5C 47.129,65.1959 46.7957,66.1959 44.5,66.5C 41.8333,66.5 39.1667,66.5 36.5,66.5C 36.5,62.5 36.5,58.5 36.5,54.5C 38.5,54.5 40.5,54.5 42.5,54.5C 45.3519,55.2583 48.0185,55.2583 50.5,54.5C 55.5,52.8333 58.8333,49.5 60.5,44.5 Z"/></g>
<g><path style="opacity:1" fill="#b2b2b2" d="M 39.5,63.5 C 40.209,62.596 41.209,62.2627 42.5,62.5C 42.5,60.8333 42.5,59.1667 42.5,57.5C 41.1667,57.5 39.8333,57.5 38.5,57.5C 38.5,59.5 38.5,61.5 38.5,63.5C 37.5318,61.3926 37.1984,59.0593 37.5,56.5C 39.5,56.5 41.5,56.5 43.5,56.5C 43.5,58.8333 43.5,61.1667 43.5,63.5C 42.1667,63.5 40.8333,63.5 39.5,63.5 Z"/></g>
<g><path style="opacity:1" fill="#fbfbfb" d="M 39.5,63.5 C 39.1667,63.5 38.8333,63.5 38.5,63.5C 38.5,61.5 38.5,59.5 38.5,57.5C 39.8333,57.5 41.1667,57.5 42.5,57.5C 42.5,59.1667 42.5,60.8333 42.5,62.5C 41.209,62.2627 40.209,62.596 39.5,63.5 Z"/></g>
<g><path style="opacity:1" fill="#8c8c8c" d="M 93.5,57.5 C 91.8333,57.5 90.1667,57.5 88.5,57.5C 87.4251,61.938 89.0917,63.938 93.5,63.5C 91.7768,64.807 89.9435,64.807 88,63.5C 87.5034,61.1902 87.3367,58.8568 87.5,56.5C 89.7354,56.2053 91.7354,56.5386 93.5,57.5 Z"/></g>
<g><path style="opacity:1" fill="#7d7d7d" d="M 94.5,54.5 C 95.4834,58.2984 95.8168,62.2984 95.5,66.5C 91.3425,66.3316 87.3425,66.9983 83.5,68.5C 84.347,67.0337 85.6803,66.2004 87.5,66C 89.8098,65.5034 92.1432,65.3367 94.5,65.5C 94.5,61.8333 94.5,58.1667 94.5,54.5 Z"/></g>
<g><path style="opacity:1" fill="#afafaf" d="M 79.5,65.5 C 80.552,65.3505 81.552,65.5172 82.5,66C 78.3333,68.8333 74.8333,72.3333 72,76.5C 71.4795,74.7111 71.8129,73.0444 73,71.5C 75.0627,69.2659 77.2294,67.2659 79.5,65.5 Z"/></g>
<g><path style="opacity:1" fill="#454545" d="M 45.5,63.5 C 54.7492,63.7444 60.4159,68.411 62.5,77.5C 61.2905,77.9321 60.2905,78.5987 59.5,79.5C 56.0291,73.3598 51.0291,69.0264 44.5,66.5C 46.7957,66.1959 47.129,65.1959 45.5,63.5 Z"/></g>
<g><path style="opacity:1" fill="#b2b2b2" d="M 48.5,66.5 C 50.0894,65.3789 51.7561,65.5456 53.5,67C 55.3333,68.8333 57.1667,70.6667 59,72.5C 60.1871,74.0444 60.5205,75.7111 60,77.5C 57.5938,72.2588 53.7605,68.5921 48.5,66.5 Z"/></g>
<g><path style="opacity:1" fill="#707070" d="M 62.5,82.5 C 62.5,84.1667 62.5,85.8333 62.5,87.5C 64.5,87.5 66.5,87.5 68.5,87.5C 68.5,85.8333 68.5,84.1667 68.5,82.5C 69.4614,84.2646 69.7947,86.2646 69.5,88.5C 66.8333,88.5 64.1667,88.5 61.5,88.5C 61.2053,86.2646 61.5386,84.2646 62.5,82.5 Z"/></g>
<g><path style="opacity:1" fill="#f2f2f2" d="M 62.5,82.5 C 64.5,82.5 66.5,82.5 68.5,82.5C 68.5,84.1667 68.5,85.8333 68.5,87.5C 66.5,87.5 64.5,87.5 62.5,87.5C 62.5,85.8333 62.5,84.1667 62.5,82.5 Z"/></g>
<g><path style="opacity:1" fill="#b7b7b7" d="M 74.5,76.5 C 73.402,80.9115 72.402,85.2448 71.5,89.5C 70.8393,84.6437 71.8393,80.3104 74.5,76.5 Z"/></g>
<g><path style="opacity:1" fill="#3b3b3b" d="M 90.5,223.5 C 89.5,224.833 88.5,224.833 87.5,223.5C 88.4731,221.052 88.8064,218.385 88.5,215.5C 86.901,215.232 85.5676,215.566 84.5,216.5C 83.0413,216.433 81.7079,216.766 80.5,217.5C 78.1667,217.5 75.8333,217.5 73.5,217.5C 73.6107,216.883 73.944,216.383 74.5,216C 72.8333,215.667 71.1667,215.333 69.5,215C 75.1753,214.406 80.842,213.74 86.5,213C 89.1899,212.665 89.8565,211.499 88.5,209.5C 88.1706,206.772 88.8372,204.438 90.5,202.5C 91.0431,202.44 91.3764,202.107 91.5,201.5C 74.5131,200.501 57.5131,200.167 40.5,200.5C 39.8333,201.167 39.1667,201.833 38.5,202.5C 28.8859,201.551 19.2193,201.218 9.5,201.5C 9.05922,192.724 9.55922,184.058 11,175.5C 17.2529,171.289 23.7529,167.455 30.5,164C 37.781,161.849 45.1144,160.015 52.5,158.5C 57.2905,158.774 61.6238,160.107 65.5,162.5C 73.118,159.029 81.118,158.529 89.5,161C 98.6486,163.576 107.315,167.242 115.5,172C 118.333,173.5 120.5,175.667 122,178.5C 122.5,186.159 122.666,193.826 122.5,201.5C 112.828,201.334 103.161,201.5 93.5,202C 89.9651,204.838 89.6318,208.005 92.5,211.5C 90.6561,215.217 89.9894,219.217 90.5,223.5 Z"/></g>
<g><path style="opacity:1" fill="#fdfdfd" d="M 120.5,198.5 C 84.1667,198.5 47.8333,198.5 11.5,198.5C 11.5,192.167 11.5,185.833 11.5,179.5C 13.0208,175.885 15.6875,173.385 19.5,172C 31.2303,164.865 43.897,161.198 57.5,161C 58.8333,161.667 59.8333,162.667 60.5,164C 64.1516,164.499 67.8183,164.665 71.5,164.5C 71.3601,162.876 72.0267,161.71 73.5,161C 91.077,161.304 106.577,167.137 120,178.5C 120.5,185.158 120.666,191.825 120.5,198.5 Z"/></g>
<g><path style="opacity:1" fill="#a7a7a7" d="M 11.5,179.5 C 11.5,185.833 11.5,192.167 11.5,198.5C 47.8333,198.5 84.1667,198.5 120.5,198.5C 84.0038,199.498 47.3371,199.832 10.5,199.5C 10.176,192.646 10.5093,185.979 11.5,179.5 Z"/></g>
<g><path style="opacity:1" fill="#777777" d="M 40.5,201.5 C 40.5,201.167 40.5,200.833 40.5,200.5C 57.5131,200.167 74.5131,200.501 91.5,201.5C 91.3764,202.107 91.0431,202.44 90.5,202.5C 74.0084,201.503 57.3417,201.17 40.5,201.5 Z"/></g>
<g><path style="opacity:1" fill="#f9f9f9" d="M 40.5,201.5 C 57.3417,201.17 74.0084,201.503 90.5,202.5C 88.8372,204.438 88.1706,206.772 88.5,209.5C 73.9668,210.651 59.6334,212.318 45.5,214.5C 43.7499,211.645 42.9165,208.311 43,204.5C 41.955,203.627 41.1217,202.627 40.5,201.5 Z"/></g>
<g><path style="opacity:1" fill="#5b5b5b" d="M 88.5,209.5 C 89.8565,211.499 89.1899,212.665 86.5,213C 80.842,213.74 75.1753,214.406 69.5,215C 71.1667,215.333 72.8333,215.667 74.5,216C 73.944,216.383 73.6107,216.883 73.5,217.5C 72.609,218.11 71.609,218.443 70.5,218.5C 70.1583,217.662 69.4916,217.328 68.5,217.5C 64.633,216.274 60.633,216.274 56.5,217.5C 53.3586,216.679 50.0252,216.179 46.5,216C 50.2259,214.957 49.8926,214.457 45.5,214.5C 59.6334,212.318 73.9668,210.651 88.5,209.5 Z"/></g>
<g><path style="opacity:1" fill="#f7f7f7" d="M 84.5,216.5 C 85.5,216.5 86.5,216.5 87.5,216.5C 87.5,218.833 87.5,221.167 87.5,223.5C 73.6375,225.073 59.9708,227.073 46.5,229.5C 45.5,229.5 44.5,229.5 43.5,229.5C 43.5,227.167 43.5,224.833 43.5,222.5C 46.4552,221.841 49.4552,221.508 52.5,221.5C 62.0545,220.802 71.3878,219.468 80.5,217.5C 81.7079,216.766 83.0413,216.433 84.5,216.5 Z"/></g>
<g><path style="opacity:1" fill="#989898" d="M 84.5,216.5 C 85.5676,215.566 86.901,215.232 88.5,215.5C 88.8064,218.385 88.4731,221.052 87.5,223.5C 87.5,221.167 87.5,218.833 87.5,216.5C 86.5,216.5 85.5,216.5 84.5,216.5 Z"/></g>
<g><path style="opacity:1" fill="#a9a9a9" d="M 68.5,217.5 C 59.3922,218.087 50.3922,219.42 41.5,221.5C 38.9722,220.831 38.9722,219.998 41.5,219C 46.4636,218.088 51.4636,217.588 56.5,217.5C 60.633,216.274 64.633,216.274 68.5,217.5 Z"/></g>
<g><path style="opacity:1" fill="#b9b9b9" d="M 73.5,217.5 C 75.8333,217.5 78.1667,217.5 80.5,217.5C 71.3878,219.468 62.0545,220.802 52.5,221.5C 58.2801,219.957 64.2801,218.957 70.5,218.5C 71.609,218.443 72.609,218.11 73.5,217.5 Z"/></g>
<g><path style="opacity:1" fill="#565656" d="M 87.5,223.5 C 88.5,224.833 89.5,224.833 90.5,223.5C 92.0269,223.427 93.0269,224.094 93.5,225.5C 92.8333,225.5 92.5,225.833 92.5,226.5C 78.5429,227.042 64.5429,228.375 50.5,230.5C 49.4324,229.566 48.099,229.232 46.5,229.5C 59.9708,227.073 73.6375,225.073 87.5,223.5 Z"/></g>
<g><path style="opacity:1" fill="#3b3b3b" d="M 40.5,200.5 C 40.5,200.833 40.5,201.167 40.5,201.5C 41.1217,202.627 41.955,203.627 43,204.5C 42.9165,208.311 43.7499,211.645 45.5,214.5C 49.8926,214.457 50.2259,214.957 46.5,216C 50.0252,216.179 53.3586,216.679 56.5,217.5C 51.4636,217.588 46.4636,218.088 41.5,219C 38.9722,219.998 38.9722,220.831 41.5,221.5C 50.3922,219.42 59.3922,218.087 68.5,217.5C 69.4916,217.328 70.1583,217.662 70.5,218.5C 64.2801,218.957 58.2801,219.957 52.5,221.5C 49.4552,221.508 46.4552,221.841 43.5,222.5C 43.5,224.833 43.5,227.167 43.5,229.5C 44.5,229.5 45.5,229.5 46.5,229.5C 48.099,229.232 49.4324,229.566 50.5,230.5C 47.2065,230.259 44.2065,231.092 41.5,233C 58.8964,231.863 76.2297,230.03 93.5,227.5C 93.3764,226.893 93.0431,226.56 92.5,226.5C 92.5,225.833 92.8333,225.5 93.5,225.5C 95.3841,225.712 96.7174,226.712 97.5,228.5C 95.6641,229.919 93.6641,231.086 91.5,232C 89.3813,234.218 89.048,236.718 90.5,239.5C 93.1354,240.811 95.4687,242.478 97.5,244.5C 95.1667,246 92.8333,247.5 90.5,249C 89.4086,251.064 89.2419,253.231 90,255.5C 92.7581,256.795 95.2581,258.461 97.5,260.5C 95.4504,262.547 93.117,264.214 90.5,265.5C 90.5,264.833 90.1667,264.5 89.5,264.5C 89.5,263.833 89.1667,263.5 88.5,263.5C 87.4324,262.566 86.099,262.232 84.5,262.5C 86.9686,261.683 89.6353,261.183 92.5,261C 92.8333,260.667 93.1667,260.333 93.5,260C 92.3349,258.916 91.0016,258.083 89.5,257.5C 80.9723,259.711 72.3057,261.044 63.5,261.5C 62.0813,260.549 60.4147,260.216 58.5,260.5C 68.0156,259.032 77.6822,257.698 87.5,256.5C 88.4614,254.735 88.7947,252.735 88.5,250.5C 87.209,250.263 86.209,250.596 85.5,251.5C 74.1037,252.439 62.7704,253.773 51.5,255.5C 50.0813,254.549 48.4147,254.216 46.5,254.5C 60.5446,252.993 74.5446,250.826 88.5,248C 72.7875,248.337 57.1209,249.504 41.5,251.5C 41.2627,250.209 41.596,249.209 42.5,248.5C 43.2739,249.147 44.2739,249.48 45.5,249.5C 61.855,247.816 78.1883,245.983 94.5,244C 92.7912,242.455 90.7912,241.622 88.5,241.5C 74.5452,243.97 60.5452,245.97 46.5,247.5C 44.9504,246.28 43.2837,246.28 41.5,247.5C 41.5,245.167 41.5,242.833 41.5,240.5C 32.7443,238.258 32.4109,235.258 40.5,231.5C 41.8333,228.833 41.8333,226.167 40.5,223.5C 33.9211,220.682 34.0878,218.015 41,215.5C 42.2572,210.617 41.4239,206.284 38.5,202.5C 39.1667,201.833 39.8333,201.167 40.5,200.5 Z"/></g>
<g><path style="opacity:1" fill="#a5a5a5" d="M 82.5,233.5 C 79.7131,232.523 76.7131,232.19 73.5,232.5C 78.6773,231.456 84.0106,230.956 89.5,231C 87.4308,232.523 85.0974,233.357 82.5,233.5 Z"/></g>
<g><path style="opacity:1" fill="#dadada" d="M 92.5,226.5 C 93.0431,226.56 93.3764,226.893 93.5,227.5C 76.2297,230.03 58.8964,231.863 41.5,233C 44.2065,231.092 47.2065,230.259 50.5,230.5C 64.5429,228.375 78.5429,227.042 92.5,226.5 Z"/></g>
<g><path style="opacity:1" fill="#dddddd" d="M 73.5,232.5 C 76.7131,232.19 79.7131,232.523 82.5,233.5C 68.9932,235.056 55.4932,236.723 42,238.5C 36.5413,237.428 36.3747,236.262 41.5,235C 52.1454,233.835 62.8121,233.002 73.5,232.5 Z"/></g>
<g><path style="opacity:1" fill="#f2f2f2" d="M 87.5,239.5 C 73.0112,241.813 58.3445,243.813 43.5,245.5C 43.1412,243.234 43.8078,241.401 45.5,240C 55.8127,238.563 66.146,237.396 76.5,236.5C 80.2148,236.577 83.8815,236.244 87.5,235.5C 87.5,236.833 87.5,238.167 87.5,239.5 Z"/></g>
<g><path style="opacity:1" fill="#a8a8a8" d="M 87.5,239.5 C 87.5,238.167 87.5,236.833 87.5,235.5C 83.8815,236.244 80.2148,236.577 76.5,236.5C 80.2671,235.205 84.2671,234.539 88.5,234.5C 88.7845,236.415 88.4511,238.081 87.5,239.5 Z"/></g>
<g><path style="opacity:1" fill="#e0e0e0" d="M 42.5,248.5 C 43.7079,247.766 45.0413,247.433 46.5,247.5C 60.5452,245.97 74.5452,243.97 88.5,241.5C 90.7912,241.622 92.7912,242.455 94.5,244C 78.1883,245.983 61.855,247.816 45.5,249.5C 44.2739,249.48 43.2739,249.147 42.5,248.5 Z"/></g>
<g><path style="opacity:1" fill="#d6d6d6" d="M 46.5,254.5 C 42.9099,256.3 39.9099,255.633 37.5,252.5C 38.6888,251.571 40.0222,251.238 41.5,251.5C 57.1209,249.504 72.7875,248.337 88.5,248C 74.5446,250.826 60.5446,252.993 46.5,254.5 Z"/></g>
<g><path style="opacity:1" fill="#979797" d="M 85.5,251.5 C 86.209,250.596 87.209,250.263 88.5,250.5C 88.7947,252.735 88.4614,254.735 87.5,256.5C 87.9227,254.219 87.256,252.552 85.5,251.5 Z"/></g>
<g><path style="opacity:1" fill="#efefef" d="M 85.5,251.5 C 87.256,252.552 87.9227,254.219 87.5,256.5C 77.6822,257.698 68.0156,259.032 58.5,260.5C 53.7325,260.517 49.0658,261.184 44.5,262.5C 43.5344,260.604 43.2011,258.604 43.5,256.5C 46.1272,255.908 48.7938,255.575 51.5,255.5C 62.7704,253.773 74.1037,252.439 85.5,251.5 Z"/></g>
<g><path style="opacity:1" fill="#d9d9d9" d="M 84.5,262.5 C 70.074,263.213 55.7407,264.38 41.5,266C 42.3279,265.085 43.3279,264.419 44.5,264C 50.7981,262.838 57.1315,262.005 63.5,261.5C 72.3057,261.044 80.9723,259.711 89.5,257.5C 91.0016,258.083 92.3349,258.916 93.5,260C 93.1667,260.333 92.8333,260.667 92.5,261C 89.6353,261.183 86.9686,261.683 84.5,262.5 Z"/></g>
<g><path style="opacity:1" fill="#e1e1e1" d="M 88.5,263.5 C 89.1667,263.5 89.5,263.833 89.5,264.5C 72.943,267.426 56.2763,269.592 39.5,271C 37.1088,269.691 37.1088,268.691 39.5,268C 55.8205,266.289 72.1538,264.789 88.5,263.5 Z"/></g>
<g><path style="opacity:1" fill="#282828" d="M 46.5,247.5 C 45.0413,247.433 43.7079,247.766 42.5,248.5C 41.596,249.209 41.2627,250.209 41.5,251.5C 40.0222,251.238 38.6888,251.571 37.5,252.5C 39.9099,255.633 42.9099,256.3 46.5,254.5C 48.4147,254.216 50.0813,254.549 51.5,255.5C 48.7938,255.575 46.1272,255.908 43.5,256.5C 43.2011,258.604 43.5344,260.604 44.5,262.5C 49.0658,261.184 53.7325,260.517 58.5,260.5C 60.4147,260.216 62.0813,260.549 63.5,261.5C 57.1315,262.005 50.7981,262.838 44.5,264C 43.3279,264.419 42.3279,265.085 41.5,266C 55.7407,264.38 70.074,263.213 84.5,262.5C 86.099,262.232 87.4324,262.566 88.5,263.5C 72.1538,264.789 55.8205,266.289 39.5,268C 37.1088,268.691 37.1088,269.691 39.5,271C 56.2763,269.592 72.943,267.426 89.5,264.5C 90.1667,264.5 90.5,264.833 90.5,265.5C 89.2031,267.693 89.2031,270.027 90.5,272.5C 93.2029,273.513 95.5362,275.013 97.5,277C 95.1194,278.946 92.6194,280.779 90,282.5C 89.3333,284.5 89.3333,286.5 90,288.5C 92.7951,289.808 95.2951,291.474 97.5,293.5C 95.3805,295.4 93.0472,297.066 90.5,298.5C 89.5344,300.396 89.2011,302.396 89.5,304.5C 89.1667,304.5 88.8333,304.5 88.5,304.5C 88.5,302.833 88.5,301.167 88.5,299.5C 87.209,299.263 86.209,299.596 85.5,300.5C 76.2199,301.94 66.8865,302.94 57.5,303.5C 56.209,303.737 55.209,303.404 54.5,302.5C 65.5563,301.449 76.5563,299.949 87.5,298C 88.1667,297.667 88.8333,297.333 89.5,297C 80.4953,297.1 71.4953,297.6 62.5,298.5C 60.2646,298.795 58.2646,298.461 56.5,297.5C 69.3747,296.981 82.0414,295.481 94.5,293C 91.193,290.228 87.5264,289.728 83.5,291.5C 82.209,291.737 81.209,291.404 80.5,290.5C 82.861,290.326 85.1944,289.993 87.5,289.5C 88.4614,287.735 88.7947,285.735 88.5,283.5C 86.5853,283.216 84.9187,283.549 83.5,284.5C 70.1205,285.837 56.7872,287.504 43.5,289.5C 42.8333,289.833 42.1667,290.167 41.5,290.5C 32.6057,287.364 32.439,284.031 41,280.5C 41.8141,278.098 41.6474,275.765 40.5,273.5C 32.4109,269.742 32.7443,266.742 41.5,264.5C 41.6633,262.143 41.4966,259.81 41,257.5C 32.3169,253.842 32.4836,250.509 41.5,247.5C 43.2837,246.28 44.9504,246.28 46.5,247.5 Z"/></g>
<g><path style="opacity:1" fill="#f0f0f0" d="M 81.5,267.5 C 83.8333,267.5 86.1667,267.5 88.5,267.5C 88.5,269.167 88.5,270.833 88.5,272.5C 73.5237,274.646 58.5237,276.646 43.5,278.5C 43.5,276.5 43.5,274.5 43.5,272.5C 56.373,271.35 69.0396,269.684 81.5,267.5 Z"/></g>
<g><path style="opacity:1" fill="#e2e2e2" d="M 85.5,274.5 C 88.8934,274.062 91.8934,274.895 94.5,277C 76.8527,279.165 59.1861,280.831 41.5,282C 43.087,281.138 44.7536,280.471 46.5,280C 59.6765,278.421 72.6765,276.588 85.5,274.5 Z"/></g>
<g><path style="opacity:1" fill="#eaeaea" d="M 76.5,280.5 C 80.5138,280.334 84.5138,280.501 88.5,281C 87.5,281.333 86.5,281.667 85.5,282C 70.8794,283.513 56.3794,285.679 42,288.5C 36.1313,285.957 36.6313,284.457 43.5,284C 54.6735,283.055 65.6735,281.888 76.5,280.5 Z"/></g>
<g><path style="opacity:1" fill="#f1f1f1" d="M 83.5,284.5 C 84.8333,284.5 86.1667,284.5 87.5,284.5C 87.5,286.167 87.5,287.833 87.5,289.5C 85.1944,289.993 82.861,290.326 80.5,290.5C 68.3958,291.51 56.3958,293.177 44.5,295.5C 43.5344,293.604 43.2011,291.604 43.5,289.5C 56.7872,287.504 70.1205,285.837 83.5,284.5 Z"/></g>
<g><path style="opacity:1" fill="#9c9c9c" d="M 83.5,284.5 C 84.9187,283.549 86.5853,283.216 88.5,283.5C 88.7947,285.735 88.4614,287.735 87.5,289.5C 87.5,287.833 87.5,286.167 87.5,284.5C 86.1667,284.5 84.8333,284.5 83.5,284.5 Z"/></g>
<g><path style="opacity:1" fill="#dedede" d="M 56.5,297.5 C 52.1684,298.097 47.8351,298.263 43.5,298C 43.8333,297.667 44.1667,297.333 44.5,297C 57.6227,295.027 70.6227,293.193 83.5,291.5C 87.5264,289.728 91.193,290.228 94.5,293C 82.0414,295.481 69.3747,296.981 56.5,297.5 Z"/></g>
<g><path style="opacity:1" fill="#e0e0e0" d="M 54.5,302.5 C 50.4559,302.844 46.4559,303.51 42.5,304.5C 40.2088,304.378 38.2088,303.545 36.5,302C 45.2111,300.327 53.8778,299.16 62.5,298.5C 71.4953,297.6 80.4953,297.1 89.5,297C 88.8333,297.333 88.1667,297.667 87.5,298C 76.5563,299.949 65.5563,301.449 54.5,302.5 Z"/></g>
<g><path style="opacity:1" fill="#f1f1f1" d="M 85.5,300.5 C 87.256,301.552 87.9227,303.219 87.5,305.5C 72.8985,307.716 58.2318,309.716 43.5,311.5C 43.2148,309.712 43.5481,308.045 44.5,306.5C 48.876,305.139 53.2093,304.139 57.5,303.5C 66.8865,302.94 76.2199,301.94 85.5,300.5 Z"/></g>
<g><path style="opacity:1" fill="#909090" d="M 85.5,300.5 C 86.209,299.596 87.209,299.263 88.5,299.5C 88.5,301.167 88.5,302.833 88.5,304.5C 88.5,305.167 88.1667,305.5 87.5,305.5C 87.9227,303.219 87.256,301.552 85.5,300.5 Z"/></g>
<g><path style="opacity:1" fill="#303030" d="M 43.5,289.5 C 43.2011,291.604 43.5344,293.604 44.5,295.5C 56.3958,293.177 68.3958,291.51 80.5,290.5C 81.209,291.404 82.209,291.737 83.5,291.5C 70.6227,293.193 57.6227,295.027 44.5,297C 44.1667,297.333 43.8333,297.667 43.5,298C 47.8351,298.263 52.1684,298.097 56.5,297.5C 58.2646,298.461 60.2646,298.795 62.5,298.5C 53.8778,299.16 45.2111,300.327 36.5,302C 38.2088,303.545 40.2088,304.378 42.5,304.5C 46.4559,303.51 50.4559,302.844 54.5,302.5C 55.209,303.404 56.209,303.737 57.5,303.5C 53.2093,304.139 48.876,305.139 44.5,306.5C 43.5481,308.045 43.2148,309.712 43.5,311.5C 58.2318,309.716 72.8985,307.716 87.5,305.5C 88.1667,305.5 88.5,305.167 88.5,304.5C 88.8333,304.5 89.1667,304.5 89.5,304.5C 92.3416,306.087 95.0083,307.92 97.5,310C 95.1194,311.946 92.6194,313.779 90,315.5C 89.1923,317.579 89.359,319.579 90.5,321.5C 93.1354,322.811 95.4687,324.478 97.5,326.5C 94.914,328.043 92.414,329.709 90,331.5C 89.6667,352.5 89.3333,373.5 89,394.5C 81.319,402.348 73.4857,410.015 65.5,417.5C 57.5143,410.015 49.681,402.348 42,394.5C 41.6667,376.167 41.3333,357.833 41,339.5C 32.3333,336.167 32.3333,332.833 41,329.5C 41.8141,327.098 41.6474,324.765 40.5,322.5C 32.5398,319.598 32.5398,316.598 40.5,313.5C 41.8333,311.167 41.8333,308.833 40.5,306.5C 32.5872,303.015 32.7539,299.682 41,296.5C 41.4955,294.527 41.6621,292.527 41.5,290.5C 42.1667,290.167 42.8333,289.833 43.5,289.5 Z"/></g>
<g><path style="opacity:1" fill="#dadada" d="M 83.5,312.5 C 91.0266,312.057 91.6933,312.89 85.5,315C 70.8571,316.514 56.3571,318.681 42,321.5C 40.3745,320.711 38.8745,319.711 37.5,318.5C 52.893,316.195 68.2264,314.195 83.5,312.5 Z"/></g>
<g><path style="opacity:1" fill="#dddddd" d="M 84.5,307.5 C 88.2194,307.002 91.5527,307.836 94.5,310C 76.8463,312.15 59.1796,313.817 41.5,315C 44.6478,313.395 47.9811,312.395 51.5,312C 62.7413,311.221 73.7413,309.721 84.5,307.5 Z"/></g>
<g><path style="opacity:1" fill="#eaeaea" d="M 84.5,316.5 C 85.8333,316.5 87.1667,316.5 88.5,316.5C 88.7394,318.467 88.4061,320.301 87.5,322C 73.1185,323.935 58.7851,326.102 44.5,328.5C 43.0623,326.002 43.3956,323.836 45.5,322C 58.6709,320.337 71.6709,318.504 84.5,316.5 Z"/></g>
<g><path style="opacity:1" fill="#d3d3d3" d="M 86.5,323.5 C 89.3456,323.03 91.6789,323.863 93.5,326C 76.6204,328.951 59.6204,330.617 42.5,331C 57.1636,328.169 71.8303,325.669 86.5,323.5 Z"/></g>
<g><path style="opacity:1" fill="#d7d7d7" d="M 80.5,329.5 C 83.1873,329.336 85.854,329.503 88.5,330C 88.1667,330.333 87.8333,330.667 87.5,331C 72.4973,333.167 57.4973,335.333 42.5,337.5C 40.3367,337.255 38.67,336.255 37.5,334.5C 51.9485,332.593 66.2818,330.927 80.5,329.5 Z"/></g>
<g><path style="opacity:1" fill="#fcfcfc" d="M 85.5,333.5 C 87.4878,352.805 88.1545,372.472 87.5,392.5C 79.5,392.5 71.5,392.5 63.5,392.5C 60.5544,383.327 57.2211,374.327 53.5,365.5C 50.0352,356.684 47.0352,347.684 44.5,338.5C 58.0986,336.322 71.7653,334.656 85.5,333.5 Z"/></g>
<g><path style="opacity:1" fill="#9f9f9f" d="M 85.5,333.5 C 86.209,332.596 87.209,332.263 88.5,332.5C 88.5,352.5 88.5,372.5 88.5,392.5C 88.1667,392.5 87.8333,392.5 87.5,392.5C 88.1545,372.472 87.4878,352.805 85.5,333.5 Z"/></g>
<g><path style="opacity:1" fill="#939393" d="M 44.5,349.5 C 46.6098,353.502 47.9431,357.835 48.5,362.5C 46.3902,358.498 45.0569,354.165 44.5,349.5 Z"/></g>
<g><path style="opacity:1" fill="#f3f3f3" d="M 44.5,349.5 C 45.0569,354.165 46.3902,358.498 48.5,362.5C 48.4095,365.152 49.0762,367.485 50.5,369.5C 51.404,370.209 51.7373,371.209 51.5,372.5C 54.5674,384.13 58.234,395.463 62.5,406.5C 62.6602,408.199 62.4935,409.866 62,411.5C 56,405.5 50,399.5 44,393.5C 43.1797,377.454 43.3463,362.787 44.5,349.5 Z"/></g>
<g><path style="opacity:1" fill="#929292" d="M 48.5,362.5 C 49.9238,364.515 50.5905,366.848 50.5,369.5C 49.0762,367.485 48.4095,365.152 48.5,362.5 Z"/></g>
<g><path style="opacity:1" fill="#efefef" d="M 85.5,395.5 C 79.8333,401.833 73.8333,407.833 67.5,413.5C 66.8333,410.833 66.1667,408.167 65.5,405.5C 64.7564,401.881 64.423,398.215 64.5,394.5C 71.6866,394.175 78.6866,394.509 85.5,395.5 Z"/></g>
<g><path style="opacity:1" fill="#4a4a4a" d="M 53.5,365.5 C 57.2211,374.327 60.5544,383.327 63.5,392.5C 71.5,392.5 79.5,392.5 87.5,392.5C 87.8333,392.5 88.1667,392.5 88.5,392.5C 87.5,393.5 86.5,394.5 85.5,395.5C 78.6866,394.509 71.6866,394.175 64.5,394.5C 64.423,398.215 64.7564,401.881 65.5,405.5C 65.5,406.5 65.5,407.5 65.5,408.5C 64.8423,407.602 64.1757,406.602 63.5,405.5C 62.8933,405.624 62.56,405.957 62.5,406.5C 58.234,395.463 54.5674,384.13 51.5,372.5C 52.6118,370.401 53.2785,368.067 53.5,365.5 Z"/></g>
<g><path style="opacity:1" fill="#b6b6b6" d="M 54.5,375.5 C 57.5072,380.856 60.0072,386.523 62,392.5C 62.6667,395.167 62.6667,397.833 62,400.5C 59.3858,392.161 56.8858,383.828 54.5,375.5 Z"/></g>
<g><path style="opacity:1" fill="#898989" d="M 65.5,405.5 C 66.1667,408.167 66.8333,410.833 67.5,413.5C 67.44,414.043 67.1067,414.376 66.5,414.5C 65.5344,412.604 65.2011,410.604 65.5,408.5C 65.5,407.5 65.5,406.5 65.5,405.5 Z"/></g>
</svg>
