<?xml version="1.0" encoding="UTF-8"?>
<!DOCTYPE svg PUBLIC "-//W3C//DTD SVG 1.1//EN" "http://www.w3.org/Graphics/SVG/1.1/DTD/svg11.dtd">
<svg xmlns="http://www.w3.org/2000/svg" version="1.1" width="134px" height="437px" style="shape-rendering:geometricPrecision; text-rendering:geometricPrecision; image-rendering:optimizeQuality; fill-rule:evenodd; clip-rule:evenodd" xmlns:xlink="http://www.w3.org/1999/xlink">
<g><path style="opacity:1" fill="#fcfcfc" d="M -0.5,-0.5 C 44.1667,-0.5 88.8333,-0.5 133.5,-0.5C 133.5,145.167 133.5,290.833 133.5,436.5C 88.8333,436.5 44.1667,436.5 -0.5,436.5C -0.5,290.833 -0.5,145.167 -0.5,-0.5 Z"/></g>
<g><path style="opacity:1" fill="#bcbcbc" d="M 79.5,6.5 C 71.8333,5.16667 64.1667,5.16667 56.5,6.5C 60.034,4.95241 63.8673,4.28574 68,4.5C 72.1327,4.28574 75.966,4.95241 79.5,6.5 Z"/></g>
<g><path style="opacity:1" fill="#373737" d="M 79.5,6.5 C 111.15,14.9913 126.65,35.658 126,68.5C 122.055,96.1112 106.555,113.278 79.5,120C 44.6229,123.417 21.9563,108.583 11.5,75.5C 10.43,68.1499 10.43,60.8165 11.5,53.5C 16.6122,28.3874 31.6122,12.7208 56.5,6.5C 64.1667,5.16667 71.8333,5.16667 79.5,6.5 Z"/></g>
<g><path style="opacity:1" fill="#f9f9f9" d="M 57.5,7.5 C 92.4595,4.70503 114.626,20.0384 124,53.5C 126.433,84.4828 113.266,105.649 84.5,117C 49.2978,123.787 25.7978,110.287 14,76.5C 9.28053,41.2543 23.7805,18.2543 57.5,7.5 Z"/></g>
<g><path style="opacity:1" fill="#717171" d="M 73.5,28.5 C 68.7697,28.2834 64.1031,28.6167 59.5,29.5C 59.6107,28.8826 59.944,28.3826 60.5,28C 65.0204,27.1864 69.3537,27.353 73.5,28.5 Z"/></g>
<g><path style="opacity:1" fill="#afafaf" d="M 59.5,29.5 C 59.8297,35.8682 59.4963,42.2015 58.5,48.5C 57.8933,48.3764 57.56,48.0431 57.5,47.5C 58.1667,41.5 58.8333,35.5 59.5,29.5 Z"/></g>
<g><path style="opacity:1" fill="#f5f5f5" d="M 73.5,29.5 C 75.3598,34.193 76.0265,39.193 75.5,44.5C 70.8333,44.5 66.1667,44.5 61.5,44.5C 61.3342,39.8215 61.5008,35.1548 62,30.5C 65.73,29.5399 69.5633,29.2065 73.5,29.5 Z"/></g>
<g><path style="opacity:1" fill="#505050" d="M 74.5,28.5 C 75.4959,28.4142 76.3292,28.7476 77,29.5C 77.4994,35.1569 77.6661,40.8236 77.5,46.5C 76.0387,45.3143 74.7054,45.3143 73.5,46.5C 70.1667,46.5 66.8333,46.5 63.5,46.5C 62.8333,45.8333 62.1667,45.1667 61.5,44.5C 66.1667,44.5 70.8333,44.5 75.5,44.5C 76.0265,39.193 75.3598,34.193 73.5,29.5C 74.1667,29.5 74.5,29.1667 74.5,28.5 Z"/></g>
<g><path style="opacity:1" fill="#404040" d="M 73.5,28.5 C 73.8333,28.5 74.1667,28.5 74.5,28.5C 74.5,29.1667 74.1667,29.5 73.5,29.5C 69.5633,29.2065 65.73,29.5399 62,30.5C 61.5008,35.1548 61.3342,39.8215 61.5,44.5C 62.1667,45.1667 62.8333,45.8333 63.5,46.5C 62.5041,46.4142 61.6708,46.7476 61,47.5C 59.964,52.5361 56.964,55.5361 52,56.5C 51.2278,60.8897 51.3945,65.223 52.5,69.5C 54.6239,70.458 56.6239,71.6246 58.5,73C 60.0037,74.4907 60.8371,76.324 61,78.5C 61.6708,79.2524 62.5041,79.5858 63.5,79.5C 66.8333,80.1667 70.1667,80.8333 73.5,81.5C 69.5,81.5 65.5,81.5 61.5,81.5C 61.5,86.5 61.5,91.5 61.5,96.5C 66.263,96.7744 70.9296,96.441 75.5,95.5C 76.3382,95.8417 76.6716,96.5084 76.5,97.5C 73.5175,97.8984 70.5175,98.2317 67.5,98.5C 64.5143,98.6183 61.8476,97.9517 59.5,96.5C 59.8297,90.1318 59.4963,83.7985 58.5,77.5C 57.8933,77.6236 57.56,77.9569 57.5,78.5C 53.0979,81.1229 48.9312,84.1229 45,87.5C 44.3333,86.5 44.3333,85.5 45,84.5C 48.0246,80.9761 50.8579,77.3094 53.5,73.5C 47.1928,72.6694 40.8594,72.1694 34.5,72C 31.8333,66 31.8333,60 34.5,54C 40.8594,53.8306 47.1928,53.3306 53.5,52.5C 50.8579,48.6906 48.0246,45.0239 45,41.5C 44.3123,40.6683 44.479,40.0016 45.5,39.5C 49.2636,42.6107 53.2636,45.2774 57.5,47.5C 57.56,48.0431 57.8933,48.3764 58.5,48.5C 59.4963,42.2015 59.8297,35.8682 59.5,29.5C 64.1031,28.6167 68.7697,28.2834 73.5,28.5 Z"/></g>
<g><path style="opacity:1" fill="#f8f8f8" d="M 63.5,46.5 C 66.8333,46.5 70.1667,46.5 73.5,46.5C 75.4415,49.9803 78.1082,52.9803 81.5,55.5C 82.4687,56.3094 83.3021,57.3094 84,58.5C 84.4983,61.8168 84.665,65.1501 84.5,68.5C 81.3148,70.0038 78.6481,72.3371 76.5,75.5C 75.7515,76.531 75.0848,77.6976 74.5,79C 70.8484,79.4986 67.1817,79.6653 63.5,79.5C 62.5041,79.5858 61.6708,79.2524 61,78.5C 60.8371,76.324 60.0037,74.4907 58.5,73C 56.6239,71.6246 54.6239,70.458 52.5,69.5C 51.3945,65.223 51.2278,60.8897 52,56.5C 56.964,55.5361 59.964,52.5361 61,47.5C 61.6708,46.7476 62.5041,46.4142 63.5,46.5 Z"/></g>
<g><path style="opacity:1" fill="#a4a4a4" d="M 52.5,48.5 C 54.6636,47.8817 56.3303,48.8817 57.5,51.5C 56.9984,52.521 56.3317,52.6877 55.5,52C 54.8366,50.4815 53.8366,49.3149 52.5,48.5 Z"/></g>
<g><path style="opacity:1" fill="#8d8d8d" d="M 35.5,56.5 C 40.3054,55.5128 45.3054,55.1795 50.5,55.5C 50.7373,56.791 50.404,57.791 49.5,58.5C 45.2853,56.5636 40.6186,55.8969 35.5,56.5 Z"/></g>
<g><path style="opacity:1" fill="#f6f6f6" d="M 35.5,56.5 C 40.6186,55.8969 45.2853,56.5636 49.5,58.5C 49.5,61.1667 49.5,63.8333 49.5,66.5C 49.5,67.5 49.5,68.5 49.5,69.5C 44.8333,69.5 40.1667,69.5 35.5,69.5C 34.2463,65.1516 34.2463,60.8183 35.5,56.5 Z"/></g>
<g><path style="opacity:1" fill="#c4c4c4" d="M 11.5,53.5 C 10.43,60.8165 10.43,68.1499 11.5,75.5C 9.57097,69.0845 9.07097,62.4178 10,55.5C 10.2784,54.5842 10.7784,53.9175 11.5,53.5 Z"/></g>
<g><path style="opacity:1" fill="#b3b3b3" d="M 81.5,55.5 C 83.1238,55.3601 84.2904,56.0267 85,57.5C 85.8099,61.3575 85.6433,65.0242 84.5,68.5C 84.665,65.1501 84.4983,61.8168 84,58.5C 83.3021,57.3094 82.4687,56.3094 81.5,55.5 Z"/></g>
<g><path style="opacity:1" fill="#a9a9a9" d="M 49.5,66.5 C 50.4345,67.5676 50.7678,68.901 50.5,70.5C 45.3054,70.8205 40.3054,70.4872 35.5,69.5C 40.1667,69.5 44.8333,69.5 49.5,69.5C 49.5,68.5 49.5,67.5 49.5,66.5 Z"/></g>
<g><path style="opacity:1" fill="#b6b6b6" d="M 55.5,74.5 C 56.3764,74.3691 57.0431,74.7025 57.5,75.5C 56.084,77.1392 54.4174,77.9725 52.5,78C 53.7101,76.9609 54.7101,75.7942 55.5,74.5 Z"/></g>
<g><path style="opacity:1" fill="#acacac" d="M 57.5,78.5 C 57.56,77.9569 57.8933,77.6236 58.5,77.5C 59.4963,83.7985 59.8297,90.1318 59.5,96.5C 58.8333,90.5 58.1667,84.5 57.5,78.5 Z"/></g>
<g><path style="opacity:1" fill="#353535" d="M 77.5,78.5 C 76.596,77.791 76.2627,76.791 76.5,75.5C 78.6481,72.3371 81.3148,70.0038 84.5,68.5C 85.6433,65.0242 85.8099,61.3575 85,57.5C 84.2904,56.0267 83.1238,55.3601 81.5,55.5C 78.1082,52.9803 75.4415,49.9803 73.5,46.5C 74.7054,45.3143 76.0387,45.3143 77.5,46.5C 77.3691,47.3764 77.7025,48.0431 78.5,48.5C 82.3094,45.8579 85.9761,43.0246 89.5,40C 90.5,39.3333 91.5,39.3333 92.5,40C 89.0447,44.4109 85.7114,48.9109 82.5,53.5C 89.5846,53.8844 96.4179,54.8844 103,56.5C 103.781,61.5544 103.614,66.5544 102.5,71.5C 96.2015,72.4963 89.8682,72.8297 83.5,72.5C 83.3505,73.552 83.5172,74.552 84,75.5C 87.0246,79.0239 89.8579,82.6906 92.5,86.5C 91.9984,87.521 91.3317,87.6877 90.5,87C 86.8333,84 83.1667,81 79.5,78C 78.5632,77.3083 77.8966,77.475 77.5,78.5 Z"/></g>
<g><path style="opacity:1" fill="#999999" d="M 79.5,74.5 C 82.3228,75.1476 83.8228,76.8142 84,79.5C 81.5852,78.5887 80.0852,76.922 79.5,74.5 Z"/></g>
<g><path style="opacity:1" fill="#aeaeae" d="M 87.5,65.5 C 87.5,66.8333 87.5,68.1667 87.5,69.5C 92.1667,69.5 96.8333,69.5 101.5,69.5C 96.6946,70.4872 91.6946,70.8205 86.5,70.5C 86.2155,68.5853 86.5489,66.9187 87.5,65.5 Z"/></g>
<g><path style="opacity:1" fill="#fbfbfb" d="M 100.5,56.5 C 101.485,60.6344 101.818,64.9677 101.5,69.5C 96.8333,69.5 92.1667,69.5 87.5,69.5C 87.5,68.1667 87.5,66.8333 87.5,65.5C 87.5,63.8333 87.5,62.1667 87.5,60.5C 87.5,59.1667 87.5,57.8333 87.5,56.5C 91.8333,56.5 96.1667,56.5 100.5,56.5 Z"/></g>
<g><path style="opacity:1" fill="#949494" d="M 100.5,56.5 C 96.1667,56.5 91.8333,56.5 87.5,56.5C 87.5,57.8333 87.5,59.1667 87.5,60.5C 86.5489,59.0813 86.2155,57.4147 86.5,55.5C 91.3633,55.1805 96.03,55.5139 100.5,56.5 Z"/></g>
<g><path style="opacity:1" fill="#afafaf" d="M 82.5,47.5 C 83.2389,47.369 83.9056,47.5357 84.5,48C 82.981,49.3513 81.6477,50.8513 80.5,52.5C 80.1667,52.1667 79.8333,51.8333 79.5,51.5C 80.5244,50.1482 81.5244,48.8149 82.5,47.5 Z"/></g>
<g><path style="opacity:1" fill="#595959" d="M 76.5,75.5 C 76.2627,76.791 76.596,77.791 77.5,78.5C 77.8235,85.0221 77.4902,91.3554 76.5,97.5C 76.6716,96.5084 76.3382,95.8417 75.5,95.5C 76.1031,90.3814 75.4364,85.7147 73.5,81.5C 70.1667,80.8333 66.8333,80.1667 63.5,79.5C 67.1817,79.6653 70.8484,79.4986 74.5,79C 75.0848,77.6976 75.7515,76.531 76.5,75.5 Z"/></g>
<g><path style="opacity:1" fill="#f6f6f6" d="M 73.5,81.5 C 75.4364,85.7147 76.1031,90.3814 75.5,95.5C 70.9296,96.441 66.263,96.7744 61.5,96.5C 61.5,91.5 61.5,86.5 61.5,81.5C 65.5,81.5 69.5,81.5 73.5,81.5 Z"/></g>
<g><path style="opacity:1" fill="#0e0e0e" d="M 125.5,142.5 C 125.737,143.791 125.404,144.791 124.5,145.5C 106.179,144.167 87.5122,143.5 68.5,143.5C 49.8333,143.833 31.1667,144.167 12.5,144.5C 49.494,145.5 86.494,145.833 123.5,145.5C 123.5,146.167 123.167,146.5 122.5,146.5C 85.9962,146.168 49.6628,146.502 13.5,147.5C 13.5,147.833 13.5,148.167 13.5,148.5C 11.087,147.32 10.087,145.32 10.5,142.5C 48.8333,142.5 87.1667,142.5 125.5,142.5 Z"/></g>
<g><path style="opacity:1" fill="#9a9a9a" d="M 124.5,145.5 C 124.167,145.5 123.833,145.5 123.5,145.5C 86.494,145.833 49.494,145.5 12.5,144.5C 31.1667,144.167 49.8333,143.833 68.5,143.5C 87.5122,143.5 106.179,144.167 124.5,145.5 Z"/></g>
<g><path style="opacity:1" fill="#bababa" d="M 13.5,147.5 C 49.6628,146.502 85.9962,146.168 122.5,146.5C 121.581,149.089 119.914,151.089 117.5,152.5C 117.36,150.876 118.027,149.71 119.5,149C 119.167,148.667 118.833,148.333 118.5,148C 83.9975,147.169 49.6642,147.336 15.5,148.5C 14.8333,148.167 14.1667,147.833 13.5,147.5 Z"/></g>
<g><path style="opacity:1" fill="#fbfbfb" d="M 117.5,152.5 C 107.033,162.134 97.0328,172.301 87.5,183C 75.1712,183.5 62.8378,183.667 50.5,183.5C 38.5,172.167 26.8333,160.5 15.5,148.5C 49.6642,147.336 83.9975,147.169 118.5,148C 118.833,148.333 119.167,148.667 119.5,149C 118.027,149.71 117.36,150.876 117.5,152.5 Z"/></g>
<g><path style="opacity:1" fill="#252525" d="M 13.5,147.5 C 14.1667,147.833 14.8333,148.167 15.5,148.5C 26.8333,160.5 38.5,172.167 50.5,183.5C 50.8333,184.167 51.1667,184.833 51.5,185.5C 50.5184,188.962 50.185,192.629 50.5,196.5C 52.4147,196.784 54.0813,196.451 55.5,195.5C 62.7746,194.414 70.108,193.748 77.5,193.5C 79.8568,193.337 82.1902,193.503 84.5,194C 83.944,194.383 83.6107,194.883 83.5,195.5C 81.5,196.167 79.5,196.833 77.5,197.5C 74.969,195.419 72.3023,195.419 69.5,197.5C 61.0052,198.415 52.6719,200.082 44.5,202.5C 45.8745,203.711 47.3745,204.711 49,205.5C 49.7648,205.43 50.2648,205.097 50.5,204.5C 52.6977,204.409 53.0311,205.075 51.5,206.5C 50.5166,210.298 50.1832,214.298 50.5,218.5C 51.3387,220.384 52.672,221.717 54.5,222.5C 51.8333,222.833 49.1667,223.167 46.5,223.5C 45.8333,223.5 45.5,223.167 45.5,222.5C 46.2613,221.609 47.2613,220.942 48.5,220.5C 49.8333,216.167 49.8333,211.833 48.5,207.5C 40.4416,203.569 40.7749,200.236 49.5,197.5C 49.6657,193.154 49.499,188.821 49,184.5C 36.9163,172.584 25.0829,160.584 13.5,148.5C 13.5,148.167 13.5,147.833 13.5,147.5 Z"/></g>
<g><path style="opacity:1" fill="#dadada" d="M 98.5,174.5 C 98.1412,176.371 97.1412,177.871 95.5,179C 96.4506,179.718 96.6172,180.551 96,181.5C 94.9916,181.982 93.825,182.148 92.5,182C 91.8448,183.487 90.8448,184.653 89.5,185.5C 88.5025,193.138 88.1692,200.804 88.5,208.5C 87.3439,200.677 87.1772,192.677 88,184.5C 91.3691,180.963 94.8691,177.629 98.5,174.5 Z"/></g>
<g><path style="opacity:1" fill="#f3f3f3" d="M 51.5,185.5 C 62.8333,185.5 74.1667,185.5 85.5,185.5C 85.5,187.833 85.5,190.167 85.5,192.5C 82.6146,192.194 79.9479,192.527 77.5,193.5C 70.108,193.748 62.7746,194.414 55.5,195.5C 54.1667,195.5 52.8333,195.5 51.5,195.5C 51.5,192.167 51.5,188.833 51.5,185.5 Z"/></g>
<g><path style="opacity:1" fill="#828282" d="M 51.5,185.5 C 51.5,188.833 51.5,192.167 51.5,195.5C 52.8333,195.5 54.1667,195.5 55.5,195.5C 54.0813,196.451 52.4147,196.784 50.5,196.5C 50.185,192.629 50.5184,188.962 51.5,185.5 Z"/></g>
<g><path style="opacity:1" fill="#f6f6f6" d="M 83.5,195.5 C 84.8048,197.397 85.4714,199.731 85.5,202.5C 85.4489,205.253 85.1156,207.92 84.5,210.5C 74.109,212.711 63.7757,215.044 53.5,217.5C 51.5864,214.316 50.9197,210.649 51.5,206.5C 57.5715,203.897 63.9048,202.064 70.5,201C 73.0691,200.102 75.4024,198.935 77.5,197.5C 79.5,196.833 81.5,196.167 83.5,195.5 Z"/></g>
<g><path style="opacity:1" fill="#505050" d="M 77.5,197.5 C 75.4024,198.935 73.0691,200.102 70.5,201C 63.9048,202.064 57.5715,203.897 51.5,206.5C 53.0311,205.075 52.6977,204.409 50.5,204.5C 56.8559,202.181 63.5226,200.347 70.5,199C 72.9316,197.913 72.5983,197.413 69.5,197.5C 72.3023,195.419 74.969,195.419 77.5,197.5 Z"/></g>
<g><path style="opacity:1" fill="#dcdcdc" d="M 69.5,197.5 C 72.5983,197.413 72.9316,197.913 70.5,199C 63.5226,200.347 56.8559,202.181 50.5,204.5C 50.2648,205.097 49.7648,205.43 49,205.5C 47.3745,204.711 45.8745,203.711 44.5,202.5C 52.6719,200.082 61.0052,198.415 69.5,197.5 Z"/></g>
<g><path style="opacity:1" fill="#d9d9d9" d="M 82.5,216.5 C 79.9407,216.198 77.6074,216.532 75.5,217.5C 68.1438,218.503 60.8104,219.337 53.5,220C 62.3352,217.366 71.3352,215.366 80.5,214C 82.3146,213.243 83.9812,212.41 85.5,211.5C 87.8723,210.447 89.8723,211.114 91.5,213.5C 88.5753,214.953 85.5753,215.953 82.5,216.5 Z"/></g>
<g><path style="opacity:1" fill="#898989" d="M 51.5,206.5 C 50.9197,210.649 51.5864,214.316 53.5,217.5C 52.791,218.404 51.791,218.737 50.5,218.5C 50.1832,214.298 50.5166,210.298 51.5,206.5 Z"/></g>
<g><path style="opacity:1" fill="#383838" d="M 125.5,142.5 C 126.598,143.601 126.765,144.934 126,146.5C 116.631,155.702 107.464,165.035 98.5,174.5C 94.8691,177.629 91.3691,180.963 88,184.5C 87.1772,192.677 87.3439,200.677 88.5,208.5C 90.8381,209.682 92.8381,211.348 94.5,213.5C 92.8381,215.652 90.8381,217.318 88.5,218.5C 87.8362,220.81 87.5029,223.31 87.5,226C 87.5248,228.929 88.1914,231.429 89.5,233.5C 91.2908,234.787 92.9575,236.287 94.5,238C 93.2385,239.962 91.5719,241.462 89.5,242.5C 88.1914,244.571 87.5248,247.071 87.5,250C 87.5029,252.69 87.8362,255.19 88.5,257.5C 90.9249,258.424 92.9249,259.924 94.5,262C 93.7977,263.856 92.4643,265.023 90.5,265.5C 89.791,264.596 88.791,264.263 87.5,264.5C 92.35,263.173 92.5166,261.507 88,259.5C 85.1005,260.41 82.2672,261.41 79.5,262.5C 79.1583,261.662 78.4916,261.328 77.5,261.5C 79.6502,260.33 81.9836,259.33 84.5,258.5C 85.8333,253.833 85.8333,249.167 84.5,244.5C 73.4233,247.352 62.4233,250.352 51.5,253.5C 51.1667,253.5 50.8333,253.5 50.5,253.5C 49.5084,253.328 48.8417,253.662 48.5,254.5C 40.5339,251.275 40.5339,247.942 48.5,244.5C 49.1667,239.5 49.8333,234.5 50.5,229.5C 50.1734,234.214 50.5067,238.88 51.5,243.5C 52.1067,243.376 52.44,243.043 52.5,242.5C 63.1648,239.965 73.8315,237.299 84.5,234.5C 84.8333,232.167 85.1667,229.833 85.5,227.5C 85.4714,224.731 84.8048,222.397 83.5,220.5C 82.8333,220.5 82.5,220.167 82.5,219.5C 83.3764,219.631 84.0431,219.298 84.5,218.5C 83.7573,217.818 83.0906,217.151 82.5,216.5C 85.5753,215.953 88.5753,214.953 91.5,213.5C 89.8723,211.114 87.8723,210.447 85.5,211.5C 84.8333,211.5 84.5,211.167 84.5,210.5C 85.1156,207.92 85.4489,205.253 85.5,202.5C 85.4714,199.731 84.8048,197.397 83.5,195.5C 83.6107,194.883 83.944,194.383 84.5,194C 82.1902,193.503 79.8568,193.337 77.5,193.5C 79.9479,192.527 82.6146,192.194 85.5,192.5C 85.5,190.167 85.5,187.833 85.5,185.5C 74.1667,185.5 62.8333,185.5 51.5,185.5C 51.1667,184.833 50.8333,184.167 50.5,183.5C 62.8378,183.667 75.1712,183.5 87.5,183C 97.0328,172.301 107.033,162.134 117.5,152.5C 119.914,151.089 121.581,149.089 122.5,146.5C 123.167,146.5 123.5,146.167 123.5,145.5C 123.833,145.5 124.167,145.5 124.5,145.5C 125.404,144.791 125.737,143.791 125.5,142.5 Z"/></g>
<g><path style="opacity:1" fill="#878787" d="M 75.5,217.5 C 77.6074,216.532 79.9407,216.198 82.5,216.5C 83.0906,217.151 83.7573,217.818 84.5,218.5C 84.0431,219.298 83.3764,219.631 82.5,219.5C 81.1667,219.833 79.8333,220.167 78.5,220.5C 77.791,219.596 76.791,219.263 75.5,219.5C 76.9516,218.698 78.6183,218.198 80.5,218C 78.8659,217.506 77.1992,217.34 75.5,217.5 Z"/></g>
<g><path style="opacity:1" fill="#4d4d4d" d="M 84.5,210.5 C 84.5,211.167 84.8333,211.5 85.5,211.5C 83.9812,212.41 82.3146,213.243 80.5,214C 71.3352,215.366 62.3352,217.366 53.5,220C 60.8104,219.337 68.1438,218.503 75.5,217.5C 77.1992,217.34 78.8659,217.506 80.5,218C 78.6183,218.198 76.9516,218.698 75.5,219.5C 68.5025,220.426 61.5025,221.426 54.5,222.5C 52.672,221.717 51.3387,220.384 50.5,218.5C 51.791,218.737 52.791,218.404 53.5,217.5C 63.7757,215.044 74.109,212.711 84.5,210.5 Z"/></g>
<g><path style="opacity:1" fill="#f7f7f7" d="M 83.5,220.5 C 84.8048,222.397 85.4714,224.731 85.5,227.5C 85.1667,229.833 84.8333,232.167 84.5,234.5C 73.8315,237.299 63.1648,239.965 52.5,242.5C 51.5151,238.366 51.1818,234.032 51.5,229.5C 62.0298,226.068 72.6965,223.068 83.5,220.5 Z"/></g>
<g><path style="opacity:1" fill="#d8d8d8" d="M 75.5,219.5 C 76.791,219.263 77.791,219.596 78.5,220.5C 68.1137,221.471 58.2804,224.138 49,228.5C 45.9995,227.714 45.1661,226.047 46.5,223.5C 49.1667,223.167 51.8333,222.833 54.5,222.5C 61.5025,221.426 68.5025,220.426 75.5,219.5 Z"/></g>
<g><path style="opacity:1" fill="#565656" d="M 82.5,219.5 C 82.5,220.167 82.8333,220.5 83.5,220.5C 72.6965,223.068 62.0298,226.068 51.5,229.5C 51.1667,229.5 50.8333,229.5 50.5,229.5C 49.8333,234.5 49.1667,239.5 48.5,244.5C 48.6658,239.821 48.4992,235.155 48,230.5C 45.8001,229.164 43.9667,227.498 42.5,225.5C 42.5159,223.484 43.5159,222.484 45.5,222.5C 45.5,223.167 45.8333,223.5 46.5,223.5C 45.1661,226.047 45.9995,227.714 49,228.5C 58.2804,224.138 68.1137,221.471 78.5,220.5C 79.8333,220.167 81.1667,219.833 82.5,219.5 Z"/></g>
<g><path style="opacity:1" fill="#b5b5b5" d="M 88.5,218.5 C 88.2213,223.595 88.5546,228.595 89.5,233.5C 88.1914,231.429 87.5248,228.929 87.5,226C 87.5029,223.31 87.8362,220.81 88.5,218.5 Z"/></g>
<g><path style="opacity:1" fill="#868686" d="M 50.5,229.5 C 50.8333,229.5 51.1667,229.5 51.5,229.5C 51.1818,234.032 51.5151,238.366 52.5,242.5C 52.44,243.043 52.1067,243.376 51.5,243.5C 50.5067,238.88 50.1734,234.214 50.5,229.5 Z"/></g>
<g><path style="opacity:1" fill="#d3d3d3" d="M 86.5,235.5 C 88.8421,235.504 90.8421,236.337 92.5,238C 78.9996,241.452 65.333,243.785 51.5,245C 61.301,241.837 71.301,239.504 81.5,238C 83.4913,237.626 85.158,236.793 86.5,235.5 Z"/></g>
<g><path style="opacity:1" fill="#b5b5b5" d="M 89.5,242.5 C 88.5546,247.405 88.2213,252.405 88.5,257.5C 87.8362,255.19 87.5029,252.69 87.5,250C 87.5248,247.071 88.1914,244.571 89.5,242.5 Z"/></g>
<g><path style="opacity:1" fill="#d1d1d1" d="M 80.5,242.5 C 81.8734,242.343 83.2068,242.51 84.5,243C 74.5456,245.458 64.5456,247.791 54.5,250C 51.1189,253.138 47.7856,253.138 44.5,250C 45.3279,249.085 46.3279,248.419 47.5,248C 58.6781,246.359 69.6781,244.526 80.5,242.5 Z"/></g>
<g><path style="opacity:1" fill="#f5f5f5" d="M 77.5,261.5 C 69.0824,262.784 60.7491,264.45 52.5,266.5C 51.5151,262.366 51.1818,258.032 51.5,253.5C 62.4233,250.352 73.4233,247.352 84.5,244.5C 85.8333,249.167 85.8333,253.833 84.5,258.5C 81.9836,259.33 79.6502,260.33 77.5,261.5 Z"/></g>
<g><path style="opacity:1" fill="#868686" d="M 50.5,253.5 C 50.8333,253.5 51.1667,253.5 51.5,253.5C 51.1818,258.032 51.5151,262.366 52.5,266.5C 52.44,267.043 52.1067,267.376 51.5,267.5C 50.5067,262.88 50.1734,258.214 50.5,253.5 Z"/></g>
<g><path style="opacity:1" fill="#dfdfdf" d="M 87.5,264.5 C 75.8024,266.087 64.1358,267.587 52.5,269C 61.3207,266.195 70.3207,264.028 79.5,262.5C 82.2672,261.41 85.1005,260.41 88,259.5C 92.5166,261.507 92.35,263.173 87.5,264.5 Z"/></g>
<g><path style="opacity:1" fill="#303030" d="M 48.5,254.5 C 48.8417,253.662 49.5084,253.328 50.5,253.5C 50.1734,258.214 50.5067,262.88 51.5,267.5C 52.1067,267.376 52.44,267.043 52.5,266.5C 60.7491,264.45 69.0824,262.784 77.5,261.5C 78.4916,261.328 79.1583,261.662 79.5,262.5C 70.3207,264.028 61.3207,266.195 52.5,269C 64.1358,267.587 75.8024,266.087 87.5,264.5C 88.791,264.263 89.791,264.596 90.5,265.5C 89.5416,265.953 88.7083,266.619 88,267.5C 87.3333,272.167 87.3333,276.833 88,281.5C 89.6516,282.399 91.1516,283.399 92.5,284.5C 91.8333,284.5 91.5,284.833 91.5,285.5C 90.1932,284.847 88.8599,284.18 87.5,283.5C 76.0501,286.839 64.7167,290.172 53.5,293.5C 53.2648,294.097 52.7648,294.43 52,294.5C 51.6454,293.491 50.8121,292.824 49.5,292.5C 49.6657,288.154 49.499,283.821 49,279.5C 40.1925,275.467 40.3591,272.133 49.5,269.5C 49.8205,264.305 49.4872,259.305 48.5,254.5 Z"/></g>
<g><path style="opacity:1" fill="#e0e0e0" d="M 81.5,266.5 C 82.552,266.351 83.552,266.517 84.5,267C 82.913,267.862 81.2464,268.529 79.5,269C 69.1392,270.808 58.9725,273.308 49,276.5C 47.2741,276.054 45.7741,275.221 44.5,274C 56.7618,270.81 69.0951,268.31 81.5,266.5 Z"/></g>
<g><path style="opacity:1" fill="#f7f7f7" d="M 82.5,269.5 C 83.5,269.5 84.5,269.5 85.5,269.5C 85.8,274.099 85.4667,278.599 84.5,283C 73.711,286.09 62.8777,288.923 52,291.5C 51.1985,286.581 51.3651,281.748 52.5,277C 62.6439,274.553 72.6439,272.053 82.5,269.5 Z"/></g>
<g><path style="opacity:1" fill="#e0e0e0" d="M 91.5,285.5 C 92.0431,285.56 92.3764,285.893 92.5,286.5C 79.7162,289.798 66.7162,292.131 53.5,293.5C 64.7167,290.172 76.0501,286.839 87.5,283.5C 88.8599,284.18 90.1932,284.847 91.5,285.5 Z"/></g>
<g><path style="opacity:1" fill="#1f1f1f" d="M 91.5,285.5 C 91.5,284.833 91.8333,284.5 92.5,284.5C 94.0847,285.002 94.5847,286.002 94,287.5C 92.1879,288.977 90.3545,290.31 88.5,291.5C 88.1667,291.5 87.8333,291.5 87.5,291.5C 86.8333,292.167 86.1667,292.833 85.5,293.5C 75.8923,295.855 66.2256,298.022 56.5,300C 54.5087,300.374 52.842,301.207 51.5,302.5C 50.8367,304.641 50.5034,306.975 50.5,309.5C 50.5286,312.269 51.1952,314.603 52.5,316.5C 52.5,316.833 52.5,317.167 52.5,317.5C 54.7406,318.344 57.7406,318.344 61.5,317.5C 62.791,317.263 63.791,317.596 64.5,318.5C 59.4632,318.908 54.4632,319.574 49.5,320.5C 48.209,320.737 47.209,320.404 46.5,319.5C 47.172,318.733 48.0053,318.066 49,317.5C 49.8283,312.798 49.6616,308.131 48.5,303.5C 46.0502,302.289 44.0502,300.622 42.5,298.5C 44.2661,295.792 46.5994,293.792 49.5,292.5C 50.8121,292.824 51.6454,293.491 52,294.5C 52.7648,294.43 53.2648,294.097 53.5,293.5C 66.7162,292.131 79.7162,289.798 92.5,286.5C 92.3764,285.893 92.0431,285.56 91.5,285.5 Z"/></g>
<g><path style="opacity:1" fill="#f7f7f7" d="M 85.5,293.5 C 85.8266,298.214 85.4933,302.88 84.5,307.5C 73.9051,310.482 63.2385,313.149 52.5,315.5C 51.5151,311.366 51.1818,307.032 51.5,302.5C 52.842,301.207 54.5087,300.374 56.5,300C 66.2256,298.022 75.8923,295.855 85.5,293.5 Z"/></g>
<g><path style="opacity:1" fill="#b8b8b8" d="M 87.5,291.5 C 87.8333,291.5 88.1667,291.5 88.5,291.5C 88.2213,296.595 88.5546,301.595 89.5,306.5C 87.5583,301.944 86.8917,296.944 87.5,291.5 Z"/></g>
<g><path style="opacity:1" fill="#e0e0e0" d="M 81.5,290.5 C 82.8734,290.343 84.2068,290.51 85.5,291C 74.9973,294.051 64.3306,296.718 53.5,299C 50.4294,302.163 47.4294,301.997 44.5,298.5C 46.2199,297.066 48.2199,296.233 50.5,296C 61.0331,294.476 71.3664,292.643 81.5,290.5 Z"/></g>
<g><path style="opacity:1" fill="#2d2d2d" d="M 87.5,291.5 C 86.8917,296.944 87.5583,301.944 89.5,306.5C 91.2908,307.787 92.9575,309.287 94.5,311C 92.7105,313.164 90.5438,314.998 88,316.5C 87.2223,321.584 87.3889,326.584 88.5,331.5C 86.8724,327.238 85.8724,322.571 85.5,317.5C 84.8933,317.624 84.56,317.957 84.5,318.5C 73.3877,320.85 62.3877,323.516 51.5,326.5C 50.5139,330.97 50.1805,335.637 50.5,340.5C 51.5,340.5 52.5,340.5 53.5,340.5C 53.5,340.833 53.5,341.167 53.5,341.5C 50.9017,342.528 50.9017,343.528 53.5,344.5C 50.7334,344.858 48.0667,345.525 45.5,346.5C 44.7777,347.551 43.7777,348.218 42.5,348.5C 42.3505,347.448 42.5172,346.448 43,345.5C 44.7533,344.373 46.5866,343.373 48.5,342.5C 49.4941,337.544 49.8275,332.544 49.5,327.5C 47.0372,327.219 44.8705,326.219 43,324.5C 42.3599,321.632 43.5266,319.965 46.5,319.5C 47.209,320.404 48.209,320.737 49.5,320.5C 43.3821,321.761 43.2154,323.428 49,325.5C 59.9466,321.869 71.1132,319.035 82.5,317C 85.1208,316.094 84.9541,315.594 82,315.5C 76.1231,316.363 70.2898,317.363 64.5,318.5C 63.791,317.596 62.791,317.263 61.5,317.5C 69.9735,315.709 78.6402,314.209 87.5,313C 93.8917,311.899 94.0584,310.399 88,308.5C 76.1584,311.585 64.3251,314.585 52.5,317.5C 52.5,317.167 52.5,316.833 52.5,316.5C 52.5,316.167 52.5,315.833 52.5,315.5C 63.2385,313.149 73.9051,310.482 84.5,307.5C 85.4933,302.88 85.8266,298.214 85.5,293.5C 86.1667,292.833 86.8333,292.167 87.5,291.5 Z"/></g>
<g><path style="opacity:1" fill="#868686" d="M 51.5,302.5 C 51.1818,307.032 51.5151,311.366 52.5,315.5C 52.5,315.833 52.5,316.167 52.5,316.5C 51.1952,314.603 50.5286,312.269 50.5,309.5C 50.5034,306.975 50.8367,304.641 51.5,302.5 Z"/></g>
<g><path style="opacity:1" fill="#dadada" d="M 61.5,317.5 C 57.7406,318.344 54.7406,318.344 52.5,317.5C 64.3251,314.585 76.1584,311.585 88,308.5C 94.0584,310.399 93.8917,311.899 87.5,313C 78.6402,314.209 69.9735,315.709 61.5,317.5 Z"/></g>
<g><path style="opacity:1" fill="#d3d3d3" d="M 49.5,320.5 C 54.4632,319.574 59.4632,318.908 64.5,318.5C 70.2898,317.363 76.1231,316.363 82,315.5C 84.9541,315.594 85.1208,316.094 82.5,317C 71.1132,319.035 59.9466,321.869 49,325.5C 43.2154,323.428 43.3821,321.761 49.5,320.5 Z"/></g>
<g><path style="opacity:1" fill="#f6f6f6" d="M 84.5,318.5 C 85.8229,322.9 85.8229,327.4 84.5,332C 74.2764,334.973 63.943,337.473 53.5,339.5C 51.5698,335.627 50.9031,331.294 51.5,326.5C 62.3877,323.516 73.3877,320.85 84.5,318.5 Z"/></g>
<g><path style="opacity:1" fill="#888888" d="M 51.5,326.5 C 50.9031,331.294 51.5698,335.627 53.5,339.5C 53.5,339.833 53.5,340.167 53.5,340.5C 52.5,340.5 51.5,340.5 50.5,340.5C 50.1805,335.637 50.5139,330.97 51.5,326.5 Z"/></g>
<g><path style="opacity:1" fill="#3e3e3e" d="M 84.5,318.5 C 84.56,317.957 84.8933,317.624 85.5,317.5C 85.8724,322.571 86.8724,327.238 88.5,331.5C 91.1678,331.834 93.1678,333.167 94.5,335.5C 92.8381,337.652 90.8381,339.318 88.5,340.5C 87.8367,342.641 87.5034,344.975 87.5,347.5C 87.5286,350.269 88.1952,352.603 89.5,354.5C 91.2908,355.787 92.9575,357.287 94.5,359C 92.8743,360.819 90.8743,362.152 88.5,363C 87.1068,364.171 86.2735,365.671 86,367.5C 85.4739,370.911 84.6406,374.245 83.5,377.5C 85.0093,379.18 86.3427,381.014 87.5,383C 85.625,384.86 83.4583,386.36 81,387.5C 79.4438,391.558 78.2772,395.725 77.5,400C 78.7862,401.994 80.1195,403.994 81.5,406C 81.2517,407.749 80.2517,408.582 78.5,408.5C 78.5,408.167 78.5,407.833 78.5,407.5C 78.5,406.5 78.5,405.5 78.5,404.5C 75.1673,405.641 72.1673,407.474 69.5,410C 69.7284,410.399 70.0618,410.565 70.5,410.5C 69.0011,411.494 67.3344,411.494 65.5,410.5C 64.5,411.5 63.5,412.5 62.5,413.5C 61.439,409.365 60.439,405.198 59.5,401C 57.644,398.819 55.4773,396.985 53,395.5C 52.2274,393.648 52.7274,392.314 54.5,391.5C 56.1171,390.411 56.9504,388.744 57,386.5C 57.9236,388.495 59.0903,388.828 60.5,387.5C 64.6301,388.033 68.6301,388.366 72.5,388.5C 68.1676,389.266 63.8342,390.1 59.5,391C 56.2945,391.625 55.2945,393.291 56.5,396C 57.5,396.667 58.5,396.667 59.5,396C 64.0019,392.774 69.0019,390.607 74.5,389.5C 75.2891,389.217 75.9558,388.717 76.5,388C 75.2625,387.768 74.2625,387.268 73.5,386.5C 77.7375,385.777 81.7375,384.443 85.5,382.5C 84.8333,382.167 84.1667,381.833 83.5,381.5C 79.4083,382.642 75.4083,383.975 71.5,385.5C 69.6656,386.494 67.9989,386.494 66.5,385.5C 71.2537,383.694 75.9204,381.694 80.5,379.5C 81.6055,375.239 82.9388,371.073 84.5,367C 74.3823,368.411 64.3823,370.577 54.5,373.5C 55.1667,376.5 55.8333,379.5 56.5,382.5C 56.7373,383.791 56.404,384.791 55.5,385.5C 54.8264,382.474 53.9931,379.474 53,376.5C 50.025,375.268 47.525,373.434 45.5,371C 46.0717,368.926 47.405,367.76 49.5,367.5C 50.3019,366.048 50.8019,364.382 51,362.5C 51.4828,363.448 51.6495,364.448 51.5,365.5C 52.791,365.737 53.791,365.404 54.5,364.5C 63.894,361.447 73.5606,358.947 83.5,357C 84,356.5 84.5,356 85,355.5C 85.8275,351.129 85.6609,346.795 84.5,342.5C 75.2418,344.981 65.9084,347.148 56.5,349C 54.5087,349.374 52.842,350.207 51.5,351.5C 50.8333,354.5 50.1667,357.5 49.5,360.5C 49.8134,357.753 49.48,355.086 48.5,352.5C 46.1868,351.5 44.1868,350.166 42.5,348.5C 43.7777,348.218 44.7777,347.551 45.5,346.5C 45.484,348.484 46.484,349.484 48.5,349.5C 60.3882,346.16 72.3882,343.326 84.5,341C 85.8882,340.111 85.7215,339.611 84,339.5C 73.9097,341.679 63.743,343.346 53.5,344.5C 50.9017,343.528 50.9017,342.528 53.5,341.5C 53.5,341.167 53.5,340.833 53.5,340.5C 53.5,340.167 53.5,339.833 53.5,339.5C 63.943,337.473 74.2764,334.973 84.5,332C 85.8229,327.4 85.8229,322.9 84.5,318.5 Z"/></g>
<g><path style="opacity:1" fill="#d7d7d7" d="M 53.5,341.5 C 60.8016,339.894 68.1349,338.394 75.5,337C 79.7683,336.104 83.7683,334.604 87.5,332.5C 89.2303,333.026 90.5637,334.026 91.5,335.5C 87.4108,337.3 83.0775,338.466 78.5,339C 70.9908,340.113 63.4908,341.279 56,342.5C 54.9302,342.472 54.0968,342.139 53.5,341.5 Z"/></g>
<g><path style="opacity:1" fill="#b7b7b7" d="M 88.5,340.5 C 88.2256,345.263 88.559,349.93 89.5,354.5C 88.1952,352.603 87.5286,350.269 87.5,347.5C 87.5034,344.975 87.8367,342.641 88.5,340.5 Z"/></g>
<g><path style="opacity:1" fill="#d4d4d4" d="M 45.5,346.5 C 48.0667,345.525 50.7334,344.858 53.5,344.5C 63.743,343.346 73.9097,341.679 84,339.5C 85.7215,339.611 85.8882,340.111 84.5,341C 72.3882,343.326 60.3882,346.16 48.5,349.5C 46.484,349.484 45.484,348.484 45.5,346.5 Z"/></g>
<g><path style="opacity:1" fill="#f6f6f6" d="M 54.5,364.5 C 53.0689,364.119 52.2355,363.119 52,361.5C 51.5017,358.183 51.335,354.85 51.5,351.5C 52.842,350.207 54.5087,349.374 56.5,349C 65.9084,347.148 75.2418,344.981 84.5,342.5C 85.6609,346.795 85.8275,351.129 85,355.5C 84.5,356 84,356.5 83.5,357C 73.5606,358.947 63.894,361.447 54.5,364.5 Z"/></g>
<g><path style="opacity:1" fill="#d9d9d9" d="M 81.5,361.5 C 80.209,361.737 79.209,361.404 78.5,360.5C 82.2696,359.261 85.9362,358.094 89.5,357C 91.4812,357.605 91.8146,358.605 90.5,360C 87.5219,360.696 84.5219,361.196 81.5,361.5 Z"/></g>
<g><path style="opacity:1" fill="#727272" d="M 51.5,351.5 C 51.335,354.85 51.5017,358.183 52,361.5C 52.2355,363.119 53.0689,364.119 54.5,364.5C 53.791,365.404 52.791,365.737 51.5,365.5C 51.6495,364.448 51.4828,363.448 51,362.5C 50.8019,364.382 50.3019,366.048 49.5,367.5C 49.5,365.167 49.5,362.833 49.5,360.5C 50.1667,357.5 50.8333,354.5 51.5,351.5 Z"/></g>
<g><path style="opacity:1" fill="#a4a4a4" d="M 78.5,360.5 C 79.209,361.404 80.209,361.737 81.5,361.5C 75.7662,363.509 69.7662,364.342 63.5,364C 68.3908,362.388 73.3908,361.222 78.5,360.5 Z"/></g>
<g><path style="opacity:1" fill="#f5f5f5" d="M 66.5,385.5 C 64.2143,385.595 62.2143,386.262 60.5,387.5C 58.4658,386.409 57.1324,384.743 56.5,382.5C 55.8333,379.5 55.1667,376.5 54.5,373.5C 64.3823,370.577 74.3823,368.411 84.5,367C 82.9388,371.073 81.6055,375.239 80.5,379.5C 75.9204,381.694 71.2537,383.694 66.5,385.5 Z"/></g>
<g><path style="opacity:1" fill="#d0d0d0" d="M 78.5,363.5 C 80.1992,363.34 81.8659,363.506 83.5,364C 76.641,365.981 69.641,367.648 62.5,369C 58.6268,369.764 55.1268,371.264 52,373.5C 48.5678,372.511 48.0678,371.011 50.5,369C 59.9908,367.256 69.3241,365.422 78.5,363.5 Z"/></g>
<g><path style="opacity:1" fill="#b9b9b9" d="M 73.5,386.5 C 72.5084,386.672 71.8417,386.338 71.5,385.5C 75.4083,383.975 79.4083,382.642 83.5,381.5C 84.1667,381.833 84.8333,382.167 85.5,382.5C 81.7375,384.443 77.7375,385.777 73.5,386.5 Z"/></g>
<g><path style="opacity:1" fill="#7b7b7b" d="M 56.5,382.5 C 57.1324,384.743 58.4658,386.409 60.5,387.5C 59.0903,388.828 57.9236,388.495 57,386.5C 56.9504,388.744 56.1171,390.411 54.5,391.5C 55.3414,389.621 55.6747,387.621 55.5,385.5C 56.404,384.791 56.7373,383.791 56.5,382.5 Z"/></g>
<g><path style="opacity:1" fill="#626262" d="M 66.5,385.5 C 67.9989,386.494 69.6656,386.494 71.5,385.5C 71.8417,386.338 72.5084,386.672 73.5,386.5C 74.2625,387.268 75.2625,387.768 76.5,388C 75.9558,388.717 75.2891,389.217 74.5,389.5C 74.1583,388.662 73.4916,388.328 72.5,388.5C 68.6301,388.366 64.6301,388.033 60.5,387.5C 62.2143,386.262 64.2143,385.595 66.5,385.5 Z"/></g>
<g><path style="opacity:1" fill="#f2f2f2" d="M 65.5,410.5 C 62.8861,406.248 61.7195,401.582 62,396.5C 66.8656,393.821 72.0323,391.821 77.5,390.5C 76.3381,395.148 75.1714,399.814 74,404.5C 71.0123,406.399 68.1789,408.399 65.5,410.5 Z"/></g>
<g><path style="opacity:1" fill="#cecece" d="M 72.5,388.5 C 73.4916,388.328 74.1583,388.662 74.5,389.5C 69.0019,390.607 64.0019,392.774 59.5,396C 58.5,396.667 57.5,396.667 56.5,396C 55.2945,393.291 56.2945,391.625 59.5,391C 63.8342,390.1 68.1676,389.266 72.5,388.5 Z"/></g>
<g><path style="opacity:1" fill="#c2c2c2" d="M 78.5,407.5 C 75.8284,408.501 73.1618,409.501 70.5,410.5C 70.0618,410.565 69.7284,410.399 69.5,410C 72.1673,407.474 75.1673,405.641 78.5,404.5C 78.5,405.5 78.5,406.5 78.5,407.5 Z"/></g>
<g><path style="opacity:1" fill="#202020" d="M 78.5,407.5 C 78.5,407.833 78.5,408.167 78.5,408.5C 73.8092,411.783 71.4759,416.45 71.5,422.5C 70.596,421.791 70.2627,420.791 70.5,419.5C 72.0607,413.237 71.0607,412.903 67.5,418.5C 66.71,419.609 66.21,420.942 66,422.5C 65.6174,421.944 65.1174,421.611 64.5,421.5C 58.943,419.774 58.2763,417.107 62.5,413.5C 63.5,412.5 64.5,411.5 65.5,410.5C 67.3344,411.494 69.0011,411.494 70.5,410.5C 73.1618,409.501 75.8284,408.501 78.5,407.5 Z"/></g>
<g><path style="opacity:1" fill="#c4c4c4" d="M 67.5,412.5 C 68.552,412.351 69.552,412.517 70.5,413C 67.7644,414.524 65.7644,416.691 64.5,419.5C 62.6097,419.131 61.7764,418.131 62,416.5C 63.8121,415.023 65.6455,413.69 67.5,412.5 Z"/></g>
<g><path style="opacity:1" fill="#dcdcdc" d="M 70.5,419.5 C 69.71,420.609 69.21,421.942 69,423.5C 68.31,424.738 67.81,424.738 67.5,423.5C 67.5,421.833 67.5,420.167 67.5,418.5C 71.0607,412.903 72.0607,413.237 70.5,419.5 Z"/></g>
<g><path style="opacity:1" fill="#747474" d="M 67.5,418.5 C 67.5,420.167 67.5,421.833 67.5,423.5C 66.596,424.209 66.2627,425.209 66.5,426.5C 65.4625,425.07 64.7959,423.403 64.5,421.5C 65.1174,421.611 65.6174,421.944 66,422.5C 66.21,420.942 66.71,419.609 67.5,418.5 Z"/></g>
<g><path style="opacity:1" fill="#444444" d="M 70.5,419.5 C 70.2627,420.791 70.596,421.791 71.5,422.5C 71.0706,425.363 70.0706,428.029 68.5,430.5C 67.6376,429.234 66.9709,427.901 66.5,426.5C 66.2627,425.209 66.596,424.209 67.5,423.5C 67.81,424.738 68.31,424.738 69,423.5C 69.21,421.942 69.71,420.609 70.5,419.5 Z"/></g>
</svg>
