<?xml version="1.0" encoding="UTF-8"?>
<!DOCTYPE svg PUBLIC "-//W3C//DTD SVG 1.1//EN" "http://www.w3.org/Graphics/SVG/1.1/DTD/svg11.dtd">
<svg xmlns="http://www.w3.org/2000/svg" version="1.1" width="132px" height="441px" style="shape-rendering:geometricPrecision; text-rendering:geometricPrecision; image-rendering:optimizeQuality; fill-rule:evenodd; clip-rule:evenodd" xmlns:xlink="http://www.w3.org/1999/xlink">
<g><path style="opacity:1" fill="#fcfcfc" d="M -0.5,-0.5 C 43.5,-0.5 87.5,-0.5 131.5,-0.5C 131.5,146.5 131.5,293.5 131.5,440.5C 87.5,440.5 43.5,440.5 -0.5,440.5C -0.5,293.5 -0.5,146.5 -0.5,-0.5 Z"/></g>
<g><path style="opacity:1" fill="#373737" d="M 54.5,7.5 C 88.7239,5.67632 110.891,21.0097 121,53.5C 124.38,92.096 107.213,115.263 69.5,123C 35.8456,123.345 15.0122,107.178 7,74.5C 4.815,39.2113 20.6483,16.878 54.5,7.5 Z"/></g>
<g><path style="opacity:1" fill="#f9f9f9" d="M 54.5,9.5 C 87.5779,7.43962 109.078,22.1063 119,53.5C 122.689,89.3039 107.189,111.804 72.5,121C 47.2015,123.6 28.0349,114.1 15,92.5C 1.81361,62.7459 7.98027,37.9126 33.5,18C 40.1874,14.0569 47.1874,11.2235 54.5,9.5 Z"/></g>
<g><path style="opacity:1" fill="#818181" d="M 55.5,31.5 C 55.5,38.1667 55.5,44.8333 55.5,51.5C 54.5084,51.6716 53.8417,51.3382 53.5,50.5C 54.1667,44.1667 54.8333,37.8333 55.5,31.5 Z"/></g>
<g><path style="opacity:1" fill="#f7f7f7" d="M 72.5,77.5 C 71.3263,78.5137 70.6596,79.847 70.5,81.5C 66.5369,82.44 62.5369,82.6067 58.5,82C 57.2622,78.9187 55.2622,76.4187 52.5,74.5C 51.2196,73.0687 49.5529,72.4021 47.5,72.5C 47.5,68.5 47.5,64.5 47.5,60.5C 47.4142,59.5041 47.7476,58.6708 48.5,58C 52.6517,57.6192 54.9851,55.4526 55.5,51.5C 56.2674,50.828 56.9341,49.9947 57.5,49C 61.8333,48.3333 66.1667,48.3333 70.5,49C 71.7942,54.125 74.9609,57.2917 80,58.5C 80.4992,63.1548 80.6658,67.8215 80.5,72.5C 79.1266,72.3433 77.7932,72.51 76.5,73C 74.3645,73.8763 73.0312,75.3763 72.5,77.5 Z"/></g>
<g><path style="opacity:1" fill="#3d3d3d" d="M 75.5,80.5 C 74.0998,79.8999 73.0998,78.8999 72.5,77.5C 73.0312,75.3763 74.3645,73.8763 76.5,73C 77.7932,72.51 79.1266,72.3433 80.5,72.5C 80.6658,67.8215 80.4992,63.1548 80,58.5C 74.9609,57.2917 71.7942,54.125 70.5,49C 66.1667,48.3333 61.8333,48.3333 57.5,49C 56.9341,49.9947 56.2674,50.828 55.5,51.5C 55.5,44.8333 55.5,38.1667 55.5,31.5C 61.0318,28.874 66.6984,28.874 72.5,31.5C 73.1667,37.8333 73.8333,44.1667 74.5,50.5C 78.3094,47.8579 81.9761,45.0246 85.5,42C 86.5,41.3333 87.5,41.3333 88.5,42C 85.0447,46.4109 81.7114,50.9109 78.5,55.5C 85.1335,56.4967 91.8002,56.83 98.5,56.5C 99.7742,62.492 99.7742,68.492 98.5,74.5C 91.8002,74.17 85.1335,74.5033 78.5,75.5C 81.4763,79.6438 84.643,83.6438 88,87.5C 88.6877,88.3317 88.521,88.9984 87.5,89.5C 83.4319,86.4793 79.4319,83.4793 75.5,80.5 Z"/></g>
<g><path style="opacity:1" fill="#989898" d="M 57.5,32.5 C 56.8969,37.6186 57.5636,42.2853 59.5,46.5C 58.791,47.404 57.791,47.7373 56.5,47.5C 56.1795,42.3054 56.5128,37.3054 57.5,32.5 Z"/></g>
<g><path style="opacity:1" fill="#f1f1f1" d="M 59.5,46.5 C 57.5636,42.2853 56.8969,37.6186 57.5,32.5C 62.1425,31.3274 66.8091,31.3274 71.5,32.5C 71.5,37.1667 71.5,41.8333 71.5,46.5C 67.5,46.5 63.5,46.5 59.5,46.5 Z"/></g>
<g><path style="opacity:1" fill="#aeaeae" d="M 79.5,48.5 C 80.525,48.8966 80.6917,49.5632 80,50.5C 78.6667,51.8333 77.3333,53.1667 76,54.5C 75.8333,54 75.6667,53.5 75.5,53C 77.0182,51.6494 78.3515,50.1494 79.5,48.5 Z"/></g>
<g><path style="opacity:1" fill="#373737" d="M 53.5,50.5 C 53.8417,51.3382 54.5084,51.6716 55.5,51.5C 54.9851,55.4526 52.6517,57.6192 48.5,58C 47.7476,58.6708 47.4142,59.5041 47.5,60.5C 46.8333,59.8333 46.1667,59.1667 45.5,58.5C 40.5,58.5 35.5,58.5 30.5,58.5C 30.2834,63.2303 30.6167,67.8969 31.5,72.5C 31.5,73.1667 31.1667,73.5 30.5,73.5C 28.2112,68.076 27.8779,62.4093 29.5,56.5C 36.1998,56.83 42.8665,56.4967 49.5,55.5C 46.9124,51.3244 44.0791,47.3244 41,43.5C 40.3123,42.6683 40.479,42.0016 41.5,41.5C 45.5185,44.5244 49.5185,47.5244 53.5,50.5 Z"/></g>
<g><path style="opacity:1" fill="#a3a3a3" d="M 47.5,48.5 C 49.5089,50.169 51.5089,51.8357 53.5,53.5C 52.9984,54.521 52.3317,54.6877 51.5,54C 49.5359,52.549 48.2026,50.7157 47.5,48.5 Z"/></g>
<g><path style="opacity:1" fill="#f3f3f3" d="M 45.5,58.5 C 45.5,63.1667 45.5,67.8333 45.5,72.5C 40.8333,72.5 36.1667,72.5 31.5,72.5C 30.6167,67.8969 30.2834,63.2303 30.5,58.5C 35.5,58.5 40.5,58.5 45.5,58.5 Z"/></g>
<g><path style="opacity:1" fill="#fafafa" d="M 96.5,58.5 C 97.8333,62.8333 97.8333,67.1667 96.5,71.5C 92.1667,71.5 87.8333,71.5 83.5,71.5C 83.5,67.1667 83.5,62.8333 83.5,58.5C 87.8333,58.5 92.1667,58.5 96.5,58.5 Z"/></g>
<g><path style="opacity:1" fill="#b8b8b8" d="M 96.5,58.5 C 92.1667,58.5 87.8333,58.5 83.5,58.5C 83.5,62.8333 83.5,67.1667 83.5,71.5C 87.8333,71.5 92.1667,71.5 96.5,71.5C 92.03,72.4861 87.3633,72.8195 82.5,72.5C 82.5,67.5 82.5,62.5 82.5,57.5C 87.3633,57.1805 92.03,57.5139 96.5,58.5 Z"/></g>
<g><path style="opacity:1" fill="#4e4e4e" d="M 45.5,58.5 C 46.1667,59.1667 46.8333,59.8333 47.5,60.5C 47.5,64.5 47.5,68.5 47.5,72.5C 49.5529,72.4021 51.2196,73.0687 52.5,74.5C 51.7611,74.369 51.0944,74.5357 50.5,75C 52.158,75.7253 52.658,76.892 52,78.5C 50.2845,81.3974 47.7845,82.7307 44.5,82.5C 45.7536,79.9066 47.4202,77.5732 49.5,75.5C 43.0125,74.8332 36.6792,74.1666 30.5,73.5C 31.1667,73.5 31.5,73.1667 31.5,72.5C 36.1667,72.5 40.8333,72.5 45.5,72.5C 45.5,67.8333 45.5,63.1667 45.5,58.5 Z"/></g>
<g><path style="opacity:1" fill="#b3b3b3" d="M 75.5,76.5 C 77.5638,76.7619 78.8971,77.9286 79.5,80C 77.1589,80.1681 75.8256,79.0014 75.5,76.5 Z"/></g>
<g><path style="opacity:1" fill="#393939" d="M 52.5,74.5 C 55.2622,76.4187 57.2622,78.9187 58.5,82C 62.5369,82.6067 66.5369,82.44 70.5,81.5C 71.1174,81.3893 71.6174,81.056 72,80.5C 72.4995,86.8246 72.6662,93.1579 72.5,99.5C 66.5,100.833 60.5,100.833 54.5,99.5C 54.6663,92.825 54.4996,86.1583 54,79.5C 49.5891,82.9553 45.0891,86.2886 40.5,89.5C 39.479,88.9984 39.3123,88.3317 40,87.5C 41.517,85.7605 43.017,84.0938 44.5,82.5C 47.7845,82.7307 50.2845,81.3974 52,78.5C 52.658,76.892 52.158,75.7253 50.5,75C 51.0944,74.5357 51.7611,74.369 52.5,74.5 Z"/></g>
<g><path style="opacity:1" fill="#fafafa" d="M 70.5,97.5 C 66.1667,98.8333 61.8333,98.8333 57.5,97.5C 57.5,93.1667 57.5,88.8333 57.5,84.5C 61.8333,84.5 66.1667,84.5 70.5,84.5C 70.5,88.8333 70.5,93.1667 70.5,97.5 Z"/></g>
<g><path style="opacity:1" fill="#777777" d="M 72.5,77.5 C 73.0998,78.8999 74.0998,79.8999 75.5,80.5C 73.8511,86.6014 72.8511,92.9347 72.5,99.5C 72.6662,93.1579 72.4995,86.8246 72,80.5C 71.6174,81.056 71.1174,81.3893 70.5,81.5C 70.6596,79.847 71.3263,78.5137 72.5,77.5 Z"/></g>
<g><path style="opacity:1" fill="#a7a7a7" d="M 70.5,97.5 C 70.5,93.1667 70.5,88.8333 70.5,84.5C 66.1667,84.5 61.8333,84.5 57.5,84.5C 57.5,88.8333 57.5,93.1667 57.5,97.5C 56.5139,93.03 56.1805,88.3633 56.5,83.5C 61.5,83.5 66.5,83.5 71.5,83.5C 71.8195,88.3633 71.4861,93.03 70.5,97.5 Z"/></g>
<g><path style="opacity:1" fill="#fcfcfc" d="M 55.5,148.5 C 56.8999,149.1 57.8999,150.1 58.5,151.5C 62.1667,151.5 65.8333,151.5 69.5,151.5C 70.1001,150.1 71.1001,149.1 72.5,148.5C 77.6812,150.308 83.0145,151.141 88.5,151C 85.5597,149.848 82.5597,148.848 79.5,148C 91.7974,149.211 103.131,153.211 113.5,160C 115.996,161.331 117.996,163.164 119.5,165.5C 119.5,172.167 119.5,178.833 119.5,185.5C 82.5,185.5 45.5,185.5 8.5,185.5C 8.5,179.167 8.5,172.833 8.5,166.5C 8.85883,164.629 9.85883,163.129 11.5,162C 22.5815,153.892 34.9148,149.226 48.5,148C 45.6728,148.701 43.0062,149.701 40.5,151C 45.5369,150.661 50.5369,149.828 55.5,148.5 Z"/></g>
<g><path style="opacity:1" fill="#232323" d="M 58.5,146.5 C 57.5,147.167 56.5,147.833 55.5,148.5C 50.5369,149.828 45.5369,150.661 40.5,151C 43.0062,149.701 45.6728,148.701 48.5,148C 34.9148,149.226 22.5815,153.892 11.5,162C 9.85883,163.129 8.85883,164.629 8.5,166.5C 7.83333,173.5 7.16667,180.5 6.5,187.5C 6.33362,179.493 6.50029,171.493 7,163.5C 21.9567,150.903 39.1234,145.236 58.5,146.5 Z"/></g>
<g><path style="opacity:1" fill="#818181" d="M 58.5,146.5 C 60.896,148.951 63.896,149.951 67.5,149.5C 67.2852,147.821 67.9519,146.821 69.5,146.5C 70.5,147.167 71.5,147.833 72.5,148.5C 71.1001,149.1 70.1001,150.1 69.5,151.5C 69.6495,150.448 69.4828,149.448 69,148.5C 67.6472,149.704 65.9806,150.371 64,150.5C 62.0194,150.371 60.3528,149.704 59,148.5C 58.5172,149.448 58.3505,150.448 58.5,151.5C 57.8999,150.1 56.8999,149.1 55.5,148.5C 56.5,147.833 57.5,147.167 58.5,146.5 Z"/></g>
<g><path style="opacity:1" fill="#121212" d="M 69.5,151.5 C 65.8333,151.5 62.1667,151.5 58.5,151.5C 58.3505,150.448 58.5172,149.448 59,148.5C 60.3528,149.704 62.0194,150.371 64,150.5C 65.9806,150.371 67.6472,149.704 69,148.5C 69.4828,149.448 69.6495,150.448 69.5,151.5 Z"/></g>
<g><path style="opacity:1" fill="#242424" d="M 121.5,187.5 C 120.833,187.5 120.5,187.167 120.5,186.5C 120.825,179.313 120.491,172.313 119.5,165.5C 117.996,163.164 115.996,161.331 113.5,160C 103.131,153.211 91.7974,149.211 79.5,148C 82.5597,148.848 85.5597,149.848 88.5,151C 83.0145,151.141 77.6812,150.308 72.5,148.5C 71.5,147.833 70.5,147.167 69.5,146.5C 88.8787,145.237 106.045,150.904 121,163.5C 121.5,171.493 121.666,179.493 121.5,187.5 Z"/></g>
<g><path style="opacity:1" fill="#d0d0d0" d="M 119.5,165.5 C 120.491,172.313 120.825,179.313 120.5,186.5C 82.9963,186.832 45.6629,186.498 8.5,185.5C 45.5,185.5 82.5,185.5 119.5,185.5C 119.5,178.833 119.5,172.167 119.5,165.5 Z"/></g>
<g><path style="opacity:1" fill="#484848" d="M 8.5,166.5 C 8.5,172.833 8.5,179.167 8.5,185.5C 45.6629,186.498 82.9963,186.832 120.5,186.5C 120.5,187.167 120.833,187.5 121.5,187.5C 109.011,188.495 96.3443,188.829 83.5,188.5C 83.3336,196.174 83.5003,203.841 84,211.5C 86.3333,213.006 88.5,214.673 90.5,216.5C 88.4622,218.276 86.2955,219.943 84,221.5C 83.1711,226.533 83.3377,231.533 84.5,236.5C 87.1332,237.3 89.1332,238.8 90.5,241C 89.8699,242.31 88.8699,243.144 87.5,243.5C 85.0807,243.195 82.414,243.195 79.5,243.5C 82.1497,242.753 84.8164,241.753 87.5,240.5C 86.4406,239.304 85.1073,238.637 83.5,238.5C 77.8361,240.059 72.1694,241.726 66.5,243.5C 60.5133,244.493 54.5133,245.493 48.5,246.5C 47.0413,246.433 45.7079,246.766 44.5,247.5C 44.6658,242.821 44.4992,238.155 44,233.5C 41.4562,231.998 39.2895,230.164 37.5,228C 39.2902,226.266 41.2902,224.766 43.5,223.5C 44.6609,219.205 44.8275,214.871 44,210.5C 36.8877,207.329 36.7211,203.996 43.5,200.5C 44.4909,196.555 44.8242,192.555 44.5,188.5C 31.6557,188.829 18.989,188.495 6.5,187.5C 7.16667,180.5 7.83333,173.5 8.5,166.5 Z"/></g>
<g><path style="opacity:1" fill="#f2f2f2" d="M 81.5,195.5 C 74.0985,195.64 66.7652,196.307 59.5,197.5C 54.9213,197.153 50.588,197.82 46.5,199.5C 46.5,195.833 46.5,192.167 46.5,188.5C 58.1667,188.5 69.8333,188.5 81.5,188.5C 81.5,190.833 81.5,193.167 81.5,195.5 Z"/></g>
<g><path style="opacity:1" fill="#1a1a1a" d="M 81.5,195.5 C 82.0431,195.56 82.3764,195.893 82.5,196.5C 81.0508,197.172 79.7175,197.839 78.5,198.5C 75.1667,199.833 71.8333,201.167 68.5,202.5C 67.8333,202.5 67.5,202.167 67.5,201.5C 71.4819,200.063 71.1485,199.396 66.5,199.5C 63.5078,199.966 60.5078,200.299 57.5,200.5C 55.8211,200.108 54.1545,199.608 52.5,199C 55.0356,198.814 57.369,198.314 59.5,197.5C 66.7652,196.307 74.0985,195.64 81.5,195.5 Z"/></g>
<g><path style="opacity:1" fill="#f4f4f4" d="M 78.5,198.5 C 79.5,198.5 80.5,198.5 81.5,198.5C 81.8266,203.214 81.4933,207.88 80.5,212.5C 79.5,213 78.5,213.5 77.5,214C 67.2533,215.812 57.2533,218.312 47.5,221.5C 46.3401,217.541 46.1735,213.541 47,209.5C 47.5,209 48,208.5 48.5,208C 55.5478,207.074 62.2145,205.241 68.5,202.5C 71.8333,201.167 75.1667,199.833 78.5,198.5 Z"/></g>
<g><path style="opacity:1" fill="#d2d2d2" d="M 67.5,201.5 C 59.7162,203.029 52.0495,205.029 44.5,207.5C 42.8927,207.363 41.5594,206.696 40.5,205.5C 41,205.167 41.5,204.833 42,204.5C 47.2398,203.025 52.4065,201.692 57.5,200.5C 60.5078,200.299 63.5078,199.966 66.5,199.5C 71.1485,199.396 71.4819,200.063 67.5,201.5 Z"/></g>
<g><path style="opacity:1" fill="#d4d4d4" d="M 82.5,213.5 C 84.3936,214.048 86.0603,215.048 87.5,216.5C 74.9857,219.771 62.319,221.937 49.5,223C 58.6118,220.08 67.9452,217.746 77.5,216C 79.4913,215.626 81.158,214.793 82.5,213.5 Z"/></g>
<g><path style="opacity:1" fill="#d6d6d6" d="M 73.5,221.5 C 75.1992,221.34 76.8659,221.506 78.5,222C 67.0964,224.514 55.7631,227.348 44.5,230.5C 42.0847,230.281 41.0847,228.948 41.5,226.5C 52.3585,225.245 63.0252,223.578 73.5,221.5 Z"/></g>
<g><path style="opacity:1" fill="#f3f3f3" d="M 77.5,223.5 C 78.8333,223.5 80.1667,223.5 81.5,223.5C 81.5,228.167 81.5,232.833 81.5,237.5C 70.1639,240.035 58.8306,242.702 47.5,245.5C 46.3391,241.205 46.1725,236.871 47,232.5C 47.5,232 48,231.5 48.5,231C 58.3599,228.76 68.0266,226.26 77.5,223.5 Z"/></g>
<g><path style="opacity:1" fill="#e6e6e6" d="M 79.5,243.5 C 76.7628,243.401 74.0961,243.735 71.5,244.5C 69.5853,244.784 67.9187,244.451 66.5,243.5C 72.1694,241.726 77.8361,240.059 83.5,238.5C 85.1073,238.637 86.4406,239.304 87.5,240.5C 84.8164,241.753 82.1497,242.753 79.5,243.5 Z"/></g>
<g><path style="opacity:1" fill="#bababa" d="M 66.5,243.5 C 67.9187,244.451 69.5853,244.784 71.5,244.5C 63.6387,246.076 55.6387,247.242 47.5,248C 48.056,247.617 48.3893,247.117 48.5,246.5C 54.5133,245.493 60.5133,244.493 66.5,243.5 Z"/></g>
<g><path style="opacity:1" fill="#2f2f2f" d="M 87.5,243.5 C 86.2794,244.028 85.1127,244.695 84,245.5C 83.1711,250.533 83.3377,255.533 84.5,260.5C 91.1667,263.5 91.1667,266.5 84.5,269.5C 83.3377,274.467 83.1711,279.467 84,284.5C 86.6566,285.573 88.8232,287.24 90.5,289.5C 88.5,291.327 86.3333,292.994 84,294.5C 83.1711,299.533 83.3377,304.533 84.5,309.5C 91.6634,311.95 91.9967,314.616 85.5,317.5C 83.2646,317.795 81.2646,317.461 79.5,316.5C 82.5259,315.826 85.5259,314.993 88.5,314C 87.1072,312.637 85.4405,311.804 83.5,311.5C 71.463,314.606 59.463,317.773 47.5,321C 50.4752,321.044 53.4752,320.877 56.5,320.5C 57.1667,320.5 57.5,320.833 57.5,321.5C 52.8683,322.383 48.2016,323.05 43.5,323.5C 42.5084,323.672 41.8417,323.338 41.5,322.5C 42.172,321.733 43.0053,321.066 44,320.5C 44.6667,315.833 44.6667,311.167 44,306.5C 37.0481,303.226 36.8815,299.892 43.5,296.5C 44.8333,291.5 44.8333,286.5 43.5,281.5C 35.5398,278.402 35.5398,275.402 43.5,272.5C 44.6623,267.533 44.8289,262.533 44,257.5C 35.3169,253.842 35.4836,250.509 44.5,247.5C 45.7079,246.766 47.0413,246.433 48.5,246.5C 48.3893,247.117 48.056,247.617 47.5,248C 55.6387,247.242 63.6387,246.076 71.5,244.5C 74.0961,243.735 76.7628,243.401 79.5,243.5C 82.414,243.195 85.0807,243.195 87.5,243.5 Z"/></g>
<g><path style="opacity:1" fill="#d4d4d4" d="M 81.5,262.5 C 84.0217,262.128 86.0217,262.961 87.5,265C 74.3868,268.73 61.0535,271.063 47.5,272C 59.0747,269.303 70.408,266.136 81.5,262.5 Z"/></g>
<g><path style="opacity:1" fill="#dadada" d="M 73.5,245.5 C 75.5273,245.338 77.5273,245.505 79.5,246C 69.6698,248.967 59.6698,251.3 49.5,253C 46.2625,256.415 43.2625,256.248 40.5,252.5C 51.5001,249.768 62.5001,247.434 73.5,245.5 Z"/></g>
<g><path style="opacity:1" fill="#f3f3f3" d="M 79.5,247.5 C 80.8048,249.397 81.4714,251.731 81.5,254.5C 81.1667,256.833 80.8333,259.167 80.5,261.5C 69.31,264.786 57.9767,267.452 46.5,269.5C 46.2,264.901 46.5333,260.401 47.5,256C 58.2723,253.142 68.939,250.309 79.5,247.5 Z"/></g>
<g><path style="opacity:1" fill="#f4f4f4" d="M 76.5,272.5 C 78.1667,272.5 79.8333,272.5 81.5,272.5C 81.8,277.099 81.4667,281.599 80.5,286C 69.3718,288.409 58.3718,291.242 47.5,294.5C 46.1667,289.833 46.1667,285.167 47.5,280.5C 57.2175,277.565 66.8841,274.899 76.5,272.5 Z"/></g>
<g><path style="opacity:1" fill="#dfdfdf" d="M 75.5,269.5 C 77.1992,269.34 78.8659,269.506 80.5,270C 79.8333,270.333 79.1667,270.667 78.5,271C 66.9275,273.013 55.5941,275.846 44.5,279.5C 42.7923,279.297 41.459,278.464 40.5,277C 43.3634,275.601 46.3634,274.601 49.5,274C 58.3891,272.979 67.0557,271.479 75.5,269.5 Z"/></g>
<g><path style="opacity:1" fill="#e3e3e3" d="M 82.5,286.5 C 84.4233,286.795 86.0899,287.628 87.5,289C 86.6721,289.915 85.6721,290.581 84.5,291C 72.5478,293.326 60.5478,294.993 48.5,296C 60.0753,293.261 71.4086,290.094 82.5,286.5 Z"/></g>
<g><path style="opacity:1" fill="#e0e0e0" d="M 76.5,293.5 C 78.1992,293.34 79.8659,293.506 81.5,294C 69.2176,297.357 56.8842,300.523 44.5,303.5C 39.2515,301.44 39.5849,299.94 45.5,299C 56.0467,297.564 66.3801,295.731 76.5,293.5 Z"/></g>
<g><path style="opacity:1" fill="#f4f4f4" d="M 78.5,296.5 C 79.5,296.5 80.5,296.5 81.5,296.5C 81.8266,301.214 81.4933,305.88 80.5,310.5C 69.2509,313.55 57.9176,316.216 46.5,318.5C 46.1734,313.786 46.5067,309.12 47.5,304.5C 57.9798,301.964 68.3131,299.298 78.5,296.5 Z"/></g>
<g><path style="opacity:1" fill="#dbdbdb" d="M 79.5,316.5 C 71.6524,317.529 63.9857,318.863 56.5,320.5C 53.4752,320.877 50.4752,321.044 47.5,321C 59.463,317.773 71.463,314.606 83.5,311.5C 85.4405,311.804 87.1072,312.637 88.5,314C 85.5259,314.993 82.5259,315.826 79.5,316.5 Z"/></g>
<g><path style="opacity:1" fill="#d9d9d9" d="M 43.5,323.5 C 48.2016,323.05 52.8683,322.383 57.5,321.5C 64.8032,320.146 72.1365,319.313 79.5,319C 67.7853,321.54 56.2853,324.707 45,328.5C 40.0633,327.384 39.5633,325.717 43.5,323.5 Z"/></g>
<g><path style="opacity:1" fill="#3c3c3c" d="M 79.5,316.5 C 81.2646,317.461 83.2646,317.795 85.5,317.5C 83.4667,322.54 82.9667,327.873 84,333.5C 86.6566,334.573 88.8232,336.24 90.5,338.5C 88.4622,340.276 86.2955,341.943 84,343.5C 83.1717,348.202 83.3384,352.869 84.5,357.5C 88.3269,358.436 89.6602,360.603 88.5,364C 86.1013,364.731 83.9347,365.898 82,367.5C 81.1663,371.501 80.333,375.501 79.5,379.5C 80.2256,381.876 81.5589,383.876 83.5,385.5C 81.3131,387.85 78.8131,389.85 76,391.5C 75.039,395.305 74.2056,399.138 73.5,403C 74.0471,405.217 75.0471,407.217 76.5,409C 75.0825,411.638 72.9159,413.472 70,414.5C 69.1203,421.307 66.9536,427.64 63.5,433.5C 62.1038,431.028 61.2704,428.362 61,425.5C 58.4562,423.998 56.2895,422.164 54.5,420C 56.1872,418.147 57.1872,415.981 57.5,413.5C 56.8248,409.799 55.9914,406.132 55,402.5C 47.8946,400.068 46.7279,396.068 51.5,390.5C 50.8248,386.799 49.9914,383.132 49,379.5C 45.8217,378.33 43.3217,376.33 41.5,373.5C 45.4796,368.202 46.4796,362.202 44.5,355.5C 35.8073,352.512 35.474,349.179 43.5,345.5C 44.6623,340.533 44.8289,335.533 44,330.5C 41.5417,329.36 39.375,327.86 37.5,326C 38.2023,324.144 39.5357,322.977 41.5,322.5C 41.8417,323.338 42.5084,323.672 43.5,323.5C 39.5633,325.717 40.0633,327.384 45,328.5C 56.2853,324.707 67.7853,321.54 79.5,319C 72.1365,319.313 64.8032,320.146 57.5,321.5C 57.5,320.833 57.1667,320.5 56.5,320.5C 63.9857,318.863 71.6524,317.529 79.5,316.5 Z"/></g>
<g><path style="opacity:1" fill="#d2d2d2" d="M 71.5,407.5 C 73.9424,407.354 74.6091,408.187 73.5,410C 71.3502,411.59 69.0168,412.257 66.5,412C 68.6175,410.951 70.2842,409.451 71.5,407.5 Z"/></g>
<g><path style="opacity:1" fill="#eeeeee" d="M 71.5,392.5 C 72.4972,392.47 73.1639,392.97 73.5,394C 72.207,398.132 71.0403,402.299 70,406.5C 66.9223,408.955 63.7556,411.289 60.5,413.5C 58.3805,409.022 57.2139,404.356 57,399.5C 61.7896,396.86 66.6229,394.527 71.5,392.5 Z"/></g>
<g><path style="opacity:1" fill="#cfcfcf" d="M 64.5,391.5 C 66.1992,391.34 67.8659,391.506 69.5,392C 66.0072,393.791 62.3405,395.124 58.5,396C 56.6942,396.81 55.1942,397.976 54,399.5C 49.4137,397.562 49.5804,395.728 54.5,394C 58.0382,393.465 61.3716,392.632 64.5,391.5 Z"/></g>
<g><path style="opacity:1" fill="#c3c3c3" d="M 77.5,383.5 C 78.5,383.5 79.5,383.5 80.5,383.5C 80.5,384.5 80.5,385.5 80.5,386.5C 75.927,387.978 71.2603,388.811 66.5,389C 70.566,387.821 74.2327,385.988 77.5,383.5 Z"/></g>
<g><path style="opacity:1" fill="#d2d2d2" d="M 73.5,366.5 C 75.5273,366.338 77.5273,366.505 79.5,367C 78.8333,367.333 78.1667,367.667 77.5,368C 67.3027,369.805 57.3027,372.305 47.5,375.5C 45.9996,375.547 44.9996,374.881 44.5,373.5C 45.714,371.931 47.3807,371.098 49.5,371C 57.6966,369.811 65.6966,368.311 73.5,366.5 Z"/></g>
<g><path style="opacity:1" fill="#f5f5f5" d="M 75.5,369.5 C 76.8333,369.5 78.1667,369.5 79.5,369.5C 79.2781,374.332 77.9448,378.832 75.5,383C 68.3534,386.118 61.0201,388.618 53.5,390.5C 53.128,386.345 52.128,382.345 50.5,378.5C 50.6082,377.558 50.9415,376.725 51.5,376C 57.6519,373.879 63.9852,372.546 70.5,372C 72.4913,371.626 74.158,370.793 75.5,369.5 Z"/></g>
<g><path style="opacity:1" fill="#cecece" d="M 82.5,359.5 C 84.4835,359.383 86.1502,360.05 87.5,361.5C 86.9747,362.192 86.3081,362.692 85.5,363C 76.5621,365.102 67.5621,366.435 58.5,367C 64.1891,365.774 69.8558,364.441 75.5,363C 78.0691,362.102 80.4024,360.935 82.5,359.5 Z"/></g>
<g><path style="opacity:1" fill="#f5f5f5" d="M 78.5,345.5 C 79.5,345.5 80.5,345.5 81.5,345.5C 81.8256,349.884 81.4922,354.217 80.5,358.5C 78.8333,359.333 77.1667,360.167 75.5,361C 66.0521,362.85 56.7188,365.017 47.5,367.5C 46.6695,362.926 46.6695,358.426 47.5,354C 57.9001,350.986 68.2335,348.153 78.5,345.5 Z"/></g>
<g><path style="opacity:1" fill="#d5d5d5" d="M 71.5,343.5 C 73.8568,343.337 76.1902,343.503 78.5,344C 68.2265,346.588 57.8932,348.921 47.5,351C 45.088,354.162 42.7546,353.995 40.5,350.5C 41.714,348.931 43.3807,348.098 45.5,348C 54.3248,346.586 62.9914,345.086 71.5,343.5 Z"/></g>
<g><path style="opacity:1" fill="#cfcfcf" d="M 82.5,335.5 C 84.3936,336.048 86.0603,337.048 87.5,338.5C 74.7754,342.372 61.7754,344.539 48.5,345C 58.038,342.159 67.7046,339.826 77.5,338C 79.4913,337.626 81.158,336.793 82.5,335.5 Z"/></g>
<g><path style="opacity:1" fill="#b0b0b0" d="M 47.5,329.5 C 46.9031,334.294 47.5698,338.627 49.5,342.5C 48.791,343.404 47.791,343.737 46.5,343.5C 46.1805,338.637 46.5139,333.97 47.5,329.5 Z"/></g>
<g><path style="opacity:1" fill="#f6f6f6" d="M 49.5,342.5 C 47.5698,338.627 46.9031,334.294 47.5,329.5C 58.3983,326.644 69.3983,323.644 80.5,320.5C 81.8023,325.385 81.8023,330.218 80.5,335C 70.1214,337.419 59.7881,339.919 49.5,342.5 Z"/></g>
<g><path style="opacity:1" fill="#cecece" d="M 62.5,415.5 C 63.552,415.351 64.552,415.517 65.5,416C 63.8333,417.667 62.1667,419.333 60.5,421C 58.9262,421.699 57.5929,421.365 56.5,420C 58.3893,418.236 60.3893,416.736 62.5,415.5 Z"/></g>
<g><path style="opacity:1" fill="#dfdfdf" d="M 64.5,418.5 C 65.4972,418.47 66.1639,418.97 66.5,420C 65.6667,422.5 64.8333,425 64,427.5C 62.0286,424.384 62.1953,421.384 64.5,418.5 Z"/></g>
</svg>
