<?xml version="1.0" encoding="UTF-8"?>
<!DOCTYPE svg PUBLIC "-//W3C//DTD SVG 1.1//EN" "http://www.w3.org/Graphics/SVG/1.1/DTD/svg11.dtd">
<svg xmlns="http://www.w3.org/2000/svg" version="1.1" width="217px" height="356px" style="shape-rendering:geometricPrecision; text-rendering:geometricPrecision; image-rendering:optimizeQuality; fill-rule:evenodd; clip-rule:evenodd" xmlns:xlink="http://www.w3.org/1999/xlink">
<g><path style="opacity:1" fill="#fdfdfd" d="M -0.5,-0.5 C 71.8333,-0.5 144.167,-0.5 216.5,-0.5C 216.5,118.167 216.5,236.833 216.5,355.5C 144.167,355.5 71.8333,355.5 -0.5,355.5C -0.5,236.833 -0.5,118.167 -0.5,-0.5 Z"/></g>
<g><path style="opacity:1" fill="#0e0e0e" d="M 99.5,9.5 C 104.167,9.5 108.833,9.5 113.5,9.5C 112.167,10.1667 110.833,10.8333 109.5,11.5C 108.506,21.6532 108.172,31.9865 108.5,42.5C 107.209,42.7373 106.209,42.404 105.5,41.5C 105.5,31.1667 105.5,20.8333 105.5,10.5C 103.265,10.7947 101.265,10.4614 99.5,9.5 Z"/></g>
<g><path style="opacity:1" fill="#fbfbfb" d="M 104.5,41.5 C 101.15,41.335 97.8168,41.5017 94.5,42C 93.2625,42.2321 92.2625,42.7321 91.5,43.5C 69.2094,48.9416 53.376,62.275 44,83.5C 33.8075,117.252 42.6409,144.752 70.5,166C 79.0826,171.472 88.416,174.638 98.5,175.5C 101.314,176.165 104.314,176.498 107.5,176.5C 111.797,176.722 115.797,176.055 119.5,174.5C 153.162,165.489 171.162,143.489 173.5,108.5C 172.943,84.2123 162.609,65.379 142.5,52C 136.159,48.3274 129.492,45.4941 122.5,43.5C 119.073,42.0441 115.406,41.0441 111.5,40.5C 110.502,31.1904 110.168,21.8571 110.5,12.5C 113.5,12.5 116.5,12.5 119.5,12.5C 157.94,18.9737 184.44,40.3071 199,76.5C 209.425,111.979 203.091,143.979 180,172.5C 165.913,187.793 148.747,197.793 128.5,202.5C 117.914,204.194 107.247,204.86 96.5,204.5C 69.5651,201.569 47.5651,189.569 30.5,168.5C 2.36102,128.052 2.52768,87.7185 31,47.5C 35.6979,41.6366 40.8646,36.3033 46.5,31.5C 63.5519,18.7032 82.8852,12.0365 104.5,11.5C 104.5,21.5 104.5,31.5 104.5,41.5 Z"/></g>
<g><path style="opacity:1" fill="#d9d9d9" d="M 109.5,11.5 C 113.042,11.1872 116.375,11.5206 119.5,12.5C 116.5,12.5 113.5,12.5 110.5,12.5C 110.168,21.8571 110.502,31.1904 111.5,40.5C 115.406,41.0441 119.073,42.0441 122.5,43.5C 118.202,42.8005 113.869,42.4672 109.5,42.5C 109.5,32.1667 109.5,21.8333 109.5,11.5 Z"/></g>
<g><path style="opacity:1" fill="#454545" d="M 99.5,9.5 C 101.265,10.4614 103.265,10.7947 105.5,10.5C 105.5,20.8333 105.5,31.1667 105.5,41.5C 105.167,41.5 104.833,41.5 104.5,41.5C 104.5,31.5 104.5,21.5 104.5,11.5C 82.8852,12.0365 63.5519,18.7032 46.5,31.5C 45.8333,31.5 45.1667,31.5 44.5,31.5C 60.1177,17.8738 78.451,10.5405 99.5,9.5 Z"/></g>
<g><path style="opacity:1" fill="#7b7b7b" d="M 104.5,41.5 C 100.343,42.4489 96.0102,43.1156 91.5,43.5C 92.2625,42.7321 93.2625,42.2321 94.5,42C 97.8168,41.5017 101.15,41.335 104.5,41.5 Z"/></g>
<g><path style="opacity:1" fill="#252525" d="M 44.5,31.5 C 45.1667,31.5 45.8333,31.5 46.5,31.5C 40.8646,36.3033 35.6979,41.6366 31,47.5C 2.52768,87.7185 2.36102,128.052 30.5,168.5C 29.8333,168.5 29.5,168.833 29.5,169.5C 13.4225,149.089 6.25582,125.755 8,99.5C 11.0466,71.7289 23.2132,49.0622 44.5,31.5 Z"/></g>
<g><path style="opacity:1" fill="#2a2a2a" d="M 113.5,9.5 C 155.735,14.2411 184.901,36.2411 201,75.5C 213.489,121.028 201.656,158.861 165.5,189C 155.249,195.793 144.249,200.959 132.5,204.5C 127.609,205.01 122.942,206.01 118.5,207.5C 114.5,207.5 110.5,207.5 106.5,207.5C 108.5,206.833 110.5,206.167 112.5,205.5C 117.196,205.329 121.863,204.829 126.5,204C 127.416,203.722 128.082,203.222 128.5,202.5C 148.747,197.793 165.913,187.793 180,172.5C 203.091,143.979 209.425,111.979 199,76.5C 184.44,40.3071 157.94,18.9737 119.5,12.5C 116.375,11.5206 113.042,11.1872 109.5,11.5C 110.833,10.8333 112.167,10.1667 113.5,9.5 Z"/></g>
<g><path style="opacity:1" fill="#2e2e2e" d="M 109.5,11.5 C 109.5,21.8333 109.5,32.1667 109.5,42.5C 113.869,42.4672 118.202,42.8005 122.5,43.5C 129.492,45.4941 136.159,48.3274 142.5,52C 162.609,65.379 172.943,84.2123 173.5,108.5C 171.162,143.489 153.162,165.489 119.5,174.5C 112.535,175.341 105.535,175.674 98.5,175.5C 88.416,174.638 79.0826,171.472 70.5,166C 42.6409,144.752 33.8075,117.252 44,83.5C 53.376,62.275 69.2094,48.9416 91.5,43.5C 96.0102,43.1156 100.343,42.4489 104.5,41.5C 104.833,41.5 105.167,41.5 105.5,41.5C 106.209,42.404 107.209,42.7373 108.5,42.5C 108.172,31.9865 108.506,21.6532 109.5,11.5 Z"/></g>
<g><path style="opacity:1" fill="#fdfdfd" d="M 114.5,44.5 C 149.218,51.2202 168.218,72.2202 171.5,107.5C 169.185,143.469 150.518,165.135 115.5,172.5C 107.149,172.518 98.8156,172.185 90.5,171.5C 64.6709,164.501 48.8375,147.834 43,121.5C 38.4236,84.8111 53.2569,59.6444 87.5,46C 88.7932,45.51 90.1266,45.3433 91.5,45.5C 99.1499,44.8567 106.817,44.5234 114.5,44.5 Z"/></g>
<g><path style="opacity:1" fill="#a0a0a0" d="M 114.5,44.5 C 106.817,44.5234 99.1499,44.8567 91.5,45.5C 96.0882,44.0722 100.921,43.4055 106,43.5C 109.021,43.5022 111.854,43.8356 114.5,44.5 Z"/></g>
<g><path style="opacity:1" fill="#bababa" d="M 90.5,171.5 C 98.8156,172.185 107.149,172.518 115.5,172.5C 112.183,173.165 108.683,173.499 105,173.5C 99.8979,173.707 95.0645,173.04 90.5,171.5 Z"/></g>
<g><path style="opacity:1" fill="#b1b1b1" d="M 119.5,174.5 C 115.797,176.055 111.797,176.722 107.5,176.5C 104.314,176.498 101.314,176.165 98.5,175.5C 105.535,175.674 112.535,175.341 119.5,174.5 Z"/></g>
<g><path style="opacity:1" fill="#373737" d="M 30.5,168.5 C 47.5651,189.569 69.5651,201.569 96.5,204.5C 101.64,205.488 106.974,205.821 112.5,205.5C 110.5,206.167 108.5,206.833 106.5,207.5C 74.586,207.376 48.9193,194.709 29.5,169.5C 29.5,168.833 29.8333,168.5 30.5,168.5 Z"/></g>
<g><path style="opacity:1" fill="#939393" d="M 128.5,202.5 C 128.082,203.222 127.416,203.722 126.5,204C 121.863,204.829 117.196,205.329 112.5,205.5C 106.974,205.821 101.64,205.488 96.5,204.5C 107.247,204.86 117.914,204.194 128.5,202.5 Z"/></g>
<g><path style="opacity:1" fill="#bfbfbf" d="M 132.5,204.5 C 132.389,205.117 132.056,205.617 131.5,206C 127.23,207.075 122.897,207.575 118.5,207.5C 122.942,206.01 127.609,205.01 132.5,204.5 Z"/></g>
<g><path style="opacity:1" fill="#fafafa" d="M 104.5,276.5 C 103.806,281.805 103.472,287.138 103.5,292.5C 102.515,296.634 102.182,300.968 102.5,305.5C 95.8639,307.241 88.8639,308.241 81.5,308.5C 77.2984,308.183 73.2984,308.517 69.5,309.5C 49.4021,310.141 29.4021,311.808 9.5,314.5C 8.87297,304.074 9.53963,293.907 11.5,284C 42.3726,280.099 73.3726,277.599 104.5,276.5 Z"/></g>
<g><path style="opacity:1" fill="#242424" d="M 106.5,282.5 C 105.833,280.5 105.167,278.5 104.5,276.5C 73.3726,277.599 42.3726,280.099 11.5,284C 9.53963,293.907 8.87297,304.074 9.5,314.5C 29.4021,311.808 49.4021,310.141 69.5,309.5C 73.1817,309.335 76.8484,309.501 80.5,310C 78.6183,310.198 76.9516,310.698 75.5,311.5C 63.2571,311.897 51.2571,313.231 39.5,315.5C 37.5714,315.231 35.9047,315.731 34.5,317C 40.0488,318.677 45.7155,319.51 51.5,319.5C 55.1185,320.244 58.7852,320.577 62.5,320.5C 69.3088,321.652 76.3088,322.319 83.5,322.5C 84.8333,322.5 86.1667,322.5 87.5,322.5C 92.9942,323.365 98.6609,324.031 104.5,324.5C 106.045,324.489 107.378,324.156 108.5,323.5C 109.056,320.882 109.723,318.882 110.5,317.5C 110.084,322.493 109.751,327.493 109.5,332.5C 108.833,330.5 108.167,328.5 107.5,326.5C 81.9522,325.155 56.2855,323.488 30.5,321.5C 28.7078,320.691 26.7078,320.191 24.5,320C 28.6398,319.979 31.3065,319.479 32.5,318.5C 31.3157,317.312 31.3157,316.145 32.5,315C 27.3158,314.184 22.3158,314.35 17.5,315.5C 15.712,315.215 14.0453,315.548 12.5,316.5C 16.0275,317.921 19.6942,318.588 23.5,318.5C 21.3926,319.468 19.0593,319.802 16.5,319.5C 13.6592,319.44 10.9925,318.774 8.5,317.5C 7.52343,306.581 7.19009,295.581 7.5,284.5C 8.05773,283.21 9.05773,282.377 10.5,282C 42.3603,277.947 74.3603,275.447 106.5,274.5C 106.5,277.167 106.5,279.833 106.5,282.5 Z"/></g>
<g><path style="opacity:1" fill="#636363" d="M 104.5,276.5 C 105.167,278.5 105.833,280.5 106.5,282.5C 106.5,285.5 106.5,288.5 106.5,291.5C 105.686,289.369 105.186,287.036 105,284.5C 104.817,287.365 104.317,290.031 103.5,292.5C 103.472,287.138 103.806,281.805 104.5,276.5 Z"/></g>
<g><path style="opacity:1" fill="#bfbfbf" d="M 7.5,284.5 C 7.19009,295.581 7.52343,306.581 8.5,317.5C 7.17144,312.376 6.50478,306.876 6.5,301C 6.50057,295.323 6.8339,289.823 7.5,284.5 Z"/></g>
<g><path style="opacity:1" fill="#242424" d="M 106.5,291.5 C 119.833,292.167 133.167,292.833 146.5,293.5C 154.314,294.631 162.314,295.298 170.5,295.5C 174.452,296.272 178.452,296.605 182.5,296.5C 180.369,297.314 178.036,297.814 175.5,298C 177.595,298.556 177.762,299.056 176,299.5C 172.895,298.633 169.728,298.299 166.5,298.5C 148.832,297.167 131.166,295.833 113.5,294.5C 105.674,291.316 102.674,293.982 104.5,302.5C 103.521,299.375 103.187,296.042 103.5,292.5C 104.317,290.031 104.817,287.365 105,284.5C 105.186,287.036 105.686,289.369 106.5,291.5 Z"/></g>
<g><path style="opacity:1" fill="#c9c9c9" d="M 146.5,293.5 C 153.841,293.334 161.174,293.5 168.5,294C 169.416,294.278 170.082,294.778 170.5,295.5C 162.314,295.298 154.314,294.631 146.5,293.5 Z"/></g>
<g><path style="opacity:1" fill="#a5a5a5" d="M 113.5,294.5 C 111.076,294.192 108.743,294.526 106.5,295.5C 105.896,299.303 105.23,302.969 104.5,306.5C 104.5,305.167 104.5,303.833 104.5,302.5C 102.674,293.982 105.674,291.316 113.5,294.5 Z"/></g>
<g><path style="opacity:1" fill="#f6f6f6" d="M 113.5,294.5 C 131.166,295.833 148.832,297.167 166.5,298.5C 170.021,299.371 173.688,300.205 177.5,301C 176.263,301.232 175.263,301.732 174.5,302.5C 156.865,304.467 139.199,306.133 121.5,307.5C 117.629,307.185 113.962,307.518 110.5,308.5C 108.855,313.234 108.189,318.234 108.5,323.5C 101.543,322.614 94.5433,322.28 87.5,322.5C 86.1667,322.5 84.8333,322.5 83.5,322.5C 82.3915,321.71 81.0581,321.21 79.5,321C 73.8431,320.501 68.1764,320.334 62.5,320.5C 58.7852,320.577 55.1185,320.244 51.5,319.5C 47.5,318.167 43.5,316.833 39.5,315.5C 51.2571,313.231 63.2571,311.897 75.5,311.5C 81.6985,311.348 87.6985,310.682 93.5,309.5C 96.8333,309.5 100.167,309.5 103.5,309.5C 104.404,308.791 104.737,307.791 104.5,306.5C 105.23,302.969 105.896,299.303 106.5,295.5C 108.743,294.526 111.076,294.192 113.5,294.5 Z"/></g>
<g><path style="opacity:1" fill="#bfbfbf" d="M 186.5,296.5 C 190.971,295.911 194.971,296.577 198.5,298.5C 194.316,298.149 190.316,297.482 186.5,296.5 Z"/></g>
<g><path style="opacity:1" fill="#111111" d="M 200.5,299.5 C 202.698,299.12 204.365,299.787 205.5,301.5C 205.828,312.014 205.494,322.347 204.5,332.5C 204.5,322.5 204.5,312.5 204.5,302.5C 203.5,302.5 202.5,302.5 201.5,302.5C 201.436,301.635 201.103,300.635 200.5,299.5 Z"/></g>
<g><path style="opacity:1" fill="#606060" d="M 103.5,292.5 C 103.187,296.042 103.521,299.375 104.5,302.5C 104.5,303.833 104.5,305.167 104.5,306.5C 104.737,307.791 104.404,308.791 103.5,309.5C 103.768,307.901 103.434,306.568 102.5,305.5C 102.182,300.968 102.515,296.634 103.5,292.5 Z"/></g>
<g><path style="opacity:1" fill="#313131" d="M 182.5,296.5 C 183.833,296.5 185.167,296.5 186.5,296.5C 190.316,297.482 194.316,298.149 198.5,298.5C 199.492,298.328 200.158,298.662 200.5,299.5C 201.103,300.635 201.436,301.635 201.5,302.5C 201.5,302.833 201.5,303.167 201.5,303.5C 195.531,304.385 189.531,305.052 183.5,305.5C 179.731,304.974 176.731,303.974 174.5,302.5C 175.263,301.732 176.263,301.232 177.5,301C 173.688,300.205 170.021,299.371 166.5,298.5C 169.728,298.299 172.895,298.633 176,299.5C 177.762,299.056 177.595,298.556 175.5,298C 178.036,297.814 180.369,297.314 182.5,296.5 Z"/></g>
<g><path style="opacity:1" fill="#e9e9e9" d="M 179.5,299.5 C 180.622,298.844 181.955,298.511 183.5,298.5C 188.85,299.225 194.183,300.058 199.5,301C 193.309,302.899 186.976,303.565 180.5,303C 181.985,301.244 181.652,300.077 179.5,299.5 Z"/></g>
<g><path style="opacity:1" fill="#969696" d="M 201.5,303.5 C 201.5,303.167 201.5,302.833 201.5,302.5C 202.5,302.5 203.5,302.5 204.5,302.5C 204.5,312.5 204.5,322.5 204.5,332.5C 204.167,332.5 203.833,332.5 203.5,332.5C 204.14,322.442 203.473,312.775 201.5,303.5 Z"/></g>
<g><path style="opacity:1" fill="#fbfbfb" d="M 201.5,303.5 C 203.473,312.775 204.14,322.442 203.5,332.5C 202.737,333.268 201.737,333.768 200.5,334C 192.187,335.098 183.854,335.931 175.5,336.5C 168.595,336.207 161.928,336.874 155.5,338.5C 144.504,338.944 133.504,339.278 122.5,339.5C 118.5,339.5 114.5,339.5 110.5,339.5C 110.873,329.812 111.54,320.145 112.5,310.5C 120.374,310.539 128.04,309.872 135.5,308.5C 151.535,307.919 167.535,306.919 183.5,305.5C 189.531,305.052 195.531,304.385 201.5,303.5 Z"/></g>
<g><path style="opacity:1" fill="#1b1b1b" d="M 174.5,302.5 C 176.731,303.974 179.731,304.974 183.5,305.5C 167.535,306.919 151.535,307.919 135.5,308.5C 130.637,308.819 125.97,308.486 121.5,307.5C 139.199,306.133 156.865,304.467 174.5,302.5 Z"/></g>
<g><path style="opacity:1" fill="#2e2e2e" d="M 102.5,305.5 C 103.434,306.568 103.768,307.901 103.5,309.5C 100.167,309.5 96.8333,309.5 93.5,309.5C 89.2984,309.817 85.2984,309.483 81.5,308.5C 88.8639,308.241 95.8639,307.241 102.5,305.5 Z"/></g>
<g><path style="opacity:1" fill="#494949" d="M 69.5,309.5 C 73.2984,308.517 77.2984,308.183 81.5,308.5C 85.2984,309.483 89.2984,309.817 93.5,309.5C 87.6985,310.682 81.6985,311.348 75.5,311.5C 76.9516,310.698 78.6183,310.198 80.5,310C 76.8484,309.501 73.1817,309.335 69.5,309.5 Z"/></g>
<g><path style="opacity:1" fill="#121212" d="M 110.5,308.5 C 113.85,308.335 117.183,308.502 120.5,309C 117.635,309.183 114.969,309.683 112.5,310.5C 111.596,311.209 111.263,312.209 111.5,313.5C 110.549,312.081 110.216,310.415 110.5,308.5 Z"/></g>
<g><path style="opacity:1" fill="#545454" d="M 110.5,308.5 C 113.962,307.518 117.629,307.185 121.5,307.5C 125.97,308.486 130.637,308.819 135.5,308.5C 128.04,309.872 120.374,310.539 112.5,310.5C 114.969,309.683 117.635,309.183 120.5,309C 117.183,308.502 113.85,308.335 110.5,308.5 Z"/></g>
<g><path style="opacity:1" fill="#ebebeb" d="M 32.5,318.5 C 30.5,318.5 28.5,318.5 26.5,318.5C 23.3533,317.954 20.3533,316.954 17.5,315.5C 22.3158,314.35 27.3158,314.184 32.5,315C 31.3157,316.145 31.3157,317.312 32.5,318.5 Z"/></g>
<g><path style="opacity:1" fill="#afafaf" d="M 17.5,315.5 C 20.3533,316.954 23.3533,317.954 26.5,318.5C 25.5,318.5 24.5,318.5 23.5,318.5C 19.6942,318.588 16.0275,317.921 12.5,316.5C 14.0453,315.548 15.712,315.215 17.5,315.5 Z"/></g>
<g><path style="opacity:1" fill="#c5c5c5" d="M 39.5,315.5 C 43.5,316.833 47.5,318.167 51.5,319.5C 45.7155,319.51 40.0488,318.677 34.5,317C 35.9047,315.731 37.5714,315.231 39.5,315.5 Z"/></g>
<g><path style="opacity:1" fill="#b4b4b4" d="M 112.5,310.5 C 111.54,320.145 110.873,329.812 110.5,339.5C 114.5,339.5 118.5,339.5 122.5,339.5C 118.366,340.485 114.032,340.818 109.5,340.5C 109.5,337.833 109.5,335.167 109.5,332.5C 109.751,327.493 110.084,322.493 110.5,317.5C 111.434,316.432 111.768,315.099 111.5,313.5C 111.263,312.209 111.596,311.209 112.5,310.5 Z"/></g>
<g><path style="opacity:1" fill="#676767" d="M 23.5,318.5 C 24.5,318.5 25.5,318.5 26.5,318.5C 28.5,318.5 30.5,318.5 32.5,318.5C 31.3065,319.479 28.6398,319.979 24.5,320C 26.7078,320.191 28.7078,320.691 30.5,321.5C 25.6093,321.468 20.9426,320.801 16.5,319.5C 19.0593,319.802 21.3926,319.468 23.5,318.5 Z"/></g>
<g><path style="opacity:1" fill="#adadad" d="M 62.5,320.5 C 68.1764,320.334 73.8431,320.501 79.5,321C 81.0581,321.21 82.3915,321.71 83.5,322.5C 76.3088,322.319 69.3088,321.652 62.5,320.5 Z"/></g>
<g><path style="opacity:1" fill="#6d6d6d" d="M 110.5,308.5 C 110.216,310.415 110.549,312.081 111.5,313.5C 111.768,315.099 111.434,316.432 110.5,317.5C 109.723,318.882 109.056,320.882 108.5,323.5C 108.189,318.234 108.855,313.234 110.5,308.5 Z"/></g>
<g><path style="opacity:1" fill="#a8a8a8" d="M 87.5,322.5 C 94.5433,322.28 101.543,322.614 108.5,323.5C 107.378,324.156 106.045,324.489 104.5,324.5C 98.6609,324.031 92.9942,323.365 87.5,322.5 Z"/></g>
<g><path style="opacity:1" fill="#444444" d="M 205.5,301.5 C 206.659,311.992 206.825,322.659 206,333.5C 203.443,335.189 200.609,336.356 197.5,337C 171.51,339.071 145.51,340.904 119.5,342.5C 115.5,342.5 111.5,342.5 107.5,342.5C 107.5,340.167 107.5,337.833 107.5,335.5C 107.5,332.5 107.5,329.5 107.5,326.5C 108.167,328.5 108.833,330.5 109.5,332.5C 109.5,335.167 109.5,337.833 109.5,340.5C 114.032,340.818 118.366,340.485 122.5,339.5C 133.504,339.278 144.504,338.944 155.5,338.5C 162.374,338.479 169.041,337.813 175.5,336.5C 183.854,335.931 192.187,335.098 200.5,334C 201.737,333.768 202.737,333.268 203.5,332.5C 203.833,332.5 204.167,332.5 204.5,332.5C 205.494,322.347 205.828,312.014 205.5,301.5 Z"/></g>
<g><path style="opacity:1" fill="#7e7e7e" d="M 175.5,336.5 C 169.041,337.813 162.374,338.479 155.5,338.5C 161.928,336.874 168.595,336.207 175.5,336.5 Z"/></g>
<g><path style="opacity:1" fill="#adadad" d="M 107.5,335.5 C 107.5,337.833 107.5,340.167 107.5,342.5C 111.5,342.5 115.5,342.5 119.5,342.5C 115.03,343.486 110.363,343.819 105.5,343.5C 105.802,340.627 106.469,337.961 107.5,335.5 Z"/></g>
</svg>
