<?xml version="1.0" encoding="UTF-8"?>
<!DOCTYPE svg PUBLIC "-//W3C//DTD SVG 1.1//EN" "http://www.w3.org/Graphics/SVG/1.1/DTD/svg11.dtd">
<svg xmlns="http://www.w3.org/2000/svg" version="1.1" width="134px" height="433px" style="shape-rendering:geometricPrecision; text-rendering:geometricPrecision; image-rendering:optimizeQuality; fill-rule:evenodd; clip-rule:evenodd" xmlns:xlink="http://www.w3.org/1999/xlink">
<g><path style="opacity:1" fill="#fcfcfc" d="M -0.5,-0.5 C 44.1667,-0.5 88.8333,-0.5 133.5,-0.5C 133.5,143.833 133.5,288.167 133.5,432.5C 88.8333,432.5 44.1667,432.5 -0.5,432.5C -0.5,288.167 -0.5,143.833 -0.5,-0.5 Z"/></g>
<g><path style="opacity:1" fill="#bababa" d="M 79.5,3.5 C 70.5,2.16667 61.5,2.16667 52.5,3.5C 53.2625,2.73209 54.2625,2.23209 55.5,2C 62.5,1.33333 69.5,1.33333 76.5,2C 77.7375,2.23209 78.7375,2.73209 79.5,3.5 Z"/></g>
<g><path style="opacity:1" fill="#a6a6a6" d="M 8.5,50.5 C 8.3018,58.5341 8.63514,66.5341 9.5,74.5C 8.73209,73.7375 8.23209,72.7375 8,71.5C 7.17874,64.3209 7.3454,57.3209 8.5,50.5 Z"/></g>
<g><path style="opacity:1" fill="#282828" d="M 79.5,3.5 C 113.277,16.3736 126.777,40.7069 120,76.5C 108.404,105.559 86.9042,118.726 55.5,116C 32.0508,111.046 16.7175,97.2127 9.5,74.5C 8.63514,66.5341 8.3018,58.5341 8.5,50.5C 11.1041,33.8095 19.4374,20.6429 33.5,11C 39.6004,7.95127 45.9337,5.45127 52.5,3.5C 61.5,2.16667 70.5,2.16667 79.5,3.5 Z"/></g>
<g><path style="opacity:1" fill="#fafafa" d="M 53.5,4.5 C 81.9368,1.46479 102.77,12.4648 116,37.5C 124.415,62.2561 119.249,83.7561 100.5,102C 78.7828,117.424 56.4495,118.424 33.5,105C 11.8079,86.9206 5.30792,64.4206 14,37.5C 22.2413,20.4111 35.4079,9.41112 53.5,4.5 Z"/></g>
<g><path style="opacity:1" fill="#858585" d="M 56.5,76.5 C 59.1144,79.9681 60.1144,83.9681 59.5,88.5C 63.1667,88.5 66.8333,88.5 70.5,88.5C 70.1588,84.8405 70.8255,81.5072 72.5,78.5C 71.8857,82.1352 71.5524,85.8019 71.5,89.5C 67.1667,89.5 62.8333,89.5 58.5,89.5C 58.5745,85.0192 57.9079,80.6859 56.5,76.5 Z"/></g>
<g><path style="opacity:1" fill="#252525" d="M 94.5,53.5 C 94.5,57.5 94.5,61.5 94.5,65.5C 91.1501,65.335 87.8168,65.5017 84.5,66C 83.944,66.3826 83.6107,66.8826 83.5,67.5C 78.1887,69.478 74.522,73.1446 72.5,78.5C 70.8255,81.5072 70.1588,84.8405 70.5,88.5C 66.8333,88.5 63.1667,88.5 59.5,88.5C 60.1144,83.9681 59.1144,79.9681 56.5,76.5C 53.8279,70.9983 49.4945,67.665 43.5,66.5C 41.0521,65.5269 38.3854,65.1936 35.5,65.5C 35.5,61.5 35.5,57.5 35.5,53.5C 50.705,52.6299 58.3716,44.6299 58.5,29.5C 62.5,29.5 66.5,29.5 70.5,29.5C 70.9015,45.235 78.9015,53.235 94.5,53.5 Z"/></g>
<g><path style="opacity:1" fill="#a7a7a7" d="M 61.5,81.5 C 63.8333,81.5 66.1667,81.5 68.5,81.5C 68.5,83.5 68.5,85.5 68.5,87.5C 66.1667,87.5 63.8333,87.5 61.5,87.5C 61.5,85.5 61.5,83.5 61.5,81.5 Z"/></g>
<g><path style="opacity:1" fill="#fbfbfb" d="M 62.5,82.5 C 64.1667,82.5 65.8333,82.5 67.5,82.5C 67.5,83.8333 67.5,85.1667 67.5,86.5C 65.8333,86.5 64.1667,86.5 62.5,86.5C 62.5,85.1667 62.5,83.8333 62.5,82.5 Z"/></g>
<g><path style="opacity:1" fill="#9d9d9d" d="M 79.5,64.5 C 80.552,64.3505 81.552,64.5172 82.5,65C 77.6933,67.5616 74.0266,71.2283 71.5,76C 70.8333,76.6667 70.1667,76.6667 69.5,76C 71.9815,71.3568 75.3149,67.5234 79.5,64.5 Z"/></g>
<g><path style="opacity:1" fill="#9c9c9c" d="M 47.5,65.5 C 49.0894,64.3789 50.7561,64.5456 52.5,66C 54.3333,67.8333 56.1667,69.6667 58,71.5C 59.1871,73.0444 59.5205,74.7111 59,76.5C 56.6152,71.2811 52.7818,67.6144 47.5,65.5 Z"/></g>
<g><path style="opacity:1" fill="#a2a2a2" d="M 94.5,53.5 C 95.4849,57.6344 95.8182,61.9677 95.5,66.5C 91.4338,66.307 87.4338,66.6403 83.5,67.5C 83.6107,66.8826 83.944,66.3826 84.5,66C 87.8168,65.5017 91.1501,65.335 94.5,65.5C 94.5,61.5 94.5,57.5 94.5,53.5 Z"/></g>
<g><path style="opacity:1" fill="#b0b0b0" d="M 35.5,53.5 C 35.5,57.5 35.5,61.5 35.5,65.5C 38.3854,65.1936 41.0521,65.5269 43.5,66.5C 40.5,66.5 37.5,66.5 34.5,66.5C 34.1818,61.9677 34.5151,57.6344 35.5,53.5 Z"/></g>
<g><path style="opacity:1" fill="#9b9b9b" d="M 39.5,62.5 C 38.791,63.404 37.791,63.7373 36.5,63.5C 36.5,60.8333 36.5,58.1667 36.5,55.5C 38.5,55.5 40.5,55.5 42.5,55.5C 42.5,57.8333 42.5,60.1667 42.5,62.5C 41.5,62.5 40.5,62.5 39.5,62.5 Z"/></g>
<g><path style="opacity:1" fill="#f8f8f8" d="M 39.5,62.5 C 37.6921,61.0821 37.0254,59.0821 37.5,56.5C 38.8333,56.5 40.1667,56.5 41.5,56.5C 41.7413,58.8863 41.0746,60.8863 39.5,62.5 Z"/></g>
<g><path style="opacity:1" fill="#6c6c6c" d="M 87.5,56.5 C 89.2646,55.5386 91.2646,55.2053 93.5,55.5C 93.5,58.1667 93.5,60.8333 93.5,63.5C 91.901,63.7678 90.5676,63.4345 89.5,62.5C 90.5,62.5 91.5,62.5 92.5,62.5C 92.5,60.5 92.5,58.5 92.5,56.5C 90.8333,56.5 89.1667,56.5 87.5,56.5 Z"/></g>
<g><path style="opacity:1" fill="#f0f0f0" d="M 87.5,56.5 C 89.1667,56.5 90.8333,56.5 92.5,56.5C 92.5,58.5 92.5,60.5 92.5,62.5C 91.5,62.5 90.5,62.5 89.5,62.5C 87.6921,61.0821 87.0254,59.0821 87.5,56.5 Z"/></g>
<g><path style="opacity:1" fill="#989898" d="M 70.5,42.5 C 73.6387,46.4702 77.3053,49.9702 81.5,53C 77.4406,52.9851 74.2739,51.1518 72,47.5C 70.9914,45.9751 70.4914,44.3084 70.5,42.5 Z"/></g>
<g><path style="opacity:1" fill="#999999" d="M 58.5,42.5 C 59.6211,44.0894 59.4544,45.7561 58,47.5C 55.7261,51.1518 52.5594,52.9851 48.5,53C 53.3873,50.9468 56.7206,47.4468 58.5,42.5 Z"/></g>
<g><path style="opacity:1" fill="#6f6f6f" d="M 62.5,39.5 C 64.2646,38.5386 66.2646,38.2053 68.5,38.5C 68.5,39.8333 68.5,41.1667 68.5,42.5C 67.596,41.791 67.2627,40.791 67.5,39.5C 65.8333,39.5 64.1667,39.5 62.5,39.5 Z"/></g>
<g><path style="opacity:1" fill="#f2f2f2" d="M 62.5,39.5 C 64.1667,39.5 65.8333,39.5 67.5,39.5C 67.2627,40.791 67.596,41.791 68.5,42.5C 70.601,51.6086 76.2677,56.2752 85.5,56.5C 85.5,58.5 85.5,60.5 85.5,62.5C 82.3508,62.2114 79.3508,62.7114 76.5,64C 70.7626,67.649 67.7626,72.8157 67.5,79.5C 65.5,79.5 63.5,79.5 61.5,79.5C 62.1301,72.2824 59.1301,67.1157 52.5,64C 49.9865,62.7475 47.3198,62.2475 44.5,62.5C 44.5,60.5 44.5,58.5 44.5,56.5C 55.1251,55.5379 61.1251,49.8712 62.5,39.5 Z"/></g>
<g><path style="opacity:1" fill="#e4e4e4" d="M 61.5,31.5 C 63.8333,31.5 66.1667,31.5 68.5,31.5C 68.5,33.1667 68.5,34.8333 68.5,36.5C 66.1667,36.5 63.8333,36.5 61.5,36.5C 61.5,34.8333 61.5,33.1667 61.5,31.5 Z"/></g>
<g><path style="opacity:1" fill="#6c6c6c" d="M 8.5,177.5 C 8.5,185.167 8.5,192.833 8.5,200.5C 18.015,200.173 27.3483,200.506 36.5,201.5C 26.8333,201.5 17.1667,201.5 7.5,201.5C 7.17428,193.316 7.50761,185.316 8.5,177.5 Z"/></g>
<g><path style="opacity:1" fill="#aaaaaa" d="M 84.5,231.5 C 84.7947,233.735 84.4614,235.735 83.5,237.5C 83.6602,235.801 83.4935,234.134 83,232.5C 80.2809,233.444 77.4475,233.777 74.5,233.5C 77.6267,232.419 80.9601,231.753 84.5,231.5 Z"/></g>
<g><path style="opacity:1" fill="#f0f0f0" d="M 83.5,237.5 C 72.4871,239.418 61.4871,241.418 50.5,243.5C 49.8333,243.5 49.1667,243.5 48.5,243.5C 46.6921,242.082 46.0254,240.082 46.5,237.5C 55.6707,235.289 65.004,233.956 74.5,233.5C 77.4475,233.777 80.2809,233.444 83,232.5C 83.4935,234.134 83.6602,235.801 83.5,237.5 Z"/></g>
<g><path style="opacity:1" fill="#848484" d="M 46.5,237.5 C 46.0254,240.082 46.6921,242.082 48.5,243.5C 47.791,244.404 46.791,244.737 45.5,244.5C 45.1984,241.941 45.5318,239.607 46.5,237.5 Z"/></g>
<g><path style="opacity:1" fill="#b3b3b3" d="M 47.5,245.5 C 50.1272,244.908 52.7938,244.575 55.5,244.5C 65.549,243.16 75.549,241.494 85.5,239.5C 87.0004,239.453 88.0004,240.119 88.5,241.5C 74.8081,244.56 61.1414,245.893 47.5,245.5 Z"/></g>
<g><path style="opacity:1" fill="#333333" d="M 86.5,230.5 C 86.3367,232.857 86.5034,235.19 87,237.5C 93.7917,240.174 93.9584,242.84 87.5,245.5C 85.042,251.378 86.7086,255.378 92.5,257.5C 91.391,257.557 90.391,257.89 89.5,258.5C 88.5081,256.974 87.0081,256.307 85,256.5C 73.4475,257.964 61.9475,259.631 50.5,261.5C 49.0813,260.549 47.4147,260.216 45.5,260.5C 45.1984,257.941 45.5318,255.607 46.5,253.5C 46.5,255.5 46.5,257.5 46.5,259.5C 58.8479,257.915 71.1813,256.248 83.5,254.5C 84.4682,252.393 84.8016,250.059 84.5,247.5C 79.003,248.302 73.6697,249.302 68.5,250.5C 67.8333,250.5 67.1667,250.5 66.5,250.5C 65.4324,249.566 64.099,249.232 62.5,249.5C 68.684,248.261 75.0173,247.094 81.5,246C 70.8057,246.313 60.1391,247.146 49.5,248.5C 48.6016,247.842 47.6016,247.176 46.5,246.5C 46.6236,245.893 46.9569,245.56 47.5,245.5C 61.1414,245.893 74.8081,244.56 88.5,241.5C 88.0004,240.119 87.0004,239.453 85.5,239.5C 75.549,241.494 65.549,243.16 55.5,244.5C 54.0813,243.549 52.4147,243.216 50.5,243.5C 61.4871,241.418 72.4871,239.418 83.5,237.5C 84.4614,235.735 84.7947,233.735 84.5,231.5C 85.1667,231.167 85.8333,230.833 86.5,230.5 Z"/></g>
<g><path style="opacity:1" fill="#c0c0c0" d="M 62.5,249.5 C 56.4817,249.946 50.4817,250.613 44.5,251.5C 43.5,251.167 42.5,250.833 41.5,250.5C 43.8511,248.771 46.5178,248.104 49.5,248.5C 60.1391,247.146 70.8057,246.313 81.5,246C 75.0173,247.094 68.684,248.261 62.5,249.5 Z"/></g>
<g><path style="opacity:1" fill="#a3a3a3" d="M 83.5,254.5 C 83.6621,252.473 83.4955,250.473 83,248.5C 78.3101,249.941 73.4767,250.608 68.5,250.5C 73.6697,249.302 79.003,248.302 84.5,247.5C 84.8016,250.059 84.4682,252.393 83.5,254.5 Z"/></g>
<g><path style="opacity:1" fill="#f6f6f6" d="M 83.5,254.5 C 71.1813,256.248 58.8479,257.915 46.5,259.5C 46.5,257.5 46.5,255.5 46.5,253.5C 48.7638,252.781 51.0971,252.448 53.5,252.5C 58.7312,252.556 63.7312,251.889 68.5,250.5C 73.4767,250.608 78.3101,249.941 83,248.5C 83.4955,250.473 83.6621,252.473 83.5,254.5 Z"/></g>
<g><path style="opacity:1" fill="#b3b3b3" d="M 66.5,250.5 C 67.1667,250.5 67.8333,250.5 68.5,250.5C 63.7312,251.889 58.7312,252.556 53.5,252.5C 57.6181,251.291 61.9515,250.624 66.5,250.5 Z"/></g>
<g><path style="opacity:1" fill="#c0c0c0" d="M 89.5,258.5 C 75.8697,260.33 62.203,261.497 48.5,262C 49.0944,261.536 49.7611,261.369 50.5,261.5C 61.9475,259.631 73.4475,257.964 85,256.5C 87.0081,256.307 88.5081,256.974 89.5,258.5 Z"/></g>
<g><path style="opacity:1" fill="#2a2a2a" d="M 86.5,230.5 C 85.8333,230.833 85.1667,231.167 84.5,231.5C 80.9601,231.753 77.6267,232.419 74.5,233.5C 65.004,233.956 55.6707,235.289 46.5,237.5C 45.5318,239.607 45.1984,241.941 45.5,244.5C 46.791,244.737 47.791,244.404 48.5,243.5C 49.1667,243.5 49.8333,243.5 50.5,243.5C 52.4147,243.216 54.0813,243.549 55.5,244.5C 52.7938,244.575 50.1272,244.908 47.5,245.5C 46.9569,245.56 46.6236,245.893 46.5,246.5C 47.6016,247.176 48.6016,247.842 49.5,248.5C 46.5178,248.104 43.8511,248.771 41.5,250.5C 42.5,250.833 43.5,251.167 44.5,251.5C 50.4817,250.613 56.4817,249.946 62.5,249.5C 64.099,249.232 65.4324,249.566 66.5,250.5C 61.9515,250.624 57.6181,251.291 53.5,252.5C 51.0971,252.448 48.7638,252.781 46.5,253.5C 45.5318,255.607 45.1984,257.941 45.5,260.5C 47.4147,260.216 49.0813,260.549 50.5,261.5C 49.7611,261.369 49.0944,261.536 48.5,262C 62.203,261.497 75.8697,260.33 89.5,258.5C 90.391,257.89 91.391,257.557 92.5,257.5C 91.2088,259.619 89.3754,261.285 87,262.5C 85.7497,266.899 86.9164,270.233 90.5,272.5C 89.5084,272.328 88.8417,272.662 88.5,273.5C 87.2579,272.957 85.9245,272.623 84.5,272.5C 76.1614,273.945 67.8281,275.279 59.5,276.5C 57.7354,275.539 55.7354,275.205 53.5,275.5C 62.9624,273.605 72.6291,272.105 82.5,271C 84.25,269.246 84.9167,267.079 84.5,264.5C 72.8191,265.817 61.1525,267.317 49.5,269C 48.2341,269.309 47.0674,269.809 46,270.5C 45.5045,272.473 45.3379,274.473 45.5,276.5C 44.8333,277.167 44.1667,277.833 43.5,278.5C 43.8134,275.753 43.48,273.086 42.5,270.5C 35.8333,267.833 35.8333,265.167 42.5,262.5C 43.6517,259.894 43.8184,257.227 43,254.5C 35.6667,251.5 35.6667,248.5 43,245.5C 43.8184,242.773 43.6517,240.106 42.5,237.5C 35.9978,234.971 35.9978,232.304 42.5,229.5C 43.48,226.914 43.8134,224.247 43.5,221.5C 36.2452,219.441 35.9118,216.775 42.5,213.5C 44.4975,207.498 42.4975,203.498 36.5,201.5C 27.3483,200.506 18.015,200.173 8.5,200.5C 8.5,192.833 8.5,185.167 8.5,177.5C 11.8845,173.631 15.8845,170.464 20.5,168C 32.1425,161.94 44.4758,158.94 57.5,159C 59.6088,160.907 62.1088,161.74 65,161.5C 71.9341,158.156 79.1007,157.656 86.5,160C 99.9002,162.784 111.734,168.617 122,177.5C 122.5,185.493 122.666,193.493 122.5,201.5C 111.397,201.046 100.397,201.546 89.5,203C 88.2986,203.903 87.4652,205.069 87,206.5C 86.3333,211.5 86.3333,216.5 87,221.5C 88.9734,222.64 90.8067,223.973 92.5,225.5C 90.8381,227.652 88.8381,229.318 86.5,230.5 Z"/></g>
<g><path style="opacity:1" fill="#b9b9b9" d="M 72.5,229.5 C 75.1873,229.336 77.854,229.503 80.5,230C 68.4921,231.768 56.4921,233.601 44.5,235.5C 42.9996,235.547 41.9996,234.881 41.5,233.5C 51.95,231.997 62.2833,230.663 72.5,229.5 Z"/></g>
<g><path style="opacity:1" fill="#b4b4b4" d="M 69.5,226.5 C 73.3597,226.192 77.0264,225.525 80.5,224.5C 82.8194,223.833 85.1527,223.666 87.5,224C 87.9574,224.414 88.2907,224.914 88.5,225.5C 74.5972,228.123 60.5972,229.623 46.5,230C 54.0234,228.044 61.69,226.877 69.5,226.5 Z"/></g>
<g><path style="opacity:1" fill="#585858" d="M 79.5,222.5 C 76.7417,223.967 77.075,224.633 80.5,224.5C 77.0264,225.525 73.3597,226.192 69.5,226.5C 68.4324,225.566 67.099,225.232 65.5,225.5C 69.8833,223.77 74.5499,222.77 79.5,222.5 Z"/></g>
<g><path style="opacity:1" fill="#b3b3b3" d="M 58.5,214.5 C 60.924,214.192 63.2573,214.526 65.5,215.5C 58.3456,216.869 51.1789,218.203 44,219.5C 42.7202,219.387 41.8869,218.72 41.5,217.5C 47.249,216.201 52.9156,215.201 58.5,214.5 Z"/></g>
<g><path style="opacity:1" fill="#9c9c9c" d="M 55.5,211.5 C 58.1873,211.336 60.854,211.503 63.5,212C 57.9217,213.653 52.255,214.32 46.5,214C 49.5787,213.027 52.5787,212.194 55.5,211.5 Z"/></g>
<g><path style="opacity:1" fill="#efefef" d="M 79.5,222.5 C 74.5499,222.77 69.8833,223.77 65.5,225.5C 58.7585,225.511 52.0918,226.178 45.5,227.5C 45.2436,225.208 45.5769,223.041 46.5,221C 56.3316,220.961 65.3316,218.294 73.5,213C 64.347,208.984 55.0136,208.484 45.5,211.5C 46.1856,207.713 45.1856,204.546 42.5,202C 57.5,201.333 72.5,201.333 87.5,202C 86.7894,203.255 85.956,204.421 85,205.5C 84.6667,210.833 84.3333,216.167 84,221.5C 82.6439,222.38 81.1439,222.714 79.5,222.5 Z"/></g>
<g><path style="opacity:1" fill="#ababab" d="M 10.5,178.5 C 10.5,185.167 10.5,191.833 10.5,198.5C 47.1667,198.5 83.8333,198.5 120.5,198.5C 83.6704,199.498 46.6704,199.832 9.5,199.5C 9.17547,192.313 9.50881,185.313 10.5,178.5 Z"/></g>
<g><path style="opacity:1" fill="#fcfcfc" d="M 120.5,198.5 C 83.8333,198.5 47.1667,198.5 10.5,198.5C 10.5,191.833 10.5,185.167 10.5,178.5C 23.5219,166.831 38.8552,160.998 56.5,161C 61.2253,163.583 66.2253,164.083 71.5,162.5C 71.7093,161.914 72.0426,161.414 72.5,161C 89.0597,161.226 104.06,166.226 117.5,176C 118.701,176.903 119.535,178.069 120,179.5C 120.5,185.825 120.666,192.158 120.5,198.5 Z"/></g>
<g><path style="opacity:1" fill="#c6c6c6" d="M 74.5,261.5 C 77.1873,261.336 79.854,261.503 82.5,262C 81.5,262.333 80.5,262.667 79.5,263C 67.663,263.973 55.9963,265.806 44.5,268.5C 40.6499,267.304 40.6499,266.138 44.5,265C 54.7311,264.565 64.7311,263.399 74.5,261.5 Z"/></g>
<g><path style="opacity:1" fill="#ececec" d="M 53.5,275.5 C 50.7628,275.401 48.0961,275.735 45.5,276.5C 45.3379,274.473 45.5045,272.473 46,270.5C 47.0674,269.809 48.2341,269.309 49.5,269C 61.1525,267.317 72.8191,265.817 84.5,264.5C 84.9167,267.079 84.25,269.246 82.5,271C 72.6291,272.105 62.9624,273.605 53.5,275.5 Z"/></g>
<g><path style="opacity:1" fill="#bfbfbf" d="M 88.5,273.5 C 89.0093,274.341 88.3427,274.841 86.5,275C 72.8418,276.799 59.1752,278.133 45.5,279C 50.0445,277.458 54.7112,276.624 59.5,276.5C 67.8281,275.279 76.1614,273.945 84.5,272.5C 85.9245,272.623 87.2579,272.957 88.5,273.5 Z"/></g>
<g><path style="opacity:1" fill="#212121" d="M 88.5,273.5 C 88.8417,272.662 89.5084,272.328 90.5,272.5C 91.4778,272.811 92.1445,273.478 92.5,274.5C 90.9706,276.188 89.1373,277.521 87,278.5C 86.3333,281.167 86.3333,283.833 87,286.5C 94.0423,288.887 94.2089,291.554 87.5,294.5C 86.3483,297.106 86.1816,299.773 87,302.5C 88.9571,303.889 90.7904,305.389 92.5,307C 90.68,308.743 88.68,310.243 86.5,311.5C 85.8333,311.833 85.1667,312.167 84.5,312.5C 83.209,312.263 82.209,312.596 81.5,313.5C 69.8391,315.24 58.1724,316.907 46.5,318.5C 45.5318,320.607 45.1984,322.941 45.5,325.5C 46.5,325.5 47.5,325.5 48.5,325.5C 47.5707,326.315 46.5707,327.148 45.5,328C 46.7375,328.232 47.7375,328.732 48.5,329.5C 46.2362,330.219 43.9029,330.552 41.5,330.5C 40.7777,331.551 39.7777,332.218 38.5,332.5C 37.9033,332.265 37.5699,331.765 37.5,331C 38.7861,329.351 40.4527,328.185 42.5,327.5C 43.6517,324.894 43.8184,322.227 43,319.5C 35.7065,316.596 35.7065,313.596 43,310.5C 43.8184,307.773 43.6517,305.106 42.5,302.5C 35.9211,299.682 36.0878,297.015 43,294.5C 43.8184,291.773 43.6517,289.106 42.5,286.5C 35.8039,283.186 36.1372,280.519 43.5,278.5C 44.1667,277.833 44.8333,277.167 45.5,276.5C 48.0961,275.735 50.7628,275.401 53.5,275.5C 55.7354,275.205 57.7354,275.539 59.5,276.5C 54.7112,276.624 50.0445,277.458 45.5,279C 59.1752,278.133 72.8418,276.799 86.5,275C 88.3427,274.841 89.0093,274.341 88.5,273.5 Z"/></g>
<g><path style="opacity:1" fill="#eeeeee" d="M 47.5,308.5 C 46.5386,306.735 46.2053,304.735 46.5,302.5C 59.1068,300.34 71.7734,298.34 84.5,296.5C 84.5,298.833 84.5,301.167 84.5,303.5C 72.2021,305.412 59.8688,307.079 47.5,308.5 Z"/></g>
<g><path style="opacity:1" fill="#d2d2d2" d="M 71.5,295.5 C 72.4916,295.328 73.1583,295.662 73.5,296.5C 63.6201,296.98 53.9534,298.647 44.5,301.5C 42.9984,300.917 41.6651,300.084 40.5,299C 50.7034,296.996 61.0367,295.829 71.5,295.5 Z"/></g>
<g><path style="opacity:1" fill="#989898" d="M 73.5,296.5 C 73.1583,295.662 72.4916,295.328 71.5,295.5C 75.6234,294.128 79.9567,293.628 84.5,294C 80.9686,295.406 77.3019,296.24 73.5,296.5 Z"/></g>
<g><path style="opacity:1" fill="#cdcdcd" d="M 82.5,288.5 C 84.7505,288.181 86.7505,288.681 88.5,290C 74.662,292.984 60.662,294.651 46.5,295C 58.6794,293.146 70.6794,290.979 82.5,288.5 Z"/></g>
<g><path style="opacity:1" fill="#ededed" d="M 79.5,280.5 C 81.1667,280.5 82.8333,280.5 84.5,280.5C 84.7564,282.792 84.4231,284.959 83.5,287C 70.8218,288.835 58.1552,290.668 45.5,292.5C 45.2436,290.208 45.5769,288.041 46.5,286C 57.6406,284.195 68.6406,282.362 79.5,280.5 Z"/></g>
<g><path style="opacity:1" fill="#d3d3d3" d="M 78.5,277.5 C 80.1992,277.34 81.8659,277.506 83.5,278C 82.5,278.333 81.5,278.667 80.5,279C 68.4348,280.433 56.4348,282.266 44.5,284.5C 43.062,284.281 41.7287,283.781 40.5,283C 53.1393,280.596 65.8059,278.763 78.5,277.5 Z"/></g>
<g><path style="opacity:1" fill="#888888" d="M 46.5,302.5 C 46.2053,304.735 46.5386,306.735 47.5,308.5C 47.44,309.043 47.1067,309.376 46.5,309.5C 45.2031,307.027 45.2031,304.693 46.5,302.5 Z"/></g>
<g><path style="opacity:1" fill="#c9c9c9" d="M 84.5,304.5 C 88.7718,305.334 89.1052,306.334 85.5,307.5C 73.2292,309.594 60.8959,310.761 48.5,311C 60.6818,309.151 72.6818,306.984 84.5,304.5 Z"/></g>
<g><path style="opacity:1" fill="#eeeeee" d="M 81.5,313.5 C 83.3079,314.918 83.9746,316.918 83.5,319.5C 71.8747,321.385 60.208,323.051 48.5,324.5C 46.6921,323.082 46.0254,321.082 46.5,318.5C 58.1724,316.907 69.8391,315.24 81.5,313.5 Z"/></g>
<g><path style="opacity:1" fill="#9a9a9a" d="M 81.5,313.5 C 82.209,312.596 83.209,312.263 84.5,312.5C 84.8016,315.059 84.4682,317.393 83.5,319.5C 83.9746,316.918 83.3079,314.918 81.5,313.5 Z"/></g>
<g><path style="opacity:1" fill="#c4c4c4" d="M 72.5,310.5 C 75.5184,310.335 78.5184,310.502 81.5,311C 80.5,311.333 79.5,311.667 78.5,312C 66.8845,313.236 55.3845,315.07 44,317.5C 40.5102,315.984 40.6769,314.818 44.5,314C 54.0453,313.367 63.3786,312.201 72.5,310.5 Z"/></g>
<g><path style="opacity:1" fill="#8d8d8d" d="M 46.5,318.5 C 46.0254,321.082 46.6921,323.082 48.5,324.5C 48.5,324.833 48.5,325.167 48.5,325.5C 47.5,325.5 46.5,325.5 45.5,325.5C 45.1984,322.941 45.5318,320.607 46.5,318.5 Z"/></g>
<g><path style="opacity:1" fill="#b9b9b9" d="M 41.5,330.5 C 43.9029,330.552 46.2362,330.219 48.5,329.5C 60.1497,328.153 71.8164,327.319 83.5,327C 70.4403,328.779 57.4403,330.945 44.5,333.5C 42.484,333.484 41.484,332.484 41.5,330.5 Z"/></g>
<g><path style="opacity:1" fill="#2e2e2e" d="M 86.5,311.5 C 86.1866,314.247 86.52,316.914 87.5,319.5C 93.9584,322.16 93.7917,324.826 87,327.5C 86.1816,330.227 86.3483,332.894 87.5,335.5C 94.2089,338.446 94.0423,341.113 87,343.5C 86.3333,346.167 86.3333,348.833 87,351.5C 94.3333,354.167 94.3333,356.833 87,359.5C 85.2407,364.68 86.7407,368.347 91.5,370.5C 92.3857,371.325 92.719,372.325 92.5,373.5C 90.6916,373.491 89.0249,373.991 87.5,375C 85.8724,377.417 84.539,379.917 83.5,382.5C 83.0623,381.494 82.3957,381.494 81.5,382.5C 81.5394,381.417 81.8728,380.417 82.5,379.5C 81.1667,379.167 79.8333,378.833 78.5,378.5C 68.7757,379.51 59.109,380.843 49.5,382.5C 50.4608,385.426 51.1274,388.426 51.5,391.5C 55.4764,390.705 59.4764,390.038 63.5,389.5C 63.3893,390.117 63.056,390.617 62.5,391C 57.8516,391.357 53.5183,392.523 49.5,394.5C 49.2946,391.012 48.4613,387.679 47,384.5C 44.5417,383.36 42.375,381.86 40.5,380C 43.0699,376.342 44.0699,372.175 43.5,367.5C 36.1777,365.549 35.8444,362.882 42.5,359.5C 43.8333,356.833 43.8333,354.167 42.5,351.5C 35.9978,348.971 35.9978,346.304 42.5,343.5C 44.3507,338.523 43.0174,334.856 38.5,332.5C 39.7777,332.218 40.7777,331.551 41.5,330.5C 41.484,332.484 42.484,333.484 44.5,333.5C 57.4403,330.945 70.4403,328.779 83.5,327C 71.8164,327.319 60.1497,328.153 48.5,329.5C 47.7375,328.732 46.7375,328.232 45.5,328C 46.5707,327.148 47.5707,326.315 48.5,325.5C 48.5,325.167 48.5,324.833 48.5,324.5C 60.208,323.051 71.8747,321.385 83.5,319.5C 84.4682,317.393 84.8016,315.059 84.5,312.5C 85.1667,312.167 85.8333,311.833 86.5,311.5 Z"/></g>
<g><path style="opacity:1" fill="#7e7e7e" d="M 73.5,361.5 C 71.7354,360.539 69.7354,360.205 67.5,360.5C 72.6505,359.286 77.9838,358.786 83.5,359C 80.3897,360.524 77.0564,361.358 73.5,361.5 Z"/></g>
<g><path style="opacity:1" fill="#aaaaaa" d="M 83.5,353.5 C 88.9524,353.703 89.4524,354.703 85,356.5C 72.1862,358.232 59.3529,359.398 46.5,360C 58.9759,358.054 71.3092,355.888 83.5,353.5 Z"/></g>
<g><path style="opacity:1" fill="#949494" d="M 46.5,351.5 C 46.5,353.167 46.5,354.833 46.5,356.5C 47.8333,356.5 49.1667,356.5 50.5,356.5C 49.0813,357.451 47.4147,357.784 45.5,357.5C 45.2053,355.265 45.5386,353.265 46.5,351.5 Z"/></g>
<g><path style="opacity:1" fill="#ebebeb" d="M 50.5,356.5 C 49.1667,356.5 47.8333,356.5 46.5,356.5C 46.5,354.833 46.5,353.167 46.5,351.5C 58.9345,348.865 71.6012,346.865 84.5,345.5C 84.7564,347.792 84.4231,349.959 83.5,352C 72.5095,353.749 61.5095,355.249 50.5,356.5 Z"/></g>
<g><path style="opacity:1" fill="#b3b3b3" d="M 77.5,342.5 C 79.5273,342.338 81.5273,342.505 83.5,343C 82.8333,343.333 82.1667,343.667 81.5,344C 69.0854,345.426 56.752,347.26 44.5,349.5C 43.263,349.444 42.263,348.944 41.5,348C 53.4677,345.597 65.4677,343.764 77.5,342.5 Z"/></g>
<g><path style="opacity:1" fill="#b0b0b0" d="M 83.5,337.5 C 84.8734,337.343 86.2068,337.51 87.5,338C 88.8333,338.667 88.8333,339.333 87.5,340C 73.845,341.809 60.1783,343.143 46.5,344C 58.8997,341.58 71.2331,339.414 83.5,337.5 Z"/></g>
<g><path style="opacity:1" fill="#9a9a9a" d="M 46.5,335.5 C 46.2148,337.288 46.5481,338.955 47.5,340.5C 50.0841,339.607 52.7508,339.274 55.5,339.5C 52.4115,340.785 49.0781,341.451 45.5,341.5C 45.2053,339.265 45.5386,337.265 46.5,335.5 Z"/></g>
<g><path style="opacity:1" fill="#ececec" d="M 55.5,339.5 C 52.7508,339.274 50.0841,339.607 47.5,340.5C 46.5481,338.955 46.2148,337.288 46.5,335.5C 49.2026,334.037 52.2026,333.204 55.5,333C 65.1471,331.598 74.8137,330.431 84.5,329.5C 84.5,331.5 84.5,333.5 84.5,335.5C 74.8761,337.125 65.2094,338.458 55.5,339.5 Z"/></g>
<g><path style="opacity:1" fill="#bbbbbb" d="M 82.5,321.5 C 85.0728,321.148 87.4062,321.648 89.5,323C 76.2762,325.652 62.9429,326.985 49.5,327C 60.6403,325.143 71.6403,323.31 82.5,321.5 Z"/></g>
<g><path style="opacity:1" fill="#c2c2c2" d="M 67.5,360.5 C 69.7354,360.205 71.7354,360.539 73.5,361.5C 63.7209,361.995 54.0542,363.329 44.5,365.5C 43.5,365.167 42.5,364.833 41.5,364.5C 41.7093,363.914 42.0426,363.414 42.5,363C 50.8271,362.034 59.1604,361.201 67.5,360.5 Z"/></g>
<g><path style="opacity:1" fill="#eeeeee" d="M 82.5,368.5 C 73.3106,369.862 64.3106,371.529 55.5,373.5C 52.4824,373.704 49.4824,374.037 46.5,374.5C 46.5,371.833 46.5,369.167 46.5,366.5C 59.2467,365.383 71.9133,363.716 84.5,361.5C 84.6621,363.527 84.4955,365.527 84,367.5C 83.6174,368.056 83.1174,368.389 82.5,368.5 Z"/></g>
<g><path style="opacity:1" fill="#b1b1b1" d="M 83.5,369.5 C 85.6648,369.116 87.3315,369.783 88.5,371.5C 85.2121,372.445 81.8788,373.112 78.5,373.5C 73.8708,374.481 69.2041,374.648 64.5,374C 71.1637,373.343 77.497,371.843 83.5,369.5 Z"/></g>
<g><path style="opacity:1" fill="#484848" d="M 82.5,368.5 C 82.5,369.167 82.8333,369.5 83.5,369.5C 77.497,371.843 71.1637,373.343 64.5,374C 69.2041,374.648 73.8708,374.481 78.5,373.5C 80.2922,374.309 82.2922,374.809 84.5,375C 83.7562,376.039 82.7562,376.539 81.5,376.5C 76.9874,375.403 72.3208,375.403 67.5,376.5C 62.7741,375.946 58.7741,374.946 55.5,373.5C 64.3106,371.529 73.3106,369.862 82.5,368.5 Z"/></g>
<g><path style="opacity:1" fill="#a6a6a6" d="M 81.5,376.5 C 69.9163,377.62 58.4163,379.287 47,381.5C 43.5742,379.97 43.7408,378.97 47.5,378.5C 54.1536,377.653 60.8202,376.986 67.5,376.5C 72.3208,375.403 76.9874,375.403 81.5,376.5 Z"/></g>
<g><path style="opacity:1" fill="#efefef" d="M 81.5,382.5 C 81.4257,384.411 80.4257,385.578 78.5,386C 73.4454,387.11 68.4454,388.276 63.5,389.5C 59.4764,390.038 55.4764,390.705 51.5,391.5C 51.1274,388.426 50.4608,385.426 49.5,382.5C 59.109,380.843 68.7757,379.51 78.5,378.5C 79.8333,378.833 81.1667,379.167 82.5,379.5C 81.8728,380.417 81.5394,381.417 81.5,382.5 Z"/></g>
<g><path style="opacity:1" fill="#1c1c1c" d="M 83.5,382.5 C 83.4486,384.57 84.1153,386.403 85.5,388C 78.8353,392.004 76.002,397.837 77,405.5C 74.8816,406.283 73.3816,407.616 72.5,409.5C 70.901,409.232 69.5676,409.566 68.5,410.5C 66.7839,410.629 65.1172,410.962 63.5,411.5C 62.2617,411.19 62.2617,410.69 63.5,410C 61.4132,410.218 59.4132,410.051 57.5,409.5C 59.8839,408.989 61.8839,407.989 63.5,406.5C 66.2823,405.067 69.2823,403.9 72.5,403C 73.9988,399.844 75.3321,396.677 76.5,393.5C 75.5,393.5 74.5,393.5 73.5,393.5C 73.6107,392.883 73.944,392.383 74.5,392C 72.2884,391.211 70.2884,391.378 68.5,392.5C 62.809,392.98 57.1423,393.646 51.5,394.5C 51.5,395.5 51.5,396.5 51.5,397.5C 52.5,397.5 53.5,397.5 54.5,397.5C 54.5,398.5 54.5,399.5 54.5,400.5C 52.6137,399.639 50.7804,398.639 49,397.5C 48.2599,396.251 48.4265,395.251 49.5,394.5C 53.5183,392.523 57.8516,391.357 62.5,391C 63.056,390.617 63.3893,390.117 63.5,389.5C 68.4454,388.276 73.4454,387.11 78.5,386C 80.4257,385.578 81.4257,384.411 81.5,382.5C 82.3957,381.494 83.0623,381.494 83.5,382.5 Z"/></g>
<g><path style="opacity:1" fill="#828282" d="M 68.5,392.5 C 64.4093,394.083 60.076,395.25 55.5,396C 54.944,396.383 54.6107,396.883 54.5,397.5C 53.5,397.5 52.5,397.5 51.5,397.5C 51.5,396.5 51.5,395.5 51.5,394.5C 57.1423,393.646 62.809,392.98 68.5,392.5 Z"/></g>
<g><path style="opacity:1" fill="#ededed" d="M 73.5,393.5 C 74.5,393.5 75.5,393.5 76.5,393.5C 75.3321,396.677 73.9988,399.844 72.5,403C 69.2823,403.9 66.2823,405.067 63.5,406.5C 61.8828,407.038 60.2161,407.371 58.5,407.5C 57.5,404.167 56.5,400.833 55.5,397.5C 61.6981,396.53 67.6981,395.196 73.5,393.5 Z"/></g>
<g><path style="opacity:1" fill="#2e2e2e" d="M 73.5,393.5 C 67.6981,395.196 61.6981,396.53 55.5,397.5C 56.5,400.833 57.5,404.167 58.5,407.5C 60.2161,407.371 61.8828,407.038 63.5,406.5C 61.8839,407.989 59.8839,408.989 57.5,409.5C 59.4132,410.051 61.4132,410.218 63.5,410C 62.2617,410.69 62.2617,411.19 63.5,411.5C 61.0216,415.007 61.5216,418.34 65,421.5C 66.7972,418.332 68.2972,414.999 69.5,411.5C 69.3764,410.893 69.0431,410.56 68.5,410.5C 69.5676,409.566 70.901,409.232 72.5,409.5C 69.9564,414.595 67.9564,419.928 66.5,425.5C 65.325,425.719 64.325,425.386 63.5,424.5C 61.883,421.72 60.7163,418.72 60,415.5C 59,414.833 58,414.167 57,413.5C 56.5819,409.066 55.7485,404.733 54.5,400.5C 54.5,399.5 54.5,398.5 54.5,397.5C 54.6107,396.883 54.944,396.383 55.5,396C 60.076,395.25 64.4093,394.083 68.5,392.5C 70.2884,391.378 72.2884,391.211 74.5,392C 73.944,392.383 73.6107,392.883 73.5,393.5 Z"/></g>
<g><path style="opacity:1" fill="#e1e1e1" d="M 68.5,410.5 C 69.0431,410.56 69.3764,410.893 69.5,411.5C 68.2972,414.999 66.7972,418.332 65,421.5C 61.5216,418.34 61.0216,415.007 63.5,411.5C 65.1172,410.962 66.7839,410.629 68.5,410.5 Z"/></g>
</svg>
