<?xml version="1.0" encoding="UTF-8"?>
<!DOCTYPE svg PUBLIC "-//W3C//DTD SVG 1.1//EN" "http://www.w3.org/Graphics/SVG/1.1/DTD/svg11.dtd">
<svg xmlns="http://www.w3.org/2000/svg" version="1.1" width="137px" height="440px" style="shape-rendering:geometricPrecision; text-rendering:geometricPrecision; image-rendering:optimizeQuality; fill-rule:evenodd; clip-rule:evenodd" xmlns:xlink="http://www.w3.org/1999/xlink">
<g><path style="opacity:1" fill="#fcfcfc" d="M -0.5,-0.5 C 45.1667,-0.5 90.8333,-0.5 136.5,-0.5C 136.5,146.167 136.5,292.833 136.5,439.5C 90.8333,439.5 45.1667,439.5 -0.5,439.5C -0.5,292.833 -0.5,146.167 -0.5,-0.5 Z"/></g>
<g><path style="opacity:1" fill="#333333" d="M 123.5,46.5 C 126.136,57.8271 126.136,69.1604 123.5,80.5C 111.994,107.767 91.327,120.6 61.5,119C 31.0188,112.186 15.0188,93.1861 13.5,62C 15.0327,33.7866 29.3661,15.4533 56.5,7C 89.3959,2.76552 111.729,15.9322 123.5,46.5 Z"/></g>
<g><path style="opacity:1" fill="#fafafa" d="M 58.5,8.5 C 86.5481,5.76972 107.048,16.7697 120,41.5C 127.978,65.4154 123.145,86.2488 105.5,104C 91.008,115.157 74.6747,119.157 56.5,116C 26.1745,105.202 12.6745,83.7018 16,51.5C 21.6815,28.6524 35.8481,14.3191 58.5,8.5 Z"/></g>
<g><path style="opacity:1" fill="#1e1e1e" d="M 75.5,42.5 C 75.1788,44.0481 74.1788,44.7148 72.5,44.5C 72.0296,43.3065 71.0296,42.6399 69.5,42.5C 68.2739,42.5195 67.2739,42.8529 66.5,43.5C 64.8212,43.7148 63.8212,43.0481 63.5,41.5C 63.5,38.8333 63.5,36.1667 63.5,33.5C 67.5,33.5 71.5,33.5 75.5,33.5C 75.5,36.5 75.5,39.5 75.5,42.5 Z"/></g>
<g><path style="opacity:1" fill="#eaeaea" d="M 72.5,39.5 C 70.5,40.8333 68.5,40.8333 66.5,39.5C 66.5,38.1667 66.5,36.8333 66.5,35.5C 68.5,35.5 70.5,35.5 72.5,35.5C 72.5,36.8333 72.5,38.1667 72.5,39.5 Z"/></g>
<g><path style="opacity:1" fill="#727272" d="M 72.5,39.5 C 72.5,38.1667 72.5,36.8333 72.5,35.5C 70.5,35.5 68.5,35.5 66.5,35.5C 66.5,36.8333 66.5,38.1667 66.5,39.5C 65.5489,38.0813 65.2155,36.4147 65.5,34.5C 68.1667,34.5 70.8333,34.5 73.5,34.5C 73.7845,36.4147 73.4511,38.0813 72.5,39.5 Z"/></g>
<g><path style="opacity:1" fill="#f3f3f3" d="M 72.5,44.5 C 73.7809,52.7777 78.4476,57.7777 86.5,59.5C 87.5,59.5 88.5,59.5 89.5,59.5C 89.5,61.5 89.5,63.5 89.5,65.5C 78.8513,66.1487 73.1847,71.8153 72.5,82.5C 70.5,82.5 68.5,82.5 66.5,82.5C 66.7525,79.6802 66.2525,77.0135 65,74.5C 61.351,68.7626 56.1843,65.7626 49.5,65.5C 49.5,63.5 49.5,61.5 49.5,59.5C 50.5,59.5 51.5,59.5 52.5,59.5C 61.0657,57.5998 65.7324,52.2665 66.5,43.5C 67.2739,42.8529 68.2739,42.5195 69.5,42.5C 71.0296,42.6399 72.0296,43.3065 72.5,44.5 Z"/></g>
<g><path style="opacity:1" fill="#3c3c3c" d="M 63.5,41.5 C 63.8212,43.0481 64.8212,43.7148 66.5,43.5C 65.7324,52.2665 61.0657,57.5998 52.5,59.5C 51.375,58.3478 51.375,57.3478 52.5,56.5C 52.5,55.8333 52.1667,55.5 51.5,55.5C 56.9102,51.9941 60.9102,47.3274 63.5,41.5 Z"/></g>
<g><path style="opacity:1" fill="#3a3a3a" d="M 75.5,42.5 C 78.1129,48.113 82.1129,52.4463 87.5,55.5C 86.8333,55.5 86.5,55.8333 86.5,56.5C 87.625,57.3478 87.625,58.3478 86.5,59.5C 78.4476,57.7777 73.7809,52.7777 72.5,44.5C 74.1788,44.7148 75.1788,44.0481 75.5,42.5 Z"/></g>
<g><path style="opacity:1" fill="#a6a6a6" d="M 86.5,56.5 C 84.9106,57.6211 83.2439,57.4544 81.5,56C 77.6134,53.3638 75.4468,49.8638 75,45.5C 77.5307,50.5928 81.364,54.2594 86.5,56.5 Z"/></g>
<g><path style="opacity:1" fill="#a5a5a5" d="M 52.5,56.5 C 57.7818,54.3856 61.6152,50.7189 64,45.5C 62.9827,51.2041 59.6494,55.2041 54,57.5C 53.2352,57.4301 52.7352,57.0967 52.5,56.5 Z"/></g>
<g><path style="opacity:1" fill="#797979" d="M 46.5,56.5 C 44.7354,57.4614 42.7354,57.7947 40.5,57.5C 40.5,61.1667 40.5,64.8333 40.5,68.5C 39.5166,64.7016 39.1832,60.7016 39.5,56.5C 41.8333,56.5 44.1667,56.5 46.5,56.5 Z"/></g>
<g><path style="opacity:1" fill="#2b2b2b" d="M 51.5,55.5 C 52.1667,55.5 52.5,55.8333 52.5,56.5C 51.375,57.3478 51.375,58.3478 52.5,59.5C 51.5,59.5 50.5,59.5 49.5,59.5C 49.5,61.5 49.5,63.5 49.5,65.5C 56.1843,65.7626 61.351,68.7626 65,74.5C 66.2525,77.0135 66.7525,79.6802 66.5,82.5C 68.5,82.5 70.5,82.5 72.5,82.5C 73.1847,71.8153 78.8513,66.1487 89.5,65.5C 89.5,63.5 89.5,61.5 89.5,59.5C 88.5,59.5 87.5,59.5 86.5,59.5C 87.625,58.3478 87.625,57.3478 86.5,56.5C 86.5,55.8333 86.8333,55.5 87.5,55.5C 91.337,56.1338 95.1703,56.8005 99,57.5C 99.4986,61.1516 99.6653,64.8183 99.5,68.5C 86.9048,67.7893 78.9048,73.456 75.5,85.5C 74.5386,87.2646 74.2053,89.2646 74.5,91.5C 71.1667,91.5 67.8333,91.5 64.5,91.5C 64.7947,89.2646 64.4614,87.2646 63.5,85.5C 62.0278,79.3908 58.6945,74.5575 53.5,71C 49.3678,69.1003 45.0345,68.267 40.5,68.5C 40.5,64.8333 40.5,61.1667 40.5,57.5C 42.7354,57.7947 44.7354,57.4614 46.5,56.5C 48.2161,56.3713 49.8828,56.038 51.5,55.5 Z"/></g>
<g><path style="opacity:1" fill="#9f9f9f" d="M 51.5,68.5 C 51.7352,67.9033 52.2352,67.5699 53,67.5C 58.9198,69.0747 62.2531,72.7414 63,78.5C 60.2319,73.8957 56.3985,70.5623 51.5,68.5 Z"/></g>
<g><path style="opacity:1" fill="#909090" d="M 92.5,58.5 C 94.1667,58.5 95.8333,58.5 97.5,58.5C 97.5,61.1667 97.5,63.8333 97.5,66.5C 95.5,66.5 93.5,66.5 91.5,66.5C 91.2786,63.7212 91.612,61.0545 92.5,58.5 Z"/></g>
<g><path style="opacity:1" fill="#f7f7f7" d="M 93.5,59.5 C 94.5,59.5 95.5,59.5 96.5,59.5C 96.5,61.5 96.5,63.5 96.5,65.5C 95.1667,65.5 93.8333,65.5 92.5,65.5C 92.3253,63.3792 92.6586,61.3792 93.5,59.5 Z"/></g>
<g><path style="opacity:1" fill="#868686" d="M 44.5,59.5 C 45.5,59.5 46.5,59.5 47.5,59.5C 47.5,61.8333 47.5,64.1667 47.5,66.5C 45.5,66.5 43.5,66.5 41.5,66.5C 41.5,63.8333 41.5,61.1667 41.5,58.5C 42.791,58.2627 43.791,58.596 44.5,59.5 Z"/></g>
<g><path style="opacity:1" fill="#f8f8f8" d="M 44.5,59.5 C 46.0746,61.1137 46.7413,63.1137 46.5,65.5C 45.1667,65.5 43.8333,65.5 42.5,65.5C 42.0254,62.9179 42.6921,60.9179 44.5,59.5 Z"/></g>
<g><path style="opacity:1" fill="#cfcfcf" d="M 123.5,46.5 C 124.966,47.347 125.8,48.6803 126,50.5C 126.667,58.5 126.667,66.5 126,74.5C 125.434,76.7226 124.6,78.7226 123.5,80.5C 126.136,69.1604 126.136,57.8271 123.5,46.5 Z"/></g>
<g><path style="opacity:1" fill="#a4a4a4" d="M 82.5,68.5 C 83.552,68.3505 84.552,68.5172 85.5,69C 80.9499,71.883 77.4499,75.7163 75,80.5C 74.4795,78.7111 74.8129,77.0444 76,75.5C 77.6941,72.6424 79.8607,70.309 82.5,68.5 Z"/></g>
<g><path style="opacity:1" fill="#dbdbdb" d="M 66.5,84.5 C 68.5,84.5 70.5,84.5 72.5,84.5C 72.5,86.5 72.5,88.5 72.5,90.5C 70.1667,90.5 67.8333,90.5 65.5,90.5C 65.3253,88.3792 65.6586,86.3792 66.5,84.5 Z"/></g>
<g><path style="opacity:1" fill="#5c5c5c" d="M 63.5,85.5 C 64.4614,87.2646 64.7947,89.2646 64.5,91.5C 67.8333,91.5 71.1667,91.5 74.5,91.5C 74.2053,89.2646 74.5386,87.2646 75.5,85.5C 75.5,87.8333 75.5,90.1667 75.5,92.5C 71.5,92.5 67.5,92.5 63.5,92.5C 63.5,90.1667 63.5,87.8333 63.5,85.5 Z"/></g>
<g><path style="opacity:1" fill="#333333" d="M 123.5,170.5 C 122.375,169.652 122.375,168.652 123.5,167.5C 124.434,166.432 124.768,165.099 124.5,163.5C 87.8333,163.5 51.1667,163.5 14.5,163.5C 14.2322,165.099 14.5655,166.432 15.5,167.5C 17.0311,168.925 16.6977,169.591 14.5,169.5C 13.5269,167.052 13.1936,164.385 13.5,161.5C 50.8333,161.5 88.1667,161.5 125.5,161.5C 125.664,164.187 125.497,166.854 125,169.5C 124.617,170.056 124.117,170.389 123.5,170.5 Z"/></g>
<g><path style="opacity:1" fill="#a2a2a2" d="M 123.5,167.5 C 123.5,166.5 123.5,165.5 123.5,164.5C 87.5,164.5 51.5,164.5 15.5,164.5C 15.5,165.5 15.5,166.5 15.5,167.5C 14.5655,166.432 14.2322,165.099 14.5,163.5C 51.1667,163.5 87.8333,163.5 124.5,163.5C 124.768,165.099 124.434,166.432 123.5,167.5 Z"/></g>
<g><path style="opacity:1" fill="#f4f4f4" d="M 123.5,167.5 C 87.5,167.5 51.5,167.5 15.5,167.5C 15.5,166.5 15.5,165.5 15.5,164.5C 51.5,164.5 87.5,164.5 123.5,164.5C 123.5,165.5 123.5,166.5 123.5,167.5 Z"/></g>
<g><path style="opacity:1" fill="#2f2f2f" d="M 15.5,167.5 C 51.5,167.5 87.5,167.5 123.5,167.5C 122.375,168.652 122.375,169.652 123.5,170.5C 112.833,180.833 102.167,191.167 91.5,201.5C 90.6618,201.158 90.3284,200.492 90.5,199.5C 99.8395,190.161 109.506,181.161 119.5,172.5C 120.478,172.189 121.145,171.522 121.5,170.5C 86.8333,169.167 52.1667,169.167 17.5,170.5C 17.6236,171.107 17.9569,171.44 18.5,171.5C 26.2001,179.202 34.2001,186.535 42.5,193.5C 43.8333,195.5 45.5,197.167 47.5,198.5C 48.1667,198.833 48.8333,199.167 49.5,199.5C 49.8333,200.167 50.1667,200.833 50.5,201.5C 49.5206,204.625 49.1872,207.958 49.5,211.5C 49.8333,212.167 50.1667,212.833 50.5,213.5C 49.375,214.348 49.375,215.348 50.5,216.5C 49.1667,216.5 47.8333,216.5 46.5,216.5C 44.3023,216.591 43.9689,215.925 45.5,214.5C 47.5114,210.137 48.0114,205.471 47,200.5C 35.9683,190.3 25.135,179.967 14.5,169.5C 16.6977,169.591 17.0311,168.925 15.5,167.5 Z"/></g>
<g><path style="opacity:1" fill="#d5d5d5" d="M 119.5,172.5 C 103.014,171.167 86.1802,170.5 69,170.5C 51.9967,170.5 35.1633,170.833 18.5,171.5C 17.9569,171.44 17.6236,171.107 17.5,170.5C 52.1667,169.167 86.8333,169.167 121.5,170.5C 121.145,171.522 120.478,172.189 119.5,172.5 Z"/></g>
<g><path style="opacity:1" fill="#fbfbfb" d="M 18.5,171.5 C 35.1633,170.833 51.9967,170.5 69,170.5C 86.1802,170.5 103.014,171.167 119.5,172.5C 109.506,181.161 99.8395,190.161 90.5,199.5C 76.8333,199.5 63.1667,199.5 49.5,199.5C 48.8333,199.167 48.1667,198.833 47.5,198.5C 46.8333,195.833 45.1667,194.167 42.5,193.5C 34.2001,186.535 26.2001,179.202 18.5,171.5 Z"/></g>
<g><path style="opacity:1" fill="#9f9f9f" d="M 42.5,193.5 C 45.1667,194.167 46.8333,195.833 47.5,198.5C 45.5,197.167 43.8333,195.5 42.5,193.5 Z"/></g>
<g><path style="opacity:1" fill="#b2b2b2" d="M 50.5,201.5 C 63.5,201.5 76.5,201.5 89.5,201.5C 89.8245,208.687 89.4912,215.687 88.5,222.5C 88.5,215.833 88.5,209.167 88.5,202.5C 75.8333,202.5 63.1667,202.5 50.5,202.5C 50.5,205.167 50.5,207.833 50.5,210.5C 51.8333,210.5 53.1667,210.5 54.5,210.5C 53.0813,211.451 51.4147,211.784 49.5,211.5C 49.1872,207.958 49.5206,204.625 50.5,201.5 Z"/></g>
<g><path style="opacity:1" fill="#f5f5f5" d="M 88.5,222.5 C 75.8754,223.587 63.5421,225.587 51.5,228.5C 50.8333,228.5 50.1667,228.5 49.5,228.5C 49.1924,226.076 49.5258,223.743 50.5,221.5C 56.7407,219.927 63.074,218.761 69.5,218C 72.8338,216.669 75.8338,214.835 78.5,212.5C 78.2907,211.914 77.9574,211.414 77.5,211C 69.8373,209.498 62.1707,209.332 54.5,210.5C 53.1667,210.5 51.8333,210.5 50.5,210.5C 50.5,207.833 50.5,205.167 50.5,202.5C 63.1667,202.5 75.8333,202.5 88.5,202.5C 88.5,209.167 88.5,215.833 88.5,222.5 Z"/></g>
<g><path style="opacity:1" fill="#414141" d="M 49.5,199.5 C 63.1667,199.5 76.8333,199.5 90.5,199.5C 90.3284,200.492 90.6618,201.158 91.5,201.5C 91.3337,208.175 91.5004,214.842 92,221.5C 94.1438,222.646 95.9772,224.146 97.5,226C 95.7904,227.611 93.9571,229.111 92,230.5C 91.3333,233.167 91.3333,235.833 92,238.5C 93.6516,239.399 95.1516,240.399 96.5,241.5C 95.8333,242.167 95.1667,242.833 94.5,243.5C 93.8515,241.414 92.3515,240.414 90,240.5C 77.4889,242.708 64.9889,244.708 52.5,246.5C 51.5,245.833 50.5,245.167 49.5,244.5C 62.8758,242.662 76.2091,240.662 89.5,238.5C 89.5,236.5 89.5,234.5 89.5,232.5C 87.0504,232.298 84.717,232.631 82.5,233.5C 81.8333,233.5 81.1667,233.5 80.5,233.5C 79.4324,232.566 78.099,232.232 76.5,232.5C 79.3054,231.681 82.3054,231.181 85.5,231C 86.1667,230.667 86.8333,230.333 87.5,230C 76.8037,230.236 66.137,231.069 55.5,232.5C 53.7078,231.691 51.7078,231.191 49.5,231C 50.0442,230.283 50.7109,229.783 51.5,229.5C 52.6216,230.156 53.9549,230.489 55.5,230.5C 64.6944,229.92 73.6944,228.92 82.5,227.5C 86.2001,227.079 89.8667,226.412 93.5,225.5C 93.1131,224.28 92.2798,223.613 91,223.5C 86.506,224.582 82.006,225.582 77.5,226.5C 69.4028,226.845 61.4028,227.845 53.5,229.5C 53.1583,228.662 52.4916,228.328 51.5,228.5C 63.5421,225.587 75.8754,223.587 88.5,222.5C 89.4912,215.687 89.8245,208.687 89.5,201.5C 76.5,201.5 63.5,201.5 50.5,201.5C 50.1667,200.833 49.8333,200.167 49.5,199.5 Z"/></g>
<g><path style="opacity:1" fill="#3e3e3e" d="M 49.5,228.5 C 48.8333,228.833 48.1667,229.167 47.5,229.5C 47.5,226.833 47.5,224.167 47.5,221.5C 44.8962,221.402 42.8962,220.235 41.5,218C 42.0717,215.926 43.405,214.76 45.5,214.5C 43.9689,215.925 44.3023,216.591 46.5,216.5C 45.3046,218.35 45.9713,219.35 48.5,219.5C 56.0571,218.743 63.3905,217.243 70.5,215C 63.7641,214.513 57.0975,215.013 50.5,216.5C 49.375,215.348 49.375,214.348 50.5,213.5C 50.1667,212.833 49.8333,212.167 49.5,211.5C 51.4147,211.784 53.0813,211.451 54.5,210.5C 62.1707,209.332 69.8373,209.498 77.5,211C 77.9574,211.414 78.2907,211.914 78.5,212.5C 75.8338,214.835 72.8338,216.669 69.5,218C 63.074,218.761 56.7407,219.927 50.5,221.5C 49.5258,223.743 49.1924,226.076 49.5,228.5 Z"/></g>
<g><path style="opacity:1" fill="#c7c7c7" d="M 46.5,216.5 C 47.8333,216.5 49.1667,216.5 50.5,216.5C 57.0975,215.013 63.7641,214.513 70.5,215C 63.3905,217.243 56.0571,218.743 48.5,219.5C 45.9713,219.35 45.3046,218.35 46.5,216.5 Z"/></g>
<g><path style="opacity:1" fill="#adadad" d="M 50.5,213.5 C 56.0537,211.811 61.7204,211.311 67.5,212C 62.8528,212.941 58.1862,213.775 53.5,214.5C 52.2739,214.48 51.2739,214.147 50.5,213.5 Z"/></g>
<g><path style="opacity:1" fill="#dcdcdc" d="M 82.5,227.5 C 80.5853,227.784 78.9187,227.451 77.5,226.5C 82.006,225.582 86.506,224.582 91,223.5C 92.2798,223.613 93.1131,224.28 93.5,225.5C 89.8667,226.412 86.2001,227.079 82.5,227.5 Z"/></g>
<g><path style="opacity:1" fill="#aaaaaa" d="M 77.5,226.5 C 78.9187,227.451 80.5853,227.784 82.5,227.5C 73.6944,228.92 64.6944,229.92 55.5,230.5C 53.9549,230.489 52.6216,230.156 51.5,229.5C 52.1667,229.5 52.8333,229.5 53.5,229.5C 61.4028,227.845 69.4028,226.845 77.5,226.5 Z"/></g>
<g><path style="opacity:1" fill="#c8c8c8" d="M 76.5,232.5 C 66.9133,233.219 57.4133,234.553 48,236.5C 46.605,236.22 45.4383,235.553 44.5,234.5C 48.0275,233.079 51.6942,232.412 55.5,232.5C 66.137,231.069 76.8037,230.236 87.5,230C 86.8333,230.333 86.1667,230.667 85.5,231C 82.3054,231.181 79.3054,231.681 76.5,232.5 Z"/></g>
<g><path style="opacity:1" fill="#f1f1f1" d="M 49.5,244.5 C 49.2436,242.208 49.5769,240.041 50.5,238C 53.4781,237.304 56.4781,236.804 59.5,236.5C 67.4077,236.321 75.0744,235.321 82.5,233.5C 84.717,232.631 87.0504,232.298 89.5,232.5C 89.5,234.5 89.5,236.5 89.5,238.5C 76.2091,240.662 62.8758,242.662 49.5,244.5 Z"/></g>
<g><path style="opacity:1" fill="#b3b3b3" d="M 80.5,233.5 C 81.1667,233.5 81.8333,233.5 82.5,233.5C 75.0744,235.321 67.4077,236.321 59.5,236.5C 66.3013,235.052 73.3013,234.052 80.5,233.5 Z"/></g>
<g><path style="opacity:1" fill="#2e2e2e" d="M 49.5,228.5 C 50.1667,228.5 50.8333,228.5 51.5,228.5C 52.4916,228.328 53.1583,228.662 53.5,229.5C 52.8333,229.5 52.1667,229.5 51.5,229.5C 50.7109,229.783 50.0442,230.283 49.5,231C 51.7078,231.191 53.7078,231.691 55.5,232.5C 51.6942,232.412 48.0275,233.079 44.5,234.5C 45.4383,235.553 46.605,236.22 48,236.5C 57.4133,234.553 66.9133,233.219 76.5,232.5C 78.099,232.232 79.4324,232.566 80.5,233.5C 73.3013,234.052 66.3013,235.052 59.5,236.5C 56.4781,236.804 53.4781,237.304 50.5,238C 49.5769,240.041 49.2436,242.208 49.5,244.5C 50.5,245.167 51.5,245.833 52.5,246.5C 51.7611,246.369 51.0944,246.536 50.5,247C 65.1696,246.167 79.8362,245 94.5,243.5C 95.1667,242.833 95.8333,242.167 96.5,241.5C 97.525,241.897 97.6917,242.563 97,243.5C 91.926,246.022 90.426,250.022 92.5,255.5C 99.0789,258.318 98.9122,260.985 92,263.5C 91.3333,266.167 91.3333,268.833 92,271.5C 94.1438,272.646 95.9772,274.146 97.5,276C 95.9772,277.854 94.1438,279.354 92,280.5C 91.5026,283.146 91.3359,285.813 91.5,288.5C 90.8333,288.5 90.1667,288.5 89.5,288.5C 89.5,286.5 89.5,284.5 89.5,282.5C 88.5,282.5 87.5,282.5 86.5,282.5C 85.791,281.596 84.791,281.263 83.5,281.5C 84.6085,280.71 85.9419,280.21 87.5,280C 86.9056,279.536 86.2389,279.369 85.5,279.5C 84.791,278.596 83.791,278.263 82.5,278.5C 86.3729,277.511 90.3729,276.511 94.5,275.5C 93.5617,274.447 92.395,273.78 91,273.5C 88.1161,274.117 85.2828,274.784 82.5,275.5C 81.4324,274.566 80.099,274.232 78.5,274.5C 81.9736,273.475 85.6403,272.808 89.5,272.5C 89.5,270.167 89.5,267.833 89.5,265.5C 76.3346,266.769 63.3346,268.769 50.5,271.5C 49.1667,270.833 47.8333,270.167 46.5,269.5C 60.6145,268.044 74.6145,265.877 88.5,263C 85.408,262.264 82.408,262.431 79.5,263.5C 78.0813,262.549 76.4147,262.216 74.5,262.5C 81.0886,261.665 87.7552,260.498 94.5,259C 94.1667,258.667 93.8333,258.333 93.5,258C 85.7487,257.958 78.082,258.791 70.5,260.5C 68.7354,259.539 66.7354,259.205 64.5,259.5C 72.6761,257.996 81.0094,256.663 89.5,255.5C 89.5,253.167 89.5,250.833 89.5,248.5C 87.5,248.833 85.5,249.167 83.5,249.5C 74.6522,250.519 65.9856,251.852 57.5,253.5C 54.7938,253.575 52.1272,253.908 49.5,254.5C 49.5,256.833 49.5,259.167 49.5,261.5C 48.8333,262.167 48.1667,262.833 47.5,263.5C 47.6641,260.813 47.4974,258.146 47,255.5C 39.9178,252.679 39.7511,249.679 46.5,246.5C 47.8333,243.833 47.8333,241.167 46.5,238.5C 39.8533,234.925 40.1866,231.925 47.5,229.5C 48.1667,229.167 48.8333,228.833 49.5,228.5 Z"/></g>
<g><path style="opacity:1" fill="#cacaca" d="M 94.5,243.5 C 79.8362,245 65.1696,246.167 50.5,247C 51.0944,246.536 51.7611,246.369 52.5,246.5C 64.9889,244.708 77.4889,242.708 90,240.5C 92.3515,240.414 93.8515,241.414 94.5,243.5 Z"/></g>
<g><path style="opacity:1" fill="#c1c1c1" d="M 85.5,245.5 C 86.8734,245.343 88.2068,245.51 89.5,246C 88.8333,246.333 88.1667,246.667 87.5,247C 74.1999,248.613 61.0332,250.78 48,253.5C 45.6587,252.993 45.1587,251.826 46.5,250C 59.6631,248.619 72.6631,247.119 85.5,245.5 Z"/></g>
<g><path style="opacity:1" fill="#f1f1f1" d="M 64.5,259.5 C 59.4674,260.022 54.4674,260.689 49.5,261.5C 49.5,259.167 49.5,256.833 49.5,254.5C 52.1272,253.908 54.7938,253.575 57.5,253.5C 65.5368,253.09 73.5368,252.257 81.5,251C 82.4158,250.722 83.0825,250.222 83.5,249.5C 85.5,249.167 87.5,248.833 89.5,248.5C 89.5,250.833 89.5,253.167 89.5,255.5C 81.0094,256.663 72.6761,257.996 64.5,259.5 Z"/></g>
<g><path style="opacity:1" fill="#b9b9b9" d="M 83.5,249.5 C 83.0825,250.222 82.4158,250.722 81.5,251C 73.5368,252.257 65.5368,253.09 57.5,253.5C 65.9856,251.852 74.6522,250.519 83.5,249.5 Z"/></g>
<g><path style="opacity:1" fill="#c8c8c8" d="M 74.5,262.5 C 66.1663,263.334 57.833,263.834 49.5,264C 56.3491,262.045 63.3491,260.878 70.5,260.5C 78.082,258.791 85.7487,257.958 93.5,258C 93.8333,258.333 94.1667,258.667 94.5,259C 87.7552,260.498 81.0886,261.665 74.5,262.5 Z"/></g>
<g><path style="opacity:1" fill="#cbcbcb" d="M 46.5,269.5 C 44.0144,268.538 44.0144,267.705 46.5,267C 57.4901,265.668 68.4901,264.501 79.5,263.5C 82.408,262.431 85.408,262.264 88.5,263C 74.6145,265.877 60.6145,268.044 46.5,269.5 Z"/></g>
<g><path style="opacity:1" fill="#ededed" d="M 78.5,274.5 C 68.7212,275.097 59.0545,276.431 49.5,278.5C 49.1984,275.941 49.5318,273.607 50.5,271.5C 63.3346,268.769 76.3346,266.769 89.5,265.5C 89.5,267.833 89.5,270.167 89.5,272.5C 85.6403,272.808 81.9736,273.475 78.5,274.5 Z"/></g>
<g><path style="opacity:1" fill="#d1d1d1" d="M 82.5,278.5 C 71.4491,279.206 60.4491,280.039 49.5,281C 60.3136,278.193 71.3136,276.359 82.5,275.5C 85.2828,274.784 88.1161,274.117 91,273.5C 92.395,273.78 93.5617,274.447 94.5,275.5C 90.3729,276.511 86.3729,277.511 82.5,278.5 Z"/></g>
<g><path style="opacity:1" fill="#d9d9d9" d="M 85.5,279.5 C 86.2389,279.369 86.9056,279.536 87.5,280C 85.9419,280.21 84.6085,280.71 83.5,281.5C 71.7402,282.509 60.0735,284.175 48.5,286.5C 46.8927,286.363 45.5594,285.696 44.5,284.5C 58.0499,282.031 71.7166,280.365 85.5,279.5 Z"/></g>
<g><path style="opacity:1" fill="#eeeeee" d="M 86.5,282.5 C 87.5,282.5 88.5,282.5 89.5,282.5C 89.5,284.5 89.5,286.5 89.5,288.5C 76.5517,291.051 63.5517,293.384 50.5,295.5C 49.2234,292.966 49.2234,290.466 50.5,288C 62.4547,285.839 74.4547,284.006 86.5,282.5 Z"/></g>
<g><path style="opacity:1" fill="#1f1f1f" d="M 64.5,259.5 C 66.7354,259.205 68.7354,259.539 70.5,260.5C 63.3491,260.878 56.3491,262.045 49.5,264C 57.833,263.834 66.1663,263.334 74.5,262.5C 76.4147,262.216 78.0813,262.549 79.5,263.5C 68.4901,264.501 57.4901,265.668 46.5,267C 44.0144,267.705 44.0144,268.538 46.5,269.5C 47.8333,270.167 49.1667,270.833 50.5,271.5C 49.5318,273.607 49.1984,275.941 49.5,278.5C 59.0545,276.431 68.7212,275.097 78.5,274.5C 80.099,274.232 81.4324,274.566 82.5,275.5C 71.3136,276.359 60.3136,278.193 49.5,281C 60.4491,280.039 71.4491,279.206 82.5,278.5C 83.791,278.263 84.791,278.596 85.5,279.5C 71.7166,280.365 58.0499,282.031 44.5,284.5C 45.5594,285.696 46.8927,286.363 48.5,286.5C 60.0735,284.175 71.7402,282.509 83.5,281.5C 84.791,281.263 85.791,281.596 86.5,282.5C 74.4547,284.006 62.4547,285.839 50.5,288C 49.2234,290.466 49.2234,292.966 50.5,295.5C 63.5517,293.384 76.5517,291.051 89.5,288.5C 90.1667,288.5 90.8333,288.5 91.5,288.5C 99.4843,291.461 99.4843,294.461 91.5,297.5C 90.8333,297.833 90.1667,298.167 89.5,298.5C 88.5,298.5 87.5,298.5 86.5,298.5C 85.8333,298.5 85.5,298.167 85.5,297.5C 87.1033,297.688 88.4366,297.188 89.5,296C 75.5208,297.064 61.5208,298.398 47.5,300C 45.8807,300.236 44.8807,301.069 44.5,302.5C 43.8333,302.5 43.1667,302.5 42.5,302.5C 41.9033,302.265 41.5699,301.765 41.5,301C 43.0228,299.146 44.8562,297.646 47,296.5C 47.8184,293.773 47.6517,291.106 46.5,288.5C 39.8333,285.833 39.8333,283.167 46.5,280.5C 47.8333,277.5 47.8333,274.5 46.5,271.5C 39.8836,268.298 40.217,265.631 47.5,263.5C 48.1667,262.833 48.8333,262.167 49.5,261.5C 54.4674,260.689 59.4674,260.022 64.5,259.5 Z"/></g>
<g><path style="opacity:1" fill="#d0d0d0" d="M 88.5,290.5 C 90.8273,290.247 92.8273,290.914 94.5,292.5C 79.4971,294.732 64.4971,296.566 49.5,298C 52.5975,296.39 55.9308,295.39 59.5,295C 69.3946,294.059 79.0613,292.559 88.5,290.5 Z"/></g>
<g><path style="opacity:1" fill="#d9d9d9" d="M 85.5,297.5 C 72.8954,298.805 60.3954,300.805 48,303.5C 46.8615,303.011 45.6948,302.678 44.5,302.5C 44.8807,301.069 45.8807,300.236 47.5,300C 61.5208,298.398 75.5208,297.064 89.5,296C 88.4366,297.188 87.1033,297.688 85.5,297.5 Z"/></g>
<g><path style="opacity:1" fill="#2d2d2d" d="M 85.5,297.5 C 85.5,298.167 85.8333,298.5 86.5,298.5C 74.3589,300.856 62.0256,302.856 49.5,304.5C 49.5,306.833 49.5,309.167 49.5,311.5C 62.8641,309.663 76.1975,307.663 89.5,305.5C 89.5,303.167 89.5,300.833 89.5,298.5C 90.1667,298.167 90.8333,297.833 91.5,297.5C 91.1866,300.247 91.52,302.914 92.5,305.5C 99.1667,308.167 99.1667,310.833 92.5,313.5C 91.3483,316.106 91.1816,318.773 92,321.5C 93.9571,322.889 95.7904,324.389 97.5,326C 96.2247,328.071 94.3914,329.571 92,330.5C 91.3333,333.167 91.3333,335.833 92,338.5C 94.3914,339.429 96.2247,340.929 97.5,343C 95.6416,344.755 93.6416,346.255 91.5,347.5C 90.8333,347.833 90.1667,348.167 89.5,348.5C 85.5236,349.295 81.5236,349.962 77.5,350.5C 75.5853,350.784 73.9187,350.451 72.5,349.5C 77.5258,348.885 82.5258,348.051 87.5,347C 74.1429,347.335 60.8095,348.335 47.5,350C 45.8807,350.236 44.8807,351.069 44.5,352.5C 43.8333,352.5 43.1667,352.5 42.5,352.5C 41.4265,351.749 41.2599,350.749 42,349.5C 47.3896,347.581 48.8896,343.915 46.5,338.5C 39.8333,335.833 39.8333,333.167 46.5,330.5C 47.4841,327.572 47.8174,324.572 47.5,321.5C 39.967,319.705 39.6337,317.039 46.5,313.5C 47.6517,310.894 47.8184,308.227 47,305.5C 45.3484,304.601 43.8484,303.601 42.5,302.5C 43.1667,302.5 43.8333,302.5 44.5,302.5C 45.6948,302.678 46.8615,303.011 48,303.5C 60.3954,300.805 72.8954,298.805 85.5,297.5 Z"/></g>
<g><path style="opacity:1" fill="#ebebeb" d="M 86.5,315.5 C 87.5,315.5 88.5,315.5 89.5,315.5C 89.5,317.833 89.5,320.167 89.5,322.5C 76.1032,324.113 62.7698,326.113 49.5,328.5C 49.0423,325.606 49.709,323.106 51.5,321C 63.3078,319.142 74.9745,317.308 86.5,315.5 Z"/></g>
<g><path style="opacity:1" fill="#d0d0d0" d="M 83.5,312.5 C 85.5273,312.338 87.5273,312.505 89.5,313C 88.8333,313.333 88.1667,313.667 87.5,314C 74.3151,315.193 61.3151,317.359 48.5,320.5C 46.9984,319.917 45.6651,319.084 44.5,318C 57.5914,315.896 70.5914,314.063 83.5,312.5 Z"/></g>
<g><path style="opacity:1" fill="#cccccc" d="M 86.5,307.5 C 89.3198,307.248 91.9865,307.748 94.5,309C 94.1667,309.333 93.8333,309.667 93.5,310C 79.1757,311.799 64.8424,313.133 50.5,314C 62.5864,311.709 74.5864,309.543 86.5,307.5 Z"/></g>
<g><path style="opacity:1" fill="#eeeeee" d="M 86.5,298.5 C 87.5,298.5 88.5,298.5 89.5,298.5C 89.5,300.833 89.5,303.167 89.5,305.5C 76.1975,307.663 62.8641,309.663 49.5,311.5C 49.5,309.167 49.5,306.833 49.5,304.5C 62.0256,302.856 74.3589,300.856 86.5,298.5 Z"/></g>
<g><path style="opacity:1" fill="#c6c6c6" d="M 89.5,323.5 C 91.6807,323.284 93.3474,324.117 94.5,326C 93.5,326.333 92.5,326.667 91.5,327C 77.4856,328.577 63.4856,329.91 49.5,331C 62.899,328.496 76.2324,325.996 89.5,323.5 Z"/></g>
<g><path style="opacity:1" fill="#c1c1c1" d="M 78.5,329.5 C 90.974,329.246 91.3073,330.08 79.5,332C 69.1323,333.254 58.799,334.754 48.5,336.5C 46.8927,336.363 45.5594,335.696 44.5,334.5C 55.9575,332.827 67.2909,331.16 78.5,329.5 Z"/></g>
<g><path style="opacity:1" fill="#ececec" d="M 87.5,339.5 C 76.029,341.168 64.6956,342.834 53.5,344.5C 52.4168,344.539 51.4168,344.873 50.5,345.5C 49.2234,342.966 49.2234,340.466 50.5,338C 63.4493,335.745 76.4493,333.912 89.5,332.5C 89.6621,334.527 89.4955,336.527 89,338.5C 88.6174,339.056 88.1174,339.389 87.5,339.5 Z"/></g>
<g><path style="opacity:1" fill="#484848" d="M 87.5,339.5 C 87.5,340.167 87.8333,340.5 88.5,340.5C 81.1395,342.812 73.4728,344.146 65.5,344.5C 61.6675,343.595 57.6675,343.595 53.5,344.5C 64.6956,342.834 76.029,341.168 87.5,339.5 Z"/></g>
<g><path style="opacity:1" fill="#bfbfbf" d="M 88.5,340.5 C 90.6957,340.565 92.6957,341.232 94.5,342.5C 80.2702,345.158 65.9369,346.658 51.5,347C 56.0959,345.714 60.7626,344.881 65.5,344.5C 73.4728,344.146 81.1395,342.812 88.5,340.5 Z"/></g>
<g><path style="opacity:1" fill="#c8c8c8" d="M 72.5,349.5 C 64.174,349.895 56.0073,351.228 48,353.5C 46.8615,353.011 45.6948,352.678 44.5,352.5C 44.8807,351.069 45.8807,350.236 47.5,350C 60.8095,348.335 74.1429,347.335 87.5,347C 82.5258,348.051 77.5258,348.885 72.5,349.5 Z"/></g>
<g><path style="opacity:1" fill="#ebebeb" d="M 89.5,348.5 C 89.9577,351.394 89.291,353.894 87.5,356C 74.8192,357.835 62.1526,359.668 49.5,361.5C 49.3379,359.473 49.5045,357.473 50,355.5C 50.7504,354.874 51.5838,354.374 52.5,354C 60.9731,352.765 69.3065,351.599 77.5,350.5C 81.5236,349.962 85.5236,349.295 89.5,348.5 Z"/></g>
<g><path style="opacity:1" fill="#404040" d="M 91.5,347.5 C 90.7414,351.906 92.0748,355.239 95.5,357.5C 94.596,358.209 94.2627,359.209 94.5,360.5C 93.5,360.5 92.5,360.5 91.5,360.5C 94.035,358.785 93.535,357.785 90,357.5C 83.8671,358.787 77.7005,359.787 71.5,360.5C 64.3395,360.832 57.3395,361.998 50.5,364C 59.0272,363.944 67.3606,363.11 75.5,361.5C 80.5365,361.587 85.5365,361.254 90.5,360.5C 89.6993,362.042 89.366,363.708 89.5,365.5C 76.4315,367.129 63.4315,369.129 50.5,371.5C 49.1667,370.167 47.8333,370.167 46.5,371.5C 39.9192,369.158 39.9192,366.491 46.5,363.5C 47.8333,360.833 47.8333,358.167 46.5,355.5C 44.739,354.965 43.4057,353.965 42.5,352.5C 43.1667,352.5 43.8333,352.5 44.5,352.5C 45.6948,352.678 46.8615,353.011 48,353.5C 56.0073,351.228 64.174,349.895 72.5,349.5C 73.9187,350.451 75.5853,350.784 77.5,350.5C 69.3065,351.599 60.9731,352.765 52.5,354C 51.5838,354.374 50.7504,354.874 50,355.5C 49.5045,357.473 49.3379,359.473 49.5,361.5C 62.1526,359.668 74.8192,357.835 87.5,356C 89.291,353.894 89.9577,351.394 89.5,348.5C 90.1667,348.167 90.8333,347.833 91.5,347.5 Z"/></g>
<g><path style="opacity:1" fill="#a7a7a7" d="M 71.5,360.5 C 72.5676,361.434 73.901,361.768 75.5,361.5C 67.3606,363.11 59.0272,363.944 50.5,364C 57.3395,361.998 64.3395,360.832 71.5,360.5 Z"/></g>
<g><path style="opacity:1" fill="#d2d2d2" d="M 91.5,360.5 C 91.1667,360.5 90.8333,360.5 90.5,360.5C 85.5365,361.254 80.5365,361.587 75.5,361.5C 73.901,361.768 72.5676,361.434 71.5,360.5C 77.7005,359.787 83.8671,358.787 90,357.5C 93.535,357.785 94.035,358.785 91.5,360.5 Z"/></g>
<g><path style="opacity:1" fill="#c1c1c1" d="M 81.5,362.5 C 90.6163,362.563 90.6163,363.397 81.5,365C 70.5599,365.849 59.7266,367.349 49,369.5C 47.5962,369.491 46.4296,368.991 45.5,368C 57.5974,365.964 69.5974,364.13 81.5,362.5 Z"/></g>
<g><path style="opacity:1" fill="#eeeeee" d="M 89.5,365.5 C 89.5,367.833 89.5,370.167 89.5,372.5C 87.5,372.833 85.5,373.167 83.5,373.5C 73.1855,374.68 63.1855,376.68 53.5,379.5C 52.4168,379.539 51.4168,379.873 50.5,380.5C 49.1968,377.355 49.1968,374.355 50.5,371.5C 63.4315,369.129 76.4315,367.129 89.5,365.5 Z"/></g>
<g><path style="opacity:1" fill="#2b2b2b" d="M 95.5,357.5 C 96.4778,357.811 97.1445,358.478 97.5,359.5C 95.9706,361.188 94.1373,362.521 92,363.5C 91.3333,366.167 91.3333,368.833 92,371.5C 93.9571,372.889 95.7904,374.389 97.5,376C 92.3967,378.61 89.3967,382.777 88.5,388.5C 88.722,390.055 89.3887,391.389 90.5,392.5C 88.4622,394.276 86.2955,395.943 84,397.5C 83.4503,400.263 82.6169,402.93 81.5,405.5C 82.228,407.155 82.3947,408.821 82,410.5C 80.414,411.376 78.914,412.376 77.5,413.5C 76.1413,419.578 73.8079,425.245 70.5,430.5C 69.675,431.386 68.675,431.719 67.5,431.5C 67.1245,426.169 64.9578,421.835 61,418.5C 61.6178,411.034 58.7845,405.2 52.5,401C 54.0494,396.463 53.3827,392.297 50.5,388.5C 48.5866,387.627 46.7533,386.627 45,385.5C 46.5735,383.116 47.4069,380.283 47.5,377C 47.4189,375.076 47.0856,373.243 46.5,371.5C 47.8333,370.167 49.1667,370.167 50.5,371.5C 49.1968,374.355 49.1968,377.355 50.5,380.5C 51.4168,379.873 52.4168,379.539 53.5,379.5C 56.1761,378.992 58.8428,378.825 61.5,379C 60.5,379.333 59.5,379.667 58.5,380C 61.0356,380.186 63.369,380.686 65.5,381.5C 59.5895,381.318 53.9228,382.318 48.5,384.5C 48.8869,385.72 49.7202,386.387 51,386.5C 54.3023,384.861 57.8023,384.194 61.5,384.5C 62.791,384.263 63.791,384.596 64.5,385.5C 60.4238,385.121 56.7571,386.121 53.5,388.5C 54.7853,391.021 55.4519,393.687 55.5,396.5C 65.1314,394.607 74.7981,392.774 84.5,391C 85.4367,388.293 86.7701,385.793 88.5,383.5C 84.8614,382.54 81.1947,382.54 77.5,383.5C 75.901,383.768 74.5676,383.434 73.5,382.5C 78.1776,381.831 82.8442,380.998 87.5,380C 81.4964,379.7 75.4964,379.866 69.5,380.5C 71.5,379.833 73.5,379.167 75.5,378.5C 81.9858,378.299 88.3191,377.299 94.5,375.5C 93.5617,374.447 92.395,373.78 91,373.5C 88.2094,374.406 85.3761,375.073 82.5,375.5C 81.7611,375.631 81.0944,375.464 80.5,375C 81.7375,374.768 82.7375,374.268 83.5,373.5C 85.5,373.167 87.5,372.833 89.5,372.5C 89.5,370.167 89.5,367.833 89.5,365.5C 89.366,363.708 89.6993,362.042 90.5,360.5C 90.8333,360.5 91.1667,360.5 91.5,360.5C 92.5,360.5 93.5,360.5 94.5,360.5C 94.2627,359.209 94.596,358.209 95.5,357.5 Z"/></g>
<g><path style="opacity:1" fill="#ededed" d="M 77.5,398.5 C 78.9778,398.238 80.3112,398.571 81.5,399.5C 80.0584,402.05 78.8917,404.716 78,407.5C 72.7528,409.414 67.5861,411.414 62.5,413.5C 61.3325,410.181 60.4992,406.847 60,403.5C 65.7855,401.351 71.6189,399.684 77.5,398.5 Z"/></g>
<g><path style="opacity:1" fill="#969696" d="M 72.5,396.5 C 74.5273,396.338 76.5273,396.505 78.5,397C 71.2911,398.052 64.2911,399.885 57.5,402.5C 56.5,402.167 55.8333,401.5 55.5,400.5C 61.1685,398.637 66.8352,397.304 72.5,396.5 Z"/></g>
<g><path style="opacity:1" fill="#f0f0f0" d="M 64.5,385.5 C 69.0485,385.376 73.3819,384.709 77.5,383.5C 81.1947,382.54 84.8614,382.54 88.5,383.5C 86.7701,385.793 85.4367,388.293 84.5,391C 74.7981,392.774 65.1314,394.607 55.5,396.5C 55.4519,393.687 54.7853,391.021 53.5,388.5C 56.7571,386.121 60.4238,385.121 64.5,385.5 Z"/></g>
<g><path style="opacity:1" fill="#585858" d="M 73.5,382.5 C 74.5676,383.434 75.901,383.768 77.5,383.5C 73.3819,384.709 69.0485,385.376 64.5,385.5C 63.791,384.596 62.791,384.263 61.5,384.5C 65.2357,383.011 69.2357,382.344 73.5,382.5 Z"/></g>
<g><path style="opacity:1" fill="#bfbfbf" d="M 73.5,382.5 C 69.2357,382.344 65.2357,383.011 61.5,384.5C 57.8023,384.194 54.3023,384.861 51,386.5C 49.7202,386.387 48.8869,385.72 48.5,384.5C 53.9228,382.318 59.5895,381.318 65.5,381.5C 67.099,381.768 68.4324,381.434 69.5,380.5C 75.4964,379.866 81.4964,379.7 87.5,380C 82.8442,380.998 78.1776,381.831 73.5,382.5 Z"/></g>
<g><path style="opacity:1" fill="#585858" d="M 83.5,373.5 C 82.7375,374.268 81.7375,374.768 80.5,375C 81.0944,375.464 81.7611,375.631 82.5,375.5C 79.014,376.533 75.3474,377.367 71.5,378C 72.7932,378.49 74.1266,378.657 75.5,378.5C 73.5,379.167 71.5,379.833 69.5,380.5C 68.4324,381.434 67.099,381.768 65.5,381.5C 63.369,380.686 61.0356,380.186 58.5,380C 59.5,379.667 60.5,379.333 61.5,379C 58.8428,378.825 56.1761,378.992 53.5,379.5C 63.1855,376.68 73.1855,374.68 83.5,373.5 Z"/></g>
<g><path style="opacity:1" fill="#c0c0c0" d="M 75.5,378.5 C 74.1266,378.657 72.7932,378.49 71.5,378C 75.3474,377.367 79.014,376.533 82.5,375.5C 85.3761,375.073 88.2094,374.406 91,373.5C 92.395,373.78 93.5617,374.447 94.5,375.5C 88.3191,377.299 81.9858,378.299 75.5,378.5 Z"/></g>
<g><path style="opacity:1" fill="#dedede" d="M 70.5,415.5 C 71.9778,415.238 73.3112,415.571 74.5,416.5C 72.68,420.147 71.0134,423.814 69.5,427.5C 67.7775,425.222 66.4441,422.722 65.5,420C 66.7615,418.038 68.4281,416.538 70.5,415.5 Z"/></g>
</svg>
