<?xml version="1.0" encoding="UTF-8"?>
<!DOCTYPE svg PUBLIC "-//W3C//DTD SVG 1.1//EN" "http://www.w3.org/Graphics/SVG/1.1/DTD/svg11.dtd">
<svg xmlns="http://www.w3.org/2000/svg" version="1.1" width="132px" height="436px" style="shape-rendering:geometricPrecision; text-rendering:geometricPrecision; image-rendering:optimizeQuality; fill-rule:evenodd; clip-rule:evenodd" xmlns:xlink="http://www.w3.org/1999/xlink">
<g><path style="opacity:1" fill="#fcfcfc" d="M -0.5,-0.5 C 43.5,-0.5 87.5,-0.5 131.5,-0.5C 131.5,144.833 131.5,290.167 131.5,435.5C 87.5,435.5 43.5,435.5 -0.5,435.5C -0.5,290.167 -0.5,144.833 -0.5,-0.5 Z"/></g>
<g><path style="opacity:1" fill="#2e2e2e" d="M 59.5,6.5 C 91.8133,6.05443 111.98,21.3878 120,52.5C 122.987,87.4914 107.487,108.991 73.5,117C 39.2366,119.447 18.0699,103.947 10,70.5C 7.64814,40.8688 20.1481,20.3688 47.5,9C 51.6653,8.29464 55.6653,7.46131 59.5,6.5 Z"/></g>
<g><path style="opacity:1" fill="#fafafa" d="M 55.5,8.5 C 87.6613,6.64523 108.495,20.9786 118,51.5C 121.414,77.5023 111.914,97.0023 89.5,110C 61.4839,121.705 38.3173,115.539 20,91.5C 4.77585,62.9157 9.60919,38.4157 34.5,18C 41.0953,13.698 48.0953,10.5314 55.5,8.5 Z"/></g>
<g><path style="opacity:1" fill="#777777" d="M 93.5,56.5 C 94.4834,60.2984 94.8168,64.2984 94.5,68.5C 90.3425,68.3316 86.3425,68.9983 82.5,70.5C 83.347,69.0337 84.6803,68.2004 86.5,68C 88.8098,67.5034 91.1432,67.3367 93.5,67.5C 93.5,63.8333 93.5,60.1667 93.5,56.5 Z"/></g>
<g><path style="opacity:1" fill="#2a2a2a" d="M 59.5,33.5 C 63.1667,33.5 66.8333,33.5 70.5,33.5C 70.3367,35.8568 70.5034,38.1902 71,40.5C 71.3826,41.056 71.8826,41.3893 72.5,41.5C 75.3198,52.0964 82.3198,57.0964 93.5,56.5C 93.5,60.1667 93.5,63.8333 93.5,67.5C 91.1432,67.3367 88.8098,67.5034 86.5,68C 84.6803,68.2004 83.347,69.0337 82.5,70.5C 76.7501,72.9594 73.0835,77.2928 71.5,83.5C 70.5318,85.6074 70.1984,87.9407 70.5,90.5C 66.8333,90.5 63.1667,90.5 59.5,90.5C 59.0388,75.7065 51.3721,68.3732 36.5,68.5C 36.5,64.5 36.5,60.5 36.5,56.5C 51.0899,55.9103 58.7566,48.2436 59.5,33.5 Z"/></g>
<g><path style="opacity:1" fill="#9d9d9d" d="M 78.5,67.5 C 79.552,67.3505 80.552,67.5172 81.5,68C 77.3333,70.8333 73.8333,74.3333 71,78.5C 70.5825,76.212 71.2491,74.212 73,72.5C 74.8119,70.6997 76.6452,69.0331 78.5,67.5 Z"/></g>
<g><path style="opacity:1" fill="#989898" d="M 48.5,68.5 C 50.0894,67.3789 51.7561,67.5456 53.5,69C 57.1518,71.2739 58.9851,74.4406 59,78.5C 56.9468,73.6127 53.4468,70.2794 48.5,68.5 Z"/></g>
<g><path style="opacity:1" fill="#a4a4a4" d="M 87.5,59.5 C 88.9187,58.5489 90.5853,58.2155 92.5,58.5C 92.5,61.1667 92.5,63.8333 92.5,66.5C 90.5,66.1667 88.5,65.8333 86.5,65.5C 86.2053,63.2646 86.5386,61.2646 87.5,59.5 Z"/></g>
<g><path style="opacity:1" fill="#919191" d="M 40.5,65.5 C 42.0746,63.8863 42.7413,61.8863 42.5,59.5C 41.1667,59.5 39.8333,59.5 38.5,59.5C 38.5,61.5 38.5,63.5 38.5,65.5C 37.5318,63.3926 37.1984,61.0593 37.5,58.5C 39.5,58.5 41.5,58.5 43.5,58.5C 43.5,60.8333 43.5,63.1667 43.5,65.5C 42.5,65.5 41.5,65.5 40.5,65.5 Z"/></g>
<g><path style="opacity:1" fill="#f6f6f6" d="M 87.5,59.5 C 88.8333,59.5 90.1667,59.5 91.5,59.5C 91.6621,61.5273 91.4955,63.5273 91,65.5C 89.9887,64.6634 88.8221,64.33 87.5,64.5C 87.5,62.8333 87.5,61.1667 87.5,59.5 Z"/></g>
<g><path style="opacity:1" fill="#f5f5f5" d="M 40.5,65.5 C 39.8333,65.5 39.1667,65.5 38.5,65.5C 38.5,63.5 38.5,61.5 38.5,59.5C 39.8333,59.5 41.1667,59.5 42.5,59.5C 42.7413,61.8863 42.0746,63.8863 40.5,65.5 Z"/></g>
<g><path style="opacity:1" fill="#9f9f9f" d="M 70.5,45.5 C 72.636,47.8123 74.636,50.3123 76.5,53C 78.1667,54 79.8333,55 81.5,56C 80.1667,56.6667 78.8333,56.6667 77.5,56C 73.6994,53.3859 71.366,49.8859 70.5,45.5 Z"/></g>
<g><path style="opacity:1" fill="#9d9d9d" d="M 58.5,46.5 C 59.5735,47.2506 59.7401,48.2506 59,49.5C 56.7477,53.2154 53.581,55.8821 49.5,57.5C 49.1667,57.1667 48.8333,56.8333 48.5,56.5C 52.8548,54.1452 56.1881,50.8119 58.5,46.5 Z"/></g>
<g><path style="opacity:1" fill="#f4f4f4" d="M 62.5,42.5 C 64.5,42.5 66.5,42.5 68.5,42.5C 69.0767,52.7412 74.41,58.4079 84.5,59.5C 84.5,61.1667 84.5,62.8333 84.5,64.5C 74.5164,65.8169 68.8497,71.4836 67.5,81.5C 65.8333,81.5 64.1667,81.5 62.5,81.5C 61.362,71.3622 55.6954,66.0288 45.5,65.5C 45.5,63.1667 45.5,60.8333 45.5,58.5C 55.696,57.9705 61.3626,52.6372 62.5,42.5 Z"/></g>
<g><path style="opacity:1" fill="#939393" d="M 67.5,39.5 C 67.5,38.1667 67.5,36.8333 67.5,35.5C 65.8333,35.5 64.1667,35.5 62.5,35.5C 62.5,36.8333 62.5,38.1667 62.5,39.5C 61.5489,38.0813 61.2155,36.4147 61.5,34.5C 63.8333,34.5 66.1667,34.5 68.5,34.5C 68.7845,36.4147 68.4511,38.0813 67.5,39.5 Z"/></g>
<g><path style="opacity:1" fill="#ebebeb" d="M 67.5,39.5 C 65.8333,40.8333 64.1667,40.8333 62.5,39.5C 62.5,38.1667 62.5,36.8333 62.5,35.5C 64.1667,35.5 65.8333,35.5 67.5,35.5C 67.5,36.8333 67.5,38.1667 67.5,39.5 Z"/></g>
<g><path style="opacity:1" fill="#b0b0b0" d="M 59.5,33.5 C 63.6344,32.5151 67.9677,32.1818 72.5,32.5C 72.5,35.5 72.5,38.5 72.5,41.5C 71.8826,41.3893 71.3826,41.056 71,40.5C 70.5034,38.1902 70.3367,35.8568 70.5,33.5C 66.8333,33.5 63.1667,33.5 59.5,33.5 Z"/></g>
<g><path style="opacity:1" fill="#adadad" d="M 62.5,84.5 C 64.2646,83.5386 66.2646,83.2053 68.5,83.5C 68.5,85.5 68.5,87.5 68.5,89.5C 66.1667,89.5 63.8333,89.5 61.5,89.5C 61.2155,87.5853 61.5489,85.9187 62.5,84.5 Z"/></g>
<g><path style="opacity:1" fill="#f8f8f8" d="M 62.5,84.5 C 64.1667,84.5 65.8333,84.5 67.5,84.5C 67.5,85.8333 67.5,87.1667 67.5,88.5C 65.8333,88.5 64.1667,88.5 62.5,88.5C 62.5,87.1667 62.5,85.8333 62.5,84.5 Z"/></g>
<g><path style="opacity:1" fill="#696969" d="M 71.5,83.5 C 71.5,86.1667 71.5,88.8333 71.5,91.5C 67.2984,91.8168 63.2984,91.4834 59.5,90.5C 63.1667,90.5 66.8333,90.5 70.5,90.5C 70.1984,87.9407 70.5318,85.6074 71.5,83.5 Z"/></g>
<g><path style="opacity:1" fill="#232323" d="M 118.5,172.5 C 117.833,172.167 117.167,171.833 116.5,171.5C 117.167,170.833 117.833,170.167 118.5,169.5C 119.434,168.432 119.768,167.099 119.5,165.5C 83.5,165.5 47.5,165.5 11.5,165.5C 10.5655,164.432 10.2322,163.099 10.5,161.5C 11.5676,159.26 13.2342,157.426 15.5,156C 26.8115,148.677 39.1449,144.177 52.5,142.5C 57.1768,143.021 61.5101,144.354 65.5,146.5C 68.2292,146.495 70.2292,145.329 71.5,143C 89.7682,143.053 105.935,148.886 120,160.5C 120.667,164.167 120.667,167.833 120,171.5C 119.617,172.056 119.117,172.389 118.5,172.5 Z"/></g>
<g><path style="opacity:1" fill="#616161" d="M 12.5,161.5 C 47.4842,163.493 82.8176,164.16 118.5,163.5C 83.0039,164.498 47.3372,164.832 11.5,164.5C 11.2627,163.209 11.596,162.209 12.5,161.5 Z"/></g>
<g><path style="opacity:1" fill="#f8f8f8" d="M 118.5,163.5 C 82.8176,164.16 47.4842,163.493 12.5,161.5C 25.8421,150.386 41.1755,145.053 58.5,145.5C 59.3857,146.325 59.719,147.325 59.5,148.5C 63.1817,148.665 66.8484,148.499 70.5,148C 71.447,145.118 73.447,143.952 76.5,144.5C 91.0437,146.608 104.377,151.774 116.5,160C 117.823,160.816 118.489,161.983 118.5,163.5 Z"/></g>
<g><path style="opacity:1" fill="#a0a0a0" d="M 11.5,166.5 C 11.5,166.167 11.5,165.833 11.5,165.5C 47.5,165.5 83.5,165.5 119.5,165.5C 119.768,167.099 119.434,168.432 118.5,169.5C 118.5,169.167 118.5,168.833 118.5,168.5C 83.5158,166.507 48.1824,165.84 12.5,166.5C 12.1667,166.5 11.8333,166.5 11.5,166.5 Z"/></g>
<g><path style="opacity:1" fill="#fefefe" d="M 12.5,166.5 C 48.1824,165.84 83.5158,166.507 118.5,168.5C 82.8176,169.16 47.4842,168.493 12.5,166.5 Z"/></g>
<g><path style="opacity:1" fill="#cfcfcf" d="M 11.5,166.5 C 11.8333,166.5 12.1667,166.5 12.5,166.5C 47.4842,168.493 82.8176,169.16 118.5,168.5C 118.5,168.833 118.5,169.167 118.5,169.5C 82.8333,169.5 47.1667,169.5 11.5,169.5C 11.5,168.5 11.5,167.5 11.5,166.5 Z"/></g>
<g><path style="opacity:1" fill="#8c8c8c" d="M 84.5,203.5 C 71.8333,203.5 59.1667,203.5 46.5,203.5C 46.5,206.5 46.5,209.5 46.5,212.5C 45.5233,209.713 45.19,206.713 45.5,203.5C 58.5,202.167 71.5,202.167 84.5,203.5 Z"/></g>
<g><path style="opacity:1" fill="#f4f4f4" d="M 84.5,203.5 C 84.824,210.354 84.4907,217.021 83.5,223.5C 71.0229,224.664 58.6896,226.664 46.5,229.5C 45.1667,227.167 45.1667,224.833 46.5,222.5C 52.8291,221.381 59.1625,220.214 65.5,219C 68.6025,217.719 71.2692,215.886 73.5,213.5C 64.6934,209.975 55.6934,209.642 46.5,212.5C 46.5,209.5 46.5,206.5 46.5,203.5C 59.1667,203.5 71.8333,203.5 84.5,203.5 Z"/></g>
<g><path style="opacity:1" fill="#c5c5c5" d="M 84.5,224.5 C 86.3464,224.222 87.6798,224.889 88.5,226.5C 86.3691,227.169 84.3691,227.835 82.5,228.5C 71.1527,229.503 59.8193,230.336 48.5,231C 60.7009,229.154 72.7009,226.987 84.5,224.5 Z"/></g>
<g><path style="opacity:1" fill="#ebebeb" d="M 84.5,233.5 C 84.5,235.5 84.5,237.5 84.5,239.5C 71.968,241.103 59.6347,243.103 47.5,245.5C 46.8333,245.5 46.1667,245.5 45.5,245.5C 45.3379,243.473 45.5045,241.473 46,239.5C 58.5895,236.237 71.4228,234.237 84.5,233.5 Z"/></g>
<g><path style="opacity:1" fill="#3b3b3b" d="M 43.5,202.5 C 44.1667,202.833 44.8333,203.167 45.5,203.5C 45.19,206.713 45.5233,209.713 46.5,212.5C 55.6934,209.642 64.6934,209.975 73.5,213.5C 71.2692,215.886 68.6025,217.719 65.5,219C 59.1625,220.214 52.8291,221.381 46.5,222.5C 45.1667,224.833 45.1667,227.167 46.5,229.5C 58.6896,226.664 71.0229,224.664 83.5,223.5C 83.5,224.167 83.8333,224.5 84.5,224.5C 72.7009,226.987 60.7009,229.154 48.5,231C 59.8193,230.336 71.1527,229.503 82.5,228.5C 83.0906,229.151 83.7573,229.818 84.5,230.5C 84.0431,231.298 83.3764,231.631 82.5,231.5C 83.1667,232.167 83.8333,232.833 84.5,233.5C 71.4228,234.237 58.5895,236.237 46,239.5C 45.5045,241.473 45.3379,243.473 45.5,245.5C 44.8333,246.167 44.1667,246.833 43.5,247.5C 43.6641,244.813 43.4974,242.146 43,239.5C 35.6667,236.5 35.6667,233.5 43,230.5C 43.6667,228.167 43.6667,225.833 43,223.5C 35.9213,220.787 35.7546,217.787 42.5,214.5C 43.4909,210.555 43.8242,206.555 43.5,202.5 Z"/></g>
<g><path style="opacity:1" fill="#dadada" d="M 54.5,233.5 C 56.7354,233.205 58.7354,233.539 60.5,234.5C 54.8202,234.62 49.3202,235.62 44,237.5C 40.8785,236.294 40.8785,235.294 44,234.5C 47.4582,233.714 50.9582,233.38 54.5,233.5 Z"/></g>
<g><path style="opacity:1" fill="#ababab" d="M 82.5,231.5 C 75.1623,232.368 67.8289,233.368 60.5,234.5C 58.7354,233.539 56.7354,233.205 54.5,233.5C 61.9748,232.148 69.6415,231.148 77.5,230.5C 79.3693,230.507 81.036,230.84 82.5,231.5 Z"/></g>
<g><path style="opacity:1" fill="#cdcdcd" d="M 59.5,215.5 C 68.1436,215.24 68.4769,216.074 60.5,218C 55.2483,218.324 50.0816,219.157 45,220.5C 43.5962,220.491 42.4296,219.991 41.5,219C 47.5505,217.374 53.5505,216.208 59.5,215.5 Z"/></g>
<g><path style="opacity:1" fill="#a1a1a1" d="M 54.5,212.5 C 57.5184,212.335 60.5184,212.502 63.5,213C 58.8272,214.25 53.9938,215.083 49,215.5C 48.1667,215.333 47.3333,215.167 46.5,215C 49.3791,214.454 52.0458,213.621 54.5,212.5 Z"/></g>
<g><path style="opacity:1" fill="#3f3f3f" d="M 84.5,233.5 C 85.0652,236.305 86.0652,238.972 87.5,241.5C 77.5459,243.161 67.5459,244.494 57.5,245.5C 55.4352,245.517 53.4352,245.85 51.5,246.5C 50.4324,245.566 49.099,245.232 47.5,245.5C 59.6347,243.103 71.968,241.103 84.5,239.5C 84.5,237.5 84.5,235.5 84.5,233.5 Z"/></g>
<g><path style="opacity:1" fill="#cccccc" d="M 87.5,241.5 C 90.1315,242.867 89.7982,243.701 86.5,244C 78.1935,245.164 69.8601,245.997 61.5,246.5C 59.901,246.768 58.5676,246.434 57.5,245.5C 67.5459,244.494 77.5459,243.161 87.5,241.5 Z"/></g>
<g><path style="opacity:1" fill="#2e2e2e" d="M 10.5,161.5 C 10.2322,163.099 10.5655,164.432 11.5,165.5C 11.5,165.833 11.5,166.167 11.5,166.5C 11.5,167.5 11.5,168.5 11.5,169.5C 47.1667,169.5 82.8333,169.5 118.5,169.5C 117.833,170.167 117.167,170.833 116.5,171.5C 117.167,171.833 117.833,172.167 118.5,172.5C 108.198,182.633 97.6983,192.633 87,202.5C 86.3333,209.167 86.3333,215.833 87,222.5C 94.2935,225.404 94.2935,228.404 87,231.5C 86.1816,234.227 86.3483,236.894 87.5,239.5C 94.0022,242.029 94.0022,244.696 87.5,247.5C 86.3483,250.106 86.1816,252.773 87,255.5C 94.2935,258.404 94.2935,261.404 87,264.5C 86.3333,266.833 86.3333,269.167 87,271.5C 89.0153,272.697 90.8487,274.03 92.5,275.5C 90.7179,276.72 88.7179,277.386 86.5,277.5C 90.3461,275.758 89.8461,274.758 85,274.5C 76.1388,275.795 67.3055,277.128 58.5,278.5C 56.7354,277.539 54.7354,277.205 52.5,277.5C 62.3672,276.073 72.3672,274.573 82.5,273C 84.25,271.246 84.9167,269.079 84.5,266.5C 71.4395,267.699 58.4395,269.366 45.5,271.5C 45.5,273.833 45.5,276.167 45.5,278.5C 44.8333,279.167 44.1667,279.833 43.5,280.5C 43.6641,277.813 43.4974,275.146 43,272.5C 35.6667,269.5 35.6667,266.5 43,263.5C 43.8184,260.773 43.6517,258.106 42.5,255.5C 35.8836,252.298 36.217,249.631 43.5,247.5C 44.1667,246.833 44.8333,246.167 45.5,245.5C 46.1667,245.5 46.8333,245.5 47.5,245.5C 49.099,245.232 50.4324,245.566 51.5,246.5C 49.3453,246.372 47.3453,246.872 45.5,248C 51.0298,248.328 56.3631,247.828 61.5,246.5C 69.8601,245.997 78.1935,245.164 86.5,244C 89.7982,243.701 90.1315,242.867 87.5,241.5C 86.0652,238.972 85.0652,236.305 84.5,233.5C 83.8333,232.833 83.1667,232.167 82.5,231.5C 83.3764,231.631 84.0431,231.298 84.5,230.5C 83.7573,229.818 83.0906,229.151 82.5,228.5C 84.3691,227.835 86.3691,227.169 88.5,226.5C 87.6798,224.889 86.3464,224.222 84.5,224.5C 83.8333,224.5 83.5,224.167 83.5,223.5C 84.4907,217.021 84.824,210.354 84.5,203.5C 71.5,202.167 58.5,202.167 45.5,203.5C 44.8333,203.167 44.1667,202.833 43.5,202.5C 32.3119,192.299 21.1453,181.966 10,171.5C 9.1925,167.973 9.35916,164.64 10.5,161.5 Z"/></g>
<g><path style="opacity:1" fill="#eeeeee" d="M 52.5,277.5 C 50.0971,277.448 47.7638,277.781 45.5,278.5C 45.5,276.167 45.5,273.833 45.5,271.5C 58.4395,269.366 71.4395,267.699 84.5,266.5C 84.9167,269.079 84.25,271.246 82.5,273C 72.3672,274.573 62.3672,276.073 52.5,277.5 Z"/></g>
<g><path style="opacity:1" fill="#d3d3d3" d="M 71.5,263.5 C 75.1817,263.335 78.8484,263.501 82.5,264C 69.5559,265.586 56.7226,267.752 44,270.5C 42.5659,270.07 41.3992,269.236 40.5,268C 51.0056,266.755 61.3389,265.255 71.5,263.5 Z"/></g>
<g><path style="opacity:1" fill="#c9c9c9" d="M 83.5,257.5 C 85.8273,257.247 87.8273,257.914 89.5,259.5C 75.5997,262.123 61.5997,263.623 47.5,264C 59.6799,262.138 71.6799,259.972 83.5,257.5 Z"/></g>
<g><path style="opacity:1" fill="#ececec" d="M 81.5,249.5 C 82.5,249.5 83.5,249.5 84.5,249.5C 84.6621,251.527 84.4955,253.527 84,255.5C 82.9326,256.191 81.7659,256.691 80.5,257C 70.1419,258.136 59.8086,259.469 49.5,261C 46.7483,263.468 45.4149,262.801 45.5,259C 45.6752,257.342 46.3418,256.009 47.5,255C 57.7531,252.927 68.0865,251.427 78.5,250.5C 79.791,250.737 80.791,250.404 81.5,249.5 Z"/></g>
<g><path style="opacity:1" fill="#c7c7c7" d="M 76.5,247.5 C 77.2389,247.369 77.9056,247.536 78.5,248C 76.9419,248.21 75.6085,248.71 74.5,249.5C 64.2389,250.066 54.0722,251.4 44,253.5C 42.3376,253.612 41.1709,252.946 40.5,251.5C 52.4007,249.302 64.4007,247.969 76.5,247.5 Z"/></g>
<g><path style="opacity:1" fill="#666666" d="M 76.5,247.5 C 78.9664,246.366 81.633,246.199 84.5,247C 82.7536,247.471 81.087,248.138 79.5,249C 80.0944,249.464 80.7611,249.631 81.5,249.5C 80.791,250.404 79.791,250.737 78.5,250.5C 77.4324,249.566 76.099,249.232 74.5,249.5C 75.6085,248.71 76.9419,248.21 78.5,248C 77.9056,247.536 77.2389,247.369 76.5,247.5 Z"/></g>
<g><path style="opacity:1" fill="#8f8f8f" d="M 57.5,245.5 C 58.5676,246.434 59.901,246.768 61.5,246.5C 56.3631,247.828 51.0298,248.328 45.5,248C 47.3453,246.872 49.3453,246.372 51.5,246.5C 53.4352,245.85 55.4352,245.517 57.5,245.5 Z"/></g>
<g><path style="opacity:1" fill="#fafafa" d="M 116.5,171.5 C 106.698,181.133 96.6981,190.633 86.5,200C 72.1667,200.667 57.8333,200.667 43.5,200C 33.5,190.667 23.5,181.333 13.5,172C 47.8317,171.5 82.165,171.333 116.5,171.5 Z"/></g>
<g><path style="opacity:1" fill="#cdcdcd" d="M 86.5,277.5 C 72.819,278.858 59.1523,280.024 45.5,281C 49.6635,279.334 53.9968,278.501 58.5,278.5C 67.3055,277.128 76.1388,275.795 85,274.5C 89.8461,274.758 90.3461,275.758 86.5,277.5 Z"/></g>
<g><path style="opacity:1" fill="#222222" d="M 92.5,275.5 C 91.6123,277.809 89.9456,279.476 87.5,280.5C 86.1667,283.167 86.1667,285.833 87.5,288.5C 89.5,289.833 91.5,291.167 93.5,292.5C 91.5,294.327 89.3333,295.994 87,297.5C 86.3333,299.833 86.3333,302.167 87,304.5C 94.0822,307.321 94.2489,310.321 87.5,313.5C 86.1997,316.309 86.1997,318.976 87.5,321.5C 87.44,322.043 87.1067,322.376 86.5,322.5C 85.8319,320.031 85.1653,317.698 84.5,315.5C 71.3721,316.932 58.3721,318.932 45.5,321.5C 44.8333,321.5 44.1667,321.5 43.5,321.5C 36.1372,319.481 35.8039,316.814 42.5,313.5C 43.6517,310.894 43.8184,308.227 43,305.5C 35.7065,302.404 35.7065,299.404 43,296.5C 43.8184,293.773 43.6517,291.106 42.5,288.5C 35.8039,285.186 36.1372,282.519 43.5,280.5C 44.1667,279.833 44.8333,279.167 45.5,278.5C 47.7638,277.781 50.0971,277.448 52.5,277.5C 54.7354,277.205 56.7354,277.539 58.5,278.5C 53.9968,278.501 49.6635,279.334 45.5,281C 59.1523,280.024 72.819,278.858 86.5,277.5C 88.7179,277.386 90.7179,276.72 92.5,275.5 Z"/></g>
<g><path style="opacity:1" fill="#d5d5d5" d="M 83.5,290.5 C 85.8273,290.247 87.8273,290.914 89.5,292.5C 75.5882,294.916 61.5882,296.416 47.5,297C 59.6261,294.824 71.6261,292.658 83.5,290.5 Z"/></g>
<g><path style="opacity:1" fill="#f0f0f0" d="M 79.5,282.5 C 81.1667,282.5 82.8333,282.5 84.5,282.5C 84.7564,284.792 84.4231,286.959 83.5,289C 70.8443,290.998 58.1777,292.832 45.5,294.5C 45.2436,292.208 45.5769,290.041 46.5,288C 57.6343,286.073 68.6343,284.239 79.5,282.5 Z"/></g>
<g><path style="opacity:1" fill="#d2d2d2" d="M 75.5,279.5 C 78.5184,279.335 81.5184,279.502 84.5,280C 71.1687,282.214 57.8354,284.381 44.5,286.5C 43.062,286.281 41.7287,285.781 40.5,285C 52.2123,282.759 63.879,280.926 75.5,279.5 Z"/></g>
<g><path style="opacity:1" fill="#dbdbdb" d="M 72.5,296.5 C 75.8499,296.335 79.1832,296.502 82.5,297C 69.5618,298.555 56.7285,300.721 44,303.5C 42.5659,303.07 41.3992,302.236 40.5,301C 51.2608,299.163 61.9275,297.663 72.5,296.5 Z"/></g>
<g><path style="opacity:1" fill="#ececec" d="M 81.5,298.5 C 82.5,298.5 83.5,298.5 84.5,298.5C 84.9577,301.394 84.291,303.894 82.5,306C 70.1149,307.589 57.7815,309.423 45.5,311.5C 45.5,309.167 45.5,306.833 45.5,304.5C 57.6849,302.816 69.6849,300.816 81.5,298.5 Z"/></g>
<g><path style="opacity:1" fill="#cacaca" d="M 80.5,307.5 C 83.7216,307.108 86.7216,307.608 89.5,309C 74.8758,311.329 60.2091,312.995 45.5,314C 57.2162,311.498 68.8829,309.331 80.5,307.5 Z"/></g>
<g><path style="opacity:1" fill="#cdcdcd" d="M 77.5,312.5 C 79.5273,312.338 81.5273,312.505 83.5,313C 70.5233,315.256 57.5233,317.423 44.5,319.5C 42.8927,319.363 41.5594,318.696 40.5,317.5C 52.932,315.628 65.2653,313.961 77.5,312.5 Z"/></g>
<g><path style="opacity:1" fill="#ececec" d="M 84.5,315.5 C 84.7564,317.792 84.4231,319.959 83.5,322C 70.8395,323.923 58.1728,325.757 45.5,327.5C 45.5,325.5 45.5,323.5 45.5,321.5C 58.3721,318.932 71.3721,316.932 84.5,315.5 Z"/></g>
<g><path style="opacity:1" fill="#2c2c2c" d="M 84.5,315.5 C 85.1653,317.698 85.8319,320.031 86.5,322.5C 87.1067,322.376 87.44,322.043 87.5,321.5C 89.6134,322.548 91.2801,324.048 92.5,326C 90.7904,327.611 88.9571,329.111 87,330.5C 86.3333,332.833 86.3333,335.167 87,337.5C 89.1438,338.646 90.9772,340.146 92.5,342C 90.9772,343.854 89.1438,345.354 87,346.5C 86.1816,349.227 86.3483,351.894 87.5,354.5C 89.5473,355.185 91.2139,356.351 92.5,358C 91.0964,360.527 89.0964,362.36 86.5,363.5C 85.209,363.737 84.209,363.404 83.5,362.5C 83.8333,362.5 84.1667,362.5 84.5,362.5C 85.4013,361.71 86.0679,360.71 86.5,359.5C 88.9169,357.504 88.2502,356.504 84.5,356.5C 83.209,356.737 82.209,356.404 81.5,355.5C 84.0209,353.97 85.0209,351.636 84.5,348.5C 83.8333,347.833 83.1667,347.167 82.5,346.5C 82.4628,345.698 81.4628,345.365 79.5,345.5C 70.9841,346.209 62.6508,347.209 54.5,348.5C 50.7852,348.423 47.1185,348.756 43.5,349.5C 41.4862,349.392 39.8195,350.058 38.5,351.5C 37.9033,351.265 37.5699,350.765 37.5,350C 39.0228,348.146 40.8562,346.646 43,345.5C 43.6667,343.167 43.6667,340.833 43,338.5C 35.9213,335.787 35.7546,332.787 42.5,329.5C 43.48,326.914 43.8134,324.247 43.5,321.5C 44.1667,321.5 44.8333,321.5 45.5,321.5C 45.5,323.5 45.5,325.5 45.5,327.5C 58.1728,325.757 70.8395,323.923 83.5,322C 84.4231,319.959 84.7564,317.792 84.5,315.5 Z"/></g>
<g><path style="opacity:1" fill="#aaaaaa" d="M 82.5,346.5 C 73.5119,347.832 64.5119,349.165 55.5,350.5C 56.2625,349.732 57.2625,349.232 58.5,349C 57.2068,348.51 55.8734,348.343 54.5,348.5C 62.6508,347.209 70.9841,346.209 79.5,345.5C 81.4628,345.365 82.4628,345.698 82.5,346.5 Z"/></g>
<g><path style="opacity:1" fill="#b7b7b7" d="M 84.5,339.5 C 86.4835,339.383 88.1502,340.05 89.5,341.5C 88.9747,342.192 88.3081,342.692 87.5,343C 73.4762,344.529 59.4762,345.863 45.5,347C 58.58,344.578 71.58,342.078 84.5,339.5 Z"/></g>
<g><path style="opacity:1" fill="#c3c3c3" d="M 79.5,328.5 C 81.1992,328.34 82.8659,328.506 84.5,329C 74.0489,331.476 63.3823,333.142 52.5,334C 49.6074,334.631 46.7741,335.464 44,336.5C 41.6587,335.993 41.1587,334.826 42.5,333C 54.9958,331.641 67.3291,330.141 79.5,328.5 Z"/></g>
<g><path style="opacity:1" fill="#ebebeb" d="M 81.5,331.5 C 82.5,331.5 83.5,331.5 84.5,331.5C 84.5,333.833 84.5,336.167 84.5,338.5C 71.4624,340.241 58.4624,342.241 45.5,344.5C 45.0423,341.606 45.709,339.106 47.5,337C 59.0503,335.62 70.3837,333.787 81.5,331.5 Z"/></g>
<g><path style="opacity:1" fill="#c6c6c6" d="M 83.5,323.5 C 85.8273,323.247 87.8273,323.914 89.5,325.5C 75.5732,327.859 61.5732,329.359 47.5,330C 59.6277,327.962 71.6277,325.795 83.5,323.5 Z"/></g>
<g><path style="opacity:1" fill="#efefef" d="M 84.5,348.5 C 85.0209,351.636 84.0209,353.97 81.5,355.5C 73.5826,355.614 65.916,356.614 58.5,358.5C 54.1928,359.327 49.8595,359.993 45.5,360.5C 45.2436,358.208 45.5769,356.041 46.5,354C 59.1265,351.838 71.7932,350.004 84.5,348.5 Z"/></g>
<g><path style="opacity:1" fill="#d8d8d8" d="M 54.5,348.5 C 55.8734,348.343 57.2068,348.51 58.5,349C 57.2625,349.232 56.2625,349.732 55.5,350.5C 51.6254,350.896 47.7921,351.562 44,352.5C 40.9628,351.68 40.7961,350.68 43.5,349.5C 47.1185,348.756 50.7852,348.423 54.5,348.5 Z"/></g>
<g><path style="opacity:1" fill="#7c7c7c" d="M 81.5,355.5 C 82.209,356.404 83.209,356.737 84.5,356.5C 83.0813,357.451 81.4147,357.784 79.5,357.5C 78.7261,356.853 77.7261,356.52 76.5,356.5C 70.5462,357.636 64.5462,358.303 58.5,358.5C 65.916,356.614 73.5826,355.614 81.5,355.5 Z"/></g>
<g><path style="opacity:1" fill="#b7b7b7" d="M 84.5,356.5 C 88.2502,356.504 88.9169,357.504 86.5,359.5C 73.1694,361.001 59.8361,362.167 46.5,363C 57.3959,360.596 68.3959,358.763 79.5,357.5C 81.4147,357.784 83.0813,357.451 84.5,356.5 Z"/></g>
<g><path style="opacity:1" fill="#363636" d="M 82.5,346.5 C 83.1667,347.167 83.8333,347.833 84.5,348.5C 71.7932,350.004 59.1265,351.838 46.5,354C 45.5769,356.041 45.2436,358.208 45.5,360.5C 49.8595,359.993 54.1928,359.327 58.5,358.5C 64.5462,358.303 70.5462,357.636 76.5,356.5C 77.7261,356.52 78.7261,356.853 79.5,357.5C 68.3959,358.763 57.3959,360.596 46.5,363C 59.8361,362.167 73.1694,361.001 86.5,359.5C 86.0679,360.71 85.4013,361.71 84.5,362.5C 83.9032,361.861 83.0698,361.528 82,361.5C 69.2161,363.407 56.3827,364.907 43.5,366C 40.9244,367.383 41.2577,368.217 44.5,368.5C 57.5166,366.227 70.5166,364.227 83.5,362.5C 84.209,363.404 85.209,363.737 86.5,363.5C 86.3367,365.857 86.5034,368.19 87,370.5C 89.3914,371.429 91.2247,372.929 92.5,375C 90.2728,376.706 88.1061,378.54 86,380.5C 84.8644,383.096 84.031,385.763 83.5,388.5C 79.6742,389.48 79.6742,390.313 83.5,391C 83.1667,391.333 82.8333,391.667 82.5,392C 79.7563,392.441 77.7563,391.941 76.5,390.5C 80.1541,389.169 82.4874,386.502 83.5,382.5C 82.5,382.167 81.5,381.833 80.5,381.5C 70.1716,382.944 59.8383,384.277 49.5,385.5C 49.5029,388.675 50.5029,391.508 52.5,394C 54.7972,394.018 57.1305,393.851 59.5,393.5C 57.2388,395.255 54.5722,396.422 51.5,397C 52.0944,397.464 52.7611,397.631 53.5,397.5C 52.9094,398.151 52.2427,398.818 51.5,399.5C 52,399.833 52.5,400.167 53,400.5C 59.2223,398.859 64.7223,397.192 69.5,395.5C 70.4486,394.848 71.6153,394.514 73,394.5C 74.8809,394.93 76.3809,395.596 77.5,396.5C 77.2627,397.791 77.596,398.791 78.5,399.5C 76.4583,401.957 76.125,404.623 77.5,407.5C 76.0366,409.393 74.3699,411.059 72.5,412.5C 72.8146,410.774 72.9813,409.107 73,407.5C 69.7073,409.208 66.2073,410.208 62.5,410.5C 63.2998,412.741 64.9664,413.741 67.5,413.5C 64.9726,414.267 62.9726,415.767 61.5,418C 62.7865,420.071 63.9532,422.238 65,424.5C 66.7385,421.121 68.5718,417.788 70.5,414.5C 70.3764,413.893 70.0431,413.56 69.5,413.5C 70.3478,412.375 71.3478,412.375 72.5,413.5C 70.3768,418.367 68.5434,423.367 67,428.5C 65.8173,429.731 64.6507,429.731 63.5,428.5C 62.1813,425.558 61.0146,422.558 60,419.5C 59.3109,418.643 58.4776,417.977 57.5,417.5C 56.9715,412.593 55.6381,407.926 53.5,403.5C 52.086,402.376 50.586,401.376 49,400.5C 50.3508,392.7 47.5175,386.867 40.5,383C 43.0699,379.342 44.0699,375.175 43.5,370.5C 35.9465,368.828 35.6132,366.161 42.5,362.5C 43.8333,359.833 43.8333,357.167 42.5,354.5C 40.739,353.965 39.4057,352.965 38.5,351.5C 39.8195,350.058 41.4862,349.392 43.5,349.5C 40.7961,350.68 40.9628,351.68 44,352.5C 47.7921,351.562 51.6254,350.896 55.5,350.5C 64.5119,349.165 73.5119,347.832 82.5,346.5 Z"/></g>
<g><path style="opacity:1" fill="#eeeeee" d="M 63.5,375.5 C 60.9407,375.198 58.6074,375.532 56.5,376.5C 52.7512,376.751 49.0845,377.417 45.5,378.5C 45.2229,375.552 45.5562,372.719 46.5,370C 59.1792,368.165 71.8459,366.332 84.5,364.5C 84.5,366.833 84.5,369.167 84.5,371.5C 77.269,372.289 70.269,373.622 63.5,375.5 Z"/></g>
<g><path style="opacity:1" fill="#bfbfbf" d="M 84.5,362.5 C 84.1667,362.5 83.8333,362.5 83.5,362.5C 70.5166,364.227 57.5166,366.227 44.5,368.5C 41.2577,368.217 40.9244,367.383 43.5,366C 56.3827,364.907 69.2161,363.407 82,361.5C 83.0698,361.528 83.9032,361.861 84.5,362.5 Z"/></g>
<g><path style="opacity:1" fill="#bfbfbf" d="M 80.5,376.5 C 75.6556,377.217 70.9889,377.217 66.5,376.5C 73.1204,375.858 79.6204,374.525 86,372.5C 87.395,372.78 88.5617,373.447 89.5,374.5C 86.5623,375.489 83.5623,376.156 80.5,376.5 Z"/></g>
<g><path style="opacity:1" fill="#5e5e5e" d="M 56.5,376.5 C 58.6074,375.532 60.9407,375.198 63.5,375.5C 64.209,376.404 65.209,376.737 66.5,376.5C 70.9889,377.217 75.6556,377.217 80.5,376.5C 81.7175,377.161 83.0508,377.828 84.5,378.5C 84.0431,379.298 83.3764,379.631 82.5,379.5C 78.0111,378.783 73.3444,378.783 68.5,379.5C 63.1436,378.969 59.1436,377.969 56.5,376.5 Z"/></g>
<g><path style="opacity:1" fill="#b7b7b7" d="M 82.5,379.5 C 70.5825,380.608 58.7492,382.275 47,384.5C 44.2007,383.763 44.0341,382.93 46.5,382C 53.7907,380.777 61.124,379.943 68.5,379.5C 73.3444,378.783 78.0111,378.783 82.5,379.5 Z"/></g>
<g><path style="opacity:1" fill="#f2f2f2" d="M 76.5,390.5 C 75.8333,390.5 75.1667,390.5 74.5,390.5C 70.1586,390.658 66.1586,391.658 62.5,393.5C 61.5,393.5 60.5,393.5 59.5,393.5C 57.1305,393.851 54.7972,394.018 52.5,394C 50.5029,391.508 49.5029,388.675 49.5,385.5C 59.8383,384.277 70.1716,382.944 80.5,381.5C 81.5,381.833 82.5,382.167 83.5,382.5C 82.4874,386.502 80.1541,389.169 76.5,390.5 Z"/></g>
<g><path style="opacity:1" fill="#646464" d="M 74.5,390.5 C 70.8414,392.342 66.8414,393.342 62.5,393.5C 66.1586,391.658 70.1586,390.658 74.5,390.5 Z"/></g>
<g><path style="opacity:1" fill="#141414" d="M 83.5,388.5 C 84.984,389.473 85.484,390.807 85,392.5C 81.2742,393.392 79.1076,395.726 78.5,399.5C 77.596,398.791 77.2627,397.791 77.5,396.5C 76.3809,395.596 74.8809,394.93 73,394.5C 71.6153,394.514 70.4486,394.848 69.5,395.5C 64.1144,395.777 58.781,396.444 53.5,397.5C 52.7611,397.631 52.0944,397.464 51.5,397C 54.5722,396.422 57.2388,395.255 59.5,393.5C 60.5,393.5 61.5,393.5 62.5,393.5C 66.8414,393.342 70.8414,392.342 74.5,390.5C 75.1667,390.5 75.8333,390.5 76.5,390.5C 77.7563,391.941 79.7563,392.441 82.5,392C 82.8333,391.667 83.1667,391.333 83.5,391C 79.6742,390.313 79.6742,389.48 83.5,388.5 Z"/></g>
<g><path style="opacity:1" fill="#9a9a9a" d="M 69.5,395.5 C 64.7223,397.192 59.2223,398.859 53,400.5C 52.5,400.167 52,399.833 51.5,399.5C 52.2427,398.818 52.9094,398.151 53.5,397.5C 58.781,396.444 64.1144,395.777 69.5,395.5 Z"/></g>
<g><path style="opacity:1" fill="#ededed" d="M 62.5,410.5 C 61.0331,411.292 59.6998,411.292 58.5,410.5C 57.8749,407.815 56.8749,405.315 55.5,403C 55.6448,402.228 55.9781,401.561 56.5,401C 63.0763,399.251 69.7429,398.084 76.5,397.5C 75.9916,400.852 74.6582,403.852 72.5,406.5C 68.9872,407.664 65.6538,408.998 62.5,410.5 Z"/></g>
<g><path style="opacity:1" fill="#070707" d="M 72.5,412.5 C 72.5,412.833 72.5,413.167 72.5,413.5C 71.3478,412.375 70.3478,412.375 69.5,413.5C 68.8333,413.5 68.1667,413.5 67.5,413.5C 64.9664,413.741 63.2998,412.741 62.5,410.5C 66.2073,410.208 69.7073,409.208 73,407.5C 72.9813,409.107 72.8146,410.774 72.5,412.5 Z"/></g>
<g><path style="opacity:1" fill="#e8e8e8" d="M 67.5,413.5 C 68.1667,413.5 68.8333,413.5 69.5,413.5C 70.0431,413.56 70.3764,413.893 70.5,414.5C 68.5718,417.788 66.7385,421.121 65,424.5C 63.9532,422.238 62.7865,420.071 61.5,418C 62.9726,415.767 64.9726,414.267 67.5,413.5 Z"/></g>
</svg>
