<?xml version="1.0" encoding="UTF-8"?>
<!DOCTYPE svg PUBLIC "-//W3C//DTD SVG 1.1//EN" "http://www.w3.org/Graphics/SVG/1.1/DTD/svg11.dtd">
<svg xmlns="http://www.w3.org/2000/svg" version="1.1" width="115px" height="432px" style="shape-rendering:geometricPrecision; text-rendering:geometricPrecision; image-rendering:optimizeQuality; fill-rule:evenodd; clip-rule:evenodd" xmlns:xlink="http://www.w3.org/1999/xlink">
<g><path style="opacity:1" fill="#fdfdfd" d="M -0.5,-0.5 C 37.8333,-0.5 76.1667,-0.5 114.5,-0.5C 114.5,143.5 114.5,287.5 114.5,431.5C 76.1667,431.5 37.8333,431.5 -0.5,431.5C -0.5,287.5 -0.5,143.5 -0.5,-0.5 Z"/></g>
<g><path style="opacity:1" fill="#f8f8f8" d="M 100.5,34.5 C 108.143,56.0934 103.477,74.5934 86.5,90C 66.9542,102.72 47.6209,102.554 28.5,89.5C 14.1615,75.3616 9.32813,58.3616 14,38.5C 24.1427,15.6942 41.6427,5.52757 66.5,8C 82.1274,11.4752 93.4607,20.3085 100.5,34.5 Z"/></g>
<g><path style="opacity:1" fill="#373737" d="M 101.5,33.5 C 100.833,33.5 100.5,33.8333 100.5,34.5C 93.4607,20.3085 82.1274,11.4752 66.5,8C 41.6427,5.52757 24.1427,15.6942 14,38.5C 9.32813,58.3616 14.1615,75.3616 28.5,89.5C 27.8333,89.5 27.5,89.8333 27.5,90.5C 17.2921,81.7489 11.6254,70.7489 10.5,57.5C 10.3748,51.7969 10.7081,46.1302 11.5,40.5C 23.7546,9.87442 45.7546,-0.625581 77.5,9C 88.4051,14.4042 96.4051,22.5709 101.5,33.5 Z"/></g>
<g><path style="opacity:1" fill="#838383" d="M 11.5,40.5 C 10.7081,46.1302 10.3748,51.7969 10.5,57.5C 9.8367,55.3587 9.50337,53.0254 9.5,50.5C 9.31477,46.8589 9.98143,43.5256 11.5,40.5 Z"/></g>
<g><path style="opacity:1" fill="#2d2d2d" d="M 51.5,27.5 C 62.3839,26.1952 71.5506,29.5286 79,37.5C 84.9154,48.0874 84.9154,58.7541 79,69.5C 65.477,82.3129 51.8103,82.6462 38,70.5C 32.2458,61.5521 30.9125,51.8854 34,41.5C 38.2955,34.6833 44.1288,30.0167 51.5,27.5 Z"/></g>
<g><path style="opacity:1" fill="#8d8d8d" d="M 35.5,61.5 C 38.3203,63.4784 39.8203,66.145 40,69.5C 37.6963,67.2202 36.1963,64.5536 35.5,61.5 Z"/></g>
<g><path style="opacity:1" fill="#919191" d="M 79.5,60.5 C 80.1614,63.9012 78.9948,66.9012 76,69.5C 76.5752,66.3368 77.7419,63.3368 79.5,60.5 Z"/></g>
<g><path style="opacity:1" fill="#949494" d="M 75.5,37.5 C 78.6091,39.7183 80.1091,42.7183 80,46.5C 78.2389,43.5889 76.7389,40.5889 75.5,37.5 Z"/></g>
<g><path style="opacity:1" fill="#939393" d="M 39.5,37.5 C 40.0431,37.56 40.3764,37.8933 40.5,38.5C 39.1971,40.9676 37.6971,43.301 36,45.5C 36.3096,42.539 37.4763,39.8723 39.5,37.5 Z"/></g>
<g><path style="opacity:1" fill="#f7f7f7" d="M 45.5,32.5 C 53.8599,32.1688 62.1932,32.5021 70.5,33.5C 74.1834,40.2037 77.8501,46.8704 81.5,53.5C 77.3662,60.2882 73.6995,67.2882 70.5,74.5C 62.1667,74.5 53.8333,74.5 45.5,74.5C 42.1167,67.4019 38.45,60.4019 34.5,53.5C 37.907,46.3521 41.5737,39.3521 45.5,32.5 Z"/></g>
<g><path style="opacity:1" fill="#7a7a7a" d="M 51.5,75.5 C 55.5546,75.1758 59.5546,75.5091 63.5,76.5C 61.5,76.8333 59.5,77.1667 57.5,77.5C 55.0478,77.4609 53.0478,76.7943 51.5,75.5 Z"/></g>
<g><path style="opacity:1" fill="#2c2c2c" d="M 101.5,33.5 C 110.51,55.5265 106.177,74.6931 88.5,91C 84.9464,93.3933 81.2797,95.5599 77.5,97.5C 72.7851,99.0769 68.1184,100.41 63.5,101.5C 49.8839,102.625 37.8839,98.9579 27.5,90.5C 27.5,89.8333 27.8333,89.5 28.5,89.5C 47.6209,102.554 66.9542,102.72 86.5,90C 103.477,74.5934 108.143,56.0934 100.5,34.5C 100.5,33.8333 100.833,33.5 101.5,33.5 Z"/></g>
<g><path style="opacity:1" fill="#c1c1c1" d="M 77.5,97.5 C 73.573,100.927 68.9063,102.26 63.5,101.5C 68.1184,100.41 72.7851,99.0769 77.5,97.5 Z"/></g>
<g><path style="opacity:1" fill="#5e5e5e" d="M 10.5,142.5 C 10.5,154.167 10.5,165.833 10.5,177.5C 16.0262,177.179 21.3595,177.512 26.5,178.5C 20.8333,178.5 15.1667,178.5 9.5,178.5C 9.17159,166.322 9.50492,154.322 10.5,142.5 Z"/></g>
<g><path style="opacity:1" fill="#3f3f3f" d="M 74.5,141.5 C 74.7911,142.649 75.6244,143.316 77,143.5C 78.3756,143.316 79.2089,142.649 79.5,141.5C 80.3382,141.842 80.6716,142.508 80.5,143.5C 80.5,143.833 80.5,144.167 80.5,144.5C 77.8707,145.714 75.204,145.714 72.5,144.5C 71.5098,150.645 71.1765,156.978 71.5,163.5C 75.1667,163.5 78.8333,163.5 82.5,163.5C 82.5,156.833 82.5,150.167 82.5,143.5C 83.1667,143.167 83.8333,142.833 84.5,142.5C 84.8308,150.196 84.4975,157.862 83.5,165.5C 78.1394,168.512 72.8061,171.512 67.5,174.5C 66.7109,174.783 66.0442,175.283 65.5,176C 78.1623,176.5 90.8289,176.667 103.5,176.5C 103.56,177.043 103.893,177.376 104.5,177.5C 105.499,165.852 105.832,154.186 105.5,142.5C 106.833,154.5 106.833,166.5 105.5,178.5C 99.8236,178.334 94.1569,178.501 88.5,179C 87.944,179.383 87.6107,179.883 87.5,180.5C 86.8333,202.833 86.1667,225.167 85.5,247.5C 85.5,224.5 85.5,201.5 85.5,178.5C 67.1667,178.5 48.8333,178.5 30.5,178.5C 41.6738,177.833 53.0071,177.167 64.5,176.5C 64.0431,175.702 63.3764,175.369 62.5,175.5C 67.2985,172.263 72.2985,169.263 77.5,166.5C 79.3786,166.607 79.7119,166.107 78.5,165C 64.6604,164.173 50.9938,164.339 37.5,165.5C 42.1667,168.5 46.8333,171.5 51.5,174.5C 50.8333,174.5 50.5,174.833 50.5,175.5C 49.8333,175.167 49.1667,174.833 48.5,174.5C 43.6566,172.582 39.3233,169.916 35.5,166.5C 36.0431,166.44 36.3764,166.107 36.5,165.5C 35.7573,164.818 35.0906,164.151 34.5,163.5C 37.8333,163.5 41.1667,163.5 44.5,163.5C 45.1667,163.5 45.8333,163.5 46.5,163.5C 54.1667,163.5 61.8333,163.5 69.5,163.5C 70.1255,156.416 69.4589,149.75 67.5,143.5C 69.2232,142.193 71.0565,142.193 73,143.5C 73.2784,142.584 73.7784,141.918 74.5,141.5 Z"/></g>
<g><path style="opacity:1" fill="#fefefe" d="M 30.5,178.5 C 48.8333,178.5 67.1667,178.5 85.5,178.5C 85.5,201.5 85.5,224.5 85.5,247.5C 85.5,247.833 85.5,248.167 85.5,248.5C 83.5957,251.534 82.2623,254.867 81.5,258.5C 66.2446,259.483 50.9112,259.817 35.5,259.5C 34.3129,256.118 32.8129,252.785 31,249.5C 30.5,225.836 30.3334,202.169 30.5,178.5 Z"/></g>
<g><path style="opacity:1" fill="#d0d0d0" d="M 105.5,178.5 C 100.36,179.488 95.0262,179.821 89.5,179.5C 89.1697,258.541 89.503,337.541 90.5,416.5C 87.848,418.165 85.1813,419.832 82.5,421.5C 83.7927,419.704 85.2927,418.037 87,416.5C 87.5,337.834 87.6667,259.167 87.5,180.5C 87.6107,179.883 87.944,179.383 88.5,179C 94.1569,178.501 99.8236,178.334 105.5,178.5 Z"/></g>
<g><path style="opacity:1" fill="#393939" d="M 105.5,142.5 C 105.832,154.186 105.499,165.852 104.5,177.5C 103.893,177.376 103.56,177.043 103.5,176.5C 104.833,165.5 104.833,154.5 103.5,143.5C 97.3554,142.51 91.0221,142.177 84.5,142.5C 83.8333,142.833 83.1667,143.167 82.5,143.5C 81.8333,143.5 81.1667,143.5 80.5,143.5C 80.6716,142.508 80.3382,141.842 79.5,141.5C 77.8333,141.5 76.1667,141.5 74.5,141.5C 73.7784,141.918 73.2784,142.584 73,143.5C 71.0565,142.193 69.2232,142.193 67.5,143.5C 66.5084,143.328 65.8417,143.662 65.5,144.5C 59.7073,146.067 54.0406,145.733 48.5,143.5C 47.2946,142.314 45.9613,142.314 44.5,143.5C 42.9731,143.427 41.9731,144.094 41.5,145.5C 39.3792,145.675 37.3792,145.341 35.5,144.5C 35.44,143.957 35.1067,143.624 34.5,143.5C 33.1819,150.322 33.1819,156.989 34.5,163.5C 35.0906,164.151 35.7573,164.818 36.5,165.5C 36.3764,166.107 36.0431,166.44 35.5,166.5C 34.4168,166.461 33.4168,166.127 32.5,165.5C 31.5025,157.862 31.1692,150.196 31.5,142.5C 24.9779,142.177 18.6446,142.51 12.5,143.5C 11.5054,154.321 11.1721,165.321 11.5,176.5C 24.6774,176.829 37.6774,176.495 50.5,175.5C 50.5,174.833 50.8333,174.5 51.5,174.5C 55.0148,176.622 58.6815,176.955 62.5,175.5C 63.3764,175.369 64.0431,175.702 64.5,176.5C 53.0071,177.167 41.6738,177.833 30.5,178.5C 30.3334,202.169 30.5,225.836 31,249.5C 32.8129,252.785 34.3129,256.118 35.5,259.5C 50.8333,260.833 66.1667,260.833 81.5,259.5C 82.1667,259.833 82.8333,260.167 83.5,260.5C 84.1667,260.5 84.8333,260.5 85.5,260.5C 86.5392,256.658 86.5392,252.658 85.5,248.5C 85.5,248.167 85.5,247.833 85.5,247.5C 86.1667,225.167 86.8333,202.833 87.5,180.5C 87.6667,259.167 87.5,337.834 87,416.5C 85.2927,418.037 83.7927,419.704 82.5,421.5C 65.7561,421.818 49.0895,421.485 32.5,420.5C 32.8041,418.204 33.8041,417.871 35.5,419.5C 50.5,419.5 65.5,419.5 80.5,419.5C 83.1667,418.833 84.8333,417.167 85.5,414.5C 85.5,414.167 85.5,413.833 85.5,413.5C 85.5,363.167 85.5,312.833 85.5,262.5C 84.5,261.167 83.5,261.167 82.5,262.5C 81.8333,313.167 81.1667,363.833 80.5,414.5C 80.5,363.833 80.5,313.167 80.5,262.5C 65.5,262.5 50.5,262.5 35.5,262.5C 35.5,313.167 35.5,363.833 35.5,414.5C 34.8333,363.833 34.1667,313.167 33.5,262.5C 32.5,261.167 31.5,261.167 30.5,262.5C 30.5,313.167 30.5,363.833 30.5,414.5C 31.6857,415.961 31.6857,417.295 30.5,418.5C 30.1667,417.5 29.5,416.833 28.5,416.5C 28.6667,337.499 28.5,258.499 28,179.5C 27.6174,178.944 27.1174,178.611 26.5,178.5C 21.3595,177.512 16.0262,177.179 10.5,177.5C 10.5,165.833 10.5,154.167 10.5,142.5C 10.9528,141.542 11.6195,140.708 12.5,140C 42.5,139.333 72.5,139.333 102.5,140C 103.942,140.377 104.942,141.21 105.5,142.5 Z"/></g>
<g><path style="opacity:1" fill="#9a9a9a" d="M 81.5,258.5 C 81.5,258.833 81.5,259.167 81.5,259.5C 66.1667,260.833 50.8333,260.833 35.5,259.5C 50.9112,259.817 66.2446,259.483 81.5,258.5 Z"/></g>
<g><path style="opacity:1" fill="#909090" d="M 29.5,254.5 C 31.6138,255.784 32.6138,257.784 32.5,260.5C 31.5,260.5 30.5,260.5 29.5,260.5C 29.5,258.5 29.5,256.5 29.5,254.5 Z"/></g>
<g><path style="opacity:1" fill="#3e3e3e" d="M 85.5,248.5 C 86.5392,252.658 86.5392,256.658 85.5,260.5C 85.4085,253.992 84.7418,253.992 83.5,260.5C 82.8333,260.167 82.1667,259.833 81.5,259.5C 81.5,259.167 81.5,258.833 81.5,258.5C 82.2623,254.867 83.5957,251.534 85.5,248.5 Z"/></g>
<g><path style="opacity:1" fill="#b6b6b6" d="M 85.5,260.5 C 84.8333,260.5 84.1667,260.5 83.5,260.5C 84.7418,253.992 85.4085,253.992 85.5,260.5 Z"/></g>
<g><path style="opacity:1" fill="#b0b0b0" d="M 103.5,143.5 C 104.833,154.5 104.833,165.5 103.5,176.5C 90.8289,176.667 78.1623,176.5 65.5,176C 66.0442,175.283 66.7109,174.783 67.5,174.5C 79.3217,175.495 91.3217,175.828 103.5,175.5C 103.5,164.833 103.5,154.167 103.5,143.5 Z"/></g>
<g><path style="opacity:1" fill="#b4b4b4" d="M 12.5,143.5 C 12.5,154.167 12.5,164.833 12.5,175.5C 24.6783,175.828 36.6783,175.495 48.5,174.5C 49.1667,174.833 49.8333,175.167 50.5,175.5C 37.6774,176.495 24.6774,176.829 11.5,176.5C 11.1721,165.321 11.5054,154.321 12.5,143.5 Z"/></g>
<g><path style="opacity:1" fill="#f1f1f1" d="M 37.5,165.5 C 51.0105,165.171 64.3438,165.504 77.5,166.5C 72.2985,169.263 67.2985,172.263 62.5,175.5C 58.6815,176.955 55.0148,176.622 51.5,174.5C 46.8333,171.5 42.1667,168.5 37.5,165.5 Z"/></g>
<g><path style="opacity:1" fill="#4e4e4e" d="M 37.5,165.5 C 50.9938,164.339 64.6604,164.173 78.5,165C 79.7119,166.107 79.3786,166.607 77.5,166.5C 64.3438,165.504 51.0105,165.171 37.5,165.5 Z"/></g>
<g><path style="opacity:1" fill="#cecece" d="M 47.5,143.5 C 47.5,149.833 47.5,156.167 47.5,162.5C 54.5,162.5 61.5,162.5 68.5,162.5C 68.6661,156.824 68.4994,151.157 68,145.5C 67.3292,144.748 66.4959,144.414 65.5,144.5C 65.8417,143.662 66.5084,143.328 67.5,143.5C 69.4589,149.75 70.1255,156.416 69.5,163.5C 61.8333,163.5 54.1667,163.5 46.5,163.5C 46.176,156.646 46.5093,149.979 47.5,143.5 Z"/></g>
<g><path style="opacity:1" fill="#a9a9a9" d="M 80.5,144.5 C 80.5,144.167 80.5,143.833 80.5,143.5C 81.1667,143.5 81.8333,143.5 82.5,143.5C 82.5,150.167 82.5,156.833 82.5,163.5C 78.8333,163.5 75.1667,163.5 71.5,163.5C 71.1765,156.978 71.5098,150.645 72.5,144.5C 72.5,150.5 72.5,156.5 72.5,162.5C 75.5,162.5 78.5,162.5 81.5,162.5C 81.8229,156.31 81.4896,150.31 80.5,144.5 Z"/></g>
<g><path style="opacity:1" fill="#464646" d="M 48.5,143.5 C 48.1667,143.5 47.8333,143.5 47.5,143.5C 46.5093,149.979 46.176,156.646 46.5,163.5C 45.8333,163.5 45.1667,163.5 44.5,163.5C 44.5,156.833 44.5,150.167 44.5,143.5C 45.9613,142.314 47.2946,142.314 48.5,143.5 Z"/></g>
<g><path style="opacity:1" fill="#b0b0b0" d="M 35.5,144.5 C 34.5104,150.31 34.1771,156.31 34.5,162.5C 37.5,162.5 40.5,162.5 43.5,162.5C 44.1167,156.402 43.45,150.735 41.5,145.5C 41.9731,144.094 42.9731,143.427 44.5,143.5C 44.5,150.167 44.5,156.833 44.5,163.5C 41.1667,163.5 37.8333,163.5 34.5,163.5C 33.1819,156.989 33.1819,150.322 34.5,143.5C 35.1067,143.624 35.44,143.957 35.5,144.5 Z"/></g>
<g><path style="opacity:1" fill="#fcfcfc" d="M 72.5,144.5 C 75.204,145.714 77.8707,145.714 80.5,144.5C 81.4896,150.31 81.8229,156.31 81.5,162.5C 78.5,162.5 75.5,162.5 72.5,162.5C 72.5,156.5 72.5,150.5 72.5,144.5 Z"/></g>
<g><path style="opacity:1" fill="#fcfcfc" d="M 35.5,144.5 C 37.3792,145.341 39.3792,145.675 41.5,145.5C 43.45,150.735 44.1167,156.402 43.5,162.5C 40.5,162.5 37.5,162.5 34.5,162.5C 34.1771,156.31 34.5104,150.31 35.5,144.5 Z"/></g>
<g><path style="opacity:1" fill="#fcfcfc" d="M 47.5,143.5 C 47.8333,143.5 48.1667,143.5 48.5,143.5C 54.0406,145.733 59.7073,146.067 65.5,144.5C 66.4959,144.414 67.3292,144.748 68,145.5C 68.4994,151.157 68.6661,156.824 68.5,162.5C 61.5,162.5 54.5,162.5 47.5,162.5C 47.5,156.167 47.5,149.833 47.5,143.5 Z"/></g>
<g><path style="opacity:1" fill="#fcfcfc" d="M 84.5,142.5 C 91.0221,142.177 97.3554,142.51 103.5,143.5C 103.5,154.167 103.5,164.833 103.5,175.5C 91.3217,175.828 79.3217,175.495 67.5,174.5C 72.8061,171.512 78.1394,168.512 83.5,165.5C 84.4975,157.862 84.8308,150.196 84.5,142.5 Z"/></g>
<g><path style="opacity:1" fill="#969696" d="M 36.5,141.5 C 38.288,141.215 39.9547,141.548 41.5,142.5C 40.6667,142.833 39.8333,143.167 39,143.5C 37.6244,143.316 36.7911,142.649 36.5,141.5 Z"/></g>
<g><path style="opacity:1" fill="#fcfcfc" d="M 35.5,166.5 C 39.3233,169.916 43.6566,172.582 48.5,174.5C 36.6783,175.495 24.6783,175.828 12.5,175.5C 12.5,164.833 12.5,154.167 12.5,143.5C 18.6446,142.51 24.9779,142.177 31.5,142.5C 31.1692,150.196 31.5025,157.862 32.5,165.5C 33.4168,166.127 34.4168,166.461 35.5,166.5 Z"/></g>
<g><path style="opacity:1" fill="#969696" d="M 74.5,141.5 C 76.1667,141.5 77.8333,141.5 79.5,141.5C 79.2089,142.649 78.3756,143.316 77,143.5C 75.6244,143.316 74.7911,142.649 74.5,141.5 Z"/></g>
<g><path style="opacity:1" fill="#8d8d8d" d="M 50.5,142.5 C 54.9811,141.352 59.6478,141.185 64.5,142C 59.9642,143.793 55.2975,143.96 50.5,142.5 Z"/></g>
<g><path style="opacity:1" fill="#fdfdfd" d="M 30.5,262.5 C 32.4955,312.822 33.1621,363.489 32.5,414.5C 31.8333,414.5 31.1667,414.5 30.5,414.5C 30.5,363.833 30.5,313.167 30.5,262.5 Z"/></g>
<g><path style="opacity:1" fill="#fdfdfd" d="M 85.5,262.5 C 85.5,312.833 85.5,363.167 85.5,413.5C 84.1669,388.676 83.5002,363.509 83.5,338C 83.5002,312.491 84.1669,287.324 85.5,262.5 Z"/></g>
<g><path style="opacity:1" fill="#cbcbcb" d="M 9.5,178.5 C 15.1667,178.5 20.8333,178.5 26.5,178.5C 27.1174,178.611 27.6174,178.944 28,179.5C 28.5,258.499 28.6667,337.499 28.5,416.5C 26.5029,337.84 25.8362,258.84 26.5,179.5C 20.642,179.822 14.9753,179.489 9.5,178.5 Z"/></g>
<g><path style="opacity:1" fill="#c7c7c7" d="M 85.5,262.5 C 84.1669,287.324 83.5002,312.491 83.5,338C 83.5002,363.509 84.1669,388.676 85.5,413.5C 85.5,413.833 85.5,414.167 85.5,414.5C 84.5,414.5 83.5,414.5 82.5,414.5C 82.5,363.833 82.5,313.167 82.5,262.5C 83.5,261.167 84.5,261.167 85.5,262.5 Z"/></g>
<g><path style="opacity:1" fill="#bbbbbb" d="M 30.5,262.5 C 31.5,261.167 32.5,261.167 33.5,262.5C 33.8322,313.336 33.4989,364.003 32.5,414.5C 33.1621,363.489 32.4955,312.822 30.5,262.5 Z"/></g>
<g><path style="opacity:1" fill="#2d2d2d" d="M 33.5,262.5 C 34.1667,313.167 34.8333,363.833 35.5,414.5C 50.5,414.5 65.5,414.5 80.5,414.5C 81.1667,363.833 81.8333,313.167 82.5,262.5C 82.5,313.167 82.5,363.833 82.5,414.5C 83.5,414.5 84.5,414.5 85.5,414.5C 84.8333,417.167 83.1667,418.833 80.5,419.5C 80.5,418.5 80.5,417.5 80.5,416.5C 65.5,416.5 50.5,416.5 35.5,416.5C 35.5,417.5 35.5,418.5 35.5,419.5C 33.8041,417.871 32.8041,418.204 32.5,420.5C 31.5,420.167 30.8333,419.5 30.5,418.5C 31.6857,417.295 31.6857,415.961 30.5,414.5C 31.1667,414.5 31.8333,414.5 32.5,414.5C 33.4989,364.003 33.8322,313.336 33.5,262.5 Z"/></g>
<g><path style="opacity:1" fill="#e0e0e0" d="M 80.5,414.5 C 65.5,414.5 50.5,414.5 35.5,414.5C 35.5,363.833 35.5,313.167 35.5,262.5C 50.5,262.5 65.5,262.5 80.5,262.5C 80.5,313.167 80.5,363.833 80.5,414.5 Z"/></g>
<g><path style="opacity:1" fill="#fefefe" d="M 36.5,263.5 C 50.8333,263.5 65.1667,263.5 79.5,263.5C 79.5,313.5 79.5,363.5 79.5,413.5C 65.1667,413.5 50.8333,413.5 36.5,413.5C 36.5,363.5 36.5,313.5 36.5,263.5 Z"/></g>
<g><path style="opacity:1" fill="#f4f4f4" d="M 80.5,419.5 C 65.5,419.5 50.5,419.5 35.5,419.5C 35.5,418.5 35.5,417.5 35.5,416.5C 50.5,416.5 65.5,416.5 80.5,416.5C 80.5,417.5 80.5,418.5 80.5,419.5 Z"/></g>
<g><path style="opacity:1" fill="#a5a5a5" d="M 32.5,420.5 C 49.0895,421.485 65.7561,421.818 82.5,421.5C 74.3402,422.166 66.0068,422.5 57.5,422.5C 48.8055,422.498 40.4722,421.831 32.5,420.5 Z"/></g>
</svg>
