<?xml version="1.0" encoding="UTF-8"?>
<!DOCTYPE svg PUBLIC "-//W3C//DTD SVG 1.1//EN" "http://www.w3.org/Graphics/SVG/1.1/DTD/svg11.dtd">
<svg xmlns="http://www.w3.org/2000/svg" version="1.1" width="234px" height="250px" style="shape-rendering:geometricPrecision; text-rendering:geometricPrecision; image-rendering:optimizeQuality; fill-rule:evenodd; clip-rule:evenodd" xmlns:xlink="http://www.w3.org/1999/xlink">
<g><path style="opacity:1" fill="#fdfdfd" d="M -0.5,-0.5 C 77.5,-0.5 155.5,-0.5 233.5,-0.5C 233.5,82.8333 233.5,166.167 233.5,249.5C 155.5,249.5 77.5,249.5 -0.5,249.5C -0.5,166.167 -0.5,82.8333 -0.5,-0.5 Z"/></g>
<g><path style="opacity:1" fill="#494949" d="M 125.5,14.5 C 117.41,14.1674 110.077,14.5008 103.5,15.5C 102.791,16.404 101.791,16.7373 100.5,16.5C 99.0813,15.5489 97.4147,15.2155 95.5,15.5C 101.26,13.9999 107.26,13.3332 113.5,13.5C 117.681,13.5011 121.681,13.8344 125.5,14.5 Z"/></g>
<g><path style="opacity:1" fill="#fdfdfd" d="M 103.5,15.5 C 155.522,14.0831 192.689,36.7498 215,83.5C 217.954,91.6488 220.12,99.9821 221.5,108.5C 221.205,110.735 221.539,112.735 222.5,114.5C 223.376,169.966 198.042,207.466 146.5,227C 138.67,229.458 130.67,230.958 122.5,231.5C 112.107,231.614 101.773,230.948 91.5,229.5C 48.7984,218.633 21.2984,191.967 9,149.5C 8.07746,145.21 7.57746,140.877 7.5,136.5C 6.6609,121.273 7.99423,106.273 11.5,91.5C 24.1445,54.6908 49.1445,30.5241 86.5,19C 91.0959,17.7139 95.7626,16.8806 100.5,16.5C 101.791,16.7373 102.791,16.404 103.5,15.5 Z"/></g>
<g><path style="opacity:1" fill="#232323" d="M 125.5,14.5 C 168.39,20.5252 198.89,43.1919 217,82.5C 219.553,88.99 221.387,95.6567 222.5,102.5C 222.795,104.735 222.461,106.735 221.5,108.5C 220.12,99.9821 217.954,91.6488 215,83.5C 192.689,36.7498 155.522,14.0831 103.5,15.5C 110.077,14.5008 117.41,14.1674 125.5,14.5 Z"/></g>
<g><path style="opacity:1" fill="#a6a6a6" d="M 123.5,85.5 C 126.716,85.3455 129.383,86.3455 131.5,88.5C 128.603,87.871 125.936,86.871 123.5,85.5 Z"/></g>
<g><path style="opacity:1" fill="#d1d1d1" d="M 11.5,91.5 C 7.99423,106.273 6.6609,121.273 7.5,136.5C 6.34204,127.009 6.17537,117.342 7,107.5C 8.19926,101.956 9.69926,96.6229 11.5,91.5 Z"/></g>
<g><path style="opacity:1" fill="#565656" d="M 222.5,102.5 C 223.889,107.269 224.556,112.269 224.5,117.5C 223.686,115.369 223.186,113.036 223,110.5C 222.51,111.793 222.343,113.127 222.5,114.5C 221.539,112.735 221.205,110.735 221.5,108.5C 222.461,106.735 222.795,104.735 222.5,102.5 Z"/></g>
<g><path style="opacity:1" fill="#313131" d="M 123.5,85.5 C 125.936,86.871 128.603,87.871 131.5,88.5C 155.19,103.942 159.69,123.942 145,148.5C 123.304,169.089 102.304,168.423 82,146.5C 74.5452,133.316 73.5452,119.65 79,105.5C 89.2135,88.6446 104.047,81.9779 123.5,85.5 Z"/></g>
<g><path style="opacity:1" fill="#fbfbfb" d="M 107.5,86.5 C 130.316,85.4679 144.816,95.8012 151,117.5C 152.502,139.647 142.669,153.814 121.5,160C 98.021,162.519 83.521,152.352 78,129.5C 75.9012,114.203 81.0678,102.036 93.5,93C 98.1073,90.5292 102.774,88.3626 107.5,86.5 Z"/></g>
<g><path style="opacity:1" fill="#272727" d="M 95.5,15.5 C 97.4147,15.2155 99.0813,15.5489 100.5,16.5C 95.7626,16.8806 91.0959,17.7139 86.5,19C 49.1445,30.5241 24.1445,54.6908 11.5,91.5C 9.69926,96.6229 8.19926,101.956 7,107.5C 6.17537,117.342 6.34204,127.009 7.5,136.5C 7.57746,140.877 8.07746,145.21 9,149.5C 21.2984,191.967 48.7984,218.633 91.5,229.5C 101.719,232.345 112.052,233.012 122.5,231.5C 130.67,230.958 138.67,229.458 146.5,227C 198.042,207.466 223.376,169.966 222.5,114.5C 222.343,113.127 222.51,111.793 223,110.5C 223.186,113.036 223.686,115.369 224.5,117.5C 223.251,179.569 192.584,218.069 132.5,233C 87.5392,238.466 51.3725,223.3 24,187.5C 2.12763,153.386 -1.53904,117.386 13,79.5C 29.9055,44.4191 57.4055,23.0857 95.5,15.5 Z"/></g>
<g><path style="opacity:1" fill="#a1a1a1" d="M 91.5,229.5 C 101.773,230.948 112.107,231.614 122.5,231.5C 112.052,233.012 101.719,232.345 91.5,229.5 Z"/></g>
</svg>
