<?xml version="1.0" encoding="UTF-8"?>
<!DOCTYPE svg PUBLIC "-//W3C//DTD SVG 1.1//EN" "http://www.w3.org/Graphics/SVG/1.1/DTD/svg11.dtd">
<svg xmlns="http://www.w3.org/2000/svg" version="1.1" width="141px" height="436px" style="shape-rendering:geometricPrecision; text-rendering:geometricPrecision; image-rendering:optimizeQuality; fill-rule:evenodd; clip-rule:evenodd" xmlns:xlink="http://www.w3.org/1999/xlink">
<g><path style="opacity:1" fill="#fdfdfd" d="M -0.5,-0.5 C 46.5,-0.5 93.5,-0.5 140.5,-0.5C 140.5,144.833 140.5,290.167 140.5,435.5C 93.5,435.5 46.5,435.5 -0.5,435.5C -0.5,290.167 -0.5,144.833 -0.5,-0.5 Z"/></g>
<g><path style="opacity:1" fill="#fbfbfb" d="M 125.5,50.5 C 129.547,85.2689 115.214,108.436 82.5,120C 60.2429,124.524 41.2429,118.69 25.5,102.5C 5.95035,75.15 6.95035,48.65 28.5,23C 52.2817,2.99176 77.2817,1.3251 103.5,18C 114.212,26.6036 121.545,37.437 125.5,50.5 Z"/></g>
<g><path style="opacity:1" fill="#2f2f2f" d="M 62.5,42.5 C 64.3786,42.3932 64.7119,42.8932 63.5,44C 65.3333,44.1667 67.1667,44.3333 69,44.5C 71.2953,44.4535 73.1286,43.7868 74.5,42.5C 89.3578,47.2092 94.5245,57.2092 90,72.5C 88.4185,77.2348 85.5851,80.9015 81.5,83.5C 75.4638,86.0896 69.1305,87.0896 62.5,86.5C 50.8136,81.4854 45.4803,72.4854 46.5,59.5C 47.1577,58.6016 47.8243,57.6016 48.5,56.5C 49.4255,57.6405 50.2588,57.6405 51,56.5C 54.3959,48.9671 53.7292,48.6337 49,55.5C 48.5357,54.9056 48.369,54.2389 48.5,53.5C 51.4243,47.5715 56.091,43.9048 62.5,42.5 Z"/></g>
<g><path style="opacity:1" fill="#f9f9f9" d="M 80.5,80.5 C 73.2537,81.464 65.9204,81.7973 58.5,81.5C 55.5966,76.0292 52.43,70.6959 49,65.5C 48.3333,64.1667 48.3333,62.8333 49,61.5C 52.0845,56.9998 54.9179,52.3331 57.5,47.5C 65.1667,46.1667 72.8333,46.1667 80.5,47.5C 83.3333,52.5 86.1667,57.5 89,62.5C 89.6667,63.5 89.6667,64.5 89,65.5C 85.6365,70.2301 82.8032,75.2301 80.5,80.5 Z"/></g>
<g><path style="opacity:1" fill="#6d6d6d" d="M 46.5,59.5 C 46.2594,57.1016 46.9261,55.1016 48.5,53.5C 48.369,54.2389 48.5357,54.9056 49,55.5C 53.7292,48.6337 54.3959,48.9671 51,56.5C 50.2588,57.6405 49.4255,57.6405 48.5,56.5C 47.8243,57.6016 47.1577,58.6016 46.5,59.5 Z"/></g>
<g><path style="opacity:1" fill="#333333" d="M 126.5,49.5 C 125.833,49.5 125.5,49.8333 125.5,50.5C 121.545,37.437 114.212,26.6036 103.5,18C 77.2817,1.3251 52.2817,2.99176 28.5,23C 6.95035,48.65 5.95035,75.15 25.5,102.5C 25.1667,102.5 24.8333,102.5 24.5,102.5C 14.5303,91.1941 9.53031,77.8607 9.5,62.5C 13.2568,27.2431 32.7568,7.90974 68,4.5C 98.118,5.94915 117.618,20.9491 126.5,49.5 Z"/></g>
<g><path style="opacity:1" fill="#525252" d="M 62.5,42.5 C 66.5,41.1667 70.5,41.1667 74.5,42.5C 73.1286,43.7868 71.2953,44.4535 69,44.5C 67.1667,44.3333 65.3333,44.1667 63.5,44C 64.7119,42.8932 64.3786,42.3932 62.5,42.5 Z"/></g>
<g><path style="opacity:1" fill="#737373" d="M 80.5,80.5 C 77.2319,81.8222 73.5652,82.4888 69.5,82.5C 65.6508,82.4987 61.9841,82.1654 58.5,81.5C 65.9204,81.7973 73.2537,81.464 80.5,80.5 Z"/></g>
<g><path style="opacity:1" fill="#7e7e7e" d="M 63.5,84.5 C 66.6399,83.3592 69.9733,83.1925 73.5,84C 70.2467,85.8203 66.9133,85.9869 63.5,84.5 Z"/></g>
<g><path style="opacity:1" fill="#b2b2b2" d="M 81.5,83.5 C 80.1525,85.4803 78.1525,86.647 75.5,87C 70.9796,87.8136 66.6463,87.647 62.5,86.5C 69.1305,87.0896 75.4638,86.0896 81.5,83.5 Z"/></g>
<g><path style="opacity:1" fill="#272727" d="M 126.5,49.5 C 131.818,76.3918 123.485,97.8918 101.5,114C 79.8088,126.622 58.1421,126.622 36.5,114C 31.9981,110.664 27.9981,106.831 24.5,102.5C 24.8333,102.5 25.1667,102.5 25.5,102.5C 41.2429,118.69 60.2429,124.524 82.5,120C 115.214,108.436 129.547,85.2689 125.5,50.5C 125.5,49.8333 125.833,49.5 126.5,49.5 Z"/></g>
<g><path style="opacity:1" fill="#2f2f2f" d="M 126.5,156.5 C 120.741,155.211 114.741,154.544 108.5,154.5C 102.657,154.501 96.9899,154.834 91.5,155.5C 91.6495,156.552 91.4828,157.552 91,158.5C 90.7679,157.263 90.2679,156.263 89.5,155.5C 86.8333,155.5 84.1667,155.5 81.5,155.5C 80.7321,156.263 80.2321,157.263 80,158.5C 79.7679,157.263 79.2679,156.263 78.5,155.5C 72.1667,155.5 65.8333,155.5 59.5,155.5C 59.1667,155.5 58.8333,155.5 58.5,155.5C 58.1667,155.5 57.8333,155.5 57.5,155.5C 57.1667,155.5 56.8333,155.5 56.5,155.5C 53.8333,155.5 51.1667,155.5 48.5,155.5C 48.1667,155.5 47.8333,155.5 47.5,155.5C 47.1667,155.5 46.8333,155.5 46.5,155.5C 35.6596,154.176 24.6596,154.176 13.5,155.5C 13.6236,156.107 13.9569,156.44 14.5,156.5C 21.1667,163.5 27.8333,170.5 34.5,177.5C 34.5,177.833 34.5,178.167 34.5,178.5C 26.5206,170.855 18.5206,163.188 10.5,155.5C 9.54811,153.955 9.21478,152.288 9.5,150.5C 49.1667,150.5 88.8333,150.5 128.5,150.5C 128.946,153.01 128.28,155.01 126.5,156.5 Z"/></g>
<g><path style="opacity:1" fill="#4b4b4b" d="M 63.5,151.5 C 66.8984,151.18 70.2317,151.513 73.5,152.5C 71.8333,152.833 70.1667,153.167 68.5,153.5C 66.3603,153.444 64.6936,152.777 63.5,151.5 Z"/></g>
<g><path style="opacity:1" fill="#525252" d="M 46.5,155.5 C 35.6536,155.172 24.9869,155.506 14.5,156.5C 13.9569,156.44 13.6236,156.107 13.5,155.5C 24.6596,154.176 35.6596,154.176 46.5,155.5 Z"/></g>
<g><path style="opacity:1" fill="#f3f3f3" d="M 46.5,155.5 C 46.5,163.167 46.5,170.833 46.5,178.5C 51.5344,179.474 56.5344,180.641 61.5,182C 54.1667,182.667 46.8333,182.667 39.5,182C 37.9625,180.293 36.2959,178.793 34.5,177.5C 27.8333,170.5 21.1667,163.5 14.5,156.5C 24.9869,155.506 35.6536,155.172 46.5,155.5 Z"/></g>
<g><path style="opacity:1" fill="#484848" d="M 91.5,155.5 C 96.9899,154.834 102.657,154.501 108.5,154.5C 114.741,154.544 120.741,155.211 126.5,156.5C 117.869,165.632 109.036,174.632 100,183.5C 99.833,262.668 99.333,341.668 98.5,420.5C 98.8323,367.997 98.4989,315.664 97.5,263.5C 95.9504,264.72 94.2837,264.72 92.5,263.5C 93.1651,259.173 94.6651,255.173 97,251.5C 97.5,229.169 97.6666,206.836 97.5,184.5C 78.5,184.5 59.5,184.5 40.5,184.5C 40.167,207.176 40.5003,229.843 41.5,252.5C 43.5982,255.896 44.9315,259.562 45.5,263.5C 44.8333,263.5 44.1667,263.5 43.5,263.5C 41.5063,255.806 40.5063,255.806 40.5,263.5C 39.5011,315.664 39.1677,367.997 39.5,420.5C 38.667,341.334 38.167,262.001 38,182.5C 36.3732,181.468 35.2066,180.134 34.5,178.5C 34.5,178.167 34.5,177.833 34.5,177.5C 36.2959,178.793 37.9625,180.293 39.5,182C 46.8333,182.667 54.1667,182.667 61.5,182C 56.5344,180.641 51.5344,179.474 46.5,178.5C 46.5,170.833 46.5,163.167 46.5,155.5C 46.8333,155.5 47.1667,155.5 47.5,155.5C 47.5,162.5 47.5,169.5 47.5,176.5C 50.8333,176.5 54.1667,176.5 57.5,176.5C 57.5,169.5 57.5,162.5 57.5,155.5C 57.8333,155.5 58.1667,155.5 58.5,155.5C 58.5,162.5 58.5,169.5 58.5,176.5C 65.5,176.5 72.5,176.5 79.5,176.5C 79.3339,170.824 79.5006,165.157 80,159.5C 80.1733,165.016 80.6733,170.349 81.5,175.5C 82.209,176.404 83.209,176.737 84.5,176.5C 84.9731,177.906 85.9731,178.573 87.5,178.5C 83.9993,179.8 80.3326,180.966 76.5,182C 83.8333,182.667 91.1667,182.667 98.5,182C 107.167,173.333 115.833,164.667 124.5,156C 113.839,155.5 103.172,155.333 92.5,155.5C 92.1667,155.5 91.8333,155.5 91.5,155.5 Z"/></g>
<g><path style="opacity:1" fill="#e7e7e7" d="M 59.5,179.5 C 65.5,178.167 71.5,178.167 77.5,179.5C 71.533,182.1 65.533,182.1 59.5,179.5 Z"/></g>
<g><path style="opacity:1" fill="#a9a9a9" d="M 77.5,179.5 C 71.5,178.167 65.5,178.167 59.5,179.5C 58.2438,179.539 57.2438,179.039 56.5,178C 64.5208,177.168 72.5208,177.335 80.5,178.5C 79.675,179.386 78.675,179.719 77.5,179.5 Z"/></g>
<g><path style="opacity:1" fill="#1a1a1a" d="M 91.5,177.5 C 90.0413,177.433 88.7079,177.766 87.5,178.5C 85.9731,178.573 84.9731,177.906 84.5,176.5C 86.5,176.5 88.5,176.5 90.5,176.5C 90.3359,173.813 90.5026,171.146 91,168.5C 91.498,171.482 91.6646,174.482 91.5,177.5 Z"/></g>
<g><path style="opacity:1" fill="#8e8e8e" d="M 58.5,155.5 C 58.8333,155.5 59.1667,155.5 59.5,155.5C 59.5,162.167 59.5,168.833 59.5,175.5C 65.8333,175.5 72.1667,175.5 78.5,175.5C 78.5,168.833 78.5,162.167 78.5,155.5C 79.2679,156.263 79.7679,157.263 80,158.5C 80.2321,157.263 80.7321,156.263 81.5,155.5C 81.5,162.167 81.5,168.833 81.5,175.5C 80.6733,170.349 80.1733,165.016 80,159.5C 79.5006,165.157 79.3339,170.824 79.5,176.5C 72.5,176.5 65.5,176.5 58.5,176.5C 58.5,169.5 58.5,162.5 58.5,155.5 Z"/></g>
<g><path style="opacity:1" fill="#929292" d="M 47.5,155.5 C 47.8333,155.5 48.1667,155.5 48.5,155.5C 48.5,162.167 48.5,168.833 48.5,175.5C 51.1667,175.5 53.8333,175.5 56.5,175.5C 56.5,168.833 56.5,162.167 56.5,155.5C 56.8333,155.5 57.1667,155.5 57.5,155.5C 57.5,162.5 57.5,169.5 57.5,176.5C 54.1667,176.5 50.8333,176.5 47.5,176.5C 47.5,169.5 47.5,162.5 47.5,155.5 Z"/></g>
<g><path style="opacity:1" fill="#818181" d="M 89.5,155.5 C 90.2679,156.263 90.7679,157.263 91,158.5C 91.4828,157.552 91.6495,156.552 91.5,155.5C 91.8333,155.5 92.1667,155.5 92.5,155.5C 92.825,163.019 92.4916,170.352 91.5,177.5C 91.6646,174.482 91.498,171.482 91,168.5C 90.5026,171.146 90.3359,173.813 90.5,176.5C 88.5,176.5 86.5,176.5 84.5,176.5C 83.209,176.737 82.209,176.404 81.5,175.5C 84.1667,175.5 86.8333,175.5 89.5,175.5C 89.5,168.833 89.5,162.167 89.5,155.5 Z"/></g>
<g><path style="opacity:1" fill="#f5f5f5" d="M 92.5,155.5 C 103.172,155.333 113.839,155.5 124.5,156C 115.833,164.667 107.167,173.333 98.5,182C 91.1667,182.667 83.8333,182.667 76.5,182C 80.3326,180.966 83.9993,179.8 87.5,178.5C 88.7079,177.766 90.0413,177.433 91.5,177.5C 92.4916,170.352 92.825,163.019 92.5,155.5 Z"/></g>
<g><path style="opacity:1" fill="#fafafa" d="M 81.5,155.5 C 84.1667,155.5 86.8333,155.5 89.5,155.5C 89.5,162.167 89.5,168.833 89.5,175.5C 86.8333,175.5 84.1667,175.5 81.5,175.5C 81.5,168.833 81.5,162.167 81.5,155.5 Z"/></g>
<g><path style="opacity:1" fill="#fcfcfc" d="M 59.5,155.5 C 65.8333,155.5 72.1667,155.5 78.5,155.5C 78.5,162.167 78.5,168.833 78.5,175.5C 72.1667,175.5 65.8333,175.5 59.5,175.5C 59.5,168.833 59.5,162.167 59.5,155.5 Z"/></g>
<g><path style="opacity:1" fill="#fbfbfb" d="M 48.5,155.5 C 51.1667,155.5 53.8333,155.5 56.5,155.5C 56.5,162.167 56.5,168.833 56.5,175.5C 53.8333,175.5 51.1667,175.5 48.5,175.5C 48.5,168.833 48.5,162.167 48.5,155.5 Z"/></g>
<g><path style="opacity:1" fill="#fbfbfb" d="M 92.5,263.5 C 76.8333,263.5 61.1667,263.5 45.5,263.5C 44.9315,259.562 43.5982,255.896 41.5,252.5C 40.5003,229.843 40.167,207.176 40.5,184.5C 59.5,184.5 78.5,184.5 97.5,184.5C 97.6666,206.836 97.5,229.169 97,251.5C 94.6651,255.173 93.1651,259.173 92.5,263.5 Z"/></g>
<g><path style="opacity:1" fill="#9a9a9a" d="M 43.5,263.5 C 42.5,264.833 41.5,264.833 40.5,263.5C 40.5063,255.806 41.5063,255.806 43.5,263.5 Z"/></g>
<g><path style="opacity:1" fill="#aeaeae" d="M 97.5,263.5 C 96.325,263.719 95.325,263.386 94.5,262.5C 96.9069,255.738 97.9069,256.071 97.5,263.5 Z"/></g>
<g><path style="opacity:1" fill="#262626" d="M 40.5,263.5 C 41.5,264.833 42.5,264.833 43.5,263.5C 44.1667,263.5 44.8333,263.5 45.5,263.5C 61.1667,263.5 76.8333,263.5 92.5,263.5C 94.2837,264.72 95.9504,264.72 97.5,263.5C 98.4989,315.664 98.8323,367.997 98.5,420.5C 97.0401,422.463 95.3734,424.296 93.5,426C 77.8369,426.5 62.1702,426.667 46.5,426.5C 61.5,425.833 76.5,425.167 91.5,424.5C 91.5,423.5 91.5,422.5 91.5,421.5C 76.5,421.5 61.5,421.5 46.5,421.5C 45.0331,420.708 43.6998,420.708 42.5,421.5C 44.435,422.213 44.7683,423.213 43.5,424.5C 41.8333,423.5 40.5,422.167 39.5,420.5C 39.1677,367.997 39.5011,315.664 40.5,263.5 Z"/></g>
<g><path style="opacity:1" fill="#acacac" d="M 40.5,265.5 C 41.8333,265.5 43.1667,265.5 44.5,265.5C 44.5,316.833 44.5,368.167 44.5,419.5C 43.1667,419.5 41.8333,419.5 40.5,419.5C 40.5,368.167 40.5,316.833 40.5,265.5 Z"/></g>
<g><path style="opacity:1" fill="#fefefe" d="M 41.5,266.5 C 42.8331,291.491 43.4998,316.824 43.5,342.5C 43.1667,367.833 42.8333,393.167 42.5,418.5C 41.5001,367.838 41.1667,317.171 41.5,266.5 Z"/></g>
<g><path style="opacity:1" fill="#b1b1b1" d="M 93.5,265.5 C 94.8333,265.5 96.1667,265.5 97.5,265.5C 97.5,316.833 97.5,368.167 97.5,419.5C 96.1667,419.5 94.8333,419.5 93.5,419.5C 93.5,368.167 93.5,316.833 93.5,265.5 Z"/></g>
<g><path style="opacity:1" fill="#fdfdfd" d="M 94.5,266.5 C 95.8331,291.491 96.4998,316.824 96.5,342.5C 96.1667,367.833 95.8333,393.167 95.5,418.5C 94.5001,367.838 94.1667,317.171 94.5,266.5 Z"/></g>
<g><path style="opacity:1" fill="#757575" d="M 46.5,265.5 C 46.1678,316.669 46.5011,367.669 47.5,418.5C 62.1667,418.5 76.8333,418.5 91.5,418.5C 91.5,367.833 91.5,317.167 91.5,266.5C 91.5,266.167 91.5,265.833 91.5,265.5C 92.4989,316.664 92.8322,367.997 92.5,419.5C 76.8333,419.5 61.1667,419.5 45.5,419.5C 45.1678,367.997 45.5011,316.664 46.5,265.5 Z"/></g>
<g><path style="opacity:1" fill="#dedede" d="M 46.5,265.5 C 61.5,265.5 76.5,265.5 91.5,265.5C 91.5,265.833 91.5,266.167 91.5,266.5C 76.8333,266.5 62.1667,266.5 47.5,266.5C 47.5,317.167 47.5,367.833 47.5,418.5C 46.5011,367.669 46.1678,316.669 46.5,265.5 Z"/></g>
<g><path style="opacity:1" fill="#fefefe" d="M 91.5,266.5 C 91.5,317.167 91.5,367.833 91.5,418.5C 76.8333,418.5 62.1667,418.5 47.5,418.5C 47.5,367.833 47.5,317.167 47.5,266.5C 62.1667,266.5 76.8333,266.5 91.5,266.5 Z"/></g>
<g><path style="opacity:1" fill="#f7f7f7" d="M 46.5,421.5 C 61.5,421.5 76.5,421.5 91.5,421.5C 91.5,422.5 91.5,423.5 91.5,424.5C 76.5,424.5 61.5,424.5 46.5,424.5C 46.5,423.5 46.5,422.5 46.5,421.5 Z"/></g>
<g><path style="opacity:1" fill="#434343" d="M 46.5,421.5 C 46.5,422.5 46.5,423.5 46.5,424.5C 61.5,424.5 76.5,424.5 91.5,424.5C 76.5,425.167 61.5,425.833 46.5,426.5C 44.9731,426.573 43.9731,425.906 43.5,424.5C 44.7683,423.213 44.435,422.213 42.5,421.5C 43.6998,420.708 45.0331,420.708 46.5,421.5 Z"/></g>
</svg>
