<?xml version="1.0" encoding="UTF-8"?>
<!DOCTYPE svg PUBLIC "-//W3C//DTD SVG 1.1//EN" "http://www.w3.org/Graphics/SVG/1.1/DTD/svg11.dtd">
<svg xmlns="http://www.w3.org/2000/svg" version="1.1" width="242px" height="235px" style="shape-rendering:geometricPrecision; text-rendering:geometricPrecision; image-rendering:optimizeQuality; fill-rule:evenodd; clip-rule:evenodd" xmlns:xlink="http://www.w3.org/1999/xlink">
<g><path style="opacity:1" fill="#fdfdfd" d="M -0.5,-0.5 C 80.1667,-0.5 160.833,-0.5 241.5,-0.5C 241.5,77.8333 241.5,156.167 241.5,234.5C 160.833,234.5 80.1667,234.5 -0.5,234.5C -0.5,156.167 -0.5,77.8333 -0.5,-0.5 Z"/></g>
<g><path style="opacity:1" fill="#252525" d="M 105.5,4.5 C 160.355,1.16571 199.522,24.1657 223,73.5C 237.255,115.307 230.589,153.307 203,187.5C 166.228,224.568 123.395,233.734 74.5,215C 33.463,193.934 11.7964,160.267 9.5,114C 12.7067,60.905 39.3734,25.5717 89.5,8C 94.9652,6.79619 100.299,5.62952 105.5,4.5 Z"/></g>
<g><path style="opacity:1" fill="#a1a1a1" d="M 14.5,91.5 C 13.0525,101.773 12.3858,112.107 12.5,122.5C 10.9881,112.052 11.6547,101.719 14.5,91.5 Z"/></g>
<g><path style="opacity:1" fill="#fdfdfd" d="M 12.5,122.5 C 12.3858,112.107 13.0525,101.773 14.5,91.5C 26.8722,44.6296 56.8722,16.463 104.5,7C 146.403,2.87805 180.57,17.0447 207,49.5C 235.923,93.4265 235.59,137.093 206,180.5C 176.834,214.669 140.001,227.836 95.5,220C 53.7655,208.599 26.9322,182.099 15,140.5C 13.9319,134.524 13.0986,128.524 12.5,122.5 Z"/></g>
<g><path style="opacity:1" fill="#313131" d="M 110.5,75.5 C 135.191,72.9091 151.358,83.2424 159,106.5C 161.067,130.538 150.567,146.038 127.5,153C 103.987,155.167 88.8206,145.001 82,122.5C 79.2272,99.3772 88.7272,83.7105 110.5,75.5 Z"/></g>
<g><path style="opacity:1" fill="#fbfbfb" d="M 113.5,77.5 C 142.418,76.9213 156.918,90.9213 157,119.5C 150.727,142.107 135.894,152.607 112.5,151C 90.1732,143.535 80.6732,128.035 84,104.5C 88.7806,89.8778 98.6139,80.8778 113.5,77.5 Z"/></g>
</svg>
