<?xml version="1.0" encoding="UTF-8"?>
<!DOCTYPE svg PUBLIC "-//W3C//DTD SVG 1.1//EN" "http://www.w3.org/Graphics/SVG/1.1/DTD/svg11.dtd">
<svg xmlns="http://www.w3.org/2000/svg" version="1.1" width="141px" height="406px" style="shape-rendering:geometricPrecision; text-rendering:geometricPrecision; image-rendering:optimizeQuality; fill-rule:evenodd; clip-rule:evenodd" xmlns:xlink="http://www.w3.org/1999/xlink">
<g><path style="opacity:1" fill="#fcfcfc" d="M -0.5,-0.5 C 46.5,-0.5 93.5,-0.5 140.5,-0.5C 140.5,134.833 140.5,270.167 140.5,405.5C 93.5,405.5 46.5,405.5 -0.5,405.5C -0.5,270.167 -0.5,134.833 -0.5,-0.5 Z"/></g>
<g><path style="opacity:1" fill="#303030" d="M 132.5,83.5 C 132.831,59.994 132.498,36.6607 131.5,13.5C 131.64,11.8762 130.973,10.7096 129.5,10C 121.507,9.50029 113.507,9.33362 105.5,9.5C 105.5,21.8333 105.5,34.1667 105.5,46.5C 104.209,46.2627 103.209,46.596 102.5,47.5C 101.391,47.4431 100.391,47.1098 99.5,46.5C 100.833,45.8333 102.167,45.1667 103.5,44.5C 103.5,33.5 103.5,22.5 103.5,11.5C 102.71,10.5987 101.71,9.93205 100.5,9.5C 99.036,8.84014 97.3693,8.50681 95.5,8.5C 93.3603,8.55608 91.6936,9.22275 90.5,10.5C 88.5223,21.4507 87.8556,32.784 88.5,44.5C 88.1667,45.8333 87.8333,45.8333 87.5,44.5C 87.5,32.8333 87.5,21.1667 87.5,9.5C 78.8412,8.28859 70.1745,8.28859 61.5,9.5C 61.6236,10.1067 61.9569,10.44 62.5,10.5C 62.8333,10.5 63.1667,10.5 63.5,10.5C 63.1583,11.3382 62.4916,11.6716 61.5,11.5C 60.0413,11.5674 58.7079,11.2341 57.5,10.5C 57.1667,10.5 56.8333,10.5 56.5,10.5C 53.5656,9.7123 50.5656,9.04564 47.5,8.5C 45.1756,8.72931 43.0089,9.39597 41,10.5C 40.0979,10.2568 39.2646,9.92342 38.5,9.5C 29.9149,9.18344 21.4149,9.51677 13,10.5C 12.5,34.1643 12.3334,57.831 12.5,81.5C 11.8333,58.1667 11.1667,34.8333 10.5,11.5C 10.5106,9.98261 11.1772,8.81595 12.5,8C 51.8333,7.33333 91.1667,7.33333 130.5,8C 131.333,8.83333 132.167,9.66667 133,10.5C 133.83,35.0035 133.663,59.3368 132.5,83.5 Z"/></g>
<g><path style="opacity:1" fill="#4b4b4b" d="M 100.5,9.5 C 101.71,9.93205 102.71,10.5987 103.5,11.5C 101.09,12.3886 98.5902,13.0552 96,13.5C 93.7794,13.6068 91.9461,12.9402 90.5,11.5C 90.5,11.1667 90.5,10.8333 90.5,10.5C 91.6936,9.22275 93.3603,8.55608 95.5,8.5C 97.3693,8.50681 99.036,8.84014 100.5,9.5 Z"/></g>
<g><path style="opacity:1" fill="#5a5a5a" d="M 87.5,44.5 C 87.1667,44.5 86.8333,44.5 86.5,44.5C 86.5,44.1667 86.5,43.8333 86.5,43.5C 86.5,32.5 86.5,21.5 86.5,10.5C 81.9523,12.5089 77.119,13.5089 72,13.5C 68.2178,13.6209 64.7178,12.9542 61.5,11.5C 62.4916,11.6716 63.1583,11.3382 63.5,10.5C 85.7496,9.79176 85.4163,9.79176 62.5,10.5C 61.9569,10.44 61.6236,10.1067 61.5,9.5C 70.1745,8.28859 78.8412,8.28859 87.5,9.5C 87.5,21.1667 87.5,32.8333 87.5,44.5 Z"/></g>
<g><path style="opacity:1" fill="#fcfcfc" d="M 38.5,9.5 C 38.1676,21.8513 38.501,34.1847 39.5,46.5C 48.6115,51.77 57.6115,57.27 66.5,63C 68.2784,63.704 70.1118,64.204 72,64.5C 82.3152,58.9993 92.4818,53.3326 102.5,47.5C 103.209,46.596 104.209,46.2627 105.5,46.5C 105.5,34.1667 105.5,21.8333 105.5,9.5C 113.507,9.33362 121.507,9.50029 129.5,10C 130.973,10.7096 131.64,11.8762 131.5,13.5C 131.5,36.1667 131.5,58.8333 131.5,81.5C 91.8333,81.5 52.1667,81.5 12.5,81.5C 12.3334,57.831 12.5,34.1643 13,10.5C 21.4149,9.51677 29.9149,9.18344 38.5,9.5 Z"/></g>
<g><path style="opacity:1" fill="#929292" d="M 90.5,10.5 C 90.5,10.8333 90.5,11.1667 90.5,11.5C 89.5054,22.3206 89.1721,33.3206 89.5,44.5C 89.1667,44.5 88.8333,44.5 88.5,44.5C 87.8556,32.784 88.5223,21.4507 90.5,10.5 Z"/></g>
<g><path style="opacity:1" fill="#f3f3f3" d="M 90.5,11.5 C 91.9461,12.9402 93.7794,13.6068 96,13.5C 98.5902,13.0552 101.09,12.3886 103.5,11.5C 103.5,22.5 103.5,33.5 103.5,44.5C 98.8333,44.5 94.1667,44.5 89.5,44.5C 89.1721,33.3206 89.5054,22.3206 90.5,11.5 Z"/></g>
<g><path style="opacity:1" fill="#fcfcfc" d="M 57.5,10.5 C 58.7079,11.2341 60.0413,11.5674 61.5,11.5C 64.7178,12.9542 68.2178,13.6209 72,13.5C 77.119,13.5089 81.9523,12.5089 86.5,10.5C 86.5,21.5 86.5,32.5 86.5,43.5C 76.8333,43.5 67.1667,43.5 57.5,43.5C 57.5,32.5 57.5,21.5 57.5,10.5 Z"/></g>
<g><path style="opacity:1" fill="#d9d9d9" d="M 100.5,9.5 C 98.1431,11.5567 95.4764,11.89 92.5,10.5C 95.0865,9.51998 97.7531,9.18665 100.5,9.5 Z"/></g>
<g><path style="opacity:1" fill="#dcdcdc" d="M 62.5,10.5 C 85.4163,9.79176 85.7496,9.79176 63.5,10.5C 63.1667,10.5 62.8333,10.5 62.5,10.5 Z"/></g>
<g><path style="opacity:1" fill="#c1c1c1" d="M 56.5,10.5 C 56.8333,10.5 57.1667,10.5 57.5,10.5C 57.5,21.5 57.5,32.5 57.5,43.5C 67.1667,43.5 76.8333,43.5 86.5,43.5C 86.5,43.8333 86.5,44.1667 86.5,44.5C 76.5,44.5 66.5,44.5 56.5,44.5C 56.5,33.1667 56.5,21.8333 56.5,10.5 Z"/></g>
<g><path style="opacity:1" fill="#464646" d="M 56.5,10.5 C 56.5,21.8333 56.5,33.1667 56.5,44.5C 66.5,44.5 76.5,44.5 86.5,44.5C 86.8333,44.5 87.1667,44.5 87.5,44.5C 87.8333,45.8333 88.1667,45.8333 88.5,44.5C 88.8333,44.5 89.1667,44.5 89.5,44.5C 94.1667,44.5 98.8333,44.5 103.5,44.5C 102.167,45.1667 100.833,45.8333 99.5,46.5C 100.391,47.1098 101.391,47.4431 102.5,47.5C 92.4818,53.3326 82.3152,58.9993 72,64.5C 70.1118,64.204 68.2784,63.704 66.5,63C 57.6115,57.27 48.6115,51.77 39.5,46.5C 38.501,34.1847 38.1676,21.8513 38.5,9.5C 39.2646,9.92342 40.0979,10.2568 41,10.5C 43.0089,9.39597 45.1756,8.72931 47.5,8.5C 50.5656,9.04564 53.5656,9.7123 56.5,10.5 Z"/></g>
<g><path style="opacity:1" fill="#d4d4d4" d="M 42.5,12.5 C 41.5058,22.6532 41.1724,32.9865 41.5,43.5C 45.5,43.5 49.5,43.5 53.5,43.5C 53.8276,32.9865 53.4942,22.6532 52.5,12.5C 52.56,11.9569 52.8933,11.6236 53.5,11.5C 54.4988,22.4798 54.8321,33.4798 54.5,44.5C 49.8333,44.5 45.1667,44.5 40.5,44.5C 40.1679,33.4798 40.5012,22.4798 41.5,11.5C 42.1067,11.6236 42.44,11.9569 42.5,12.5 Z"/></g>
<g><path style="opacity:1" fill="#fcfcfc" d="M 42.5,12.5 C 45.7995,13.7475 49.1328,13.7475 52.5,12.5C 53.4942,22.6532 53.8276,32.9865 53.5,43.5C 49.5,43.5 45.5,43.5 41.5,43.5C 41.1724,32.9865 41.5058,22.6532 42.5,12.5 Z"/></g>
<g><path style="opacity:1" fill="#dadada" d="M 43.5,10.5 C 45.9664,9.36594 48.633,9.19927 51.5,10C 48.9543,11.8116 46.2877,11.9783 43.5,10.5 Z"/></g>
<g><path style="opacity:1" fill="#222222" d="M 10.5,11.5 C 11.1667,34.8333 11.8333,58.1667 12.5,81.5C 52.1667,81.5 91.8333,81.5 131.5,81.5C 131.5,58.8333 131.5,36.1667 131.5,13.5C 132.498,36.6607 132.831,59.994 132.5,83.5C 125.492,83.3337 118.492,83.5004 111.5,84C 110.944,84.3826 110.611,84.8826 110.5,85.5C 109.833,84.8333 109.167,84.1667 108.5,83.5C 84.1667,83.5 59.8333,83.5 35.5,83.5C 34.391,83.5569 33.391,83.8902 32.5,84.5C 25.3524,83.5084 18.0191,83.175 10.5,83.5C 10.5,59.5 10.5,35.5 10.5,11.5 Z"/></g>
<g><path style="opacity:1" fill="#f7f7f7" d="M 46.5,48.5 C 63.1667,47.1667 79.8333,47.1667 96.5,48.5C 88.2024,53.108 79.869,57.7746 71.5,62.5C 63.1729,57.8436 54.8396,53.1769 46.5,48.5 Z"/></g>
<g><path style="opacity:1" fill="#c0c0c0" d="M 99.5,46.5 C 98.7095,47.4013 97.7095,48.0679 96.5,48.5C 79.8333,47.1667 63.1667,47.1667 46.5,48.5C 45.7109,48.2172 45.0442,47.7172 44.5,47C 62.8303,46.5001 81.1636,46.3334 99.5,46.5 Z"/></g>
<g><path style="opacity:1" fill="#fefefe" d="M 35.5,84.5 C 59.5,84.5 83.5,84.5 107.5,84.5C 107.5,113.833 107.5,143.167 107.5,172.5C 105.703,177.887 103.703,183.221 101.5,188.5C 91.5,188.833 81.5,189.167 71.5,189.5C 61.1436,189.499 51.1436,188.832 41.5,187.5C 39.8853,182.729 38.0519,178.062 36,173.5C 35.5,143.835 35.3334,114.169 35.5,84.5 Z"/></g>
<g><path style="opacity:1" fill="#969696" d="M 35.5,84.5 C 35.5,84.1667 35.5,83.8333 35.5,83.5C 59.8333,83.5 84.1667,83.5 108.5,83.5C 108.831,113.338 108.498,143.005 107.5,172.5C 107.5,143.167 107.5,113.833 107.5,84.5C 83.5,84.5 59.5,84.5 35.5,84.5 Z"/></g>
<g><path style="opacity:1" fill="#353535" d="M 35.5,83.5 C 35.5,83.8333 35.5,84.1667 35.5,84.5C 35.3334,114.169 35.5,143.835 36,173.5C 38.0519,178.062 39.8853,182.729 41.5,187.5C 40.8826,187.389 40.3826,187.056 40,186.5C 39.51,187.793 39.3433,189.127 39.5,190.5C 38.1667,190.5 36.8333,190.5 35.5,190.5C 35.5,190.167 35.5,189.833 35.5,189.5C 34.8333,187.5 34.1667,185.5 33.5,183.5C 33.8258,150.427 33.4924,117.427 32.5,84.5C 33.391,83.8902 34.391,83.5569 35.5,83.5 Z"/></g>
<g><path style="opacity:1" fill="#d7d7d7" d="M 35.5,189.5 C 35.3064,176.418 36.3064,176.418 38.5,189.5C 37.5,189.5 36.5,189.5 35.5,189.5 Z"/></g>
<g><path style="opacity:1" fill="#fefefe" d="M 43.5,192.5 C 62.5,192.5 81.5,192.5 100.5,192.5C 100.5,257.5 100.5,322.5 100.5,387.5C 81.5,387.5 62.5,387.5 43.5,387.5C 43.5,322.5 43.5,257.5 43.5,192.5 Z"/></g>
<g><path style="opacity:1" fill="#989898" d="M 42.5,192.5 C 42.5,192.167 42.5,191.833 42.5,191.5C 62.1667,191.5 81.8333,191.5 101.5,191.5C 101.5,257.167 101.5,322.833 101.5,388.5C 101.167,388.5 100.833,388.5 100.5,388.5C 100.5,388.167 100.5,387.833 100.5,387.5C 100.5,322.5 100.5,257.5 100.5,192.5C 81.5,192.5 62.5,192.5 43.5,192.5C 43.1667,192.5 42.8333,192.5 42.5,192.5 Z"/></g>
<g><path style="opacity:1" fill="#353535" d="M 108.5,83.5 C 109.167,84.1667 109.833,84.8333 110.5,85.5C 110.833,187.169 110.5,288.836 109.5,390.5C 107.167,392.167 105.167,394.167 103.5,396.5C 82.3372,397.828 61.3372,397.828 40.5,396.5C 61.0069,396.83 81.3402,396.497 101.5,395.5C 101.5,393.833 101.5,392.167 101.5,390.5C 101.5,389.833 101.5,389.167 101.5,388.5C 101.5,322.833 101.5,257.167 101.5,191.5C 81.8333,191.5 62.1667,191.5 42.5,191.5C 41.8333,191.5 41.1667,191.5 40.5,191.5C 38.8333,191.5 37.1667,191.5 35.5,191.5C 34.1667,191.167 34.1667,190.833 35.5,190.5C 36.8333,190.5 38.1667,190.5 39.5,190.5C 39.3433,189.127 39.51,187.793 40,186.5C 40.3826,187.056 40.8826,187.389 41.5,187.5C 51.1436,188.832 61.1436,189.499 71.5,189.5C 81.5,189.167 91.5,188.833 101.5,188.5C 103.703,183.221 105.703,177.887 107.5,172.5C 108.498,143.005 108.831,113.338 108.5,83.5 Z"/></g>
<g><path style="opacity:1" fill="#e4e4e4" d="M 106.5,181.5 C 107.473,183.948 107.806,186.615 107.5,189.5C 105.821,189.715 104.821,189.048 104.5,187.5C 105.167,185.5 105.833,183.5 106.5,181.5 Z"/></g>
<g><path style="opacity:1" fill="#838383" d="M 104.5,187.5 C 104.821,189.048 105.821,189.715 107.5,189.5C 107.806,186.615 107.473,183.948 106.5,181.5C 106.369,180.624 106.702,179.957 107.5,179.5C 108.489,183.107 108.823,186.774 108.5,190.5C 106.833,190.5 105.167,190.5 103.5,190.5C 103.263,189.209 103.596,188.209 104.5,187.5 Z"/></g>
<g><path style="opacity:1" fill="#878787" d="M 102.5,191.5 C 104.5,191.5 106.5,191.5 108.5,191.5C 108.5,257.167 108.5,322.833 108.5,388.5C 106.5,388.5 104.5,388.5 102.5,388.5C 102.5,322.833 102.5,257.167 102.5,191.5 Z"/></g>
<g><path style="opacity:1" fill="#fafafa" d="M 103.5,192.5 C 104.833,192.5 106.167,192.5 107.5,192.5C 107.5,257.5 107.5,322.5 107.5,387.5C 106.167,387.5 104.833,387.5 103.5,387.5C 103.5,322.5 103.5,257.5 103.5,192.5 Z"/></g>
<g><path style="opacity:1" fill="#bfbfbf" d="M 42.5,192.5 C 42.8333,192.5 43.1667,192.5 43.5,192.5C 43.5,257.5 43.5,322.5 43.5,387.5C 62.5,387.5 81.5,387.5 100.5,387.5C 100.5,387.833 100.5,388.167 100.5,388.5C 81.1667,388.5 61.8333,388.5 42.5,388.5C 42.5,323.167 42.5,257.833 42.5,192.5 Z"/></g>
<g><path style="opacity:1" fill="#d6d6d6" d="M 100.5,390.5 C 100.5,390.833 100.5,391.167 100.5,391.5C 81.5,391.5 62.5,391.5 43.5,391.5C 43.5,392.5 43.5,393.5 43.5,394.5C 43.1667,394.5 42.8333,394.5 42.5,394.5C 42.5,393.167 42.5,391.833 42.5,390.5C 61.8333,390.5 81.1667,390.5 100.5,390.5 Z"/></g>
<g><path style="opacity:1" fill="#fdfdfd" d="M 100.5,391.5 C 100.5,392.5 100.5,393.5 100.5,394.5C 81.5,394.5 62.5,394.5 43.5,394.5C 43.5,393.5 43.5,392.5 43.5,391.5C 62.5,391.5 81.5,391.5 100.5,391.5 Z"/></g>
<g><path style="opacity:1" fill="#8c8c8c" d="M 102.5,390.5 C 105.957,390.667 106.29,391.667 103.5,393.5C 102.614,392.675 102.281,391.675 102.5,390.5 Z"/></g>
<g><path style="opacity:1" fill="#ababab" d="M 100.5,390.5 C 100.833,390.5 101.167,390.5 101.5,390.5C 101.5,392.167 101.5,393.833 101.5,395.5C 81.6596,395.83 61.9929,395.497 42.5,394.5C 42.8333,394.5 43.1667,394.5 43.5,394.5C 62.5,394.5 81.5,394.5 100.5,394.5C 100.5,393.5 100.5,392.5 100.5,391.5C 100.5,391.167 100.5,390.833 100.5,390.5 Z"/></g>
<g><path style="opacity:1" fill="#323232" d="M 33.5,183.5 C 34.1667,185.5 34.8333,187.5 35.5,189.5C 35.5,189.833 35.5,190.167 35.5,190.5C 34.1667,190.833 34.1667,191.167 35.5,191.5C 35.5,191.833 35.5,192.167 35.5,192.5C 35.5,257.5 35.5,322.5 35.5,387.5C 36.9187,388.451 38.5853,388.784 40.5,388.5C 40.5,322.833 40.5,257.167 40.5,191.5C 41.1667,191.5 41.8333,191.5 42.5,191.5C 42.5,191.833 42.5,192.167 42.5,192.5C 42.5,257.833 42.5,323.167 42.5,388.5C 61.8333,388.5 81.1667,388.5 100.5,388.5C 100.833,388.5 101.167,388.5 101.5,388.5C 101.5,389.167 101.5,389.833 101.5,390.5C 101.167,390.5 100.833,390.5 100.5,390.5C 81.1667,390.5 61.8333,390.5 42.5,390.5C 42.5,391.833 42.5,393.167 42.5,394.5C 61.9929,395.497 81.6596,395.83 101.5,395.5C 81.3402,396.497 61.0069,396.83 40.5,396.5C 38.2034,394.706 36.0367,392.706 34,390.5C 33.5,321.501 33.3333,252.501 33.5,183.5 Z"/></g>
<g><path style="opacity:1" fill="#aaaaaa" d="M 38.5,390.5 C 40.2252,390.843 40.7252,391.843 40,393.5C 38.9614,392.756 38.4614,391.756 38.5,390.5 Z"/></g>
<g><path style="opacity:1" fill="#bcbcbc" d="M 35.5,192.5 C 35.5,192.167 35.5,191.833 35.5,191.5C 37.1667,191.5 38.8333,191.5 40.5,191.5C 40.5,257.167 40.5,322.833 40.5,388.5C 38.5853,388.784 36.9187,388.451 35.5,387.5C 36.8333,387.5 38.1667,387.5 39.5,387.5C 39.5,322.5 39.5,257.5 39.5,192.5C 38.1667,192.5 36.8333,192.5 35.5,192.5 Z"/></g>
<g><path style="opacity:1" fill="#f8f8f8" d="M 35.5,192.5 C 36.8333,192.5 38.1667,192.5 39.5,192.5C 39.5,257.5 39.5,322.5 39.5,387.5C 38.1667,387.5 36.8333,387.5 35.5,387.5C 35.5,322.5 35.5,257.5 35.5,192.5 Z"/></g>
</svg>
