<?xml version="1.0" encoding="UTF-8"?>
<!DOCTYPE svg PUBLIC "-//W3C//DTD SVG 1.1//EN" "http://www.w3.org/Graphics/SVG/1.1/DTD/svg11.dtd">
<svg transform="rotate(90)" xmlns="http://www.w3.org/2000/svg" version="1.1" width="173px" height="720px" style="shape-rendering:geometricPrecision; text-rendering:geometricPrecision; image-rendering:optimizeQuality; fill-rule:evenodd; clip-rule:evenodd" xmlns:xlink="http://www.w3.org/1999/xlink">
<g><path style="opacity:1" fill="#fdfdfd" d="M -0.5,-0.5 C 239.5,-0.5 479.5,-0.5 719.5,-0.5C 719.5,57.1667 719.5,114.833 719.5,172.5C 479.5,172.5 239.5,172.5 -0.5,172.5C -0.5,114.833 -0.5,57.1667 -0.5,-0.5 Z"/></g>
<g><path style="opacity:1" fill="#6b6b6b" d="M 13.5,12.5 C 27.6569,11.5041 41.9903,11.1707 56.5,11.5C 71.5,12.1667 86.5,12.8333 101.5,13.5C 72.3615,14.1284 43.3615,14.1284 14.5,13.5C 14.5,12.8333 14.1667,12.5 13.5,12.5 Z"/></g>
<g><path style="opacity:1" fill="#4e4e4e" d="M 9.5,15.5 C 9.17176,64.2385 9.5051,112.905 10.5,161.5C 9.16689,137.509 8.50023,113.176 8.5,88.5C 8.50003,63.9977 8.83336,39.6644 9.5,15.5 Z"/></g>
<g><path style="opacity:1" fill="#2b2b2b" d="M 644.5,162.5 C 644.5,162.167 644.5,161.833 644.5,161.5C 676.935,156.706 698.102,138.706 708,107.5C 715.461,73.9471 705.627,46.7804 678.5,26C 649.577,9.01204 620.911,9.34537 592.5,27C 568.98,46.4023 558.647,71.2357 561.5,101.5C 561.768,99.901 561.434,98.5676 560.5,97.5C 558.213,55.87 576.546,28.0367 615.5,14C 647.376,6.84872 674.21,15.3487 696,39.5C 710.083,58.9998 715.416,78.6665 712,98.5C 706.927,127.571 690.761,147.738 663.5,159C 657.362,161.285 651.028,162.452 644.5,162.5 Z"/></g>
<g><path style="opacity:1" fill="#bebebe" d="M 105.5,39.5 C 231.5,39.3333 357.5,39.5 483.5,40C 485.935,40.0748 486.602,40.9081 485.5,42.5C 484.609,41.8902 483.609,41.5569 482.5,41.5C 356.833,40.8333 231.167,40.1667 105.5,39.5 Z"/></g>
<g><path style="opacity:1" fill="#1c1c1c" d="M 56.5,11.5 C 72.1667,11.5 87.8333,11.5 103.5,11.5C 103.334,20.5062 103.5,29.5062 104,38.5C 104.383,39.056 104.883,39.3893 105.5,39.5C 231.167,40.1667 356.833,40.8333 482.5,41.5C 483.609,41.5569 484.609,41.8902 485.5,42.5C 487.797,44.2941 489.963,46.2941 492,48.5C 492.667,74.5 492.667,100.5 492,126.5C 489.271,129.399 486.438,132.066 483.5,134.5C 357.332,134.167 231.332,134.5 105.5,135.5C 104.883,135.611 104.383,135.944 104,136.5C 103.5,145.494 103.334,154.494 103.5,163.5C 73.8333,163.5 44.1667,163.5 14.5,163.5C 12.6203,163.771 11.287,163.104 10.5,161.5C 9.5051,112.905 9.17176,64.2385 9.5,15.5C 9.5,14.5 9.5,13.5 9.5,12.5C 10.8333,12.5 12.1667,12.5 13.5,12.5C 14.1667,12.5 14.5,12.8333 14.5,13.5C 12.9826,13.5106 11.8159,14.1772 11,15.5C 10.5002,25.828 10.3335,36.1613 10.5,46.5C 10.5,47.8333 10.5,49.1667 10.5,50.5C 10.5,55.1667 10.5,59.8333 10.5,64.5C 11.8333,65.8333 11.8333,67.1667 10.5,68.5C 10.5548,79.624 10.5548,90.9574 10.5,102.5C 10.5,105.167 10.5,107.833 10.5,110.5C 10.3341,115.511 10.5007,120.511 11,125.5C 11.3742,126.416 11.8742,127.25 12.5,128C 10.8934,129.049 10.2267,130.549 10.5,132.5C 10.3336,141.506 10.5002,150.506 11,159.5C 11.8333,160.333 12.6667,161.167 13.5,162C 42.8314,162.5 72.1648,162.667 101.5,162.5C 101.5,112.833 101.5,63.1667 101.5,13.5C 86.5,12.8333 71.5,12.1667 56.5,11.5 Z"/></g>
<g><path style="opacity:1" fill="#f9f9f7" d="M 484.5,44.5 C 486.296,45.7927 487.963,47.2927 489.5,49C 487.866,49.4935 486.199,49.6602 484.5,49.5C 484.5,47.8333 484.5,46.1667 484.5,44.5 Z"/></g>
<g><path style="opacity:1" fill="#b1afb0" d="M 10.5,46.5 C 12.924,46.1924 15.2573,46.5258 17.5,47.5C 15.2632,48.1321 13.5965,49.4654 12.5,51.5C 11.8165,51.1373 11.1499,50.8039 10.5,50.5C 10.5,49.1667 10.5,47.8333 10.5,46.5 Z"/></g>
<g><path style="opacity:1" fill="#f0f0f0" d="M 482.5,41.5 C 482.5,44.1667 482.5,46.8333 482.5,49.5C 400.833,49.5 319.167,49.5 237.5,49.5C 237.5,46.8333 237.5,44.1667 237.5,41.5C 319.167,41.5 400.833,41.5 482.5,41.5 Z"/></g>
<g><path style="opacity:1" fill="#7d7d7d" d="M 235.5,42.5 C 230.821,42.3342 226.155,42.5008 221.5,43C 222.888,43.8893 222.722,44.3893 221,44.5C 219.541,44.1918 218.374,43.5251 217.5,42.5C 223.5,41.1667 229.5,41.1667 235.5,42.5 Z"/></g>
<g><path style="opacity:1" fill="#fcfcfc" d="M 217.5,42.5 C 218.374,43.5251 219.541,44.1918 221,44.5C 222.722,44.3893 222.888,43.8893 221.5,43C 226.155,42.5008 230.821,42.3342 235.5,42.5C 235.799,44.604 235.466,46.604 234.5,48.5C 231.585,47.0235 228.585,46.1902 225.5,46C 228.605,47.8681 231.938,49.0348 235.5,49.5C 235.5,74.5 235.5,99.5 235.5,124.5C 233.167,125.833 230.833,127.167 228.5,128.5C 225.458,128.733 222.792,129.733 220.5,131.5C 218.692,131.491 217.025,131.991 215.5,133C 178.262,133.17 141.095,133.67 104,134.5C 103.333,103.167 103.333,71.8333 104,40.5C 141.791,41.1818 179.625,41.8485 217.5,42.5 Z"/></g>
<g><path style="opacity:1" fill="#fcfcfc" d="M 14.5,13.5 C 43.3615,14.1284 72.3615,14.1284 101.5,13.5C 101.5,63.1667 101.5,112.833 101.5,162.5C 72.1648,162.667 42.8314,162.5 13.5,162C 12.6667,161.167 11.8333,160.333 11,159.5C 10.5002,150.506 10.3336,141.506 10.5,132.5C 11.3149,131.571 12.1482,130.571 13,129.5C 13.8333,130.5 14.6667,131.5 15.5,132.5C 15.9133,129.356 18.08,128.022 22,128.5C 23.9806,128.629 25.6472,129.296 27,130.5C 28.938,128.022 31.1047,127.855 33.5,130C 30.8301,131.724 31.1634,132.891 34.5,133.5C 37.028,132.483 37.028,131.316 34.5,130C 41.4112,128.616 48.4112,128.116 55.5,128.5C 58.5023,125.839 60.5023,122.505 61.5,118.5C 62.5,118.167 63.1667,117.5 63.5,116.5C 65.0075,114.819 66.0075,112.819 66.5,110.5C 67.6737,109.486 68.3404,108.153 68.5,106.5C 69.9063,106.027 70.573,105.027 70.5,103.5C 72.8913,101.065 74.558,98.0648 75.5,94.5C 76.5,94.1667 77.1667,93.5 77.5,92.5C 78.766,91.9101 80.0993,91.4101 81.5,91C 80.5842,90.7216 79.9175,90.2216 79.5,89.5C 79.8799,87.302 79.2132,85.6354 77.5,84.5C 77.3404,82.847 76.6737,81.5137 75.5,80.5C 73.2248,75.7217 70.7248,71.055 68,66.5C 67.342,64.892 67.842,63.7253 69.5,63C 66.6901,62.9928 64.6901,61.8262 63.5,59.5C 63.573,57.9731 62.9063,56.9731 61.5,56.5C 61.4431,55.391 61.1098,54.391 60.5,53.5C 60.5,52.8333 60.1667,52.5 59.5,52.5C 59.3146,50.8042 58.4813,49.4709 57,48.5C 56.6667,46.5 56.3333,44.5 56,42.5C 55.0135,45.6967 55.5135,48.5301 57.5,51C 56.3159,52.1803 55.6493,53.6803 55.5,55.5C 55.5854,57.3328 56.2521,58.6661 57.5,59.5C 56.6091,60.2613 55.9424,61.2613 55.5,62.5C 55.7901,66.0065 55.7901,69.6731 55.5,73.5C 54.1266,73.3433 52.7932,73.51 51.5,74C 55.0511,75.6771 56.3845,78.5104 55.5,82.5C 51.7113,82.7373 51.7113,83.4039 55.5,84.5C 55.5,88.5 55.5,92.5 55.5,96.5C 55.4934,99.5443 55.1601,102.711 54.5,106C 49.6508,105.525 44.9842,106.359 40.5,108.5C 37.8333,107.167 35.1667,107.167 32.5,108.5C 30.9323,107.131 29.099,106.131 27,105.5C 23.8653,106.799 20.6987,106.799 17.5,105.5C 16.2613,105.942 15.2613,106.609 14.5,107.5C 13.0047,107.585 12.0047,106.919 11.5,105.5C 13.1035,102.875 12.7702,101.875 10.5,102.5C 10.5548,90.9574 10.5548,79.624 10.5,68.5C 12.924,68.8076 15.2573,68.4742 17.5,67.5C 15.8333,66.8333 14.1667,66.1667 12.5,65.5C 13.8334,64.3801 14.3334,63.0468 14,61.5C 12.9609,62.7101 11.7942,63.7101 10.5,64.5C 10.5,59.8333 10.5,55.1667 10.5,50.5C 11.1499,50.8039 11.8165,51.1373 12.5,51.5C 13.5965,49.4654 15.2632,48.1321 17.5,47.5C 15.2573,46.5258 12.924,46.1924 10.5,46.5C 10.3335,36.1613 10.5002,25.828 11,15.5C 11.8159,14.1772 12.9826,13.5106 14.5,13.5 Z"/></g>
<g><path style="opacity:1" fill="#8f8f8f" d="M 36.5,46.5 C 37.9778,46.238 39.3112,46.5713 40.5,47.5C 39.8333,47.8333 39.1667,48.1667 38.5,48.5C 37.2867,48.2528 36.62,47.5862 36.5,46.5 Z"/></g>
<g><path style="opacity:1" fill="#a1a1a1" d="M 18.5,46.5 C 21.2469,46.1866 23.9135,46.52 26.5,47.5C 25.1667,47.8333 23.8333,48.1667 22.5,48.5C 20.6672,48.4146 19.3339,47.7479 18.5,46.5 Z"/></g>
<g><path style="opacity:1" fill="#8f8f8f" d="M 50.5,46.5 C 51.9778,46.238 53.3112,46.5713 54.5,47.5C 53.8333,47.8333 53.1667,48.1667 52.5,48.5C 51.2867,48.2528 50.62,47.5862 50.5,46.5 Z"/></g>
<g><path style="opacity:1" fill="#a3a3a3" d="M 41.5,46.5 C 44.2469,46.1866 46.9135,46.52 49.5,47.5C 48.1667,47.8333 46.8333,48.1667 45.5,48.5C 43.6672,48.4146 42.3339,47.7479 41.5,46.5 Z"/></g>
<g><path style="opacity:1" fill="#fefefe" d="M 237.5,50.5 C 319.167,50.5 400.833,50.5 482.5,50.5C 482.5,75.1667 482.5,99.8333 482.5,124.5C 400.833,124.5 319.167,124.5 237.5,124.5C 237.5,99.8333 237.5,75.1667 237.5,50.5 Z"/></g>
<g><path style="opacity:1" fill="#888888" d="M 59.5,52.5 C 57.8793,52.7869 56.8793,53.7869 56.5,55.5C 57.2458,56.7362 57.5792,58.0695 57.5,59.5C 56.2521,58.6661 55.5854,57.3328 55.5,55.5C 55.6493,53.6803 56.3159,52.1803 57.5,51C 55.5135,48.5301 55.0135,45.6967 56,42.5C 56.3333,44.5 56.6667,46.5 57,48.5C 58.4813,49.4709 59.3146,50.8042 59.5,52.5 Z"/></g>
<g><path style="opacity:1" fill="#f6f6f3" d="M 484.5,50.5 C 486.833,50.5 489.167,50.5 491.5,50.5C 491.5,75.1667 491.5,99.8333 491.5,124.5C 489.167,124.5 486.833,124.5 484.5,124.5C 484.5,99.8333 484.5,75.1667 484.5,50.5 Z"/></g>
<g><path style="opacity:1" fill="#817f80" d="M 13.5,52.5 C 15.385,54.7954 15.885,57.462 15,60.5C 14.1785,57.8832 13.6785,55.2165 13.5,52.5 Z"/></g>
<g><path style="opacity:1" fill="#595959" d="M 60.5,53.5 C 61.1098,54.391 61.4431,55.391 61.5,56.5C 59.6182,55.779 59.2848,54.779 60.5,53.5 Z"/></g>
<g><path style="opacity:1" fill="#4e4e4e" d="M 235.5,42.5 C 236.833,69.8333 236.833,97.1667 235.5,124.5C 235.5,99.5 235.5,74.5 235.5,49.5C 231.938,49.0348 228.605,47.8681 225.5,46C 228.585,46.1902 231.585,47.0235 234.5,48.5C 235.466,46.604 235.799,44.604 235.5,42.5 Z"/></g>
<g><path style="opacity:1" fill="#5c5c5c" d="M 61.5,56.5 C 62.9063,56.9731 63.573,57.9731 63.5,59.5C 62.2931,59.6216 61.6264,58.6216 61.5,56.5 Z"/></g>
<g><path style="opacity:1" fill="#959394" d="M 10.5,68.5 C 11.8333,67.1667 11.8333,65.8333 10.5,64.5C 11.7942,63.7101 12.9609,62.7101 14,61.5C 14.3334,63.0468 13.8334,64.3801 12.5,65.5C 14.1667,66.1667 15.8333,66.8333 17.5,67.5C 15.2573,68.4742 12.924,68.8076 10.5,68.5 Z"/></g>
<g><path style="opacity:1" fill="#9e9e9e" d="M 32.5,66.5 C 35.2469,66.1866 37.9135,66.52 40.5,67.5C 39.1667,67.8333 37.8333,68.1667 36.5,68.5C 34.6672,68.4146 33.3339,67.7479 32.5,66.5 Z"/></g>
<g><path style="opacity:1" fill="#a5a5a5" d="M 18.5,66.5 C 21.2469,66.1866 23.9135,66.52 26.5,67.5C 25.1667,67.8333 23.8333,68.1667 22.5,68.5C 20.6672,68.4146 19.3339,67.7479 18.5,66.5 Z"/></g>
<g><path style="opacity:1" fill="#949494" d="M 27.5,66.5 C 28.9778,66.238 30.3112,66.5713 31.5,67.5C 30.8333,67.8333 30.1667,68.1667 29.5,68.5C 28.2867,68.2528 27.62,67.5862 27.5,66.5 Z"/></g>
<g><path style="opacity:1" fill="#919191" d="M 50.5,66.5 C 51.9778,66.238 53.3112,66.5713 54.5,67.5C 53.8333,67.8333 53.1667,68.1667 52.5,68.5C 51.2867,68.2528 50.62,67.5862 50.5,66.5 Z"/></g>
<g><path style="opacity:1" fill="#848383" d="M 12.5,74.5 C 14.0863,76.0808 15.0863,78.0808 15.5,80.5C 15.1667,80.8333 14.8333,81.1667 14.5,81.5C 13.3652,79.2933 12.6985,76.9599 12.5,74.5 Z"/></g>
<g><path style="opacity:1" fill="#535353" d="M 75.5,80.5 C 76.6737,81.5137 77.3404,82.847 77.5,84.5C 75.8958,83.713 75.2291,82.3797 75.5,80.5 Z"/></g>
<g><path style="opacity:1" fill="#3c3c3c" d="M 77.5,84.5 C 79.2132,85.6354 79.8799,87.302 79.5,89.5C 78.6365,90.463 77.9698,90.463 77.5,89.5C 78.5353,87.8716 78.5353,86.205 77.5,84.5 Z"/></g>
<g><path style="opacity:1" fill="#7c7c7c" d="M 55.5,96.5 C 55.5,92.5 55.5,88.5 55.5,84.5C 55.4346,84.0618 55.6012,83.7284 56,83.5C 56.3095,84.7659 56.8095,85.9326 57.5,87C 56.868,90.2704 56.2014,93.4371 55.5,96.5 Z"/></g>
<g><path style="opacity:1" fill="#5e5e5e" d="M 77.5,92.5 C 77.1667,93.5 76.5,94.1667 75.5,94.5C 75.369,93.7611 75.5357,93.0944 76,92.5C 76.69,91.2617 77.19,91.2617 77.5,92.5 Z"/></g>
<g><path style="opacity:1" fill="#6e6e6c" d="M 14.5,91.5 C 15.3327,94.2179 14.8327,96.8845 13,99.5C 13.0405,96.7944 13.5405,94.1277 14.5,91.5 Z"/></g>
<g><path style="opacity:1" fill="#838383" d="M 560.5,97.5 C 561.434,98.5676 561.768,99.901 561.5,101.5C 560.414,101.38 559.747,100.713 559.5,99.5C 559.543,98.5836 559.876,97.9169 560.5,97.5 Z"/></g>
<g><path style="opacity:1" fill="#5a5a5a" d="M 70.5,103.5 C 70.573,105.027 69.9063,106.027 68.5,106.5C 68.427,104.973 69.0937,103.973 70.5,103.5 Z"/></g>
<g><path style="opacity:1" fill="#7b7b7a" d="M 14.5,107.5 C 15.552,107.351 16.552,107.517 17.5,108C 15.5,108.333 13.5,108.667 11.5,109C 12.8228,109.816 13.4894,110.983 13.5,112.5C 12.5,111.833 11.5,111.167 10.5,110.5C 10.5,107.833 10.5,105.167 10.5,102.5C 12.7702,101.875 13.1035,102.875 11.5,105.5C 12.0047,106.919 13.0047,107.585 14.5,107.5 Z"/></g>
<g><path style="opacity:1" fill="#686868" d="M 68.5,106.5 C 68.3404,108.153 67.6737,109.486 66.5,110.5C 66.2291,108.62 66.8958,107.287 68.5,106.5 Z"/></g>
<g><path style="opacity:1" fill="#f0f0f0" d="M 59.5,52.5 C 60.1667,52.5 60.5,52.8333 60.5,53.5C 59.2848,54.779 59.6182,55.779 61.5,56.5C 61.6264,58.6216 62.2931,59.6216 63.5,59.5C 64.6901,61.8262 66.6901,62.9928 69.5,63C 67.842,63.7253 67.342,64.892 68,66.5C 70.7248,71.055 73.2248,75.7217 75.5,80.5C 75.2291,82.3797 75.8958,83.713 77.5,84.5C 78.5353,86.205 78.5353,87.8716 77.5,89.5C 77.9698,90.463 78.6365,90.463 79.5,89.5C 79.9175,90.2216 80.5842,90.7216 81.5,91C 80.0993,91.4101 78.766,91.9101 77.5,92.5C 77.19,91.2617 76.69,91.2617 76,92.5C 75.5357,93.0944 75.369,93.7611 75.5,94.5C 74.558,98.0648 72.8913,101.065 70.5,103.5C 69.0937,103.973 68.427,104.973 68.5,106.5C 66.8958,107.287 66.2291,108.62 66.5,110.5C 66.0075,112.819 65.0075,114.819 63.5,116.5C 63.5654,116.062 63.3988,115.728 63,115.5C 61.9614,116.244 61.4614,117.244 61.5,118.5C 59.8267,119.343 58.66,120.676 58,122.5C 57.6924,121.692 57.1924,121.025 56.5,120.5C 55.52,123.086 55.1866,125.753 55.5,128.5C 48.4112,128.116 41.4112,128.616 34.5,130C 37.028,131.316 37.028,132.483 34.5,133.5C 31.1634,132.891 30.8301,131.724 33.5,130C 31.1047,127.855 28.938,128.022 27,130.5C 25.6472,129.296 23.9806,128.629 22,128.5C 18.08,128.022 15.9133,129.356 15.5,132.5C 14.6667,131.5 13.8333,130.5 13,129.5C 12.1482,130.571 11.3149,131.571 10.5,132.5C 10.2267,130.549 10.8934,129.049 12.5,128C 11.8742,127.25 11.3742,126.416 11,125.5C 10.5007,120.511 10.3341,115.511 10.5,110.5C 11.5,111.167 12.5,111.833 13.5,112.5C 13.4894,110.983 12.8228,109.816 11.5,109C 13.5,108.667 15.5,108.333 17.5,108C 16.552,107.517 15.552,107.351 14.5,107.5C 15.2613,106.609 16.2613,105.942 17.5,105.5C 20.6987,106.799 23.8653,106.799 27,105.5C 29.099,106.131 30.9323,107.131 32.5,108.5C 35.0618,109.371 37.7284,109.371 40.5,108.5C 44.9842,106.359 49.6508,105.525 54.5,106C 55.1601,102.711 55.4934,99.5443 55.5,96.5C 56.2014,93.4371 56.868,90.2704 57.5,87C 56.8095,85.9326 56.3095,84.7659 56,83.5C 55.6012,83.7284 55.4346,84.0618 55.5,84.5C 51.7113,83.4039 51.7113,82.7373 55.5,82.5C 56.3845,78.5104 55.0511,75.6771 51.5,74C 52.7932,73.51 54.1266,73.3433 55.5,73.5C 55.7901,69.6731 55.7901,66.0065 55.5,62.5C 55.9424,61.2613 56.6091,60.2613 57.5,59.5C 57.5792,58.0695 57.2458,56.7362 56.5,55.5C 56.8793,53.7869 57.8793,52.7869 59.5,52.5 Z"/></g>
<g><path style="opacity:1" fill="#919191" d="M 32.5,108.5 C 35.1667,107.167 37.8333,107.167 40.5,108.5C 37.7284,109.371 35.0618,109.371 32.5,108.5 Z"/></g>
<g><path style="opacity:1" fill="#646464" d="M 55.5,106.5 C 56.5983,107.601 56.765,108.934 56,110.5C 54.5604,108.954 52.7271,108.121 50.5,108C 52.3817,107.802 54.0484,107.302 55.5,106.5 Z"/></g>
<g><path style="opacity:1" fill="#747474" d="M 13.5,112.5 C 15.385,114.795 15.885,117.462 15,120.5C 14.1785,117.883 13.6785,115.216 13.5,112.5 Z"/></g>
<g><path style="opacity:1" fill="#585858" d="M 63.5,116.5 C 63.1667,117.5 62.5,118.167 61.5,118.5C 61.4614,117.244 61.9614,116.244 63,115.5C 63.3988,115.728 63.5654,116.062 63.5,116.5 Z"/></g>
<g><path style="opacity:1" fill="#4e4e4e" d="M 13.5,121.5 C 14.7125,122.497 14.5458,123.497 13,124.5C 12.5304,123.423 12.6971,122.423 13.5,121.5 Z"/></g>
<g><path style="opacity:1" fill="#818181" d="M 61.5,118.5 C 60.5023,122.505 58.5023,125.839 55.5,128.5C 55.1866,125.753 55.52,123.086 56.5,120.5C 57.1924,121.025 57.6924,121.692 58,122.5C 58.66,120.676 59.8267,119.343 61.5,118.5 Z"/></g>
<g><path style="opacity:1" fill="#f0efef" d="M 237.5,125.5 C 319.167,125.5 400.833,125.5 482.5,125.5C 482.5,128.167 482.5,130.833 482.5,133.5C 400.833,133.5 319.167,133.5 237.5,133.5C 237.5,130.833 237.5,128.167 237.5,125.5 Z"/></g>
<g><path style="opacity:1" fill="#232221" d="M 630.5,46.5 C 654.687,45.3374 670.187,56.3374 677,79.5C 679.287,105.124 668.121,121.29 643.5,128C 618.72,130.217 602.887,119.384 596,95.5C 593.754,69.2763 605.254,52.943 630.5,46.5 Z"/></g>
<g><path style="opacity:1" fill="#e4e4e2" d="M 665.5,111.5 C 666.239,111.369 666.906,111.536 667.5,112C 660.733,120.381 652.067,125.047 641.5,126C 649.73,121.392 657.73,116.559 665.5,111.5 Z"/></g>
<g><path style="opacity:1" fill="#e8e7e6" d="M 605.5,112.5 C 605.897,111.475 606.563,111.308 607.5,112C 615.5,116.667 623.5,121.333 631.5,126C 625.008,125.768 619.008,123.768 613.5,120C 610.964,117.295 608.297,114.795 605.5,112.5 Z"/></g>
<g><path style="opacity:1" fill="#858585" d="M 673.5,73.5 C 672.167,82.8333 672.167,92.1667 673.5,101.5C 673.217,102.289 672.717,102.956 672,103.5C 671.333,92.8333 671.333,82.1667 672,71.5C 672.717,72.0442 673.217,72.7109 673.5,73.5 Z"/></g>
<g><path style="opacity:1" fill="#4e4d4b" d="M 599.5,102.5 C 600.833,92.5 600.833,82.5 599.5,72.5C 599.783,71.7109 600.283,71.0442 601,70.5C 601.832,81.5151 601.666,92.5151 600.5,103.5C 599.893,103.376 599.56,103.043 599.5,102.5 Z"/></g>
<g><path style="opacity:1" fill="#efefef" d="M 673.5,73.5 C 676.167,82.8341 676.167,92.1674 673.5,101.5C 672.167,92.1667 672.167,82.8333 673.5,73.5 Z"/></g>
<g><path style="opacity:1" fill="#f8f7f5" d="M 599.5,72.5 C 600.833,82.5 600.833,92.5 599.5,102.5C 596.833,92.5 596.833,82.5 599.5,72.5 Z"/></g>
<g><path style="opacity:1" fill="#e7e6e4" d="M 627.5,48.5 C 628.873,48.3433 630.207,48.51 631.5,49C 631.167,49.3333 630.833,49.6667 630.5,50C 622.177,54.6589 613.844,58.9923 605.5,63C 611.427,55.8842 618.76,51.0509 627.5,48.5 Z"/></g>
<g><path style="opacity:1" fill="#e1e1df" d="M 640.5,49.5 C 651.129,49.5616 659.962,53.895 667,62.5C 667.667,63.1667 667.667,63.8333 667,64.5C 658.355,59.0964 649.522,54.0964 640.5,49.5 Z"/></g>
<g><path style="opacity:1" fill="#fcfcfb" d="M 635.5,48.5 C 646.779,54.8092 658.112,61.1425 669.5,67.5C 670.833,80.8333 670.833,94.1667 669.5,107.5C 658.561,114.22 647.394,120.553 636,126.5C 625.016,120.174 614.016,113.84 603,107.5C 602.167,94.1542 602.334,80.8208 603.5,67.5C 614.262,61.1271 624.929,54.7938 635.5,48.5 Z"/></g>
<g><path style="opacity:1" fill="#dddddd" d="M 484.5,125.5 C 486.288,125.215 487.955,125.548 489.5,126.5C 485.589,133.174 483.923,132.84 484.5,125.5 Z"/></g>
<g><path style="opacity:1" fill="#535151" d="M 228.5,128.5 C 226.208,130.267 223.542,131.267 220.5,131.5C 222.792,129.733 225.458,128.733 228.5,128.5 Z"/></g>
<g><path style="opacity:1" fill="#e9e9e7" d="M 220.5,131.5 C 223.542,131.267 226.208,130.267 228.5,128.5C 230.827,128.335 232.993,127.669 235,126.5C 235.497,128.81 235.663,131.143 235.5,133.5C 229.824,133.666 224.157,133.499 218.5,133C 219.416,132.722 220.082,132.222 220.5,131.5 Z"/></g>
<g><path style="opacity:1" fill="#878686" d="M 105.5,135.5 C 231.332,134.5 357.332,134.167 483.5,134.5C 401.289,134.836 319.122,135.836 237,137.5C 193.385,135.508 149.552,134.842 105.5,135.5 Z"/></g>
<g><path style="opacity:1" fill="#2c2c2c" d="M 628.5,161.5 C 632.5,162.167 636.5,162.833 640.5,163.5C 605.839,163.993 581.006,148.66 566,117.5C 564.85,115.246 564.516,112.913 565,110.5C 576.198,140.004 597.365,157.004 628.5,161.5 Z"/></g>
<g><path style="opacity:1" fill="#8c8c8c" d="M 628.5,161.5 C 633.833,161.5 639.167,161.5 644.5,161.5C 644.5,161.833 644.5,162.167 644.5,162.5C 643.432,163.434 642.099,163.768 640.5,163.5C 636.5,162.833 632.5,162.167 628.5,161.5 Z"/></g>
<g><path style="opacity:1" fill="#858585" d="M 14.5,163.5 C 44.1667,163.5 73.8333,163.5 103.5,163.5C 103.631,164.239 103.464,164.906 103,165.5C 73.4023,164.837 43.9023,164.17 14.5,163.5 Z"/></g>
</svg>
