<?xml version="1.0" encoding="UTF-8"?>
<!DOCTYPE svg PUBLIC "-//W3C//DTD SVG 1.1//EN" "http://www.w3.org/Graphics/SVG/1.1/DTD/svg11.dtd">
<svg xmlns="http://www.w3.org/2000/svg" version="1.1" width="125px" height="419px" style="shape-rendering:geometricPrecision; text-rendering:geometricPrecision; image-rendering:optimizeQuality; fill-rule:evenodd; clip-rule:evenodd" xmlns:xlink="http://www.w3.org/1999/xlink">
<g><path style="opacity:1" fill="#f9f9f9" d="M -0.5,-0.5 C 41.1667,-0.5 82.8333,-0.5 124.5,-0.5C 124.5,139.167 124.5,278.833 124.5,418.5C 82.8333,418.5 41.1667,418.5 -0.5,418.5C -0.5,278.833 -0.5,139.167 -0.5,-0.5 Z"/></g>
<g><path style="opacity:1" fill="#2c2c2c" d="M 106.5,8.5 C 105.833,8.5 105.5,8.83333 105.5,9.5C 105.167,9.5 104.833,9.5 104.5,9.5C 101.167,9.5 97.8333,9.5 94.5,9.5C 93.2905,9.93205 92.2905,10.5987 91.5,11.5C 91.1667,11.5 90.8333,11.5 90.5,11.5C 89.8333,11.5 89.5,11.1667 89.5,10.5C 87.6391,9.49297 84.9725,9.15963 81.5,9.5C 80.2921,10.2341 78.9587,10.5674 77.5,10.5C 76.209,10.2627 75.209,10.596 74.5,11.5C 74.1667,11.5 73.8333,11.5 73.5,11.5C 72.5084,11.6716 71.8417,11.3382 71.5,10.5C 65.2571,9.18959 59.5904,9.18959 54.5,10.5C 54.1583,11.3382 53.4916,11.6716 52.5,11.5C 51.609,10.8902 50.609,10.5569 49.5,10.5C 49.1667,10.5 48.8333,10.5 48.5,10.5C 47.209,10.2627 46.209,10.596 45.5,11.5C 45.1667,11.5 44.8333,11.5 44.5,11.5C 44.1667,11.5 43.8333,11.5 43.5,11.5C 43.6107,10.8826 43.944,10.3826 44.5,10C 41.5184,9.50204 38.5184,9.33537 35.5,9.5C 34.1667,10.8333 32.8333,10.8333 31.5,9.5C 27.8333,9.5 24.1667,9.5 20.5,9.5C 20.5,12.1667 20.5,14.8333 20.5,17.5C 20.1667,17.5 19.8333,17.5 19.5,17.5C 19.7989,15.396 19.4656,13.396 18.5,11.5C 16.614,12.9301 14.9473,14.5968 13.5,16.5C 15.0453,17.4519 16.712,17.7852 18.5,17.5C 18.5,18.1667 18.5,18.8333 18.5,19.5C 16.1667,19.5 13.8333,19.5 11.5,19.5C 12.625,18.3478 12.625,17.3478 11.5,16.5C 13.9619,13.5361 16.6286,10.7028 19.5,8C 48.6696,7.16955 77.6696,7.33622 106.5,8.5 Z"/></g>
<g><path style="opacity:1" fill="#e9e9e9" d="M 31.5,9.5 C 31.5,12.1667 31.5,14.8333 31.5,17.5C 28.1667,17.5 24.8333,17.5 21.5,17.5C 21.1667,17.5 20.8333,17.5 20.5,17.5C 20.5,14.8333 20.5,12.1667 20.5,9.5C 24.1667,9.5 27.8333,9.5 31.5,9.5 Z"/></g>
<g><path style="opacity:1" fill="#3d3d3d" d="M 108.5,10.5 C 110.833,12.1667 112.833,14.1667 114.5,16.5C 113.375,17.3478 113.375,18.3478 114.5,19.5C 111.833,19.5 109.167,19.5 106.5,19.5C 106.5,18.8333 106.5,18.1667 106.5,17.5C 108.527,17.6621 110.527,17.4955 112.5,17C 110.536,15.549 109.203,13.7157 108.5,11.5C 108.5,11.1667 108.5,10.8333 108.5,10.5 Z"/></g>
<g><path style="opacity:1" fill="#c4c4c4" d="M 19.5,17.5 C 19.1667,17.5 18.8333,17.5 18.5,17.5C 16.712,17.7852 15.0453,17.4519 13.5,16.5C 14.9473,14.5968 16.614,12.9301 18.5,11.5C 19.4656,13.396 19.7989,15.396 19.5,17.5 Z"/></g>
<g><path style="opacity:1" fill="#cbcbcb" d="M 108.5,11.5 C 109.203,13.7157 110.536,15.549 112.5,17C 110.527,17.4955 108.527,17.6621 106.5,17.5C 106.025,14.9179 106.692,12.9179 108.5,11.5 Z"/></g>
<g><path style="opacity:1" fill="#545454" d="M 31.5,9.5 C 32.8333,10.8333 34.1667,10.8333 35.5,9.5C 37.78,11.2227 40.4467,11.8893 43.5,11.5C 43.8333,11.5 44.1667,11.5 44.5,11.5C 41.2428,14.1445 37.9095,14.1445 34.5,11.5C 33.5344,13.396 33.2011,15.396 33.5,17.5C 37.8333,17.5 42.1667,17.5 46.5,17.5C 46.7947,15.2646 46.4614,13.2646 45.5,11.5C 46.209,10.596 47.209,10.2627 48.5,10.5C 48.5,12.8333 48.5,15.1667 48.5,17.5C 58.1667,17.5 67.8333,17.5 77.5,17.5C 77.5,15.1667 77.5,12.8333 77.5,10.5C 78.9587,10.5674 80.2921,10.2341 81.5,9.5C 83.7991,11.7687 86.4658,12.102 89.5,10.5C 89.5,11.1667 89.8333,11.5 90.5,11.5C 87.2428,14.1445 83.9095,14.1445 80.5,11.5C 79.5344,13.396 79.2011,15.396 79.5,17.5C 83.8333,17.5 88.1667,17.5 92.5,17.5C 92.7947,15.2646 92.4614,13.2646 91.5,11.5C 92.2905,10.5987 93.2905,9.93205 94.5,9.5C 94.5,12.1667 94.5,14.8333 94.5,17.5C 97.8333,17.5 101.167,17.5 104.5,17.5C 104.5,14.8333 104.5,12.1667 104.5,9.5C 104.833,9.5 105.167,9.5 105.5,9.5C 105.833,136.334 105.5,263.001 104.5,389.5C 104.5,266.5 104.5,143.5 104.5,20.5C 101.375,19.5206 98.0419,19.1872 94.5,19.5C 94.5,33.5 94.5,47.5 94.5,61.5C 92.7798,62.3077 91.1131,63.3077 89.5,64.5C 88.596,63.791 88.2627,62.791 88.5,61.5C 84.6286,61.815 80.9619,61.4816 77.5,60.5C 77.5,46.8333 77.5,33.1667 77.5,19.5C 67.8333,19.5 58.1667,19.5 48.5,19.5C 48.5,30.5 48.5,41.5 48.5,52.5C 47.8333,41.5 47.1667,30.5 46.5,19.5C 41.9677,19.1818 37.6344,19.5151 33.5,20.5C 33.5,21.5 33.5,22.5 33.5,23.5C 32.8333,33.1667 32.1667,42.8333 31.5,52.5C 31.5,41.5 31.5,30.5 31.5,19.5C 28.1667,19.5 24.8333,19.5 21.5,19.5C 21.5,18.8333 21.5,18.1667 21.5,17.5C 24.8333,17.5 28.1667,17.5 31.5,17.5C 31.5,14.8333 31.5,12.1667 31.5,9.5 Z"/></g>
<g><path style="opacity:1" fill="#cecece" d="M 48.5,10.5 C 48.8333,10.5 49.1667,10.5 49.5,10.5C 49.5,12.5 49.5,14.5 49.5,16.5C 58.5,16.5 67.5,16.5 76.5,16.5C 76.9227,14.2188 76.256,12.5521 74.5,11.5C 75.209,10.596 76.209,10.2627 77.5,10.5C 77.5,12.8333 77.5,15.1667 77.5,17.5C 67.8333,17.5 58.1667,17.5 48.5,17.5C 48.5,15.1667 48.5,12.8333 48.5,10.5 Z"/></g>
<g><path style="opacity:1" fill="#ededed" d="M 44.5,11.5 C 44.8333,11.5 45.1667,11.5 45.5,11.5C 46.4614,13.2646 46.7947,15.2646 46.5,17.5C 42.1667,17.5 37.8333,17.5 33.5,17.5C 33.2011,15.396 33.5344,13.396 34.5,11.5C 37.9095,14.1445 41.2428,14.1445 44.5,11.5 Z"/></g>
<g><path style="opacity:1" fill="#ececec" d="M 90.5,11.5 C 90.8333,11.5 91.1667,11.5 91.5,11.5C 92.4614,13.2646 92.7947,15.2646 92.5,17.5C 88.1667,17.5 83.8333,17.5 79.5,17.5C 79.2011,15.396 79.5344,13.396 80.5,11.5C 83.9095,14.1445 87.2428,14.1445 90.5,11.5 Z"/></g>
<g><path style="opacity:1" fill="#525252" d="M 54.5,10.5 C 60.1667,11.8333 65.8333,11.8333 71.5,10.5C 71.8417,11.3382 72.5084,11.6716 73.5,11.5C 70.114,12.9704 66.4473,13.6371 62.5,13.5C 58.8589,13.6852 55.5256,13.0186 52.5,11.5C 53.4916,11.6716 54.1583,11.3382 54.5,10.5 Z"/></g>
<g><path style="opacity:1" fill="#f8f8f8" d="M 49.5,10.5 C 50.609,10.5569 51.609,10.8902 52.5,11.5C 55.5256,13.0186 58.8589,13.6852 62.5,13.5C 66.4473,13.6371 70.114,12.9704 73.5,11.5C 73.8333,11.5 74.1667,11.5 74.5,11.5C 76.256,12.5521 76.9227,14.2188 76.5,16.5C 67.5,16.5 58.5,16.5 49.5,16.5C 49.5,14.5 49.5,12.5 49.5,10.5 Z"/></g>
<g><path style="opacity:1" fill="#f2f2f2" d="M 94.5,9.5 C 97.8333,9.5 101.167,9.5 104.5,9.5C 104.5,12.1667 104.5,14.8333 104.5,17.5C 101.167,17.5 97.8333,17.5 94.5,17.5C 94.5,14.8333 94.5,12.1667 94.5,9.5 Z"/></g>
<g><path style="opacity:1" fill="#c9c9c9" d="M 81.5,9.5 C 84.9725,9.15963 87.6391,9.49297 89.5,10.5C 86.4658,12.102 83.7991,11.7687 81.5,9.5 Z"/></g>
<g><path style="opacity:1" fill="#d5d5d5" d="M 71.5,10.5 C 65.8333,11.8333 60.1667,11.8333 54.5,10.5C 59.5904,9.18959 65.2571,9.18959 71.5,10.5 Z"/></g>
<g><path style="opacity:1" fill="#cbcbcb" d="M 35.5,9.5 C 38.5184,9.33537 41.5184,9.50204 44.5,10C 43.944,10.3826 43.6107,10.8826 43.5,11.5C 40.4467,11.8893 37.78,11.2227 35.5,9.5 Z"/></g>
<g><path style="opacity:1" fill="#fefefe" d="M 31.5,61.5 C 41.2843,68.2329 51.6177,74.2329 62.5,79.5C 71.7905,74.8421 80.7905,69.8421 89.5,64.5C 91.1131,63.3077 92.7798,62.3077 94.5,61.5C 95.4957,48.0102 95.829,34.3435 95.5,20.5C 98.5,20.5 101.5,20.5 104.5,20.5C 104.5,143.5 104.5,266.5 104.5,389.5C 76.8333,389.5 49.1667,389.5 21.5,389.5C 21.5,266.5 21.5,143.5 21.5,20.5C 24.5,20.5 27.5,20.5 30.5,20.5C 30.171,34.3435 30.5043,48.0102 31.5,61.5 Z"/></g>
<g><path style="opacity:1" fill="#fcfcfc" d="M 33.5,20.5 C 37.5,20.5 41.5,20.5 45.5,20.5C 45.5,33.5 45.5,46.5 45.5,59.5C 41.5,59.5 37.5,59.5 33.5,59.5C 33.5,47.5 33.5,35.5 33.5,23.5C 33.5,22.5 33.5,21.5 33.5,20.5 Z"/></g>
<g><path style="opacity:1" fill="#fcfcfc" d="M 79.5,20.5 C 83.5,20.5 87.5,20.5 91.5,20.5C 91.5,33.5 91.5,46.5 91.5,59.5C 87.5,59.5 83.5,59.5 79.5,59.5C 79.5,46.5 79.5,33.5 79.5,20.5 Z"/></g>
<g><path style="opacity:1" fill="#1b1b1b" d="M 10.5,16.5 C 10.8333,16.5 11.1667,16.5 11.5,16.5C 12.625,17.3478 12.625,18.3478 11.5,19.5C 10.1667,142.833 10.1667,266.167 11.5,389.5C 13.8333,389.5 16.1667,389.5 18.5,389.5C 19.8333,266.167 19.8333,142.833 18.5,19.5C 18.5,18.8333 18.5,18.1667 18.5,17.5C 18.8333,17.5 19.1667,17.5 19.5,17.5C 19.8333,17.5 20.1667,17.5 20.5,17.5C 20.8333,17.5 21.1667,17.5 21.5,17.5C 21.5,18.1667 21.5,18.8333 21.5,19.5C 20.1667,142.833 20.1667,266.167 21.5,389.5C 21.5,390.167 21.5,390.833 21.5,391.5C 20.1667,394.5 20.1667,397.5 21.5,400.5C 22.2899,401.794 23.2899,402.961 24.5,404C 49.8311,404.5 75.1645,404.667 100.5,404.5C 75.5,405.167 50.5,405.833 25.5,406.5C 21.5,402.833 17.5,399.167 13.5,395.5C 12.5423,394.038 11.3756,392.705 10,391.5C 9.16873,266.43 9.33539,141.43 10.5,16.5 Z"/></g>
<g><path style="opacity:1" fill="#aaaaaa" d="M 21.5,19.5 C 24.8333,19.5 28.1667,19.5 31.5,19.5C 31.5,30.5 31.5,41.5 31.5,52.5C 31.5,55.5 31.5,58.5 31.5,61.5C 30.5043,48.0102 30.171,34.3435 30.5,20.5C 27.5,20.5 24.5,20.5 21.5,20.5C 21.5,143.5 21.5,266.5 21.5,389.5C 20.1667,266.167 20.1667,142.833 21.5,19.5 Z"/></g>
<g><path style="opacity:1" fill="#d0d0d0" d="M 33.5,20.5 C 37.6344,19.5151 41.9677,19.1818 46.5,19.5C 46.5,33.1667 46.5,46.8333 46.5,60.5C 41.9677,60.8182 37.6344,60.4849 33.5,59.5C 37.5,59.5 41.5,59.5 45.5,59.5C 45.5,46.5 45.5,33.5 45.5,20.5C 41.5,20.5 37.5,20.5 33.5,20.5 Z"/></g>
<g><path style="opacity:1" fill="#d6d6d6" d="M 79.5,20.5 C 83.6344,19.5151 87.9677,19.1818 92.5,19.5C 92.5,33.1667 92.5,46.8333 92.5,60.5C 87.9677,60.8182 83.6344,60.4849 79.5,59.5C 83.5,59.5 87.5,59.5 91.5,59.5C 91.5,46.5 91.5,33.5 91.5,20.5C 87.5,20.5 83.5,20.5 79.5,20.5 Z"/></g>
<g><path style="opacity:1" fill="#cccccc" d="M 10.5,16.5 C 9.33539,141.43 9.16873,266.43 10,391.5C 11.3756,392.705 12.5423,394.038 13.5,395.5C 11.1856,394.318 8.85227,392.985 6.5,391.5C 7.83333,267.167 7.83333,142.833 6.5,18.5C 7.32025,16.8888 8.65358,16.2222 10.5,16.5 Z"/></g>
<g><path style="opacity:1" fill="#8d8d8d" d="M 11.5,19.5 C 13.8333,19.5 16.1667,19.5 18.5,19.5C 19.8333,142.833 19.8333,266.167 18.5,389.5C 18.8329,266.332 18.4995,143.332 17.5,20.5C 15.5,20.5 13.5,20.5 11.5,20.5C 11.5,143.167 11.5,265.833 11.5,388.5C 11.5,388.833 11.5,389.167 11.5,389.5C 10.1667,266.167 10.1667,142.833 11.5,19.5 Z"/></g>
<g><path style="opacity:1" fill="#eaeaea" d="M 17.5,20.5 C 18.4995,143.332 18.8329,266.332 18.5,389.5C 16.1667,389.5 13.8333,389.5 11.5,389.5C 11.5,389.167 11.5,388.833 11.5,388.5C 13.5,388.5 15.5,388.5 17.5,388.5C 17.5,265.833 17.5,143.167 17.5,20.5 Z"/></g>
<g><path style="opacity:1" fill="#fdfdfd" d="M 17.5,20.5 C 17.5,143.167 17.5,265.833 17.5,388.5C 15.5,388.5 13.5,388.5 11.5,388.5C 11.5,265.833 11.5,143.167 11.5,20.5C 13.5,20.5 15.5,20.5 17.5,20.5 Z"/></g>
<g><path style="opacity:1" fill="#bcbcbc" d="M 77.5,60.5 C 67.8333,60.5 58.1667,60.5 48.5,60.5C 48.5,57.8333 48.5,55.1667 48.5,52.5C 48.5,41.5 48.5,30.5 48.5,19.5C 58.1667,19.5 67.8333,19.5 77.5,19.5C 77.5,33.1667 77.5,46.8333 77.5,60.5 Z"/></g>
<g><path style="opacity:1" fill="#fefefe" d="M 49.5,20.5 C 58.5,20.5 67.5,20.5 76.5,20.5C 76.5,33.5 76.5,46.5 76.5,59.5C 67.5,59.5 58.5,59.5 49.5,59.5C 49.5,46.5 49.5,33.5 49.5,20.5 Z"/></g>
<g><path style="opacity:1" fill="#cecece" d="M 104.5,20.5 C 101.5,20.5 98.5,20.5 95.5,20.5C 95.829,34.3435 95.4957,48.0102 94.5,61.5C 94.5,47.5 94.5,33.5 94.5,19.5C 98.0419,19.1872 101.375,19.5206 104.5,20.5 Z"/></g>
<g><path style="opacity:1" fill="#111111" d="M 106.5,8.5 C 107.5,8.83333 108.167,9.5 108.5,10.5C 108.5,10.8333 108.5,11.1667 108.5,11.5C 106.692,12.9179 106.025,14.9179 106.5,17.5C 106.5,18.1667 106.5,18.8333 106.5,19.5C 106.5,142.833 106.5,266.167 106.5,389.5C 106.5,390.167 106.5,390.833 106.5,391.5C 106.592,398.855 108.592,399.188 112.5,392.5C 113.401,391.71 114.068,390.71 114.5,389.5C 115.833,266.167 115.833,142.833 114.5,19.5C 113.375,18.3478 113.375,17.3478 114.5,16.5C 115.117,16.6107 115.617,16.944 116,17.5C 116.667,142.167 116.667,266.833 116,391.5C 111.167,396.333 106.333,401.167 101.5,406C 76.1689,406.5 50.8355,406.667 25.5,406.5C 50.5,405.833 75.5,405.167 100.5,404.5C 101.5,402.833 102.833,401.5 104.5,400.5C 105.833,397.5 105.833,394.5 104.5,391.5C 104.5,390.833 104.5,390.167 104.5,389.5C 105.5,263.001 105.833,136.334 105.5,9.5C 105.5,8.83333 105.833,8.5 106.5,8.5 Z"/></g>
<g><path style="opacity:1" fill="#8c8c8c" d="M 106.5,19.5 C 109.167,19.5 111.833,19.5 114.5,19.5C 115.833,142.833 115.833,266.167 114.5,389.5C 114.5,266.5 114.5,143.5 114.5,20.5C 112.167,20.5 109.833,20.5 107.5,20.5C 107.5,143.5 107.5,266.5 107.5,389.5C 107.167,389.5 106.833,389.5 106.5,389.5C 106.5,266.167 106.5,142.833 106.5,19.5 Z"/></g>
<g><path style="opacity:1" fill="#fdfdfd" d="M 114.5,389.5 C 112.167,389.5 109.833,389.5 107.5,389.5C 107.5,266.5 107.5,143.5 107.5,20.5C 109.833,20.5 112.167,20.5 114.5,20.5C 114.5,143.5 114.5,266.5 114.5,389.5 Z"/></g>
<g><path style="opacity:1" fill="#505050" d="M 46.5,19.5 C 47.1667,30.5 47.8333,41.5 48.5,52.5C 48.5,55.1667 48.5,57.8333 48.5,60.5C 58.1667,60.5 67.8333,60.5 77.5,60.5C 80.9619,61.4816 84.6286,61.815 88.5,61.5C 88.2627,62.791 88.596,63.791 89.5,64.5C 80.7905,69.8421 71.7905,74.8421 62.5,79.5C 51.6177,74.2329 41.2843,68.2329 31.5,61.5C 31.5,58.5 31.5,55.5 31.5,52.5C 32.1667,42.8333 32.8333,33.1667 33.5,23.5C 33.5,35.5 33.5,47.5 33.5,59.5C 37.6344,60.4849 41.9677,60.8182 46.5,60.5C 46.5,46.8333 46.5,33.1667 46.5,19.5 Z"/></g>
<g><path style="opacity:1" fill="#d3d3d3" d="M 85.5,64.5 C 70.5,63.1667 55.5,63.1667 40.5,64.5C 39.2438,64.5386 38.2438,64.0386 37.5,63C 54.1767,62.1671 70.8433,62.3337 87.5,63.5C 87.0431,64.2975 86.3764,64.6309 85.5,64.5 Z"/></g>
<g><path style="opacity:1" fill="#f6f6f6" d="M 85.5,64.5 C 78.1081,69.0671 70.6081,73.4004 63,77.5C 55.3698,73.3648 47.8698,69.0315 40.5,64.5C 55.5,63.1667 70.5,63.1667 85.5,64.5 Z"/></g>
<g><path style="opacity:1" fill="#434343" d="M 21.5,389.5 C 49.1667,389.5 76.8333,389.5 104.5,389.5C 104.5,390.167 104.5,390.833 104.5,391.5C 76.8333,391.5 49.1667,391.5 21.5,391.5C 21.5,390.833 21.5,390.167 21.5,389.5 Z"/></g>
<g><path style="opacity:1" fill="#444444" d="M 106.5,389.5 C 106.833,389.5 107.167,389.5 107.5,389.5C 109.833,389.5 112.167,389.5 114.5,389.5C 114.068,390.71 113.401,391.71 112.5,392.5C 110.735,391.539 108.735,391.205 106.5,391.5C 106.5,390.833 106.5,390.167 106.5,389.5 Z"/></g>
<g><path style="opacity:1" fill="#bdbdbd" d="M 21.5,391.5 C 49.1667,391.5 76.8333,391.5 104.5,391.5C 105.833,394.5 105.833,397.5 104.5,400.5C 104.5,397.833 104.5,395.167 104.5,392.5C 76.8333,392.5 49.1667,392.5 21.5,392.5C 21.5,395.167 21.5,397.833 21.5,400.5C 20.1667,397.5 20.1667,394.5 21.5,391.5 Z"/></g>
<g><path style="opacity:1" fill="#c5c5c5" d="M 13.5,391.5 C 15.5,391.5 17.5,391.5 19.5,391.5C 19.7989,393.604 19.4656,395.604 18.5,397.5C 16.0623,396.069 14.3956,394.069 13.5,391.5 Z"/></g>
<g><path style="opacity:1" fill="#fcfcfc" d="M 104.5,400.5 C 102.833,401.5 101.5,402.833 100.5,404.5C 75.1645,404.667 49.8311,404.5 24.5,404C 23.2899,402.961 22.2899,401.794 21.5,400.5C 21.5,397.833 21.5,395.167 21.5,392.5C 49.1667,392.5 76.8333,392.5 104.5,392.5C 104.5,395.167 104.5,397.833 104.5,400.5 Z"/></g>
<g><path style="opacity:1" fill="#c7c7c7" d="M 106.5,391.5 C 108.735,391.205 110.735,391.539 112.5,392.5C 108.592,399.188 106.592,398.855 106.5,391.5 Z"/></g>
</svg>
