<?xml version="1.0" encoding="UTF-8"?>
<!DOCTYPE svg PUBLIC "-//W3C//DTD SVG 1.1//EN" "http://www.w3.org/Graphics/SVG/1.1/DTD/svg11.dtd">
<svg xmlns="http://www.w3.org/2000/svg" version="1.1" width="119px" height="418px" style="shape-rendering:geometricPrecision; text-rendering:geometricPrecision; image-rendering:optimizeQuality; fill-rule:evenodd; clip-rule:evenodd" xmlns:xlink="http://www.w3.org/1999/xlink">
<g><path style="opacity:1" fill="#fcfcfc" d="M -0.5,-0.5 C 39.1667,-0.5 78.8333,-0.5 118.5,-0.5C 118.5,138.833 118.5,278.167 118.5,417.5C 78.8333,417.5 39.1667,417.5 -0.5,417.5C -0.5,278.167 -0.5,138.833 -0.5,-0.5 Z"/></g>
<g><path style="opacity:1" fill="#e8e8e8" d="M 8.5,17.5 C 8.33333,136.5 8.5,255.5 9,374.5C 9.71719,375.044 10.2172,375.711 10.5,376.5C 8.05227,376.915 6.71893,375.915 6.5,373.5C 7.1629,254.687 7.82957,136.021 8.5,17.5 Z"/></g>
<g><path style="opacity:1" fill="#363636" d="M 111.5,374.5 C 110.167,374.5 108.833,374.5 107.5,374.5C 105.833,374.5 104.167,374.5 102.5,374.5C 101.833,374.5 101.167,374.5 100.5,374.5C 73.8333,374.5 47.1667,374.5 20.5,374.5C 19.9348,377.305 18.9348,379.972 17.5,382.5C 15.1667,380.5 12.8333,378.5 10.5,376.5C 10.2172,375.711 9.71719,375.044 9,374.5C 8.5,255.5 8.33333,136.5 8.5,17.5C 11.9641,14.5375 15.2975,11.3709 18.5,8C 46.5,7.33333 74.5,7.33333 102.5,8C 105.667,11.1667 108.833,14.3333 112,17.5C 112.833,136.667 112.666,255.667 111.5,374.5 Z"/></g>
<g><path style="opacity:1" fill="#e2e2e2" d="M 99.5,19.5 C 99.8333,19.5 100.167,19.5 100.5,19.5C 100.5,137.167 100.5,254.833 100.5,372.5C 73.6614,372.831 46.9948,372.498 20.5,371.5C 46.8333,371.5 73.1667,371.5 99.5,371.5C 99.5,254.167 99.5,136.833 99.5,19.5 Z"/></g>
<g><path style="opacity:1" fill="#b7b7b7" d="M 100.5,19.5 C 100.167,19.5 99.8333,19.5 99.5,19.5C 96.8333,19.5 94.1667,19.5 91.5,19.5C 92.1486,33.5409 91.4819,47.2076 89.5,60.5C 89.5,60.1667 89.5,59.8333 89.5,59.5C 90.4952,47.3446 90.8286,35.0113 90.5,22.5C 90.5,21.1667 90.5,19.8333 90.5,18.5C 94.0419,18.1872 97.3752,18.5206 100.5,19.5 Z"/></g>
<g><path style="opacity:1" fill="#a3a3a3" d="M 20.5,19.5 C 23.6248,18.5206 26.9581,18.1872 30.5,18.5C 30.5,32.1667 30.5,45.8333 30.5,59.5C 29.5044,46.3438 29.1711,33.0105 29.5,19.5C 26.5,19.5 23.5,19.5 20.5,19.5 Z"/></g>
<g><path style="opacity:1" fill="#bcbcbc" d="M 17.5,372.5 C 17.5,254.833 17.5,137.167 17.5,19.5C 15.5,19.5 13.5,19.5 11.5,19.5C 11.5,137.167 11.5,254.833 11.5,372.5C 10.5005,254.668 10.1671,136.668 10.5,18.5C 13.1667,18.5 15.8333,18.5 18.5,18.5C 18.8329,136.668 18.4995,254.668 17.5,372.5 Z"/></g>
<g><path style="opacity:1" fill="#929292" d="M 102.5,19.5 C 104.948,18.5269 107.615,18.1936 110.5,18.5C 110.5,136.833 110.5,255.167 110.5,373.5C 107.615,373.806 104.948,373.473 102.5,372.5C 104.833,372.5 107.167,372.5 109.5,372.5C 109.5,254.833 109.5,137.167 109.5,19.5C 107.167,19.5 104.833,19.5 102.5,19.5 Z"/></g>
<g><path style="opacity:1" fill="#f8f8f8" d="M 102.5,19.5 C 104.833,19.5 107.167,19.5 109.5,19.5C 109.5,137.167 109.5,254.833 109.5,372.5C 107.167,372.5 104.833,372.5 102.5,372.5C 102.5,254.833 102.5,137.167 102.5,19.5 Z"/></g>
<g><path style="opacity:1" fill="#fefefe" d="M 20.5,19.5 C 23.5,19.5 26.5,19.5 29.5,19.5C 29.1711,33.0105 29.5044,46.3438 30.5,59.5C 31.6715,60.3446 33.0048,61.0113 34.5,61.5C 42.8145,66.9945 51.4812,71.9945 60.5,76.5C 69.2319,71.4911 77.8985,66.4911 86.5,61.5C 87.391,60.8902 88.391,60.5569 89.5,60.5C 91.4819,47.2076 92.1486,33.5409 91.5,19.5C 94.1667,19.5 96.8333,19.5 99.5,19.5C 99.5,136.833 99.5,254.167 99.5,371.5C 73.1667,371.5 46.8333,371.5 20.5,371.5C 20.5,254.167 20.5,136.833 20.5,19.5 Z"/></g>
<g><path style="opacity:1" fill="#fbfbfb" d="M 88.5,19.5 C 88.5,32.1667 88.5,44.8333 88.5,57.5C 84.5,57.5 80.5,57.5 76.5,57.5C 76.5,44.8333 76.5,32.1667 76.5,19.5C 80.5,19.5 84.5,19.5 88.5,19.5 Z"/></g>
<g><path style="opacity:1" fill="#fafafa" d="M 32.5,19.5 C 36.5,19.5 40.5,19.5 44.5,19.5C 44.5,32.1667 44.5,44.8333 44.5,57.5C 40.5,57.5 36.5,57.5 32.5,57.5C 32.5,44.8333 32.5,32.1667 32.5,19.5 Z"/></g>
<g><path style="opacity:1" fill="#fdfdfd" d="M 17.5,372.5 C 15.5,372.5 13.5,372.5 11.5,372.5C 11.5,254.833 11.5,137.167 11.5,19.5C 13.5,19.5 15.5,19.5 17.5,19.5C 17.5,137.167 17.5,254.833 17.5,372.5 Z"/></g>
<g><path style="opacity:1" fill="#9f9f9f" d="M 91.5,9.5 C 91.5,11.8333 91.5,14.1667 91.5,16.5C 94.5,16.5 97.5,16.5 100.5,16.5C 97.3752,17.4794 94.0419,17.8128 90.5,17.5C 90.1936,14.6146 90.5269,11.9479 91.5,9.5 Z"/></g>
<g><path style="opacity:1" fill="#909090" d="M 77.5,11.5 C 76.5489,12.9187 76.2155,14.5853 76.5,16.5C 80.5,16.5 84.5,16.5 88.5,16.5C 84.3656,17.4849 80.0323,17.8182 75.5,17.5C 75.1924,15.076 75.5258,12.7427 76.5,10.5C 77.1067,10.6236 77.44,10.9569 77.5,11.5 Z"/></g>
<g><path style="opacity:1" fill="#979797" d="M 47.5,10.5 C 47.5,12.5 47.5,14.5 47.5,16.5C 56.1667,16.5 64.8333,16.5 73.5,16.5C 64.6822,17.4933 55.6822,17.8266 46.5,17.5C 46.1984,14.9407 46.5318,12.6074 47.5,10.5 Z"/></g>
<g><path style="opacity:1" fill="#838383" d="M 20.5,9.5 C 23.6248,8.52056 26.9581,8.18723 30.5,8.5C 30.5,11.5 30.5,14.5 30.5,17.5C 26.9581,17.8128 23.6248,17.4794 20.5,16.5C 23.5,16.5 26.5,16.5 29.5,16.5C 29.5,14.1667 29.5,11.8333 29.5,9.5C 26.5,9.5 23.5,9.5 20.5,9.5 Z"/></g>
<g><path style="opacity:1" fill="#999999" d="M 16.5,12.5 C 16.56,11.9569 16.8933,11.6236 17.5,11.5C 18.4656,13.396 18.7989,15.396 18.5,17.5C 16.396,17.7989 14.396,17.4656 12.5,16.5C 12.6236,15.8933 12.9569,15.56 13.5,15.5C 14.5676,16.4345 15.901,16.7678 17.5,16.5C 17.7678,14.901 17.4345,13.5676 16.5,12.5 Z"/></g>
<g><path style="opacity:1" fill="#efefef" d="M 16.5,12.5 C 17.4345,13.5676 17.7678,14.901 17.5,16.5C 15.901,16.7678 14.5676,16.4345 13.5,15.5C 14.8333,14.8333 15.8333,13.8333 16.5,12.5 Z"/></g>
<g><path style="opacity:1" fill="#cfcfcf" d="M 102.5,11.5 C 104.63,13.1271 106.63,14.9604 108.5,17C 106.527,17.4955 104.527,17.6621 102.5,17.5C 102.5,15.5 102.5,13.5 102.5,11.5 Z"/></g>
<g><path style="opacity:1" fill="#f0f0f0" d="M 77.5,11.5 C 80.8471,13.9526 84.1804,13.9526 87.5,11.5C 88.4519,13.0453 88.7852,14.712 88.5,16.5C 84.5,16.5 80.5,16.5 76.5,16.5C 76.2155,14.5853 76.5489,12.9187 77.5,11.5 Z"/></g>
<g><path style="opacity:1" fill="#868686" d="M 71.5,10.5 C 72.209,9.59603 73.209,9.26269 74.5,9.5C 74.8016,12.0593 74.4682,14.3926 73.5,16.5C 73.9746,13.9179 73.3079,11.9179 71.5,10.5 Z"/></g>
<g><path style="opacity:1" fill="#4b4b4b" d="M 71.5,10.5 C 64.1493,14.4094 56.816,14.4094 49.5,10.5C 56.8333,7.83333 64.1667,7.83333 71.5,10.5 Z"/></g>
<g><path style="opacity:1" fill="#555555" d="M 49.5,10.5 C 48.8333,10.5 48.1667,10.5 47.5,10.5C 46.5318,12.6074 46.1984,14.9407 46.5,17.5C 41.6367,17.8195 36.97,17.4861 32.5,16.5C 31.0209,13.8569 31.3542,11.3569 33.5,9C 39.0772,8.25832 44.4105,8.75832 49.5,10.5 Z"/></g>
<g><path style="opacity:1" fill="#f1f1f1" d="M 32.5,16.5 C 32.2148,14.712 32.5481,13.0453 33.5,11.5C 36.8333,14.1667 40.1667,14.1667 43.5,11.5C 44.4519,13.0453 44.7852,14.712 44.5,16.5C 40.5,16.5 36.5,16.5 32.5,16.5 Z"/></g>
<g><path style="opacity:1" fill="#b9b9b9" d="M 78.5,9.5 C 81.0593,9.19845 83.3926,9.53178 85.5,10.5C 82.8752,11.9239 80.5419,11.5906 78.5,9.5 Z"/></g>
<g><path style="opacity:1" fill="#f4f4f4" d="M 47.5,10.5 C 48.1667,10.5 48.8333,10.5 49.5,10.5C 56.816,14.4094 64.1493,14.4094 71.5,10.5C 73.3079,11.9179 73.9746,13.9179 73.5,16.5C 64.8333,16.5 56.1667,16.5 47.5,16.5C 47.5,14.5 47.5,12.5 47.5,10.5 Z"/></g>
<g><path style="opacity:1" fill="#b4b4b4" d="M 52.5,10.5 C 57.6503,9.34926 62.9836,9.18259 68.5,10C 63.2196,11.828 57.8862,11.9946 52.5,10.5 Z"/></g>
<g><path style="opacity:1" fill="#bbbbbb" d="M 34.5,10.5 C 36.6282,9.37086 38.9615,9.20419 41.5,10C 39.3332,11.7229 36.9998,11.8896 34.5,10.5 Z"/></g>
<g><path style="opacity:1" fill="#f9f9f9" d="M 91.5,9.5 C 94.5,9.5 97.5,9.5 100.5,9.5C 100.5,11.8333 100.5,14.1667 100.5,16.5C 97.5,16.5 94.5,16.5 91.5,16.5C 91.5,14.1667 91.5,11.8333 91.5,9.5 Z"/></g>
<g><path style="opacity:1" fill="#fafafa" d="M 20.5,9.5 C 23.5,9.5 26.5,9.5 29.5,9.5C 29.5,11.8333 29.5,14.1667 29.5,16.5C 26.5,16.5 23.5,16.5 20.5,16.5C 20.5,14.1667 20.5,11.8333 20.5,9.5 Z"/></g>
<g><path style="opacity:1" fill="#5b5b5b" d="M 78.5,9.5 C 81.0241,8.19966 83.6908,8.19966 86.5,9.5C 86.3764,10.1067 86.0431,10.44 85.5,10.5C 83.3926,9.53178 81.0593,9.19845 78.5,9.5 Z"/></g>
<g><path style="opacity:1" fill="#353535" d="M 100.5,19.5 C 101.167,19.5 101.833,19.5 102.5,19.5C 102.5,137.167 102.5,254.833 102.5,372.5C 101.833,372.5 101.167,372.5 100.5,372.5C 100.5,254.833 100.5,137.167 100.5,19.5 Z"/></g>
<g><path style="opacity:1" fill="#404040" d="M 88.5,19.5 C 89.1667,20.5 89.8333,21.5 90.5,22.5C 90.8286,35.0113 90.4952,47.3446 89.5,59.5C 89.1667,58.8333 88.8333,58.1667 88.5,57.5C 88.5,44.8333 88.5,32.1667 88.5,19.5 Z"/></g>
<g><path style="opacity:1" fill="#585858" d="M 32.5,19.5 C 36.97,18.5139 41.6367,18.1805 46.5,18.5C 46.1712,31.6774 46.5045,44.6774 47.5,57.5C 56.1667,57.5 64.8333,57.5 73.5,57.5C 73.5,44.8333 73.5,32.1667 73.5,19.5C 73.5,19.1667 73.5,18.8333 73.5,18.5C 78.6946,18.1795 83.6946,18.5128 88.5,19.5C 84.5,19.5 80.5,19.5 76.5,19.5C 76.5,32.1667 76.5,44.8333 76.5,57.5C 80.5,57.5 84.5,57.5 88.5,57.5C 88.8333,58.1667 89.1667,58.8333 89.5,59.5C 89.5,59.8333 89.5,60.1667 89.5,60.5C 88.391,60.5569 87.391,60.8902 86.5,61.5C 85.8333,60.8333 85.1667,60.1667 84.5,59.5C 68.5,59.5 52.5,59.5 36.5,59.5C 35.8333,60.1667 35.1667,60.8333 34.5,61.5C 33.0048,61.0113 31.6715,60.3446 30.5,59.5C 32.9935,59.8693 33.6602,59.2027 32.5,57.5C 36.5,57.5 40.5,57.5 44.5,57.5C 44.5,44.8333 44.5,32.1667 44.5,19.5C 40.5,19.5 36.5,19.5 32.5,19.5 Z"/></g>
<g><path style="opacity:1" fill="#a0a0a0" d="M 46.5,18.5 C 55.5,18.5 64.5,18.5 73.5,18.5C 73.5,18.8333 73.5,19.1667 73.5,19.5C 64.8333,19.5 56.1667,19.5 47.5,19.5C 47.5,32.1667 47.5,44.8333 47.5,57.5C 46.5045,44.6774 46.1712,31.6774 46.5,18.5 Z"/></g>
<g><path style="opacity:1" fill="#fdfdfd" d="M 73.5,19.5 C 73.5,32.1667 73.5,44.8333 73.5,57.5C 64.8333,57.5 56.1667,57.5 47.5,57.5C 47.5,44.8333 47.5,32.1667 47.5,19.5C 56.1667,19.5 64.8333,19.5 73.5,19.5 Z"/></g>
<g><path style="opacity:1" fill="#494949" d="M 36.5,59.5 C 36.3284,60.4916 36.6618,61.1583 37.5,61.5C 45.2278,65.6399 52.8944,69.9733 60.5,74.5C 68.0591,69.8895 75.7258,65.5562 83.5,61.5C 84.3382,61.1583 84.6716,60.4916 84.5,59.5C 85.1667,60.1667 85.8333,60.8333 86.5,61.5C 77.8985,66.4911 69.2319,71.4911 60.5,76.5C 51.4812,71.9945 42.8145,66.9945 34.5,61.5C 35.1667,60.8333 35.8333,60.1667 36.5,59.5 Z"/></g>
<g><path style="opacity:1" fill="#f6f6f6" d="M 37.5,61.5 C 52.8333,60.1667 68.1667,60.1667 83.5,61.5C 75.7258,65.5562 68.0591,69.8895 60.5,74.5C 52.8944,69.9733 45.2278,65.6399 37.5,61.5 Z"/></g>
<g><path style="opacity:1" fill="#a4a4a4" d="M 36.5,59.5 C 52.5,59.5 68.5,59.5 84.5,59.5C 84.6716,60.4916 84.3382,61.1583 83.5,61.5C 68.1667,60.1667 52.8333,60.1667 37.5,61.5C 36.6618,61.1583 36.3284,60.4916 36.5,59.5 Z"/></g>
<g><path style="opacity:1" fill="#ededed" d="M 13.5,376.5 C 14.5676,375.566 15.901,375.232 17.5,375.5C 17.7373,376.791 17.404,377.791 16.5,378.5C 15.5,377.833 14.5,377.167 13.5,376.5 Z"/></g>
<g><path style="opacity:1" fill="#a3a3a3" d="M 16.5,378.5 C 17.404,377.791 17.7373,376.791 17.5,375.5C 15.901,375.232 14.5676,375.566 13.5,376.5C 12.9569,376.44 12.6236,376.107 12.5,375.5C 14.396,374.534 16.396,374.201 18.5,374.5C 18.7989,376.604 18.4656,378.604 17.5,380.5C 16.7025,380.043 16.3691,379.376 16.5,378.5 Z"/></g>
<g><path style="opacity:1" fill="#3c3c3c" d="M 20.5,374.5 C 20.3354,377.518 20.502,380.518 21,383.5C 29.5,392 38,400.5 46.5,409C 55.8333,409.667 65.1667,409.667 74.5,409C 83,400.5 91.5,392 100,383.5C 100.498,380.518 100.665,377.518 100.5,374.5C 101.167,374.5 101.833,374.5 102.5,374.5C 102.338,376.527 102.505,378.527 103,380.5C 105.127,378.886 106.627,376.886 107.5,374.5C 108.833,374.5 110.167,374.5 111.5,374.5C 99.7292,386.772 87.7292,398.938 75.5,411C 65.5,411.667 55.5,411.667 45.5,411C 35.9644,401.632 26.6311,392.132 17.5,382.5C 18.9348,379.972 19.9348,377.305 20.5,374.5 Z"/></g>
<g><path style="opacity:1" fill="#d8d8d8" d="M 102.5,374.5 C 104.167,374.5 105.833,374.5 107.5,374.5C 106.627,376.886 105.127,378.886 103,380.5C 102.505,378.527 102.338,376.527 102.5,374.5 Z"/></g>
<g><path style="opacity:1" fill="#f7f7f7" d="M 20.5,374.5 C 47.1667,374.5 73.8333,374.5 100.5,374.5C 100.665,377.518 100.498,380.518 100,383.5C 91.5,392 83,400.5 74.5,409C 65.1667,409.667 55.8333,409.667 46.5,409C 38,400.5 29.5,392 21,383.5C 20.502,380.518 20.3354,377.518 20.5,374.5 Z"/></g>
</svg>
