<?xml version="1.0" encoding="UTF-8"?>
<!DOCTYPE svg PUBLIC "-//W3C//DTD SVG 1.1//EN" "http://www.w3.org/Graphics/SVG/1.1/DTD/svg11.dtd">
<svg xmlns="http://www.w3.org/2000/svg" version="1.1" width="918px" height="169px" style="shape-rendering:geometricPrecision; text-rendering:geometricPrecision; image-rendering:optimizeQuality; fill-rule:evenodd; clip-rule:evenodd" xmlns:xlink="http://www.w3.org/1999/xlink">
<g><path style="opacity:1" fill="#fdfdfd" d="M -0.5,-0.5 C 305.5,-0.5 611.5,-0.5 917.5,-0.5C 917.5,55.8333 917.5,112.167 917.5,168.5C 611.5,168.5 305.5,168.5 -0.5,168.5C -0.5,112.167 -0.5,55.8333 -0.5,-0.5 Z"/></g>
<g><path style="opacity:1" fill="#252424" d="M 801.5,149.5 C 798.072,149.453 795.072,148.287 792.5,146C 766.444,125.17 756.611,98.3369 763,65.5C 776.482,27.0385 803.648,8.87184 844.5,11C 875.653,16.1487 896.486,33.6487 907,63.5C 914.53,100.738 903.363,129.238 873.5,149C 852.309,160.946 830.309,162.613 807.5,154C 805.253,152.723 803.253,151.223 801.5,149.5 Z"/></g>
<g><path style="opacity:1" fill="#fafafa" d="M 801.5,149.5 C 769.78,129.866 757.78,101.699 765.5,65C 774.928,36.6191 794.262,19.2858 823.5,13C 865.644,9.97394 893.144,28.4739 906,68.5C 911.407,104.099 899.573,130.599 870.5,148C 847.806,160.117 824.806,160.617 801.5,149.5 Z"/></g>
<g><path style="opacity:1" fill="#fefefe" d="M 590.5,64.5 C 590.5,78.1667 590.5,91.8333 590.5,105.5C 578.167,118.5 565.5,131.167 552.5,143.5C 548.5,143.5 544.5,143.5 540.5,143.5C 540.5,104.167 540.5,64.8333 540.5,25.5C 544.514,25.3345 548.514,25.5012 552.5,26C 565.369,38.7015 578.035,51.5348 590.5,64.5 Z"/></g>
<g><path style="opacity:1" fill="#868686" d="M 825.5,25.5 C 832.722,24.1371 840.055,24.3038 847.5,26C 840.842,26.4996 834.175,26.6663 827.5,26.5C 827.158,25.6618 826.492,25.3284 825.5,25.5 Z"/></g>
<g><path style="opacity:1" fill="#515151" d="M 825.5,25.5 C 826.492,25.3284 827.158,25.6618 827.5,26.5C 823.462,26.9578 819.462,27.6245 815.5,28.5C 818.452,26.5902 821.786,25.5902 825.5,25.5 Z"/></g>
<g><path style="opacity:1" fill="#5a5a5a" d="M 815.5,28.5 C 814.201,30.0986 812.535,30.5986 810.5,30C 812.025,28.9914 813.692,28.4914 815.5,28.5 Z"/></g>
<g><path style="opacity:1" fill="#535353" d="M 848.5,27.5 C 858.759,28.2865 867.759,32.4532 875.5,40C 869.681,36.7475 863.681,33.4141 857.5,30C 854.568,28.8551 851.568,28.0218 848.5,27.5 Z"/></g>
<g><path style="opacity:1" fill="#565656" d="M 795.5,40.5 C 798.255,36.4705 801.922,33.9705 806.5,33C 802.776,35.52 799.109,38.02 795.5,40.5 Z"/></g>
<g><path style="opacity:1" fill="#484848" d="M 795.5,40.5 C 794.167,42.5 792.5,44.1667 790.5,45.5C 791.167,42.8333 792.833,41.1667 795.5,40.5 Z"/></g>
<g><path style="opacity:1" fill="#595959" d="M 885.5,52.5 C 883.299,49.9786 880.966,47.4786 878.5,45C 882.263,45.9349 884.596,48.4349 885.5,52.5 Z"/></g>
<g><path style="opacity:1" fill="#252423" d="M 846.5,126.5 C 840.559,127.413 834.559,127.746 828.5,127.5C 816.246,125.403 806.413,119.403 799,109.5C 788.057,92.1645 789.057,74.4978 802,56.5C 818.759,39.8464 837.593,37.0131 858.5,48C 874.185,59.2052 880.685,74.3718 878,93.5C 875.99,99.5141 873.99,105.514 872,111.5C 871.667,110.833 871.333,110.167 871,109.5C 867.786,114.382 863.619,118.215 858.5,121C 857.5,121.667 856.5,121.667 855.5,121C 860.616,118.375 864.282,114.875 866.5,110.5C 858.167,115.333 849.833,120.167 841.5,125C 842.167,125.167 842.833,125.333 843.5,125.5C 846.848,124.32 850.182,123.487 853.5,123C 851.423,124.705 849.09,125.872 846.5,126.5 Z"/></g>
<g><path style="opacity:1" fill="#eae9e8" d="M 823.5,44.5 C 825.199,44.3398 826.866,44.5065 828.5,45C 820.251,49.7074 812.084,54.5407 804,59.5C 804.546,56.9067 806.046,54.7401 808.5,53C 813.27,49.619 818.27,46.7857 823.5,44.5 Z"/></g>
<g><path style="opacity:1" fill="#fdfdfd" d="M 834.5,43.5 C 846.275,49.8901 857.941,56.5567 869.5,63.5C 870.833,77.8333 870.833,92.1667 869.5,106.5C 858.143,112.872 846.81,119.205 835.5,125.5C 823.306,119.472 811.473,112.806 800,105.5C 799.167,91.4881 799.334,77.4881 800.5,63.5C 812.133,57.1692 823.466,50.5026 834.5,43.5 Z"/></g>
<g><path style="opacity:1" fill="#e7e7e5" d="M 840.5,44.5 C 850.959,44.8997 859.625,49.3997 866.5,58C 857.513,54.3383 848.847,49.8383 840.5,44.5 Z"/></g>
<g><path style="opacity:1" fill="#545454" d="M 790.5,45.5 C 789.92,47.7488 788.587,49.4154 786.5,50.5C 787.08,48.2512 788.413,46.5846 790.5,45.5 Z"/></g>
<g><path style="opacity:1" fill="#555555" d="M 786.5,50.5 C 786.573,52.0269 785.906,53.0269 784.5,53.5C 784.427,51.9731 785.094,50.9731 786.5,50.5 Z"/></g>
<g><path style="opacity:1" fill="#535353" d="M 784.5,53.5 C 783.341,57.1513 781.674,60.4846 779.5,63.5C 780.127,59.5799 781.793,56.2466 784.5,53.5 Z"/></g>
<g><path style="opacity:1" fill="#4f4f4f" d="M 779.5,63.5 C 777.699,70.0429 776.532,76.7095 776,83.5C 774.938,76.3237 776.105,69.657 779.5,63.5 Z"/></g>
<g><path style="opacity:1" fill="#c0c0bf" d="M 590.5,64.5 C 591.167,77.8333 591.833,91.1667 592.5,104.5C 592.672,105.492 592.338,106.158 591.5,106.5C 591.5,105.833 591.167,105.5 590.5,105.5C 590.5,91.8333 590.5,78.1667 590.5,64.5 Z"/></g>
<g><path style="opacity:1" fill="#212120" d="M 592.5,104.5 C 591.833,91.1667 591.167,77.8333 590.5,64.5C 578.035,51.5348 565.369,38.7015 552.5,26C 548.514,25.5012 544.514,25.3345 540.5,25.5C 540.5,64.8333 540.5,104.167 540.5,143.5C 540.5,144.167 540.5,144.833 540.5,145.5C 540.335,148.85 540.502,152.183 541,155.5C 544.371,152.297 547.538,148.964 550.5,145.5C 551.5,145.167 552.167,144.5 552.5,143.5C 565.5,131.167 578.167,118.5 590.5,105.5C 591.167,105.5 591.5,105.833 591.5,106.5C 575.399,124.102 558.733,141.269 541.5,158C 541.833,158.333 542.167,158.667 542.5,159C 389.834,159.5 237.167,159.667 84.5,159.5C 84.3893,158.883 84.056,158.383 83.5,158C 235.334,157.833 387.001,157.333 538.5,156.5C 538.5,152.833 538.5,149.167 538.5,145.5C 538.5,144.833 538.5,144.167 538.5,143.5C 538.5,104.167 538.5,64.8333 538.5,25.5C 367.167,25.5 195.833,25.5 24.5,25.5C 24.5,64.8333 24.5,104.167 24.5,143.5C 24.5,144.167 24.5,144.833 24.5,145.5C 24.5,149.167 24.5,152.833 24.5,156.5C 43.6623,157.332 62.9957,157.832 82.5,158C 81.5842,158.278 80.9175,158.778 80.5,159.5C 61.1638,159.667 41.8305,159.5 22.5,159C 18,154.5 13.5,150 9,145.5C 8.33333,105.167 8.33333,64.8333 9,24.5C 13.5,20 18,15.5 22.5,11C 195.833,10.3333 369.167,10.3333 542.5,11C 542.167,11.3333 541.833,11.6667 541.5,12C 558.333,28.8333 575.167,45.6667 592,62.5C 593.7,76.5006 593.867,90.5006 592.5,104.5 Z"/></g>
<g><path style="opacity:1" fill="#f4f4f4" d="M 10.5,25.5 C 14.5,25.5 18.5,25.5 22.5,25.5C 23.1527,52.56 22.486,79.3933 20.5,106C 21.7864,109.233 22.453,112.733 22.5,116.5C 22.453,120.267 21.7864,123.767 20.5,127C 22.4202,132.197 23.0868,137.697 22.5,143.5C 18.5,143.5 14.5,143.5 10.5,143.5C 10.5,138.167 10.5,132.833 10.5,127.5C 13.5983,127.587 13.9316,127.087 11.5,126C 11.8333,125.667 12.1667,125.333 12.5,125C 10.5745,119.464 9.90785,113.631 10.5,107.5C 11.2625,106.732 12.2625,106.232 13.5,106C 12.2625,105.768 11.2625,105.268 10.5,104.5C 10.5022,91.4618 10.5022,78.4618 10.5,65.5C 10.5,65.1667 10.5,64.8333 10.5,64.5C 13.7181,64.3491 14.0515,63.5158 11.5,62C 11.8333,61.6667 12.1667,61.3333 12.5,61C 10.5745,55.4642 9.90785,49.6309 10.5,43.5C 14.5,42.8333 14.5,42.1667 10.5,41.5C 10.5,36.1667 10.5,30.8333 10.5,25.5 Z"/></g>
<g><path style="opacity:1" fill="#545253" d="M 11.5,68.5 C 12.8478,69.5268 13.3478,70.8602 13,72.5C 11.8118,71.4366 11.3118,70.1033 11.5,68.5 Z"/></g>
<g><path style="opacity:1" fill="#8f8f8f" d="M 14.5,62.5 C 16.4286,62.2308 18.0953,62.7308 19.5,64C 18.6667,64.1667 17.8333,64.3333 17,64.5C 15.6244,64.3158 14.7911,63.6491 14.5,62.5 Z"/></g>
<g><path style="opacity:1" fill="#656462" d="M 13.5,55.5 C 14.3764,55.3691 15.0431,55.7025 15.5,56.5C 12.7087,60.5888 12.0421,60.2554 13.5,55.5 Z"/></g>
<g><path style="opacity:1" fill="#5a5957" d="M 10.5,43.5 C 9.90785,49.6309 10.5745,55.4642 12.5,61C 12.1667,61.3333 11.8333,61.6667 11.5,62C 14.0515,63.5158 13.7181,64.3491 10.5,64.5C 9.22326,57.3709 9.22326,50.3709 10.5,43.5 Z"/></g>
<g><path style="opacity:1" fill="#555554" d="M 11.5,44.5 C 12.8366,45.3149 13.8366,46.4815 14.5,48C 12.5216,47.967 11.5216,46.8004 11.5,44.5 Z"/></g>
<g><path style="opacity:1" fill="#8f8f8f" d="M 14.5,41.5 C 15.9778,41.238 17.3112,41.5713 18.5,42.5C 17.8333,42.8333 17.1667,43.1667 16.5,43.5C 15.2867,43.2528 14.62,42.5862 14.5,41.5 Z"/></g>
<g><path style="opacity:1" fill="#585858" d="M 10.5,25.5 C 10.5,30.8333 10.5,36.1667 10.5,41.5C 14.5,42.1667 14.5,42.8333 10.5,43.5C 9.19426,37.4008 9.19426,31.4008 10.5,25.5 Z"/></g>
<g><path style="opacity:1" fill="#fefefe" d="M 538.5,143.5 C 367.124,143.588 195.791,143.588 24.5,143.5C 24.5,104.167 24.5,64.8333 24.5,25.5C 195.833,25.5 367.167,25.5 538.5,25.5C 538.5,64.8333 538.5,104.167 538.5,143.5 Z"/></g>
<g><path style="opacity:1" fill="#464646" d="M 96.5,66.5 C 98.0847,67.0024 98.5847,68.0024 98,69.5C 96.9614,68.7562 96.4614,67.7562 96.5,66.5 Z"/></g>
<g><path style="opacity:1" fill="#616161" d="M 93.5,61.5 C 95.4459,62.2544 96.2793,63.5878 96,65.5C 94.5187,64.5291 93.6854,63.1958 93.5,61.5 Z"/></g>
<g><path style="opacity:1" fill="#959595" d="M 72.5,62.5 C 74.288,62.2148 75.9547,62.5481 77.5,63.5C 76.6667,63.8333 75.8333,64.1667 75,64.5C 73.6244,64.3158 72.7911,63.6491 72.5,62.5 Z"/></g>
<g><path style="opacity:1" fill="#8a8a8a" d="M 67.5,62.5 C 68.9778,62.238 70.3112,62.5713 71.5,63.5C 70.8333,63.8333 70.1667,64.1667 69.5,64.5C 68.2867,64.2528 67.62,63.5862 67.5,62.5 Z"/></g>
<g><path style="opacity:1" fill="#888888" d="M 61.5,62.5 C 62.9778,62.238 64.3112,62.5713 65.5,63.5C 64.8333,63.8333 64.1667,64.1667 63.5,64.5C 62.2867,64.2528 61.62,63.5862 61.5,62.5 Z"/></g>
<g><path style="opacity:1" fill="#909090" d="M 43.5,62.5 C 45.4286,62.2308 47.0953,62.7308 48.5,64C 47.6667,64.1667 46.8333,64.3333 46,64.5C 44.6244,64.3158 43.7911,63.6491 43.5,62.5 Z"/></g>
<g><path style="opacity:1" fill="#878787" d="M 32.5,62.5 C 33.9778,62.238 35.3112,62.5713 36.5,63.5C 35.8333,63.8333 35.1667,64.1667 34.5,64.5C 33.2867,64.2528 32.62,63.5862 32.5,62.5 Z"/></g>
<g><path style="opacity:1" fill="#888888" d="M 26.5,62.5 C 27.9778,62.238 29.3112,62.5713 30.5,63.5C 29.8333,63.8333 29.1667,64.1667 28.5,64.5C 27.2867,64.2528 26.62,63.5862 26.5,62.5 Z"/></g>
<g><path style="opacity:1" fill="#777777" d="M 82.5,59.5 C 84.2868,63.7142 82.9534,65.0475 78.5,63.5C 79.6888,62.5713 81.0222,62.238 82.5,62.5C 82.5,61.5 82.5,60.5 82.5,59.5 Z"/></g>
<g><path style="opacity:1" fill="#868686" d="M 55.5,62.5 C 56.9778,62.238 58.3112,62.5713 59.5,63.5C 58.8333,63.8333 58.1667,64.1667 57.5,64.5C 56.2867,64.2528 55.62,63.5862 55.5,62.5 Z"/></g>
<g><path style="opacity:1" fill="#8a8a8a" d="M 49.5,62.5 C 50.9778,62.238 52.3112,62.5713 53.5,63.5C 52.8333,63.8333 52.1667,64.1667 51.5,64.5C 50.2867,64.2528 49.62,63.5862 49.5,62.5 Z"/></g>
<g><path style="opacity:1" fill="#8a8a8a" d="M 38.5,62.5 C 39.9778,62.238 41.3112,62.5713 42.5,63.5C 41.8333,63.8333 41.1667,64.1667 40.5,64.5C 39.2867,64.2528 38.62,63.5862 38.5,62.5 Z"/></g>
<g><path style="opacity:1" fill="#616161" d="M 90.5,57.5 C 91.0768,56.2267 91.7435,56.2267 92.5,57.5C 93.3256,58.451 93.4922,59.451 93,60.5C 92.1482,59.4293 91.3149,58.4293 90.5,57.5 Z"/></g>
<g><path style="opacity:1" fill="#676767" d="M 87.5,52.5 C 88.0768,51.2267 88.7435,51.2267 89.5,52.5C 90.3256,53.451 90.4922,54.451 90,55.5C 89.1482,54.4293 88.3149,53.4293 87.5,52.5 Z"/></g>
<g><path style="opacity:1" fill="#a1a1a1" d="M 82.5,47.5 C 83.1135,50.8601 83.1135,54.1935 82.5,57.5C 81.2495,54.1259 81.2495,50.7926 82.5,47.5 Z"/></g>
<g><path style="opacity:1" fill="#616161" d="M 84.5,47.5 C 85.0768,46.2267 85.7435,46.2267 86.5,47.5C 87.3256,48.451 87.4922,49.451 87,50.5C 86.1482,49.4293 85.3149,48.4293 84.5,47.5 Z"/></g>
<g><path style="opacity:1" fill="#949494" d="M 72.5,41.5 C 74.288,41.2148 75.9547,41.5481 77.5,42.5C 76.6667,42.8333 75.8333,43.1667 75,43.5C 73.6244,43.3158 72.7911,42.6491 72.5,41.5 Z"/></g>
<g><path style="opacity:1" fill="#8c8c8c" d="M 49.5,41.5 C 50.9778,41.238 52.3112,41.5713 53.5,42.5C 52.8333,42.8333 52.1667,43.1667 51.5,43.5C 50.2867,43.2528 49.62,42.5862 49.5,41.5 Z"/></g>
<g><path style="opacity:1" fill="#808080" d="M 78.5,41.5 C 80.288,41.2148 81.9547,41.5481 83.5,42.5C 84.9108,44.0175 84.7441,45.3508 83,46.5C 81.4084,44.7982 79.9084,43.1316 78.5,41.5 Z"/></g>
<g><path style="opacity:1" fill="#8b8b8b" d="M 67.5,41.5 C 68.9778,41.238 70.3112,41.5713 71.5,42.5C 70.8333,42.8333 70.1667,43.1667 69.5,43.5C 68.2867,43.2528 67.62,42.5862 67.5,41.5 Z"/></g>
<g><path style="opacity:1" fill="#898989" d="M 61.5,41.5 C 62.9778,41.238 64.3112,41.5713 65.5,42.5C 64.8333,42.8333 64.1667,43.1667 63.5,43.5C 62.2867,43.2528 61.62,42.5862 61.5,41.5 Z"/></g>
<g><path style="opacity:1" fill="#878787" d="M 55.5,41.5 C 56.9778,41.238 58.3112,41.5713 59.5,42.5C 58.8333,42.8333 58.1667,43.1667 57.5,43.5C 56.2867,43.2528 55.62,42.5862 55.5,41.5 Z"/></g>
<g><path style="opacity:1" fill="#979797" d="M 43.5,41.5 C 45.288,41.2148 46.9547,41.5481 48.5,42.5C 47.6667,42.8333 46.8333,43.1667 46,43.5C 44.6244,43.3158 43.7911,42.6491 43.5,41.5 Z"/></g>
<g><path style="opacity:1" fill="#8b8b8b" d="M 38.5,41.5 C 39.9778,41.238 41.3112,41.5713 42.5,42.5C 41.8333,42.8333 41.1667,43.1667 40.5,43.5C 39.2867,43.2528 38.62,42.5862 38.5,41.5 Z"/></g>
<g><path style="opacity:1" fill="#878787" d="M 32.5,41.5 C 33.9778,41.238 35.3112,41.5713 36.5,42.5C 35.8333,42.8333 35.1667,43.1667 34.5,43.5C 33.2867,43.2528 32.62,42.5862 32.5,41.5 Z"/></g>
<g><path style="opacity:1" fill="#878787" d="M 26.5,41.5 C 27.9778,41.238 29.3112,41.5713 30.5,42.5C 29.8333,42.8333 29.1667,43.1667 28.5,43.5C 27.2867,43.2528 26.62,42.5862 26.5,41.5 Z"/></g>
<g><path style="opacity:1" fill="#fafafa" d="M 540.5,14.5 C 543.964,17.4625 547.297,20.6291 550.5,24C 547.183,24.4983 543.85,24.665 540.5,24.5C 540.5,21.1667 540.5,17.8333 540.5,14.5 Z"/></g>
<g><path style="opacity:1" fill="#f9f9f9" d="M 21.5,14.5 C 22.4794,17.6248 22.8128,20.9581 22.5,24.5C 19.1501,24.665 15.8168,24.4983 12.5,24C 15.7044,20.9641 18.7044,17.7974 21.5,14.5 Z"/></g>
<g><path style="opacity:1" fill="#fefefe" d="M 24.5,12.5 C 195.833,12.5 367.167,12.5 538.5,12.5C 538.5,16.5 538.5,20.5 538.5,24.5C 367.167,24.5 195.833,24.5 24.5,24.5C 24.5,20.5 24.5,16.5 24.5,12.5 Z"/></g>
<g><path style="opacity:1" fill="#474747" d="M 99.5,71.5 C 101.085,72.0024 101.585,73.0024 101,74.5C 99.9614,73.7562 99.4614,72.7562 99.5,71.5 Z"/></g>
<g><path style="opacity:1" fill="#f4f3f1" d="M 796.5,68.5 C 797.659,78.992 797.825,89.6586 797,100.5C 795.372,95.4343 794.205,90.2677 793.5,85C 794.174,79.4255 795.174,73.9255 796.5,68.5 Z"/></g>
<g><path style="opacity:1" fill="#434343" d="M 102.5,76.5 C 104.085,77.0024 104.585,78.0024 104,79.5C 102.961,78.7562 102.461,77.7562 102.5,76.5 Z"/></g>
<g><path style="opacity:1" fill="#f6f6f4" d="M 874.5,70.5 C 877.038,79.7972 877.038,89.1305 874.5,98.5C 873.167,89.1667 873.167,79.8333 874.5,70.5 Z"/></g>
<g><path style="opacity:1" fill="#868481" d="M 874.5,70.5 C 873.167,79.8333 873.167,89.1667 874.5,98.5C 874.539,99.7562 874.039,100.756 873,101.5C 872.333,90.5 872.333,79.5 873,68.5C 873.717,69.0442 874.217,69.7109 874.5,70.5 Z"/></g>
<g><path style="opacity:1" fill="#373737" d="M 105.5,81.5 C 107.924,83.2276 108.09,85.2276 106,87.5C 106.793,85.4995 106.626,83.4995 105.5,81.5 Z"/></g>
<g><path style="opacity:1" fill="#4c4a4a" d="M 10.5,65.5 C 10.5022,78.4618 10.5022,91.4618 10.5,104.5C 9.17905,91.598 9.17905,78.598 10.5,65.5 Z"/></g>
<g><path style="opacity:1" fill="#9a9a9a" d="M 81.5,88.5 C 82.5862,88.62 83.2528,89.2867 83.5,90.5C 83.1667,91.1667 82.8333,91.8333 82.5,92.5C 81.5713,91.3112 81.238,89.9778 81.5,88.5 Z"/></g>
<g><path style="opacity:1" fill="#595959" d="M 103.5,89.5 C 104.797,90.8488 104.63,92.1821 103,93.5C 102.805,92.1807 102.972,90.8474 103.5,89.5 Z"/></g>
<g><path style="opacity:1" fill="#646464" d="M 100.5,94.5 C 101.239,94.369 101.906,94.5357 102.5,95C 99.856,99.8385 99.1893,99.6718 100.5,94.5 Z"/></g>
<g><path style="opacity:1" fill="#515151" d="M 885.5,52.5 C 894.147,64.7637 897.314,78.4304 895,93.5C 894.57,98.6201 893.07,103.287 890.5,107.5C 896.533,88.4633 894.866,70.1299 885.5,52.5 Z"/></g>
<g><path style="opacity:1" fill="#5a5a5a" d="M 97.5,99.5 C 98.2389,99.369 98.9056,99.5357 99.5,100C 96.856,104.838 96.1893,104.672 97.5,99.5 Z"/></g>
<g><path style="opacity:1" fill="#464646" d="M 78.5,106.5 C 79.9187,105.549 81.5853,105.216 83.5,105.5C 83.3364,111.167 83.0031,111.5 82.5,106.5C 81.1667,106.5 79.8333,106.5 78.5,106.5 Z"/></g>
<g><path style="opacity:1" fill="#5e5e5e" d="M 94.5,104.5 C 95.3764,104.369 96.0431,104.702 96.5,105.5C 93.7087,109.589 93.0421,109.255 94.5,104.5 Z"/></g>
<g><path style="opacity:1" fill="#595856" d="M 11.5,108.5 C 13.4459,109.254 14.2793,110.588 14,112.5C 12.5187,111.529 11.6854,110.196 11.5,108.5 Z"/></g>
<g><path style="opacity:1" fill="#585858" d="M 92.5,109.5 C 93.5593,111.07 93.0593,112.403 91,113.5C 90.7003,111.934 91.2003,110.601 92.5,109.5 Z"/></g>
<g><path style="opacity:1" fill="#565656" d="M 890.5,107.5 C 890.206,110.754 888.873,113.421 886.5,115.5C 887.326,112.515 888.659,109.849 890.5,107.5 Z"/></g>
<g><path style="opacity:1" fill="#e4e3e1" d="M 802.5,109.5 C 811.473,114.655 820.473,119.822 829.5,125C 824.929,125.259 820.596,124.259 816.5,122C 812.89,120.056 809.557,117.723 806.5,115C 804.536,113.549 803.203,111.716 802.5,109.5 Z"/></g>
<g><path style="opacity:1" fill="#4d4d4d" d="M 10.5,107.5 C 9.90785,113.631 10.5745,119.464 12.5,125C 12.1667,125.333 11.8333,125.667 11.5,126C 13.9316,127.087 13.5983,127.587 10.5,127.5C 9.19137,120.734 9.19137,114.068 10.5,107.5 Z"/></g>
<g><path style="opacity:1" fill="#585858" d="M 89.5,114.5 C 90.522,115.892 90.1887,117.225 88.5,118.5C 88.1667,118.333 87.8333,118.167 87.5,118C 88.305,116.887 88.9717,115.721 89.5,114.5 Z"/></g>
<g><path style="opacity:1" fill="#454545" d="M 886.5,115.5 C 886.573,117.027 885.906,118.027 884.5,118.5C 884.427,116.973 885.094,115.973 886.5,115.5 Z"/></g>
<g><path style="opacity:1" fill="#444444" d="M 884.5,118.5 C 884.573,120.027 883.906,121.027 882.5,121.5C 882.427,119.973 883.094,118.973 884.5,118.5 Z"/></g>
<g><path style="opacity:1" fill="#9a9a9a" d="M 81.5,117.5 C 82.5862,117.62 83.2528,118.287 83.5,119.5C 83.1667,120.167 82.8333,120.833 82.5,121.5C 81.5713,120.311 81.238,118.978 81.5,117.5 Z"/></g>
<g><path style="opacity:1" fill="#5c5c5c" d="M 86.5,119.5 C 87.522,120.892 87.1887,122.225 85.5,123.5C 85.1667,123.333 84.8333,123.167 84.5,123C 85.305,121.887 85.9717,120.721 86.5,119.5 Z"/></g>
<g><path style="opacity:1" fill="#5f5f5f" d="M 13.5,119.5 C 14.2389,119.369 14.9056,119.536 15.5,120C 12.856,124.838 12.1893,124.672 13.5,119.5 Z"/></g>
<g><path style="opacity:1" fill="#505050" d="M 82.5,123.5 C 84.914,124.777 85.0807,126.443 83,128.5C 81.6012,127.773 80.1012,127.273 78.5,127C 79.7932,126.51 81.1266,126.343 82.5,126.5C 82.5,125.5 82.5,124.5 82.5,123.5 Z"/></g>
<g><path style="opacity:1" fill="#999999" d="M 26.5,126.5 C 27.9778,126.238 29.3112,126.571 30.5,127.5C 29.8333,127.833 29.1667,128.167 28.5,128.5C 27.2867,128.253 26.62,127.586 26.5,126.5 Z"/></g>
<g><path style="opacity:1" fill="#9b9b9b" d="M 49.5,126.5 C 50.9778,126.238 52.3112,126.571 53.5,127.5C 52.8333,127.833 52.1667,128.167 51.5,128.5C 50.2867,128.253 49.62,127.586 49.5,126.5 Z"/></g>
<g><path style="opacity:1" fill="#989898" d="M 55.5,126.5 C 56.9778,126.238 58.3112,126.571 59.5,127.5C 58.8333,127.833 58.1667,128.167 57.5,128.5C 56.2867,128.253 55.62,127.586 55.5,126.5 Z"/></g>
<g><path style="opacity:1" fill="#989898" d="M 61.5,126.5 C 62.9778,126.238 64.3112,126.571 65.5,127.5C 64.8333,127.833 64.1667,128.167 63.5,128.5C 62.2867,128.253 61.62,127.586 61.5,126.5 Z"/></g>
<g><path style="opacity:1" fill="#9b9b9b" d="M 67.5,126.5 C 68.9778,126.238 70.3112,126.571 71.5,127.5C 70.8333,127.833 70.1667,128.167 69.5,128.5C 68.2867,128.253 67.62,127.586 67.5,126.5 Z"/></g>
<g><path style="opacity:1" fill="#9e9e9e" d="M 72.5,126.5 C 74.1992,126.34 75.8659,126.506 77.5,127C 75.4153,129.139 73.7487,128.972 72.5,126.5 Z"/></g>
<g><path style="opacity:1" fill="#737373" d="M 846.5,126.5 C 843.913,127.816 840.913,128.483 837.5,128.5C 834.314,128.498 831.314,128.165 828.5,127.5C 834.559,127.746 840.559,127.413 846.5,126.5 Z"/></g>
<g><path style="opacity:1" fill="#656565" d="M 882.5,121.5 C 880.5,125.5 877.5,128.5 873.5,130.5C 875.752,127.578 878.752,124.578 882.5,121.5 Z"/></g>
<g><path style="opacity:1" fill="#5c5c5c" d="M 873.5,130.5 C 862.833,140.501 850.166,145.168 835.5,144.5C 847.805,143.427 859.139,139.593 869.5,133C 870.701,132.097 871.535,130.931 872,129.5C 872.383,130.056 872.883,130.389 873.5,130.5 Z"/></g>
<g><path style="opacity:1" fill="#848484" d="M 10.5,143.5 C 14.5,143.5 18.5,143.5 22.5,143.5C 22.5,144.167 22.5,144.833 22.5,145.5C 19.1667,145.5 15.8333,145.5 12.5,145.5C 11.5,145.167 10.8333,144.5 10.5,143.5 Z"/></g>
<g><path style="opacity:1" fill="#868686" d="M 24.5,143.5 C 195.791,143.588 367.124,143.588 538.5,143.5C 538.5,144.167 538.5,144.833 538.5,145.5C 367.027,145.587 195.694,145.587 24.5,145.5C 24.5,144.833 24.5,144.167 24.5,143.5 Z"/></g>
<g><path style="opacity:1" fill="#848383" d="M 540.5,143.5 C 544.5,143.5 548.5,143.5 552.5,143.5C 552.167,144.5 551.5,145.167 550.5,145.5C 547.167,145.5 543.833,145.5 540.5,145.5C 540.5,144.833 540.5,144.167 540.5,143.5 Z"/></g>
<g><path style="opacity:1" fill="#f4f4f4" d="M 12.5,145.5 C 15.8333,145.5 19.1667,145.5 22.5,145.5C 22.665,148.85 22.4983,152.183 22,155.5C 18.6291,152.297 15.4625,148.964 12.5,145.5 Z"/></g>
<g><path style="opacity:1" fill="#fefefe" d="M 24.5,145.5 C 195.694,145.587 367.027,145.587 538.5,145.5C 538.5,149.167 538.5,152.833 538.5,156.5C 367.167,156.5 195.833,156.5 24.5,156.5C 24.5,152.833 24.5,149.167 24.5,145.5 Z"/></g>
<g><path style="opacity:1" fill="#f5f4f5" d="M 540.5,145.5 C 543.833,145.5 547.167,145.5 550.5,145.5C 547.538,148.964 544.371,152.297 541,155.5C 540.502,152.183 540.335,148.85 540.5,145.5 Z"/></g>
<g><path style="opacity:1" fill="#c1c1c1" d="M 24.5,156.5 C 195.833,156.5 367.167,156.5 538.5,156.5C 387.001,157.333 235.334,157.833 83.5,158C 84.056,158.383 84.3893,158.883 84.5,159.5C 83.1667,159.5 81.8333,159.5 80.5,159.5C 80.9175,158.778 81.5842,158.278 82.5,158C 62.9957,157.832 43.6623,157.332 24.5,156.5 Z"/></g>
</svg>
