<?xml version="1.0" encoding="UTF-8"?>
<!DOCTYPE svg PUBLIC "-//W3C//DTD SVG 1.1//EN" "http://www.w3.org/Graphics/SVG/1.1/DTD/svg11.dtd">
<svg xmlns="http://www.w3.org/2000/svg" version="1.1" width="110px" height="399px" style="shape-rendering:geometricPrecision; text-rendering:geometricPrecision; image-rendering:optimizeQuality; fill-rule:evenodd; clip-rule:evenodd" xmlns:xlink="http://www.w3.org/1999/xlink">
<g><path style="opacity:1" fill="#fafafa" d="M -0.5,-0.5 C 36.1667,-0.5 72.8333,-0.5 109.5,-0.5C 109.5,132.5 109.5,265.5 109.5,398.5C 72.8333,398.5 36.1667,398.5 -0.5,398.5C -0.5,265.5 -0.5,132.5 -0.5,-0.5 Z"/></g>
<g><path style="opacity:1" fill="#909090" d="M 90.5,11.5 C 87.8333,11.5 85.1667,11.5 82.5,11.5C 82.5,13.5 82.5,15.5 82.5,17.5C 82.1667,17.5 81.8333,17.5 81.5,17.5C 81.5,15.1667 81.5,12.8333 81.5,10.5C 84.7131,10.19 87.7131,10.5233 90.5,11.5 Z"/></g>
<g><path style="opacity:1" fill="#f6f6f6" d="M 90.5,11.5 C 90.5,13.5 90.5,15.5 90.5,17.5C 87.8333,17.5 85.1667,17.5 82.5,17.5C 82.5,15.5 82.5,13.5 82.5,11.5C 85.1667,11.5 87.8333,11.5 90.5,11.5 Z"/></g>
<g><path style="opacity:1" fill="#8d8d8d" d="M 9.5,17.5 C 9.16898,124.237 9.50231,230.904 10.5,337.5C 9.16671,284.504 8.50005,231.171 8.5,177.5C 8.50001,123.999 8.83334,70.6656 9.5,17.5 Z"/></g>
<g><path style="opacity:1" fill="#fefefe" d="M 27.5,55.5 C 27.5,56.1667 27.8333,56.5 28.5,56.5C 29.609,56.5569 30.609,56.8902 31.5,57.5C 39.0382,62.5249 46.8716,67.1916 55,71.5C 62.8302,66.6747 70.6636,62.008 78.5,57.5C 80.099,57.7678 81.4324,57.4345 82.5,56.5C 83.4951,44.6783 83.8284,32.6783 83.5,20.5C 85.5,20.5 87.5,20.5 89.5,20.5C 89.5,124.833 89.5,229.167 89.5,333.5C 66.1667,333.5 42.8333,333.5 19.5,333.5C 19.5,229.167 19.5,124.833 19.5,20.5C 21.8333,20.5 24.1667,20.5 26.5,20.5C 26.1717,32.3453 26.5051,44.012 27.5,55.5 Z"/></g>
<g><path style="opacity:1" fill="#f3f3f3" d="M 82.5,19.5 C 85.1667,19.5 87.8333,19.5 90.5,19.5C 90.5,124.5 90.5,229.5 90.5,334.5C 66.8333,334.5 43.1667,334.5 19.5,334.5C 19.5,334.167 19.5,333.833 19.5,333.5C 42.8333,333.5 66.1667,333.5 89.5,333.5C 89.5,229.167 89.5,124.833 89.5,20.5C 87.5,20.5 85.5,20.5 83.5,20.5C 83.8284,32.6783 83.4951,44.6783 82.5,56.5C 82.5,44.1667 82.5,31.8333 82.5,19.5 Z"/></g>
<g><path style="opacity:1" fill="#3f3f3f" d="M 92.5,10.5 C 94.8333,12.1667 96.8333,14.1667 98.5,16.5C 97.375,17.3478 97.375,18.3478 98.5,19.5C 96.5,19.5 94.5,19.5 92.5,19.5C 92.5,124.5 92.5,229.5 92.5,334.5C 94.5,334.5 96.5,334.5 98.5,334.5C 98.0679,335.71 97.4013,336.71 96.5,337.5C 95.4324,336.566 94.099,336.232 92.5,336.5C 92.2322,338.099 92.5655,339.432 93.5,340.5C 92.5,341.5 91.5,342.5 90.5,343.5C 90.5,341.5 90.5,339.5 90.5,337.5C 66.6725,336.502 42.6725,336.169 18.5,336.5C 18.5,335.833 18.5,335.167 18.5,334.5C 18.8333,334.5 19.1667,334.5 19.5,334.5C 43.1667,334.5 66.8333,334.5 90.5,334.5C 90.5,229.5 90.5,124.5 90.5,19.5C 87.8333,19.5 85.1667,19.5 82.5,19.5C 82.1667,19.5 81.8333,19.5 81.5,19.5C 81.5,18.8333 81.5,18.1667 81.5,17.5C 81.8333,17.5 82.1667,17.5 82.5,17.5C 85.1667,17.5 87.8333,17.5 90.5,17.5C 90.5,15.5 90.5,13.5 90.5,11.5C 91.1667,11.1667 91.8333,10.8333 92.5,10.5 Z"/></g>
<g><path style="opacity:1" fill="#cccccc" d="M 92.5,13.5 C 97.1954,16.0251 97.1954,17.3585 92.5,17.5C 92.5,16.1667 92.5,14.8333 92.5,13.5 Z"/></g>
<g><path style="opacity:1" fill="#fefefe" d="M 98.5,20.5 C 98.5,124.833 98.5,229.167 98.5,333.5C 96.8333,333.5 95.1667,333.5 93.5,333.5C 93.5,229.167 93.5,124.833 93.5,20.5C 95.1667,20.5 96.8333,20.5 98.5,20.5 Z"/></g>
<g><path style="opacity:1" fill="#303030" d="M 98.5,16.5 C 99.1174,16.6107 99.6174,16.944 100,17.5C 100.667,123.833 100.667,230.167 100,336.5C 95.9459,340.554 91.9459,344.554 88,348.5C 87.8241,362.408 87.3241,376.242 86.5,390C 65.836,390.5 45.1694,390.667 24.5,390.5C 44.5,389.833 64.5,389.167 84.5,388.5C 85.1667,388.5 85.5,388.167 85.5,387.5C 86.8333,374.833 86.8333,362.167 85.5,349.5C 85.8333,348.833 86.1667,348.167 86.5,347.5C 87.1667,347.5 87.5,347.167 87.5,346.5C 88.3065,345.272 89.3065,344.272 90.5,343.5C 91.5,342.5 92.5,341.5 93.5,340.5C 94.8333,339.833 95.8333,338.833 96.5,337.5C 97.4013,336.71 98.0679,335.71 98.5,334.5C 98.5,334.167 98.5,333.833 98.5,333.5C 98.5,229.167 98.5,124.833 98.5,20.5C 98.5,20.1667 98.5,19.8333 98.5,19.5C 97.375,18.3478 97.375,17.3478 98.5,16.5 Z"/></g>
<g><path style="opacity:1" fill="#1f1f1f" d="M 92.5,10.5 C 91.8333,10.8333 91.1667,11.1667 90.5,11.5C 87.7131,10.5233 84.7131,10.19 81.5,10.5C 81.5,12.8333 81.5,15.1667 81.5,17.5C 81.5,18.1667 81.5,18.8333 81.5,19.5C 81.5,31.8333 81.5,44.1667 81.5,56.5C 80.209,56.2627 79.209,56.596 78.5,57.5C 77.8333,57.5 77.1667,57.5 76.5,57.5C 62.539,55.5172 48.2057,54.8505 33.5,55.5C 32.8333,56.1667 32.1667,56.8333 31.5,57.5C 30.609,56.8902 29.609,56.5569 28.5,56.5C 28.3284,55.5084 28.6618,54.8417 29.5,54.5C 33.5,54.5 37.5,54.5 41.5,54.5C 41.5,42.8333 41.5,31.1667 41.5,19.5C 41.3284,18.5084 41.6618,17.8417 42.5,17.5C 42.5,18.1667 42.5,18.8333 42.5,19.5C 42.3335,30.8382 42.5001,42.1716 43,53.5C 50.9317,54.8274 58.7651,54.8274 66.5,53.5C 67.1667,53.5 67.8333,53.5 68.5,53.5C 72.2984,54.4834 76.2984,54.8168 80.5,54.5C 80.5,42.8333 80.5,31.1667 80.5,19.5C 80.8076,17.076 80.4742,14.7427 79.5,12.5C 78.8933,12.6236 78.56,12.9569 78.5,13.5C 77.8333,13.5 77.1667,13.5 76.5,13.5C 75.8333,13.5 75.5,13.1667 75.5,12.5C 76.3764,12.6309 77.0431,12.2975 77.5,11.5C 75.2573,10.5258 72.924,10.1924 70.5,10.5C 68.3736,11.0482 66.3736,11.7148 64.5,12.5C 64.1667,12.5 63.8333,12.5 63.5,12.5C 62.2617,12.19 62.2617,11.69 63.5,11C 62.9056,10.5357 62.2389,10.369 61.5,10.5C 57.1667,10.5 52.8333,10.5 48.5,10.5C 47.1667,11.1667 45.8333,11.8333 44.5,12.5C 42.6264,11.7148 40.6264,11.0482 38.5,10.5C 36.5,10.5 34.5,10.5 32.5,10.5C 30.9731,10.427 29.9731,11.0937 29.5,12.5C 28.8333,11.8333 28.1667,11.1667 27.5,10.5C 24.6146,10.1936 21.9479,10.5269 19.5,11.5C 18.5386,13.2646 18.2053,15.2646 18.5,17.5C 18.5,18.1667 18.5,18.8333 18.5,19.5C 18.5,124.5 18.5,229.5 18.5,334.5C 18.5,335.167 18.5,335.833 18.5,336.5C 18.5,338.167 18.5,339.833 18.5,341.5C 17.8333,341.5 17.5,341.167 17.5,340.5C 17.5,339.167 17.5,337.833 17.5,336.5C 17.5,336.167 17.5,335.833 17.5,335.5C 17.8328,229.999 17.4995,124.665 16.5,19.5C 14.8333,19.5 13.1667,19.5 11.5,19.5C 10.8333,71.9989 10.5,124.666 10.5,177.5C 10.5,230.504 11.1667,283.171 12.5,335.5C 12.1667,336.5 11.5,337.167 10.5,337.5C 9.50231,230.904 9.16898,124.237 9.5,17.5C 11.6676,14.5001 14.3343,12.0001 17.5,10C 42.67,9.17001 67.67,9.33668 92.5,10.5 Z"/></g>
<g><path style="opacity:1" fill="#4a4a4a" d="M 27.5,10.5 C 28.1667,11.1667 28.8333,11.8333 29.5,12.5C 29.9731,11.0937 30.9731,10.427 32.5,10.5C 32.9704,11.6935 33.9704,12.3601 35.5,12.5C 37.0296,12.3601 38.0296,11.6935 38.5,10.5C 40.6264,11.0482 42.6264,11.7148 44.5,12.5C 42.744,13.5521 42.0773,15.2188 42.5,17.5C 41.6618,17.8417 41.3284,18.5084 41.5,19.5C 41.1667,19.5 40.8333,19.5 40.5,19.5C 36.8333,19.5 33.1667,19.5 29.5,19.5C 29.5,30.8333 29.5,42.1667 29.5,53.5C 29.5,53.8333 29.5,54.1667 29.5,54.5C 28.6618,54.8417 28.3284,55.5084 28.5,56.5C 27.8333,56.5 27.5,56.1667 27.5,55.5C 27.5,43.5 27.5,31.5 27.5,19.5C 24.5,19.5 21.5,19.5 18.5,19.5C 18.5,18.8333 18.5,18.1667 18.5,17.5C 21.5,17.5 24.5,17.5 27.5,17.5C 27.5,15.1667 27.5,12.8333 27.5,10.5 Z"/></g>
<g><path style="opacity:1" fill="#bbbbbb" d="M 79.5,19.5 C 79.5,19.8333 79.5,20.1667 79.5,20.5C 76.1667,20.5 72.8333,20.5 69.5,20.5C 69.5,31.5 69.5,42.5 69.5,53.5C 69.1667,53.5 68.8333,53.5 68.5,53.5C 68.5,42.1667 68.5,30.8333 68.5,19.5C 72.1667,19.5 75.8333,19.5 79.5,19.5 Z"/></g>
<g><path style="opacity:1" fill="#fbfbfb" d="M 79.5,20.5 C 79.5,31.5 79.5,42.5 79.5,53.5C 76.1667,53.5 72.8333,53.5 69.5,53.5C 69.5,42.5 69.5,31.5 69.5,20.5C 72.8333,20.5 76.1667,20.5 79.5,20.5 Z"/></g>
<g><path style="opacity:1" fill="#f5f5f5" d="M 42.5,19.5 C 50.5,19.5 58.5,19.5 66.5,19.5C 66.5,30.8333 66.5,42.1667 66.5,53.5C 58.7651,54.8274 50.9317,54.8274 43,53.5C 42.5001,42.1716 42.3335,30.8382 42.5,19.5 Z"/></g>
<g><path style="opacity:1" fill="#fbfbfb" d="M 40.5,20.5 C 40.5,31.5 40.5,42.5 40.5,53.5C 37.1667,53.5 33.8333,53.5 30.5,53.5C 30.5,42.5 30.5,31.5 30.5,20.5C 33.8333,20.5 37.1667,20.5 40.5,20.5 Z"/></g>
<g><path style="opacity:1" fill="#a3a3a3" d="M 11.5,19.5 C 11.5,124.5 11.5,229.5 11.5,334.5C 13.1667,334.5 14.8333,334.5 16.5,334.5C 16.5,229.5 16.5,124.5 16.5,19.5C 17.4995,124.665 17.8328,229.999 17.5,335.5C 15.8333,335.5 14.1667,335.5 12.5,335.5C 11.1667,283.171 10.5,230.504 10.5,177.5C 10.5,124.666 10.8333,71.9989 11.5,19.5 Z"/></g>
<g><path style="opacity:1" fill="#fcfcfc" d="M 11.5,19.5 C 13.1667,19.5 14.8333,19.5 16.5,19.5C 16.5,124.5 16.5,229.5 16.5,334.5C 14.8333,334.5 13.1667,334.5 11.5,334.5C 11.5,229.5 11.5,124.5 11.5,19.5 Z"/></g>
<g><path style="opacity:1" fill="#dbdbdb" d="M 29.5,12.5 C 31.0291,13.3468 32.6958,14.0135 34.5,14.5C 36.5122,14.1604 38.5122,13.8271 40.5,13.5C 40.5,14.8333 40.5,16.1667 40.5,17.5C 36.8333,17.5 33.1667,17.5 29.5,17.5C 29.5,15.8333 29.5,14.1667 29.5,12.5 Z"/></g>
<g><path style="opacity:1" fill="#b9b9b9" d="M 27.5,10.5 C 27.5,12.8333 27.5,15.1667 27.5,17.5C 24.5,17.5 21.5,17.5 18.5,17.5C 18.2053,15.2646 18.5386,13.2646 19.5,11.5C 21.9479,10.5269 24.6146,10.1936 27.5,10.5 Z"/></g>
<g><path style="opacity:1" fill="#bfbfbf" d="M 15.5,13.5 C 17.1765,14.1834 17.8432,15.5168 17.5,17.5C 13.1547,17.7019 12.488,16.3686 15.5,13.5 Z"/></g>
<g><path style="opacity:1" fill="#444444" d="M 48.5,10.5 C 50.223,11.8001 52.3897,12.4668 55,12.5C 57.6103,12.4668 59.777,11.8001 61.5,10.5C 62.2389,10.369 62.9056,10.5357 63.5,11C 62.2617,11.69 62.2617,12.19 63.5,12.5C 60.644,14.0058 57.4774,14.6725 54,14.5C 50.5226,14.6725 47.356,14.0058 44.5,12.5C 45.8333,11.8333 47.1667,11.1667 48.5,10.5 Z"/></g>
<g><path style="opacity:1" fill="#eaeaea" d="M 44.5,12.5 C 47.356,14.0058 50.5226,14.6725 54,14.5C 57.4774,14.6725 60.644,14.0058 63.5,12.5C 63.8333,12.5 64.1667,12.5 64.5,12.5C 66.256,13.5521 66.9227,15.2188 66.5,17.5C 58.5,17.5 50.5,17.5 42.5,17.5C 42.0773,15.2188 42.744,13.5521 44.5,12.5 Z"/></g>
<g><path style="opacity:1" fill="#fbfbfb" d="M 19.5,11.5 C 21.8333,11.5 24.1667,11.5 26.5,11.5C 26.5,13.1667 26.5,14.8333 26.5,16.5C 24.1667,16.5 21.8333,16.5 19.5,16.5C 19.5,14.8333 19.5,13.1667 19.5,11.5 Z"/></g>
<g><path style="opacity:1" fill="#999999" d="M 70.5,10.5 C 72.924,10.1924 75.2573,10.5258 77.5,11.5C 77.0431,12.2975 76.3764,12.6309 75.5,12.5C 73.302,12.8799 71.6354,12.2132 70.5,10.5 Z"/></g>
<g><path style="opacity:1" fill="#9d9d9d" d="M 48.5,10.5 C 52.8333,10.5 57.1667,10.5 61.5,10.5C 59.777,11.8001 57.6103,12.4668 55,12.5C 52.3897,12.4668 50.223,11.8001 48.5,10.5 Z"/></g>
<g><path style="opacity:1" fill="#9c9c9c" d="M 32.5,10.5 C 34.5,10.5 36.5,10.5 38.5,10.5C 38.0296,11.6935 37.0296,12.3601 35.5,12.5C 33.9704,12.3601 32.9704,11.6935 32.5,10.5 Z"/></g>
<g><path style="opacity:1" fill="#b7b7b7" d="M 18.5,19.5 C 21.5,19.5 24.5,19.5 27.5,19.5C 27.5,31.5 27.5,43.5 27.5,55.5C 26.5051,44.012 26.1717,32.3453 26.5,20.5C 24.1667,20.5 21.8333,20.5 19.5,20.5C 19.5,124.833 19.5,229.167 19.5,333.5C 19.5,333.833 19.5,334.167 19.5,334.5C 19.1667,334.5 18.8333,334.5 18.5,334.5C 18.5,229.5 18.5,124.5 18.5,19.5 Z"/></g>
<g><path style="opacity:1" fill="#d0d0d0" d="M 98.5,19.5 C 98.5,19.8333 98.5,20.1667 98.5,20.5C 96.8333,20.5 95.1667,20.5 93.5,20.5C 93.5,124.833 93.5,229.167 93.5,333.5C 95.1667,333.5 96.8333,333.5 98.5,333.5C 98.5,333.833 98.5,334.167 98.5,334.5C 96.5,334.5 94.5,334.5 92.5,334.5C 92.5,229.5 92.5,124.5 92.5,19.5C 94.5,19.5 96.5,19.5 98.5,19.5 Z"/></g>
<g><path style="opacity:1" fill="#888888" d="M 40.5,19.5 C 40.8333,19.5 41.1667,19.5 41.5,19.5C 41.5,31.1667 41.5,42.8333 41.5,54.5C 37.5,54.5 33.5,54.5 29.5,54.5C 29.5,54.1667 29.5,53.8333 29.5,53.5C 29.8333,53.5 30.1667,53.5 30.5,53.5C 33.8333,53.5 37.1667,53.5 40.5,53.5C 40.5,42.5 40.5,31.5 40.5,20.5C 40.5,20.1667 40.5,19.8333 40.5,19.5 Z"/></g>
<g><path style="opacity:1" fill="#888888" d="M 79.5,19.5 C 79.8333,19.5 80.1667,19.5 80.5,19.5C 80.5,31.1667 80.5,42.8333 80.5,54.5C 76.2984,54.8168 72.2984,54.4834 68.5,53.5C 68.8333,53.5 69.1667,53.5 69.5,53.5C 72.8333,53.5 76.1667,53.5 79.5,53.5C 79.5,42.5 79.5,31.5 79.5,20.5C 79.5,20.1667 79.5,19.8333 79.5,19.5 Z"/></g>
<g><path style="opacity:1" fill="#464646" d="M 70.5,10.5 C 71.6354,12.2132 73.302,12.8799 75.5,12.5C 75.5,13.1667 75.8333,13.5 76.5,13.5C 74.0621,14.8863 71.7288,14.553 69.5,12.5C 68.5481,14.0453 68.2148,15.712 68.5,17.5C 72.1667,17.5 75.8333,17.5 79.5,17.5C 79.7678,15.901 79.4345,14.5676 78.5,13.5C 78.56,12.9569 78.8933,12.6236 79.5,12.5C 80.4742,14.7427 80.8076,17.076 80.5,19.5C 80.1667,19.5 79.8333,19.5 79.5,19.5C 75.8333,19.5 72.1667,19.5 68.5,19.5C 68.5,30.8333 68.5,42.1667 68.5,53.5C 67.8333,53.5 67.1667,53.5 66.5,53.5C 66.5,42.1667 66.5,30.8333 66.5,19.5C 58.5,19.5 50.5,19.5 42.5,19.5C 42.5,18.8333 42.5,18.1667 42.5,17.5C 50.5,17.5 58.5,17.5 66.5,17.5C 66.9227,15.2188 66.256,13.5521 64.5,12.5C 66.3736,11.7148 68.3736,11.0482 70.5,10.5 Z"/></g>
<g><path style="opacity:1" fill="#d8d8d8" d="M 76.5,13.5 C 77.1667,13.5 77.8333,13.5 78.5,13.5C 79.4345,14.5676 79.7678,15.901 79.5,17.5C 75.8333,17.5 72.1667,17.5 68.5,17.5C 68.2148,15.712 68.5481,14.0453 69.5,12.5C 71.7288,14.553 74.0621,14.8863 76.5,13.5 Z"/></g>
<g><path style="opacity:1" fill="#c5c5c5" d="M 40.5,19.5 C 40.5,19.8333 40.5,20.1667 40.5,20.5C 37.1667,20.5 33.8333,20.5 30.5,20.5C 30.5,31.5 30.5,42.5 30.5,53.5C 30.1667,53.5 29.8333,53.5 29.5,53.5C 29.5,42.1667 29.5,30.8333 29.5,19.5C 33.1667,19.5 36.8333,19.5 40.5,19.5 Z"/></g>
<g><path style="opacity:1" fill="#a5a5a5" d="M 81.5,19.5 C 81.8333,19.5 82.1667,19.5 82.5,19.5C 82.5,31.8333 82.5,44.1667 82.5,56.5C 81.4324,57.4345 80.099,57.7678 78.5,57.5C 79.209,56.596 80.209,56.2627 81.5,56.5C 81.5,44.1667 81.5,31.8333 81.5,19.5 Z"/></g>
<g><path style="opacity:1" fill="#8e8e8e" d="M 33.5,55.5 C 48.2057,54.8505 62.539,55.5172 76.5,57.5C 76.1667,57.5 75.8333,57.5 75.5,57.5C 61.8333,56.1667 48.1667,56.1667 34.5,57.5C 33.6618,57.1583 33.3284,56.4916 33.5,55.5 Z"/></g>
<g><path style="opacity:1" fill="#f4f4f4" d="M 34.5,57.5 C 48.1667,56.1667 61.8333,56.1667 75.5,57.5C 68.3593,60.9036 61.3593,64.5703 54.5,68.5C 47.5221,65.3455 40.8555,61.6789 34.5,57.5 Z"/></g>
<g><path style="opacity:1" fill="#484848" d="M 33.5,55.5 C 33.3284,56.4916 33.6618,57.1583 34.5,57.5C 40.8555,61.6789 47.5221,65.3455 54.5,68.5C 61.3593,64.5703 68.3593,60.9036 75.5,57.5C 75.8333,57.5 76.1667,57.5 76.5,57.5C 77.1667,57.5 77.8333,57.5 78.5,57.5C 70.6636,62.008 62.8302,66.6747 55,71.5C 46.8716,67.1916 39.0382,62.5249 31.5,57.5C 32.1667,56.8333 32.8333,56.1667 33.5,55.5 Z"/></g>
<g><path style="opacity:1" fill="#b4b4b4" d="M 18.5,336.5 C 42.6725,336.169 66.6725,336.502 90.5,337.5C 66.8333,337.5 43.1667,337.5 19.5,337.5C 19.5,339.5 19.5,341.5 19.5,343.5C 18.6618,343.158 18.3284,342.492 18.5,341.5C 18.5,339.833 18.5,338.167 18.5,336.5 Z"/></g>
<g><path style="opacity:1" fill="#fdfdfd" d="M 90.5,337.5 C 90.5,339.5 90.5,341.5 90.5,343.5C 89.3065,344.272 88.3065,345.272 87.5,346.5C 65.4545,346.812 43.4545,346.478 21.5,345.5C 20.5,345.167 19.8333,344.5 19.5,343.5C 19.5,341.5 19.5,339.5 19.5,337.5C 43.1667,337.5 66.8333,337.5 90.5,337.5 Z"/></g>
<g><path style="opacity:1" fill="#bbbbbb" d="M 96.5,337.5 C 95.8333,338.833 94.8333,339.833 93.5,340.5C 92.5655,339.432 92.2322,338.099 92.5,336.5C 94.099,336.232 95.4324,336.566 96.5,337.5 Z"/></g>
<g><path style="opacity:1" fill="#b0b0b0" d="M 17.5,336.5 C 17.5,337.833 17.5,339.167 17.5,340.5C 12.4972,338.574 12.4972,337.241 17.5,336.5 Z"/></g>
<g><path style="opacity:1" fill="#dedede" d="M 21.5,345.5 C 43.4545,346.478 65.4545,346.812 87.5,346.5C 87.5,347.167 87.1667,347.5 86.5,347.5C 65.1641,347.667 43.8307,347.5 22.5,347C 21.944,346.617 21.6107,346.117 21.5,345.5 Z"/></g>
<g><path style="opacity:1" fill="#adadad" d="M 85.5,349.5 C 86.8333,362.167 86.8333,374.833 85.5,387.5C 85.5,375.167 85.5,362.833 85.5,350.5C 65.1667,350.5 44.8333,350.5 24.5,350.5C 24.5,362.833 24.5,375.167 24.5,387.5C 23.5046,375.011 23.1713,362.344 23.5,349.5C 44.1667,349.5 64.8333,349.5 85.5,349.5 Z"/></g>
<g><path style="opacity:1" fill="#fefefe" d="M 85.5,387.5 C 85.5,388.167 85.1667,388.5 84.5,388.5C 64.3264,388.83 44.3264,388.497 24.5,387.5C 24.5,375.167 24.5,362.833 24.5,350.5C 44.8333,350.5 65.1667,350.5 85.5,350.5C 85.5,362.833 85.5,375.167 85.5,387.5 Z"/></g>
<g><path style="opacity:1" fill="#505050" d="M 12.5,335.5 C 14.1667,335.5 15.8333,335.5 17.5,335.5C 17.5,335.833 17.5,336.167 17.5,336.5C 12.4972,337.241 12.4972,338.574 17.5,340.5C 17.5,341.167 17.8333,341.5 18.5,341.5C 18.3284,342.492 18.6618,343.158 19.5,343.5C 19.8333,344.5 20.5,345.167 21.5,345.5C 21.6107,346.117 21.944,346.617 22.5,347C 43.8307,347.5 65.1641,347.667 86.5,347.5C 86.1667,348.167 85.8333,348.833 85.5,349.5C 64.8333,349.5 44.1667,349.5 23.5,349.5C 23.1713,362.344 23.5046,375.011 24.5,387.5C 44.3264,388.497 64.3264,388.83 84.5,388.5C 64.5,389.167 44.5,389.833 24.5,390.5C 23.5416,390.047 22.7083,389.381 22,388.5C 21.6667,375.167 21.3333,361.833 21,348.5C 17.2961,344.964 13.7961,341.298 10.5,337.5C 11.5,337.167 12.1667,336.5 12.5,335.5 Z"/></g>
</svg>
