<?xml version="1.0" encoding="UTF-8"?>
<!DOCTYPE svg PUBLIC "-//W3C//DTD SVG 1.1//EN" "http://www.w3.org/Graphics/SVG/1.1/DTD/svg11.dtd">
<svg xmlns="http://www.w3.org/2000/svg" version="1.1" width="98px" height="326px" style="shape-rendering:geometricPrecision; text-rendering:geometricPrecision; image-rendering:optimizeQuality; fill-rule:evenodd; clip-rule:evenodd" xmlns:xlink="http://www.w3.org/1999/xlink">
<g><path style="opacity:1" fill="#fbfbfb" d="M -0.5,-0.5 C 32.1667,-0.5 64.8333,-0.5 97.5,-0.5C 97.5,108.167 97.5,216.833 97.5,325.5C 64.8333,325.5 32.1667,325.5 -0.5,325.5C -0.5,216.833 -0.5,108.167 -0.5,-0.5 Z"/></g>
<g><path style="opacity:1" fill="#e8e8e8" d="M 17.5,7.5 C 19.8333,7.5 22.1667,7.5 24.5,7.5C 24.5,9.5 24.5,11.5 24.5,13.5C 22.1667,13.5 19.8333,13.5 17.5,13.5C 17.5,11.5 17.5,9.5 17.5,7.5 Z"/></g>
<g><path style="opacity:1" fill="#e0e0e0" d="M 74.5,7.5 C 76.8333,7.5 79.1667,7.5 81.5,7.5C 81.5,9.5 81.5,11.5 81.5,13.5C 79.1667,13.5 76.8333,13.5 74.5,13.5C 74.5,11.5 74.5,9.5 74.5,7.5 Z"/></g>
<g><path style="opacity:1" fill="#393939" d="M 83.5,6.5 C 86.1667,8.83333 88.8333,11.1667 91.5,13.5C 91.8328,110.335 91.4994,207.001 90.5,303.5C 90.44,302.957 90.1067,302.624 89.5,302.5C 88.8182,303.243 88.1515,303.909 87.5,304.5C 86.4324,303.566 85.099,303.232 83.5,303.5C 83.5,302.833 83.5,302.167 83.5,301.5C 83.8333,301.5 84.1667,301.5 84.5,301.5C 86.1667,301.5 87.8333,301.5 89.5,301.5C 89.5,206.5 89.5,111.5 89.5,16.5C 87.7354,15.5386 85.7354,15.2053 83.5,15.5C 83.5,14.8333 83.5,14.1667 83.5,13.5C 88.4079,12.9676 88.4079,11.6343 83.5,9.5C 82.684,10.1571 82.0174,11.4905 81.5,13.5C 81.5,11.5 81.5,9.5 81.5,7.5C 81.8417,6.66175 82.5084,6.32842 83.5,6.5 Z"/></g>
<g><path style="opacity:1" fill="#c2c2c2" d="M 83.5,9.5 C 88.4079,11.6343 88.4079,12.9676 83.5,13.5C 83.5,12.1667 83.5,10.8333 83.5,9.5 Z"/></g>
<g><path style="opacity:1" fill="#494949" d="M 15.5,6.5 C 16.4916,6.32842 17.1583,6.66175 17.5,7.5C 17.5,9.5 17.5,11.5 17.5,13.5C 17.5,14.1667 17.5,14.8333 17.5,15.5C 17.5,110.833 17.5,206.167 17.5,301.5C 16.8333,206.167 16.1667,110.833 15.5,15.5C 13.2646,15.2053 11.2646,15.5386 9.5,16.5C 9.5,111.5 9.5,206.5 9.5,301.5C 11.1667,301.5 12.8333,301.5 14.5,301.5C 14.8333,301.5 15.1667,301.5 15.5,301.5C 15.5,302.167 15.5,302.833 15.5,303.5C 14.0222,303.238 12.6888,303.571 11.5,304.5C 12.5884,305.934 13.9217,306.934 15.5,307.5C 15.1667,308.167 14.8333,308.833 14.5,309.5C 12.2034,307.706 10.0367,305.706 8,303.5C 7.33333,206.833 7.33333,110.167 8,13.5C 10.3697,10.9614 12.8697,8.6281 15.5,6.5 Z"/></g>
<g><path style="opacity:1" fill="#c0c0c0" d="M 13.5,9.5 C 15.1765,10.1834 15.8432,11.5168 15.5,13.5C 14.1266,13.6567 12.7932,13.49 11.5,13C 12.8228,12.1841 13.4894,11.0174 13.5,9.5 Z"/></g>
<g><path style="opacity:1" fill="#e3e3e3" d="M 9.5,16.5 C 9.83333,16.5 10.1667,16.5 10.5,16.5C 10.5,111.167 10.5,205.833 10.5,300.5C 11.8333,300.5 13.1667,300.5 14.5,300.5C 14.5,300.833 14.5,301.167 14.5,301.5C 12.8333,301.5 11.1667,301.5 9.5,301.5C 9.5,206.5 9.5,111.5 9.5,16.5 Z"/></g>
<g><path style="opacity:1" fill="#fdfdfd" d="M 10.5,16.5 C 11.8333,16.5 13.1667,16.5 14.5,16.5C 14.5,111.167 14.5,205.833 14.5,300.5C 13.1667,300.5 11.8333,300.5 10.5,300.5C 10.5,205.833 10.5,111.167 10.5,16.5 Z"/></g>
<g><path style="opacity:1" fill="#232323" d="M 15.5,15.5 C 16.1667,110.833 16.8333,206.167 17.5,301.5C 17.5,302.167 17.5,302.833 17.5,303.5C 16.8333,305.833 16.1667,308.167 15.5,310.5C 14.8333,310.5 14.5,310.167 14.5,309.5C 14.8333,308.833 15.1667,308.167 15.5,307.5C 15.5,306.167 15.5,304.833 15.5,303.5C 15.5,302.833 15.5,302.167 15.5,301.5C 15.5,206.167 15.5,110.833 15.5,15.5 Z"/></g>
<g><path style="opacity:1" fill="#fefefe" d="M 17.5,15.5 C 19.8333,15.5 22.1667,15.5 24.5,15.5C 24.1721,26.6794 24.5054,37.6794 25.5,48.5C 33.1906,53.3463 41.1906,57.6796 49.5,61.5C 58.0076,57.4136 66.3409,53.0803 74.5,48.5C 75.4944,38.0131 75.8278,27.3464 75.5,16.5C 77.5,16.5 79.5,16.5 81.5,16.5C 81.5,111.5 81.5,206.5 81.5,301.5C 74.825,301.666 68.1583,301.5 61.5,301C 57.6357,297.908 53.6357,295.074 49.5,292.5C 45.3643,295.074 41.3643,297.908 37.5,301C 30.8417,301.5 24.175,301.666 17.5,301.5C 17.5,206.167 17.5,110.833 17.5,15.5 Z"/></g>
<g><path style="opacity:1" fill="#d9d9d9" d="M 81.5,15.5 C 81.5,15.8333 81.5,16.1667 81.5,16.5C 79.5,16.5 77.5,16.5 75.5,16.5C 75.8278,27.3464 75.4944,38.0131 74.5,48.5C 74.5,37.5 74.5,26.5 74.5,15.5C 76.8333,15.5 79.1667,15.5 81.5,15.5 Z"/></g>
<g><path style="opacity:1" fill="#fcfcfc" d="M 89.5,16.5 C 89.5,111.5 89.5,206.5 89.5,301.5C 87.8333,301.5 86.1667,301.5 84.5,301.5C 84.5,206.5 84.5,111.5 84.5,16.5C 86.1667,16.5 87.8333,16.5 89.5,16.5 Z"/></g>
<g><path style="opacity:1" fill="#515151" d="M 15.5,6.5 C 38.1667,5.16667 60.8333,5.16667 83.5,6.5C 82.5084,6.32842 81.8417,6.66175 81.5,7.5C 79.1667,7.5 76.8333,7.5 74.5,7.5C 73.8333,6.16667 73.1667,6.16667 72.5,7.5C 69.1667,7.5 65.8333,7.5 62.5,7.5C 62.5,9.5 62.5,11.5 62.5,13.5C 65.8333,13.5 69.1667,13.5 72.5,13.5C 72.5,14.1667 72.5,14.8333 72.5,15.5C 69.1667,15.5 65.8333,15.5 62.5,15.5C 62.5,25.8333 62.5,36.1667 62.5,46.5C 61.8333,46.5 61.1667,46.5 60.5,46.5C 60.5,36.1667 60.5,25.8333 60.5,15.5C 53.1667,15.5 45.8333,15.5 38.5,15.5C 38.5,25.8333 38.5,36.1667 38.5,46.5C 37.8333,46.5 37.1667,46.5 36.5,46.5C 36.5,36.1667 36.5,25.8333 36.5,15.5C 33.5,15.5 30.5,15.5 27.5,15.5C 27.5,14.8333 27.5,14.1667 27.5,13.5C 30.5,13.5 33.5,13.5 36.5,13.5C 36.5,11.5 36.5,9.5 36.5,7.5C 33.5,7.5 30.5,7.5 27.5,7.5C 27.44,6.95691 27.1067,6.62358 26.5,6.5C 25.5008,20.4841 25.1674,34.4841 25.5,48.5C 24.5054,37.6794 24.1721,26.6794 24.5,15.5C 22.1667,15.5 19.8333,15.5 17.5,15.5C 17.5,14.8333 17.5,14.1667 17.5,13.5C 19.8333,13.5 22.1667,13.5 24.5,13.5C 24.5,11.5 24.5,9.5 24.5,7.5C 22.1667,7.5 19.8333,7.5 17.5,7.5C 17.1583,6.66175 16.4916,6.32842 15.5,6.5 Z"/></g>
<g><path style="opacity:1" fill="#b5b5b5" d="M 83.5,15.5 C 85.7354,15.2053 87.7354,15.5386 89.5,16.5C 87.8333,16.5 86.1667,16.5 84.5,16.5C 84.5,111.5 84.5,206.5 84.5,301.5C 84.1667,301.5 83.8333,301.5 83.5,301.5C 83.5,206.167 83.5,110.833 83.5,15.5 Z"/></g>
<g><path style="opacity:1" fill="#d4d4d4" d="M 91.5,13.5 C 92.6658,110.332 92.8325,207.332 92,304.5C 91.6667,305.5 91.3333,306.5 91,307.5C 90.3292,306.748 89.4959,306.414 88.5,306.5C 89.1667,305.5 89.8333,304.5 90.5,303.5C 91.4994,207.001 91.8328,110.335 91.5,13.5 Z"/></g>
<g><path style="opacity:1" fill="#1e1e1e" d="M 83.5,9.5 C 83.5,10.8333 83.5,12.1667 83.5,13.5C 83.5,14.1667 83.5,14.8333 83.5,15.5C 83.5,110.833 83.5,206.167 83.5,301.5C 83.5,302.167 83.5,302.833 83.5,303.5C 83.6321,308.439 84.9655,308.772 87.5,304.5C 88.1515,303.909 88.8182,303.243 89.5,302.5C 90.1067,302.624 90.44,302.957 90.5,303.5C 89.8333,304.5 89.1667,305.5 88.5,306.5C 86.8333,307.833 85.1667,309.167 83.5,310.5C 82.8333,212.167 82.1667,113.833 81.5,15.5C 81.5,14.8333 81.5,14.1667 81.5,13.5C 82.0174,11.4905 82.684,10.1571 83.5,9.5 Z"/></g>
<g><path style="opacity:1" fill="#bbbbbb" d="M 9.5,16.5 C 11.2646,15.5386 13.2646,15.2053 15.5,15.5C 15.5,110.833 15.5,206.167 15.5,301.5C 15.1667,301.5 14.8333,301.5 14.5,301.5C 14.5,301.167 14.5,300.833 14.5,300.5C 14.5,205.833 14.5,111.167 14.5,16.5C 13.1667,16.5 11.8333,16.5 10.5,16.5C 10.1667,16.5 9.83333,16.5 9.5,16.5 Z"/></g>
<g><path style="opacity:1" fill="#3a3a3a" d="M 27.5,7.5 C 26.1667,9.5 26.1667,11.5 27.5,13.5C 27.5,14.1667 27.5,14.8333 27.5,15.5C 27.5,25.8333 27.5,36.1667 27.5,46.5C 30.5,46.5 33.5,46.5 36.5,46.5C 37.1667,46.5 37.8333,46.5 38.5,46.5C 38.8333,46.5 39.1667,46.5 39.5,46.5C 46.1667,46.5 52.8333,46.5 59.5,46.5C 59.8333,46.5 60.1667,46.5 60.5,46.5C 61.1667,46.5 61.8333,46.5 62.5,46.5C 65.8333,46.5 69.1667,46.5 72.5,46.5C 72.5,36.1667 72.5,25.8333 72.5,15.5C 72.5,14.8333 72.5,14.1667 72.5,13.5C 72.5,11.5 72.5,9.5 72.5,7.5C 73.1667,6.16667 73.8333,6.16667 74.5,7.5C 74.5,9.5 74.5,11.5 74.5,13.5C 76.8333,13.5 79.1667,13.5 81.5,13.5C 81.5,14.1667 81.5,14.8333 81.5,15.5C 79.1667,15.5 76.8333,15.5 74.5,15.5C 74.5,26.5 74.5,37.5 74.5,48.5C 66.3409,53.0803 58.0076,57.4136 49.5,61.5C 41.1906,57.6796 33.1906,53.3463 25.5,48.5C 25.1674,34.4841 25.5008,20.4841 26.5,6.5C 27.1067,6.62358 27.44,6.95691 27.5,7.5 Z"/></g>
<g><path style="opacity:1" fill="#cbcbcb" d="M 72.5,15.5 C 72.5,25.8333 72.5,36.1667 72.5,46.5C 69.1667,46.5 65.8333,46.5 62.5,46.5C 62.5,36.1667 62.5,25.8333 62.5,15.5C 65.8333,15.5 69.1667,15.5 72.5,15.5 Z"/></g>
<g><path style="opacity:1" fill="#fefefe" d="M 63.5,16.5 C 66.1667,16.5 68.8333,16.5 71.5,16.5C 71.5,26.1667 71.5,35.8333 71.5,45.5C 68.8333,45.5 66.1667,45.5 63.5,45.5C 63.5,35.8333 63.5,26.1667 63.5,16.5 Z"/></g>
<g><path style="opacity:1" fill="#c0c0c0" d="M 60.5,46.5 C 60.1667,46.5 59.8333,46.5 59.5,46.5C 59.5,36.5 59.5,26.5 59.5,16.5C 52.8333,16.5 46.1667,16.5 39.5,16.5C 39.5,26.5 39.5,36.5 39.5,46.5C 39.1667,46.5 38.8333,46.5 38.5,46.5C 38.5,36.1667 38.5,25.8333 38.5,15.5C 45.8333,15.5 53.1667,15.5 60.5,15.5C 60.5,25.8333 60.5,36.1667 60.5,46.5 Z"/></g>
<g><path style="opacity:1" fill="#fdfdfd" d="M 59.5,46.5 C 52.8333,46.5 46.1667,46.5 39.5,46.5C 39.5,36.5 39.5,26.5 39.5,16.5C 46.1667,16.5 52.8333,16.5 59.5,16.5C 59.5,26.5 59.5,36.5 59.5,46.5 Z"/></g>
<g><path style="opacity:1" fill="#f9f9f9" d="M 27.5,15.5 C 30.5,15.5 33.5,15.5 36.5,15.5C 36.5,25.8333 36.5,36.1667 36.5,46.5C 33.5,46.5 30.5,46.5 27.5,46.5C 27.5,36.1667 27.5,25.8333 27.5,15.5 Z"/></g>
<g><path style="opacity:1" fill="#cacaca" d="M 27.5,7.5 C 30.5,7.5 33.5,7.5 36.5,7.5C 36.5,9.5 36.5,11.5 36.5,13.5C 33.5,13.5 30.5,13.5 27.5,13.5C 26.1667,11.5 26.1667,9.5 27.5,7.5 Z"/></g>
<g><path style="opacity:1" fill="#fcfcfc" d="M 27.5,8.5 C 30.1667,8.5 32.8333,8.5 35.5,8.5C 35.5,9.83333 35.5,11.1667 35.5,12.5C 32.8333,12.5 30.1667,12.5 27.5,12.5C 27.5,11.1667 27.5,9.83333 27.5,8.5 Z"/></g>
<g><path style="opacity:1" fill="#c5c5c5" d="M 72.5,7.5 C 72.5,9.5 72.5,11.5 72.5,13.5C 69.1667,13.5 65.8333,13.5 62.5,13.5C 62.5,11.5 62.5,9.5 62.5,7.5C 65.8333,7.5 69.1667,7.5 72.5,7.5 Z"/></g>
<g><path style="opacity:1" fill="#fcfcfc" d="M 63.5,8.5 C 66.1667,8.5 68.8333,8.5 71.5,8.5C 71.5,9.83333 71.5,11.1667 71.5,12.5C 68.8333,12.5 66.1667,12.5 63.5,12.5C 63.5,11.1667 63.5,9.83333 63.5,8.5 Z"/></g>
<g><path style="opacity:1" fill="#c7c7c7" d="M 38.5,7.5 C 45.8333,7.5 53.1667,7.5 60.5,7.5C 60.5,9.5 60.5,11.5 60.5,13.5C 53.1667,13.5 45.8333,13.5 38.5,13.5C 38.5,11.5 38.5,9.5 38.5,7.5 Z"/></g>
<g><path style="opacity:1" fill="#fcfcfc" d="M 39.5,8.5 C 46.1667,8.5 52.8333,8.5 59.5,8.5C 59.5,9.83333 59.5,11.1667 59.5,12.5C 52.8333,12.5 46.1667,12.5 39.5,12.5C 39.5,11.1667 39.5,9.83333 39.5,8.5 Z"/></g>
<g><path style="opacity:1" fill="#cecece" d="M 65.5,50.5 C 54.8333,49.1667 44.1667,49.1667 33.5,50.5C 32.2438,50.5386 31.2438,50.0386 30.5,49C 43.1667,48.3333 55.8333,48.3333 68.5,49C 67.7562,50.0386 66.7562,50.5386 65.5,50.5 Z"/></g>
<g><path style="opacity:1" fill="#f4f4f4" d="M 65.5,50.5 C 60.5157,53.9955 55.1824,56.9955 49.5,59.5C 43.8176,56.9955 38.4843,53.9955 33.5,50.5C 44.1667,49.1667 54.8333,49.1667 65.5,50.5 Z"/></g>
<g><path style="opacity:1" fill="#b2b2b2" d="M 15.5,303.5 C 15.5,304.833 15.5,306.167 15.5,307.5C 13.9217,306.934 12.5884,305.934 11.5,304.5C 12.6888,303.571 14.0222,303.238 15.5,303.5 Z"/></g>
<g><path style="opacity:1" fill="#adadad" d="M 83.5,303.5 C 85.099,303.232 86.4324,303.566 87.5,304.5C 84.9655,308.772 83.6321,308.439 83.5,303.5 Z"/></g>
<g><path style="opacity:1" fill="#4f4f4f" d="M 81.5,15.5 C 82.1667,113.833 82.8333,212.167 83.5,310.5C 82.5,312.167 81.1667,313.5 79.5,314.5C 77.4458,314.635 75.7791,313.968 74.5,312.5C 73.5,311.833 72.5,311.167 71.5,310.5C 68.3785,308.552 65.3785,306.385 62.5,304C 53.8333,303.333 45.1667,303.333 36.5,304C 33.2658,306.748 29.9324,309.248 26.5,311.5C 25.5,311.833 24.8333,312.5 24.5,313.5C 23.0813,314.451 21.4147,314.784 19.5,314.5C 17.8333,313.5 16.5,312.167 15.5,310.5C 16.1667,308.167 16.8333,305.833 17.5,303.5C 17.5,302.833 17.5,302.167 17.5,301.5C 24.175,301.666 30.8417,301.5 37.5,301C 41.3643,297.908 45.3643,295.074 49.5,292.5C 53.6357,295.074 57.6357,297.908 61.5,301C 68.1583,301.5 74.825,301.666 81.5,301.5C 81.5,206.5 81.5,111.5 81.5,16.5C 81.5,16.1667 81.5,15.8333 81.5,15.5 Z"/></g>
<g><path style="opacity:1" fill="#eeeeee" d="M 81.5,304.5 C 81.6621,306.527 81.4955,308.527 81,310.5C 80.4806,311.516 79.6473,312.182 78.5,312.5C 74.5966,310.922 71.2632,308.588 68.5,305.5C 72.6344,304.515 76.9677,304.182 81.5,304.5 Z"/></g>
<g><path style="opacity:1" fill="#f5f5f5" d="M 71.5,310.5 C 64.3644,311.831 56.8644,312.497 49,312.5C 41.3257,312.5 33.8257,312.166 26.5,311.5C 29.9324,309.248 33.2658,306.748 36.5,304C 45.1667,303.333 53.8333,303.333 62.5,304C 65.3785,306.385 68.3785,308.552 71.5,310.5 Z"/></g>
<g><path style="opacity:1" fill="#f1f1f1" d="M 17.5,304.5 C 22.0323,304.182 26.3656,304.515 30.5,305.5C 27.7868,308.37 24.6201,310.704 21,312.5C 19.7387,312.241 18.7387,311.574 18,310.5C 17.5045,308.527 17.3379,306.527 17.5,304.5 Z"/></g>
<g><path style="opacity:1" fill="#b9b9b9" d="M 81.5,304.5 C 76.9677,304.182 72.6344,304.515 68.5,305.5C 67.7109,305.217 67.0442,304.717 66.5,304C 71.6842,303.184 76.6842,303.35 81.5,304.5 Z"/></g>
<g><path style="opacity:1" fill="#b9b9b9" d="M 17.5,304.5 C 17.5,304.167 17.5,303.833 17.5,303.5C 22.544,303.173 27.544,303.506 32.5,304.5C 32.0431,305.298 31.3764,305.631 30.5,305.5C 26.3656,304.515 22.0323,304.182 17.5,304.5 Z"/></g>
<g><path style="opacity:1" fill="#727272" d="M 41.5,300.5 C 46.8333,301.833 52.1667,301.833 57.5,300.5C 58.0431,300.56 58.3764,300.893 58.5,301.5C 52.5,302.833 46.5,302.833 40.5,301.5C 40.6236,300.893 40.9569,300.56 41.5,300.5 Z"/></g>
<g><path style="opacity:1" fill="#ebebeb" d="M 57.5,300.5 C 52.1667,301.833 46.8333,301.833 41.5,300.5C 43.8405,298.329 46.5072,296.662 49.5,295.5C 52.5293,296.676 55.1959,298.343 57.5,300.5 Z"/></g>
<g><path style="opacity:1" fill="#cbcbcb" d="M 71.5,310.5 C 72.5,311.167 73.5,311.833 74.5,312.5C 58.0084,313.497 41.3417,313.83 24.5,313.5C 24.8333,312.5 25.5,311.833 26.5,311.5C 33.8257,312.166 41.3257,312.5 49,312.5C 56.8644,312.497 64.3644,311.831 71.5,310.5 Z"/></g>
<g><path style="opacity:1" fill="#525252" d="M 74.5,312.5 C 75.7791,313.968 77.4458,314.635 79.5,314.5C 59.5,315.833 39.5,315.833 19.5,314.5C 21.4147,314.784 23.0813,314.451 24.5,313.5C 41.3417,313.83 58.0084,313.497 74.5,312.5 Z"/></g>
</svg>
