<?xml version="1.0" encoding="UTF-8"?>
<!DOCTYPE svg PUBLIC "-//W3C//DTD SVG 1.1//EN" "http://www.w3.org/Graphics/SVG/1.1/DTD/svg11.dtd">
<svg xmlns="http://www.w3.org/2000/svg" version="1.1" width="842px" height="157px" style="shape-rendering:geometricPrecision; text-rendering:geometricPrecision; image-rendering:optimizeQuality; fill-rule:evenodd; clip-rule:evenodd" xmlns:xlink="http://www.w3.org/1999/xlink">
<g><path style="opacity:1" fill="#fdfdfd" d="M -0.5,-0.5 C 280.167,-0.5 560.833,-0.5 841.5,-0.5C 841.5,51.8333 841.5,104.167 841.5,156.5C 560.833,156.5 280.167,156.5 -0.5,156.5C -0.5,104.167 -0.5,51.8333 -0.5,-0.5 Z"/></g>
<g><path style="opacity:1" fill="#101010" d="M 24.5,9.5 C 181.833,9.5 339.167,9.5 496.5,9.5C 496.5,10.8333 496.5,12.1667 496.5,13.5C 496.5,15.8333 496.5,18.1667 496.5,20.5C 495.833,20.1667 495.167,19.8333 494.5,19.5C 494.5,16.8333 494.5,14.1667 494.5,11.5C 337.833,10.8333 181.167,10.1667 24.5,9.5 Z"/></g>
<g><path style="opacity:1" fill="#f9f9f9" d="M 494.5,11.5 C 494.5,14.1667 494.5,16.8333 494.5,19.5C 494.5,20.5 494.5,21.5 494.5,22.5C 338.167,22.5 181.833,22.5 25.5,22.5C 25.5,18.8333 25.5,15.1667 25.5,11.5C 181.833,11.5 338.167,11.5 494.5,11.5 Z"/></g>
<g><path style="opacity:1" fill="#f8f8f7" d="M 821.5,42.5 C 822.929,45.6963 824.595,48.6963 826.5,51.5C 837.73,84.7632 829.396,111.93 801.5,133C 772.836,149.023 745.836,146.689 720.5,126C 697.701,101.745 693.535,74.5782 708,44.5C 724.035,19.5679 746.868,8.73461 776.5,12C 796.005,15.736 811.005,25.9027 821.5,42.5 Z"/></g>
<g><path style="opacity:1" fill="#f0eff0" d="M 496.5,13.5 C 499.631,16.1288 502.631,18.9621 505.5,22C 504,22.1667 502.5,22.3333 501,22.5C 499.014,22.4313 497.514,21.7647 496.5,20.5C 496.5,18.1667 496.5,15.8333 496.5,13.5 Z"/></g>
<g><path style="opacity:1" fill="#242424" d="M 822.5,42.5 C 822.167,42.5 821.833,42.5 821.5,42.5C 811.005,25.9027 796.005,15.736 776.5,12C 746.868,8.73461 724.035,19.5679 708,44.5C 693.535,74.5782 697.701,101.745 720.5,126C 745.836,146.689 772.836,149.023 801.5,133C 829.396,111.93 837.73,84.7632 826.5,51.5C 826.5,50.8333 826.833,50.5 827.5,50.5C 832.008,59.0195 834.008,68.1861 833.5,78C 830.531,116.638 809.864,138.971 771.5,145C 743.634,146.506 722.134,135.673 707,112.5C 690.496,79.6891 695.33,50.5224 721.5,25C 743.536,8.2288 767.536,4.89546 793.5,15C 804.761,20.0931 814.094,27.5931 821.5,37.5C 822.452,39.0453 822.785,40.712 822.5,42.5 Z"/></g>
<g><path style="opacity:1" fill="#3c3c3c" d="M 24.5,9.5 C 181.167,10.1667 337.833,10.8333 494.5,11.5C 338.167,11.5 181.833,11.5 25.5,11.5C 25.5,15.1667 25.5,18.8333 25.5,22.5C 24.8333,19.5 24.1667,16.5 23.5,13.5C 19.7653,15.7246 16.432,18.558 13.5,22C 16.8168,22.4983 20.1501,22.665 23.5,22.5C 23.5,22.8333 23.5,23.1667 23.5,23.5C 19.8333,23.5 16.1667,23.5 12.5,23.5C 12.5,28.5 12.5,33.5 12.5,38.5C 11.8333,37.1667 11.1667,35.8333 10.5,34.5C 10.3343,30.1539 10.501,25.8206 11,21.5C 15.0937,16.8983 19.5937,12.8983 24.5,9.5 Z"/></g>
<g><path style="opacity:1" fill="#e1e1e1" d="M 23.5,13.5 C 23.5,16.5 23.5,19.5 23.5,22.5C 20.1501,22.665 16.8168,22.4983 13.5,22C 16.432,18.558 19.7653,15.7246 23.5,13.5 Z"/></g>
<g><path style="opacity:1" fill="#f8f8f8" d="M 23.5,23.5 C 23.5,28.5 23.5,33.5 23.5,38.5C 19.8333,38.5 16.1667,38.5 12.5,38.5C 12.5,33.5 12.5,28.5 12.5,23.5C 16.1667,23.5 19.8333,23.5 23.5,23.5 Z"/></g>
<g><path style="opacity:1" fill="#fefefe" d="M 25.5,23.5 C 181.833,23.5 338.167,23.5 494.5,23.5C 494.667,34.8382 494.5,46.1716 494,57.5C 491.98,59.5506 490.48,61.8839 489.5,64.5C 487.738,65.2623 486.738,66.5956 486.5,68.5C 484.1,70.2964 482.433,72.6298 481.5,75.5C 478.941,77.4566 479.274,79.1233 482.5,80.5C 482.427,82.0269 483.094,83.0269 484.5,83.5C 484.738,85.4044 485.738,86.7377 487.5,87.5C 487.738,89.4044 488.738,90.7377 490.5,91.5C 491.391,93.6089 492.558,95.6089 494,97.5C 494.5,108.828 494.667,120.162 494.5,131.5C 355.457,132.164 216.623,131.497 78,129.5C 60.7375,131.478 43.2375,132.145 25.5,131.5C 25.5,126.5 25.5,121.5 25.5,116.5C 42.8333,116.5 60.1667,116.5 77.5,116.5C 77.3505,117.552 77.5172,118.552 78,119.5C 79.9885,114.7 82.1552,110.034 84.5,105.5C 86.2503,104.341 87.2503,102.674 87.5,100.5C 89.5587,98.7396 90.892,96.4062 91.5,93.5C 93.588,91.6644 94.9213,89.3311 95.5,86.5C 97.588,84.6644 98.9213,82.3311 99.5,79.5C 100.478,79.189 101.145,78.5223 101.5,77.5C 100.639,75.0894 99.3056,73.0894 97.5,71.5C 95.9565,66.9758 93.6232,62.9758 90.5,59.5C 88.8412,54.1734 86.1745,49.5067 82.5,45.5C 82.2503,43.326 81.2503,41.6594 79.5,40.5C 61.8644,38.5134 43.8644,37.8467 25.5,38.5C 25.5,33.5 25.5,28.5 25.5,23.5 Z"/></g>
<g><path style="opacity:1" fill="#2e2e2e" d="M 496.5,9.5 C 501.244,14.9176 507.578,21.2509 515.5,28.5C 515.5,60.8333 515.5,93.1667 515.5,125.5C 510.583,130.944 504.583,137.111 497.5,144C 498.5,144.333 499.5,144.667 500.5,145C 498.866,145.494 497.199,145.66 495.5,145.5C 495.792,144.126 496.125,142.793 496.5,141.5C 499.631,138.871 502.631,136.038 505.5,133C 502.518,132.502 499.518,132.335 496.5,132.5C 496.5,132.167 496.5,131.833 496.5,131.5C 504.629,133.627 510.296,130.96 513.5,123.5C 514.833,92.5 514.833,61.5 513.5,30.5C 509.708,23.9996 504.041,21.6663 496.5,23.5C 496.334,33.1724 496.5,42.8391 497,52.5C 497.708,51.6195 498.542,50.9528 499.5,50.5C 499.315,52.1958 498.481,53.5291 497,54.5C 496.502,57.4816 496.335,60.4816 496.5,63.5C 495.833,63.5 495.167,63.5 494.5,63.5C 494.657,62.1266 494.49,60.7932 494,59.5C 492.951,61.6175 491.451,63.2842 489.5,64.5C 490.48,61.8839 491.98,59.5506 494,57.5C 494.5,46.1716 494.667,34.8382 494.5,23.5C 338.167,23.5 181.833,23.5 25.5,23.5C 25.5,23.1667 25.5,22.8333 25.5,22.5C 181.833,22.5 338.167,22.5 494.5,22.5C 494.5,21.5 494.5,20.5 494.5,19.5C 495.167,19.8333 495.833,20.1667 496.5,20.5C 497.514,21.7647 499.014,22.4313 501,22.5C 502.5,22.3333 504,22.1667 505.5,22C 502.631,18.9621 499.631,16.1288 496.5,13.5C 496.5,12.1667 496.5,10.8333 496.5,9.5 Z"/></g>
<g><path style="opacity:1" fill="#fafafa" d="M 513.5,30.5 C 512.662,30.8417 512.328,31.5084 512.5,32.5C 510.738,33.2623 509.738,34.5956 509.5,36.5C 508.094,36.9731 507.427,37.9731 507.5,39.5C 505.738,40.2623 504.738,41.5956 504.5,43.5C 503.094,43.9731 502.427,44.9731 502.5,46.5C 500.738,47.2623 499.738,48.5956 499.5,50.5C 498.542,50.9528 497.708,51.6195 497,52.5C 496.5,42.8391 496.334,33.1724 496.5,23.5C 504.041,21.6663 509.708,23.9996 513.5,30.5 Z"/></g>
<g><path style="opacity:1" fill="#fdfdfc" d="M 512.5,32.5 C 513.664,61.9972 513.831,91.6638 513,121.5C 512.34,119.676 511.173,118.343 509.5,117.5C 509.262,115.596 508.262,114.262 506.5,113.5C 504.6,109.268 501.933,105.601 498.5,102.5C 498.539,101.244 498.039,100.244 497,99.5C 496.5,87.5046 496.333,75.5046 496.5,63.5C 496.335,60.4816 496.502,57.4816 497,54.5C 498.481,53.5291 499.315,52.1958 499.5,50.5C 501.262,49.7377 502.262,48.4044 502.5,46.5C 503.906,46.0269 504.573,45.0269 504.5,43.5C 506.262,42.7377 507.262,41.4044 507.5,39.5C 508.906,39.0269 509.573,38.0269 509.5,36.5C 511.262,35.7377 512.262,34.4044 512.5,32.5 Z"/></g>
<g><path style="opacity:1" fill="#4b4b4b" d="M 512.5,32.5 C 512.262,34.4044 511.262,35.7377 509.5,36.5C 509.738,34.5956 510.738,33.2623 512.5,32.5 Z"/></g>
<g><path style="opacity:1" fill="#474747" d="M 509.5,36.5 C 509.573,38.0269 508.906,39.0269 507.5,39.5C 507.427,37.9731 508.094,36.9731 509.5,36.5 Z"/></g>
<g><path style="opacity:1" fill="#fefefe" d="M 77.5,39.5 C 77.5,45.5 77.5,51.5 77.5,57.5C 60.1667,57.5 42.8333,57.5 25.5,57.5C 25.5,51.5 25.5,45.5 25.5,39.5C 42.8333,39.5 60.1667,39.5 77.5,39.5 Z"/></g>
<g><path style="opacity:1" fill="#4e4d4c" d="M 513.5,30.5 C 514.833,61.5 514.833,92.5 513.5,123.5C 511.674,121.853 510.34,119.853 509.5,117.5C 511.173,118.343 512.34,119.676 513,121.5C 513.831,91.6638 513.664,61.9972 512.5,32.5C 512.328,31.5084 512.662,30.8417 513.5,30.5 Z"/></g>
<g><path style="opacity:1" fill="#bfbfbe" d="M 515.5,28.5 C 516.552,28.3505 517.552,28.5172 518.5,29C 517.174,44.7801 516.508,60.7801 516.5,77C 516.504,93.0725 516.837,109.072 517.5,125C 516.906,125.464 516.239,125.631 515.5,125.5C 515.5,93.1667 515.5,60.8333 515.5,28.5 Z"/></g>
<g><path style="opacity:1" fill="#fdfdfc" d="M 797.5,58.5 C 797.5,71.1667 797.5,83.8333 797.5,96.5C 786.823,102.504 776.157,108.504 765.5,114.5C 754.843,108.504 744.177,102.504 733.5,96.5C 733.5,83.8333 733.5,71.1667 733.5,58.5C 744.103,52.1928 754.77,45.8595 765.5,39.5C 776.23,45.8595 786.897,52.1928 797.5,58.5 Z"/></g>
<g><path style="opacity:1" fill="#4c4c4c" d="M 507.5,39.5 C 507.262,41.4044 506.262,42.7377 504.5,43.5C 504.738,41.5956 505.738,40.2623 507.5,39.5 Z"/></g>
<g><path style="opacity:1" fill="#474747" d="M 504.5,43.5 C 504.573,45.0269 503.906,46.0269 502.5,46.5C 502.427,44.9731 503.094,43.9731 504.5,43.5 Z"/></g>
<g><path style="opacity:1" fill="#fbfbfb" d="M 82.5,45.5 C 84.6643,50.5003 87.331,55.167 90.5,59.5C 92.0435,64.0242 94.3768,68.0242 97.5,71.5C 98.7496,74.006 99.4162,76.6726 99.5,79.5C 97.412,81.3356 96.0787,83.6689 95.5,86.5C 93.412,88.3356 92.0787,90.6689 91.5,93.5C 89.412,95.3356 88.0787,97.6689 87.5,100.5C 85.7497,101.659 84.7497,103.326 84.5,105.5C 82.7775,107.253 81.2775,109.253 80,111.5C 79.3333,88.5 79.3333,65.5 80,42.5C 80.3768,43.9423 81.2101,44.9423 82.5,45.5 Z"/></g>
<g><path style="opacity:1" fill="#252423" d="M 800.5,96.5 C 799.778,96.0825 799.278,95.4158 799,94.5C 798.831,82.3263 798.331,70.3263 797.5,58.5C 786.897,52.1928 776.23,45.8595 765.5,39.5C 754.77,45.8595 744.103,52.1928 733.5,58.5C 732.669,70.6599 732.169,82.9932 732,95.5C 731.617,96.056 731.117,96.3893 730.5,96.5C 721.183,75.5759 725.517,58.0759 743.5,44C 754.562,37.7411 766.228,35.7411 778.5,38C 777.833,38.3333 777.167,38.6667 776.5,39C 797.529,46.8831 807.029,62.0497 805,84.5C 803.79,88.6338 802.29,92.6338 800.5,96.5 Z"/></g>
<g><path style="opacity:1" fill="#999999" d="M 821.5,42.5 C 821.833,42.5 822.167,42.5 822.5,42.5C 824.153,45.1305 825.819,47.7972 827.5,50.5C 826.833,50.5 826.5,50.8333 826.5,51.5C 824.595,48.6963 822.929,45.6963 821.5,42.5 Z"/></g>
<g><path style="opacity:1" fill="#4e4e4e" d="M 502.5,46.5 C 502.262,48.4044 501.262,49.7377 499.5,50.5C 499.738,48.5956 500.738,47.2623 502.5,46.5 Z"/></g>
<g><path style="opacity:1" fill="#535353" d="M 82.5,45.5 C 86.1745,49.5067 88.8412,54.1734 90.5,59.5C 87.331,55.167 84.6643,50.5003 82.5,45.5 Z"/></g>
<g><path style="opacity:1" fill="#fdfdfc" d="M 77.5,58.5 C 77.5,71.1667 77.5,83.8333 77.5,96.5C 60.1667,96.5 42.8333,96.5 25.5,96.5C 25.5,83.8333 25.5,71.1667 25.5,58.5C 42.8333,58.5 60.1667,58.5 77.5,58.5 Z"/></g>
<g><path style="opacity:1" fill="#767676" d="M 77.5,39.5 C 78.1667,39.8333 78.8333,40.1667 79.5,40.5C 81.2503,41.6594 82.2503,43.326 82.5,45.5C 81.2101,44.9423 80.3768,43.9423 80,42.5C 79.3333,65.5 79.3333,88.5 80,111.5C 81.2775,109.253 82.7775,107.253 84.5,105.5C 82.1552,110.034 79.9885,114.7 78,119.5C 77.5172,118.552 77.3505,117.552 77.5,116.5C 77.5,116.167 77.5,115.833 77.5,115.5C 77.5,109.5 77.5,103.5 77.5,97.5C 60.1667,97.5 42.8333,97.5 25.5,97.5C 25.5,97.1667 25.5,96.8333 25.5,96.5C 42.8333,96.5 60.1667,96.5 77.5,96.5C 77.5,83.8333 77.5,71.1667 77.5,58.5C 78.8333,58.1667 78.8333,57.8333 77.5,57.5C 77.5,51.5 77.5,45.5 77.5,39.5 Z"/></g>
<g><path style="opacity:1" fill="#1d1c1c" d="M 23.5,13.5 C 24.1667,16.5 24.8333,19.5 25.5,22.5C 25.5,22.8333 25.5,23.1667 25.5,23.5C 25.5,28.5 25.5,33.5 25.5,38.5C 43.8644,37.8467 61.8644,38.5134 79.5,40.5C 78.8333,40.1667 78.1667,39.8333 77.5,39.5C 60.1667,39.5 42.8333,39.5 25.5,39.5C 25.5,45.5 25.5,51.5 25.5,57.5C 42.8333,57.5 60.1667,57.5 77.5,57.5C 78.8333,57.8333 78.8333,58.1667 77.5,58.5C 60.1667,58.5 42.8333,58.5 25.5,58.5C 25.5,71.1667 25.5,83.8333 25.5,96.5C 25.5,96.8333 25.5,97.1667 25.5,97.5C 25.5,103.5 25.5,109.5 25.5,115.5C 42.8333,115.5 60.1667,115.5 77.5,115.5C 77.5,115.833 77.5,116.167 77.5,116.5C 60.1667,116.5 42.8333,116.5 25.5,116.5C 24.8333,121.167 24.1667,125.833 23.5,130.5C 23.5,125.833 23.5,121.167 23.5,116.5C 19.8333,116.5 16.1667,116.5 12.5,116.5C 11.8333,120.833 11.1667,125.167 10.5,129.5C 10.5,124.167 10.5,118.833 10.5,113.5C 11.1667,114.167 11.8333,114.833 12.5,115.5C 16.1667,115.5 19.8333,115.5 23.5,115.5C 23.8229,109.31 23.4896,103.31 22.5,97.5C 22.5,97.1667 22.5,96.8333 22.5,96.5C 23.8333,83.8333 23.8333,71.1667 22.5,58.5C 19.1667,58.5 15.8333,58.5 12.5,58.5C 11.8333,71.1667 11.1667,83.8333 10.5,96.5C 10.5,75.8333 10.5,55.1667 10.5,34.5C 11.1667,35.8333 11.8333,37.1667 12.5,38.5C 16.1667,38.5 19.8333,38.5 23.5,38.5C 23.5,33.5 23.5,28.5 23.5,23.5C 23.5,23.1667 23.5,22.8333 23.5,22.5C 23.5,19.5 23.5,16.5 23.5,13.5 Z"/></g>
<g><path style="opacity:1" fill="#fefdfe" d="M 12.5,58.5 C 15.8333,58.5 19.1667,58.5 22.5,58.5C 22.5,70.8333 22.5,83.1667 22.5,95.5C 19.1667,95.5 15.8333,95.5 12.5,95.5C 12.5,83.1667 12.5,70.8333 12.5,58.5 Z"/></g>
<g><path style="opacity:1" fill="#f8f7f8" d="M 12.5,39.5 C 16.1667,39.5 19.8333,39.5 23.5,39.5C 23.5,45.5 23.5,51.5 23.5,57.5C 19.8333,57.5 16.1667,57.5 12.5,57.5C 12.5,51.5 12.5,45.5 12.5,39.5 Z"/></g>
<g><path style="opacity:1" fill="#faf9f9" d="M 494.5,63.5 C 494.667,74.1719 494.5,84.8385 494,95.5C 493.34,93.6763 492.173,92.343 490.5,91.5C 490.262,89.5956 489.262,88.2623 487.5,87.5C 487.262,85.5956 486.262,84.2623 484.5,83.5C 484.573,81.9731 483.906,80.9731 482.5,80.5C 481.962,78.8828 481.629,77.2161 481.5,75.5C 483.9,73.7036 485.567,71.3702 486.5,68.5C 488.262,67.7377 489.262,66.4044 489.5,64.5C 491.451,63.2842 492.951,61.6175 494,59.5C 494.49,60.7932 494.657,62.1266 494.5,63.5 Z"/></g>
<g><path style="opacity:1" fill="#838181" d="M 797.5,58.5 C 798.331,70.3263 798.831,82.3263 799,94.5C 799.278,95.4158 799.778,96.0825 800.5,96.5C 800.068,97.7095 799.401,98.7095 798.5,99.5C 798.737,98.209 798.404,97.209 797.5,96.5C 797.5,83.8333 797.5,71.1667 797.5,58.5 Z"/></g>
<g><path style="opacity:1" fill="#50504f" d="M 489.5,64.5 C 489.262,66.4044 488.262,67.7377 486.5,68.5C 486.738,66.5956 487.738,65.2623 489.5,64.5 Z"/></g>
<g><path style="opacity:1" fill="#525252" d="M 90.5,59.5 C 93.6232,62.9758 95.9565,66.9758 97.5,71.5C 94.3768,68.0242 92.0435,64.0242 90.5,59.5 Z"/></g>
<g><path style="opacity:1" fill="#878684" d="M 729.5,89.5 C 730.833,81.5 730.833,73.5 729.5,65.5C 729.987,64.5266 730.487,63.5266 731,62.5C 731.667,72.1667 731.667,81.8333 731,91.5C 730.283,90.9558 729.783,90.2891 729.5,89.5 Z"/></g>
<g><path style="opacity:1" fill="#515151" d="M 486.5,68.5 C 485.567,71.3702 483.9,73.7036 481.5,75.5C 482.433,72.6298 484.1,70.2964 486.5,68.5 Z"/></g>
<g><path style="opacity:1" fill="#eceaeb" d="M 801.5,65.5 C 804.112,73.4639 804.112,81.4639 801.5,89.5C 800.167,81.5 800.167,73.5 801.5,65.5 Z"/></g>
<g><path style="opacity:1" fill="#4d4d4d" d="M 97.5,71.5 C 99.3056,73.0894 100.639,75.0894 101.5,77.5C 101.145,78.5223 100.478,79.189 99.5,79.5C 99.4162,76.6726 98.7496,74.006 97.5,71.5 Z"/></g>
<g><path style="opacity:1" fill="#4f4f4f" d="M 481.5,75.5 C 481.629,77.2161 481.962,78.8828 482.5,80.5C 479.274,79.1233 478.941,77.4566 481.5,75.5 Z"/></g>
<g><path style="opacity:1" fill="#868485" d="M 801.5,65.5 C 800.167,73.5 800.167,81.5 801.5,89.5C 801.013,90.4734 800.513,91.4734 800,92.5C 799.333,82.5 799.333,72.5 800,62.5C 801.039,63.2438 801.539,64.2438 801.5,65.5 Z"/></g>
<g><path style="opacity:1" fill="#c1c0c1" d="M 22.5,58.5 C 23.8333,71.1667 23.8333,83.8333 22.5,96.5C 18.9581,96.8128 15.6248,96.4794 12.5,95.5C 15.8333,95.5 19.1667,95.5 22.5,95.5C 22.5,83.1667 22.5,70.8333 22.5,58.5 Z"/></g>
<g><path style="opacity:1" fill="#414141" d="M 482.5,80.5 C 483.906,80.9731 484.573,81.9731 484.5,83.5C 483.094,83.0269 482.427,82.0269 482.5,80.5 Z"/></g>
<g><path style="opacity:1" fill="#505050" d="M 99.5,79.5 C 98.9213,82.3311 97.588,84.6644 95.5,86.5C 96.0787,83.6689 97.412,81.3356 99.5,79.5 Z"/></g>
<g><path style="opacity:1" fill="#e7e6e4" d="M 729.5,65.5 C 730.833,73.5 730.833,81.5 729.5,89.5C 726.893,81.4927 726.893,73.4927 729.5,65.5 Z"/></g>
<g><path style="opacity:1" fill="#4a4a4a" d="M 484.5,83.5 C 486.262,84.2623 487.262,85.5956 487.5,87.5C 485.738,86.7377 484.738,85.4044 484.5,83.5 Z"/></g>
<g><path style="opacity:1" fill="#838280" d="M 733.5,58.5 C 733.5,71.1667 733.5,83.8333 733.5,96.5C 732.596,97.209 732.263,98.209 732.5,99.5C 731.599,98.7095 730.932,97.7095 730.5,96.5C 731.117,96.3893 731.617,96.056 732,95.5C 732.169,82.9932 732.669,70.6599 733.5,58.5 Z"/></g>
<g><path style="opacity:1" fill="#4f4f4f" d="M 95.5,86.5 C 94.9213,89.3311 93.588,91.6644 91.5,93.5C 92.0787,90.6689 93.412,88.3356 95.5,86.5 Z"/></g>
<g><path style="opacity:1" fill="#474647" d="M 487.5,87.5 C 489.262,88.2623 490.262,89.5956 490.5,91.5C 488.738,90.7377 487.738,89.4044 487.5,87.5 Z"/></g>
<g><path style="opacity:1" fill="#f8f7f8" d="M 22.5,97.5 C 23.4896,103.31 23.8229,109.31 23.5,115.5C 19.8333,115.5 16.1667,115.5 12.5,115.5C 12.5,109.5 12.5,103.5 12.5,97.5C 15.8333,97.5 19.1667,97.5 22.5,97.5 Z"/></g>
<g><path style="opacity:1" fill="#fefefe" d="M 25.5,97.5 C 42.8333,97.5 60.1667,97.5 77.5,97.5C 77.5,103.5 77.5,109.5 77.5,115.5C 60.1667,115.5 42.8333,115.5 25.5,115.5C 25.5,109.5 25.5,103.5 25.5,97.5 Z"/></g>
<g><path style="opacity:1" fill="#7d7d7d" d="M 91.5,93.5 C 90.892,96.4062 89.5587,98.7396 87.5,100.5C 88.0787,97.6689 89.412,95.3356 91.5,93.5 Z"/></g>
<g><path style="opacity:1" fill="#4d4d4d" d="M 87.5,100.5 C 87.2503,102.674 86.2503,104.341 84.5,105.5C 84.7497,103.326 85.7497,101.659 87.5,100.5 Z"/></g>
<g><path style="opacity:1" fill="#373637" d="M 12.5,58.5 C 12.5,70.8333 12.5,83.1667 12.5,95.5C 15.6248,96.4794 18.9581,96.8128 22.5,96.5C 22.5,96.8333 22.5,97.1667 22.5,97.5C 19.1667,97.5 15.8333,97.5 12.5,97.5C 12.5,103.5 12.5,109.5 12.5,115.5C 11.8333,114.833 11.1667,114.167 10.5,113.5C 10.5,107.833 10.5,102.167 10.5,96.5C 11.1667,83.8333 11.8333,71.1667 12.5,58.5 Z"/></g>
<g><path style="opacity:1" fill="#f8f8f8" d="M 498.5,102.5 C 500.4,106.732 503.067,110.399 506.5,113.5C 506.738,115.404 507.738,116.738 509.5,117.5C 510.34,119.853 511.674,121.853 513.5,123.5C 510.296,130.96 504.629,133.627 496.5,131.5C 496.334,121.494 496.5,111.494 497,101.5C 497.383,102.056 497.883,102.389 498.5,102.5 Z"/></g>
<g><path style="opacity:1" fill="#515151" d="M 498.5,102.5 C 501.933,105.601 504.6,109.268 506.5,113.5C 503.067,110.399 500.4,106.732 498.5,102.5 Z"/></g>
<g><path style="opacity:1" fill="#21201f" d="M 733.5,96.5 C 744.177,102.504 754.843,108.504 765.5,114.5C 776.157,108.504 786.823,102.504 797.5,96.5C 798.404,97.209 798.737,98.209 798.5,99.5C 791.39,109.483 782.39,115.15 771.5,116.5C 768.368,115.988 765.035,115.988 761.5,116.5C 749.22,115.197 739.553,109.53 732.5,99.5C 732.263,98.209 732.596,97.209 733.5,96.5 Z"/></g>
<g><path style="opacity:1" fill="#dfdedc" d="M 736.5,100.5 C 744.311,105.241 752.311,109.741 760.5,114C 750.244,113.375 742.244,108.875 736.5,100.5 Z"/></g>
<g><path style="opacity:1" fill="#dfdfde" d="M 793.5,100.5 C 794.239,100.369 794.906,100.536 795.5,101C 789.139,108.512 781.139,112.845 771.5,114C 779.064,109.726 786.398,105.226 793.5,100.5 Z"/></g>
<g><path style="opacity:1" fill="#313131" d="M 759.5,20.5 C 793.657,20.5574 813.824,36.8908 820,69.5C 821.237,97.4893 810.404,117.323 787.5,129C 778.821,132.924 769.821,134.09 760.5,132.5C 787.217,132.117 805.384,120.117 815,96.5C 822.639,70.0854 815.805,48.252 794.5,31C 761.606,15.1912 736.439,23.3579 719,55.5C 716.547,61.3098 714.714,67.3098 713.5,73.5C 716.593,45.3958 731.926,27.7291 759.5,20.5 Z"/></g>
<g><path style="opacity:1" fill="#e5e4e4" d="M 754.5,40.5 C 755.873,40.3433 757.207,40.51 758.5,41C 751.559,45.9922 744.226,49.9922 736.5,53C 741.598,47.3807 747.598,43.214 754.5,40.5 Z"/></g>
<g><path style="opacity:1" fill="#e1e0de" d="M 772.5,41.5 C 777.039,40.8881 781.373,42.0547 785.5,45C 789.132,47.6298 792.465,50.6298 795.5,54C 787.667,50.4117 780,46.245 772.5,41.5 Z"/></g>
<g><path style="opacity:1" fill="#474747" d="M 506.5,113.5 C 508.262,114.262 509.262,115.596 509.5,117.5C 507.738,116.738 506.738,115.404 506.5,113.5 Z"/></g>
<g><path style="opacity:1" fill="#81807e" d="M 771.5,116.5 C 768.031,117.7 764.698,117.7 761.5,116.5C 765.035,115.988 768.368,115.988 771.5,116.5 Z"/></g>
<g><path style="opacity:1" fill="#4d4b4c" d="M 494.5,131.5 C 494.5,131.833 494.5,132.167 494.5,132.5C 355.457,131.836 216.623,132.503 78,134.5C 60.7375,132.522 43.2375,131.855 25.5,132.5C 25.5,132.167 25.5,131.833 25.5,131.5C 43.2375,132.145 60.7375,131.478 78,129.5C 216.623,131.497 355.457,132.164 494.5,131.5 Z"/></g>
<g><path style="opacity:1" fill="#fefefe" d="M 25.5,132.5 C 43.2375,131.855 60.7375,132.522 78,134.5C 216.623,132.503 355.457,131.836 494.5,132.5C 494.5,136.167 494.5,139.833 494.5,143.5C 338.167,143.5 181.833,143.5 25.5,143.5C 25.5,139.833 25.5,136.167 25.5,132.5 Z"/></g>
<g><path style="opacity:1" fill="#f4f4f4" d="M 496.5,132.5 C 499.518,132.335 502.518,132.502 505.5,133C 502.631,136.038 499.631,138.871 496.5,141.5C 496.5,138.5 496.5,135.5 496.5,132.5 Z"/></g>
<g><path style="opacity:1" fill="#111111" d="M 494.5,63.5 C 495.167,63.5 495.833,63.5 496.5,63.5C 496.333,75.5046 496.5,87.5046 497,99.5C 498.039,100.244 498.539,101.244 498.5,102.5C 497.883,102.389 497.383,102.056 497,101.5C 496.5,111.494 496.334,121.494 496.5,131.5C 496.5,131.833 496.5,132.167 496.5,132.5C 496.5,135.5 496.5,138.5 496.5,141.5C 496.125,142.793 495.792,144.126 495.5,145.5C 338.694,145.585 182.027,145.585 25.5,145.5C 24.4937,144.604 24.4937,143.938 25.5,143.5C 181.833,143.5 338.167,143.5 494.5,143.5C 494.5,139.833 494.5,136.167 494.5,132.5C 494.5,132.167 494.5,131.833 494.5,131.5C 494.667,120.162 494.5,108.828 494,97.5C 492.558,95.6089 491.391,93.6089 490.5,91.5C 492.173,92.343 493.34,93.6763 494,95.5C 494.5,84.8385 494.667,74.1719 494.5,63.5 Z"/></g>
<g><path style="opacity:1" fill="#303030" d="M 12.5,116.5 C 12.5,121.5 12.5,126.5 12.5,131.5C 16.3714,131.815 20.0381,131.482 23.5,130.5C 24.1667,125.833 24.8333,121.167 25.5,116.5C 25.5,121.5 25.5,126.5 25.5,131.5C 25.5,131.833 25.5,132.167 25.5,132.5C 25.5,136.167 25.5,139.833 25.5,143.5C 24.4937,143.938 24.4937,144.604 25.5,145.5C 20.5937,142.102 16.0937,138.102 12,133.5C 11.6667,133.833 11.3333,134.167 11,134.5C 10.5065,132.866 10.3398,131.199 10.5,129.5C 11.1667,125.167 11.8333,120.833 12.5,116.5 Z"/></g>
<g><path style="opacity:1" fill="#f0f0f0" d="M 14.5,133.5 C 17.2869,132.523 20.2869,132.19 23.5,132.5C 23.6646,135.518 23.498,138.518 23,141.5C 20.2972,138.629 17.4639,135.962 14.5,133.5 Z"/></g>
<g><path style="opacity:1" fill="#f5f5f5" d="M 12.5,116.5 C 16.1667,116.5 19.8333,116.5 23.5,116.5C 23.5,121.167 23.5,125.833 23.5,130.5C 20.0381,131.482 16.3714,131.815 12.5,131.5C 12.5,126.5 12.5,121.5 12.5,116.5 Z"/></g>
</svg>
