<?xml version="1.0" encoding="UTF-8"?>
<!DOCTYPE svg PUBLIC "-//W3C//DTD SVG 1.1//EN" "http://www.w3.org/Graphics/SVG/1.1/DTD/svg11.dtd">
<svg xmlns="http://www.w3.org/2000/svg" version="1.1" width="176px" height="412px" style="shape-rendering:geometricPrecision; text-rendering:geometricPrecision; image-rendering:optimizeQuality; fill-rule:evenodd; clip-rule:evenodd" xmlns:xlink="http://www.w3.org/1999/xlink">
<g><path style="opacity:1" fill="#fefefe" d="M -0.5,-0.5 C 58.1667,-0.5 116.833,-0.5 175.5,-0.5C 175.5,136.833 175.5,274.167 175.5,411.5C 116.833,411.5 58.1667,411.5 -0.5,411.5C -0.5,274.167 -0.5,136.833 -0.5,-0.5 Z"/></g>
<g><path style="opacity:1" fill="#2d2d2d" d="M 51.5,10.5 C 51.8417,11.3382 52.5084,11.6716 53.5,11.5C 53.5,13.5 53.5,15.5 53.5,17.5C 52.8333,17.5 52.1667,17.5 51.5,17.5C 51.3536,12.5789 50.3536,12.5789 48.5,17.5C 47.609,16.8902 46.609,16.5569 45.5,16.5C 45.8333,15.8333 46.1667,15.1667 46.5,14.5C 48.1667,13.1667 49.8333,11.8333 51.5,10.5 Z"/></g>
<g><path style="opacity:1" fill="#aeaeae" d="M 51.5,17.5 C 50.5,17.5 49.5,17.5 48.5,17.5C 50.3536,12.5789 51.3536,12.5789 51.5,17.5 Z"/></g>
<g><path style="opacity:1" fill="#818181" d="M 53.5,17.5 C 53.5,15.5 53.5,13.5 53.5,11.5C 75.6604,10.5026 97.9938,10.1692 120.5,10.5C 120.5,12.8333 120.5,15.1667 120.5,17.5C 98.1667,17.5 75.8333,17.5 53.5,17.5 Z"/></g>
<g><path style="opacity:1" fill="#fbfbfb" d="M 54.5,11.5 C 76.1667,11.5 97.8333,11.5 119.5,11.5C 119.5,13.1667 119.5,14.8333 119.5,16.5C 97.8333,16.5 76.1667,16.5 54.5,16.5C 54.5,14.8333 54.5,13.1667 54.5,11.5 Z"/></g>
<g><path style="opacity:1" fill="#111111" d="M 128.5,15.5 C 128.833,16.1667 129.167,16.8333 129.5,17.5C 129.672,18.4916 129.338,19.1583 128.5,19.5C 126.5,18.1667 124.5,18.1667 122.5,19.5C 121.833,19.5 121.167,19.5 120.5,19.5C 98.1667,18.1667 75.8333,18.1667 53.5,19.5C 52.8333,19.5 52.1667,19.5 51.5,19.5C 49.5,18.1667 47.5,18.1667 45.5,19.5C 44.6618,19.1583 44.3284,18.4916 44.5,17.5C 44.5,16.8333 44.8333,16.5 45.5,16.5C 46.609,16.5569 47.609,16.8902 48.5,17.5C 49.5,17.5 50.5,17.5 51.5,17.5C 52.1667,17.5 52.8333,17.5 53.5,17.5C 75.8333,17.5 98.1667,17.5 120.5,17.5C 120.5,15.1667 120.5,12.8333 120.5,10.5C 97.9938,10.1692 75.6604,10.5026 53.5,11.5C 52.5084,11.6716 51.8417,11.3382 51.5,10.5C 74.9964,9.33687 98.6631,9.1702 122.5,10C 124.37,12.0396 126.37,13.8729 128.5,15.5 Z"/></g>
<g><path style="opacity:1" fill="#666666" d="M 122.5,13.5 C 122.5,14.5 122.5,15.5 122.5,16.5C 123.791,16.7373 124.791,16.404 125.5,15.5C 126.043,15.56 126.376,15.8933 126.5,16.5C 124.955,17.4519 123.288,17.7852 121.5,17.5C 121.232,15.901 121.566,14.5676 122.5,13.5 Z"/></g>
<g><path style="opacity:1" fill="#cecece" d="M 122.5,13.5 C 123.5,14.1667 124.5,14.8333 125.5,15.5C 124.791,16.404 123.791,16.7373 122.5,16.5C 122.5,15.5 122.5,14.5 122.5,13.5 Z"/></g>
<g><path style="opacity:1" fill="#e0e0e0" d="M 128.5,15.5 C 129.496,15.4142 130.329,15.7476 131,16.5C 131.333,125.5 131.667,234.5 132,343.5C 137.6,344.146 143.1,344.813 148.5,345.5C 143.5,345.5 138.5,345.5 133.5,345.5C 132.504,345.586 131.671,345.252 131,344.5C 130.833,235.333 130.333,126.333 129.5,17.5C 129.167,16.8333 128.833,16.1667 128.5,15.5 Z"/></g>
<g><path style="opacity:1" fill="#9f9f9f" d="M 51.5,19.5 C 49.8333,19.5 48.1667,19.5 46.5,19.5C 46.5,93.1667 46.5,166.833 46.5,240.5C 48.1667,240.5 49.8333,240.5 51.5,240.5C 50.0813,241.451 48.4147,241.784 46.5,241.5C 45.5008,167.669 45.1674,93.6685 45.5,19.5C 47.5,18.1667 49.5,18.1667 51.5,19.5 Z"/></g>
<g><path style="opacity:1" fill="#f7f7f7" d="M 51.5,19.5 C 51.5,93.1667 51.5,166.833 51.5,240.5C 49.8333,240.5 48.1667,240.5 46.5,240.5C 46.5,166.833 46.5,93.1667 46.5,19.5C 48.1667,19.5 49.8333,19.5 51.5,19.5 Z"/></g>
<g><path style="opacity:1" fill="#393939" d="M 51.5,19.5 C 52.1667,19.5 52.8333,19.5 53.5,19.5C 53.5,93.5 53.5,167.5 53.5,241.5C 75.8333,241.5 98.1667,241.5 120.5,241.5C 120.5,167.5 120.5,93.5 120.5,19.5C 121.167,19.5 121.833,19.5 122.5,19.5C 122.5,93.1667 122.5,166.833 122.5,240.5C 124.265,241.461 126.265,241.795 128.5,241.5C 128.5,242.167 128.5,242.833 128.5,243.5C 128.167,243.5 127.833,243.5 127.5,243.5C 126.167,243.5 124.833,243.5 123.5,243.5C 124.213,246.594 125.213,249.594 126.5,252.5C 126.557,253.609 126.89,254.609 127.5,255.5C 126.833,255.5 126.5,255.833 126.5,256.5C 124.5,252.5 122.5,248.5 120.5,244.5C 109.338,243.833 98.005,243.5 86.5,243.5C 74.8131,243.501 63.4797,244.168 52.5,245.5C 52.0652,248.157 51.0652,250.491 49.5,252.5C 49.6716,251.508 49.3382,250.842 48.5,250.5C 49.4552,248.254 50.1218,245.921 50.5,243.5C 49.1667,243.5 47.8333,243.5 46.5,243.5C 46.1667,243.5 45.8333,243.5 45.5,243.5C 45.8333,242.833 46.1667,242.167 46.5,241.5C 48.4147,241.784 50.0813,241.451 51.5,240.5C 51.5,166.833 51.5,93.1667 51.5,19.5 Z"/></g>
<g><path style="opacity:1" fill="#f8f8f8" d="M 122.5,19.5 C 124.167,19.5 125.833,19.5 127.5,19.5C 127.5,93.1667 127.5,166.833 127.5,240.5C 125.833,240.5 124.167,240.5 122.5,240.5C 122.5,166.833 122.5,93.1667 122.5,19.5 Z"/></g>
<g><path style="opacity:1" fill="#969696" d="M 122.5,19.5 C 124.5,18.1667 126.5,18.1667 128.5,19.5C 128.5,93.5 128.5,167.5 128.5,241.5C 126.265,241.795 124.265,241.461 122.5,240.5C 124.167,240.5 125.833,240.5 127.5,240.5C 127.5,166.833 127.5,93.1667 127.5,19.5C 125.833,19.5 124.167,19.5 122.5,19.5 Z"/></g>
<g><path style="opacity:1" fill="#323232" d="M 129.5,17.5 C 130.333,126.333 130.833,235.333 131,344.5C 131.671,345.252 132.504,345.586 133.5,345.5C 131.833,346.833 130.167,346.833 128.5,345.5C 128.831,316.995 128.498,288.662 127.5,260.5C 127.167,259.167 126.833,257.833 126.5,256.5C 126.5,255.833 126.833,255.5 127.5,255.5C 128.483,251.702 128.817,247.702 128.5,243.5C 128.5,242.833 128.5,242.167 128.5,241.5C 128.5,167.5 128.5,93.5 128.5,19.5C 129.338,19.1583 129.672,18.4916 129.5,17.5 Z"/></g>
<g><path style="opacity:1" fill="#e1e1e1" d="M 46.5,14.5 C 46.1667,15.1667 45.8333,15.8333 45.5,16.5C 44.8333,16.5 44.5,16.8333 44.5,17.5C 43.8333,126.5 43.1667,235.5 42.5,344.5C 42.5,234.5 42.5,124.5 42.5,14.5C 43.8333,14.5 45.1667,14.5 46.5,14.5 Z"/></g>
<g><path style="opacity:1" fill="#343434" d="M 44.5,17.5 C 44.3284,18.4916 44.6618,19.1583 45.5,19.5C 45.1674,93.6685 45.5008,167.669 46.5,241.5C 46.1667,242.167 45.8333,242.833 45.5,243.5C 45.3345,247.514 45.5012,251.514 46,255.5C 47.0386,254.756 47.5386,253.756 47.5,252.5C 47.3284,251.508 47.6618,250.842 48.5,250.5C 49.3382,250.842 49.6716,251.508 49.5,252.5C 48.5,255.167 47.5,257.833 46.5,260.5C 45.502,288.662 45.1687,316.995 45.5,345.5C 44.1667,346.833 42.8333,346.833 41.5,345.5C 42.1667,345.5 42.5,345.167 42.5,344.5C 43.1667,235.5 43.8333,126.5 44.5,17.5 Z"/></g>
<g><path style="opacity:1" fill="#a0a0a0" d="M 120.5,19.5 C 120.5,93.5 120.5,167.5 120.5,241.5C 98.1667,241.5 75.8333,241.5 53.5,241.5C 53.5,167.5 53.5,93.5 53.5,19.5C 75.8333,18.1667 98.1667,18.1667 120.5,19.5 Z"/></g>
<g><path style="opacity:1" fill="#fefefe" d="M 54.5,19.5 C 76.1667,19.5 97.8333,19.5 119.5,19.5C 119.5,93.1667 119.5,166.833 119.5,240.5C 97.8333,240.5 76.1667,240.5 54.5,240.5C 54.5,166.833 54.5,93.1667 54.5,19.5 Z"/></g>
<g><path style="opacity:1" fill="#d9d9d9" d="M 120.5,244.5 C 97.7583,244.178 75.0916,244.511 52.5,245.5C 63.4797,244.168 74.8131,243.501 86.5,243.5C 98.005,243.5 109.338,243.833 120.5,244.5 Z"/></g>
<g><path style="opacity:1" fill="#9a9a9a" d="M 45.5,243.5 C 45.8333,243.5 46.1667,243.5 46.5,243.5C 46.19,246.713 46.5233,249.713 47.5,252.5C 47.5386,253.756 47.0386,254.756 46,255.5C 45.5012,251.514 45.3345,247.514 45.5,243.5 Z"/></g>
<g><path style="opacity:1" fill="#e5e5e5" d="M 46.5,243.5 C 47.8333,243.5 49.1667,243.5 50.5,243.5C 50.1218,245.921 49.4552,248.254 48.5,250.5C 47.6618,250.842 47.3284,251.508 47.5,252.5C 46.5233,249.713 46.19,246.713 46.5,243.5 Z"/></g>
<g><path style="opacity:1" fill="#fefefe" d="M 120.5,244.5 C 122.5,248.5 124.5,252.5 126.5,256.5C 126.833,257.833 127.167,259.167 127.5,260.5C 127.5,288.5 127.5,316.5 127.5,344.5C 100.5,344.5 73.5,344.5 46.5,344.5C 46.5,316.5 46.5,288.5 46.5,260.5C 47.5,257.833 48.5,255.167 49.5,252.5C 51.0652,250.491 52.0652,248.157 52.5,245.5C 75.0916,244.511 97.7583,244.178 120.5,244.5 Z"/></g>
<g><path style="opacity:1" fill="#e5e5e5" d="M 127.5,243.5 C 127.81,246.713 127.477,249.713 126.5,252.5C 125.213,249.594 124.213,246.594 123.5,243.5C 124.833,243.5 126.167,243.5 127.5,243.5 Z"/></g>
<g><path style="opacity:1" fill="#939393" d="M 127.5,243.5 C 127.833,243.5 128.167,243.5 128.5,243.5C 128.817,247.702 128.483,251.702 127.5,255.5C 126.89,254.609 126.557,253.609 126.5,252.5C 127.477,249.713 127.81,246.713 127.5,243.5 Z"/></g>
<g><path style="opacity:1" fill="#aeaeae" d="M 46.5,260.5 C 46.5,288.5 46.5,316.5 46.5,344.5C 73.5,344.5 100.5,344.5 127.5,344.5C 127.5,316.5 127.5,288.5 127.5,260.5C 128.498,288.662 128.831,316.995 128.5,345.5C 100.833,345.5 73.1667,345.5 45.5,345.5C 45.1687,316.995 45.502,288.662 46.5,260.5 Z"/></g>
<g><path style="opacity:1" fill="#3b3b3b" d="M 41.5,345.5 C 42.8333,346.833 44.1667,346.833 45.5,345.5C 73.1667,345.5 100.833,345.5 128.5,345.5C 130.167,346.833 131.833,346.833 133.5,345.5C 138.5,345.5 143.5,345.5 148.5,345.5C 148.5,345.833 148.5,346.167 148.5,346.5C 147.833,346.5 147.5,346.833 147.5,347.5C 107.167,347.5 66.8333,347.5 26.5,347.5C 26.0623,346.494 25.3957,346.494 24.5,347.5C 29.7351,345.55 35.4018,344.883 41.5,345.5 Z"/></g>
<g><path style="opacity:1" fill="#181818" d="M 26.5,347.5 C 26.5,348.167 26.5,348.833 26.5,349.5C 25.596,350.209 25.2627,351.209 25.5,352.5C 66.5,352.5 107.5,352.5 148.5,352.5C 148.737,351.209 148.404,350.209 147.5,349.5C 147.5,348.833 147.5,348.167 147.5,347.5C 147.5,346.833 147.833,346.5 148.5,346.5C 149.313,348.261 150.313,349.928 151.5,351.5C 156.305,352.487 161.305,352.821 166.5,352.5C 166.5,367.5 166.5,382.5 166.5,397.5C 165.167,399.5 163.5,401.167 161.5,402.5C 152.143,402.832 142.81,402.498 133.5,401.5C 134.325,400.614 135.325,400.281 136.5,400.5C 146.683,402.974 156.016,401.307 164.5,395.5C 165.496,381.677 165.829,367.677 165.5,353.5C 152.656,353.171 139.989,353.505 127.5,354.5C 126.833,354.5 126.167,354.5 125.5,354.5C 100.005,353.502 74.3388,353.169 48.5,353.5C 47.8333,353.833 47.1667,354.167 46.5,354.5C 34.011,353.505 21.3443,353.171 8.5,353.5C 8.17085,367.677 8.50418,381.677 9.5,395.5C 11.3356,397.588 13.6689,398.921 16.5,399.5C 17.2625,400.268 18.2625,400.768 19.5,401C 24.1548,401.499 28.8215,401.666 33.5,401.5C 31.4958,402.728 24.4958,403.061 12.5,402.5C 10.614,401.07 8.94733,399.403 7.5,397.5C 7.5,382.5 7.5,367.5 7.5,352.5C 12.6946,352.821 17.6946,352.487 22.5,351.5C 23.6005,350.395 24.2671,349.062 24.5,347.5C 25.3957,346.494 26.0623,346.494 26.5,347.5 Z"/></g>
<g><path style="opacity:1" fill="#737373" d="M 26.5,349.5 C 46.3221,350.833 66.4888,351.5 87,351.5C 107.511,351.5 127.678,350.833 147.5,349.5C 148.404,350.209 148.737,351.209 148.5,352.5C 107.5,352.5 66.5,352.5 25.5,352.5C 25.2627,351.209 25.596,350.209 26.5,349.5 Z"/></g>
<g><path style="opacity:1" fill="#d7d7d7" d="M 26.5,347.5 C 66.8333,347.5 107.167,347.5 147.5,347.5C 147.5,348.167 147.5,348.833 147.5,349.5C 127.678,350.833 107.511,351.5 87,351.5C 66.4888,351.5 46.3221,350.833 26.5,349.5C 26.5,348.833 26.5,348.167 26.5,347.5 Z"/></g>
<g><path style="opacity:1" fill="#fefefe" d="M 27.5,348.5 C 67.1723,348.167 106.839,348.5 146.5,349.5C 126.667,349.833 106.833,350.167 87,350.5C 66.8219,350.5 46.9886,349.833 27.5,348.5 Z"/></g>
<g><path style="opacity:1" fill="#fefefe" d="M 45.5,354.5 C 45.5,368.167 45.5,381.833 45.5,395.5C 43.8212,395.285 42.8212,395.952 42.5,397.5C 39.6727,398.958 36.6727,399.958 33.5,400.5C 27.7969,400.625 22.1302,400.292 16.5,399.5C 13.6689,398.921 11.3356,397.588 9.5,395.5C 9.5,381.833 9.5,368.167 9.5,354.5C 21.5,354.5 33.5,354.5 45.5,354.5 Z"/></g>
<g><path style="opacity:1" fill="#fdfdfd" d="M 128.5,354.5 C 140.5,354.5 152.5,354.5 164.5,354.5C 164.5,368.167 164.5,381.833 164.5,395.5C 156.016,401.307 146.683,402.974 136.5,400.5C 133.945,399.539 131.612,398.206 129.5,396.5C 128.518,382.579 128.185,368.579 128.5,354.5 Z"/></g>
<g><path style="opacity:1" fill="#2c2c2c" d="M 48.5,353.5 C 48.5,367.833 48.5,382.167 48.5,396.5C 50.2161,396.629 51.8828,396.962 53.5,397.5C 76.5706,403.025 99.5706,402.692 122.5,396.5C 123.5,396.5 124.5,396.5 125.5,396.5C 125.5,382.5 125.5,368.5 125.5,354.5C 126.167,354.5 126.833,354.5 127.5,354.5C 126.851,368.873 127.518,382.873 129.5,396.5C 131.612,398.206 133.945,399.539 136.5,400.5C 135.325,400.281 134.325,400.614 133.5,401.5C 142.81,402.498 152.143,402.832 161.5,402.5C 111.833,403.833 62.1667,403.833 12.5,402.5C 24.4958,403.061 31.4958,402.728 33.5,401.5C 33.5,401.167 33.5,400.833 33.5,400.5C 36.6727,399.958 39.6727,398.958 42.5,397.5C 43.5832,397.461 44.5832,397.127 45.5,396.5C 46.4992,382.516 46.8326,368.516 46.5,354.5C 47.1667,354.167 47.8333,353.833 48.5,353.5 Z"/></g>
<g><path style="opacity:1" fill="#fdfdfd" d="M 124.5,354.5 C 125.122,368.745 124.455,382.745 122.5,396.5C 99.5706,402.692 76.5706,403.025 53.5,397.5C 52.713,395.896 51.3797,395.229 49.5,395.5C 49.5,381.833 49.5,368.167 49.5,354.5C 74.5,354.5 99.5,354.5 124.5,354.5 Z"/></g>
<g><path style="opacity:1" fill="#bbbbbb" d="M 48.5,353.5 C 74.3388,353.169 100.005,353.502 125.5,354.5C 125.167,354.5 124.833,354.5 124.5,354.5C 99.5,354.5 74.5,354.5 49.5,354.5C 49.5,368.167 49.5,381.833 49.5,395.5C 51.3797,395.229 52.713,395.896 53.5,397.5C 51.8828,396.962 50.2161,396.629 48.5,396.5C 48.5,382.167 48.5,367.833 48.5,353.5 Z"/></g>
<g><path style="opacity:1" fill="#d7d7d7" d="M 124.5,354.5 C 124.833,354.5 125.167,354.5 125.5,354.5C 125.5,368.5 125.5,382.5 125.5,396.5C 124.5,396.5 123.5,396.5 122.5,396.5C 124.455,382.745 125.122,368.745 124.5,354.5 Z"/></g>
<g><path style="opacity:1" fill="#cacaca" d="M 127.5,354.5 C 127.833,354.5 128.167,354.5 128.5,354.5C 128.185,368.579 128.518,382.579 129.5,396.5C 127.518,382.873 126.851,368.873 127.5,354.5 Z"/></g>
<g><path style="opacity:1" fill="#4b4b4b" d="M 151.5,351.5 C 156.833,351.5 162.167,351.5 167.5,351.5C 167.83,367.009 167.496,382.342 166.5,397.5C 166.5,382.5 166.5,367.5 166.5,352.5C 161.305,352.821 156.305,352.487 151.5,351.5 Z"/></g>
<g><path style="opacity:1" fill="#a8a8a8" d="M 46.5,354.5 C 46.1667,354.5 45.8333,354.5 45.5,354.5C 33.5,354.5 21.5,354.5 9.5,354.5C 9.5,368.167 9.5,381.833 9.5,395.5C 8.50418,381.677 8.17085,367.677 8.5,353.5C 21.3443,353.171 34.011,353.505 46.5,354.5 Z"/></g>
<g><path style="opacity:1" fill="#c9c9c9" d="M 45.5,354.5 C 45.8333,354.5 46.1667,354.5 46.5,354.5C 46.8326,368.516 46.4992,382.516 45.5,396.5C 44.5832,397.127 43.5832,397.461 42.5,397.5C 42.8212,395.952 43.8212,395.285 45.5,395.5C 45.5,381.833 45.5,368.167 45.5,354.5 Z"/></g>
<g><path style="opacity:1" fill="#4a4a4a" d="M 22.5,351.5 C 17.6946,352.487 12.6946,352.821 7.5,352.5C 7.5,367.5 7.5,382.5 7.5,397.5C 6.5038,382.342 6.17047,367.009 6.5,351.5C 11.8333,351.5 17.1667,351.5 22.5,351.5 Z"/></g>
<g><path style="opacity:1" fill="#a8a8a8" d="M 127.5,354.5 C 139.989,353.505 152.656,353.171 165.5,353.5C 165.829,367.677 165.496,381.677 164.5,395.5C 164.5,381.833 164.5,368.167 164.5,354.5C 152.5,354.5 140.5,354.5 128.5,354.5C 128.167,354.5 127.833,354.5 127.5,354.5 Z"/></g>
<g><path style="opacity:1" fill="#e2e2e2" d="M 53.5,399.5 C 50.5,400.833 47.5,400.833 44.5,399.5C 45.3739,398.475 46.5405,397.808 48,397.5C 49.8003,398.32 51.6336,398.986 53.5,399.5 Z"/></g>
<g><path style="opacity:1" fill="#9e9e9e" d="M 119.5,399.5 C 122.833,400.833 126.167,400.833 129.5,399.5C 130.756,399.461 131.756,399.961 132.5,401C 126.167,401.667 119.833,401.667 113.5,401C 115.436,400.187 117.436,399.687 119.5,399.5 Z"/></g>
<g><path style="opacity:1" fill="#e6e6e6" d="M 129.5,399.5 C 126.167,400.833 122.833,400.833 119.5,399.5C 117.436,399.687 115.436,400.187 113.5,401C 119.833,401.667 126.167,401.667 132.5,401C 131.756,399.961 130.756,399.461 129.5,399.5 Z"/></g>
<g><path style="opacity:1" fill="#969696" d="M 16.5,399.5 C 22.1302,400.292 27.7969,400.625 33.5,400.5C 33.5,400.833 33.5,401.167 33.5,401.5C 28.8215,401.666 24.1548,401.499 19.5,401C 18.2625,400.768 17.2625,400.268 16.5,399.5 Z"/></g>
<g><path style="opacity:1" fill="#a7a7a7" d="M 44.5,399.5 C 47.5,400.833 50.5,400.833 53.5,399.5C 55.3084,399.491 56.9751,399.991 58.5,401C 52.8333,401.667 47.1667,401.667 41.5,401C 42.2438,399.961 43.2438,399.461 44.5,399.5 Z"/></g>
</svg>
