<?xml version="1.0" standalone="no"?>
<!DOCTYPE svg PUBLIC "-//W3C//DTD SVG 20010904//EN"
 "http://www.w3.org/TR/2001/REC-SVG-20010904/DTD/svg10.dtd">
<svg version="1.0" xmlns="http://www.w3.org/2000/svg"
 width="330.000000pt" height="1248.000000pt" viewBox="0 0 330.000000 1248.000000"
 preserveAspectRatio="xMidYMid meet">

<g transform="translate(0.000000,1248.000000) scale(0.100000,-0.100000)"
fill="#000000" stroke="none">
<path d="M142 12327 l-62 -63 2 -439 3 -440 153 -3 153 -3 20 -32 c13 -20 18
-42 15 -59 l-5 -28 170 0 c167 0 170 0 194 -25 l25 -24 0 -3218 0 -3218 84
-82 85 -83 682 0 681 0 84 82 84 82 0 3217 c0 3151 0 3217 19 3240 18 23 26
24 187 29 l168 5 7 32 c3 18 14 44 23 57 16 25 18 26 169 28 l152 3 3 440 2
439 -62 63 -62 63 -1456 0 -1456 0 -62 -63z m108 29 c0 -2 -9 -6 -20 -9 -11
-3 -18 -1 -14 4 5 9 34 13 34 5z m385 -11 c78 -16 152 -45 198 -77 l27 -19 0
-420 0 -419 -372 2 -373 3 0 420 0 420 74 37 c41 20 101 43 135 51 82 20 221
20 311 2z m465 -5 c-47 -10 -115 -28 -151 -39 l-67 -21 -78 40 -78 40 229 -1
230 0 -85 -19z m970 -5 c114 -18 188 -35 293 -67 l67 -21 -2 -416 -3 -416
-765 0 -765 0 0 415 0 415 64 23 c82 29 278 69 401 81 145 15 584 6 710 -14z
m490 6 c-25 -10 -62 -28 -82 -40 l-36 -22 -74 22 c-40 12 -107 30 -148 40
l-75 17 230 1 230 0 -45 -18z m480 -10 c36 -11 89 -34 118 -51 l52 -30 0 -420
0 -420 -375 0 -375 0 2 423 3 422 62 33 c104 55 189 73 328 68 87 -2 138 -9
185 -25z m75 19 c7 -12 -2 -12 -30 0 -19 8 -19 9 2 9 12 1 25 -3 28 -9z m-235
-987 c-5 -10 -14 -30 -20 -45 l-10 -28 -1195 0 c-1131 0 -1195 1 -1195 18 0 9
-7 29 -14 45 l-15 27 1230 0 c1168 0 1229 -1 1219 -17z m-386 -120 c-5 -10
-11 -389 -14 -843 l-5 -825 -69 -172 -68 -173 -677 0 -676 0 -72 184 -73 184
0 815 c0 533 -3 818 -10 822 -5 3 -10 10 -10 16 0 5 322 9 841 9 798 0 841 -1
833 -17z m-1604 -1813 c23 -58 51 -126 61 -152 l19 -48 -65 0 -65 0 0 157 c0
86 2 154 4 152 2 -2 23 -51 46 -109z m1590 -50 l0 -150 -64 0 -64 0 60 150
c33 83 62 150 64 150 2 0 4 -67 4 -150z m-1505 -2380 l0 -2195 -67 -3 -68 -3
0 2201 0 2201 68 -3 67 -3 0 -2195z m1355 0 l0 -2200 -670 0 -670 0 0 2200 0
2200 670 0 670 0 0 -2200z m150 0 l0 -2201 -67 3 -68 3 -3 2185 c-1 1202 0
2191 3 2198 3 8 27 12 70 12 l65 0 0 -2200z m-1502 -2282 c2 -27 -1 -48 -5
-48 -5 0 -31 23 -58 51 l-50 50 55 -3 55 -3 3 -47z m1352 -10 l0 -63 -670 0
-670 0 0 63 0 62 670 0 670 0 0 -62z m75 12 c-27 -27 -53 -50 -57 -50 -10 0
-11 84 -1 93 3 4 29 7 57 7 l50 0 -49 -50z"/>
<path d="M490 2188 c-211 -365 -389 -675 -398 -690 -14 -25 -14 -28 11 -58 15
-17 27 -37 27 -43 0 -7 166 -300 369 -652 l370 -640 792 0 793 0 393 680 c216
374 393 685 393 690 0 6 -177 316 -394 690 l-393 680 -790 3 -791 2 -382 -662z
m740 586 c-188 -63 -372 -174 -513 -309 l-68 -64 30 52 c17 29 70 121 118 204
l88 153 225 0 225 0 -105 -36z m647 21 c405 -66 773 -331 967 -695 204 -385
204 -865 0 -1250 -162 -304 -448 -544 -776 -649 -191 -61 -428 -78 -628 -46
-481 78 -886 426 -1048 900 -86 251 -86 589 0 840 93 272 253 490 486 663 152
113 369 204 559 236 109 19 329 19 440 1z m654 -147 c51 -90 102 -179 113
-198 18 -30 7 -23 -68 43 -106 93 -200 156 -310 210 -72 35 -205 86 -261 100
-11 2 82 5 206 6 l226 1 94 -162z m-2202 -855 c-46 -189 -46 -448 0 -636 10
-43 15 -75 11 -70 -11 12 -208 356 -215 375 -5 12 29 81 105 213 62 107 113
195 115 195 1 0 -6 -35 -16 -77z m2766 -122 c58 -102 107 -188 108 -192 3 -11
-217 -391 -221 -380 -2 5 4 35 12 68 41 162 46 414 11 568 -24 106 -28 130
-22 125 3 -3 53 -88 112 -189z m-2215 -1320 c127 -88 310 -173 435 -204 11 -2
-81 -5 -205 -6 l-225 -1 -112 195 c-62 107 -113 196 -113 198 0 2 30 -25 68
-60 37 -35 105 -90 152 -122z m1763 147 c-10 -18 -61 -106 -112 -195 l-94
-163 -226 1 c-124 1 -217 3 -206 6 53 13 178 60 250 94 109 52 214 123 315
213 47 41 87 75 88 75 2 1 -5 -14 -15 -31z"/>
</g>
</svg>
