<?xml version="1.0" encoding="UTF-8"?>
<!DOCTYPE svg PUBLIC "-//W3C//DTD SVG 1.1//EN" "http://www.w3.org/Graphics/SVG/1.1/DTD/svg11.dtd">
<svg xmlns="http://www.w3.org/2000/svg" version="1.1" width="740px" height="200px" style="shape-rendering:geometricPrecision; text-rendering:geometricPrecision; image-rendering:optimizeQuality; fill-rule:evenodd; clip-rule:evenodd" xmlns:xlink="http://www.w3.org/1999/xlink">
<g><path style="opacity:1" fill="#fefefe" d="M -0.5,-0.5 C 246.167,-0.5 492.833,-0.5 739.5,-0.5C 739.5,66.1667 739.5,132.833 739.5,199.5C 492.833,199.5 246.167,199.5 -0.5,199.5C -0.5,132.833 -0.5,66.1667 -0.5,-0.5 Z"/></g>
<g><path style="opacity:1" fill="#f0f0ee" d="M 658.5,12.5 C 658.973,13.9063 659.973,14.573 661.5,14.5C 664.773,17.1442 668.44,19.3109 672.5,21C 673.696,21.6543 673.696,22.1543 672.5,22.5C 665.384,20.0704 658.05,19.0704 650.5,19.5C 643.721,19.5144 637.055,20.0144 630.5,21C 637.107,16.7795 643.94,12.9462 651,9.5C 653.465,10.6513 655.965,11.6513 658.5,12.5 Z"/></g>
<g><path style="opacity:1" fill="#727272" d="M 658.5,12.5 C 660.027,12.427 661.027,13.0937 661.5,14.5C 659.973,14.573 658.973,13.9063 658.5,12.5 Z"/></g>
<g><path style="opacity:1" fill="#202020" d="M 658.5,12.5 C 655.965,11.6513 653.465,10.6513 651,9.5C 643.94,12.9462 637.107,16.7795 630.5,21C 637.055,20.0144 643.721,19.5144 650.5,19.5C 658.05,19.0704 665.384,20.0704 672.5,22.5C 673.696,22.1543 673.696,21.6543 672.5,21C 668.44,19.3109 664.773,17.1442 661.5,14.5C 666.013,15.8399 670.347,17.6732 674.5,20C 693.003,31.0858 711.67,41.9192 730.5,52.5C 731.667,84.8282 731.833,117.162 731,149.5C 730.667,148.833 730.333,148.167 730,147.5C 702.666,163.106 677.166,178.106 653.5,192.5C 651.833,192.333 650.167,192.167 648.5,192C 623,177.167 597.5,162.333 572,147.5C 571.667,148.833 571.333,150.167 571,151.5C 570.333,118.833 570.333,86.1667 571,53.5C 596.587,37.9551 622.42,22.7884 648.5,8C 653.149,6.77158 656.483,8.27158 658.5,12.5 Z"/></g>
<g><path style="opacity:1" fill="#fdfdfd" d="M 637.5,21.5 C 672.348,18.1515 699.514,30.8181 719,59.5C 737.196,96.4733 732.029,129.64 703.5,159C 679.609,178.179 652.942,183.179 623.5,174C 584.642,155.794 568.142,125.294 574,82.5C 583.255,49.7448 604.422,29.4114 637.5,21.5 Z"/></g>
<g><path style="opacity:1" fill="#f4f3f3" d="M 728.5,53.5 C 729.813,61.5985 729.813,69.5985 728.5,77.5C 724.807,64.2807 718.14,52.7807 708.5,43C 715.173,46.173 721.84,49.673 728.5,53.5 Z"/></g>
<g><path style="opacity:1" fill="#1d1d1d" d="M 77.5,49.5 C 204.402,50.1684 331.402,50.8351 458.5,51.5C 460.795,54.2971 463.295,56.9638 466,59.5C 466.667,87.1667 466.667,114.833 466,142.5C 465.667,142.167 465.333,141.833 465,141.5C 462.628,143.703 460.461,146.037 458.5,148.5C 457.5,148.5 456.5,148.5 455.5,148.5C 329.5,149.167 203.5,149.833 77.5,150.5C 76.8826,150.611 76.3826,150.944 76,151.5C 75.6667,157.833 75.3333,164.167 75,170.5C 72.8995,171.924 70.7328,173.258 68.5,174.5C 67.5041,180.463 67.1707,186.463 67.5,192.5C 49.8302,192.667 32.1635,192.5 14.5,192C 12.6667,190.167 10.8333,188.333 9,186.5C 8.33333,128.833 8.33333,71.1667 9,13.5C 11.1667,11.3333 13.3333,9.16667 15.5,7C 32.8301,6.50006 50.1635,6.33339 67.5,6.5C 67.3338,12.5092 67.5005,18.5092 68,24.5C 69.8357,26.7084 72.169,28.0417 75,28.5C 75.3333,35.1667 75.6667,41.8333 76,48.5C 76.3826,49.056 76.8826,49.3893 77.5,49.5 Z"/></g>
<g><path style="opacity:1" fill="#f3f3f3" d="M 69.5,28.5 C 70.7079,29.2341 72.0413,29.5674 73.5,29.5C 73.5,76.5 73.5,123.5 73.5,170.5C 71.7085,170.366 70.0418,170.699 68.5,171.5C 68.1679,123.664 68.5012,75.9971 69.5,28.5 Z"/></g>
<g><path style="opacity:1" fill="#fcfcfc" d="M 65.5,8.5 C 65.5,23.1667 65.5,37.8333 65.5,52.5C 49.1667,52.5 32.8333,52.5 16.5,52.5C 10.8465,42.9512 9.01318,32.6179 11,21.5C 12.1548,17.0247 13.9882,12.858 16.5,9C 32.8299,8.50007 49.1633,8.3334 65.5,8.5 Z"/></g>
<g><path style="opacity:1" fill="#504e4f" d="M 77.5,49.5 C 204.838,48.8351 331.838,49.5018 458.5,51.5C 331.402,50.8351 204.402,50.1684 77.5,49.5 Z"/></g>
<g><path style="opacity:1" fill="#f5f5f3" d="M 11.5,46.5 C 12.4897,49.1505 13.4897,51.8172 14.5,54.5C 13.2854,58.8044 12.2854,63.1377 11.5,67.5C 10.1667,60.5 10.1667,53.5 11.5,46.5 Z"/></g>
<g><path style="opacity:1" fill="#fcfbfc" d="M 76.5,51.5 C 77.8333,51.5 79.1667,51.5 80.5,51.5C 87.3203,54.7388 94.3203,57.7388 101.5,60.5C 101.831,87.0053 101.498,113.339 100.5,139.5C 94.3445,141.989 88.3445,144.656 82.5,147.5C 80.3792,147.325 78.3792,147.659 76.5,148.5C 75.1667,116.167 75.1667,83.8333 76.5,51.5 Z"/></g>
<g><path style="opacity:1" fill="#c3c1c2" d="M 103.5,52.5 C 220.665,51.5005 337.999,51.1671 455.5,51.5C 455.806,54.3854 455.473,57.0521 454.5,59.5C 454.5,57.1667 454.5,54.8333 454.5,52.5C 337.5,52.5 220.5,52.5 103.5,52.5 Z"/></g>
<g><path style="opacity:1" fill="#f5f4f4" d="M 573.5,78.5 C 572.508,70.6841 572.174,62.6841 572.5,54.5C 578.81,50.1795 585.477,46.6795 592.5,44C 583.175,53.8132 576.842,65.3132 573.5,78.5 Z"/></g>
<g><path style="opacity:1" fill="#5f5f5e" d="M 65.5,8.5 C 66.4961,23.324 66.8294,38.324 66.5,53.5C 49.6583,53.8298 32.9916,53.4965 16.5,52.5C 32.8333,52.5 49.1667,52.5 65.5,52.5C 65.5,37.8333 65.5,23.1667 65.5,8.5 Z"/></g>
<g><path style="opacity:1" fill="#e9e8e9" d="M 83.5,51.5 C 89.5,51.5 95.5,51.5 101.5,51.5C 101.5,53.8333 101.5,56.1667 101.5,58.5C 95.2205,56.6862 89.2205,54.3528 83.5,51.5 Z"/></g>
<g><path style="opacity:1" fill="#fefdfe" d="M 103.5,52.5 C 220.5,52.5 337.5,52.5 454.5,52.5C 454.5,54.8333 454.5,57.1667 454.5,59.5C 337.5,59.5 220.5,59.5 103.5,59.5C 103.5,57.1667 103.5,54.8333 103.5,52.5 Z"/></g>
<g><path style="opacity:1" fill="#4e4e4e" d="M 76.5,51.5 C 75.1667,83.8333 75.1667,116.167 76.5,148.5C 76.44,149.043 76.1067,149.376 75.5,149.5C 74.1667,116.5 74.1667,83.5 75.5,50.5C 76.1067,50.6236 76.44,50.9569 76.5,51.5 Z"/></g>
<g><path style="opacity:1" fill="#4f4f4f" d="M 80.5,51.5 C 81.5,51.5 82.5,51.5 83.5,51.5C 89.2205,54.3528 95.2205,56.6862 101.5,58.5C 101.5,59.1667 101.5,59.8333 101.5,60.5C 94.3203,57.7388 87.3203,54.7388 80.5,51.5 Z"/></g>
<g><path style="opacity:1" fill="#fdfdfd" d="M 457.5,54.5 C 459.296,55.7927 460.963,57.2927 462.5,59C 460.866,59.4935 459.199,59.6602 457.5,59.5C 457.5,57.8333 457.5,56.1667 457.5,54.5 Z"/></g>
<g><path style="opacity:1" fill="#504e4f" d="M 572.5,54.5 C 572.174,62.6841 572.508,70.6841 573.5,78.5C 573.539,79.7562 573.039,80.7562 572,81.5C 571.176,72.3238 571.343,63.3238 572.5,54.5 Z"/></g>
<g><path style="opacity:1" fill="#fefefe" d="M 16.5,55.5 C 32.8333,55.5 49.1667,55.5 65.5,55.5C 65.5,85.1667 65.5,114.833 65.5,144.5C 49.1667,144.5 32.8333,144.5 16.5,144.5C 8.50077,114.821 8.50077,85.1546 16.5,55.5 Z"/></g>
<g><path style="opacity:1" fill="#919091" d="M 16.5,55.5 C 32.9916,54.5035 49.6583,54.1702 66.5,54.5C 66.5,84.8333 66.5,115.167 66.5,145.5C 49.6583,145.83 32.9916,145.497 16.5,144.5C 32.8333,144.5 49.1667,144.5 65.5,144.5C 65.5,114.833 65.5,85.1667 65.5,55.5C 49.1667,55.5 32.8333,55.5 16.5,55.5 Z"/></g>
<g><path style="opacity:1" fill="#868686" d="M 69.5,28.5 C 68.5012,75.9971 68.1679,123.664 68.5,171.5C 67.169,123.665 67.169,75.665 68.5,27.5C 69.1067,27.6236 69.44,27.9569 69.5,28.5 Z"/></g>
<g><path style="opacity:1" fill="#51504e" d="M 11.5,46.5 C 10.1667,53.5 10.1667,60.5 11.5,67.5C 11.7692,69.4286 11.2692,71.0953 10,72.5C 9.33333,63.1667 9.33333,53.8333 10,44.5C 10.7172,45.0442 11.2172,45.7109 11.5,46.5 Z"/></g>
<g><path style="opacity:1" fill="#fefefe" d="M 454.5,60.5 C 454.5,86.5 454.5,112.5 454.5,138.5C 337.5,138.5 220.5,138.5 103.5,138.5C 103.5,112.5 103.5,86.5 103.5,60.5C 220.5,60.5 337.5,60.5 454.5,60.5 Z"/></g>
<g><path style="opacity:1" fill="#fdfdfc" d="M 457.5,60.5 C 459.833,60.5 462.167,60.5 464.5,60.5C 464.5,86.8333 464.5,113.167 464.5,139.5C 462.167,139.5 459.833,139.5 457.5,139.5C 457.5,113.167 457.5,86.8333 457.5,60.5 Z"/></g>
<g><path style="opacity:1" fill="#4f4f4d" d="M 728.5,53.5 C 729.826,57.6139 730.493,62.1139 730.5,67C 730.333,71.5 730.167,76 730,80.5C 728.961,79.7562 728.461,78.7562 728.5,77.5C 729.813,69.5985 729.813,61.5985 728.5,53.5 Z"/></g>
<g><path style="opacity:1" fill="#f4f3f4" d="M 573.5,120.5 C 576.563,134.129 582.897,145.963 592.5,156C 585.804,152.864 579.137,149.364 572.5,145.5C 572.174,136.983 572.507,128.65 573.5,120.5 Z"/></g>
<g><path style="opacity:1" fill="#4d4d4b" d="M 729.5,145.5 C 729.826,137.316 729.492,129.316 728.5,121.5C 728.369,120.624 728.702,119.957 729.5,119.5C 730.821,128.325 730.821,136.991 729.5,145.5 Z"/></g>
<g><path style="opacity:1" fill="#f3f3f3" d="M 728.5,121.5 C 729.492,129.316 729.826,137.316 729.5,145.5C 723.155,149.837 716.488,153.337 709.5,156C 718.825,146.187 725.158,134.687 728.5,121.5 Z"/></g>
<g><path style="opacity:1" fill="#4e4c4d" d="M 573.5,120.5 C 572.507,128.65 572.174,136.983 572.5,145.5C 571.343,136.676 571.176,127.676 572,118.5C 572.717,119.044 573.217,119.711 573.5,120.5 Z"/></g>
<g><path style="opacity:1" fill="#efeeec" d="M 11.5,131.5 C 12.4172,136.004 13.4172,140.504 14.5,145C 13.6069,147.936 12.6069,150.769 11.5,153.5C 10.1667,146.167 10.1667,138.833 11.5,131.5 Z"/></g>
<g><path style="opacity:1" fill="#c0c0c0" d="M 454.5,60.5 C 455.498,86.6614 455.831,112.995 455.5,139.5C 337.999,139.833 220.665,139.5 103.5,138.5C 220.5,138.5 337.5,138.5 454.5,138.5C 454.5,112.5 454.5,86.5 454.5,60.5 Z"/></g>
<g><path style="opacity:1" fill="#fdfdfd" d="M 103.5,140.5 C 220.833,140.5 338.167,140.5 455.5,140.5C 455.5,142.833 455.5,145.167 455.5,147.5C 338.167,147.5 220.833,147.5 103.5,147.5C 103.5,145.167 103.5,142.833 103.5,140.5 Z"/></g>
<g><path style="opacity:1" fill="#f7f7f5" d="M 457.5,140.5 C 459.199,140.34 460.866,140.506 462.5,141C 461,142.5 459.5,144 458,145.5C 457.506,143.866 457.34,142.199 457.5,140.5 Z"/></g>
<g><path style="opacity:1" fill="#4e4d4b" d="M 11.5,131.5 C 10.1667,138.833 10.1667,146.167 11.5,153.5C 11.2172,154.289 10.7172,154.956 10,155.5C 9.33333,146.167 9.33333,136.833 10,127.5C 10.7914,128.745 11.2914,130.078 11.5,131.5 Z"/></g>
<g><path style="opacity:1" fill="#f2f0f1" d="M 100.5,140.5 C 101.468,142.607 101.802,144.941 101.5,147.5C 96.4889,147.666 91.4889,147.499 86.5,147C 91.3774,145.058 96.0441,142.892 100.5,140.5 Z"/></g>
<g><path style="opacity:1" fill="#848484" d="M 16.5,147.5 C 32.9916,146.503 49.6583,146.17 66.5,146.5C 66.5,161.5 66.5,176.5 66.5,191.5C 49.6583,191.83 32.9916,191.497 16.5,190.5C 32.8333,190.5 49.1667,190.5 65.5,190.5C 65.5,176.167 65.5,161.833 65.5,147.5C 49.1667,147.5 32.8333,147.5 16.5,147.5 Z"/></g>
<g><path style="opacity:1" fill="#fefefd" d="M 16.5,147.5 C 32.8333,147.5 49.1667,147.5 65.5,147.5C 65.5,161.833 65.5,176.167 65.5,190.5C 49.1667,190.5 32.8333,190.5 16.5,190.5C 10.9158,180.947 9.08242,170.614 11,159.5C 12.0612,155.05 13.8946,151.05 16.5,147.5 Z"/></g>
<g><path style="opacity:1" fill="#706e6f" d="M 100.5,139.5 C 100.5,139.833 100.5,140.167 100.5,140.5C 96.0441,142.892 91.3774,145.058 86.5,147C 91.4889,147.499 96.4889,147.666 101.5,147.5C 95.1667,148.833 88.8333,148.833 82.5,147.5C 88.3445,144.656 94.3445,141.989 100.5,139.5 Z"/></g>
<g><path style="opacity:1" fill="#858485" d="M 103.5,140.5 C 103.5,142.833 103.5,145.167 103.5,147.5C 220.833,147.5 338.167,147.5 455.5,147.5C 455.5,147.833 455.5,148.167 455.5,148.5C 337.833,148.5 220.167,148.5 102.5,148.5C 102.194,145.615 102.527,142.948 103.5,140.5 Z"/></g>
<g><path style="opacity:1" fill="#858585" d="M 455.5,148.5 C 456.5,148.5 457.5,148.5 458.5,148.5C 459.009,149.341 458.343,149.841 456.5,150C 330.167,150.5 203.834,150.667 77.5,150.5C 203.5,149.833 329.5,149.167 455.5,148.5 Z"/></g>
<g><path style="opacity:1" fill="#f1f0f0" d="M 628.5,178.5 C 628.735,177.903 629.235,177.57 630,177.5C 636.79,179.883 643.79,180.883 651,180.5C 657.919,180.404 664.753,179.904 671.5,179C 664.893,183.22 658.06,187.054 651,190.5C 643.602,186.258 636.102,182.258 628.5,178.5 Z"/></g>
</svg>
