<?xml version="1.0" encoding="UTF-8"?>
<!DOCTYPE svg PUBLIC "-//W3C//DTD SVG 1.1//EN" "http://www.w3.org/Graphics/SVG/1.1/DTD/svg11.dtd">
<svg xmlns="http://www.w3.org/2000/svg" version="1.1" width="179px" height="409px" style="shape-rendering:geometricPrecision; text-rendering:geometricPrecision; image-rendering:optimizeQuality; fill-rule:evenodd; clip-rule:evenodd" xmlns:xlink="http://www.w3.org/1999/xlink">
<g><path style="opacity:1" fill="#fefefe" d="M -0.5,-0.5 C 59.1667,-0.5 118.833,-0.5 178.5,-0.5C 178.5,135.833 178.5,272.167 178.5,408.5C 118.833,408.5 59.1667,408.5 -0.5,408.5C -0.5,272.167 -0.5,135.833 -0.5,-0.5 Z"/></g>
<g><path style="opacity:1" fill="#979797" d="M 120.5,8.5 C 121.461,10.2646 121.795,12.2646 121.5,14.5C 121.167,14.5 120.833,14.5 120.5,14.5C 120.5,12.8333 120.5,11.1667 120.5,9.5C 98.8333,9.5 77.1667,9.5 55.5,9.5C 55.5,11.1667 55.5,12.8333 55.5,14.5C 54.5386,12.7354 54.2053,10.7354 54.5,8.5C 76.5,8.5 98.5,8.5 120.5,8.5 Z"/></g>
<g><path style="opacity:1" fill="#f6f6f6" d="M 120.5,14.5 C 98.8333,14.5 77.1667,14.5 55.5,14.5C 55.5,12.8333 55.5,11.1667 55.5,9.5C 77.1667,9.5 98.8333,9.5 120.5,9.5C 120.5,11.1667 120.5,12.8333 120.5,14.5 Z"/></g>
<g><path style="opacity:1" fill="#c3c3c3" d="M 129.5,13.5 C 130.496,13.4142 131.329,13.7476 132,14.5C 132.333,123.167 132.667,231.833 133,340.5C 138.6,341.146 144.1,341.813 149.5,342.5C 144.167,342.5 138.833,342.5 133.5,342.5C 132.21,341.942 131.377,340.942 131,339.5C 130.831,230.764 130.331,122.097 129.5,13.5 Z"/></g>
<g><path style="opacity:1" fill="#3b3b3b" d="M 45.5,14.5 C 45.1672,123.001 45.5005,231.335 46.5,339.5C 46.5,340.5 46.5,341.5 46.5,342.5C 45.8333,341.833 45.1667,341.167 44.5,340.5C 44.1672,231.665 44.5005,122.999 45.5,14.5 Z"/></g>
<g><path style="opacity:1" fill="#272727" d="M 120.5,8.5 C 121.209,7.59603 122.209,7.26269 123.5,7.5C 125.167,9.83333 127.167,11.8333 129.5,13.5C 130.331,122.097 130.831,230.764 131,339.5C 131.377,340.942 132.21,341.942 133.5,342.5C 132.432,343.434 131.099,343.768 129.5,343.5C 129.784,341.585 129.451,339.919 128.5,338.5C 127.766,337.292 127.433,335.959 127.5,334.5C 129.611,329.877 129.945,325.21 128.5,320.5C 128.5,319.833 128.5,319.167 128.5,318.5C 128.5,318.167 128.5,317.833 128.5,317.5C 128.5,217.5 128.5,117.5 128.5,17.5C 127.081,16.5489 125.415,16.2155 123.5,16.5C 123.5,117.167 123.5,217.833 123.5,318.5C 123.167,319.5 122.5,320.167 121.5,320.5C 121.167,319.833 120.833,319.167 120.5,318.5C 121.499,217.335 121.833,116.001 121.5,14.5C 121.795,12.2646 121.461,10.2646 120.5,8.5 Z"/></g>
<g><path style="opacity:1" fill="#fefefe" d="M 128.5,17.5 C 128.5,117.5 128.5,217.5 128.5,317.5C 127.167,317.5 125.833,317.5 124.5,317.5C 124.5,217.5 124.5,117.5 124.5,17.5C 125.833,17.5 127.167,17.5 128.5,17.5 Z"/></g>
<g><path style="opacity:1" fill="#b5b5b5" d="M 123.5,11.5 C 127.06,13.2825 127.06,14.2825 123.5,14.5C 123.5,13.5 123.5,12.5 123.5,11.5 Z"/></g>
<g><path style="opacity:1" fill="#353535" d="M 123.5,7.5 C 122.209,7.26269 121.209,7.59603 120.5,8.5C 98.5,8.5 76.5,8.5 54.5,8.5C 54.2053,10.7354 54.5386,12.7354 55.5,14.5C 77.1667,14.5 98.8333,14.5 120.5,14.5C 120.833,14.5 121.167,14.5 121.5,14.5C 121.833,116.001 121.499,217.335 120.5,318.5C 120.833,319.167 121.167,319.833 121.5,320.5C 99.1642,320.333 76.8308,320.5 54.5,321C 52.6002,325.955 50.6002,330.788 48.5,335.5C 47.3263,336.514 46.6596,337.847 46.5,339.5C 45.5005,231.335 45.1672,123.001 45.5,14.5C 47.6281,11.8697 49.9614,9.36971 52.5,7C 76.3369,6.1702 100.004,6.33687 123.5,7.5 Z"/></g>
<g><path style="opacity:1" fill="#b1b1b1" d="M 120.5,17.5 C 98.8333,17.5 77.1667,17.5 55.5,17.5C 55.5,117.5 55.5,217.5 55.5,317.5C 77.1667,317.5 98.8333,317.5 120.5,317.5C 120.5,317.833 120.5,318.167 120.5,318.5C 98.5,318.5 76.5,318.5 54.5,318.5C 54.5,217.833 54.5,117.167 54.5,16.5C 76.673,16.1693 98.673,16.5026 120.5,17.5 Z"/></g>
<g><path style="opacity:1" fill="#cecece" d="M 51.5,17.5 C 51.8333,17.5 52.1667,17.5 52.5,17.5C 52.5,117.833 52.5,218.167 52.5,318.5C 50.8333,318.5 49.1667,318.5 47.5,318.5C 47.5,318.167 47.5,317.833 47.5,317.5C 48.8333,317.5 50.1667,317.5 51.5,317.5C 51.5,217.5 51.5,117.5 51.5,17.5 Z"/></g>
<g><path style="opacity:1" fill="#fefefe" d="M 120.5,17.5 C 120.5,117.5 120.5,217.5 120.5,317.5C 98.8333,317.5 77.1667,317.5 55.5,317.5C 55.5,217.5 55.5,117.5 55.5,17.5C 77.1667,17.5 98.8333,17.5 120.5,17.5 Z"/></g>
<g><path style="opacity:1" fill="#fefefe" d="M 51.5,17.5 C 51.5,117.5 51.5,217.5 51.5,317.5C 50.1667,317.5 48.8333,317.5 47.5,317.5C 47.5,217.5 47.5,117.5 47.5,17.5C 48.8333,17.5 50.1667,17.5 51.5,17.5 Z"/></g>
<g><path style="opacity:1" fill="#a6a6a6" d="M 52.5,17.5 C 52.1667,17.5 51.8333,17.5 51.5,17.5C 50.1667,17.5 48.8333,17.5 47.5,17.5C 47.5,117.5 47.5,217.5 47.5,317.5C 47.5,317.833 47.5,318.167 47.5,318.5C 46.5006,218.001 46.1672,117.335 46.5,16.5C 48.7354,16.2053 50.7354,16.5386 52.5,17.5 Z"/></g>
<g><path style="opacity:1" fill="#bdbdbd" d="M 50.5,11.5 C 52.0481,11.8212 52.7148,12.8212 52.5,14.5C 49.7524,14.5983 49.0857,13.5983 50.5,11.5 Z"/></g>
<g><path style="opacity:1" fill="#cecece" d="M 128.5,17.5 C 127.167,17.5 125.833,17.5 124.5,17.5C 124.5,117.5 124.5,217.5 124.5,317.5C 125.833,317.5 127.167,317.5 128.5,317.5C 128.5,317.833 128.5,318.167 128.5,318.5C 126.833,318.5 125.167,318.5 123.5,318.5C 123.5,217.833 123.5,117.167 123.5,16.5C 125.415,16.2155 127.081,16.5489 128.5,17.5 Z"/></g>
<g><path style="opacity:1" fill="#323232" d="M 123.5,318.5 C 125.167,318.5 126.833,318.5 128.5,318.5C 128.5,319.167 128.5,319.833 128.5,320.5C 129.945,325.21 129.611,329.877 127.5,334.5C 124.599,330.239 122.599,325.572 121.5,320.5C 122.5,320.167 123.167,319.5 123.5,318.5 Z"/></g>
<g><path style="opacity:1" fill="#a3a3a3" d="M 50.5,323.5 C 50.1788,321.952 49.1788,321.285 47.5,321.5C 47.1936,324.385 47.5269,327.052 48.5,329.5C 48.2172,330.289 47.7172,330.956 47,331.5C 46.5014,327.848 46.3347,324.182 46.5,320.5C 48.1667,320.5 49.8333,320.5 51.5,320.5C 51.7373,321.791 51.404,322.791 50.5,323.5 Z"/></g>
<g><path style="opacity:1" fill="#ededed" d="M 50.5,323.5 C 49.6373,325.421 48.9707,327.421 48.5,329.5C 47.5269,327.052 47.1936,324.385 47.5,321.5C 49.1788,321.285 50.1788,321.952 50.5,323.5 Z"/></g>
<g><path style="opacity:1" fill="#fafafa" d="M 121.5,320.5 C 122.599,325.572 124.599,330.239 127.5,334.5C 127.433,335.959 127.766,337.292 128.5,338.5C 128.5,339.5 128.5,340.5 128.5,341.5C 101.492,341.833 74.4918,341.5 47.5,340.5C 48.3094,338.929 48.6427,337.262 48.5,335.5C 50.6002,330.788 52.6002,325.955 54.5,321C 76.8308,320.5 99.1642,320.333 121.5,320.5 Z"/></g>
<g><path style="opacity:1" fill="#e9e9e9" d="M 128.5,320.5 C 128.984,333.399 127.651,333.399 124.5,320.5C 125.833,320.5 127.167,320.5 128.5,320.5 Z"/></g>
<g><path style="opacity:1" fill="#b4b4b4" d="M 48.5,335.5 C 48.6427,337.262 48.3094,338.929 47.5,340.5C 74.4918,341.5 101.492,341.833 128.5,341.5C 127.432,342.434 126.099,342.768 124.5,342.5C 98.5,342.5 72.5,342.5 46.5,342.5C 46.5,341.5 46.5,340.5 46.5,339.5C 46.6596,337.847 47.3263,336.514 48.5,335.5 Z"/></g>
<g><path style="opacity:1" fill="#262626" d="M 44.5,340.5 C 45.1667,341.167 45.8333,341.833 46.5,342.5C 72.5,342.5 98.5,342.5 124.5,342.5C 92.5,343.167 60.5,343.833 28.5,344.5C 28.1667,344.5 27.8333,344.5 27.5,344.5C 27.0623,343.494 26.3957,343.494 25.5,344.5C 30.7455,342.708 36.4121,341.874 42.5,342C 43.4158,341.722 44.0825,341.222 44.5,340.5 Z"/></g>
<g><path style="opacity:1" fill="#3a3a3a" d="M 128.5,338.5 C 129.451,339.919 129.784,341.585 129.5,343.5C 131.099,343.768 132.432,343.434 133.5,342.5C 138.833,342.5 144.167,342.5 149.5,342.5C 149.5,342.833 149.5,343.167 149.5,343.5C 148.596,344.209 148.263,345.209 148.5,346.5C 148.167,346.5 147.833,346.5 147.5,346.5C 147.5,346.167 147.5,345.833 147.5,345.5C 108.004,344.501 68.3368,344.168 28.5,344.5C 60.5,343.833 92.5,343.167 124.5,342.5C 126.099,342.768 127.432,342.434 128.5,341.5C 128.5,340.5 128.5,339.5 128.5,338.5 Z"/></g>
<g><path style="opacity:1" fill="#222222" d="M 27.5,344.5 C 27.5,345.167 27.5,345.833 27.5,346.5C 26.596,347.209 26.2627,348.209 26.5,349.5C 67.5054,349.833 108.505,349.5 149.5,348.5C 149.376,347.893 149.043,347.56 148.5,347.5C 148.5,347.167 148.5,346.833 148.5,346.5C 148.263,345.209 148.596,344.209 149.5,343.5C 150.153,344.807 150.82,346.14 151.5,347.5C 156.792,348.495 162.125,348.828 167.5,348.5C 167.667,363.837 167.5,379.17 167,394.5C 166.283,395.044 165.783,395.711 165.5,396.5C 164.167,397.167 163.167,398.167 162.5,399.5C 152.494,399.666 142.494,399.5 132.5,399C 133.078,397.583 134.078,396.75 135.5,396.5C 145.886,398.823 155.719,397.49 165,392.5C 165.5,378.837 165.667,365.171 165.5,351.5C 153.167,350.167 140.833,350.167 128.5,351.5C 127.833,351.5 127.167,351.5 126.5,351.5C 101.005,350.502 75.3388,350.169 49.5,350.5C 48.8333,363.833 48.1667,377.167 47.5,390.5C 47.5,377.167 47.5,363.833 47.5,350.5C 34.9887,350.171 22.6554,350.505 10.5,351.5C 10.5,365.5 10.5,379.5 10.5,393.5C 18.7404,397.064 27.407,398.397 36.5,397.5C 38.6907,396.709 40.6907,396.709 42.5,397.5C 48.31,398.49 54.31,398.823 60.5,398.5C 63.7861,397.793 67.1194,397.46 70.5,397.5C 81.8333,397.5 93.1667,397.5 104.5,397.5C 107.728,397.701 110.895,397.367 114,396.5C 115.727,396.646 115.894,397.313 114.5,398.5C 80.8399,399.5 47.1733,399.833 13.5,399.5C 11.5372,398.04 9.70383,396.373 8,394.5C 7.50008,379.17 7.33341,363.837 7.5,348.5C 12.8437,348.666 18.1771,348.499 23.5,348C 24.305,346.887 24.9717,345.721 25.5,344.5C 26.3957,343.494 27.0623,343.494 27.5,344.5 Z"/></g>
<g><path style="opacity:1" fill="#585858" d="M 27.5,346.5 C 27.5,346.833 27.5,347.167 27.5,347.5C 67.8333,348.833 108.167,348.833 148.5,347.5C 149.043,347.56 149.376,347.893 149.5,348.5C 108.505,349.5 67.5054,349.833 26.5,349.5C 26.2627,348.209 26.596,347.209 27.5,346.5 Z"/></g>
<g><path style="opacity:1" fill="#d4d4d4" d="M 147.5,346.5 C 147.833,346.5 148.167,346.5 148.5,346.5C 148.5,346.833 148.5,347.167 148.5,347.5C 108.167,348.833 67.8333,348.833 27.5,347.5C 67.6701,347.832 107.67,347.499 147.5,346.5 Z"/></g>
<g><path style="opacity:1" fill="#fdfdfd" d="M 147.5,345.5 C 147.5,345.833 147.5,346.167 147.5,346.5C 107.67,347.499 67.6701,347.832 27.5,347.5C 27.5,347.167 27.5,346.833 27.5,346.5C 67.4275,345.506 107.428,345.173 147.5,345.5 Z"/></g>
<g><path style="opacity:1" fill="#bebebe" d="M 27.5,344.5 C 27.8333,344.5 28.1667,344.5 28.5,344.5C 68.3368,344.168 108.004,344.501 147.5,345.5C 107.428,345.173 67.4275,345.506 27.5,346.5C 27.5,345.833 27.5,345.167 27.5,344.5 Z"/></g>
<g><path style="opacity:1" fill="#959595" d="M 49.5,351.5 C 49.5,351.167 49.5,350.833 49.5,350.5C 75.3388,350.169 101.005,350.502 126.5,351.5C 126.829,365.344 126.496,379.01 125.5,392.5C 125.5,378.833 125.5,365.167 125.5,351.5C 100.167,351.5 74.8333,351.5 49.5,351.5 Z"/></g>
<g><path style="opacity:1" fill="#fdfdfd" d="M 10.5,351.5 C 22.5,351.5 34.5,351.5 46.5,351.5C 46.5,365.167 46.5,378.833 46.5,392.5C 43.2954,394.464 39.962,396.131 36.5,397.5C 27.407,398.397 18.7404,397.064 10.5,393.5C 10.5,379.5 10.5,365.5 10.5,351.5 Z"/></g>
<g><path style="opacity:1" fill="#fdfdfd" d="M 49.5,351.5 C 74.8333,351.5 100.167,351.5 125.5,351.5C 125.5,365.167 125.5,378.833 125.5,392.5C 118.423,394.354 111.423,396.021 104.5,397.5C 93.1667,397.5 81.8333,397.5 70.5,397.5C 63.6886,396.693 57.0219,395.026 50.5,392.5C 49.5008,378.85 49.1675,365.183 49.5,351.5 Z"/></g>
<g><path style="opacity:1" fill="#bababa" d="M 165.5,351.5 C 153.5,351.5 141.5,351.5 129.5,351.5C 129.185,365.579 129.518,379.579 130.5,393.5C 128.518,379.873 127.851,365.873 128.5,351.5C 140.833,350.167 153.167,350.167 165.5,351.5 Z"/></g>
<g><path style="opacity:1" fill="#fefefe" d="M 165.5,351.5 C 165.667,365.171 165.5,378.837 165,392.5C 155.719,397.49 145.886,398.823 135.5,396.5C 133.739,395.687 132.072,394.687 130.5,393.5C 129.518,379.579 129.185,365.579 129.5,351.5C 141.5,351.5 153.5,351.5 165.5,351.5 Z"/></g>
<g><path style="opacity:1" fill="#aeaeae" d="M 167.5,348.5 C 168.661,363.995 168.828,379.661 168,395.5C 167.329,396.252 166.496,396.586 165.5,396.5C 165.783,395.711 166.283,395.044 167,394.5C 167.5,379.17 167.667,363.837 167.5,348.5 Z"/></g>
<g><path style="opacity:1" fill="#a4a4a4" d="M 10.5,351.5 C 22.6554,350.505 34.9887,350.171 47.5,350.5C 47.5,363.833 47.5,377.167 47.5,390.5C 47.6716,391.492 47.3382,392.158 46.5,392.5C 46.5,378.833 46.5,365.167 46.5,351.5C 34.5,351.5 22.5,351.5 10.5,351.5 Z"/></g>
<g><path style="opacity:1" fill="#3b3b3b" d="M 126.5,351.5 C 127.167,351.5 127.833,351.5 128.5,351.5C 127.851,365.873 128.518,379.873 130.5,393.5C 132.072,394.687 133.739,395.687 135.5,396.5C 134.078,396.75 133.078,397.583 132.5,399C 142.494,399.5 152.494,399.666 162.5,399.5C 112.833,400.833 63.1667,400.833 13.5,399.5C 47.1733,399.833 80.8399,399.5 114.5,398.5C 115.894,397.313 115.727,396.646 114,396.5C 110.895,397.367 107.728,397.701 104.5,397.5C 111.423,396.021 118.423,394.354 125.5,392.5C 126.496,379.01 126.829,365.344 126.5,351.5 Z"/></g>
<g><path style="opacity:1" fill="#2a2a2a" d="M 49.5,350.5 C 49.5,350.833 49.5,351.167 49.5,351.5C 49.1675,365.183 49.5008,378.85 50.5,392.5C 57.0219,395.026 63.6886,396.693 70.5,397.5C 67.1194,397.46 63.7861,397.793 60.5,398.5C 59.2196,397.069 57.5529,396.402 55.5,396.5C 51.6721,394.59 48.0054,394.59 44.5,396.5C 43.8333,396.833 43.1667,397.167 42.5,397.5C 40.6907,396.709 38.6907,396.709 36.5,397.5C 39.962,396.131 43.2954,394.464 46.5,392.5C 47.3382,392.158 47.6716,391.492 47.5,390.5C 48.1667,377.167 48.8333,363.833 49.5,350.5 Z"/></g>
<g><path style="opacity:1" fill="#d0d0d0" d="M 55.5,396.5 C 51.8333,397.833 48.1667,397.833 44.5,396.5C 48.0054,394.59 51.6721,394.59 55.5,396.5 Z"/></g>
<g><path style="opacity:1" fill="#e4e4e4" d="M 129.5,396.5 C 126.167,397.833 122.833,397.833 119.5,396.5C 122.181,396.538 124.681,395.871 127,394.5C 128.011,395.056 128.844,395.722 129.5,396.5 Z"/></g>
<g><path style="opacity:1" fill="#8e8e8e" d="M 44.5,396.5 C 48.1667,397.833 51.8333,397.833 55.5,396.5C 57.5529,396.402 59.2196,397.069 60.5,398.5C 54.31,398.823 48.31,398.49 42.5,397.5C 43.1667,397.167 43.8333,396.833 44.5,396.5 Z"/></g>
<g><path style="opacity:1" fill="#9e9e9e" d="M 119.5,396.5 C 122.833,397.833 126.167,397.833 129.5,396.5C 130.376,396.369 131.043,396.702 131.5,397.5C 126.533,398.662 121.533,398.829 116.5,398C 117.244,396.961 118.244,396.461 119.5,396.5 Z"/></g>
</svg>
