<?xml version="1.0" encoding="UTF-8"?>
<!DOCTYPE svg PUBLIC "-//W3C//DTD SVG 1.1//EN" "http://www.w3.org/Graphics/SVG/1.1/DTD/svg11.dtd">
<svg xmlns="http://www.w3.org/2000/svg" version="1.1" width="200px" height="333px" style="shape-rendering:geometricPrecision; text-rendering:geometricPrecision; image-rendering:optimizeQuality; fill-rule:evenodd; clip-rule:evenodd" xmlns:xlink="http://www.w3.org/1999/xlink">
<g><path style="opacity:1" fill="#fdfdfd" d="M -0.5,-0.5 C 66.1667,-0.5 132.833,-0.5 199.5,-0.5C 199.5,110.5 199.5,221.5 199.5,332.5C 132.833,332.5 66.1667,332.5 -0.5,332.5C -0.5,221.5 -0.5,110.5 -0.5,-0.5 Z"/></g>
<g><path style="opacity:1" fill="#454545" d="M 187.5,12.5 C 186.833,12.5 186.5,12.8333 186.5,13.5C 181.845,11.0854 176.845,9.7521 171.5,9.5C 168.375,8.52056 165.042,8.18723 161.5,8.5C 157.649,7.19051 153.649,7.19051 149.5,8.5C 149.137,9.18346 148.804,9.85013 148.5,10.5C 147.833,10.5 147.167,10.5 146.5,10.5C 146.611,9.88258 146.944,9.38258 147.5,9C 142.833,8.33333 138.167,8.33333 133.5,9C 136.72,10.3524 140.053,11.1857 143.5,11.5C 143.167,12.1667 142.833,12.8333 142.5,13.5C 142.167,13.5 141.833,13.5 141.5,13.5C 136.929,13.0231 132.596,12.0231 128.5,10.5C 129.873,10.6567 131.207,10.49 132.5,10C 131.692,9.69238 131.025,9.19238 130.5,8.5C 121.675,7.17863 113.009,7.17863 104.5,8.5C 100.5,8.5 96.5,8.5 92.5,8.5C 84.0099,7.34305 75.3433,7.17639 66.5,8C 66.8333,8.33333 67.1667,8.66667 67.5,9C 66.5842,9.27842 65.9175,9.77842 65.5,10.5C 64.5,11.1667 63.5,11.8333 62.5,12.5C 60.5648,13.1495 58.5648,13.4828 56.5,13.5C 57.2625,12.7321 58.2625,12.2321 59.5,12C 58.9056,11.5357 58.2389,11.369 57.5,11.5C 59.2774,10.3995 61.2774,9.56619 63.5,9C 58.6478,8.18492 53.9811,8.35159 49.5,9.5C 40.7598,7.40805 31.7598,6.90805 22.5,8C 21.5,8.33333 20.5,8.66667 19.5,9C 20.0944,9.46434 20.7611,9.63101 21.5,9.5C 20.791,10.404 19.791,10.7373 18.5,10.5C 17.791,9.59603 16.791,9.26269 15.5,9.5C 17.2774,8.39953 19.2774,7.56619 21.5,7C 72.8333,6.33333 124.167,6.33333 175.5,7C 179.939,8.05567 183.939,9.88901 187.5,12.5 Z"/></g>
<g><path style="opacity:1" fill="#101010" d="M 92.5,8.5 C 83.4325,8.3711 74.4325,9.03777 65.5,10.5C 65.9175,9.77842 66.5842,9.27842 67.5,9C 67.1667,8.66667 66.8333,8.33333 66.5,8C 75.3433,7.17639 84.0099,7.34305 92.5,8.5 Z"/></g>
<g><path style="opacity:1" fill="#0f0f0f" d="M 104.5,8.5 C 113.009,7.17863 121.675,7.17863 130.5,8.5C 131.025,9.19238 131.692,9.69238 132.5,10C 131.207,10.49 129.873,10.6567 128.5,10.5C 127.833,10.5 127.167,10.5 126.5,10.5C 119.412,8.76111 112.079,8.09444 104.5,8.5 Z"/></g>
<g><path style="opacity:1" fill="#0d0d0d" d="M 161.5,8.5 C 157.84,8.1588 154.507,8.82547 151.5,10.5C 150.5,10.5 149.5,10.5 148.5,10.5C 148.804,9.85013 149.137,9.18346 149.5,8.5C 153.649,7.19051 157.649,7.19051 161.5,8.5 Z"/></g>
<g><path style="opacity:1" fill="#1f1f1f" d="M 49.5,9.5 C 47.0483,9.98606 44.3817,9.98606 41.5,9.5C 34.8638,8.20232 28.1972,8.20232 21.5,9.5C 20.7611,9.63101 20.0944,9.46434 19.5,9C 20.5,8.66667 21.5,8.33333 22.5,8C 31.7598,6.90805 40.7598,7.40805 49.5,9.5 Z"/></g>
<g><path style="opacity:1" fill="#b6b6b6" d="M 49.5,9.5 C 53.9811,8.35159 58.6478,8.18492 63.5,9C 61.2774,9.56619 59.2774,10.3995 57.5,11.5C 56.1667,11.5 54.8333,11.5 53.5,11.5C 52.3285,10.6554 50.9952,9.98869 49.5,9.5 Z"/></g>
<g><path style="opacity:1" fill="#b6b6b6" d="M 146.5,10.5 C 145.391,10.5569 144.391,10.8902 143.5,11.5C 140.053,11.1857 136.72,10.3524 133.5,9C 138.167,8.33333 142.833,8.33333 147.5,9C 146.944,9.38258 146.611,9.88258 146.5,10.5 Z"/></g>
<g><path style="opacity:1" fill="#f8f8f8" d="M 41.5,9.5 C 45.4108,10.8181 49.4108,12.1514 53.5,13.5C 54.4973,34.9936 54.8307,56.6602 54.5,78.5C 40.481,83.7613 26.481,83.7613 12.5,78.5C 11.3336,56.841 11.1669,35.1744 12,13.5C 13.9935,12.086 16.1602,11.086 18.5,10.5C 19.791,10.7373 20.791,10.404 21.5,9.5C 28.1972,8.20232 34.8638,8.20232 41.5,9.5 Z"/></g>
<g><path style="opacity:1" fill="#909090" d="M 92.5,8.5 C 96.5,8.5 100.5,8.5 104.5,8.5C 112.079,8.09444 119.412,8.76111 126.5,10.5C 105.066,8.6429 83.7322,9.30957 62.5,12.5C 63.5,11.8333 64.5,11.1667 65.5,10.5C 74.4325,9.03777 83.4325,8.3711 92.5,8.5 Z"/></g>
<g><path style="opacity:1" fill="#fefefe" d="M 126.5,10.5 C 127.167,10.5 127.833,10.5 128.5,10.5C 132.596,12.0231 136.929,13.0231 141.5,13.5C 141.822,35.242 141.488,56.9087 140.5,78.5C 112.462,83.7539 84.4623,83.7539 56.5,78.5C 56.5,56.8333 56.5,35.1667 56.5,13.5C 58.5648,13.4828 60.5648,13.1495 62.5,12.5C 83.7322,9.30957 105.066,8.6429 126.5,10.5 Z"/></g>
<g><path style="opacity:1" fill="#8d8d8d" d="M 161.5,8.5 C 165.042,8.18723 168.375,8.52056 171.5,9.5C 164.798,9.33569 158.131,9.66902 151.5,10.5C 154.507,8.82547 157.84,8.1588 161.5,8.5 Z"/></g>
<g><path style="opacity:1" fill="#fbfbfb" d="M 171.5,9.5 C 176.845,9.7521 181.845,11.0854 186.5,13.5C 186.831,35.3398 186.497,57.0064 185.5,78.5C 177.547,81.9525 169.213,83.2858 160.5,82.5C 154.974,82.4936 149.807,81.1603 145,78.5C 144.167,56.4924 144.334,34.4924 145.5,12.5C 146.739,12.0576 147.739,11.3909 148.5,10.5C 149.5,10.5 150.5,10.5 151.5,10.5C 158.131,9.66902 164.798,9.33569 171.5,9.5 Z"/></g>
<g><path style="opacity:1" fill="#5d5d5d" d="M 41.5,9.5 C 44.3817,9.98606 47.0483,9.98606 49.5,9.5C 50.9952,9.98869 52.3285,10.6554 53.5,11.5C 52.4937,11.9377 52.4937,12.6043 53.5,13.5C 49.4108,12.1514 45.4108,10.8181 41.5,9.5 Z"/></g>
<g><path style="opacity:1" fill="#1a1a1a" d="M 187.5,12.5 C 188.833,34.8333 188.833,57.1667 187.5,79.5C 186.508,79.6716 185.842,79.3382 185.5,78.5C 186.497,57.0064 186.831,35.3398 186.5,13.5C 186.5,12.8333 186.833,12.5 187.5,12.5 Z"/></g>
<g><path style="opacity:1" fill="#313131" d="M 15.5,9.5 C 16.791,9.26269 17.791,9.59603 18.5,10.5C 16.1602,11.086 13.9935,12.086 12,13.5C 11.1669,35.1744 11.3336,56.841 12.5,78.5C 26.481,83.7613 40.481,83.7613 54.5,78.5C 54.8307,56.6602 54.4973,34.9936 53.5,13.5C 52.4937,12.6043 52.4937,11.9377 53.5,11.5C 54.8333,11.5 56.1667,11.5 57.5,11.5C 58.2389,11.369 58.9056,11.5357 59.5,12C 58.2625,12.2321 57.2625,12.7321 56.5,13.5C 56.5,35.1667 56.5,56.8333 56.5,78.5C 84.4623,83.7539 112.462,83.7539 140.5,78.5C 142.489,57.1924 143.156,35.5258 142.5,13.5C 142.833,12.8333 143.167,12.1667 143.5,11.5C 144.391,10.8902 145.391,10.5569 146.5,10.5C 147.167,10.5 147.833,10.5 148.5,10.5C 147.739,11.3909 146.739,12.0576 145.5,12.5C 144.334,34.4924 144.167,56.4924 145,78.5C 149.807,81.1603 154.974,82.4936 160.5,82.5C 163.5,83.1667 166.5,83.8333 169.5,84.5C 122.237,85.6612 74.9041,85.8279 27.5,85C 21.3347,84.1668 15.5014,82.3335 10,79.5C 9.50004,56.8358 9.33337,34.1691 9.5,11.5C 11.7028,11.3964 13.7028,10.7298 15.5,9.5 Z"/></g>
<g><path style="opacity:1" fill="#e3e3e3" d="M 63.5,81.5 C 59.1667,82.8333 54.8333,82.8333 50.5,81.5C 54.8183,80.2463 59.1516,80.2463 63.5,81.5 Z"/></g>
<g><path style="opacity:1" fill="#939393" d="M 141.5,13.5 C 141.833,13.5 142.167,13.5 142.5,13.5C 143.156,35.5258 142.489,57.1924 140.5,78.5C 141.488,56.9087 141.822,35.242 141.5,13.5 Z"/></g>
<g><path style="opacity:1" fill="#eeeeee" d="M 147.5,81.5 C 143.167,82.8333 138.833,82.8333 134.5,81.5C 138.848,80.2463 143.182,80.2463 147.5,81.5 Z"/></g>
<g><path style="opacity:1" fill="#777777" d="M 50.5,81.5 C 54.8333,82.8333 59.1667,82.8333 63.5,81.5C 65.1789,81.8923 66.8455,82.3923 68.5,83C 61.5,83.6667 54.5,83.6667 47.5,83C 48.5266,82.4867 49.5266,81.9867 50.5,81.5 Z"/></g>
<g><path style="opacity:1" fill="#777777" d="M 134.5,81.5 C 138.833,82.8333 143.167,82.8333 147.5,81.5C 148.289,81.7828 148.956,82.2828 149.5,83C 142.5,83.6667 135.5,83.6667 128.5,83C 130.436,82.187 132.436,81.687 134.5,81.5 Z"/></g>
<g><path style="opacity:1" fill="#2a2a2a" d="M 185.5,78.5 C 185.842,79.3382 186.508,79.6716 187.5,79.5C 182.101,82.9212 176.101,84.5878 169.5,84.5C 166.5,83.8333 163.5,83.1667 160.5,82.5C 169.213,83.2858 177.547,81.9525 185.5,78.5 Z"/></g>
<g><path style="opacity:1" fill="#090909" d="M 91.5,174.5 C 87.3821,174.53 83.3821,175.197 79.5,176.5C 79.0618,176.565 78.7284,176.399 78.5,176C 82.6977,173.427 87.031,172.927 91.5,174.5 Z"/></g>
<g><path style="opacity:1" fill="#fafafa" d="M 113.5,176.5 C 151.767,185.947 172.1,210.447 174.5,250C 171.475,290.087 150.475,314.754 111.5,324C 84.9135,327.864 62.2469,320.364 43.5,301.5C 16.5235,266.502 16.8568,231.835 44.5,197.5C 50.778,191.393 57.778,186.227 65.5,182C 69.9051,179.628 74.5718,178.128 79.5,177.5C 90.7819,175.369 102.115,175.036 113.5,176.5 Z"/></g>
<g><path style="opacity:1" fill="#a0a0a0" d="M 91.5,174.5 C 95.1667,174.5 98.8333,174.5 102.5,174.5C 106.489,174.116 110.155,174.783 113.5,176.5C 102.115,175.036 90.7819,175.369 79.5,177.5C 79.5,177.167 79.5,176.833 79.5,176.5C 83.3821,175.197 87.3821,174.53 91.5,174.5 Z"/></g>
<g><path style="opacity:1" fill="#363636" d="M 144.5,173.5 C 143.508,173.328 142.842,173.662 142.5,174.5C 134.648,174.175 126.982,174.508 119.5,175.5C 116.769,174.27 113.769,173.604 110.5,173.5C 107.645,173.503 104.978,173.836 102.5,174.5C 98.8333,174.5 95.1667,174.5 91.5,174.5C 87.031,172.927 82.6977,173.427 78.5,176C 78.7284,176.399 79.0618,176.565 79.5,176.5C 79.5,176.833 79.5,177.167 79.5,177.5C 74.5718,178.128 69.9051,179.628 65.5,182C 57.778,186.227 50.778,191.393 44.5,197.5C 43.7095,196.599 42.7095,195.932 41.5,195.5C 45.4753,188.221 49.4753,180.887 53.5,173.5C 83.9973,172.17 114.331,172.17 144.5,173.5 Z"/></g>
<g><path style="opacity:1" fill="#e9e9e9" d="M 55.5,174.5 C 62.8409,174.334 70.1742,174.5 77.5,175C 65.0784,178.797 54.245,185.297 45,194.5C 48.1356,187.804 51.6356,181.137 55.5,174.5 Z"/></g>
<g><path style="opacity:1" fill="#2d2d2d" d="M 132.5,219.5 C 120.735,206.412 106.068,201.579 88.5,205C 60.9596,214.576 49.7929,233.743 55,262.5C 57.544,270.962 62.044,277.962 68.5,283.5C 76.8931,292.192 87.2264,296.192 99.5,295.5C 99.5,296.5 99.5,297.5 99.5,298.5C 77.6913,297.341 62.5246,286.674 54,266.5C 46.3815,235.231 57.5482,214.064 87.5,203C 112.349,199.508 130.849,208.675 143,230.5C 145.606,237.008 146.439,243.675 145.5,250.5C 145.228,238.323 140.895,227.99 132.5,219.5 Z"/></g>
<g><path style="opacity:1" fill="#ebebeb" d="M 132.5,219.5 C 130.856,219.714 129.356,219.38 128,218.5C 127.517,219.448 127.351,220.448 127.5,221.5C 106.105,204.338 85.938,205.671 67,225.5C 54.9116,246.415 57.4116,265.415 74.5,282.5C 72.0215,283.582 70.5215,282.582 70,279.5C 69.2086,280.745 68.7086,282.078 68.5,283.5C 62.044,277.962 57.544,270.962 55,262.5C 49.7929,233.743 60.9596,214.576 88.5,205C 106.068,201.579 120.735,206.412 132.5,219.5 Z"/></g>
<g><path style="opacity:1" fill="#292929" d="M 102.5,174.5 C 104.978,173.836 107.645,173.503 110.5,173.5C 113.769,173.604 116.769,174.27 119.5,175.5C 132.201,179.014 143.368,185.347 153,194.5C 149.864,187.804 146.364,181.137 142.5,174.5C 142.842,173.662 143.508,173.328 144.5,173.5C 158.955,199.122 173.622,224.622 188.5,250C 173.165,275.509 158.498,301.343 144.5,327.5C 114.167,327.5 83.8333,327.5 53.5,327.5C 50.6178,320.615 47.2845,313.948 43.5,307.5C 43.5,305.5 43.5,303.5 43.5,301.5C 62.2469,320.364 84.9135,327.864 111.5,324C 150.475,314.754 171.475,290.087 174.5,250C 172.1,210.447 151.767,185.947 113.5,176.5C 110.155,174.783 106.489,174.116 102.5,174.5 Z"/></g>
<g><path style="opacity:1" fill="#e4e4e4" d="M 119.5,175.5 C 126.982,174.508 134.648,174.175 142.5,174.5C 146.364,181.137 149.864,187.804 153,194.5C 143.368,185.347 132.201,179.014 119.5,175.5 Z"/></g>
<g><path style="opacity:1" fill="#f0f0f0" d="M 174.5,231.5 C 178.777,237.206 182.443,243.373 185.5,250C 182.387,256.394 178.887,262.561 175,268.5C 175.456,261.542 175.956,254.542 176.5,247.5C 176.461,242.065 175.795,236.732 174.5,231.5 Z"/></g>
<g><path style="opacity:1" fill="#323232" d="M 127.5,221.5 C 144.527,242.735 143.193,262.901 123.5,282C 119.809,284.681 115.809,286.515 111.5,287.5C 110.508,287.672 109.842,287.338 109.5,286.5C 130.246,278.21 139.079,262.877 136,240.5C 130.074,222.414 117.574,212.747 98.5,211.5C 76.4433,214.223 64.11,226.557 61.5,248.5C 62.0672,270.396 73.0672,283.396 94.5,287.5C 96.9686,288.317 99.6353,288.817 102.5,289C 98.8484,289.499 95.1817,289.665 91.5,289.5C 85.2124,288.518 79.5458,286.185 74.5,282.5C 57.4116,265.415 54.9116,246.415 67,225.5C 85.938,205.671 106.105,204.338 127.5,221.5 Z"/></g>
<g><path style="opacity:1" fill="#fbfbfb" d="M 109.5,286.5 C 104.547,287.329 99.547,287.663 94.5,287.5C 73.0672,283.396 62.0672,270.396 61.5,248.5C 64.11,226.557 76.4433,214.223 98.5,211.5C 117.574,212.747 130.074,222.414 136,240.5C 139.079,262.877 130.246,278.21 109.5,286.5 Z"/></g>
<g><path style="opacity:1" fill="#1d1d1d" d="M 41.5,195.5 C 42.7095,195.932 43.7095,196.599 44.5,197.5C 16.8568,231.835 16.5235,266.502 43.5,301.5C 43.5,303.5 43.5,305.5 43.5,307.5C 32.1215,288.58 21.1215,269.413 10.5,250C 20.2014,231.425 30.5348,213.259 41.5,195.5 Z"/></g>
<g><path style="opacity:1" fill="#ededed" d="M 22.5,231.5 C 23.0967,231.735 23.4301,232.235 23.5,233C 22.32,238.094 21.6533,243.261 21.5,248.5C 22.1718,255.192 22.6718,261.859 23,268.5C 19.1134,262.561 15.6134,256.394 12.5,250C 15.7114,243.742 19.0447,237.576 22.5,231.5 Z"/></g>
<g><path style="opacity:1" fill="#565656" d="M 109.5,286.5 C 109.842,287.338 110.508,287.672 111.5,287.5C 105.035,290.458 98.3683,291.125 91.5,289.5C 95.1817,289.665 98.8484,289.499 102.5,289C 99.6353,288.817 96.9686,288.317 94.5,287.5C 99.547,287.663 104.547,287.329 109.5,286.5 Z"/></g>
<g><path style="opacity:1" fill="#f0f0f0" d="M 74.5,323.5 C 68.3554,324.49 62.0221,324.823 55.5,324.5C 51.5664,318.779 48.3997,312.779 46,306.5C 54.0936,314.407 63.5936,320.073 74.5,323.5 Z"/></g>
<g><path style="opacity:1" fill="#ececec" d="M 142.5,324.5 C 135.978,324.823 129.645,324.49 123.5,323.5C 134.695,319.656 144.529,313.656 153,305.5C 150.077,312.001 146.577,318.335 142.5,324.5 Z"/></g>
<g><path style="opacity:1" fill="#9b9b9b" d="M 74.5,323.5 C 76.1033,323.312 77.4366,323.812 78.5,325C 70.6554,325.822 62.9887,325.656 55.5,324.5C 62.0221,324.823 68.3554,324.49 74.5,323.5 Z"/></g>
<g><path style="opacity:1" fill="#999999" d="M 123.5,323.5 C 129.645,324.49 135.978,324.823 142.5,324.5C 135.011,325.656 127.345,325.822 119.5,325C 120.563,323.812 121.897,323.312 123.5,323.5 Z"/></g>
</svg>
