<?xml version="1.0" encoding="UTF-8"?>
<!DOCTYPE svg PUBLIC "-//W3C//DTD SVG 1.1//EN" "http://www.w3.org/Graphics/SVG/1.1/DTD/svg11.dtd">
<svg xmlns="http://www.w3.org/2000/svg" version="1.1" width="216px" height="320px" style="shape-rendering:geometricPrecision; text-rendering:geometricPrecision; image-rendering:optimizeQuality; fill-rule:evenodd; clip-rule:evenodd" xmlns:xlink="http://www.w3.org/1999/xlink">
<g><path style="opacity:1" fill="#fdfdfd" d="M -0.5,-0.5 C 71.5,-0.5 143.5,-0.5 215.5,-0.5C 215.5,106.167 215.5,212.833 215.5,319.5C 143.5,319.5 71.5,319.5 -0.5,319.5C -0.5,212.833 -0.5,106.167 -0.5,-0.5 Z"/></g>
<g><path style="opacity:1" fill="#fbfbfb" d="M 23.5,12.5 C 34.9075,12.1552 46.2408,12.8218 57.5,14.5C 57.5,29.1667 57.5,43.8333 57.5,58.5C 42.109,62.384 26.7757,62.384 11.5,58.5C 11.5,43.8333 11.5,29.1667 11.5,14.5C 15.6836,14.1491 19.6836,13.4824 23.5,12.5 Z"/></g>
<g><path style="opacity:1" fill="#fcfcfc" d="M 188.5,12.5 C 189.167,12.5 189.833,12.5 190.5,12.5C 194.737,13.4009 199.07,14.4009 203.5,15.5C 203.5,29.8333 203.5,44.1667 203.5,58.5C 188.535,62.1651 173.535,62.3317 158.5,59C 157.51,44.5785 157.176,30.0785 157.5,15.5C 167.734,13.5168 178.068,12.5168 188.5,12.5 Z"/></g>
<g><path style="opacity:1" fill="#424242" d="M 196.5,11.5 C 199.01,11.9267 201.343,12.5933 203.5,13.5C 202.761,13.369 202.094,13.5357 201.5,14C 202.416,14.2784 203.082,14.7784 203.5,15.5C 199.07,14.4009 194.737,13.4009 190.5,12.5C 192.735,12.7947 194.735,12.4614 196.5,11.5 Z"/></g>
<g><path style="opacity:1" fill="#939393" d="M 188.5,12.5 C 178.068,12.5168 167.734,13.5168 157.5,15.5C 167.594,11.7308 177.927,10.7308 188.5,12.5 Z"/></g>
<g><path style="opacity:1" fill="#585858" d="M 193.5,10.5 C 136.499,10.3333 79.499,10.5 22.5,11C 18.7741,12.0432 19.1074,12.5432 23.5,12.5C 19.6836,13.4824 15.6836,14.1491 11.5,14.5C 11.5,29.1667 11.5,43.8333 11.5,58.5C 10.6688,44.3392 10.1688,30.0059 10,15.5C 9.50008,30.4963 9.33342,45.4963 9.5,60.5C 8.33868,45.0054 8.17202,29.3388 9,13.5C 12.8183,12.3349 16.6517,11.1682 20.5,10C 78.3348,9.16811 136.001,9.33478 193.5,10.5 Z"/></g>
<g><path style="opacity:1" fill="#212121" d="M 193.5,10.5 C 194.609,10.5569 195.609,10.8902 196.5,11.5C 194.735,12.4614 192.735,12.7947 190.5,12.5C 189.833,12.5 189.167,12.5 188.5,12.5C 177.927,10.7308 167.594,11.7308 157.5,15.5C 157.176,30.0785 157.51,44.5785 158.5,59C 173.535,62.3317 188.535,62.1651 203.5,58.5C 203.5,44.1667 203.5,29.8333 203.5,15.5C 203.082,14.7784 202.416,14.2784 201.5,14C 202.094,13.5357 202.761,13.369 203.5,13.5C 205.484,28.7977 206.151,44.4643 205.5,60.5C 201.812,61.1717 198.145,62.0051 194.5,63C 135.833,63.6667 77.1667,63.6667 18.5,63C 15.5682,61.8551 12.5682,61.0218 9.5,60.5C 9.33342,45.4963 9.50008,30.4963 10,15.5C 10.1688,30.0059 10.6688,44.3392 11.5,58.5C 26.7757,62.384 42.109,62.384 57.5,58.5C 57.5,43.8333 57.5,29.1667 57.5,14.5C 46.2408,12.8218 34.9075,12.1552 23.5,12.5C 19.1074,12.5432 18.7741,12.0432 22.5,11C 79.499,10.5 136.499,10.3333 193.5,10.5 Z"/></g>
<g><path style="opacity:1" fill="#fbfbfb" d="M 122.5,12.5 C 133.201,13.124 143.868,14.124 154.5,15.5C 154.5,29.8333 154.5,44.1667 154.5,58.5C 122.826,62.4383 91.1593,62.4383 59.5,58.5C 59.3334,44.1628 59.5001,29.8295 60,15.5C 63.73,14.5399 67.5633,14.2065 71.5,14.5C 88.4651,13.0489 105.465,12.3822 122.5,12.5 Z"/></g>
<g><path style="opacity:1" fill="#939393" d="M 122.5,12.5 C 105.465,12.3822 88.4651,13.0489 71.5,14.5C 77.599,12.9846 83.9323,12.1512 90.5,12C 101.341,11.1745 112.008,11.3412 122.5,12.5 Z"/></g>
<g><path style="opacity:1" fill="#828282" d="M 150.5,12.5 C 152.966,11.3659 155.633,11.1993 158.5,12C 155.954,13.8116 153.288,13.9783 150.5,12.5 Z"/></g>
<g><path style="opacity:1" fill="#676767" d="M 55.5,60.5 C 59.3751,60.0845 63.0418,60.5845 66.5,62C 64.6667,62.1667 62.8333,62.3333 61,62.5C 58.7047,62.4535 56.8714,61.7868 55.5,60.5 Z"/></g>
<g><path style="opacity:1" fill="#656565" d="M 147.5,60.5 C 151.555,60.1758 155.555,60.5091 159.5,61.5C 157.5,61.8333 155.5,62.1667 153.5,62.5C 151.048,62.4609 149.048,61.7943 147.5,60.5 Z"/></g>
<g><path style="opacity:1" fill="#7a7a7a" d="M 156.5,141.5 C 123.662,141.168 90.9957,141.502 58.5,142.5C 58.1667,142.5 57.8333,142.5 57.5,142.5C 73.6529,141.167 90.1529,140.5 107,140.5C 123.67,140.5 140.17,140.833 156.5,141.5 Z"/></g>
<g><path style="opacity:1" fill="#101010" d="M 58.5,142.5 C 90.9957,141.502 123.662,141.168 156.5,141.5C 156.5,142.167 156.167,142.5 155.5,142.5C 144.395,142.079 133.395,142.746 122.5,144.5C 120.139,144.326 117.806,143.993 115.5,143.5C 109.347,142.347 103.014,142.18 96.5,143C 93.8091,143.156 91.4758,143.989 89.5,145.5C 85.3811,146.097 81.3811,147.097 77.5,148.5C 75.3023,148.591 74.9689,147.925 76.5,146.5C 78.1172,145.962 79.7839,145.629 81.5,145.5C 83.0898,145.372 84.4231,144.705 85.5,143.5C 76.8589,142.502 68.1922,142.169 59.5,142.5C 59.1667,142.5 58.8333,142.5 58.5,142.5 Z"/></g>
<g><path style="opacity:1" fill="#676767" d="M 59.5,143.5 C 59.5,143.167 59.5,142.833 59.5,142.5C 68.1922,142.169 76.8589,142.502 85.5,143.5C 84.4231,144.705 83.0898,145.372 81.5,145.5C 81.6107,144.883 81.944,144.383 82.5,144C 74.8406,143.5 67.1739,143.334 59.5,143.5 Z"/></g>
<g><path style="opacity:1" fill="#676767" d="M 115.5,143.5 C 106.751,143.255 98.0848,143.922 89.5,145.5C 91.4758,143.989 93.8091,143.156 96.5,143C 103.014,142.18 109.347,142.347 115.5,143.5 Z"/></g>
<g><path style="opacity:1" fill="#ebebeb" d="M 59.5,143.5 C 67.1739,143.334 74.8406,143.5 82.5,144C 81.944,144.383 81.6107,144.883 81.5,145.5C 79.7839,145.629 78.1172,145.962 76.5,146.5C 64.9419,150.536 55.1085,157.203 47,166.5C 46.6848,165.092 47.0181,163.759 48,162.5C 51.859,156.103 55.6924,149.77 59.5,143.5 Z"/></g>
<g><path style="opacity:1" fill="#fafafa" d="M 115.5,143.5 C 117.806,143.993 120.139,144.326 122.5,144.5C 127.733,146.131 133.066,147.798 138.5,149.5C 166.821,161.786 183.988,183.12 190,213.5C 193.043,241.687 184.876,266.02 165.5,286.5C 158.309,292.26 150.642,297.26 142.5,301.5C 140.033,301.755 138.033,302.755 136.5,304.5C 129.59,306.349 122.59,307.682 115.5,308.5C 106.482,308.552 97.4818,308.218 88.5,307.5C 87.5084,307.672 86.8417,307.338 86.5,306.5C 83.4954,304.723 80.1621,303.723 76.5,303.5C 67.7388,300.058 59.7388,295.391 52.5,289.5C 25.7973,262.868 18.2973,231.535 30,195.5C 39.8051,173.527 55.6384,157.86 77.5,148.5C 81.3811,147.097 85.3811,146.097 89.5,145.5C 98.0848,143.922 106.751,143.255 115.5,143.5 Z"/></g>
<g><path style="opacity:1" fill="#4e4e4e" d="M 155.5,142.5 C 155.5,142.833 155.5,143.167 155.5,143.5C 147.16,143.334 138.827,143.5 130.5,144C 133.718,144.9 136.718,146.067 139.5,147.5C 137.302,147.409 136.969,148.075 138.5,149.5C 133.066,147.798 127.733,146.131 122.5,144.5C 133.395,142.746 144.395,142.079 155.5,142.5 Z"/></g>
<g><path style="opacity:1" fill="#e7e7e7" d="M 155.5,143.5 C 160.245,151 164.412,158.667 168,166.5C 159.957,157.953 150.457,151.62 139.5,147.5C 136.718,146.067 133.718,144.9 130.5,144C 138.827,143.5 147.16,143.334 155.5,143.5 Z"/></g>
<g><path style="opacity:1" fill="#1b1b1b" d="M 156.5,141.5 C 173.581,169.318 189.914,197.651 205.5,226.5C 193.424,248.319 181.091,269.986 168.5,291.5C 167.833,291.5 167.167,291.5 166.5,291.5C 166.557,290.391 166.89,289.391 167.5,288.5C 168.043,288.44 168.376,288.107 168.5,287.5C 167.675,286.614 166.675,286.281 165.5,286.5C 184.876,266.02 193.043,241.687 190,213.5C 183.988,183.12 166.821,161.786 138.5,149.5C 136.969,148.075 137.302,147.409 139.5,147.5C 150.457,151.62 159.957,157.953 168,166.5C 164.412,158.667 160.245,151 155.5,143.5C 155.5,143.167 155.5,142.833 155.5,142.5C 156.167,142.5 156.5,142.167 156.5,141.5 Z"/></g>
<g><path style="opacity:1" fill="#1e1e1e" d="M 57.5,142.5 C 57.8333,142.5 58.1667,142.5 58.5,142.5C 58.8333,142.5 59.1667,142.5 59.5,142.5C 59.5,142.833 59.5,143.167 59.5,143.5C 55.6924,149.77 51.859,156.103 48,162.5C 47.0181,163.759 46.6848,165.092 47,166.5C 55.1085,157.203 64.9419,150.536 76.5,146.5C 74.9689,147.925 75.3023,148.591 77.5,148.5C 55.6384,157.86 39.8051,173.527 30,195.5C 18.2973,231.535 25.7973,262.868 52.5,289.5C 51.8333,289.5 51.5,289.833 51.5,290.5C 50.1667,289.833 49.1667,288.833 48.5,287.5C 47.1667,284.833 45.8333,284.833 44.5,287.5C 32.5762,267.32 20.9095,246.986 9.5,226.5C 25.0051,198.149 41.0051,170.149 57.5,142.5 Z"/></g>
<g><path style="opacity:1" fill="#ececec" d="M 23.5,204.5 C 24.1239,204.917 24.4573,205.584 24.5,206.5C 21.8326,220.935 21.9993,235.268 25,249.5C 20.3736,241.748 15.8736,233.915 11.5,226C 15.651,218.86 19.651,211.693 23.5,204.5 Z"/></g>
<g><path style="opacity:1" fill="#ececec" d="M 190.5,204.5 C 195.311,211.44 199.644,218.774 203.5,226.5C 199.333,233.5 195.167,240.5 191,247.5C 193.137,233.168 192.971,218.835 190.5,204.5 Z"/></g>
<g><path style="opacity:1" fill="#bdbdbd" d="M 66.5,209.5 C 63.5153,217.984 62.8486,226.65 64.5,235.5C 63.7784,235.082 63.2784,234.416 63,233.5C 62.3333,228.167 62.3333,222.833 63,217.5C 63.5784,214.428 64.745,211.761 66.5,209.5 Z"/></g>
<g><path style="opacity:1" fill="#c2c2c2" d="M 150.5,216.5 C 151.222,216.918 151.722,217.584 152,218.5C 152.638,225.208 152.305,231.874 151,238.5C 150.8,240.32 149.966,241.653 148.5,242.5C 151.296,234.001 151.963,225.334 150.5,216.5 Z"/></g>
<g><path style="opacity:1" fill="#292929" d="M 100.5,276.5 C 102.631,277.314 104.964,277.814 107.5,278C 104.183,278.498 100.85,278.665 97.5,278.5C 95.4855,277.076 93.1522,276.41 90.5,276.5C 64.0965,265.389 52.2631,245.389 55,216.5C 65.8215,181.167 89.3215,167.667 125.5,176C 145.607,184.615 157.274,199.781 160.5,221.5C 160.167,223.167 159.833,224.833 159.5,226.5C 156.525,200.369 142.525,183.536 117.5,176C 85.5065,173.252 65.3399,187.419 57,218.5C 55.1985,242.065 64.3651,259.899 84.5,272C 89.5943,274.421 94.9277,275.921 100.5,276.5 Z"/></g>
<g><path style="opacity:1" fill="#292929" d="M 150.5,216.5 C 151.963,225.334 151.296,234.001 148.5,242.5C 138.315,263.973 121.315,273.14 97.5,270C 79.8172,264.819 68.8172,253.319 64.5,235.5C 62.8486,226.65 63.5153,217.984 66.5,209.5C 76.7577,188.035 93.7577,179.202 117.5,183C 134.757,188.09 145.757,199.257 150.5,216.5 Z"/></g>
<g><path style="opacity:1" fill="#b9b9b9" d="M 68.5,211.5 C 66.8678,218.044 66.2011,224.711 66.5,231.5C 65.3516,227.019 65.1849,222.352 66,217.5C 66.5662,215.277 67.3995,213.277 68.5,211.5 Z"/></g>
<g><path style="opacity:1" fill="#fcfcfc" d="M 99.5,267.5 C 97.4855,266.076 95.1522,265.41 92.5,265.5C 77.4872,259.139 68.8206,247.805 66.5,231.5C 66.2011,224.711 66.8678,218.044 68.5,211.5C 79.3645,188.031 97.3645,179.864 122.5,187C 145.48,198.296 153.48,216.296 146.5,241C 137.246,261.292 121.58,270.125 99.5,267.5 Z"/></g>
<g><path style="opacity:1" fill="#a0a0a0" d="M 92.5,265.5 C 95.1522,265.41 97.4855,266.076 99.5,267.5C 96.8478,267.59 94.5145,266.924 92.5,265.5 Z"/></g>
<g><path style="opacity:1" fill="#686868" d="M 90.5,276.5 C 93.1522,276.41 95.4855,277.076 97.5,278.5C 94.8478,278.59 92.5145,277.924 90.5,276.5 Z"/></g>
<g><path style="opacity:1" fill="#7e7e7e" d="M 100.5,276.5 C 103.167,276.5 105.833,276.5 108.5,276.5C 108.5,277.5 108.5,278.5 108.5,279.5C 104.629,279.815 100.962,279.482 97.5,278.5C 100.85,278.665 104.183,278.498 107.5,278C 104.964,277.814 102.631,277.314 100.5,276.5 Z"/></g>
<g><path style="opacity:1" fill="#ececec" d="M 167.5,288.5 C 166.89,289.391 166.557,290.391 166.5,291.5C 162.584,296.996 158.918,302.663 155.5,308.5C 148.313,308.825 141.313,308.491 134.5,307.5C 146.458,302.766 157.291,296.099 167,287.5C 167.399,287.728 167.565,288.062 167.5,288.5 Z"/></g>
<g><path style="opacity:1" fill="#2c2c2c" d="M 48.5,287.5 C 47.5354,288.721 47.702,290.054 49,291.5C 52.6258,297.25 56.1258,303.084 59.5,309C 67.8333,309.667 76.1667,309.667 84.5,309C 71.9257,305.386 60.9257,299.219 51.5,290.5C 51.5,289.833 51.8333,289.5 52.5,289.5C 59.7388,295.391 67.7388,300.058 76.5,303.5C 79.5046,305.277 82.8379,306.277 86.5,306.5C 86.8417,307.338 87.5084,307.672 88.5,307.5C 93.5805,309.015 98.9138,309.682 104.5,309.5C 108.349,309.499 112.016,309.165 115.5,308.5C 122.59,307.682 129.59,306.349 136.5,304.5C 138.967,304.245 140.967,303.245 142.5,301.5C 150.642,297.26 158.309,292.26 165.5,286.5C 166.675,286.281 167.675,286.614 168.5,287.5C 168.376,288.107 168.043,288.44 167.5,288.5C 167.565,288.062 167.399,287.728 167,287.5C 157.291,296.099 146.458,302.766 134.5,307.5C 132.571,307.231 130.905,307.731 129.5,309C 138.343,309.824 147.01,309.657 155.5,308.5C 158.918,302.663 162.584,296.996 166.5,291.5C 167.167,291.5 167.833,291.5 168.5,291.5C 164.592,297.642 160.926,303.976 157.5,310.5C 124.167,311.833 90.8333,311.833 57.5,310.5C 53.4079,302.644 49.0746,294.977 44.5,287.5C 45.8333,284.833 47.1667,284.833 48.5,287.5 Z"/></g>
<g><path style="opacity:1" fill="#b1b1b1" d="M 134.5,307.5 C 141.313,308.491 148.313,308.825 155.5,308.5C 147.01,309.657 138.343,309.824 129.5,309C 130.905,307.731 132.571,307.231 134.5,307.5 Z"/></g>
<g><path style="opacity:1" fill="#919191" d="M 88.5,307.5 C 97.4818,308.218 106.482,308.552 115.5,308.5C 112.016,309.165 108.349,309.499 104.5,309.5C 98.9138,309.682 93.5805,309.015 88.5,307.5 Z"/></g>
<g><path style="opacity:1" fill="#666666" d="M 142.5,301.5 C 140.967,303.245 138.967,304.245 136.5,304.5C 138.033,302.755 140.033,301.755 142.5,301.5 Z"/></g>
<g><path style="opacity:1" fill="#a1a1a1" d="M 76.5,303.5 C 80.1621,303.723 83.4954,304.723 86.5,306.5C 82.8379,306.277 79.5046,305.277 76.5,303.5 Z"/></g>
<g><path style="opacity:1" fill="#e9e9e9" d="M 48.5,287.5 C 49.1667,288.833 50.1667,289.833 51.5,290.5C 60.9257,299.219 71.9257,305.386 84.5,309C 76.1667,309.667 67.8333,309.667 59.5,309C 56.1258,303.084 52.6258,297.25 49,291.5C 47.702,290.054 47.5354,288.721 48.5,287.5 Z"/></g>
</svg>
