<?xml version="1.0" standalone="no"?>
<!DOCTYPE svg PUBLIC "-//W3C//DTD SVG 20010904//EN"
 "http://www.w3.org/TR/2001/REC-SVG-20010904/DTD/svg10.dtd">
<svg version="1.0" xmlns="http://www.w3.org/2000/svg"
 width="190.000000pt" height="1297.000000pt" viewBox="0 0 190.000000 1297.000000"
 preserveAspectRatio="xMidYMid meet">

<g transform="translate(0.000000,1297.000000) scale(0.100000,-0.100000)"
fill="#000000" stroke="none">
<path d="M480 12809 c-83 -16 -183 -74 -247 -143 -91 -96 -133 -204 -133 -336
0 -211 167 -413 378 -459 72 -15 921 -15 994 0 182 38 335 200 369 391 44 246
-132 501 -380 548 -66 12 -916 12 -981 -1z m286 -32 c-118 -75 -192 -153 -238
-252 -20 -44 -23 -65 -23 -185 0 -132 1 -137 32 -200 42 -85 110 -160 185
-207 l62 -38 -113 -3 c-195 -5 -304 31 -404 132 -176 179 -177 451 -3 627 104
105 199 137 401 138 97 0 116 -2 101 -12z m697 -2 c37 -8 90 -26 116 -41 73
-39 157 -128 194 -204 27 -57 32 -78 35 -166 5 -124 -11 -186 -70 -274 -48
-72 -131 -138 -216 -171 -48 -18 -82 -23 -212 -26 l-155 -4 45 26 c168 99 249
237 250 423 0 182 -85 331 -241 421 l-54 31 120 0 c66 0 151 -7 188 -15z
m-513 -435 l0 -440 -32 0 c-87 0 -193 55 -269 138 -88 96 -127 213 -115 344 8
90 36 161 91 231 77 98 192 164 288 166 l37 1 0 -440z m214 402 c222 -104 318
-382 207 -600 -70 -138 -215 -241 -338 -242 l-33 0 0 441 0 442 49 -5 c26 -3
78 -19 115 -36z"/>
<path d="M892 9244 c-315 -38 -568 -214 -703 -489 -61 -126 -82 -216 -83 -375
-1 -144 9 -198 60 -328 59 -148 166 -291 285 -378 l49 -36 -2 -3605 -3 -3606
66 -71 c36 -39 107 -116 158 -171 51 -55 96 -100 101 -100 4 0 42 52 84 115
l76 115 0 465 1 465 60 -118 c56 -111 61 -117 77 -101 9 9 85 132 169 273 83
141 155 255 160 254 4 -1 7 1366 5 3038 l-2 3040 23 22 c13 12 54 48 90 80
152 133 250 328 277 553 35 293 -96 601 -333 780 -114 87 -331 174 -432 174
-15 0 -24 4 -20 10 8 13 -19 12 -163 -6z m281 -54 c261 -67 438 -211 562 -459
54 -107 78 -214 78 -351 -1 -274 -112 -507 -315 -663 l-78 -59 0 -3032 0
-3033 -152 -262 c-84 -143 -155 -261 -158 -261 -3 0 -29 47 -58 105 l-52 105
0 3245 c0 3180 0 3246 19 3296 28 72 92 152 159 198 147 100 208 217 200 380
-6 115 -43 196 -128 274 -86 80 -147 102 -280 102 -99 0 -110 -2 -172 -33
-162 -80 -258 -257 -229 -423 24 -130 91 -229 208 -305 30 -19 72 -60 98 -95
83 -112 75 277 75 -3878 l0 -3716 -65 -98 c-36 -53 -67 -97 -68 -97 -2 0 -67
69 -145 154 l-142 154 0 3611 0 3610 -42 29 c-24 16 -80 68 -125 115 -70 73
-90 102 -137 199 -79 164 -104 297 -86 456 19 172 73 309 171 435 90 117 266
239 413 287 132 43 308 47 449 10z m-82 -460 c80 -25 133 -62 181 -125 131
-172 91 -413 -87 -541 -84 -60 -151 -133 -183 -202 l-28 -59 -26 57 c-34 71
-95 140 -168 190 -68 46 -120 107 -152 176 -19 41 -23 66 -23 149 0 90 3 106
29 159 34 69 70 112 126 151 94 65 216 81 331 45z"/>
</g>
</svg>
