<?xml version="1.0" encoding="UTF-8"?>
<!DOCTYPE svg PUBLIC "-//W3C//DTD SVG 1.1//EN" "http://www.w3.org/Graphics/SVG/1.1/DTD/svg11.dtd">
<svg xmlns="http://www.w3.org/2000/svg" version="1.1" width="123px" height="444px" style="shape-rendering:geometricPrecision; text-rendering:geometricPrecision; image-rendering:optimizeQuality; fill-rule:evenodd; clip-rule:evenodd" xmlns:xlink="http://www.w3.org/1999/xlink">
<g><path style="opacity:1" fill="#fcfcfc" d="M -0.5,-0.5 C 40.5,-0.5 81.5,-0.5 122.5,-0.5C 122.5,147.5 122.5,295.5 122.5,443.5C 81.5,443.5 40.5,443.5 -0.5,443.5C -0.5,295.5 -0.5,147.5 -0.5,-0.5 Z"/></g>
<g><path style="opacity:1" fill="#303030" d="M 56.5,5.5 C 56.5,13.8333 56.5,22.1667 56.5,30.5C 60.5,30.5 64.5,30.5 68.5,30.5C 68.5,22.1667 68.5,13.8333 68.5,5.5C 83.4567,6.78019 97.6233,10.7802 111,17.5C 111.667,19.5 111.667,21.5 111,23.5C 104.631,30.036 98.1315,36.3694 91.5,42.5C 90.8333,42.5 90.1667,42.5 89.5,42.5C 94.8063,36.5271 100.473,30.8604 106.5,25.5C 107.043,25.44 107.376,25.1067 107.5,24.5C 94.8508,23.5009 82.1842,23.1676 69.5,23.5C 69.5,26.1667 69.5,28.8333 69.5,31.5C 65.0189,32.6484 60.3522,32.8151 55.5,32C 54.565,29.6194 54.2317,27.1194 54.5,24.5C 42.327,23.1753 29.9937,23.1753 17.5,24.5C 17.6236,25.1067 17.9569,25.44 18.5,25.5C 23.5,31.1667 28.8333,36.5 34.5,41.5C 34.8333,42.5 35.5,43.1667 36.5,43.5C 36.5,44.1667 36.5,44.8333 36.5,45.5C 36.3334,70.8355 36.5,96.1689 37,121.5C 39.0396,123.37 40.8729,125.37 42.5,127.5C 41.8333,128.167 41.1667,128.833 40.5,129.5C 38.9128,126.732 37.0795,124.065 35,121.5C 34.6667,95.8333 34.3333,70.1667 34,44.5C 27.3333,37.8333 20.6667,31.1667 14,24.5C 13.5026,21.854 13.3359,19.1873 13.5,16.5C 27.2124,10.4885 41.5457,6.82179 56.5,5.5 Z"/></g>
<g><path style="opacity:1" fill="#eaeaea" d="M 109.5,19.5 C 96.8763,21.4809 83.8763,22.1476 70.5,21.5C 83.1237,19.5191 96.1237,18.8524 109.5,19.5 Z"/></g>
<g><path style="opacity:1" fill="#ebebeb" d="M 54.5,19.5 C 41.8763,21.4809 28.8763,22.1476 15.5,21.5C 28.1237,19.5191 41.1237,18.8524 54.5,19.5 Z"/></g>
<g><path style="opacity:1" fill="#8e8e8e" d="M 56.5,5.5 C 57.4924,13.3159 57.8257,21.3159 57.5,29.5C 60.8333,29.5 64.1667,29.5 67.5,29.5C 67.1743,21.3159 67.5076,13.3159 68.5,5.5C 68.5,13.8333 68.5,22.1667 68.5,30.5C 64.5,30.5 60.5,30.5 56.5,30.5C 56.5,22.1667 56.5,13.8333 56.5,5.5 Z"/></g>
<g><path style="opacity:1" fill="#939393" d="M 109.5,19.5 C 96.1237,18.8524 83.1237,19.5191 70.5,21.5C 69.596,20.791 69.2627,19.791 69.5,18.5C 83.0105,18.1711 96.3438,18.5044 109.5,19.5 Z"/></g>
<g><path style="opacity:1" fill="#949494" d="M 54.5,19.5 C 41.1237,18.8524 28.1237,19.5191 15.5,21.5C 14.596,20.791 14.2627,19.791 14.5,18.5C 28.0105,18.1711 41.3438,18.5044 54.5,19.5 Z"/></g>
<g><path style="opacity:1" fill="#6f6f6f" d="M 102.5,15.5 C 103.289,15.7828 103.956,16.2828 104.5,17C 92.9924,17.8259 81.6591,17.6593 70.5,16.5C 81.3464,16.8278 92.0131,16.4944 102.5,15.5 Z"/></g>
<g><path style="opacity:1" fill="#707070" d="M 22.5,15.5 C 32.9869,16.4944 43.6536,16.8278 54.5,16.5C 43.3265,17.824 31.9931,17.824 20.5,16.5C 20.9569,15.7025 21.6236,15.3691 22.5,15.5 Z"/></g>
<g><path style="opacity:1" fill="#7a7a7a" d="M 72.5,8.5 C 70.631,10.6353 69.9644,13.3019 70.5,16.5C 69.5233,13.7131 69.19,10.7131 69.5,7.5C 70.791,7.26269 71.791,7.59603 72.5,8.5 Z"/></g>
<g><path style="opacity:1" fill="#f6f6f6" d="M 72.5,8.5 C 82.8779,9.30823 92.8779,11.6416 102.5,15.5C 92.0131,16.4944 81.3464,16.8278 70.5,16.5C 69.9644,13.3019 70.631,10.6353 72.5,8.5 Z"/></g>
<g><path style="opacity:1" fill="#f0f0f0" d="M 54.5,16.5 C 43.6536,16.8278 32.9869,16.4944 22.5,15.5C 32.6523,10.9629 43.319,8.62953 54.5,8.5C 54.5,11.1667 54.5,13.8333 54.5,16.5 Z"/></g>
<g><path style="opacity:1" fill="#8c8c8c" d="M 54.5,24.5 C 42.3217,24.1716 30.3217,24.5049 18.5,25.5C 17.9569,25.44 17.6236,25.1067 17.5,24.5C 29.9937,23.1753 42.327,23.1753 54.5,24.5 Z"/></g>
<g><path style="opacity:1" fill="#898989" d="M 106.5,25.5 C 94.6783,24.5049 82.6783,24.1716 70.5,24.5C 70.8016,27.0593 70.4682,29.3926 69.5,31.5C 69.5,28.8333 69.5,26.1667 69.5,23.5C 82.1842,23.1676 94.8508,23.5009 107.5,24.5C 107.376,25.1067 107.043,25.44 106.5,25.5 Z"/></g>
<g><path style="opacity:1" fill="#fbfbfb" d="M 54.5,24.5 C 54.2317,27.1194 54.565,29.6194 55.5,32C 60.3522,32.8151 65.0189,32.6484 69.5,31.5C 70.4682,29.3926 70.8016,27.0593 70.5,24.5C 82.6783,24.1716 94.6783,24.5049 106.5,25.5C 100.473,30.8604 94.8063,36.5271 89.5,42.5C 71.12,42.8073 52.7867,42.4739 34.5,41.5C 28.8333,36.5 23.5,31.1667 18.5,25.5C 30.3217,24.5049 42.3217,24.1716 54.5,24.5 Z"/></g>
<g><path style="opacity:1" fill="#c1c1c1" d="M 34.5,41.5 C 52.7867,42.4739 71.12,42.8073 89.5,42.5C 89.5,43.1667 89.1667,43.5 88.5,43.5C 71.1667,43.5 53.8333,43.5 36.5,43.5C 35.5,43.1667 34.8333,42.5 34.5,41.5 Z"/></g>
<g><path style="opacity:1" fill="#404040" d="M 36.5,43.5 C 53.8333,43.5 71.1667,43.5 88.5,43.5C 88.1667,44.1667 87.8333,44.8333 87.5,45.5C 70.5,45.5 53.5,45.5 36.5,45.5C 36.5,44.8333 36.5,44.1667 36.5,43.5 Z"/></g>
<g><path style="opacity:1" fill="#fcfcfc" d="M 36.5,45.5 C 53.5,45.5 70.5,45.5 87.5,45.5C 87.5,70.8333 87.5,96.1667 87.5,121.5C 72.3974,122.909 57.3974,124.909 42.5,127.5C 40.8729,125.37 39.0396,123.37 37,121.5C 36.5,96.1689 36.3334,70.8355 36.5,45.5 Z"/></g>
<g><path style="opacity:1" fill="#252525" d="M 89.5,42.5 C 90.1667,42.5 90.8333,42.5 91.5,42.5C 91.2172,43.2891 90.7172,43.9558 90,44.5C 89.6667,70.5 89.3333,96.5 89,122.5C 87.3745,125.128 85.3745,127.461 83,129.5C 79.9481,135.76 81.4481,140.26 87.5,143C 88.0585,143.725 88.3918,144.558 88.5,145.5C 86.9185,147.63 84.9185,149.297 82.5,150.5C 81.2027,155.066 81.2027,159.733 82.5,164.5C 82.44,165.043 82.1067,165.376 81.5,165.5C 81.0899,160.4 80.0899,155.566 78.5,151C 81.7058,150.073 82.0392,148.907 79.5,147.5C 86.5231,146.792 87.3564,145.125 82,142.5C 70.2482,145.918 58.4148,149.085 46.5,152C 55.8575,151.238 65.1908,150.071 74.5,148.5C 75.8734,148.343 77.2068,148.51 78.5,149C 76.9419,149.21 75.6085,149.71 74.5,150.5C 62.3454,151.637 50.3454,153.637 38.5,156.5C 37.8333,156.5 37.5,156.167 37.5,155.5C 38.4057,154.035 39.739,153.035 41.5,152.5C 42.6616,147.869 42.8283,143.202 42,138.5C 39.0841,137.472 36.9175,135.638 35.5,133C 36.7698,131.225 38.4365,130.058 40.5,129.5C 41.1667,128.833 41.8333,128.167 42.5,127.5C 57.3974,124.909 72.3974,122.909 87.5,121.5C 87.5,96.1667 87.5,70.8333 87.5,45.5C 87.8333,44.8333 88.1667,44.1667 88.5,43.5C 89.1667,43.5 89.5,43.1667 89.5,42.5 Z"/></g>
<g><path style="opacity:1" fill="#8d8d8d" d="M 45.5,137.5 C 45.1832,141.702 45.5166,145.702 46.5,149.5C 46.44,150.043 46.1067,150.376 45.5,150.5C 44.1889,146.016 44.1889,141.683 45.5,137.5 Z"/></g>
<g><path style="opacity:1" fill="#d5d5d5" d="M 68.5,126.5 C 70.1992,126.34 71.8659,126.506 73.5,127C 63.138,129.732 52.8046,132.565 42.5,135.5C 40.8927,135.363 39.5594,134.696 38.5,133.5C 40.2199,132.066 42.2199,131.233 44.5,131C 52.6966,129.811 60.6966,128.311 68.5,126.5 Z"/></g>
<g><path style="opacity:1" fill="#f6f6f6" d="M 46.5,149.5 C 45.5166,145.702 45.1832,141.702 45.5,137.5C 58.1506,133.67 70.8172,129.837 83.5,126C 82.3333,127.167 81.1667,128.333 80,129.5C 79.8265,133.541 79.3265,137.541 78.5,141.5C 67.9798,144.797 57.3131,147.463 46.5,149.5 Z"/></g>
<g><path style="opacity:1" fill="#d2d2d2" d="M 79.5,147.5 C 77.5853,147.216 75.9187,147.549 74.5,148.5C 65.1908,150.071 55.8575,151.238 46.5,152C 58.4148,149.085 70.2482,145.918 82,142.5C 87.3564,145.125 86.5231,146.792 79.5,147.5 Z"/></g>
<g><path style="opacity:1" fill="#dcdcdc" d="M 74.5,150.5 C 75.2389,150.369 75.9056,150.536 76.5,151C 65.0759,153.523 53.7426,156.356 42.5,159.5C 40.3472,159.439 39.0138,158.439 38.5,156.5C 50.3454,153.637 62.3454,151.637 74.5,150.5 Z"/></g>
<g><path style="opacity:1" fill="#c0c0c0" d="M 82.5,150.5 C 82.123,155.872 83.123,160.872 85.5,165.5C 84.391,165.443 83.391,165.11 82.5,164.5C 81.2027,159.733 81.2027,155.066 82.5,150.5 Z"/></g>
<g><path style="opacity:1" fill="#282828" d="M 74.5,148.5 C 75.9187,147.549 77.5853,147.216 79.5,147.5C 82.0392,148.907 81.7058,150.073 78.5,151C 80.0899,155.566 81.0899,160.4 81.5,165.5C 82.1067,165.376 82.44,165.043 82.5,164.5C 83.391,165.11 84.391,165.443 85.5,165.5C 87.2133,166.223 88.2133,167.557 88.5,169.5C 86.8783,171.641 84.8783,173.308 82.5,174.5C 81.353,178.646 81.1864,182.98 82,187.5C 82.7172,188.044 83.2172,188.711 83.5,189.5C 82.5,189.5 81.5,189.5 80.5,189.5C 81.0736,184.352 80.407,179.518 78.5,175C 79.3366,173.989 79.67,172.822 79.5,171.5C 81.7128,171.152 83.7128,170.319 85.5,169C 82.6761,166.012 79.6761,166.012 76.5,169C 66.3412,170.707 56.3412,173.04 46.5,176C 47.3333,176.167 48.1667,176.333 49,176.5C 53.7593,175.248 58.5927,174.581 63.5,174.5C 64.791,174.263 65.791,174.596 66.5,175.5C 57.7972,176.617 49.1305,177.951 40.5,179.5C 39.5084,179.672 38.8417,179.338 38.5,178.5C 39.2613,177.609 40.2613,176.942 41.5,176.5C 42.6616,171.869 42.8283,167.202 42,162.5C 39.4562,160.998 37.2895,159.164 35.5,157C 35.8361,155.97 36.5028,155.47 37.5,155.5C 37.5,156.167 37.8333,156.5 38.5,156.5C 39.0138,158.439 40.3472,159.439 42.5,159.5C 53.7426,156.356 65.0759,153.523 76.5,151C 75.9056,150.536 75.2389,150.369 74.5,150.5C 75.6085,149.71 76.9419,149.21 78.5,149C 77.2068,148.51 75.8734,148.343 74.5,148.5 Z"/></g>
<g><path style="opacity:1" fill="#8b8b8b" d="M 45.5,161.5 C 45.1832,165.702 45.5166,169.702 46.5,173.5C 46.44,174.043 46.1067,174.376 45.5,174.5C 44.1889,170.016 44.1889,165.683 45.5,161.5 Z"/></g>
<g><path style="opacity:1" fill="#f5f5f5" d="M 46.5,173.5 C 45.5166,169.702 45.1832,165.702 45.5,161.5C 46.842,160.207 48.5087,159.374 50.5,159C 60.2981,157.246 69.9647,155.079 79.5,152.5C 79.8256,156.884 79.4922,161.217 78.5,165.5C 67.9788,168.804 57.3121,171.47 46.5,173.5 Z"/></g>
<g><path style="opacity:1" fill="#cdcdcd" d="M 79.5,171.5 C 74.0494,172.507 68.7161,173.507 63.5,174.5C 58.5927,174.581 53.7593,175.248 49,176.5C 48.1667,176.333 47.3333,176.167 46.5,176C 56.3412,173.04 66.3412,170.707 76.5,169C 79.6761,166.012 82.6761,166.012 85.5,169C 83.7128,170.319 81.7128,171.152 79.5,171.5 Z"/></g>
<g><path style="opacity:1" fill="#323232" d="M 79.5,171.5 C 79.67,172.822 79.3366,173.989 78.5,175C 80.407,179.518 81.0736,184.352 80.5,189.5C 81.5,189.5 82.5,189.5 83.5,189.5C 84.1667,189.5 84.8333,189.5 85.5,189.5C 86.9293,190.234 87.9293,191.401 88.5,193C 87.3955,194.715 86.0622,196.215 84.5,197.5C 84.1667,197.5 83.8333,197.5 83.5,197.5C 82.8166,195.824 81.4832,195.157 79.5,195.5C 79.7373,196.791 79.404,197.791 78.5,198.5C 79.7023,200.723 80.3689,203.223 80.5,206C 80.4961,208.361 80.1627,210.527 79.5,212.5C 79.5,208.5 79.5,204.5 79.5,200.5C 69.5539,202.987 59.5539,205.154 49.5,207C 48.1416,207.934 46.8083,208.768 45.5,209.5C 44.8373,211.473 44.5039,213.639 44.5,216C 44.6311,218.777 45.2977,221.277 46.5,223.5C 46.9169,224.124 47.5836,224.457 48.5,224.5C 51.3493,224.036 54.016,223.369 56.5,222.5C 58.1667,222.5 59.8333,222.5 61.5,222.5C 62.791,222.263 63.791,222.596 64.5,223.5C 56.3989,224.396 48.3989,225.896 40.5,228C 39.3595,228.741 39.3595,229.575 40.5,230.5C 42.1673,231.666 43.834,231.666 45.5,230.5C 46.4916,230.328 47.1583,230.662 47.5,231.5C 46.8333,231.833 46.1667,232.167 45.5,232.5C 44.6773,235.977 44.1773,239.644 44,243.5C 43.8195,240.305 43.3195,237.305 42.5,234.5C 39.7771,233.141 37.4437,231.308 35.5,229C 36.5696,226.295 38.5696,224.795 41.5,224.5C 42.8048,222.603 43.4714,220.269 43.5,217.5C 43.4966,214.975 43.1633,212.641 42.5,210.5C 39.6949,209.187 37.3616,207.354 35.5,205C 36.5696,202.295 38.5696,200.795 41.5,200.5C 42.8048,198.603 43.4714,196.269 43.5,193.5C 43.4966,190.975 43.1633,188.641 42.5,186.5C 39.3739,185.612 37.0406,183.778 35.5,181C 36.1301,179.69 37.1301,178.856 38.5,178.5C 38.8417,179.338 39.5084,179.672 40.5,179.5C 38.9857,181.806 39.6524,183.139 42.5,183.5C 53.733,180.348 65.0663,177.515 76.5,175C 73.1508,174.612 69.8175,174.779 66.5,175.5C 65.791,174.596 64.791,174.263 63.5,174.5C 68.7161,173.507 74.0494,172.507 79.5,171.5 Z"/></g>
<g><path style="opacity:1" fill="#f7f7f7" d="M 48.5,196.5 C 47.5,196.5 46.5,196.5 45.5,196.5C 45.5,192.833 45.5,189.167 45.5,185.5C 46.842,184.207 48.5087,183.374 50.5,183C 59.8586,180.895 69.1919,178.729 78.5,176.5C 79.8333,180.833 79.8333,185.167 78.5,189.5C 68.551,192.047 58.551,194.38 48.5,196.5 Z"/></g>
<g><path style="opacity:1" fill="#d5d5d5" d="M 40.5,179.5 C 49.1305,177.951 57.7972,176.617 66.5,175.5C 69.8175,174.779 73.1508,174.612 76.5,175C 65.0663,177.515 53.733,180.348 42.5,183.5C 39.6524,183.139 38.9857,181.806 40.5,179.5 Z"/></g>
<g><path style="opacity:1" fill="#bdbdbd" d="M 82.5,174.5 C 82.123,179.872 83.123,184.872 85.5,189.5C 84.8333,189.5 84.1667,189.5 83.5,189.5C 83.2172,188.711 82.7172,188.044 82,187.5C 81.1864,182.98 81.353,178.646 82.5,174.5 Z"/></g>
<g><path style="opacity:1" fill="#696969" d="M 42.5,186.5 C 43.1633,188.641 43.4966,190.975 43.5,193.5C 43.4714,196.269 42.8048,198.603 41.5,200.5C 42.441,195.93 42.7744,191.263 42.5,186.5 Z"/></g>
<g><path style="opacity:1" fill="#979797" d="M 45.5,185.5 C 45.5,189.167 45.5,192.833 45.5,196.5C 46.5,196.5 47.5,196.5 48.5,196.5C 47.4324,197.434 46.099,197.768 44.5,197.5C 44.1832,193.298 44.5166,189.298 45.5,185.5 Z"/></g>
<g><path style="opacity:1" fill="#c5c5c5" d="M 79.5,195.5 C 68.4693,197.087 57.4693,198.587 46.5,200C 58.3193,196.835 70.1527,193.669 82,190.5C 83.4341,190.93 84.6008,191.764 85.5,193C 83.4982,194.019 81.4982,194.852 79.5,195.5 Z"/></g>
<g><path style="opacity:1" fill="#c6c6c6" d="M 83.5,197.5 C 83.8333,197.5 84.1667,197.5 84.5,197.5C 83.3932,202.081 83.2266,206.748 84,211.5C 85.3333,212.833 86.6667,212.833 88,211.5C 88.704,213.278 89.204,215.112 89.5,217C 89.3158,218.376 88.6491,219.209 87.5,219.5C 88.4124,218.262 88.5791,216.928 88,215.5C 85.828,214.415 83.828,213.081 82,211.5C 81.3333,207.167 81.3333,202.833 82,198.5C 82.3826,197.944 82.8826,197.611 83.5,197.5 Z"/></g>
<g><path style="opacity:1" fill="#f6f6f6" d="M 79.5,212.5 C 79.5,212.833 79.5,213.167 79.5,213.5C 68.2427,215.719 57.076,218.385 46,221.5C 45.5012,217.514 45.3345,213.514 45.5,209.5C 46.8083,208.768 48.1416,207.934 49.5,207C 59.5539,205.154 69.5539,202.987 79.5,200.5C 79.5,204.5 79.5,208.5 79.5,212.5 Z"/></g>
<g><path style="opacity:1" fill="#d2d2d2" d="M 78.5,198.5 C 66.3182,200.879 54.3182,203.879 42.5,207.5C 40.8927,207.363 39.5594,206.696 38.5,205.5C 41.4876,203.448 44.8209,202.281 48.5,202C 57.8864,200.824 67.2197,199.324 76.5,197.5C 77.4164,197.543 78.0831,197.876 78.5,198.5 Z"/></g>
<g><path style="opacity:1" fill="#6a6a6a" d="M 42.5,210.5 C 43.1633,212.641 43.4966,214.975 43.5,217.5C 43.4714,220.269 42.8048,222.603 41.5,224.5C 42.441,219.93 42.7744,215.263 42.5,210.5 Z"/></g>
<g><path style="opacity:1" fill="#4b4b4b" d="M 45.5,209.5 C 45.3345,213.514 45.5012,217.514 46,221.5C 57.076,218.385 68.2427,215.719 79.5,213.5C 79.5,214.167 79.8333,214.5 80.5,214.5C 78.9812,215.41 77.3146,216.243 75.5,217C 68.2811,218.075 61.2811,219.575 54.5,221.5C 51.7334,221.858 49.0667,222.525 46.5,223.5C 45.2977,221.277 44.6311,218.777 44.5,216C 44.5039,213.639 44.8373,211.473 45.5,209.5 Z"/></g>
<g><path style="opacity:1" fill="#d3d3d3" d="M 80.5,214.5 C 82.8421,214.504 84.8421,215.337 86.5,217C 85.255,217.791 83.9217,218.291 82.5,218.5C 75.3162,219.528 68.3162,220.861 61.5,222.5C 59.8333,222.5 58.1667,222.5 56.5,222.5C 55.5084,222.672 54.8417,222.338 54.5,221.5C 61.2811,219.575 68.2811,218.075 75.5,217C 77.3146,216.243 78.9812,215.41 80.5,214.5 Z"/></g>
<g><path style="opacity:1" fill="#8f8f8f" d="M 54.5,221.5 C 54.8417,222.338 55.5084,222.672 56.5,222.5C 54.016,223.369 51.3493,224.036 48.5,224.5C 47.5836,224.457 46.9169,224.124 46.5,223.5C 49.0667,222.525 51.7334,221.858 54.5,221.5 Z"/></g>
<g><path style="opacity:1" fill="#c5c5c5" d="M 85.5,220.5 C 83.2343,225.634 82.9009,230.967 84.5,236.5C 83.5041,236.586 82.6708,236.252 82,235.5C 81.3333,231.167 81.3333,226.833 82,222.5C 82.8159,221.177 83.9826,220.511 85.5,220.5 Z"/></g>
<g><path style="opacity:1" fill="#424242" d="M 82.5,218.5 C 81.791,219.404 80.791,219.737 79.5,219.5C 80.6643,225.651 80.6643,231.651 79.5,237.5C 79.5,233.167 79.5,228.833 79.5,224.5C 68.7135,226.324 58.0468,228.657 47.5,231.5C 47.1583,230.662 46.4916,230.328 45.5,230.5C 47.3885,229.678 49.3885,228.845 51.5,228C 60.8062,227.088 69.8062,225.088 78.5,222C 77.5,221.833 76.5,221.667 75.5,221.5C 71.8514,222.33 68.1847,222.996 64.5,223.5C 63.791,222.596 62.791,222.263 61.5,222.5C 68.3162,220.861 75.3162,219.528 82.5,218.5 Z"/></g>
<g><path style="opacity:1" fill="#191919" d="M 79.5,195.5 C 81.4832,195.157 82.8166,195.824 83.5,197.5C 82.8826,197.611 82.3826,197.944 82,198.5C 81.3333,202.833 81.3333,207.167 82,211.5C 83.828,213.081 85.828,214.415 88,215.5C 88.5791,216.928 88.4124,218.262 87.5,219.5C 86.5084,219.328 85.8417,219.662 85.5,220.5C 83.9826,220.511 82.8159,221.177 82,222.5C 81.3333,226.833 81.3333,231.167 82,235.5C 82.6708,236.252 83.5041,236.586 84.5,236.5C 86.3226,237.493 87.6559,238.993 88.5,241C 86.1194,242.946 83.6194,244.779 81,246.5C 80.5172,247.448 80.3505,248.448 80.5,249.5C 79.5326,248.194 78.1993,247.527 76.5,247.5C 76.5,246.833 76.8333,246.5 77.5,246.5C 79.0855,245.467 80.4188,244.134 81.5,242.5C 86.6968,240.626 86.3635,239.292 80.5,238.5C 79.8333,238.5 79.5,238.167 79.5,237.5C 80.6643,231.651 80.6643,225.651 79.5,219.5C 80.791,219.737 81.791,219.404 82.5,218.5C 83.9217,218.291 85.255,217.791 86.5,217C 84.8421,215.337 82.8421,214.504 80.5,214.5C 79.8333,214.5 79.5,214.167 79.5,213.5C 79.5,213.167 79.5,212.833 79.5,212.5C 80.1627,210.527 80.4961,208.361 80.5,206C 80.3689,203.223 79.7023,200.723 78.5,198.5C 79.404,197.791 79.7373,196.791 79.5,195.5 Z"/></g>
<g><path style="opacity:1" fill="#f4f4f4" d="M 79.5,237.5 C 68.2645,240.809 56.9312,243.809 45.5,246.5C 45.5,241.833 45.5,237.167 45.5,232.5C 46.1667,232.167 46.8333,231.833 47.5,231.5C 58.0468,228.657 68.7135,226.324 79.5,224.5C 79.5,228.833 79.5,233.167 79.5,237.5 Z"/></g>
<g><path style="opacity:1" fill="#cecece" d="M 45.5,230.5 C 43.834,231.666 42.1673,231.666 40.5,230.5C 39.3595,229.575 39.3595,228.741 40.5,228C 48.3989,225.896 56.3989,224.396 64.5,223.5C 68.1847,222.996 71.8514,222.33 75.5,221.5C 76.5,221.667 77.5,221.833 78.5,222C 69.8062,225.088 60.8062,227.088 51.5,228C 49.3885,228.845 47.3885,229.678 45.5,230.5 Z"/></g>
<g><path style="opacity:1" fill="#d0d0d0" d="M 80.5,238.5 C 86.3635,239.292 86.6968,240.626 81.5,242.5C 79.139,242.674 76.8056,243.007 74.5,243.5C 73.5084,243.672 72.8417,243.338 72.5,242.5C 75.4038,241.715 78.0704,240.381 80.5,238.5 Z"/></g>
<g><path style="opacity:1" fill="#707070" d="M 45.5,232.5 C 45.5,237.167 45.5,241.833 45.5,246.5C 44.7281,247.694 43.7281,248.694 42.5,249.5C 42.5,244.5 42.5,239.5 42.5,234.5C 43.3195,237.305 43.8195,240.305 44,243.5C 44.1773,239.644 44.6773,235.977 45.5,232.5 Z"/></g>
<g><path style="opacity:1" fill="#a9a9a9" d="M 77.5,246.5 C 76.8333,246.5 76.5,246.833 76.5,247.5C 70.7105,247.858 65.0438,248.858 59.5,250.5C 56.3322,249.556 52.9988,249.556 49.5,250.5C 57.6101,248.434 65.9435,246.768 74.5,245.5C 75.7261,245.52 76.7261,245.853 77.5,246.5 Z"/></g>
<g><path style="opacity:1" fill="#2b2b2b" d="M 79.5,237.5 C 79.5,238.167 79.8333,238.5 80.5,238.5C 78.0704,240.381 75.4038,241.715 72.5,242.5C 66.8078,243.472 61.1411,244.639 55.5,246C 62.0634,246.133 68.3967,245.299 74.5,243.5C 76.8056,243.007 79.139,242.674 81.5,242.5C 80.4188,244.134 79.0855,245.467 77.5,246.5C 76.7261,245.853 75.7261,245.52 74.5,245.5C 65.9435,246.768 57.6101,248.434 49.5,250.5C 47.4086,250.318 45.4086,250.652 43.5,251.5C 42.339,253.378 43.0056,254.378 45.5,254.5C 49.9988,252.556 54.6655,251.222 59.5,250.5C 65.0438,248.858 70.7105,247.858 76.5,247.5C 78.1993,247.527 79.5326,248.194 80.5,249.5C 80.5,249.833 80.5,250.167 80.5,250.5C 79.0762,252.515 78.4095,254.848 78.5,257.5C 77.1402,259.802 77.8068,261.468 80.5,262.5C 81.6139,263.723 81.7805,265.056 81,266.5C 78.828,267.585 76.828,268.919 75,270.5C 73.4556,274.552 72.289,278.718 71.5,283C 73.1155,284.637 74.4488,286.471 75.5,288.5C 73.8065,291.19 71.4732,293.19 68.5,294.5C 67.5481,296.045 67.2148,297.712 67.5,299.5C 66.5,301.5 65.5,303.5 64.5,305.5C 64.5,304.167 64.5,302.833 64.5,301.5C 65.1319,296.417 64.1319,296.417 61.5,301.5C 60.8333,303.167 60.1667,304.833 59.5,306.5C 57.0517,304.555 54.7184,302.389 52.5,300C 53.464,298.036 54.7974,296.37 56.5,295C 55.207,290.868 54.0403,286.701 53,282.5C 51,281.167 49,279.833 47,278.5C 46.3333,277.167 46.3333,275.833 47,274.5C 49.3305,272.336 49.9972,269.669 49,266.5C 47.908,263.956 47.2414,261.289 47,258.5C 44.6667,257.167 42.3333,255.833 40,254.5C 38.9231,251.738 39.7564,250.072 42.5,249.5C 43.7281,248.694 44.7281,247.694 45.5,246.5C 56.9312,243.809 68.2645,240.809 79.5,237.5 Z"/></g>
<g><path style="opacity:1" fill="#e5e5e5" d="M 59.5,250.5 C 54.6655,251.222 49.9988,252.556 45.5,254.5C 43.0056,254.378 42.339,253.378 43.5,251.5C 45.4086,250.652 47.4086,250.318 49.5,250.5C 52.9988,249.556 56.3322,249.556 59.5,250.5 Z"/></g>
<g><path style="opacity:1" fill="#f2f2f2" d="M 73.5,248.5 C 75.288,248.215 76.9547,248.548 78.5,249.5C 76.8599,253.392 75.5265,257.392 74.5,261.5C 67.2329,264.499 59.8995,267.499 52.5,270.5C 51.0139,266.224 49.6805,261.891 48.5,257.5C 48.8333,256.833 49.1667,256.167 49.5,255.5C 57.5329,252.903 65.5329,250.569 73.5,248.5 Z"/></g>
<g><path style="opacity:1" fill="#969696" d="M 72.5,242.5 C 72.8417,243.338 73.5084,243.672 74.5,243.5C 68.3967,245.299 62.0634,246.133 55.5,246C 61.1411,244.639 66.8078,243.472 72.5,242.5 Z"/></g>
<g><path style="opacity:1" fill="#a3a3a3" d="M 80.5,250.5 C 80.5905,253.152 79.9238,255.485 78.5,257.5C 78.4095,254.848 79.0762,252.515 80.5,250.5 Z"/></g>
<g><path style="opacity:1" fill="#c4c4c4" d="M 75.5,263.5 C 76.9778,263.238 78.3112,263.571 79.5,264.5C 75.1064,266.932 70.4397,268.098 65.5,268C 69.0609,266.768 72.3943,265.268 75.5,263.5 Z"/></g>
<g><path style="opacity:1" fill="#eeeeee" d="M 69.5,272.5 C 70.6491,272.791 71.3158,273.624 71.5,275C 70.1765,278.739 69.0098,282.573 68,286.5C 64.9223,288.955 61.7556,291.289 58.5,293.5C 56.536,288.655 55.7027,283.655 56,278.5C 60.626,276.578 65.126,274.578 69.5,272.5 Z"/></g>
<g><path style="opacity:1" fill="#d6d6d6" d="M 65.5,270.5 C 66.552,270.351 67.552,270.517 68.5,271C 63.1449,272.588 58.1449,274.921 53.5,278C 47.6092,277.796 47.2759,276.462 52.5,274C 56.9191,272.648 61.2524,271.481 65.5,270.5 Z"/></g>
<g><path style="opacity:1" fill="#c8c8c8" d="M 69.5,287.5 C 71.9424,287.354 72.6091,288.187 71.5,290C 69.3502,291.59 67.0168,292.257 64.5,292C 66.6175,290.951 68.2842,289.451 69.5,287.5 Z"/></g>
<g><path style="opacity:1" fill="#dadada" d="M 61.5,295.5 C 62.2389,295.369 62.9056,295.536 63.5,296C 61.568,298.655 59.2347,300.322 56.5,301C 56.0426,300.586 55.7093,300.086 55.5,299.5C 57.5654,298.143 59.5654,296.81 61.5,295.5 Z"/></g>
<g><path style="opacity:1" fill="#cfcfcf" d="M 64.5,301.5 C 63.8354,303.369 63.1687,305.369 62.5,307.5C 61.5344,305.604 61.2011,303.604 61.5,301.5C 64.1319,296.417 65.1319,296.417 64.5,301.5 Z"/></g>
<g><path style="opacity:1" fill="#a8a8a8" d="M 67.5,299.5 C 67.2766,303.162 66.2766,306.495 64.5,309.5C 64.5,308.167 64.5,306.833 64.5,305.5C 65.5,303.5 66.5,301.5 67.5,299.5 Z"/></g>
<g><path style="opacity:1" fill="#414141" d="M 61.5,301.5 C 61.2011,303.604 61.5344,305.604 62.5,307.5C 63.1687,305.369 63.8354,303.369 64.5,301.5C 64.5,302.833 64.5,304.167 64.5,305.5C 64.5,306.833 64.5,308.167 64.5,309.5C 64.6567,310.873 64.49,312.207 64,313.5C 63.2825,314.451 62.4491,314.617 61.5,314C 60.6453,311.564 59.9787,309.064 59.5,306.5C 60.1667,304.833 60.8333,303.167 61.5,301.5 Z"/></g>
<g><path style="opacity:1" fill="#fcfcfc" d="M 51.5,342.5 C 52.1667,342.5 52.8333,342.5 53.5,342.5C 53.5,372.833 53.5,403.167 53.5,433.5C 52.5,433.5 51.5,433.5 50.5,433.5C 31.7532,428.06 20.2532,415.727 16,396.5C 13.2674,375.809 20.4341,359.642 37.5,348C 41.8632,345.316 46.5299,343.482 51.5,342.5 Z"/></g>
<g><path style="opacity:1" fill="#7f7f7f" d="M 72.5,341.5 C 72.5,341.833 72.5,342.167 72.5,342.5C 71.1673,357.318 70.5006,372.485 70.5,388C 70.5006,403.515 71.1673,418.682 72.5,433.5C 72.1583,434.338 71.4916,434.672 70.5,434.5C 69.5018,403.671 69.1685,372.671 69.5,341.5C 70.5,341.5 71.5,341.5 72.5,341.5 Z"/></g>
<g><path style="opacity:1" fill="#fbfbfb" d="M 72.5,342.5 C 95.1885,348.691 107.522,363.524 109.5,387C 108.408,411.579 96.0748,427.079 72.5,433.5C 71.1673,418.682 70.5006,403.515 70.5,388C 70.5006,372.485 71.1673,357.318 72.5,342.5 Z"/></g>
<g><path style="opacity:1" fill="#949494" d="M 56.5,339.5 C 57.4682,341.607 57.8016,343.941 57.5,346.5C 60.8333,346.5 64.1667,346.5 67.5,346.5C 67.1984,343.941 67.5318,341.607 68.5,339.5C 68.5,342.167 68.5,344.833 68.5,347.5C 64.5,347.5 60.5,347.5 56.5,347.5C 56.5,344.833 56.5,342.167 56.5,339.5 Z"/></g>
<g><path style="opacity:1" fill="#303030" d="M 56.5,339.5 C 56.5,342.167 56.5,344.833 56.5,347.5C 56.1667,347.5 55.8333,347.5 55.5,347.5C 55.5,345.5 55.5,343.5 55.5,341.5C 53.901,341.232 52.5676,341.566 51.5,342.5C 46.5299,343.482 41.8632,345.316 37.5,348C 20.4341,359.642 13.2674,375.809 16,396.5C 20.2532,415.727 31.7532,428.06 50.5,433.5C 51.5676,434.434 52.901,434.768 54.5,434.5C 54.5,435.167 54.5,435.833 54.5,436.5C 33.0662,432.4 19.7329,419.734 14.5,398.5C 13.7705,393.87 13.4372,389.203 13.5,384.5C 16.6096,358.725 30.9429,343.725 56.5,339.5 Z"/></g>
<g><path style="opacity:1" fill="#626262" d="M 51.5,342.5 C 52.5676,341.566 53.901,341.232 55.5,341.5C 55.5,343.5 55.5,345.5 55.5,347.5C 55.8314,376.671 55.498,405.671 54.5,434.5C 54.8315,403.662 54.4981,372.995 53.5,342.5C 52.8333,342.5 52.1667,342.5 51.5,342.5 Z"/></g>
<g><path style="opacity:1" fill="#1b1b1b" d="M 68.5,339.5 C 70.5,339.833 72.5,340.167 74.5,340.5C 74.1583,341.338 73.4916,341.672 72.5,341.5C 71.5,341.5 70.5,341.5 69.5,341.5C 69.1685,372.671 69.5018,403.671 70.5,434.5C 70.5,435.167 70.5,435.833 70.5,436.5C 69.8333,436.5 69.1667,436.5 68.5,436.5C 68.5,433.833 68.5,431.167 68.5,428.5C 66.901,428.232 65.5676,428.566 64.5,429.5C 63.1667,429.5 61.8333,429.5 60.5,429.5C 59.4324,428.566 58.099,428.232 56.5,428.5C 56.5,431.167 56.5,433.833 56.5,436.5C 55.8333,436.5 55.1667,436.5 54.5,436.5C 54.5,435.833 54.5,435.167 54.5,434.5C 55.498,405.671 55.8314,376.671 55.5,347.5C 55.8333,347.5 56.1667,347.5 56.5,347.5C 60.5,347.5 64.5,347.5 68.5,347.5C 68.5,344.833 68.5,342.167 68.5,339.5 Z"/></g>
<g><path style="opacity:1" fill="#f3f3f3" d="M 67.5,349.5 C 68.6634,374.997 68.8301,400.663 68,426.5C 64.3987,427.82 60.8987,427.82 57.5,426.5C 57.5,400.833 57.5,375.167 57.5,349.5C 60.8333,349.5 64.1667,349.5 67.5,349.5 Z"/></g>
<g><path style="opacity:1" fill="#989898" d="M 67.5,349.5 C 64.1667,349.5 60.8333,349.5 57.5,349.5C 57.5,375.167 57.5,400.833 57.5,426.5C 56.5022,400.672 56.1689,374.672 56.5,348.5C 60.3714,348.185 64.0381,348.518 67.5,349.5 Z"/></g>
<g><path style="opacity:1" fill="#dedede" d="M 53.5,342.5 C 54.4981,372.995 54.8315,403.662 54.5,434.5C 52.901,434.768 51.5676,434.434 50.5,433.5C 51.5,433.5 52.5,433.5 53.5,433.5C 53.5,403.167 53.5,372.833 53.5,342.5 Z"/></g>
<g><path style="opacity:1" fill="#b8b8b8" d="M 13.5,384.5 C 13.4372,389.203 13.7705,393.87 14.5,398.5C 13.8826,398.389 13.3826,398.056 13,397.5C 12.1864,392.98 12.353,388.646 13.5,384.5 Z"/></g>
<g><path style="opacity:1" fill="#2b2b2b" d="M 74.5,340.5 C 97.4141,347.581 109.747,363.081 111.5,387C 109.957,413.697 96.2906,430.197 70.5,436.5C 70.5,435.833 70.5,435.167 70.5,434.5C 71.4916,434.672 72.1583,434.338 72.5,433.5C 96.0748,427.079 108.408,411.579 109.5,387C 107.522,363.524 95.1885,348.691 72.5,342.5C 72.5,342.167 72.5,341.833 72.5,341.5C 73.4916,341.672 74.1583,341.338 74.5,340.5 Z"/></g>
<g><path style="opacity:1" fill="#919191" d="M 60.5,429.5 C 59.5,429.5 58.5,429.5 57.5,429.5C 57.8016,432.059 57.4682,434.393 56.5,436.5C 56.5,433.833 56.5,431.167 56.5,428.5C 58.099,428.232 59.4324,428.566 60.5,429.5 Z"/></g>
<g><path style="opacity:1" fill="#7f7f7f" d="M 64.5,429.5 C 65.5676,428.566 66.901,428.232 68.5,428.5C 68.5,431.167 68.5,433.833 68.5,436.5C 67.5318,434.393 67.1984,432.059 67.5,429.5C 66.5,429.5 65.5,429.5 64.5,429.5 Z"/></g>
</svg>
