<?xml version="1.0" encoding="UTF-8"?>
<!DOCTYPE svg PUBLIC "-//W3C//DTD SVG 1.1//EN" "http://www.w3.org/Graphics/SVG/1.1/DTD/svg11.dtd">
<svg xmlns="http://www.w3.org/2000/svg" version="1.1" width="127px" height="446px" style="shape-rendering:geometricPrecision; text-rendering:geometricPrecision; image-rendering:optimizeQuality; fill-rule:evenodd; clip-rule:evenodd" xmlns:xlink="http://www.w3.org/1999/xlink">
<g><path style="opacity:1" fill="#fcfcfc" d="M -0.5,-0.5 C 41.8333,-0.5 84.1667,-0.5 126.5,-0.5C 126.5,148.167 126.5,296.833 126.5,445.5C 84.1667,445.5 41.8333,445.5 -0.5,445.5C -0.5,296.833 -0.5,148.167 -0.5,-0.5 Z"/></g>
<g><path style="opacity:1" fill="#464646" d="M 72.5,4.5 C 71.325,4.28099 70.325,4.61432 69.5,5.5C 69.6236,6.10667 69.9569,6.44001 70.5,6.5C 70.5,14.1667 70.5,21.8333 70.5,29.5C 65.5,29.5 60.5,29.5 55.5,29.5C 55.5,21.8333 55.5,14.1667 55.5,6.5C 56.3382,6.15829 56.6716,5.49162 56.5,4.5C 57.492,11.9818 57.8254,19.6484 57.5,27.5C 61.1667,27.5 64.8333,27.5 68.5,27.5C 68.5,19.5 68.5,11.5 68.5,3.5C 70.099,3.23219 71.4324,3.56552 72.5,4.5 Z"/></g>
<g><path style="opacity:1" fill="#9b9b9b" d="M 116.5,42.5 C 108.297,43.2235 99.9638,43.8902 91.5,44.5C 91.6107,43.8826 91.944,43.3826 92.5,43C 100.493,42.5003 108.493,42.3336 116.5,42.5 Z"/></g>
<g><path style="opacity:1" fill="#303030" d="M 56.5,4.5 C 56.6716,5.49162 56.3382,6.15829 55.5,6.5C 54.1667,5.16667 52.8333,5.16667 51.5,6.5C 36.7873,8.01149 23.954,13.6782 13,23.5C 10.7953,28.9315 9.962,34.5982 10.5,40.5C 45.5,40.5 80.5,40.5 115.5,40.5C 117.207,31.917 114.873,24.7503 108.5,19C 96.7787,11.9262 84.112,7.75951 70.5,6.5C 69.9569,6.44001 69.6236,6.10667 69.5,5.5C 70.325,4.61432 71.325,4.28099 72.5,4.5C 86.2692,5.92289 98.9359,10.4229 110.5,18C 113.106,19.9384 114.939,22.4384 116,25.5C 116.499,31.1569 116.666,36.8236 116.5,42.5C 108.493,42.3336 100.493,42.5003 92.5,43C 91.944,43.3826 91.6107,43.8826 91.5,44.5C 91.2172,45.2891 90.7172,45.9558 90,46.5C 89.6667,72.5 89.3333,98.5 89,124.5C 87.3745,127.128 85.3745,129.461 83,131.5C 82.1747,135.211 82.3414,138.878 83.5,142.5C 90.0416,145.845 89.7082,148.845 82.5,151.5C 81.353,155.646 81.1864,159.98 82,164.5C 82.8159,165.823 83.9826,166.489 85.5,166.5C 86.9293,167.234 87.9293,168.401 88.5,170C 87.3125,171.944 85.6458,173.444 83.5,174.5C 82.3384,179.131 82.1717,183.798 83,188.5C 90.2717,191.648 90.2717,194.648 83,197.5C 82.1711,202.533 82.3377,207.533 83.5,212.5C 85.7946,213.136 87.4613,214.469 88.5,216.5C 87.0333,218.498 85.1999,220.164 83,221.5C 82.1849,226.352 82.3516,231.019 83.5,235.5C 82.791,236.404 81.791,236.737 80.5,236.5C 80.6658,231.821 80.4992,227.155 80,222.5C 79.015,221.186 77.8484,220.186 76.5,219.5C 79.3437,218.384 82.3437,217.384 85.5,216.5C 84.2723,214.679 82.6056,213.679 80.5,213.5C 80.8266,208.786 80.4933,204.12 79.5,199.5C 77.8974,198.207 76.2307,197.207 74.5,196.5C 78.3566,195.825 82.0233,194.658 85.5,193C 83.6233,190.318 81.2899,189.818 78.5,191.5C 78.0618,191.565 77.7284,191.399 77.5,191C 78.4158,190.722 79.0825,190.222 79.5,189.5C 80.8111,185.317 80.8111,180.984 79.5,176.5C 78.8933,176.624 78.56,176.957 78.5,177.5C 67.5973,179.751 56.9307,182.418 46.5,185.5C 45.8373,187.473 45.5039,189.639 45.5,192C 45.5332,194.61 46.1999,196.777 47.5,198.5C 47.5,198.833 47.5,199.167 47.5,199.5C 46.596,200.209 46.2627,201.209 46.5,202.5C 44.139,202.674 41.8056,203.007 39.5,203.5C 39.5271,205.199 40.1938,206.533 41.5,207.5C 40.8333,207.5 40.1667,207.5 39.5,207.5C 37.439,206.249 37.1057,204.582 38.5,202.5C 39.8498,201.05 41.5165,200.383 43.5,200.5C 43.6658,195.821 43.4992,191.155 43,186.5C 40.5417,185.36 38.375,183.86 36.5,182C 38.2895,179.836 40.4562,178.002 43,176.5C 43.6667,172.167 43.6667,167.833 43,163.5C 35.8877,160.329 35.7211,156.996 42.5,153.5C 43.8333,148.833 43.8333,144.167 42.5,139.5C 36.3434,137.052 36.01,134.052 41.5,130.5C 39.8076,128.641 38.3076,126.641 37,124.5C 36.6667,98.5 36.3333,72.5 36,46.5C 35.1667,45 34,43.8333 32.5,43C 24.5069,42.5003 16.5069,42.3336 8.5,42.5C 6.48118,32.3768 9.14785,23.8768 16.5,17C 28.6532,9.12715 41.9866,4.96049 56.5,4.5 Z"/></g>
<g><path style="opacity:1" fill="#fefefe" d="M 88.5,44.5 C 87.5095,70.7591 87.1762,97.0924 87.5,123.5C 73.055,124.777 58.7217,126.777 44.5,129.5C 42.5171,128.018 40.6837,126.351 39,124.5C 38.8244,97.7613 38.3244,71.0946 37.5,44.5C 54.5,43.1667 71.5,43.1667 88.5,44.5 Z"/></g>
<g><path style="opacity:1" fill="#a1a1a1" d="M 88.5,44.5 C 71.5,43.1667 54.5,43.1667 37.5,44.5C 36.9569,44.44 36.6236,44.1067 36.5,43.5C 54.1667,42.1667 71.8333,42.1667 89.5,43.5C 89.3764,44.1067 89.0431,44.44 88.5,44.5 Z"/></g>
<g><path style="opacity:1" fill="#aeaeae" d="M 51.5,6.5 C 52.8333,5.16667 54.1667,5.16667 55.5,6.5C 55.5,14.1667 55.5,21.8333 55.5,29.5C 54.508,22.0182 54.1746,14.3516 54.5,6.5C 53.5,6.5 52.5,6.5 51.5,6.5 Z"/></g>
<g><path style="opacity:1" fill="#fafafa" d="M 51.5,6.5 C 52.5,6.5 53.5,6.5 54.5,6.5C 54.1746,14.3516 54.508,22.0182 55.5,29.5C 60.5,29.5 65.5,29.5 70.5,29.5C 70.5,21.8333 70.5,14.1667 70.5,6.5C 84.112,7.75951 96.7787,11.9262 108.5,19C 114.873,24.7503 117.207,31.917 115.5,40.5C 80.5,40.5 45.5,40.5 10.5,40.5C 9.962,34.5982 10.7953,28.9315 13,23.5C 23.954,13.6782 36.7873,8.01149 51.5,6.5 Z"/></g>
<g><path style="opacity:1" fill="#f6f6f6" d="M 48.5,150.5 C 46.5772,146.971 45.9106,142.971 46.5,138.5C 58.7611,135.767 70.7611,132.1 82.5,127.5C 82.8333,127.667 83.1667,127.833 83.5,128C 81.5125,129.319 80.3459,131.152 80,133.5C 79.5017,136.817 79.335,140.15 79.5,143.5C 69.2503,146.217 58.917,148.55 48.5,150.5 Z"/></g>
<g><path style="opacity:1" fill="#e0e0e0" d="M 67.5,128.5 C 69.5273,128.338 71.5273,128.505 73.5,129C 63.559,131.444 53.7257,134.277 44,137.5C 42.2741,137.054 40.7741,136.221 39.5,135C 48.7803,132.346 58.1136,130.179 67.5,128.5 Z"/></g>
<g><path style="opacity:1" fill="#8e8e8e" d="M 46.5,138.5 C 45.9106,142.971 46.5772,146.971 48.5,150.5C 47.791,151.404 46.791,151.737 45.5,151.5C 45.1818,146.968 45.5151,142.634 46.5,138.5 Z"/></g>
<g><path style="opacity:1" fill="#cfcfcf" d="M 79.5,144.5 C 82.1569,144.162 84.4902,144.829 86.5,146.5C 73.3304,149.972 59.997,152.472 46.5,154C 57.5265,150.711 68.5265,147.544 79.5,144.5 Z"/></g>
<g><path style="opacity:1" fill="#f3f3f3" d="M 77.5,154.5 C 79.4228,158.029 80.0894,162.029 79.5,166.5C 68.537,169.161 57.537,171.827 46.5,174.5C 45.2023,170.285 45.2023,166.118 46.5,162C 56.6668,158.708 67.0001,156.208 77.5,154.5 Z"/></g>
<g><path style="opacity:1" fill="#dddddd" d="M 72.5,151.5 C 74.1992,151.34 75.8659,151.506 77.5,152C 66.0444,154.299 54.711,157.132 43.5,160.5C 41.8927,160.363 40.5594,159.696 39.5,158.5C 40.0253,157.808 40.6919,157.308 41.5,157C 51.9349,154.929 62.2682,153.096 72.5,151.5 Z"/></g>
<g><path style="opacity:1" fill="#7c7c7c" d="M 77.5,154.5 C 78.209,153.596 79.209,153.263 80.5,153.5C 80.8182,158.032 80.4849,162.366 79.5,166.5C 80.0894,162.029 79.4228,158.029 77.5,154.5 Z"/></g>
<g><path style="opacity:1" fill="#b7b7b7" d="M 82.5,151.5 C 81.9809,156.899 82.9809,161.899 85.5,166.5C 83.9826,166.489 82.8159,165.823 82,164.5C 81.1864,159.98 81.353,155.646 82.5,151.5 Z"/></g>
<g><path style="opacity:1" fill="#d3d3d3" d="M 80.5,167.5 C 82.8421,167.504 84.8421,168.337 86.5,170C 73.3106,173.314 59.9772,175.647 46.5,177C 58.0677,174.306 69.4011,171.139 80.5,167.5 Z"/></g>
<g><path style="opacity:1" fill="#f5f5f5" d="M 78.5,177.5 C 79.4834,181.298 79.8168,185.298 79.5,189.5C 68.954,192.374 58.2873,195.041 47.5,197.5C 46.5166,193.702 46.1832,189.702 46.5,185.5C 56.9307,182.418 67.5973,179.751 78.5,177.5 Z"/></g>
<g><path style="opacity:1" fill="#797979" d="M 78.5,177.5 C 78.56,176.957 78.8933,176.624 79.5,176.5C 80.8111,180.984 80.8111,185.317 79.5,189.5C 79.8168,185.298 79.4834,181.298 78.5,177.5 Z"/></g>
<g><path style="opacity:1" fill="#d1d1d1" d="M 73.5,174.5 C 75.1992,174.34 76.8659,174.506 78.5,175C 70.0264,177.762 61.3597,179.762 52.5,181C 49.5392,181.944 46.7059,183.11 44,184.5C 42.5659,184.07 41.3992,183.236 40.5,182C 42.4899,180.249 44.8232,179.249 47.5,179C 56.3891,177.979 65.0557,176.479 73.5,174.5 Z"/></g>
<g><path style="opacity:1" fill="#8a8a8a" d="M 46.5,185.5 C 46.1832,189.702 46.5166,193.702 47.5,197.5C 47.5,197.833 47.5,198.167 47.5,198.5C 46.1999,196.777 45.5332,194.61 45.5,192C 45.5039,189.639 45.8373,187.473 46.5,185.5 Z"/></g>
<g><path style="opacity:1" fill="#d1d1d1" d="M 74.5,196.5 C 66.0886,197.291 57.7553,198.624 49.5,200.5C 48.5836,200.457 47.9169,200.124 47.5,199.5C 58.0442,197.197 68.3776,194.53 78.5,191.5C 81.2899,189.818 83.6233,190.318 85.5,193C 82.0233,194.658 78.3566,195.825 74.5,196.5 Z"/></g>
<g><path style="opacity:1" fill="#3e3e3e" d="M 79.5,189.5 C 79.0825,190.222 78.4158,190.722 77.5,191C 77.7284,191.399 78.0618,191.565 78.5,191.5C 68.3776,194.53 58.0442,197.197 47.5,199.5C 47.5,199.167 47.5,198.833 47.5,198.5C 47.5,198.167 47.5,197.833 47.5,197.5C 58.2873,195.041 68.954,192.374 79.5,189.5 Z"/></g>
<g><path style="opacity:1" fill="#cfcfcf" d="M 41.5,207.5 C 40.1938,206.533 39.5271,205.199 39.5,203.5C 41.8056,203.007 44.139,202.674 46.5,202.5C 56.1398,200.813 65.8064,199.646 75.5,199C 64.0885,201.516 52.7551,204.349 41.5,207.5 Z"/></g>
<g><path style="opacity:1" fill="#e0e0e0" d="M 80.5,213.5 C 82.6056,213.679 84.2723,214.679 85.5,216.5C 82.3437,217.384 79.3437,218.384 76.5,219.5C 74.5,219.5 72.5,219.5 70.5,219.5C 69.7611,219.631 69.0944,219.464 68.5,219C 69.7375,218.768 70.7375,218.268 71.5,217.5C 73.7463,216.79 76.0796,216.29 78.5,216C 79.3805,215.292 80.0472,214.458 80.5,213.5 Z"/></g>
<g><path style="opacity:1" fill="#b2b2b2" d="M 71.5,217.5 C 70.7375,218.268 69.7375,218.768 68.5,219C 69.0944,219.464 69.7611,219.631 70.5,219.5C 63.3859,221.476 56.0525,222.642 48.5,223C 55.9648,220.385 63.6315,218.551 71.5,217.5 Z"/></g>
<g><path style="opacity:1" fill="#f5f5f5" d="M 46.5,245.5 C 46.5,241.167 46.5,236.833 46.5,232.5C 46.6107,231.883 46.944,231.383 47.5,231C 51.1228,229.844 54.7894,228.844 58.5,228C 65.3504,226.377 72.3504,225.21 79.5,224.5C 79.797,228.767 79.4637,232.934 78.5,237C 67.8271,239.942 57.1604,242.776 46.5,245.5 Z"/></g>
<g><path style="opacity:1" fill="#6f6f6f" d="M 46.5,232.5 C 46.5,236.833 46.5,241.167 46.5,245.5C 45.8999,246.9 44.8999,247.9 43.5,248.5C 43.7651,243.625 43.7651,238.625 43.5,233.5C 44.3195,236.305 44.8195,239.305 45,242.5C 45.1787,238.975 45.6787,235.641 46.5,232.5 Z"/></g>
<g><path style="opacity:1" fill="#383838" d="M 74.5,196.5 C 76.2307,197.207 77.8974,198.207 79.5,199.5C 80.4933,204.12 80.8266,208.786 80.5,213.5C 80.0472,214.458 79.3805,215.292 78.5,216C 76.0796,216.29 73.7463,216.79 71.5,217.5C 63.6315,218.551 55.9648,220.385 48.5,223C 56.0525,222.642 63.3859,221.476 70.5,219.5C 72.5,219.5 74.5,219.5 76.5,219.5C 77.8484,220.186 79.015,221.186 80,222.5C 80.4992,227.155 80.6658,231.821 80.5,236.5C 81.791,236.737 82.791,236.404 83.5,235.5C 85.9558,236.122 87.6225,237.622 88.5,240C 86.1194,241.946 83.6194,243.779 81,245.5C 79.5251,250.063 78.6917,254.73 78.5,259.5C 77.7321,258.737 77.2321,257.737 77,256.5C 76.7679,257.737 76.2679,258.737 75.5,259.5C 75.8833,255.681 76.8833,252.014 78.5,248.5C 68.9795,248.712 59.6462,250.545 50.5,254C 49.9781,254.561 49.6448,255.228 49.5,256C 50.6688,259.823 51.6688,263.656 52.5,267.5C 51.7321,266.737 51.2321,265.737 51,264.5C 50.6012,264.728 50.4346,265.062 50.5,265.5C 49.3794,263.046 48.546,260.379 48,257.5C 45.6667,255.833 43.3333,254.167 41,252.5C 40.0902,250.055 40.9236,248.722 43.5,248.5C 44.8999,247.9 45.8999,246.9 46.5,245.5C 57.1604,242.776 67.8271,239.942 78.5,237C 79.4637,232.934 79.797,228.767 79.5,224.5C 72.3504,225.21 65.3504,226.377 58.5,228C 54.7894,228.844 51.1228,229.844 47.5,231C 46.944,231.383 46.6107,231.883 46.5,232.5C 45.6787,235.641 45.1787,238.975 45,242.5C 44.8195,239.305 44.3195,236.305 43.5,233.5C 40.9342,232.608 38.9342,230.942 37.5,228.5C 38.1356,225.864 39.8022,224.198 42.5,223.5C 43.8333,218.833 43.8333,214.167 42.5,209.5C 41.2613,209.058 40.2613,208.391 39.5,207.5C 40.1667,207.5 40.8333,207.5 41.5,207.5C 52.7551,204.349 64.0885,201.516 75.5,199C 65.8064,199.646 56.1398,200.813 46.5,202.5C 46.2627,201.209 46.596,200.209 47.5,199.5C 47.9169,200.124 48.5836,200.457 49.5,200.5C 57.7553,198.624 66.0886,197.291 74.5,196.5 Z"/></g>
<g><path style="opacity:1" fill="#7d7d7d" d="M 66.5,242.5 C 66.5,243.167 66.8333,243.5 67.5,243.5C 63.7266,244.958 59.7266,245.458 55.5,245C 59.1451,244.005 62.8117,243.172 66.5,242.5 Z"/></g>
<g><path style="opacity:1" fill="#cccccc" d="M 67.5,243.5 C 66.8333,243.5 66.5,243.167 66.5,242.5C 72.6459,241.052 78.6459,239.552 84.5,238C 85.9023,239.342 85.5689,240.176 83.5,240.5C 78.2846,242.147 72.9512,243.147 67.5,243.5 Z"/></g>
<g><path style="opacity:1" fill="#e9e9e9" d="M 56.5,226.5 C 51.8966,227.066 47.5633,228.399 43.5,230.5C 40.9265,230.314 40.2598,229.314 41.5,227.5C 45.6825,226.997 49.8492,226.331 54,225.5C 55.0698,225.528 55.9032,225.861 56.5,226.5 Z"/></g>
<g><path style="opacity:1" fill="#c1c1c1" d="M 56.5,226.5 C 55.9032,225.861 55.0698,225.528 54,225.5C 49.8492,226.331 45.6825,226.997 41.5,227.5C 41.9175,226.778 42.5842,226.278 43.5,226C 54.5057,224.33 65.5057,222.997 76.5,222C 69.9534,223.986 63.2867,225.486 56.5,226.5 Z"/></g>
<g><path style="opacity:1" fill="#8b8b8b" d="M 46.5,209.5 C 46.185,213.371 46.5184,217.038 47.5,220.5C 47.44,221.043 47.1067,221.376 46.5,221.5C 45.1905,217.351 45.1905,213.351 46.5,209.5 Z"/></g>
<g><path style="opacity:1" fill="#f6f6f6" d="M 47.5,220.5 C 46.5184,217.038 46.185,213.371 46.5,209.5C 48.4799,207.895 50.8132,206.728 53.5,206C 61.9098,204.474 70.2431,202.64 78.5,200.5C 79.7977,204.715 79.7977,208.882 78.5,213C 68.1881,215.581 57.8547,218.081 47.5,220.5 Z"/></g>
<g><path style="opacity:1" fill="#f4f4f4" d="M 75.5,259.5 C 69.0567,262.601 62.3901,265.434 55.5,268C 54.2506,268.74 53.2506,268.573 52.5,267.5C 51.6688,263.656 50.6688,259.823 49.5,256C 49.6448,255.228 49.9781,254.561 50.5,254C 59.6462,250.545 68.9795,248.712 78.5,248.5C 76.8833,252.014 75.8833,255.681 75.5,259.5 Z"/></g>
<g><path style="opacity:1" fill="#d3d3d3" d="M 72.5,244.5 C 73.8734,244.343 75.2068,244.51 76.5,245C 69.5803,246.918 62.5803,248.585 55.5,250C 52.4712,250.785 49.6379,251.951 47,253.5C 42.4314,251.764 42.5981,250.264 47.5,249C 55.9803,247.532 64.3136,246.032 72.5,244.5 Z"/></g>
<g><path style="opacity:1" fill="#282828" d="M 78.5,259.5 C 80.9263,260.353 81.7596,262.019 81,264.5C 79,265.833 77,267.167 75,268.5C 74.51,269.793 74.3433,271.127 74.5,272.5C 72.3197,275.661 71.6531,278.994 72.5,282.5C 74.2462,283.249 75.2462,284.583 75.5,286.5C 73.9185,288.63 71.9185,290.297 69.5,291.5C 67.9261,293.102 67.2594,295.102 67.5,297.5C 65.6721,301.985 64.6721,306.652 64.5,311.5C 63.5,311.5 62.5,311.5 61.5,311.5C 61.0022,308.513 60.5022,305.513 60,302.5C 57.3041,301.415 55.1374,299.749 53.5,297.5C 53.7867,295.557 54.7867,294.223 56.5,293.5C 57.1667,292.5 57.8333,291.5 58.5,290.5C 67.9,287.015 72.2334,280.349 71.5,270.5C 66.7147,272.039 62.0481,273.873 57.5,276C 55.9632,277.11 55.2965,278.61 55.5,280.5C 55.6716,281.492 55.3382,282.158 54.5,282.5C 52.1809,279.846 49.8476,277.179 47.5,274.5C 48.2861,272.429 49.6194,270.762 51.5,269.5C 50.7542,268.264 50.4208,266.93 50.5,265.5C 50.4346,265.062 50.6012,264.728 51,264.5C 51.2321,265.737 51.7321,266.737 52.5,267.5C 53.2506,268.573 54.2506,268.74 55.5,268C 62.3901,265.434 69.0567,262.601 75.5,259.5C 76.2679,258.737 76.7679,257.737 77,256.5C 77.2321,257.737 77.7321,258.737 78.5,259.5 Z"/></g>
<g><path style="opacity:1" fill="#c4c4c4" d="M 76.5,261.5 C 79.7181,261.651 80.0515,262.484 77.5,264C 72.9801,265.965 68.3134,266.965 63.5,267C 68.2088,265.827 72.5422,263.993 76.5,261.5 Z"/></g>
<g><path style="opacity:1" fill="#f0f0f0" d="M 58.5,290.5 C 58.6048,286.742 57.6048,283.408 55.5,280.5C 55.2965,278.61 55.9632,277.11 57.5,276C 62.0481,273.873 66.7147,272.039 71.5,270.5C 72.2334,280.349 67.9,287.015 58.5,290.5 Z"/></g>
<g><path style="opacity:1" fill="#d1d1d1" d="M 65.5,268.5 C 66.8734,268.343 68.2068,268.51 69.5,269C 64.1365,270.565 59.1365,272.898 54.5,276C 52.3594,276.884 50.6927,276.384 49.5,274.5C 54.753,272.125 60.0863,270.125 65.5,268.5 Z"/></g>
<g><path style="opacity:1" fill="#a1a1a1" d="M 74.5,272.5 C 74.0405,275.877 73.3739,279.211 72.5,282.5C 71.6531,278.994 72.3197,275.661 74.5,272.5 Z"/></g>
<g><path style="opacity:1" fill="#4a4a4a" d="M 55.5,280.5 C 57.6048,283.408 58.6048,286.742 58.5,290.5C 57.8333,291.5 57.1667,292.5 56.5,293.5C 56.5835,289.665 55.9168,285.998 54.5,282.5C 55.3382,282.158 55.6716,281.492 55.5,280.5 Z"/></g>
<g><path style="opacity:1" fill="#cecece" d="M 70.5,284.5 C 72.7453,284.541 73.4119,285.375 72.5,287C 69.9417,288.626 67.275,289.626 64.5,290C 66.9962,288.669 68.9962,286.836 70.5,284.5 Z"/></g>
<g><path style="opacity:1" fill="#dcdcdc" d="M 60.5,293.5 C 61.552,293.351 62.552,293.517 63.5,294C 62.1667,295.333 60.8333,296.667 59.5,298C 58.365,298.749 57.365,298.583 56.5,297.5C 57.5487,295.784 58.882,294.451 60.5,293.5 Z"/></g>
<g><path style="opacity:1" fill="#a4a4a4" d="M 69.5,291.5 C 69.7406,293.898 69.0739,295.898 67.5,297.5C 67.2594,295.102 67.9261,293.102 69.5,291.5 Z"/></g>
<g><path style="opacity:1" fill="#dfdfdf" d="M 64.5,295.5 C 65.0431,295.56 65.3764,295.893 65.5,296.5C 64.3657,299.07 63.5323,301.736 63,304.5C 60.7879,301.021 61.2879,298.021 64.5,295.5 Z"/></g>
<g><path style="opacity:1" fill="#fcfcfc" d="M 58.5,333.5 C 61.8333,333.5 65.1667,333.5 68.5,333.5C 68.5,367.833 68.5,402.167 68.5,436.5C 65.1667,436.5 61.8333,436.5 58.5,436.5C 58.5,402.167 58.5,367.833 58.5,333.5 Z"/></g>
<g><path style="opacity:1" fill="#fcfcfc" d="M 53.5,334.5 C 55.4931,367.817 56.1598,401.483 55.5,435.5C 54.1667,435.5 52.8333,435.5 51.5,435.5C 50.5,435.5 49.5,435.5 48.5,435.5C 19.3619,422.895 7.86187,400.895 14,369.5C 20.7746,350.556 33.9412,338.889 53.5,334.5 Z"/></g>
<g><path style="opacity:1" fill="#989898" d="M 53.5,334.5 C 53.5,334.167 53.5,333.833 53.5,333.5C 54.5,333.5 55.5,333.5 56.5,333.5C 56.5,367.833 56.5,402.167 56.5,436.5C 54.5853,436.784 52.9187,436.451 51.5,435.5C 52.8333,435.5 54.1667,435.5 55.5,435.5C 56.1598,401.483 55.4931,367.817 53.5,334.5 Z"/></g>
<g><path style="opacity:1" fill="#2e2e2e" d="M 51.5,332.5 C 51.8333,332.5 52.1667,332.5 52.5,332.5C 54.7354,332.205 56.7354,332.539 58.5,333.5C 58.5,367.833 58.5,402.167 58.5,436.5C 62.1667,437.833 65.8333,437.833 69.5,436.5C 70.1667,436.5 70.8333,436.5 71.5,436.5C 72.5,436.5 73.5,436.5 74.5,436.5C 75.4916,436.328 76.1583,436.662 76.5,437.5C 69.8772,438.38 63.2105,438.713 56.5,438.5C 53.4021,438.244 50.4021,437.578 47.5,436.5C 47.5,435.833 47.8333,435.5 48.5,435.5C 49.5,435.5 50.5,435.5 51.5,435.5C 52.9187,436.451 54.5853,436.784 56.5,436.5C 56.5,402.167 56.5,367.833 56.5,333.5C 55.5,333.5 54.5,333.5 53.5,333.5C 52.5084,333.672 51.8417,333.338 51.5,332.5 Z"/></g>
<g><path style="opacity:1" fill="#b6b6b6" d="M 68.5,333.5 C 69.4983,367.663 69.8317,401.996 69.5,436.5C 65.8333,437.833 62.1667,437.833 58.5,436.5C 61.8333,436.5 65.1667,436.5 68.5,436.5C 68.5,402.167 68.5,367.833 68.5,333.5 Z"/></g>
<g><path style="opacity:1" fill="#333333" d="M 51.5,332.5 C 51.8417,333.338 52.5084,333.672 53.5,333.5C 53.5,333.833 53.5,334.167 53.5,334.5C 33.9412,338.889 20.7746,350.556 14,369.5C 7.86187,400.895 19.3619,422.895 48.5,435.5C 47.8333,435.5 47.5,435.833 47.5,436.5C 23.5197,427.332 10.8531,409.832 9.5,384C 11.6071,357.066 25.6071,339.899 51.5,332.5 Z"/></g>
<g><path style="opacity:1" fill="#353535" d="M 52.5,332.5 C 83.5329,328.602 104.7,341.269 116,370.5C 121.72,403.749 108.886,426.082 77.5,437.5C 77.1667,437.5 76.8333,437.5 76.5,437.5C 76.1583,436.662 75.4916,436.328 74.5,436.5C 74.5,436.167 74.5,435.833 74.5,435.5C 93.23,431.384 106.063,420.384 113,402.5C 120.37,375.77 112.536,354.936 89.5,340C 84.4423,337.302 79.109,335.468 73.5,334.5C 73.44,333.957 73.1067,333.624 72.5,333.5C 71.5001,367.827 71.1668,402.16 71.5,436.5C 70.8333,436.5 70.1667,436.5 69.5,436.5C 69.8317,401.996 69.4983,367.663 68.5,333.5C 65.1667,333.5 61.8333,333.5 58.5,333.5C 56.7354,332.539 54.7354,332.205 52.5,332.5 Z"/></g>
<g><path style="opacity:1" fill="#cecece" d="M 73.5,334.5 C 72.8334,351.163 72.5001,367.997 72.5,385C 72.5005,402.18 73.1671,419.014 74.5,435.5C 74.5,435.833 74.5,436.167 74.5,436.5C 73.5,436.5 72.5,436.5 71.5,436.5C 71.1668,402.16 71.5001,367.827 72.5,333.5C 73.1067,333.624 73.44,333.957 73.5,334.5 Z"/></g>
<g><path style="opacity:1" fill="#fdfdfd" d="M 73.5,334.5 C 79.109,335.468 84.4423,337.302 89.5,340C 112.536,354.936 120.37,375.77 113,402.5C 106.063,420.384 93.23,431.384 74.5,435.5C 73.1671,419.014 72.5005,402.18 72.5,385C 72.5001,367.997 72.8334,351.163 73.5,334.5 Z"/></g>
<g><path style="opacity:1" fill="#b6b5b5" d="M 76.5,437.5 C 76.8333,437.5 77.1667,437.5 77.5,437.5C 73.7968,439.055 69.7968,439.722 65.5,439.5C 62.3138,439.498 59.3138,439.165 56.5,438.5C 63.2105,438.713 69.8772,438.38 76.5,437.5 Z"/></g>
</svg>
