<?xml version="1.0" encoding="UTF-8"?>
<!DOCTYPE svg PUBLIC "-//W3C//DTD SVG 1.1//EN" "http://www.w3.org/Graphics/SVG/1.1/DTD/svg11.dtd">
<svg xmlns="http://www.w3.org/2000/svg" version="1.1" width="173px" height="413px" style="shape-rendering:geometricPrecision; text-rendering:geometricPrecision; image-rendering:optimizeQuality; fill-rule:evenodd; clip-rule:evenodd" xmlns:xlink="http://www.w3.org/1999/xlink">
<g><path style="opacity:1" fill="#fefefe" d="M -0.5,-0.5 C 57.1667,-0.5 114.833,-0.5 172.5,-0.5C 172.5,137.167 172.5,274.833 172.5,412.5C 114.833,412.5 57.1667,412.5 -0.5,412.5C -0.5,274.833 -0.5,137.167 -0.5,-0.5 Z"/></g>
<g><path style="opacity:1" fill="#fdfdfd" d="M 43.5,15.5 C 43.5,29.5 43.5,43.5 43.5,57.5C 31.5,57.5 19.5,57.5 7.5,57.5C 7.5,43.8333 7.5,30.1667 7.5,16.5C 7.5,16.1667 7.5,15.8333 7.5,15.5C 19.4294,9.00309 31.4294,9.00309 43.5,15.5 Z"/></g>
<g><path style="opacity:1" fill="#fcfcfc" d="M 150.5,11.5 C 153.936,12.192 157.27,13.192 160.5,14.5C 161.167,15.1667 161.833,15.8333 162.5,16.5C 162.5,30.1667 162.5,43.8333 162.5,57.5C 150.167,57.5 137.833,57.5 125.5,57.5C 125.167,43.4841 125.501,29.4841 126.5,15.5C 128.739,14.2122 131.072,13.2122 133.5,12.5C 139.13,11.7081 144.797,11.3748 150.5,11.5 Z"/></g>
<g><path style="opacity:1" fill="#484848" d="M 162.5,13.5 C 163.15,13.8039 163.817,14.1373 164.5,14.5C 165.499,29.8189 165.833,45.1522 165.5,60.5C 160.167,60.5 154.833,60.5 149.5,60.5C 154.305,59.5128 159.305,59.1795 164.5,59.5C 164.832,44.4208 164.499,30.0875 163.5,16.5C 163.167,16.5 162.833,16.5 162.5,16.5C 161.833,15.8333 161.167,15.1667 160.5,14.5C 161.492,14.6716 162.158,14.3382 162.5,13.5 Z"/></g>
<g><path style="opacity:1" fill="#2b2b2b" d="M 162.5,13.5 C 162.158,14.3382 161.492,14.6716 160.5,14.5C 157.27,13.192 153.936,12.192 150.5,11.5C 148.359,10.8367 146.025,10.5034 143.5,10.5C 139.859,10.3148 136.526,10.9814 133.5,12.5C 131.072,13.2122 128.739,14.2122 126.5,15.5C 125.501,29.4841 125.167,43.4841 125.5,57.5C 125.5,57.8333 125.5,58.1667 125.5,58.5C 124.833,58.5 124.167,58.5 123.5,58.5C 124.123,43.9228 123.456,29.5894 121.5,15.5C 120.737,14.7321 119.737,14.2321 118.5,14C 118.728,13.6012 119.062,13.4346 119.5,13.5C 122.482,15.0775 125.149,14.7442 127.5,12.5C 128.756,12.5386 129.756,12.0386 130.5,11C 124.167,10.3333 117.833,10.3333 111.5,11C 113.436,11.813 115.436,12.313 117.5,12.5C 116.791,13.404 115.791,13.7373 114.5,13.5C 112.585,13.7845 110.919,13.4511 109.5,12.5C 102.228,10.9826 94.728,10.316 87,10.5C 81.6555,10.5006 76.4889,10.834 71.5,11.5C 63.1648,11.584 55.1648,13.2507 47.5,16.5C 46.5008,30.4841 46.1674,44.4841 46.5,58.5C 45.8333,58.5 45.1667,58.5 44.5,58.5C 44.8293,43.9903 44.4959,29.6569 43.5,15.5C 31.4294,9.00309 19.4294,9.00309 7.5,15.5C 7.15829,14.6618 6.49162,14.3284 5.5,14.5C 6.95991,12.5372 8.62658,10.7038 10.5,9C 60.17,8.16671 109.837,8.33338 159.5,9.5C 160.524,10.8518 161.524,12.1851 162.5,13.5 Z"/></g>
<g><path style="opacity:1" fill="#505050" d="M 117.5,12.5 C 118.492,12.3284 119.158,12.6618 119.5,13.5C 119.062,13.4346 118.728,13.6012 118.5,14C 119.737,14.2321 120.737,14.7321 121.5,15.5C 118.848,15.5905 116.515,14.9238 114.5,13.5C 115.791,13.7373 116.791,13.404 117.5,12.5 Z"/></g>
<g><path style="opacity:1" fill="#dedede" d="M 117.5,12.5 C 120.833,11.1667 124.167,11.1667 127.5,12.5C 125.149,14.7442 122.482,15.0775 119.5,13.5C 119.158,12.6618 118.492,12.3284 117.5,12.5 Z"/></g>
<g><path style="opacity:1" fill="#fafafa" d="M 71.5,11.5 C 84.1848,11.3451 96.8514,11.6784 109.5,12.5C 110.919,13.4511 112.585,13.7845 114.5,13.5C 116.515,14.9238 118.848,15.5905 121.5,15.5C 123.456,29.5894 124.123,43.9228 123.5,58.5C 97.8333,58.5 72.1667,58.5 46.5,58.5C 46.1674,44.4841 46.5008,30.4841 47.5,16.5C 55.1648,13.2507 63.1648,11.584 71.5,11.5 Z"/></g>
<g><path style="opacity:1" fill="#c8c8c8" d="M 39.5,11.5 C 44.6503,10.3493 49.9836,10.1826 55.5,11C 50.1321,14.8819 44.7988,15.0486 39.5,11.5 Z"/></g>
<g><path style="opacity:1" fill="#999999" d="M 150.5,11.5 C 144.797,11.3748 139.13,11.7081 133.5,12.5C 136.526,10.9814 139.859,10.3148 143.5,10.5C 146.025,10.5034 148.359,10.8367 150.5,11.5 Z"/></g>
<g><path style="opacity:1" fill="#a3a3a3" d="M 127.5,12.5 C 124.167,11.1667 120.833,11.1667 117.5,12.5C 115.436,12.313 113.436,11.813 111.5,11C 117.833,10.3333 124.167,10.3333 130.5,11C 129.756,12.0386 128.756,12.5386 127.5,12.5 Z"/></g>
<g><path style="opacity:1" fill="#6f6f6f" d="M 71.5,11.5 C 76.4889,10.834 81.6555,10.5006 87,10.5C 94.728,10.316 102.228,10.9826 109.5,12.5C 96.8514,11.6784 84.1848,11.3451 71.5,11.5 Z"/></g>
<g><path style="opacity:1" fill="#202020" d="M 5.5,14.5 C 6.49162,14.3284 7.15829,14.6618 7.5,15.5C 7.5,15.8333 7.5,16.1667 7.5,16.5C 6.50418,30.3234 6.17085,44.3234 6.5,58.5C 19.1667,58.5 31.8333,58.5 44.5,58.5C 45.1667,58.5 45.8333,58.5 46.5,58.5C 72.1667,58.5 97.8333,58.5 123.5,58.5C 124.167,58.5 124.833,58.5 125.5,58.5C 138.167,58.5 150.833,58.5 163.5,58.5C 163.5,44.5 163.5,30.5 163.5,16.5C 164.499,30.0875 164.832,44.4208 164.5,59.5C 159.305,59.1795 154.305,59.5128 149.5,60.5C 148.069,61.7804 147.402,63.4471 147.5,65.5C 147.167,65.5 146.833,65.5 146.5,65.5C 145.833,65.5 145.5,65.1667 145.5,64.5C 145.5,63.8333 145.5,63.1667 145.5,62.5C 146.404,61.791 146.737,60.791 146.5,59.5C 105.5,59.5 64.5,59.5 23.5,59.5C 23.2627,60.791 23.596,61.791 24.5,62.5C 24.5,63.1667 24.5,63.8333 24.5,64.5C 24.5,65.1667 24.1667,65.5 23.5,65.5C 22.8466,64.1932 22.1799,62.8599 21.5,61.5C 15.8722,60.5046 10.2055,60.1712 4.5,60.5C 4.17047,44.9909 4.5038,29.6576 5.5,14.5 Z"/></g>
<g><path style="opacity:1" fill="#9c9c9c" d="M 162.5,16.5 C 162.833,16.5 163.167,16.5 163.5,16.5C 163.5,30.5 163.5,44.5 163.5,58.5C 150.833,58.5 138.167,58.5 125.5,58.5C 125.5,58.1667 125.5,57.8333 125.5,57.5C 137.833,57.5 150.167,57.5 162.5,57.5C 162.5,43.8333 162.5,30.1667 162.5,16.5 Z"/></g>
<g><path style="opacity:1" fill="#a7a7a7" d="M 43.5,15.5 C 44.4959,29.6569 44.8293,43.9903 44.5,58.5C 31.8333,58.5 19.1667,58.5 6.5,58.5C 6.17085,44.3234 6.50418,30.3234 7.5,16.5C 7.5,30.1667 7.5,43.8333 7.5,57.5C 19.5,57.5 31.5,57.5 43.5,57.5C 43.5,43.5 43.5,29.5 43.5,15.5 Z"/></g>
<g><path style="opacity:1" fill="#727272" d="M 145.5,62.5 C 125.678,61.167 105.511,60.5003 85,60.5C 64.4888,60.5003 44.3221,61.167 24.5,62.5C 23.596,61.791 23.2627,60.791 23.5,59.5C 64.5,59.5 105.5,59.5 146.5,59.5C 146.737,60.791 146.404,61.791 145.5,62.5 Z"/></g>
<g><path style="opacity:1" fill="#ebebeb" d="M 145.5,62.5 C 145.5,63.1667 145.5,63.8333 145.5,64.5C 105.167,64.5 64.8333,64.5 24.5,64.5C 24.5,63.8333 24.5,63.1667 24.5,62.5C 44.3221,61.167 64.4888,60.5003 85,60.5C 105.511,60.5003 125.678,61.167 145.5,62.5 Z"/></g>
<g><path style="opacity:1" fill="#4a4a4a" d="M 24.5,64.5 C 64.8333,64.5 105.167,64.5 145.5,64.5C 145.5,65.1667 145.833,65.5 146.5,65.5C 141.36,66.4881 136.026,66.8214 130.5,66.5C 129.167,65.1667 127.833,65.1667 126.5,66.5C 98.4798,65.8418 70.8132,66.5085 43.5,68.5C 42.5005,176.999 42.1672,285.665 42.5,394.5C 41.8333,285.5 41.1667,176.5 40.5,67.5C 34.8333,66.8333 29.1667,66.1667 23.5,65.5C 24.1667,65.5 24.5,65.1667 24.5,64.5 Z"/></g>
<g><path style="opacity:1" fill="#afafaf" d="M 126.5,66.5 C 126.831,94.6716 126.498,122.672 125.5,150.5C 125.5,122.833 125.5,95.1667 125.5,67.5C 98.5,67.5 71.5,67.5 44.5,67.5C 44.5,94.8333 44.5,122.167 44.5,149.5C 43.5021,122.672 43.1688,95.6718 43.5,68.5C 70.8132,66.5085 98.4798,65.8418 126.5,66.5 Z"/></g>
<g><path style="opacity:1" fill="#c0c0c0" d="M 146.5,65.5 C 146.833,65.5 147.167,65.5 147.5,65.5C 141.926,67.4533 135.926,68.12 129.5,67.5C 129.5,66.8333 129.833,66.5 130.5,66.5C 136.026,66.8214 141.36,66.4881 146.5,65.5 Z"/></g>
<g><path style="opacity:1" fill="#fefefe" d="M 125.5,150.5 C 123.312,156.379 120.978,162.212 118.5,168C 96.1592,168.833 73.8259,168.666 51.5,167.5C 48.7678,161.634 46.4345,155.634 44.5,149.5C 44.5,122.167 44.5,94.8333 44.5,67.5C 71.5,67.5 98.5,67.5 125.5,67.5C 125.5,95.1667 125.5,122.833 125.5,150.5 Z"/></g>
<g><path style="opacity:1" fill="#e1e1e1" d="M 40.5,67.5 C 41.1667,176.5 41.8333,285.5 42.5,394.5C 44.1667,396.5 45.8333,398.5 47.5,400.5C 44.9438,399.457 42.7772,397.79 41,395.5C 40.5,286.167 40.3333,176.834 40.5,67.5 Z"/></g>
<g><path style="opacity:1" fill="#e2e2e2" d="M 129.5,67.5 C 129.169,176.874 129.502,286.207 130.5,395.5C 128.936,397.251 126.936,398.251 124.5,398.5C 125.5,397.167 126.5,395.833 127.5,394.5C 128.167,285.5 128.833,176.5 129.5,67.5 Z"/></g>
<g><path style="opacity:1" fill="#313131" d="M 130.5,66.5 C 129.833,66.5 129.5,66.8333 129.5,67.5C 128.833,176.5 128.167,285.5 127.5,394.5C 127.672,393.508 127.338,392.842 126.5,392.5C 126.5,318.5 126.5,244.5 126.5,170.5C 124.265,170.205 122.265,170.539 120.5,171.5C 120.5,245.167 120.5,318.833 120.5,392.5C 119.833,392.5 119.167,392.5 118.5,392.5C 118.5,318.5 118.5,244.5 118.5,170.5C 96.1667,170.5 73.8333,170.5 51.5,170.5C 51.5,244.833 51.5,319.167 51.5,393.5C 50.8333,393.5 50.1667,393.5 49.5,393.5C 49.5,393.833 49.5,394.167 49.5,394.5C 48.5,394.5 47.5,394.5 46.5,394.5C 46.2627,395.791 46.596,396.791 47.5,397.5C 48.1667,397.833 48.8333,398.167 49.5,398.5C 50.4345,397.432 50.7678,396.099 50.5,394.5C 50.8333,394.5 51.1667,394.5 51.5,394.5C 51.5,396.833 51.5,399.167 51.5,401.5C 50.8333,401.5 50.5,401.833 50.5,402.5C 49.5,401.833 48.5,401.167 47.5,400.5C 45.8333,398.5 44.1667,396.5 42.5,394.5C 42.1672,285.665 42.5005,176.999 43.5,68.5C 43.1688,95.6718 43.5021,122.672 44.5,149.5C 46.4345,155.634 48.7678,161.634 51.5,167.5C 73.8259,168.666 96.1592,168.833 118.5,168C 120.978,162.212 123.312,156.379 125.5,150.5C 126.498,122.672 126.831,94.6716 126.5,66.5C 127.833,65.1667 129.167,65.1667 130.5,66.5 Z"/></g>
<g><path style="opacity:1" fill="#9f9f9f" d="M 120.5,171.5 C 122.265,170.539 124.265,170.205 126.5,170.5C 126.5,244.5 126.5,318.5 126.5,392.5C 124.5,393.833 122.5,393.833 120.5,392.5C 122.167,392.5 123.833,392.5 125.5,392.5C 125.5,318.833 125.5,245.167 125.5,171.5C 123.833,171.5 122.167,171.5 120.5,171.5 Z"/></g>
<g><path style="opacity:1" fill="#f7f7f7" d="M 120.5,171.5 C 122.167,171.5 123.833,171.5 125.5,171.5C 125.5,245.167 125.5,318.833 125.5,392.5C 123.833,392.5 122.167,392.5 120.5,392.5C 120.5,318.833 120.5,245.167 120.5,171.5 Z"/></g>
<g><path style="opacity:1" fill="#d9d9d9" d="M 125.5,168.5 C 124.167,168.5 122.833,168.5 121.5,168.5C 121.767,166.035 122.434,163.701 123.5,161.5C 124.117,161.389 124.617,161.056 125,160.5C 125.497,163.146 125.664,165.813 125.5,168.5 Z"/></g>
<g><path style="opacity:1" fill="#e5e5e5" d="M 45.5,159.5 C 47.0951,162.285 48.0951,165.285 48.5,168.5C 47.1667,168.5 45.8333,168.5 44.5,168.5C 44.19,165.287 44.5233,162.287 45.5,159.5 Z"/></g>
<g><path style="opacity:1" fill="#9c9c9c" d="M 125.5,168.5 C 125.664,165.813 125.497,163.146 125,160.5C 124.617,161.056 124.117,161.389 123.5,161.5C 123.795,159.577 124.628,157.91 126,156.5C 126.812,160.689 126.645,164.689 125.5,168.5 Z"/></g>
<g><path style="opacity:1" fill="#939393" d="M 45.5,159.5 C 44.5233,162.287 44.19,165.287 44.5,168.5C 43.3547,164.689 43.1881,160.689 44,156.5C 45.0386,157.244 45.5386,158.244 45.5,159.5 Z"/></g>
<g><path style="opacity:1" fill="#838383" d="M 49.5,392.5 C 49.5,392.833 49.5,393.167 49.5,393.5C 47.5,393.5 45.5,393.5 43.5,393.5C 43.5,319.167 43.5,244.833 43.5,170.5C 45.8333,170.5 48.1667,170.5 50.5,170.5C 50.8326,244.669 50.4992,318.669 49.5,392.5 Z"/></g>
<g><path style="opacity:1" fill="#f8f8f8" d="M 49.5,392.5 C 47.8333,392.5 46.1667,392.5 44.5,392.5C 44.5,318.833 44.5,245.167 44.5,171.5C 46.1667,171.5 47.8333,171.5 49.5,171.5C 49.5,245.167 49.5,318.833 49.5,392.5 Z"/></g>
<g><path style="opacity:1" fill="#a0a0a0" d="M 118.5,392.5 C 96.3396,393.497 74.0062,393.831 51.5,393.5C 51.5,319.167 51.5,244.833 51.5,170.5C 73.8333,170.5 96.1667,170.5 118.5,170.5C 118.5,244.5 118.5,318.5 118.5,392.5 Z"/></g>
<g><path style="opacity:1" fill="#fefefe" d="M 52.5,171.5 C 74.1667,171.5 95.8333,171.5 117.5,171.5C 117.5,245.167 117.5,318.833 117.5,392.5C 95.8333,392.5 74.1667,392.5 52.5,392.5C 52.5,318.833 52.5,245.167 52.5,171.5 Z"/></g>
<g><path style="opacity:1" fill="#818181" d="M 51.5,394.5 C 73.8333,394.5 96.1667,394.5 118.5,394.5C 118.5,396.833 118.5,399.167 118.5,401.5C 96.1667,401.5 73.8333,401.5 51.5,401.5C 51.5,399.167 51.5,396.833 51.5,394.5 Z"/></g>
<g><path style="opacity:1" fill="#d1d1d1" d="M 49.5,398.5 C 48.8333,398.167 48.1667,397.833 47.5,397.5C 47.3691,396.624 47.7025,395.957 48.5,395.5C 49.3857,396.325 49.719,397.325 49.5,398.5 Z"/></g>
<g><path style="opacity:1" fill="#fbfbfb" d="M 52.5,395.5 C 74.1667,395.5 95.8333,395.5 117.5,395.5C 117.5,397.167 117.5,398.833 117.5,400.5C 95.8333,400.5 74.1667,400.5 52.5,400.5C 52.5,398.833 52.5,397.167 52.5,395.5 Z"/></g>
<g><path style="opacity:1" fill="#6d6d6d" d="M 49.5,394.5 C 49.8333,394.5 50.1667,394.5 50.5,394.5C 50.7678,396.099 50.4345,397.432 49.5,398.5C 49.719,397.325 49.3857,396.325 48.5,395.5C 47.7025,395.957 47.3691,396.624 47.5,397.5C 46.596,396.791 46.2627,395.791 46.5,394.5C 47.5,394.5 48.5,394.5 49.5,394.5 Z"/></g>
<g><path style="opacity:1" fill="#0f0f0f" d="M 118.5,392.5 C 119.167,392.5 119.833,392.5 120.5,392.5C 122.5,393.833 124.5,393.833 126.5,392.5C 127.338,392.842 127.672,393.508 127.5,394.5C 126.5,395.833 125.5,397.167 124.5,398.5C 123.038,399.458 121.705,400.624 120.5,402C 97.169,402.5 73.8357,402.667 50.5,402.5C 50.5,401.833 50.8333,401.5 51.5,401.5C 73.8333,401.5 96.1667,401.5 118.5,401.5C 118.5,399.167 118.5,396.833 118.5,394.5C 96.1667,394.5 73.8333,394.5 51.5,394.5C 51.1667,394.5 50.8333,394.5 50.5,394.5C 50.1667,394.5 49.8333,394.5 49.5,394.5C 49.5,394.167 49.5,393.833 49.5,393.5C 50.1667,393.5 50.8333,393.5 51.5,393.5C 74.0062,393.831 96.3396,393.497 118.5,392.5 Z"/></g>
<g><path style="opacity:1" fill="#bdbdbd" d="M 120.5,394.5 C 124.157,394.974 124.324,396.307 121,398.5C 120.51,397.207 120.343,395.873 120.5,394.5 Z"/></g>
</svg>
