<?xml version="1.0" encoding="UTF-8"?>
<!DOCTYPE svg PUBLIC "-//W3C//DTD SVG 1.1//EN" "http://www.w3.org/Graphics/SVG/1.1/DTD/svg11.dtd">
<svg xmlns="http://www.w3.org/2000/svg" version="1.1" width="156px" height="358px" style="shape-rendering:geometricPrecision; text-rendering:geometricPrecision; image-rendering:optimizeQuality; fill-rule:evenodd; clip-rule:evenodd" xmlns:xlink="http://www.w3.org/1999/xlink">
<g><path style="opacity:1" fill="#fcfcfc" d="M -0.5,-0.5 C 51.5,-0.5 103.5,-0.5 155.5,-0.5C 155.5,118.833 155.5,238.167 155.5,357.5C 103.5,357.5 51.5,357.5 -0.5,357.5C -0.5,238.167 -0.5,118.833 -0.5,-0.5 Z"/></g>
<g><path style="opacity:1" fill="#505050" d="M 13.5,7.5 C 56.5,6.16667 99.5,6.16667 142.5,7.5C 134.472,7.16897 126.472,7.5023 118.5,8.5C 118.624,9.10667 118.957,9.44001 119.5,9.5C 119.5,9.83333 119.5,10.1667 119.5,10.5C 117.321,10.84 115.488,11.84 114,13.5C 113.5,25.4954 113.333,37.4954 113.5,49.5C 124.167,49.5 134.833,49.5 145.5,49.5C 111.833,50.8333 78.1667,50.8333 44.5,49.5C 66.8333,49.5 89.1667,49.5 111.5,49.5C 111.5,37.5 111.5,25.5 111.5,13.5C 106.516,12.3918 101.516,11.3918 96.5,10.5C 96.5,10.1667 96.5,9.83333 96.5,9.5C 98.4286,9.76918 100.095,9.26918 101.5,8C 72.1686,7.50002 42.8352,7.33335 13.5,7.5 Z"/></g>
<g><path style="opacity:1" fill="#202020" d="M 13.5,7.5 C 42.8352,7.33335 72.1686,7.50002 101.5,8C 100.095,9.26918 98.4286,9.76918 96.5,9.5C 82.1124,7.93928 67.7791,8.27261 53.5,10.5C 53.5,9.16667 52.8333,8.5 51.5,8.5C 47.5,8.5 43.5,8.5 39.5,8.5C 38.8333,9.16667 38.1667,9.83333 37.5,10.5C 30.8616,9.50205 24.195,9.33538 17.5,10C 15.2199,10.2326 13.2199,11.066 11.5,12.5C 10.501,24.8153 10.1676,37.1487 10.5,49.5C 20.8333,49.5 31.1667,49.5 41.5,49.5C 41.8333,49.5 42.1667,49.5 42.5,49.5C 43.1667,49.5 43.8333,49.5 44.5,49.5C 78.1667,50.8333 111.833,50.8333 145.5,49.5C 145.667,37.4954 145.5,25.4954 145,13.5C 142.021,11.7925 138.854,10.4592 135.5,9.5C 130.311,8.29843 124.977,8.29843 119.5,9.5C 118.957,9.44001 118.624,9.10667 118.5,8.5C 126.472,7.5023 134.472,7.16897 142.5,7.5C 144.129,8.62529 145.629,9.95862 147,11.5C 147.5,24.8292 147.667,38.1625 147.5,51.5C 142.786,51.1734 138.12,51.5067 133.5,52.5C 132.82,53.8599 132.153,55.1932 131.5,56.5C 130.833,56.5 130.5,56.1667 130.5,55.5C 130.5,54.8333 130.5,54.1667 130.5,53.5C 131.043,53.44 131.376,53.1067 131.5,52.5C 113.667,52.1667 95.8333,51.8333 78,51.5C 59.8206,51.5004 41.9873,52.1671 24.5,53.5C 24.5,54.1667 24.1667,54.5 23.5,54.5C 23.0472,53.5416 22.3805,52.7083 21.5,52C 17.1794,51.501 12.8461,51.3343 8.5,51.5C 8.33344,38.1625 8.5001,24.8292 9,11.5C 10.3712,9.95862 11.8712,8.62529 13.5,7.5 Z"/></g>
<g><path style="opacity:1" fill="#3c3c3c" d="M 39.5,8.5 C 40.2858,10.7351 41.9524,11.7351 44.5,11.5C 47.3598,11.445 49.6931,10.445 51.5,8.5C 52.8333,8.5 53.5,9.16667 53.5,10.5C 53.5,10.8333 53.5,11.1667 53.5,11.5C 50.6872,11.5481 48.0205,12.2147 45.5,13.5C 44.501,25.4815 44.1677,37.4815 44.5,49.5C 43.8333,49.5 43.1667,49.5 42.5,49.5C 42.6665,37.4954 42.4999,25.4954 42,13.5C 41.6174,12.944 41.1174,12.6107 40.5,12.5C 38.9731,12.573 37.9731,11.9063 37.5,10.5C 38.1667,9.83333 38.8333,9.16667 39.5,8.5 Z"/></g>
<g><path style="opacity:1" fill="#d1d1d1" d="M 40.5,12.5 C 41.1174,12.6107 41.6174,12.944 42,13.5C 42.4999,25.4954 42.6665,37.4954 42.5,49.5C 42.1667,49.5 41.8333,49.5 41.5,49.5C 41.7938,37.1167 41.4604,24.7834 40.5,12.5 Z"/></g>
<g><path style="opacity:1" fill="#fcfcfc" d="M 135.5,9.5 C 138.854,10.4592 142.021,11.7925 145,13.5C 145.5,25.4954 145.667,37.4954 145.5,49.5C 134.833,49.5 124.167,49.5 113.5,49.5C 113.333,37.4954 113.5,25.4954 114,13.5C 115.488,11.84 117.321,10.84 119.5,10.5C 124.797,9.72546 130.13,9.39212 135.5,9.5 Z"/></g>
<g><path style="opacity:1" fill="#dddddd" d="M 107.5,10.5 C 109.833,9.16667 112.167,9.16667 114.5,10.5C 112.208,11.6861 109.874,11.6861 107.5,10.5 Z"/></g>
<g><path style="opacity:1" fill="#fcfcfc" d="M 96.5,10.5 C 101.516,11.3918 106.516,12.3918 111.5,13.5C 111.5,25.5 111.5,37.5 111.5,49.5C 89.1667,49.5 66.8333,49.5 44.5,49.5C 44.1677,37.4815 44.501,25.4815 45.5,13.5C 48.0205,12.2147 50.6872,11.5481 53.5,11.5C 67.7898,9.3349 82.1232,9.00156 96.5,10.5 Z"/></g>
<g><path style="opacity:1" fill="#fdfdfd" d="M 37.5,10.5 C 37.9731,11.9063 38.9731,12.573 40.5,12.5C 41.4604,24.7834 41.7938,37.1167 41.5,49.5C 31.1667,49.5 20.8333,49.5 10.5,49.5C 10.1676,37.1487 10.501,24.8153 11.5,12.5C 13.2199,11.066 15.2199,10.2326 17.5,10C 24.195,9.33538 30.8616,9.50205 37.5,10.5 Z"/></g>
<g><path style="opacity:1" fill="#818181" d="M 135.5,9.5 C 130.13,9.39212 124.797,9.72546 119.5,10.5C 119.5,10.1667 119.5,9.83333 119.5,9.5C 124.977,8.29843 130.311,8.29843 135.5,9.5 Z"/></g>
<g><path style="opacity:1" fill="#8c8c8c" d="M 114.5,10.5 C 112.167,9.16667 109.833,9.16667 107.5,10.5C 105.571,10.7692 103.905,10.2692 102.5,9C 107.202,8.17169 111.869,8.33836 116.5,9.5C 116.043,10.2975 115.376,10.6309 114.5,10.5 Z"/></g>
<g><path style="opacity:1" fill="#787878" d="M 96.5,9.5 C 96.5,9.83333 96.5,10.1667 96.5,10.5C 82.1232,9.00156 67.7898,9.3349 53.5,11.5C 53.5,11.1667 53.5,10.8333 53.5,10.5C 67.7791,8.27261 82.1124,7.93928 96.5,9.5 Z"/></g>
<g><path style="opacity:1" fill="#a1a1a1" d="M 39.5,8.5 C 43.5,8.5 47.5,8.5 51.5,8.5C 49.6931,10.445 47.3598,11.445 44.5,11.5C 41.9524,11.7351 40.2858,10.7351 39.5,8.5 Z"/></g>
<g><path style="opacity:1" fill="#949494" d="M 130.5,53.5 C 95.5,52.1667 60.5,52.1667 25.5,53.5C 25.1667,53.5 24.8333,53.5 24.5,53.5C 41.9873,52.1671 59.8206,51.5004 78,51.5C 95.8333,51.8333 113.667,52.1667 131.5,52.5C 131.376,53.1067 131.043,53.44 130.5,53.5 Z"/></g>
<g><path style="opacity:1" fill="#ededed" d="M 130.5,53.5 C 130.5,54.1667 130.5,54.8333 130.5,55.5C 95.1507,56.16 60.1507,55.4934 25.5,53.5C 60.5,52.1667 95.5,52.1667 130.5,53.5 Z"/></g>
<g><path style="opacity:1" fill="#383838" d="M 24.5,53.5 C 24.8333,53.5 25.1667,53.5 25.5,53.5C 60.1507,55.4934 95.1507,56.16 130.5,55.5C 130.5,56.1667 130.833,56.5 131.5,56.5C 127.03,57.4861 122.363,57.8195 117.5,57.5C 116.791,56.596 115.791,56.2627 114.5,56.5C 114.946,59.0101 114.28,61.0101 112.5,62.5C 113.038,60.8828 113.371,59.2161 113.5,57.5C 89.8333,57.5 66.1667,57.5 42.5,57.5C 44.7796,63.7307 46.7796,70.064 48.5,76.5C 47.8333,76.5 47.1667,76.5 46.5,76.5C 43.5968,64.8883 42.2635,64.8883 42.5,76.5C 41.8401,75.036 41.5068,73.3693 41.5,71.5C 41.288,68.9886 41.9546,66.8219 43.5,65C 42.0085,62.3788 41.3418,59.5455 41.5,56.5C 40.209,56.2627 39.209,56.596 38.5,57.5C 33.8215,57.6658 29.1548,57.4992 24.5,57C 23.7476,56.3292 23.4142,55.4959 23.5,54.5C 24.1667,54.5 24.5,54.1667 24.5,53.5 Z"/></g>
<g><path style="opacity:1" fill="#232323" d="M 113.5,66.5 C 114.167,69.8333 114.833,73.1667 115.5,76.5C 115.5,164.5 115.5,252.5 115.5,340.5C 114.833,253.167 114.167,165.833 113.5,78.5C 112.167,78.5 110.833,78.5 109.5,78.5C 109.167,78.5 108.833,78.5 108.5,78.5C 108.833,77.8333 109.167,77.1667 109.5,76.5C 110.833,76.5 112.167,76.5 113.5,76.5C 113.5,73.1667 113.5,69.8333 113.5,66.5 Z"/></g>
<g><path style="opacity:1" fill="#f9f9f9" d="M 109.5,78.5 C 110.833,78.5 112.167,78.5 113.5,78.5C 113.5,165.833 113.5,253.167 113.5,340.5C 112.167,340.5 110.833,340.5 109.5,340.5C 109.5,253.167 109.5,165.833 109.5,78.5 Z"/></g>
<g><path style="opacity:1" fill="#2c2c2c" d="M 38.5,57.5 C 39.209,56.596 40.209,56.2627 41.5,56.5C 41.3418,59.5455 42.0085,62.3788 43.5,65C 41.9546,66.8219 41.288,68.9886 41.5,71.5C 41.5068,73.3693 41.8401,75.036 42.5,76.5C 43.8333,76.5 45.1667,76.5 46.5,76.5C 47.1667,76.5 47.8333,76.5 48.5,76.5C 68.1667,76.5 87.8333,76.5 107.5,76.5C 108.595,71.6402 110.262,66.9735 112.5,62.5C 114.28,61.0101 114.946,59.0101 114.5,56.5C 115.791,56.2627 116.791,56.596 117.5,57.5C 116.883,57.6107 116.383,57.944 116,58.5C 115.501,64.4908 115.334,70.4908 115.5,76.5C 114.833,73.1667 114.167,69.8333 113.5,66.5C 111.6,69.5178 110.267,72.8512 109.5,76.5C 109.167,77.1667 108.833,77.8333 108.5,78.5C 108.5,166.167 108.5,253.833 108.5,341.5C 110.167,341.5 111.833,341.5 113.5,341.5C 114.338,341.842 114.672,342.508 114.5,343.5C 113.023,345.807 111.023,347.64 108.5,349C 87.8333,349.667 67.1667,349.667 46.5,349C 44.2911,347.127 42.4578,344.96 41,342.5C 40.6667,247.833 40.3333,153.167 40,58.5C 39.6174,57.944 39.1174,57.6107 38.5,57.5 Z"/></g>
<g><path style="opacity:1" fill="#fefefe" d="M 106.5,78.5 C 106.5,165.833 106.5,253.167 106.5,340.5C 87.5,340.5 68.5,340.5 49.5,340.5C 49.5,253.167 49.5,165.833 49.5,78.5C 68.5,78.5 87.5,78.5 106.5,78.5 Z"/></g>
<g><path style="opacity:1" fill="#d6d6d6" d="M 46.5,76.5 C 45.1667,76.5 43.8333,76.5 42.5,76.5C 42.2635,64.8883 43.5968,64.8883 46.5,76.5 Z"/></g>
<g><path style="opacity:1" fill="#cdcdcd" d="M 113.5,66.5 C 113.5,69.8333 113.5,73.1667 113.5,76.5C 112.167,76.5 110.833,76.5 109.5,76.5C 110.267,72.8512 111.6,69.5178 113.5,66.5 Z"/></g>
<g><path style="opacity:1" fill="#f8f8f8" d="M 112.5,62.5 C 110.262,66.9735 108.595,71.6402 107.5,76.5C 87.8333,76.5 68.1667,76.5 48.5,76.5C 46.7796,70.064 44.7796,63.7307 42.5,57.5C 66.1667,57.5 89.8333,57.5 113.5,57.5C 113.371,59.2161 113.038,60.8828 112.5,62.5 Z"/></g>
<g><path style="opacity:1" fill="#f2f2f2" d="M 46.5,78.5 C 46.8327,166.002 46.4994,253.335 45.5,340.5C 44.8333,-7.5 44.1667,-7.5 43.5,340.5C 43.1667,340.5 42.8333,340.5 42.5,340.5C 42.5,253.167 42.5,165.833 42.5,78.5C 43.8333,78.5 45.1667,78.5 46.5,78.5 Z"/></g>
<g><path style="opacity:1" fill="#fefefe" d="M 45.5,340.5 C 44.8333,340.5 44.1667,340.5 43.5,340.5C 44.1667,-7.5 44.8333,-7.5 45.5,340.5 Z"/></g>
<g><path style="opacity:1" fill="#9b9b9b" d="M 46.5,78.5 C 47.4994,165.998 47.8327,253.665 47.5,341.5C 45.5853,341.784 43.9187,341.451 42.5,340.5C 42.8333,340.5 43.1667,340.5 43.5,340.5C 44.1667,340.5 44.8333,340.5 45.5,340.5C 46.4994,253.335 46.8327,166.002 46.5,78.5 Z"/></g>
<g><path style="opacity:1" fill="#b6b6b6" d="M 108.5,78.5 C 108.833,78.5 109.167,78.5 109.5,78.5C 109.5,165.833 109.5,253.167 109.5,340.5C 110.833,340.5 112.167,340.5 113.5,340.5C 113.5,340.833 113.5,341.167 113.5,341.5C 111.833,341.5 110.167,341.5 108.5,341.5C 108.5,253.833 108.5,166.167 108.5,78.5 Z"/></g>
<g><path style="opacity:1" fill="#3f3f3f" d="M 113.5,78.5 C 114.167,165.833 114.833,253.167 115.5,340.5C 115.737,341.791 115.404,342.791 114.5,343.5C 114.672,342.508 114.338,341.842 113.5,341.5C 113.5,341.167 113.5,340.833 113.5,340.5C 113.5,253.167 113.5,165.833 113.5,78.5 Z"/></g>
<g><path style="opacity:1" fill="#707070" d="M 106.5,78.5 C 107.499,165.998 107.833,253.665 107.5,341.5C 87.9928,341.83 68.6595,341.497 49.5,340.5C 68.5,340.5 87.5,340.5 106.5,340.5C 106.5,253.167 106.5,165.833 106.5,78.5 Z"/></g>
<g><path style="opacity:1" fill="#919191" d="M 44.5,342.5 C 45.5,342.5 46.5,342.5 47.5,342.5C 46.7542,346.31 45.7542,346.31 44.5,342.5 Z"/></g>
<g><path style="opacity:1" fill="#9f9f9f" d="M 108.5,342.5 C 111.957,342.667 112.29,343.667 109.5,345.5C 108.614,344.675 108.281,343.675 108.5,342.5 Z"/></g>
<g><path style="opacity:1" fill="#f8f8f8" d="M 49.5,343.5 C 68.5,343.5 87.5,343.5 106.5,343.5C 106.5,344.833 106.5,346.167 106.5,347.5C 87.5,347.5 68.5,347.5 49.5,347.5C 49.5,346.167 49.5,344.833 49.5,343.5 Z"/></g>
</svg>
