<?xml version="1.0" encoding="UTF-8"?>
<!DOCTYPE svg PUBLIC "-//W3C//DTD SVG 1.1//EN" "http://www.w3.org/Graphics/SVG/1.1/DTD/svg11.dtd">
<svg xmlns="http://www.w3.org/2000/svg" version="1.1" width="116px" height="417px" style="shape-rendering:geometricPrecision; text-rendering:geometricPrecision; image-rendering:optimizeQuality; fill-rule:evenodd; clip-rule:evenodd" xmlns:xlink="http://www.w3.org/1999/xlink">
<g><path style="opacity:1" fill="#fdfdfd" d="M -0.5,-0.5 C 38.1667,-0.5 76.8333,-0.5 115.5,-0.5C 115.5,138.5 115.5,277.5 115.5,416.5C 76.8333,416.5 38.1667,416.5 -0.5,416.5C -0.5,277.5 -0.5,138.5 -0.5,-0.5 Z"/></g>
<g><path style="opacity:1" fill="#3a3a3a" d="M 106.5,44.5 C 107.307,50.4638 107.64,56.4638 107.5,62.5C 100.039,92.7442 80.7056,106.578 49.5,104C 23.618,97.4445 10.2846,80.7778 9.5,54C 11.8811,27.9522 25.8811,12.2855 51.5,7C 79.8024,5.16836 98.1358,17.6684 106.5,44.5 Z"/></g>
<g><path style="opacity:1" fill="#fafafa" d="M 50.5,8.5 C 78.1763,7.07219 96.343,19.4055 105,45.5C 106.667,85.4996 87.5002,104.333 47.5,102C 27.9759,95.8093 16.1426,82.6427 12,62.5C 10.7008,34.3149 23.5342,16.3149 50.5,8.5 Z"/></g>
<g><path style="opacity:1" fill="#4a4a4a" d="M 64.5,33.5 C 63.7321,32.7375 63.2321,31.7375 63,30.5C 62.79,32.0581 62.29,33.3915 61.5,34.5C 61.5,32.5 61.5,30.5 61.5,28.5C 59.5,28.5 57.5,28.5 55.5,28.5C 55.5,29.8333 55.5,31.1667 55.5,32.5C 54.6981,31.0484 54.1981,29.3817 54,27.5C 53.8138,30.0356 53.3138,32.369 52.5,34.5C 52.5,31.8333 52.5,29.1667 52.5,26.5C 56.5,26.5 60.5,26.5 64.5,26.5C 64.5,28.8333 64.5,31.1667 64.5,33.5 Z"/></g>
<g><path style="opacity:1" fill="#f2f2f2" d="M 61.5,34.5 C 58.9179,34.9746 56.9179,34.3079 55.5,32.5C 55.5,31.1667 55.5,29.8333 55.5,28.5C 57.5,28.5 59.5,28.5 61.5,28.5C 61.5,30.5 61.5,32.5 61.5,34.5 Z"/></g>
<g><path style="opacity:1" fill="#f4f4f4" d="M 61.5,40.5 C 63.8638,48.5339 69.1971,52.8672 77.5,53.5C 77.5,55.1667 77.5,56.8333 77.5,58.5C 74.6802,58.2475 72.0135,58.7475 69.5,60C 64.176,63.4709 61.176,68.3042 60.5,74.5C 58.8333,74.5 57.1667,74.5 55.5,74.5C 54.5458,64.879 49.2125,59.5457 39.5,58.5C 39.5,56.5 39.5,54.5 39.5,52.5C 47.9801,52.6856 53.3135,48.6856 55.5,40.5C 56.404,39.791 56.7373,38.791 56.5,37.5C 57.8333,37.5 59.1667,37.5 60.5,37.5C 60.2627,38.791 60.596,39.791 61.5,40.5 Z"/></g>
<g><path style="opacity:1" fill="#3a3a3a" d="M 55.5,32.5 C 56.9179,34.3079 58.9179,34.9746 61.5,34.5C 62.29,33.3915 62.79,32.0581 63,30.5C 63.2321,31.7375 63.7321,32.7375 64.5,33.5C 64.722,36.5042 65.722,39.1708 67.5,41.5C 66.8333,41.5 66.5,41.8333 66.5,42.5C 65.6851,41.5707 64.8518,40.5707 64,39.5C 65.0868,45.5981 68.7534,49.5981 75,51.5C 75.7648,51.4301 76.2648,51.0967 76.5,50.5C 78.7957,50.8041 79.129,51.8041 77.5,53.5C 69.1971,52.8672 63.8638,48.5339 61.5,40.5C 61.5,39.1667 61.5,37.8333 61.5,36.5C 59.5,36.5 57.5,36.5 55.5,36.5C 55.5,37.8333 55.5,39.1667 55.5,40.5C 53.3135,48.6856 47.9801,52.6856 39.5,52.5C 39.5,54.5 39.5,56.5 39.5,58.5C 39.7148,60.1788 39.0481,61.1788 37.5,61.5C 34.8333,61.5 32.1667,61.5 29.5,61.5C 29.5,57.5 29.5,53.5 29.5,49.5C 41.3615,50.7458 49.0281,45.7458 52.5,34.5C 53.3138,32.369 53.8138,30.0356 54,27.5C 54.1981,29.3817 54.6981,31.0484 55.5,32.5 Z"/></g>
<g><path style="opacity:1" fill="#a6a6a6" d="M 61.5,40.5 C 60.596,39.791 60.2627,38.791 60.5,37.5C 59.1667,37.5 57.8333,37.5 56.5,37.5C 56.7373,38.791 56.404,39.791 55.5,40.5C 55.5,39.1667 55.5,37.8333 55.5,36.5C 57.5,36.5 59.5,36.5 61.5,36.5C 61.5,37.8333 61.5,39.1667 61.5,40.5 Z"/></g>
<g><path style="opacity:1" fill="#aaaaaa" d="M 52.5,39.5 C 53.6211,41.0894 53.4544,42.7561 52,44.5C 49.287,48.9244 45.4536,51.0911 40.5,51C 46.3222,49.0101 50.3222,45.1768 52.5,39.5 Z"/></g>
<g><path style="opacity:1" fill="#a4a4a4" d="M 66.5,42.5 C 68.966,46.3043 72.2993,48.971 76.5,50.5C 76.2648,51.0967 75.7648,51.4301 75,51.5C 68.7534,49.5981 65.0868,45.5981 64,39.5C 64.8518,40.5707 65.6851,41.5707 66.5,42.5 Z"/></g>
<g><path style="opacity:1" fill="#3b3b3b" d="M 67.5,41.5 C 72.3207,48.4043 78.9873,51.2377 87.5,50C 88.4601,53.73 88.7935,57.5633 88.5,61.5C 85.1667,61.5 81.8333,61.5 78.5,61.5C 78.4431,60.391 78.1098,59.391 77.5,58.5C 77.5,56.8333 77.5,55.1667 77.5,53.5C 79.129,51.8041 78.7957,50.8041 76.5,50.5C 72.2993,48.971 68.966,46.3043 66.5,42.5C 66.5,41.8333 66.8333,41.5 67.5,41.5 Z"/></g>
<g><path style="opacity:1" fill="#c2c2c2" d="M 106.5,44.5 C 108.03,47.6952 108.696,51.1952 108.5,55C 108.497,57.6903 108.164,60.1903 107.5,62.5C 107.64,56.4638 107.307,50.4638 106.5,44.5 Z"/></g>
<g><path style="opacity:1" fill="#ababab" d="M 31.5,52.5 C 31.5,54.5 31.5,56.5 31.5,58.5C 33.1667,58.5 34.8333,58.5 36.5,58.5C 36.5,56.8333 36.5,55.1667 36.5,53.5C 35.209,53.7373 34.209,53.404 33.5,52.5C 34.8333,52.5 36.1667,52.5 37.5,52.5C 37.5,54.8333 37.5,57.1667 37.5,59.5C 35.1667,59.5 32.8333,59.5 30.5,59.5C 30.1984,56.9407 30.5318,54.6074 31.5,52.5 Z"/></g>
<g><path style="opacity:1" fill="#f9f9f9" d="M 31.5,52.5 C 32.1667,52.5 32.8333,52.5 33.5,52.5C 34.209,53.404 35.209,53.7373 36.5,53.5C 36.5,55.1667 36.5,56.8333 36.5,58.5C 34.8333,58.5 33.1667,58.5 31.5,58.5C 31.5,56.5 31.5,54.5 31.5,52.5 Z"/></g>
<g><path style="opacity:1" fill="#b0b0b0" d="M 83.5,52.5 C 82.791,53.404 81.791,53.7373 80.5,53.5C 80.5,55.1667 80.5,56.8333 80.5,58.5C 82.1667,58.5 83.8333,58.5 85.5,58.5C 85.5,56.5 85.5,54.5 85.5,52.5C 86.4682,54.6074 86.8016,56.9407 86.5,59.5C 84.1667,59.5 81.8333,59.5 79.5,59.5C 79.5,57.1667 79.5,54.8333 79.5,52.5C 80.8333,52.5 82.1667,52.5 83.5,52.5 Z"/></g>
<g><path style="opacity:1" fill="#f9f9f9" d="M 83.5,52.5 C 84.1667,52.5 84.8333,52.5 85.5,52.5C 85.5,54.5 85.5,56.5 85.5,58.5C 83.8333,58.5 82.1667,58.5 80.5,58.5C 80.5,56.8333 80.5,55.1667 80.5,53.5C 81.791,53.7373 82.791,53.404 83.5,52.5 Z"/></g>
<g><path style="opacity:1" fill="#4c4c4c" d="M 39.5,58.5 C 49.2125,59.5457 54.5458,64.879 55.5,74.5C 57.1667,74.5 58.8333,74.5 60.5,74.5C 58.3926,75.4682 56.0593,75.8016 53.5,75.5C 53.1826,78.5719 53.5159,81.5719 54.5,84.5C 55.1067,84.3764 55.44,84.0431 55.5,83.5C 57.5,83.5 59.5,83.5 61.5,83.5C 61.5,81.5 61.5,79.5 61.5,77.5C 62.3138,79.631 62.8138,81.9644 63,84.5C 63.1862,81.9644 63.6862,79.631 64.5,77.5C 64.5,80.1667 64.5,82.8333 64.5,85.5C 60.5,85.5 56.5,85.5 52.5,85.5C 53.9993,73.3503 48.9993,65.3503 37.5,61.5C 39.0481,61.1788 39.7148,60.1788 39.5,58.5 Z"/></g>
<g><path style="opacity:1" fill="#a9a9a9" d="M 41.5,61.5 C 41.7352,60.9033 42.2352,60.5699 43,60.5C 45.3899,61.2779 47.5566,62.4445 49.5,64C 51.3318,65.4886 52.1652,67.322 52,69.5C 49.1915,65.8497 45.6915,63.183 41.5,61.5 Z"/></g>
<g><path style="opacity:1" fill="#b4b4b4" d="M 68.5,66.5 C 66.684,68.1184 65.3507,70.1184 64.5,72.5C 63.3789,70.9106 63.5456,69.2439 65,67.5C 66.8333,65.6667 68.6667,63.8333 70.5,62C 72.3646,60.6986 74.3646,60.3653 76.5,61C 73.2444,62.116 70.5777,63.9493 68.5,66.5 Z"/></g>
<g><path style="opacity:1" fill="#484848" d="M 77.5,58.5 C 78.1098,59.391 78.4431,60.391 78.5,61.5C 75.3649,63.2387 72.3649,65.2387 69.5,67.5C 69.5,66.8333 69.1667,66.5 68.5,66.5C 70.5777,63.9493 73.2444,62.116 76.5,61C 74.3646,60.3653 72.3646,60.6986 70.5,62C 68.6667,63.8333 66.8333,65.6667 65,67.5C 63.5456,69.2439 63.3789,70.9106 64.5,72.5C 63.5384,74.9856 62.7051,74.9856 62,72.5C 61.7216,73.4158 61.2216,74.0825 60.5,74.5C 61.176,68.3042 64.176,63.4709 69.5,60C 72.0135,58.7475 74.6802,58.2475 77.5,58.5 Z"/></g>
<g><path style="opacity:1" fill="#282828" d="M 68.5,66.5 C 69.1667,66.5 69.5,66.8333 69.5,67.5C 66.7814,70.2704 65.1148,73.6037 64.5,77.5C 63.6862,79.631 63.1862,81.9644 63,84.5C 62.8138,81.9644 62.3138,79.631 61.5,77.5C 59.7354,76.5386 57.7354,76.2053 55.5,76.5C 55.5,78.8333 55.5,81.1667 55.5,83.5C 55.44,84.0431 55.1067,84.3764 54.5,84.5C 53.5159,81.5719 53.1826,78.5719 53.5,75.5C 56.0593,75.8016 58.3926,75.4682 60.5,74.5C 61.2216,74.0825 61.7216,73.4158 62,72.5C 62.7051,74.9856 63.5384,74.9856 64.5,72.5C 65.3507,70.1184 66.684,68.1184 68.5,66.5 Z"/></g>
<g><path style="opacity:1" fill="#dedede" d="M 61.5,77.5 C 61.5,79.5 61.5,81.5 61.5,83.5C 59.5,83.5 57.5,83.5 55.5,83.5C 55.5,81.1667 55.5,78.8333 55.5,76.5C 57.7354,76.2053 59.7354,76.5386 61.5,77.5 Z"/></g>
<g><path style="opacity:1" fill="#3b3b3b" d="M 11.5,162.5 C 42.8333,162.5 74.1667,162.5 105.5,162.5C 105.068,163.71 104.401,164.71 103.5,165.5C 73.6695,164.336 43.6695,164.169 13.5,165C 20.036,171.369 26.3694,177.869 32.5,184.5C 31.8333,184.5 31.5,184.833 31.5,185.5C 30.8333,185.167 30.1667,184.833 29.5,184.5C 23.1667,177.833 16.8333,171.167 10.5,164.5C 12.6977,164.591 13.0311,163.925 11.5,162.5 Z"/></g>
<g><path style="opacity:1" fill="#f8f8f8" d="M 103.5,165.5 C 97.6205,171.878 91.6205,178.045 85.5,184C 67.8365,184.5 50.1698,184.667 32.5,184.5C 26.3694,177.869 20.036,171.369 13.5,165C 43.6695,164.169 73.6695,164.336 103.5,165.5 Z"/></g>
<g><path style="opacity:1" fill="#fdfdfd" d="M 34.5,187.5 C 50.5,186.167 66.5,186.167 82.5,187.5C 81.6913,197.423 81.1913,207.423 81,217.5C 80.2086,218.745 79.7086,220.078 79.5,221.5C 65.5,221.5 51.5,221.5 37.5,221.5C 37.2914,220.078 36.7914,218.745 36,217.5C 35.8302,207.325 35.3302,197.325 34.5,187.5 Z"/></g>
<g><path style="opacity:1" fill="#d0d0d0" d="M 29.5,184.5 C 30.1667,184.833 30.8333,185.167 31.5,185.5C 32.7298,187.297 33.3964,189.297 33.5,191.5C 33.8264,200.349 33.493,209.016 32.5,217.5C 32.8315,208.475 32.4982,199.475 31.5,190.5C 30.7132,189.758 30.0465,188.925 29.5,188C 30.1712,187.014 30.1712,185.847 29.5,184.5 Z"/></g>
<g><path style="opacity:1" fill="#666666" d="M 34.5,187.5 C 35.3302,197.325 35.8302,207.325 36,217.5C 36.7914,218.745 37.2914,220.078 37.5,221.5C 35.3023,221.409 34.9689,222.075 36.5,223.5C 35.5,223.5 34.5,223.5 33.5,223.5C 33.6309,222.624 33.2975,221.957 32.5,221.5C 31.5,282.496 31.1667,343.496 31.5,404.5C 30.8334,374.002 30.5,343.335 30.5,312.5C 30.522,280.726 31.1886,249.059 32.5,217.5C 33.493,209.016 33.8264,200.349 33.5,191.5C 34.4345,190.432 34.7678,189.099 34.5,187.5 Z"/></g>
<g><path style="opacity:1" fill="#bababa" d="M 87.5,184.5 C 86.4886,186.372 85.6552,188.372 85,190.5C 84.5002,199.494 84.3336,208.494 84.5,217.5C 83.3424,208.343 83.1757,199.009 84,189.5C 84.2233,187.119 85.39,185.453 87.5,184.5 Z"/></g>
<g><path style="opacity:1" fill="#4b4b4b" d="M 37.5,221.5 C 51.5,221.5 65.5,221.5 79.5,221.5C 79.5,222.167 79.5,222.833 79.5,223.5C 65.8333,223.5 52.1667,223.5 38.5,223.5C 38.1667,222.833 37.8333,222.167 37.5,221.5 Z"/></g>
<g><path style="opacity:1" fill="#ababab" d="M 38.5,223.5 C 52.1667,223.5 65.8333,223.5 79.5,223.5C 79.8324,283.336 79.4991,343.002 78.5,402.5C 78.5,343.167 78.5,283.833 78.5,224.5C 65.1667,224.5 51.8333,224.5 38.5,224.5C 38.5,283.833 38.5,343.167 38.5,402.5C 37.1667,342.833 37.1667,283.167 38.5,223.5 Z"/></g>
<g><path style="opacity:1" fill="#fefefe" d="M 78.5,402.5 C 65.1667,402.5 51.8333,402.5 38.5,402.5C 38.5,343.167 38.5,283.833 38.5,224.5C 51.8333,224.5 65.1667,224.5 78.5,224.5C 78.5,283.833 78.5,343.167 78.5,402.5 Z"/></g>
<g><path style="opacity:1" fill="#3f3f3f" d="M 87.5,184.5 C 85.39,185.453 84.2233,187.119 84,189.5C 83.1757,199.009 83.3424,208.343 84.5,217.5C 84.9867,218.473 85.4867,219.473 86,220.5C 86.8333,281.836 86.6666,343.169 85.5,404.5C 84.265,405.34 83.265,406.34 82.5,407.5C 81.7109,407.783 81.0442,408.283 80.5,409C 65.3277,409.828 50.3277,409.661 35.5,408.5C 36.791,408.737 37.791,408.404 38.5,407.5C 52.1667,407.5 65.8333,407.5 79.5,407.5C 79.5,406.5 79.5,405.5 79.5,404.5C 65.8333,404.5 52.1667,404.5 38.5,404.5C 38.5,403.833 38.5,403.167 38.5,402.5C 51.8333,402.5 65.1667,402.5 78.5,402.5C 79.4991,343.002 79.8324,283.336 79.5,223.5C 79.5,222.833 79.5,222.167 79.5,221.5C 79.7086,220.078 80.2086,218.745 81,217.5C 81.1913,207.423 81.6913,197.423 82.5,187.5C 83.0431,187.44 83.3764,187.107 83.5,186.5C 66.8333,185.167 50.1667,185.167 33.5,186.5C 33.6236,187.107 33.9569,187.44 34.5,187.5C 34.7678,189.099 34.4345,190.432 33.5,191.5C 33.3964,189.297 32.7298,187.297 31.5,185.5C 31.5,184.833 31.8333,184.5 32.5,184.5C 50.1698,184.667 67.8365,184.5 85.5,184C 91.6205,178.045 97.6205,171.878 103.5,165.5C 104.401,164.71 105.068,163.71 105.5,162.5C 106.833,161.5 106.833,160.5 105.5,159.5C 73.8155,158.841 42.4822,159.507 11.5,161.5C 11.5,161.833 11.5,162.167 11.5,162.5C 13.0311,163.925 12.6977,164.591 10.5,164.5C 9.53178,162.393 9.19845,160.059 9.5,157.5C 42.1667,157.5 74.8333,157.5 107.5,157.5C 107.663,159.857 107.497,162.19 107,164.5C 100.297,171.035 93.7973,177.702 87.5,184.5 Z"/></g>
<g><path style="opacity:1" fill="#7a7a7a" d="M 82.5,187.5 C 66.5,186.167 50.5,186.167 34.5,187.5C 33.9569,187.44 33.6236,187.107 33.5,186.5C 50.1667,185.167 66.8333,185.167 83.5,186.5C 83.3764,187.107 83.0431,187.44 82.5,187.5 Z"/></g>
<g><path style="opacity:1" fill="#d8d8d8" d="M 105.5,159.5 C 106.833,160.5 106.833,161.5 105.5,162.5C 74.1667,162.5 42.8333,162.5 11.5,162.5C 11.5,162.167 11.5,161.833 11.5,161.5C 43.1845,162.159 74.5178,161.493 105.5,159.5 Z"/></g>
<g><path style="opacity:1" fill="#fefefe" d="M 105.5,159.5 C 74.5178,161.493 43.1845,162.159 11.5,161.5C 42.4822,159.507 73.8155,158.841 105.5,159.5 Z"/></g>
<g><path style="opacity:1" fill="#9e9e9e" d="M 83.5,402.5 C 82.8333,165.167 82.1667,165.167 81.5,402.5C 80.5009,343.002 80.1676,283.336 80.5,223.5C 81.8333,223.5 83.1667,223.5 84.5,223.5C 84.8324,283.336 84.4991,343.002 83.5,402.5 Z"/></g>
<g><path style="opacity:1" fill="#f2f2f2" d="M 83.5,402.5 C 82.8333,402.5 82.1667,402.5 81.5,402.5C 82.1667,165.167 82.8333,165.167 83.5,402.5 Z"/></g>
<g><path style="opacity:1" fill="#232323" d="M 33.5,223.5 C 32.1667,283.167 32.1667,342.833 33.5,402.5C 34.1667,402.5 34.8333,402.5 35.5,402.5C 36.4991,343.002 36.8324,283.336 36.5,223.5C 34.9689,222.075 35.3023,221.409 37.5,221.5C 37.8333,222.167 38.1667,222.833 38.5,223.5C 37.1667,283.167 37.1667,342.833 38.5,402.5C 38.5,403.167 38.5,403.833 38.5,404.5C 37.1667,405.5 37.1667,406.5 38.5,407.5C 37.791,408.404 36.791,408.737 35.5,408.5C 35.1667,407.5 34.5,406.833 33.5,406.5C 33.1667,405.5 32.5,404.833 31.5,404.5C 31.1667,343.496 31.5,282.496 32.5,221.5C 33.2975,221.957 33.6309,222.624 33.5,223.5 Z"/></g>
<g><path style="opacity:1" fill="#959595" d="M 33.5,223.5 C 34.5,223.5 35.5,223.5 36.5,223.5C 36.8324,283.336 36.4991,343.002 35.5,402.5C 34.8333,165.167 34.1667,165.167 33.5,402.5C 32.1667,342.833 32.1667,283.167 33.5,223.5 Z"/></g>
<g><path style="opacity:1" fill="#f6f6f6" d="M 35.5,402.5 C 34.8333,402.5 34.1667,402.5 33.5,402.5C 34.1667,165.167 34.8333,165.167 35.5,402.5 Z"/></g>
<g><path style="opacity:1" fill="#e2e2e2" d="M 38.5,404.5 C 52.1667,404.5 65.8333,404.5 79.5,404.5C 79.5,405.5 79.5,406.5 79.5,407.5C 65.8333,407.5 52.1667,407.5 38.5,407.5C 37.1667,406.5 37.1667,405.5 38.5,404.5 Z"/></g>
<g><path style="opacity:1" fill="#d9d9d9" d="M 33.5,406.5 C 34.5,406.833 35.1667,407.5 35.5,408.5C 50.3277,409.661 65.3277,409.828 80.5,409C 81.0442,408.283 81.7109,407.783 82.5,407.5C 82.5858,408.496 82.2524,409.329 81.5,410C 66.1222,410.182 50.7889,410.682 35.5,411.5C 34.438,409.978 33.7713,408.312 33.5,406.5 Z"/></g>
</svg>
