<?xml version="1.0" encoding="UTF-8"?>
<!DOCTYPE svg PUBLIC "-//W3C//DTD SVG 1.1//EN" "http://www.w3.org/Graphics/SVG/1.1/DTD/svg11.dtd">
<svg xmlns="http://www.w3.org/2000/svg" version="1.1" width="120px" height="416px" style="shape-rendering:geometricPrecision; text-rendering:geometricPrecision; image-rendering:optimizeQuality; fill-rule:evenodd; clip-rule:evenodd" xmlns:xlink="http://www.w3.org/1999/xlink">
<g><path style="opacity:1" fill="#fcfcfc" d="M -0.5,-0.5 C 39.5,-0.5 79.5,-0.5 119.5,-0.5C 119.5,138.167 119.5,276.833 119.5,415.5C 79.5,415.5 39.5,415.5 -0.5,415.5C -0.5,276.833 -0.5,138.167 -0.5,-0.5 Z"/></g>
<g><path style="opacity:1" fill="#383838" d="M 52.5,5.5 C 89.5662,5.40348 108.733,23.7368 110,60.5C 107.02,82.153 95.1871,96.653 74.5,104C 43.415,109.881 22.5817,98.0481 12,68.5C 7.10281,35.5807 20.6028,14.5807 52.5,5.5 Z"/></g>
<g><path style="opacity:1" fill="#f9f9f9" d="M 53.5,7.5 C 82.0201,6.83414 100.187,20.1675 108,47.5C 109.895,76.919 96.7283,95.419 68.5,103C 39.3525,105.52 20.8525,92.6863 13,64.5C 10.4853,33.8817 23.9853,14.8817 53.5,7.5 Z"/></g>
<g><path style="opacity:1" fill="#b3b3b3" d="M 89.5,61.5 C 85.2269,62.2542 80.8935,63.2542 76.5,64.5C 77.347,63.0337 78.6803,62.2004 80.5,62C 83.4816,61.502 86.4816,61.3354 89.5,61.5 Z"/></g>
<g><path style="opacity:1" fill="#434343" d="M 41.5,58.5 C 51.2125,59.5457 56.5458,64.879 57.5,74.5C 56.609,75.1098 55.609,75.4431 54.5,75.5C 51.3435,68.3434 46.0102,63.6768 38.5,61.5C 40.1436,61.1898 41.1436,60.1898 41.5,58.5 Z"/></g>
<g><path style="opacity:1" fill="#a4a4a4" d="M 42.5,61.5 C 42.9169,60.8761 43.5836,60.5427 44.5,60.5C 50.8898,62.7028 54.3898,67.0362 55,73.5C 52.2833,67.9492 48.1166,63.9492 42.5,61.5 Z"/></g>
<g><path style="opacity:1" fill="#232323" d="M 30.5,50.5 C 33.5184,50.3354 36.5184,50.502 39.5,51C 36.9644,51.1862 34.631,51.6862 32.5,52.5C 31.5318,54.6074 31.1984,56.9407 31.5,59.5C 34.0593,59.8016 36.3926,59.4682 38.5,58.5C 39.1667,56.8333 39.8333,55.1667 40.5,53.5C 40.2155,55.4147 40.5489,57.0813 41.5,58.5C 41.1436,60.1898 40.1436,61.1898 38.5,61.5C 35.8333,61.5 33.1667,61.5 30.5,61.5C 30.5,57.8333 30.5,54.1667 30.5,50.5 Z"/></g>
<g><path style="opacity:1" fill="#7f7f7f" d="M 32.5,52.5 C 32.5,54.5 32.5,56.5 32.5,58.5C 34.5,58.5 36.5,58.5 38.5,58.5C 36.3926,59.4682 34.0593,59.8016 31.5,59.5C 31.1984,56.9407 31.5318,54.6074 32.5,52.5 Z"/></g>
<g><path style="opacity:1" fill="#f6f6f6" d="M 32.5,52.5 C 34.5,52.8333 36.5,53.1667 38.5,53.5C 38.5,55.1667 38.5,56.8333 38.5,58.5C 36.5,58.5 34.5,58.5 32.5,58.5C 32.5,56.5 32.5,54.5 32.5,52.5 Z"/></g>
<g><path style="opacity:1" fill="#f4f4f4" d="M 57.5,74.5 C 56.5458,64.879 51.2125,59.5457 41.5,58.5C 40.5489,57.0813 40.2155,55.4147 40.5,53.5C 50.5255,52.1412 56.1922,46.4745 57.5,36.5C 59.5,36.5 61.5,36.5 63.5,36.5C 64.0295,46.696 69.3628,52.3626 79.5,53.5C 79.5,55.1667 79.5,56.8333 79.5,58.5C 76.6802,58.2475 74.0135,58.7475 71.5,60C 66.176,63.4709 63.176,68.3042 62.5,74.5C 60.8333,74.5 59.1667,74.5 57.5,74.5 Z"/></g>
<g><path style="opacity:1" fill="#3e3e3e" d="M 89.5,61.5 C 86.4816,61.3354 83.4816,61.502 80.5,62C 78.6803,62.2004 77.347,63.0337 76.5,64.5C 68.3422,69.149 64.6755,76.149 65.5,85.5C 65.6646,82.4816 65.498,79.4816 65,76.5C 64.8138,79.0356 64.3138,81.369 63.5,83.5C 63.702,81.0504 63.3686,78.717 62.5,76.5C 60.8333,75.8333 59.1667,75.1667 57.5,74.5C 59.1667,74.5 60.8333,74.5 62.5,74.5C 63.176,68.3042 66.176,63.4709 71.5,60C 74.0135,58.7475 76.6802,58.2475 79.5,58.5C 79.5,56.8333 79.5,55.1667 79.5,53.5C 69.3628,52.3626 64.0295,46.696 63.5,36.5C 61.5,36.5 59.5,36.5 57.5,36.5C 56.1922,46.4745 50.5255,52.1412 40.5,53.5C 39.8333,55.1667 39.1667,56.8333 38.5,58.5C 38.5,56.8333 38.5,55.1667 38.5,53.5C 36.5,53.1667 34.5,52.8333 32.5,52.5C 34.631,51.6862 36.9644,51.1862 39.5,51C 36.5184,50.502 33.5184,50.3354 30.5,50.5C 46.6454,50.0208 54.6454,41.6874 54.5,25.5C 58.4367,25.2065 62.27,25.5399 66,26.5C 65.9492,42.9498 74.1159,50.6164 90.5,49.5C 90.8168,53.7016 90.4834,57.7016 89.5,61.5 Z"/></g>
<g><path style="opacity:1" fill="#b2b2b2" d="M 74.5,60.5 C 75.8734,60.3433 77.2068,60.51 78.5,61C 72.7284,63.1055 68.5617,66.9389 66,72.5C 65.2619,69.788 65.9286,67.4547 68,65.5C 70.352,63.9697 72.5187,62.3031 74.5,60.5 Z"/></g>
<g><path style="opacity:1" fill="#b4b4b4" d="M 85.5,52.5 C 84.791,53.404 83.791,53.7373 82.5,53.5C 82.5,55.1667 82.5,56.8333 82.5,58.5C 84.1667,58.5 85.8333,58.5 87.5,58.5C 87.5,56.5 87.5,54.5 87.5,52.5C 88.4682,54.6074 88.8016,56.9407 88.5,59.5C 86.1667,59.5 83.8333,59.5 81.5,59.5C 81.5,57.1667 81.5,54.8333 81.5,52.5C 82.8333,52.5 84.1667,52.5 85.5,52.5 Z"/></g>
<g><path style="opacity:1" fill="#f9f9f9" d="M 85.5,52.5 C 86.1667,52.5 86.8333,52.5 87.5,52.5C 87.5,54.5 87.5,56.5 87.5,58.5C 85.8333,58.5 84.1667,58.5 82.5,58.5C 82.5,56.8333 82.5,55.1667 82.5,53.5C 83.791,53.7373 84.791,53.404 85.5,52.5 Z"/></g>
<g><path style="opacity:1" fill="#a4a4a4" d="M 64.5,36.5 C 67.5642,42.7335 72.2309,47.5669 78.5,51C 70.3498,49.6813 65.6831,44.848 64.5,36.5 Z"/></g>
<g><path style="opacity:1" fill="#b2b2b2" d="M 54.5,38.5 C 55.5735,39.2506 55.7401,40.2506 55,41.5C 53.0683,44.8844 50.5683,47.7177 47.5,50C 46.1667,50.6667 44.8333,50.6667 43.5,50C 48.7189,47.6152 52.3856,43.7818 54.5,38.5 Z"/></g>
<g><path style="opacity:1" fill="#e1e1e1" d="M 56.5,27.5 C 58.8333,27.5 61.1667,27.5 63.5,27.5C 63.5,29.8333 63.5,32.1667 63.5,34.5C 57.5,35.8333 55.1667,33.5 56.5,27.5 Z"/></g>
<g><path style="opacity:1" fill="#222222" d="M 57.5,74.5 C 59.1667,75.1667 60.8333,75.8333 62.5,76.5C 60.5853,76.2155 58.9187,76.5489 57.5,77.5C 56.5318,79.6074 56.1984,81.9407 56.5,84.5C 59.0593,84.8016 61.3926,84.4682 63.5,83.5C 64.3138,81.369 64.8138,79.0356 65,76.5C 65.498,79.4816 65.6646,82.4816 65.5,85.5C 61.8333,85.5 58.1667,85.5 54.5,85.5C 54.5,82.1667 54.5,78.8333 54.5,75.5C 55.609,75.4431 56.609,75.1098 57.5,74.5 Z"/></g>
<g><path style="opacity:1" fill="#777777" d="M 57.5,77.5 C 57.5,79.5 57.5,81.5 57.5,83.5C 59.5,83.5 61.5,83.5 63.5,83.5C 61.3926,84.4682 59.0593,84.8016 56.5,84.5C 56.1984,81.9407 56.5318,79.6074 57.5,77.5 Z"/></g>
<g><path style="opacity:1" fill="#ededed" d="M 62.5,76.5 C 63.3686,78.717 63.702,81.0504 63.5,83.5C 61.5,83.5 59.5,83.5 57.5,83.5C 57.5,81.5 57.5,79.5 57.5,77.5C 58.9187,76.5489 60.5853,76.2155 62.5,76.5 Z"/></g>
<g><path style="opacity:1" fill="#727272" d="M 41.5,146.5 C 42.5676,145.566 43.901,145.232 45.5,145.5C 47.8333,146.167 50.1667,146.833 52.5,147.5C 49.8333,147.5 47.1667,147.5 44.5,147.5C 43.791,146.596 42.791,146.263 41.5,146.5 Z"/></g>
<g><path style="opacity:1" fill="#272727" d="M 45.5,145.5 C 48.8499,145.335 52.1832,145.502 55.5,146C 56.5448,147.526 58.0448,148.359 60,148.5C 66.8707,145.059 74.0374,144.559 81.5,147C 92.1911,149.595 101.691,154.429 110,161.5C 110.667,164.5 110.667,167.5 110,170.5C 101.264,178.566 93.2641,187.233 86,196.5C 85.5006,201.823 85.334,207.156 85.5,212.5C 84.4843,208.239 84.151,202.572 84.5,195.5C 84.5,195.167 84.5,194.833 84.5,194.5C 85.0431,194.44 85.3764,194.107 85.5,193.5C 68.6714,192.173 52.0048,192.173 35.5,193.5C 35.5,193.833 35.5,194.167 35.5,194.5C 35.7373,195.791 35.404,196.791 34.5,197.5C 34.2041,195.597 33.5375,193.93 32.5,192.5C 50.8333,191.833 69.1667,191.167 87.5,190.5C 93.5428,184.491 99.5428,178.491 105.5,172.5C 106.043,172.44 106.376,172.107 106.5,171.5C 75.8406,170.5 45.1739,170.167 14.5,170.5C 13.609,171.11 12.609,171.443 11.5,171.5C 9.23422,165.733 10.5676,160.9 15.5,157C 23.3865,151.556 32.0531,148.056 41.5,146.5C 42.791,146.263 43.791,146.596 44.5,147.5C 33.2134,149.81 22.8801,154.31 13.5,161C 12.7476,161.671 12.4142,162.504 12.5,163.5C 44.3359,164.83 76.3359,164.83 108.5,163.5C 108.376,162.893 108.043,162.56 107.5,162.5C 101.435,156.971 94.4347,152.804 86.5,150C 81.772,148.535 76.9387,147.701 72,147.5C 69.3897,147.533 67.223,148.2 65.5,149.5C 61.7307,149.756 58.0641,149.423 54.5,148.5C 54.1583,147.662 53.4916,147.328 52.5,147.5C 50.1667,146.833 47.8333,146.167 45.5,145.5 Z"/></g>
<g><path style="opacity:1" fill="#a6a6a6" d="M 108.5,166.5 C -19.5,167.167 -19.5,167.833 108.5,168.5C 76.3376,169.498 44.0043,169.832 11.5,169.5C 11.5,168.167 11.5,166.833 11.5,165.5C 44.0043,165.168 76.3376,165.502 108.5,166.5 Z"/></g>
<g><path style="opacity:1" fill="#f5f5f5" d="M 108.5,166.5 C 108.5,167.167 108.5,167.833 108.5,168.5C -19.5,167.833 -19.5,167.167 108.5,166.5 Z"/></g>
<g><path style="opacity:1" fill="#747474" d="M 107.5,162.5 C 108.043,162.56 108.376,162.893 108.5,163.5C 76.3359,164.83 44.3359,164.83 12.5,163.5C 44.3377,163.832 76.0044,163.498 107.5,162.5 Z"/></g>
<g><path style="opacity:1" fill="#f9f9f9" d="M 44.5,147.5 C 47.1667,147.5 49.8333,147.5 52.5,147.5C 53.4916,147.328 54.1583,147.662 54.5,148.5C 55.8714,149.787 57.7047,150.453 60,150.5C 62.0326,150.494 63.866,150.161 65.5,149.5C 67.223,148.2 69.3897,147.533 72,147.5C 76.9387,147.701 81.772,148.535 86.5,150C 94.4347,152.804 101.435,156.971 107.5,162.5C 76.0044,163.498 44.3377,163.832 12.5,163.5C 12.4142,162.504 12.7476,161.671 13.5,161C 22.8801,154.31 33.2134,149.81 44.5,147.5 Z"/></g>
<g><path style="opacity:1" fill="#9f9f9f" d="M 54.5,148.5 C 58.0641,149.423 61.7307,149.756 65.5,149.5C 63.866,150.161 62.0326,150.494 60,150.5C 57.7047,150.453 55.8714,149.787 54.5,148.5 Z"/></g>
<g><path style="opacity:1" fill="#a1a1a1" d="M 14.5,170.5 C 45.1739,170.167 75.8406,170.5 106.5,171.5C 106.376,172.107 106.043,172.44 105.5,172.5C 75.5,171.167 45.5,171.167 15.5,172.5C 14.6618,172.158 14.3284,171.492 14.5,170.5 Z"/></g>
<g><path style="opacity:1" fill="#fbfbfb" d="M 105.5,172.5 C 99.5428,178.491 93.5428,184.491 87.5,190.5C 69.1636,190.667 50.8303,190.5 32.5,190C 26.6304,184.298 20.9638,178.465 15.5,172.5C 45.5,171.167 75.5,171.167 105.5,172.5 Z"/></g>
<g><path style="opacity:1" fill="#575757" d="M 14.5,170.5 C 14.3284,171.492 14.6618,172.158 15.5,172.5C 20.9638,178.465 26.6304,184.298 32.5,190C 50.8303,190.5 69.1636,190.667 87.5,190.5C 69.1667,191.167 50.8333,191.833 32.5,192.5C 25.1667,185.833 18.1667,178.833 11.5,171.5C 12.609,171.443 13.609,171.11 14.5,170.5 Z"/></g>
<g><path style="opacity:1" fill="#9c9c9c" d="M 35.5,193.5 C 52.0048,192.173 68.6714,192.173 85.5,193.5C 85.3764,194.107 85.0431,194.44 84.5,194.5C 68.3419,193.504 52.0085,193.17 35.5,193.5 Z"/></g>
<g><path style="opacity:1" fill="#fdfdfd" d="M 35.5,194.5 C 35.5,194.167 35.5,193.833 35.5,193.5C 52.0085,193.17 68.3419,193.504 84.5,194.5C 84.5,194.833 84.5,195.167 84.5,195.5C 83.7611,202.034 83.0944,208.701 82.5,215.5C 67.9116,216.483 53.245,216.816 38.5,216.5C 36.7014,210.684 36.0347,204.684 36.5,198.5C 36.7678,196.901 36.4345,195.568 35.5,194.5 Z"/></g>
<g><path style="opacity:1" fill="#6e6e6e" d="M 35.5,194.5 C 36.4345,195.568 36.7678,196.901 36.5,198.5C 35.8333,203.167 35.1667,207.833 34.5,212.5C 34.5,207.5 34.5,202.5 34.5,197.5C 35.404,196.791 35.7373,195.791 35.5,194.5 Z"/></g>
<g><path style="opacity:1" fill="#bababa" d="M 82.5,215.5 C 68.2048,217.483 53.5381,218.15 38.5,217.5C 38.5,217.167 38.5,216.833 38.5,216.5C 53.245,216.816 67.9116,216.483 82.5,215.5 Z"/></g>
<g><path style="opacity:1" fill="#4e4e4e" d="M 84.5,195.5 C 84.151,202.572 84.4843,208.239 85.5,212.5C 86.1667,212.5 86.5,212.833 86.5,213.5C 85.9935,214.859 84.9935,215.859 83.5,216.5C 84.6507,217.731 85.8173,217.731 87,216.5C 87.5,278.832 87.6667,341.166 87.5,403.5C 86.3259,405.441 84.6592,406.941 82.5,408C 66.9945,408.828 51.6611,408.661 36.5,407.5C 37.791,407.737 38.791,407.404 39.5,406.5C 53.5,406.5 67.5,406.5 81.5,406.5C 81.5,405.5 81.5,404.5 81.5,403.5C 67.5,403.5 53.5,403.5 39.5,403.5C 39.5,402.833 39.5,402.167 39.5,401.5C 38.5009,340.336 38.1676,279.002 38.5,217.5C 53.5381,218.15 68.2048,217.483 82.5,215.5C 83.0944,208.701 83.7611,202.034 84.5,195.5 Z"/></g>
<g><path style="opacity:1" fill="#fcfcfc" d="M 39.5,401.5 C 39.5,340.833 39.5,280.167 39.5,219.5C 53.5,219.5 67.5,219.5 81.5,219.5C 81.5,280.167 81.5,340.833 81.5,401.5C 67.5,401.5 53.5,401.5 39.5,401.5 Z"/></g>
<g><path style="opacity:1" fill="#e5e5e5" d="M 83.5,219.5 C 84.5,219.5 85.5,219.5 86.5,219.5C 86.5,280.167 86.5,340.833 86.5,401.5C 85.5,401.5 84.5,401.5 83.5,401.5C 83.5,340.833 83.5,280.167 83.5,219.5 Z"/></g>
<g><path style="opacity:1" fill="#383838" d="M 36.5,198.5 C 36.0347,204.684 36.7014,210.684 38.5,216.5C 38.5,216.833 38.5,217.167 38.5,217.5C 38.1676,279.002 38.5009,340.336 39.5,401.5C 39.5,402.167 39.5,402.833 39.5,403.5C 39.5,404.5 39.5,405.5 39.5,406.5C 38.791,407.404 37.791,407.737 36.5,407.5C 35.5423,406.038 34.3756,404.705 33,403.5C 32.3333,341.167 32.3333,278.833 33,216.5C 33.4101,215.099 33.9101,213.766 34.5,212.5C 35.1667,207.833 35.8333,203.167 36.5,198.5 Z"/></g>
<g><path style="opacity:1" fill="#eaeaea" d="M 34.5,219.5 C 35.5,219.5 36.5,219.5 37.5,219.5C 37.5,280.167 37.5,340.833 37.5,401.5C 36.5,401.5 35.5,401.5 34.5,401.5C 34.5,340.833 34.5,280.167 34.5,219.5 Z"/></g>
<g><path style="opacity:1" fill="#646464" d="M 86.5,213.5 C 87.2216,213.918 87.7216,214.584 88,215.5C 88.832,278.335 88.6653,341.001 87.5,403.5C 87.6667,341.166 87.5,278.832 87,216.5C 85.8173,217.731 84.6507,217.731 83.5,216.5C 84.9935,215.859 85.9935,214.859 86.5,213.5 Z"/></g>
<g><path style="opacity:1" fill="#e5e5e5" d="M 39.5,403.5 C 53.5,403.5 67.5,403.5 81.5,403.5C 81.5,404.5 81.5,405.5 81.5,406.5C 67.5,406.5 53.5,406.5 39.5,406.5C 39.5,405.5 39.5,404.5 39.5,403.5 Z"/></g>
</svg>
