<?xml version="1.0" encoding="UTF-8"?>
<!DOCTYPE svg PUBLIC "-//W3C//DTD SVG 1.1//EN" "http://www.w3.org/Graphics/SVG/1.1/DTD/svg11.dtd">
<svg xmlns="http://www.w3.org/2000/svg" version="1.1" width="192px" height="755px" style="shape-rendering:geometricPrecision; text-rendering:geometricPrecision; image-rendering:optimizeQuality; fill-rule:evenodd; clip-rule:evenodd" xmlns:xlink="http://www.w3.org/1999/xlink">
<g><path style="opacity:1" fill="#fdfdfd" d="M -0.5,-0.5 C 63.5,-0.5 127.5,-0.5 191.5,-0.5C 191.5,251.167 191.5,502.833 191.5,754.5C 127.5,754.5 63.5,754.5 -0.5,754.5C -0.5,502.833 -0.5,251.167 -0.5,-0.5 Z"/></g>
<g><path style="opacity:1" fill="#0f0f0f" d="M 86.5,10.5 C 86.5,18.5 86.5,26.5 86.5,34.5C 93.1667,34.5 99.8333,34.5 106.5,34.5C 106.5,26.5 106.5,18.5 106.5,10.5C 131.5,10.5 156.5,10.5 181.5,10.5C 182.99,17.3469 180.99,22.6802 175.5,26.5C 174.167,26.5 172.833,26.5 171.5,26.5C 171.5,26.1667 171.5,25.8333 171.5,25.5C 172.5,25.1667 173.167,24.5 173.5,23.5C 174.043,23.44 174.376,23.1067 174.5,22.5C 152.67,21.1717 131.004,21.1717 109.5,22.5C 109.819,27.3633 109.486,32.03 108.5,36.5C 100.167,36.5 91.8333,36.5 83.5,36.5C 83.8195,31.6367 83.4861,26.97 82.5,22.5C 61.0064,21.5027 39.3398,21.1693 17.5,21.5C 16.7777,22.5511 15.7777,23.2178 14.5,23.5C 13.5416,23.0472 12.7083,22.3805 12,21.5C 11.5014,17.8484 11.3347,14.1817 11.5,10.5C 36.5,10.5 61.5,10.5 86.5,10.5 Z"/></g>
<g><path style="opacity:1" fill="#a2a2a2" d="M 177.5,14.5 C 177.167,14.5 176.833,14.5 176.5,14.5C 154.5,14.5 132.5,14.5 110.5,14.5C 110.5,15.5 110.5,16.5 110.5,17.5C 132.66,18.4974 154.994,18.8308 177.5,18.5C 155.006,19.4975 132.339,19.8308 109.5,19.5C 109.5,17.5 109.5,15.5 109.5,13.5C 132.339,13.1692 155.006,13.5025 177.5,14.5 Z"/></g>
<g><path style="opacity:1" fill="#fefefe" d="M 176.5,14.5 C 176.5,15.5 176.5,16.5 176.5,17.5C 154.5,17.5 132.5,17.5 110.5,17.5C 110.5,16.5 110.5,15.5 110.5,14.5C 132.5,14.5 154.5,14.5 176.5,14.5 Z"/></g>
<g><path style="opacity:1" fill="#e0e0e0" d="M 176.5,14.5 C 176.833,14.5 177.167,14.5 177.5,14.5C 177.5,15.8333 177.5,17.1667 177.5,18.5C 154.994,18.8308 132.66,18.4974 110.5,17.5C 132.5,17.5 154.5,17.5 176.5,17.5C 176.5,16.5 176.5,15.5 176.5,14.5 Z"/></g>
<g><path style="opacity:1" fill="#686868" d="M 15.5,13.5 C 15.5,13.8333 15.5,14.1667 15.5,14.5C 15.5,15.5 15.5,16.5 15.5,17.5C 37.6604,18.4974 59.9938,18.8308 82.5,18.5C 82.5,16.8333 82.5,15.1667 82.5,13.5C 83.4614,15.2646 83.7947,17.2646 83.5,19.5C 60.5,19.5 37.5,19.5 14.5,19.5C 14.2053,17.2646 14.5386,15.2646 15.5,13.5 Z"/></g>
<g><path style="opacity:1" fill="#d7d7d7" d="M 15.5,14.5 C 15.5,14.1667 15.5,13.8333 15.5,13.5C 37.8333,13.5 60.1667,13.5 82.5,13.5C 82.5,15.1667 82.5,16.8333 82.5,18.5C 59.9938,18.8308 37.6604,18.4974 15.5,17.5C 37.5,17.5 59.5,17.5 81.5,17.5C 81.5,16.5 81.5,15.5 81.5,14.5C 59.5,14.5 37.5,14.5 15.5,14.5 Z"/></g>
<g><path style="opacity:1" fill="#fefefe" d="M 15.5,14.5 C 37.5,14.5 59.5,14.5 81.5,14.5C 81.5,15.5 81.5,16.5 81.5,17.5C 59.5,17.5 37.5,17.5 15.5,17.5C 15.5,16.5 15.5,15.5 15.5,14.5 Z"/></g>
<g><path style="opacity:1" fill="#505050" d="M 17.5,21.5 C 39.3398,21.1693 61.0064,21.5027 82.5,22.5C 60.9935,22.1694 39.6601,22.5027 18.5,23.5C 17.6618,23.1583 17.3284,22.4916 17.5,21.5 Z"/></g>
<g><path style="opacity:1" fill="#505050" d="M 109.5,22.5 C 131.004,21.1717 152.67,21.1717 174.5,22.5C 174.376,23.1067 174.043,23.44 173.5,23.5C 152.34,22.5027 131.007,22.1694 109.5,22.5 Z"/></g>
<g><path style="opacity:1" fill="#d0d0d0" d="M 82.5,22.5 C 82.5,22.8333 82.5,23.1667 82.5,23.5C 61.8306,23.3334 41.164,23.5 20.5,24C 25.7659,28.7587 30.4325,33.9254 34.5,39.5C 28.8333,34.5 23.5,29.1667 18.5,23.5C 39.6601,22.5027 60.9935,22.1694 82.5,22.5 Z"/></g>
<g><path style="opacity:1" fill="#d4d4d4" d="M 109.5,22.5 C 131.007,22.1694 152.34,22.5027 173.5,23.5C 173.167,24.5 172.5,25.1667 171.5,25.5C 151.527,23.5117 131.194,22.8451 110.5,23.5C 111.103,28.6186 110.436,33.2853 108.5,37.5C 108.5,37.1667 108.5,36.8333 108.5,36.5C 109.486,32.03 109.819,27.3633 109.5,22.5 Z"/></g>
<g><path style="opacity:1" fill="#fcfcfc" d="M 82.5,23.5 C 82.5,28.1667 82.5,32.8333 82.5,37.5C 91.1667,37.5 99.8333,37.5 108.5,37.5C 110.436,33.2853 111.103,28.6186 110.5,23.5C 131.194,22.8451 151.527,23.5117 171.5,25.5C 171.5,25.8333 171.5,26.1667 171.5,26.5C 163.833,33.5 156.5,40.8333 149.5,48.5C 147.142,50.5293 144.808,52.5293 142.5,54.5C 111.123,54.8184 79.7897,54.485 48.5,53.5C 43.5,49.1667 38.8333,44.5 34.5,39.5C 30.4325,33.9254 25.7659,28.7587 20.5,24C 41.164,23.5 61.8306,23.3334 82.5,23.5 Z"/></g>
<g><path style="opacity:1" fill="#202020" d="M 171.5,26.5 C 172.833,26.5 174.167,26.5 175.5,26.5C 167.779,34.8875 159.779,42.8875 151.5,50.5C 151.167,49.5 150.5,48.8333 149.5,48.5C 156.5,40.8333 163.833,33.5 171.5,26.5 Z"/></g>
<g><path style="opacity:1" fill="#6b6b6b" d="M 86.5,10.5 C 87.1667,10.5 87.5,10.8333 87.5,11.5C 87.5,18.8333 87.5,26.1667 87.5,33.5C 93.5,33.5 99.5,33.5 105.5,33.5C 105.5,26.1667 105.5,18.8333 105.5,11.5C 105.5,10.8333 105.833,10.5 106.5,10.5C 106.5,18.5 106.5,26.5 106.5,34.5C 99.8333,34.5 93.1667,34.5 86.5,34.5C 86.5,26.5 86.5,18.5 86.5,10.5 Z"/></g>
<g><path style="opacity:1" fill="#e0e0e0" d="M 87.5,11.5 C 88.4912,18.3134 88.8245,25.3134 88.5,32.5C 93.8333,32.5 99.1667,32.5 104.5,32.5C 104.175,25.3134 104.509,18.3134 105.5,11.5C 105.5,18.8333 105.5,26.1667 105.5,33.5C 99.5,33.5 93.5,33.5 87.5,33.5C 87.5,26.1667 87.5,18.8333 87.5,11.5 Z"/></g>
<g><path style="opacity:1" fill="#1c1c1c" d="M 17.5,21.5 C 17.3284,22.4916 17.6618,23.1583 18.5,23.5C 23.5,29.1667 28.8333,34.5 34.5,39.5C 38.8333,44.5 43.5,49.1667 48.5,53.5C 48.5,53.8333 48.5,54.1667 48.5,54.5C 47.5084,54.3284 46.8417,54.6618 46.5,55.5C 35.5,45.1667 24.8333,34.5 14.5,23.5C 15.7777,23.2178 16.7777,22.5511 17.5,21.5 Z"/></g>
<g><path style="opacity:1" fill="#555555" d="M 82.5,22.5 C 83.4861,26.97 83.8195,31.6367 83.5,36.5C 91.8333,36.5 100.167,36.5 108.5,36.5C 108.5,36.8333 108.5,37.1667 108.5,37.5C 99.8333,37.5 91.1667,37.5 82.5,37.5C 82.5,32.8333 82.5,28.1667 82.5,23.5C 82.5,23.1667 82.5,22.8333 82.5,22.5 Z"/></g>
<g><path style="opacity:1" fill="#161616" d="M 149.5,48.5 C 150.5,48.8333 151.167,49.5 151.5,50.5C 149.833,51.5 148.5,52.8333 147.5,54.5C 146.206,55.2899 145.039,56.2899 144,57.5C 143.5,101.832 143.333,146.165 143.5,190.5C 139.24,195.936 134.74,201.269 130,206.5C 129.501,211.823 129.334,217.156 129.5,222.5C 129.167,223.833 128.833,225.167 128.5,226.5C 127.761,226.631 127.094,226.464 126.5,226C 127.479,219.256 127.812,212.422 127.5,205.5C 127.557,204.391 127.89,203.391 128.5,202.5C 129.833,201.833 130.833,200.833 131.5,199.5C 132.721,198.972 133.887,198.305 135,197.5C 135.688,196.668 135.521,196.002 134.5,195.5C 132.604,196.275 130.937,197.275 129.5,198.5C 126.167,199.5 122.833,200.5 119.5,201.5C 118.226,200.811 118.226,199.977 119.5,199C 116.633,198.199 113.966,198.366 111.5,199.5C 106.53,200.353 101.53,201.02 96.5,201.5C 94.8008,201.66 93.1341,201.494 91.5,201C 92.5,200.667 93.5,200.333 94.5,200C 87.9838,199.924 81.6504,199.757 75.5,199.5C 77.6353,197.631 80.3019,196.964 83.5,197.5C 88.7388,196.963 93.7388,197.63 98.5,199.5C 99.6956,199.154 99.6956,198.654 98.5,198C 101.251,197.057 103.917,196.224 106.5,195.5C 109.625,194.521 112.958,194.187 116.5,194.5C 121.453,194.877 126.119,194.211 130.5,192.5C 133.89,192.223 137.057,191.223 140,189.5C 140.5,146.168 140.667,102.835 140.5,59.5C 111.005,58.5019 81.338,58.1686 51.5,58.5C 51.168,102.67 51.5013,146.67 52.5,190.5C 53.3382,190.842 53.6716,191.508 53.5,192.5C 52.8902,193.391 52.5569,194.391 52.5,195.5C 50.5541,193.266 49.3874,190.599 49,187.5C 48.6667,144.167 48.3333,100.833 48,57.5C 47.2828,56.9558 46.7828,56.2891 46.5,55.5C 46.8417,54.6618 47.5084,54.3284 48.5,54.5C 79.931,55.8283 111.264,55.8283 142.5,54.5C 144.808,52.5293 147.142,50.5293 149.5,48.5 Z"/></g>
<g><path style="opacity:1" fill="#b2b2b2" d="M 48.5,54.5 C 48.5,54.1667 48.5,53.8333 48.5,53.5C 79.7897,54.485 111.123,54.8184 142.5,54.5C 111.264,55.8283 79.931,55.8283 48.5,54.5 Z"/></g>
<g><path style="opacity:1" fill="#686868" d="M 140.5,59.5 C 111.167,59.5 81.8333,59.5 52.5,59.5C 52.5,103.167 52.5,146.833 52.5,190.5C 51.5013,146.67 51.168,102.67 51.5,58.5C 81.338,58.1686 111.005,58.5019 140.5,59.5 Z"/></g>
<g><path style="opacity:1" fill="#e2e2e2" d="M 147.5,54.5 C 147.539,56.3588 146.706,57.6921 145,58.5C 144.833,102.669 144.333,146.669 143.5,190.5C 143.333,146.165 143.5,101.832 144,57.5C 145.039,56.2899 146.206,55.2899 147.5,54.5 Z"/></g>
<g><path style="opacity:1" fill="#fdfdfd" d="M 140.5,59.5 C 140.667,102.835 140.5,146.168 140,189.5C 137.057,191.223 133.89,192.223 130.5,192.5C 125.566,192.229 120.9,192.896 116.5,194.5C 112.958,194.187 109.625,194.521 106.5,195.5C 98.6355,195.571 90.9688,196.238 83.5,197.5C 80.3019,196.964 77.6353,197.631 75.5,199.5C 70.8276,200.003 66.1609,200.169 61.5,200C 58.9638,197.295 56.2971,194.795 53.5,192.5C 53.6716,191.508 53.3382,190.842 52.5,190.5C 52.5,146.833 52.5,103.167 52.5,59.5C 81.8333,59.5 111.167,59.5 140.5,59.5 Z"/></g>
<g><path style="opacity:1" fill="#404040" d="M 130.5,192.5 C 126.119,194.211 121.453,194.877 116.5,194.5C 120.9,192.896 125.566,192.229 130.5,192.5 Z"/></g>
<g><path style="opacity:1" fill="#3a3a3a" d="M 106.5,195.5 C 103.917,196.224 101.251,197.057 98.5,198C 99.6956,198.654 99.6956,199.154 98.5,199.5C 93.7388,197.63 88.7388,196.963 83.5,197.5C 90.9688,196.238 98.6355,195.571 106.5,195.5 Z"/></g>
<g><path style="opacity:1" fill="#848484" d="M 131.5,199.5 C 131.158,198.662 130.492,198.328 129.5,198.5C 130.937,197.275 132.604,196.275 134.5,195.5C 135.521,196.002 135.688,196.668 135,197.5C 133.887,198.305 132.721,198.972 131.5,199.5 Z"/></g>
<g><path style="opacity:1" fill="#bdbdbd" d="M 129.5,198.5 C 130.492,198.328 131.158,198.662 131.5,199.5C 130.833,200.833 129.833,201.833 128.5,202.5C 128.631,201.624 128.298,200.957 127.5,200.5C 124.55,201.705 121.55,202.705 118.5,203.5C 118.833,202.833 119.167,202.167 119.5,201.5C 122.833,200.5 126.167,199.5 129.5,198.5 Z"/></g>
<g><path style="opacity:1" fill="#fafafa" d="M 128.5,202.5 C 127.89,203.391 127.557,204.391 127.5,205.5C 126.672,211.653 126.172,217.987 126,224.5C 125.5,225 125,225.5 124.5,226C 113.234,228.411 102.234,231.245 91.5,234.5C 88.4552,234.508 85.4552,234.841 82.5,235.5C 78.1195,236.293 73.7862,237.293 69.5,238.5C 68.1803,235.572 67.5136,232.239 67.5,228.5C 67.6667,225.167 67.8333,221.833 68,218.5C 71.422,216.534 74.922,214.867 78.5,213.5C 80.4352,212.85 82.4352,212.517 84.5,212.5C 89.1243,212.237 93.4577,211.237 97.5,209.5C 104.285,207.051 111.285,205.051 118.5,203.5C 121.55,202.705 124.55,201.705 127.5,200.5C 128.298,200.957 128.631,201.624 128.5,202.5 Z"/></g>
<g><path style="opacity:1" fill="#212121" d="M 53.5,192.5 C 56.2971,194.795 58.9638,197.295 61.5,200C 66.1609,200.169 70.8276,200.003 75.5,199.5C 81.6504,199.757 87.9838,199.924 94.5,200C 93.5,200.333 92.5,200.667 91.5,201C 93.1341,201.494 94.8008,201.66 96.5,201.5C 93.8333,202.167 91.1667,202.833 88.5,203.5C 76.8715,204.371 65.5382,206.704 54.5,210.5C 56.484,213.586 59.3173,215.586 63,216.5C 64.2737,215.465 65.4404,214.298 66.5,213C 76.8028,210.582 87.1361,208.082 97.5,205.5C 104.097,204.579 110.43,202.746 116.5,200C 114.866,199.506 113.199,199.34 111.5,199.5C 113.966,198.366 116.633,198.199 119.5,199C 118.226,199.977 118.226,200.811 119.5,201.5C 119.167,202.167 118.833,202.833 118.5,203.5C 111.285,205.051 104.285,207.051 97.5,209.5C 92.8128,209.551 88.4794,210.551 84.5,212.5C 82.4352,212.517 80.4352,212.85 78.5,213.5C 74.1214,213.848 70.1214,215.182 66.5,217.5C 66.1667,217.5 65.8333,217.5 65.5,217.5C 63.8008,217.34 62.1341,217.506 60.5,218C 61.056,218.383 61.3893,218.883 61.5,219.5C 60.391,219.443 59.391,219.11 58.5,218.5C 54.8533,216.853 52.1867,214.187 50.5,210.5C 52.0426,207.056 54.7093,205.056 58.5,204.5C 58.6495,203.448 58.4828,202.448 58,201.5C 55.9604,199.63 54.1271,197.63 52.5,195.5C 52.5569,194.391 52.8902,193.391 53.5,192.5 Z"/></g>
<g><path style="opacity:1" fill="#e4e4e4" d="M 88.5,203.5 C 92.1817,203.335 95.8484,203.501 99.5,204C 98.5842,204.278 97.9175,204.778 97.5,205.5C 87.1361,208.082 76.8028,210.582 66.5,213C 65.4404,214.298 64.2737,215.465 63,216.5C 59.3173,215.586 56.484,213.586 54.5,210.5C 65.5382,206.704 76.8715,204.371 88.5,203.5 Z"/></g>
<g><path style="opacity:1" fill="#c5c5c5" d="M 111.5,199.5 C 113.199,199.34 114.866,199.506 116.5,200C 110.43,202.746 104.097,204.579 97.5,205.5C 97.9175,204.778 98.5842,204.278 99.5,204C 95.8484,203.501 92.1817,203.335 88.5,203.5C 91.1667,202.833 93.8333,202.167 96.5,201.5C 101.53,201.02 106.53,200.353 111.5,199.5 Z"/></g>
<g><path style="opacity:1" fill="#b3b3b3" d="M 97.5,209.5 C 93.4577,211.237 89.1243,212.237 84.5,212.5C 88.4794,210.551 92.8128,209.551 97.5,209.5 Z"/></g>
<g><path style="opacity:1" fill="#676767" d="M 65.5,217.5 C 65.8333,217.5 66.1667,217.5 66.5,217.5C 65.8701,225.243 66.5367,232.576 68.5,239.5C 67.791,240.404 66.791,240.737 65.5,240.5C 65.5,232.833 65.5,225.167 65.5,217.5 Z"/></g>
<g><path style="opacity:1" fill="#cdcdcd" d="M 58.5,218.5 C 59.391,219.11 60.391,219.443 61.5,219.5C 62.8333,227.5 62.8333,235.5 61.5,243.5C 61.5,235.833 61.5,228.167 61.5,220.5C 59.8212,220.715 58.8212,220.048 58.5,218.5 Z"/></g>
<g><path style="opacity:1" fill="#d1d1d1" d="M 78.5,213.5 C 74.922,214.867 71.422,216.534 68,218.5C 67.8333,221.833 67.6667,225.167 67.5,228.5C 67.5136,232.239 68.1803,235.572 69.5,238.5C 69.5,238.833 69.5,239.167 69.5,239.5C 69.1667,239.5 68.8333,239.5 68.5,239.5C 66.5367,232.576 65.8701,225.243 66.5,217.5C 70.1214,215.182 74.1214,213.848 78.5,213.5 Z"/></g>
<g><path style="opacity:1" fill="#262626" d="M 127.5,205.5 C 127.812,212.422 127.479,219.256 126.5,226C 127.094,226.464 127.761,226.631 128.5,226.5C 120.749,230.53 112.416,233.197 103.5,234.5C 102.833,234.5 102.167,234.5 101.5,234.5C 98.3485,233.761 95.0151,233.761 91.5,234.5C 102.234,231.245 113.234,228.411 124.5,226C 125,225.5 125.5,225 126,224.5C 126.172,217.987 126.672,211.653 127.5,205.5 Z"/></g>
<g><path style="opacity:1" fill="#e4e4e4" d="M 128.5,226.5 C 131.47,227.549 134.47,228.716 137.5,230C 138.815,231.395 138.481,232.395 136.5,233C 121.662,236.584 106.662,239.084 91.5,240.5C 89.4727,240.662 87.4727,240.495 85.5,240C 89.1098,239.262 92.4431,238.095 95.5,236.5C 98.4951,236.706 101.162,236.04 103.5,234.5C 112.416,233.197 120.749,230.53 128.5,226.5 Z"/></g>
<g><path style="opacity:1" fill="#999999" d="M 141.5,229.5 C 142.613,230.946 142.78,232.613 142,234.5C 141.329,235.252 140.496,235.586 139.5,235.5C 141.081,233.858 141.747,231.858 141.5,229.5 Z"/></g>
<g><path style="opacity:1" fill="#8d8d8d" d="M 101.5,234.5 C 102.167,234.5 102.833,234.5 103.5,234.5C 101.162,236.04 98.4951,236.706 95.5,236.5C 97.3024,235.542 99.3024,234.875 101.5,234.5 Z"/></g>
<g><path style="opacity:1" fill="#c7c7c7" d="M 95.5,236.5 C 92.4431,238.095 89.1098,239.262 85.5,240C 87.4727,240.495 89.4727,240.662 91.5,240.5C 84.5118,242.03 77.3451,243.363 70,244.5C 68.9302,244.472 68.0968,244.139 67.5,243.5C 76.4244,239.647 85.7577,237.314 95.5,236.5 Z"/></g>
<g><path style="opacity:1" fill="#1b1b1b" d="M 65.5,217.5 C 65.5,225.167 65.5,232.833 65.5,240.5C 66.791,240.737 67.791,240.404 68.5,239.5C 68.8333,239.5 69.1667,239.5 69.5,239.5C 74.1646,238.943 78.4979,237.61 82.5,235.5C 85.4552,234.841 88.4552,234.508 91.5,234.5C 95.0151,233.761 98.3485,233.761 101.5,234.5C 99.3024,234.875 97.3024,235.542 95.5,236.5C 85.7577,237.314 76.4244,239.647 67.5,243.5C 66.5266,243.987 65.5266,244.487 64.5,245C 68.0252,245.179 71.3586,245.679 74.5,246.5C 73.209,246.263 72.209,246.596 71.5,247.5C 65.8076,248.372 60.141,249.372 54.5,250.5C 54.33,251.822 54.6634,252.989 55.5,254C 57.9398,255.303 60.4398,256.47 63,257.5C 63.7648,257.43 64.2648,257.097 64.5,256.5C 66.6531,255.427 68.6531,255.427 70.5,256.5C 69.2794,257.028 68.1127,257.695 67,258.5C 66.1685,266.188 66.3352,273.855 67.5,281.5C 70.878,280.409 74.2113,279.409 77.5,278.5C 80.0593,278.198 82.3926,278.532 84.5,279.5C 83.5084,279.328 82.8417,279.662 82.5,280.5C 76.7747,281.242 71.4414,283.075 66.5,286C 71.2904,285.485 75.9571,284.651 80.5,283.5C 82.8333,283.5 85.1667,283.5 87.5,283.5C 89.1992,283.34 90.8659,283.506 92.5,284C 91.5842,284.278 90.9175,284.778 90.5,285.5C 79.7777,287.009 69.111,288.843 58.5,291C 56.6675,291.748 55.0009,292.748 53.5,294C 56.3118,295.328 58.9784,296.828 61.5,298.5C 62.6715,299.345 64.0048,300.011 65.5,300.5C 65.5,308.167 65.5,315.833 65.5,323.5C 66.791,323.737 67.791,323.404 68.5,322.5C 69.1667,322.5 69.8333,322.5 70.5,322.5C 70.4431,323.609 70.1098,324.609 69.5,325.5C 67.5767,325.795 65.9101,326.628 64.5,328C 65.448,328.483 66.448,328.649 67.5,328.5C 68.3382,328.842 68.6716,329.508 68.5,330.5C 65.1353,331.04 61.802,331.706 58.5,332.5C 56.6203,332.229 55.287,332.896 54.5,334.5C 54.5,335.167 54.5,335.833 54.5,336.5C 52.31,335.252 51.9766,333.586 53.5,331.5C 55.8754,328.975 58.7087,326.975 62,325.5C 62.6667,317.833 62.6667,310.167 62,302.5C 58.8333,300.667 55.6667,298.833 52.5,297C 49.8333,294.667 49.8333,292.333 52.5,290C 55.6319,288.365 58.6319,286.532 61.5,284.5C 62.6648,276.855 62.8315,269.188 62,261.5C 58.5838,259.208 55.0838,257.041 51.5,255C 49.9233,251.518 50.9233,248.852 54.5,247C 56.8599,245.82 59.1932,244.653 61.5,243.5C 62.8333,235.5 62.8333,227.5 61.5,219.5C 61.3893,218.883 61.056,218.383 60.5,218C 62.1341,217.506 63.8008,217.34 65.5,217.5 Z"/></g>
<g><path style="opacity:1" fill="#626262" d="M 82.5,235.5 C 78.4979,237.61 74.1646,238.943 69.5,239.5C 69.5,239.167 69.5,238.833 69.5,238.5C 73.7862,237.293 78.1195,236.293 82.5,235.5 Z"/></g>
<g><path style="opacity:1" fill="#eaeaea" d="M 97.5,243.5 C 101.042,243.187 104.375,243.521 107.5,244.5C 94.5867,247.455 81.5867,250.622 68.5,254C 66.6803,254.2 65.347,255.034 64.5,256.5C 64.2648,257.097 63.7648,257.43 63,257.5C 60.4398,256.47 57.9398,255.303 55.5,254C 54.6634,252.989 54.33,251.822 54.5,250.5C 60.141,249.372 65.8076,248.372 71.5,247.5C 80.5086,247.548 89.1753,246.214 97.5,243.5 Z"/></g>
<g><path style="opacity:1" fill="#f9f9f9" d="M 125.5,266.5 C 109.64,271.36 93.6404,275.36 77.5,278.5C 74.2113,279.409 70.878,280.409 67.5,281.5C 66.3352,273.855 66.1685,266.188 67,258.5C 68.1127,257.695 69.2794,257.028 70.5,256.5C 75.1688,255.499 79.8354,254.499 84.5,253.5C 88.4844,253.281 92.3177,253.281 96,253.5C 98.7685,252.534 101.269,251.201 103.5,249.5C 107.681,248.34 112.015,247.34 116.5,246.5C 119.313,246.452 121.979,245.785 124.5,244.5C 125.497,251.803 125.831,259.137 125.5,266.5 Z"/></g>
<g><path style="opacity:1" fill="#c2c2c2" d="M 97.5,243.5 C 89.1753,246.214 80.5086,247.548 71.5,247.5C 72.209,246.596 73.209,246.263 74.5,246.5C 82.1048,245.015 89.7714,244.015 97.5,243.5 Z"/></g>
<g><path style="opacity:1" fill="#bfbfbf" d="M 125.5,266.5 C 125.831,259.137 125.497,251.803 124.5,244.5C 121.979,245.785 119.313,246.452 116.5,246.5C 119.505,244.723 122.838,243.723 126.5,243.5C 126.825,251.352 126.492,259.018 125.5,266.5 Z"/></g>
<g><path style="opacity:1" fill="#e8e8e8" d="M 87.5,283.5 C 85.1667,283.5 82.8333,283.5 80.5,283.5C 79.1266,283.657 77.7932,283.49 76.5,283C 78.7226,282.434 80.7226,281.6 82.5,280.5C 82.8417,279.662 83.5084,279.328 84.5,279.5C 95.2375,277.786 105.904,275.619 116.5,273C 121.264,271.747 125.764,269.914 130,267.5C 132.909,269.038 135.742,270.704 138.5,272.5C 135.72,274.117 132.72,275.284 129.5,276C 115.341,278.47 101.341,280.97 87.5,283.5 Z"/></g>
<g><path style="opacity:1" fill="#bdbdbd" d="M 82.5,280.5 C 80.7226,281.6 78.7226,282.434 76.5,283C 77.7932,283.49 79.1266,283.657 80.5,283.5C 75.9571,284.651 71.2904,285.485 66.5,286C 71.4414,283.075 76.7747,281.242 82.5,280.5 Z"/></g>
<g><path style="opacity:1" fill="#e7e7e7" d="M 61.5,298.5 C 58.9784,296.828 56.3118,295.328 53.5,294C 55.0009,292.748 56.6675,291.748 58.5,291C 69.111,288.843 79.7777,287.009 90.5,285.5C 102.17,283.75 113.837,282.25 125.5,281C 124.833,281.333 124.167,281.667 123.5,282C 106.63,286.534 89.63,290.534 72.5,294C 68.7713,295.537 65.1046,297.037 61.5,298.5 Z"/></g>
<g><path style="opacity:1" fill="#cacaca" d="M 125.5,307.5 C 125.5,300.5 125.5,293.5 125.5,286.5C 124.167,286.5 122.833,286.5 121.5,286.5C 122.641,285.661 123.974,284.994 125.5,284.5C 126.82,292.323 126.82,299.99 125.5,307.5 Z"/></g>
<g><path style="opacity:1" fill="#f8f8f8" d="M 121.5,286.5 C 122.833,286.5 124.167,286.5 125.5,286.5C 125.5,293.5 125.5,300.5 125.5,307.5C 113.226,311.975 100.559,315.142 87.5,317C 81.6268,318.529 75.9601,320.363 70.5,322.5C 69.8333,322.5 69.1667,322.5 68.5,322.5C 66.5367,315.576 65.8701,308.243 66.5,300.5C 70.824,298.072 75.4907,296.239 80.5,295C 94.2905,292.592 107.957,289.759 121.5,286.5 Z"/></g>
<g><path style="opacity:1" fill="#676767" d="M 65.5,300.5 C 65.8333,300.5 66.1667,300.5 66.5,300.5C 65.8701,308.243 66.5367,315.576 68.5,322.5C 67.791,323.404 66.791,323.737 65.5,323.5C 65.5,315.833 65.5,308.167 65.5,300.5 Z"/></g>
<g><path style="opacity:1" fill="#e3e3e3" d="M 73.5,326.5 C 71.901,326.768 70.5676,326.434 69.5,325.5C 84.2411,321.315 99.2411,317.815 114.5,315C 120.003,313.913 125.003,311.747 129.5,308.5C 132.167,310.167 134.833,311.833 137.5,313.5C 135.997,315.422 133.997,316.588 131.5,317C 112.246,320.679 92.9131,323.846 73.5,326.5 Z"/></g>
<g><path style="opacity:1" fill="#808080" d="M 69.5,325.5 C 70.5676,326.434 71.901,326.768 73.5,326.5C 71.5,327.167 69.5,327.833 67.5,328.5C 66.448,328.649 65.448,328.483 64.5,328C 65.9101,326.628 67.5767,325.795 69.5,325.5 Z"/></g>
<g><path style="opacity:1" fill="#dfdfdf" d="M 54.5,336.5 C 54.5,335.833 54.5,335.167 54.5,334.5C 56.153,334.34 57.4863,333.674 58.5,332.5C 61.802,331.706 65.1353,331.04 68.5,330.5C 87.8165,327.189 107.15,324.356 126.5,322C 111.933,327.264 96.9329,330.931 81.5,333C 76.9892,334.836 72.3225,336.17 67.5,337C 65.6942,337.81 64.1942,338.976 63,340.5C 60.0537,339.275 57.2204,337.942 54.5,336.5 Z"/></g>
<g><path style="opacity:1" fill="#1c1c1c" d="M 129.5,222.5 C 133.5,224.833 137.5,227.167 141.5,229.5C 141.747,231.858 141.081,233.858 139.5,235.5C 136.242,236.908 133.076,238.574 130,240.5C 129.333,248.167 129.333,255.833 130,263.5C 133.416,265.792 136.916,267.959 140.5,270C 143.167,272 143.167,274 140.5,276C 136.916,278.041 133.416,280.208 130,282.5C 129.169,290.188 129.335,297.855 130.5,305.5C 135.114,307.794 139.114,310.794 142.5,314.5C 141.99,316.088 140.99,317.255 139.5,318C 136.088,319.455 132.921,321.288 130,323.5C 129.169,331.188 129.335,338.855 130.5,346.5C 133.937,349.286 137.604,351.619 141.5,353.5C 141.747,355.858 141.081,357.858 139.5,359.5C 135.992,360.504 132.826,362.171 130,364.5C 129.333,372.167 129.333,379.833 130,387.5C 130.816,388.823 131.983,389.489 133.5,389.5C 133.973,390.906 134.973,391.573 136.5,391.5C 137.848,392.601 139.348,393.601 141,394.5C 141.667,395.833 141.667,397.167 141,398.5C 137.323,400.696 133.823,403.03 130.5,405.5C 128.031,406.607 127.031,408.607 127.5,411.5C 126.087,414.219 125.42,417.219 125.5,420.5C 123.926,422.102 123.259,424.102 123.5,426.5C 122.212,428.035 122.212,429.701 123.5,431.5C 128.117,432.924 129.95,435.924 129,440.5C 125.333,442.833 121.667,445.167 118,447.5C 115.759,454.961 113.592,462.461 111.5,470C 112.987,472.821 115.154,474.987 118,476.5C 118.798,478.259 118.631,479.926 117.5,481.5C 114.25,483.612 111.25,485.945 108.5,488.5C 107.504,488.414 106.671,488.748 106,489.5C 105.506,491.134 105.34,492.801 105.5,494.5C 103.432,497.763 102.432,501.43 102.5,505.5C 101.566,506.568 101.232,507.901 101.5,509.5C 99.5902,512.452 98.5902,515.786 98.5,519.5C 97.9522,521.532 96.6188,522.532 94.5,522.5C 94.4403,519.659 93.7736,516.993 92.5,514.5C 92.7406,512.102 92.0739,510.102 90.5,508.5C 87.1767,506.03 83.6767,503.696 80,501.5C 79.0145,497.127 80.6811,494.127 85,492.5C 85.8007,489.633 85.6341,486.966 84.5,484.5C 84.7406,482.102 84.0739,480.102 82.5,478.5C 82.4533,475.432 81.9533,472.432 81,469.5C 76.0154,466.341 71.5154,462.674 67.5,458.5C 68.5497,455.625 70.5497,453.625 73.5,452.5C 74.4519,450.955 74.7852,449.288 74.5,447.5C 74.5905,444.848 73.9238,442.515 72.5,440.5C 72.7678,438.901 72.4345,437.568 71.5,436.5C 71.5905,433.848 70.9238,431.515 69.5,429.5C 69.67,428.178 69.3366,427.011 68.5,426C 64.4554,424.227 60.6221,422.06 57,419.5C 56.2025,417.741 56.3691,416.074 57.5,414.5C 59.5286,413.156 61.5286,411.823 63.5,410.5C 64.742,406.088 64.4087,401.754 62.5,397.5C 62.6655,393.486 62.4988,389.486 62,385.5C 58.8333,383.667 55.6667,381.833 52.5,380C 50.3517,377.925 50.0183,375.592 51.5,373C 54.8789,371.261 58.2122,369.428 61.5,367.5C 62.8333,359.5 62.8333,351.5 61.5,343.5C 57.5919,341.755 54.0919,339.422 51,336.5C 49.9231,333.738 50.7564,332.072 53.5,331.5C 51.9766,333.586 52.31,335.252 54.5,336.5C 57.2204,337.942 60.0537,339.275 63,340.5C 64.1942,338.976 65.6942,337.81 67.5,337C 72.3225,336.17 76.9892,334.836 81.5,333C 96.9329,330.931 111.933,327.264 126.5,322C 107.15,324.356 87.8165,327.189 68.5,330.5C 68.6716,329.508 68.3382,328.842 67.5,328.5C 69.5,327.833 71.5,327.167 73.5,326.5C 92.9131,323.846 112.246,320.679 131.5,317C 133.997,316.588 135.997,315.422 137.5,313.5C 134.833,311.833 132.167,310.167 129.5,308.5C 125.003,311.747 120.003,313.913 114.5,315C 99.2411,317.815 84.2411,321.315 69.5,325.5C 70.1098,324.609 70.4431,323.609 70.5,322.5C 75.9601,320.363 81.6268,318.529 87.5,317C 100.559,315.142 113.226,311.975 125.5,307.5C 126.82,299.99 126.82,292.323 125.5,284.5C 123.974,284.994 122.641,285.661 121.5,286.5C 107.957,289.759 94.2905,292.592 80.5,295C 75.4907,296.239 70.824,298.072 66.5,300.5C 66.1667,300.5 65.8333,300.5 65.5,300.5C 64.0048,300.011 62.6715,299.345 61.5,298.5C 65.1046,297.037 68.7713,295.537 72.5,294C 89.63,290.534 106.63,286.534 123.5,282C 124.167,281.667 124.833,281.333 125.5,281C 113.837,282.25 102.17,283.75 90.5,285.5C 90.9175,284.778 91.5842,284.278 92.5,284C 90.8659,283.506 89.1992,283.34 87.5,283.5C 101.341,280.97 115.341,278.47 129.5,276C 132.72,275.284 135.72,274.117 138.5,272.5C 135.742,270.704 132.909,269.038 130,267.5C 125.764,269.914 121.264,271.747 116.5,273C 105.904,275.619 95.2375,277.786 84.5,279.5C 82.3926,278.532 80.0593,278.198 77.5,278.5C 93.6404,275.36 109.64,271.36 125.5,266.5C 126.492,259.018 126.825,251.352 126.5,243.5C 122.838,243.723 119.505,244.723 116.5,246.5C 112.015,247.34 107.681,248.34 103.5,249.5C 96.8912,250.087 90.5579,251.421 84.5,253.5C 79.8354,254.499 75.1688,255.499 70.5,256.5C 68.6531,255.427 66.6531,255.427 64.5,256.5C 65.347,255.034 66.6803,254.2 68.5,254C 81.5867,250.622 94.5867,247.455 107.5,244.5C 114.119,243.611 120.452,241.777 126.5,239C 116.682,240.067 107.015,241.567 97.5,243.5C 89.7714,244.015 82.1048,245.015 74.5,246.5C 71.3586,245.679 68.0252,245.179 64.5,245C 65.5266,244.487 66.5266,243.987 67.5,243.5C 68.0968,244.139 68.9302,244.472 70,244.5C 77.3451,243.363 84.5118,242.03 91.5,240.5C 106.662,239.084 121.662,236.584 136.5,233C 138.481,232.395 138.815,231.395 137.5,230C 134.47,228.716 131.47,227.549 128.5,226.5C 128.833,225.167 129.167,223.833 129.5,222.5 Z"/></g>
<g><path style="opacity:1" fill="#777777" d="M 58.5,332.5 C 57.4863,333.674 56.153,334.34 54.5,334.5C 55.287,332.896 56.6203,332.229 58.5,332.5 Z"/></g>
<g><path style="opacity:1" fill="#a2a2a2" d="M 121.5,327.5 C 118.548,329.41 115.214,330.41 111.5,330.5C 114.55,328.899 117.884,327.899 121.5,327.5 Z"/></g>
<g><path style="opacity:1" fill="#f9f9f9" d="M 112.5,353.5 C 108.96,353.753 105.627,354.419 102.5,355.5C 100.143,355.337 97.8098,355.503 95.5,356C 94.944,356.383 94.6107,356.883 94.5,357.5C 90.8776,357.322 87.5443,357.989 84.5,359.5C 83.8333,359.5 83.1667,359.5 82.5,359.5C 80.1016,359.259 78.1016,359.926 76.5,361.5C 73.6726,361.584 71.006,362.25 68.5,363.5C 66.5367,356.576 65.8701,349.243 66.5,341.5C 73.2423,338.866 80.2423,336.699 87.5,335C 95.5422,333.605 103.542,332.105 111.5,330.5C 115.214,330.41 118.548,329.41 121.5,327.5C 123.117,326.962 124.784,326.629 126.5,326.5C 126.831,333.863 126.497,341.197 125.5,348.5C 121.221,350.37 116.887,352.037 112.5,353.5 Z"/></g>
<g><path style="opacity:1" fill="#c9c9c9" d="M 103.5,249.5 C 101.269,251.201 98.7685,252.534 96,253.5C 92.3177,253.281 88.4844,253.281 84.5,253.5C 90.5579,251.421 96.8912,250.087 103.5,249.5 Z"/></g>
<g><path style="opacity:1" fill="#cccccc" d="M 107.5,244.5 C 104.375,243.521 101.042,243.187 97.5,243.5C 107.015,241.567 116.682,240.067 126.5,239C 120.452,241.777 114.119,243.611 107.5,244.5 Z"/></g>
<g><path style="opacity:1" fill="#6a6a6a" d="M 66.5,341.5 C 65.8701,349.243 66.5367,356.576 68.5,363.5C 67.791,364.404 66.791,364.737 65.5,364.5C 65.1746,356.648 65.508,348.982 66.5,341.5 Z"/></g>
<g><path style="opacity:1" fill="#e2e2e2" d="M 73.5,367.5 C 72.209,367.737 71.209,367.404 70.5,366.5C 76.2896,364.014 82.2896,362.347 88.5,361.5C 92.3597,361.192 96.0264,360.525 99.5,359.5C 102.426,358.539 105.426,357.873 108.5,357.5C 110.786,357.405 112.786,356.738 114.5,355.5C 120.105,355.11 125.271,353.444 130,350.5C 132.567,351.868 135.067,353.368 137.5,355C 136.619,356.471 135.286,357.304 133.5,357.5C 113.615,361.486 93.6147,364.819 73.5,367.5 Z"/></g>
<g><path style="opacity:1" fill="#a0a0a0" d="M 102.5,355.5 C 99.997,356.371 97.3303,357.037 94.5,357.5C 94.6107,356.883 94.944,356.383 95.5,356C 97.8098,355.503 100.143,355.337 102.5,355.5 Z"/></g>
<g><path style="opacity:1" fill="#484848" d="M 112.5,353.5 C 112.082,354.222 111.416,354.722 110.5,355C 111.793,355.49 113.127,355.657 114.5,355.5C 112.786,356.738 110.786,357.405 108.5,357.5C 108.611,356.883 108.944,356.383 109.5,356C 107.19,355.503 104.857,355.337 102.5,355.5C 105.627,354.419 108.96,353.753 112.5,353.5 Z"/></g>
<g><path style="opacity:1" fill="#181818" d="M 102.5,355.5 C 104.857,355.337 107.19,355.503 109.5,356C 108.944,356.383 108.611,356.883 108.5,357.5C 105.426,357.873 102.426,358.539 99.5,359.5C 96.8127,359.664 94.146,359.497 91.5,359C 92.7375,358.768 93.7375,358.268 94.5,357.5C 97.3303,357.037 99.997,356.371 102.5,355.5 Z"/></g>
<g><path style="opacity:1" fill="#a1a1a1" d="M 141.5,353.5 C 142.613,354.946 142.78,356.613 142,358.5C 141.329,359.252 140.496,359.586 139.5,359.5C 141.081,357.858 141.747,355.858 141.5,353.5 Z"/></g>
<g><path style="opacity:1" fill="#494949" d="M 94.5,357.5 C 93.7375,358.268 92.7375,358.768 91.5,359C 94.146,359.497 96.8127,359.664 99.5,359.5C 96.0264,360.525 92.3597,361.192 88.5,361.5C 88.9175,360.778 89.5842,360.278 90.5,360C 88.5273,359.505 86.5273,359.338 84.5,359.5C 87.5443,357.989 90.8776,357.322 94.5,357.5 Z"/></g>
<g><path style="opacity:1" fill="#616161" d="M 82.5,359.5 C 80.8984,361.074 78.8984,361.741 76.5,361.5C 78.1016,359.926 80.1016,359.259 82.5,359.5 Z"/></g>
<g><path style="opacity:1" fill="#828282" d="M 70.5,366.5 C 71.209,367.404 72.209,367.737 73.5,367.5C 71.0849,369.379 68.4182,369.713 65.5,368.5C 66.8498,367.05 68.5165,366.383 70.5,366.5 Z"/></g>
<g><path style="opacity:1" fill="#c9c9c9" d="M 105.5,369.5 C 104.848,368.275 103.681,367.608 102,367.5C 97.8633,368.237 93.6966,368.571 89.5,368.5C 99.5596,366.967 109.726,365.3 120,363.5C 121.5,363.667 123,363.833 124.5,364C 118.271,366.277 111.937,368.111 105.5,369.5 Z"/></g>
<g><path style="opacity:1" fill="#e6e6e6" d="M 105.5,369.5 C 102.447,369.111 99.78,369.777 97.5,371.5C 93.6125,371.646 89.9458,372.313 86.5,373.5C 81.2169,373.167 76.5502,374.501 72.5,377.5C 68.4603,377.19 65.127,378.524 62.5,381.5C 59.9785,380.409 57.6451,379.075 55.5,377.5C 57.082,375.626 59.082,374.293 61.5,373.5C 70.5991,371.204 79.9324,369.538 89.5,368.5C 93.6966,368.571 97.8633,368.237 102,367.5C 103.681,367.608 104.848,368.275 105.5,369.5 Z"/></g>
<g><path style="opacity:1" fill="#fafafa" d="M 125.5,390.5 C 122.563,392.589 119.23,394.089 115.5,395C 105.276,397.806 94.9423,400.139 84.5,402C 79.2277,403.39 74.2277,405.223 69.5,407.5C 67.9174,405.492 66.9174,403.159 66.5,400.5C 66.3338,394.491 66.5005,388.491 67,382.5C 70.4459,380.177 74.2793,378.843 78.5,378.5C 80.6976,378.125 82.6976,377.458 84.5,376.5C 87.4552,375.841 90.4552,375.508 93.5,375.5C 100.258,375.587 106.591,374.254 112.5,371.5C 115.219,370.087 118.219,369.42 121.5,369.5C 122.583,369.461 123.583,369.127 124.5,368.5C 125.497,375.803 125.831,383.137 125.5,390.5 Z"/></g>
<g><path style="opacity:1" fill="#c6c6c6" d="M 125.5,390.5 C 125.831,383.137 125.497,375.803 124.5,368.5C 123.583,369.127 122.583,369.461 121.5,369.5C 122.635,367.787 124.302,367.12 126.5,367.5C 126.825,375.352 126.492,383.018 125.5,390.5 Z"/></g>
<g><path style="opacity:1" fill="#5e5e5e" d="M 105.5,369.5 C 103.162,371.04 100.495,371.706 97.5,371.5C 99.78,369.777 102.447,369.111 105.5,369.5 Z"/></g>
<g><path style="opacity:1" fill="#bcbcbc" d="M 112.5,371.5 C 106.591,374.254 100.258,375.587 93.5,375.5C 99.4832,373.169 105.817,371.835 112.5,371.5 Z"/></g>
<g><path style="opacity:1" fill="#979797" d="M 61.5,373.5 C 59.082,374.293 57.082,375.626 55.5,377.5C 54.596,376.791 54.2627,375.791 54.5,374.5C 56.8056,374.007 59.139,373.674 61.5,373.5 Z"/></g>
<g><path style="opacity:1" fill="#4e4e4e" d="M 86.5,373.5 C 84.5018,374.148 82.5018,374.981 80.5,376C 81.7932,376.49 83.1266,376.657 84.5,376.5C 82.6976,377.458 80.6976,378.125 78.5,378.5C 79.8595,376.991 79.3595,376.324 77,376.5C 75.4672,376.773 73.9672,377.106 72.5,377.5C 76.5502,374.501 81.2169,373.167 86.5,373.5 Z"/></g>
<g><path style="opacity:1" fill="#838383" d="M 133.5,389.5 C 135.027,389.427 136.027,390.094 136.5,391.5C 134.973,391.573 133.973,390.906 133.5,389.5 Z"/></g>
<g><path style="opacity:1" fill="#e1e1e1" d="M 116.5,401.5 C 114.801,401.66 113.134,401.494 111.5,401C 112.056,400.617 112.389,400.117 112.5,399.5C 116.566,397.557 120.899,396.057 125.5,395C 126.906,392.551 128.906,391.551 131.5,392C 133.717,393.268 135.717,394.768 137.5,396.5C 130.772,399.312 123.772,400.979 116.5,401.5 Z"/></g>
<g><path style="opacity:1" fill="#c5c5c5" d="M 112.5,399.5 C 112.389,400.117 112.056,400.617 111.5,401C 113.134,401.494 114.801,401.66 116.5,401.5C 103.385,404.476 90.0513,406.643 76.5,408C 88.333,404.467 100.333,401.633 112.5,399.5 Z"/></g>
<g><path style="opacity:1" fill="#666666" d="M 66.5,400.5 C 66.9174,403.159 67.9174,405.492 69.5,407.5C 68.791,408.404 67.791,408.737 66.5,408.5C 66.5,405.833 66.5,403.167 66.5,400.5 Z"/></g>
<g><path style="opacity:1" fill="#a2a2a2" d="M 62.5,397.5 C 64.4087,401.754 64.742,406.088 63.5,410.5C 62.8005,406.202 62.4672,401.869 62.5,397.5 Z"/></g>
<g><path style="opacity:1" fill="#cacaca" d="M 104.5,410.5 C 104.209,409.351 103.376,408.684 102,408.5C 96.9644,410.12 91.7978,410.787 86.5,410.5C 99.3391,407.926 112.339,405.759 125.5,404C 118.871,407.243 111.871,409.409 104.5,410.5 Z"/></g>
<g><path style="opacity:1" fill="#a3a3a3" d="M 123.5,412.5 C 122.817,410.824 121.483,410.157 119.5,410.5C 120.78,409.069 122.447,408.402 124.5,408.5C 124.768,410.099 124.434,411.432 123.5,412.5 Z"/></g>
<g><path style="opacity:1" fill="#e7e7e7" d="M 104.5,410.5 C 95.4593,412.343 86.4593,414.51 77.5,417C 73.8651,417.816 70.8651,419.65 68.5,422.5C 65.437,420.975 62.7703,418.975 60.5,416.5C 68.8004,413.07 77.4671,411.07 86.5,410.5C 91.7978,410.787 96.9644,410.12 102,408.5C 103.376,408.684 104.209,409.351 104.5,410.5 Z"/></g>
<g><path style="opacity:1" fill="#f9f9f9" d="M 119.5,410.5 C 121.483,410.157 122.817,410.824 123.5,412.5C 123.5,412.833 123.5,413.167 123.5,413.5C 122.388,415.599 121.721,417.933 121.5,420.5C 121.5,421.167 121.5,421.833 121.5,422.5C 119.84,426.474 118.173,430.474 116.5,434.5C 103.614,438.573 90.9468,443.24 78.5,448.5C 76.2421,440.206 74.2421,431.873 72.5,423.5C 79.8243,421.669 87.1576,419.836 94.5,418C 95.5707,417.148 96.5707,416.315 97.5,415.5C 104.773,414.059 112.107,412.392 119.5,410.5 Z"/></g>
<g><path style="opacity:1" fill="#a9a9a9" d="M 130.5,405.5 C 129.87,407.75 128.87,409.75 127.5,411.5C 127.031,408.607 128.031,406.607 130.5,405.5 Z"/></g>
<g><path style="opacity:1" fill="#5d5d5d" d="M 123.5,413.5 C 123.829,416.228 123.163,418.562 121.5,420.5C 121.721,417.933 122.388,415.599 123.5,413.5 Z"/></g>
<g><path style="opacity:1" fill="#cfcfcf" d="M 97.5,415.5 C 96.5707,416.315 95.5707,417.148 94.5,418C 87.1576,419.836 79.8243,421.669 72.5,423.5C 75.1411,421.547 78.1411,420.047 81.5,419C 86.8938,417.936 92.2271,416.77 97.5,415.5 Z"/></g>
<g><path style="opacity:1" fill="#a9a9a9" d="M 125.5,420.5 C 125.741,422.898 125.074,424.898 123.5,426.5C 123.259,424.102 123.926,422.102 125.5,420.5 Z"/></g>
<g><path style="opacity:1" fill="#545454" d="M 121.5,422.5 C 120.983,426.222 120.15,429.888 119,433.5C 118.329,434.252 117.496,434.586 116.5,434.5C 118.173,430.474 119.84,426.474 121.5,422.5 Z"/></g>
<g><path style="opacity:1" fill="#a3a3a3" d="M 69.5,429.5 C 70.9238,431.515 71.5905,433.848 71.5,436.5C 70.0762,434.485 69.4095,432.152 69.5,429.5 Z"/></g>
<g><path style="opacity:1" fill="#e0e0e0" d="M 113.5,442.5 C 112.127,442.657 110.793,442.49 109.5,442C 110.737,441.768 111.737,441.268 112.5,440.5C 115.67,438.656 118.837,436.656 122,434.5C 126.72,435.765 127.22,437.598 123.5,440C 120.223,441.143 116.89,441.977 113.5,442.5 Z"/></g>
<g><path style="opacity:1" fill="#c0c0c0" d="M 112.5,440.5 C 111.737,441.268 110.737,441.768 109.5,442C 110.793,442.49 112.127,442.657 113.5,442.5C 105.476,445.397 97.143,447.23 88.5,448C 96.2123,444.647 104.212,442.147 112.5,440.5 Z"/></g>
<g><path style="opacity:1" fill="#a8a8a8" d="M 72.5,440.5 C 73.9238,442.515 74.5905,444.848 74.5,447.5C 72.8372,445.562 72.1706,443.228 72.5,440.5 Z"/></g>
<g><path style="opacity:1" fill="#5c5c5c" d="M 109.5,448.5 C 109.5,447.833 109.167,447.5 108.5,447.5C 110.225,446.095 112.225,445.595 114.5,446C 113.09,447.372 111.423,448.205 109.5,448.5 Z"/></g>
<g><path style="opacity:1" fill="#e6e6e6" d="M 108.5,447.5 C 109.167,447.5 109.5,447.833 109.5,448.5C 99.7525,451.251 90.4191,455.085 81.5,460C 80.8448,461.487 79.8448,462.653 78.5,463.5C 76.6641,462.081 74.6641,460.914 72.5,460C 71.5494,459.282 71.3828,458.449 72,457.5C 83.7218,452.694 95.8885,449.36 108.5,447.5 Z"/></g>
<g><path style="opacity:1" fill="#f5f5f5" d="M 108.5,451.5 C 109.833,451.5 111.167,451.5 112.5,451.5C 110.96,459.661 108.793,467.661 106,475.5C 100.828,479.749 95.4948,483.749 90,487.5C 89.0546,487.095 88.3879,486.428 88,485.5C 85.683,478.239 84.0163,470.905 83,463.5C 91.2517,458.813 99.7517,454.813 108.5,451.5 Z"/></g>
<g><path style="opacity:1" fill="#dadada" d="M 110.5,475.5 C 113.37,476.078 115.037,477.745 115.5,480.5C 109.33,483.257 102.996,485.424 96.5,487C 101.789,483.865 106.456,480.031 110.5,475.5 Z"/></g>
<g><path style="opacity:1" fill="#939393" d="M 82.5,478.5 C 84.0739,480.102 84.7406,482.102 84.5,484.5C 82.9261,482.898 82.2594,480.898 82.5,478.5 Z"/></g>
<g><path style="opacity:1" fill="#adadad" d="M 108.5,488.5 C 107.486,490.574 106.486,492.574 105.5,494.5C 105.34,492.801 105.506,491.134 106,489.5C 106.671,488.748 107.504,488.414 108.5,488.5 Z"/></g>
<g><path style="opacity:1" fill="#d8d8d8" d="M 95.5,490.5 C 96.9778,490.238 98.3112,490.571 99.5,491.5C 97.1443,493.69 94.6443,495.69 92,497.5C 90.9914,499.025 90.4914,500.692 90.5,502.5C 86.5852,502.726 84.4185,501.059 84,497.5C 87.8137,495.016 91.6471,492.682 95.5,490.5 Z"/></g>
<g><path style="opacity:1" fill="#e2e2e2" d="M 97.5,512.5 C 96.2223,512.218 95.2223,511.551 94.5,510.5C 91.7234,503.359 93.7234,498.026 100.5,494.5C 100.833,495 101.167,495.5 101.5,496C 99.3015,501.294 97.9682,506.794 97.5,512.5 Z"/></g>
<g><path style="opacity:1" fill="#bbbbbb" d="M 105.5,494.5 C 105.251,497.002 104.917,499.502 104.5,502C 104.392,503.681 103.725,504.848 102.5,505.5C 102.432,501.43 103.432,497.763 105.5,494.5 Z"/></g>
<g><path style="opacity:1" fill="#9b9b9b" d="M 90.5,508.5 C 92.0739,510.102 92.7406,512.102 92.5,514.5C 90.9261,512.898 90.2594,510.898 90.5,508.5 Z"/></g>
<g><path style="opacity:1" fill="#626262" d="M 94.5,510.5 C 95.2223,511.551 96.2223,512.218 97.5,512.5C 97.1788,514.048 96.1788,514.715 94.5,514.5C 94.5,513.167 94.5,511.833 94.5,510.5 Z"/></g>
<g><path style="opacity:1" fill="#b6b6b6" d="M 101.5,509.5 C 101.33,511.848 100.997,514.182 100.5,516.5C 100.36,518.03 99.6935,519.03 98.5,519.5C 98.5902,515.786 99.5902,512.452 101.5,509.5 Z"/></g>
<g><path style="opacity:1" fill="#0b0b0b" d="M 86.5,581.5 C 86.5,586.5 86.5,591.5 86.5,596.5C 87.791,596.737 88.791,596.404 89.5,595.5C 94.8333,595.5 100.167,595.5 105.5,595.5C 105.5,590.5 105.5,585.5 105.5,580.5C 106.5,580.5 107.5,580.5 108.5,580.5C 109.949,582.164 111.949,582.998 114.5,583C 112.527,583.495 110.527,583.662 108.5,583.5C 108.168,637.336 108.501,691.003 109.5,744.5C 109.557,745.609 109.89,746.609 110.5,747.5C 109.167,747.5 107.833,747.5 106.5,747.5C 106.5,742.5 106.5,737.5 106.5,732.5C 103.941,732.198 101.607,732.532 99.5,733.5C 96.1667,733.5 92.8333,733.5 89.5,733.5C 88.791,732.596 87.791,732.263 86.5,732.5C 86.5,737.5 86.5,742.5 86.5,747.5C 82.7852,747.577 79.1185,747.244 75.5,746.5C 75.3893,745.883 75.056,745.383 74.5,745C 75.7932,744.51 77.1266,744.343 78.5,744.5C 80.1667,744.5 81.8333,744.5 83.5,744.5C 83.5,690.833 83.5,637.167 83.5,583.5C 82.209,583.263 81.209,583.596 80.5,584.5C 79.209,584.263 78.209,584.596 77.5,585.5C 76.1667,585.5 74.8333,585.5 73.5,585.5C 72.7611,585.631 72.0944,585.464 71.5,585C 72.8584,584.066 74.1917,583.232 75.5,582.5C 78.1401,581.579 80.9735,580.912 84,580.5C 85.0698,580.528 85.9032,580.861 86.5,581.5 Z"/></g>
<g><path style="opacity:1" fill="#777777" d="M 86.5,581.5 C 86.8616,586.421 87.8616,591.087 89.5,595.5C 88.791,596.404 87.791,596.737 86.5,596.5C 86.5,591.5 86.5,586.5 86.5,581.5 Z"/></g>
<g><path style="opacity:1" fill="#fdfdfd" d="M 73.5,585.5 C 74.8333,585.5 76.1667,585.5 77.5,585.5C 78.8333,585.5 80.1667,585.5 81.5,585.5C 81.5,638.167 81.5,690.833 81.5,743.5C 80.5,743.5 79.5,743.5 78.5,743.5C 49.2144,736.728 29.3811,719.061 19,690.5C 8.3807,653.028 18.214,622.195 48.5,598C 56.3782,592.728 64.7115,588.561 73.5,585.5 Z"/></g>
<g><path style="opacity:1" fill="#e8e8e8" d="M 77.5,585.5 C 78.209,584.596 79.209,584.263 80.5,584.5C 81.8331,610.658 82.4998,637.158 82.5,664C 82.5,690.669 82.1666,717.169 81.5,743.5C 81.5,690.833 81.5,638.167 81.5,585.5C 80.1667,585.5 78.8333,585.5 77.5,585.5 Z"/></g>
<g><path style="opacity:1" fill="#7b7b7b" d="M 80.5,584.5 C 81.209,583.596 82.209,583.263 83.5,583.5C 83.5,637.167 83.5,690.833 83.5,744.5C 81.8333,744.5 80.1667,744.5 78.5,744.5C 78.5,744.167 78.5,743.833 78.5,743.5C 79.5,743.5 80.5,743.5 81.5,743.5C 82.1666,717.169 82.5,690.669 82.5,664C 82.4998,637.158 81.8331,610.658 80.5,584.5 Z"/></g>
<g><path style="opacity:1" fill="#1d1d1d" d="M 108.5,580.5 C 153.371,590.442 177.371,618.275 180.5,664C 179.042,702.78 160.375,729.447 124.5,744C 119.976,745.738 115.31,746.905 110.5,747.5C 109.89,746.609 109.557,745.609 109.5,744.5C 108.501,691.003 108.168,637.336 108.5,583.5C 110.527,583.662 112.527,583.495 114.5,583C 111.949,582.998 109.949,582.164 108.5,580.5 Z"/></g>
<g><path style="opacity:1" fill="#fdfdfd" d="M 110.5,584.5 C 145.235,591.57 166.901,612.237 175.5,646.5C 175.726,649.249 175.393,651.916 174.5,654.5C 174.808,655.308 175.308,655.975 176,656.5C 176.5,663.158 176.666,669.825 176.5,676.5C 169.591,712.076 148.591,734.409 113.5,743.5C 112.5,743.5 111.5,743.5 110.5,743.5C 110.5,690.5 110.5,637.5 110.5,584.5 Z"/></g>
<g><path style="opacity:1" fill="#afafaf" d="M 110.5,584.5 C 110.5,637.5 110.5,690.5 110.5,743.5C 111.5,743.5 112.5,743.5 113.5,743.5C 112.432,744.434 111.099,744.768 109.5,744.5C 109.168,690.997 109.501,637.664 110.5,584.5 Z"/></g>
<g><path style="opacity:1" fill="#fefefe" d="M 101.5,599.5 C 102.5,599.5 103.5,599.5 104.5,599.5C 104.5,642.833 104.5,686.167 104.5,729.5C 103.833,729.5 103.5,729.833 103.5,730.5C 98.7697,730.717 94.1031,730.383 89.5,729.5C 88.5057,686.239 88.1724,642.906 88.5,599.5C 92.8333,599.5 97.1667,599.5 101.5,599.5 Z"/></g>
<g><path style="opacity:1" fill="#d2d2d2" d="M 101.5,599.5 C 101.5,599.167 101.5,598.833 101.5,598.5C 102.833,598.5 104.167,598.5 105.5,598.5C 105.832,642.337 105.499,686.003 104.5,729.5C 104.5,686.167 104.5,642.833 104.5,599.5C 103.5,599.5 102.5,599.5 101.5,599.5 Z"/></g>
<g><path style="opacity:1" fill="#474747" d="M 105.5,598.5 C 106.499,642.33 106.832,686.33 106.5,730.5C 105.5,730.5 104.5,730.5 103.5,730.5C 103.5,729.833 103.833,729.5 104.5,729.5C 105.499,686.003 105.832,642.337 105.5,598.5 Z"/></g>
<g><path style="opacity:1" fill="#c4c4c4" d="M 101.5,598.5 C 101.5,598.833 101.5,599.167 101.5,599.5C 97.1667,599.5 92.8333,599.5 88.5,599.5C 88.1724,642.906 88.5057,686.239 89.5,729.5C 88.8333,729.5 88.1667,729.5 87.5,729.5C 86.5013,686.003 86.168,642.337 86.5,598.5C 91.5,598.5 96.5,598.5 101.5,598.5 Z"/></g>
<g><path style="opacity:1" fill="#d5d5d5" d="M 175.5,646.5 C 177,652.26 177.667,658.26 177.5,664.5C 177.499,668.681 177.166,672.681 176.5,676.5C 176.666,669.825 176.5,663.158 176,656.5C 175.308,655.975 174.808,655.308 174.5,654.5C 175.393,651.916 175.726,649.249 175.5,646.5 Z"/></g>
<g><path style="opacity:1" fill="#606060" d="M 87.5,729.5 C 88.1667,729.5 88.8333,729.5 89.5,729.5C 94.1031,730.383 98.7697,730.717 103.5,730.5C 101.527,731.163 99.3608,731.496 97,731.5C 93.5226,731.672 90.356,731.006 87.5,729.5 Z"/></g>
<g><path style="opacity:1" fill="#424242" d="M 99.5,733.5 C 101.607,732.532 103.941,732.198 106.5,732.5C 106.5,737.5 106.5,742.5 106.5,747.5C 106.167,747.5 105.833,747.5 105.5,747.5C 105.5,742.833 105.5,738.167 105.5,733.5C 103.5,733.5 101.5,733.5 99.5,733.5 Z"/></g>
<g><path style="opacity:1" fill="#1d1d1d" d="M 75.5,582.5 C 74.1917,583.232 72.8584,584.066 71.5,585C 72.0944,585.464 72.7611,585.631 73.5,585.5C 64.7115,588.561 56.3782,592.728 48.5,598C 18.214,622.195 8.3807,653.028 19,690.5C 29.3811,719.061 49.2144,736.728 78.5,743.5C 78.5,743.833 78.5,744.167 78.5,744.5C 77.1266,744.343 75.7932,744.51 74.5,745C 75.056,745.383 75.3893,745.883 75.5,746.5C 45.4349,737.604 25.2682,718.27 15,688.5C 5.32899,642.35 21.1623,608.183 62.5,586C 66.9328,584.886 71.2661,583.719 75.5,582.5 Z"/></g>
<g><path style="opacity:1" fill="#7a7a7a" d="M 89.5,733.5 C 87.5636,737.715 86.8969,742.381 87.5,747.5C 87.1667,747.5 86.8333,747.5 86.5,747.5C 86.5,742.5 86.5,737.5 86.5,732.5C 87.791,732.263 88.791,732.596 89.5,733.5 Z"/></g>
<g><path style="opacity:1" fill="#cccccc" d="M 89.5,733.5 C 92.8333,733.5 96.1667,733.5 99.5,733.5C 101.5,733.5 103.5,733.5 105.5,733.5C 105.5,738.167 105.5,742.833 105.5,747.5C 104.515,743.366 104.182,739.032 104.5,734.5C 99.1667,734.5 93.8333,734.5 88.5,734.5C 88.8182,739.032 88.4849,743.366 87.5,747.5C 86.8969,742.381 87.5636,737.715 89.5,733.5 Z"/></g>
</svg>
