<?xml version="1.0" encoding="UTF-8"?>
<!DOCTYPE svg PUBLIC "-//W3C//DTD SVG 1.1//EN" "http://www.w3.org/Graphics/SVG/1.1/DTD/svg11.dtd">
<svg xmlns="http://www.w3.org/2000/svg" version="1.1" width="751px" height="99px" style="shape-rendering:geometricPrecision; text-rendering:geometricPrecision; image-rendering:optimizeQuality; fill-rule:evenodd; clip-rule:evenodd" xmlns:xlink="http://www.w3.org/1999/xlink">
<g><path style="opacity:1" fill="#fcfcfc" d="M -0.5,-0.5 C 249.833,-0.5 500.167,-0.5 750.5,-0.5C 750.5,32.5 750.5,65.5 750.5,98.5C 500.167,98.5 249.833,98.5 -0.5,98.5C -0.5,65.5 -0.5,32.5 -0.5,-0.5 Z"/></g>
<g><path style="opacity:1" fill="#2f2f2f" d="M 280.5,8.5 C 289.149,10.7727 297.482,13.9394 305.5,18C 309.274,20.1022 311.941,23.1022 313.5,27C 312.516,33.3213 309.183,37.9879 303.5,41C 291.4,46.2559 279.067,50.9226 266.5,55C 261.367,57.6541 256.867,61.1541 253,65.5C 251.622,69.8981 252.788,73.3981 256.5,76C 262.683,79.6594 269.017,82.8261 275.5,85.5C 275.672,86.4916 275.338,87.1583 274.5,87.5C 273.71,86.5987 272.71,85.9321 271.5,85.5C 267.942,83.8883 264.275,82.555 260.5,81.5C 260.167,80.5 259.5,79.8333 258.5,79.5C 257.833,79.1667 257.167,78.8333 256.5,78.5C 250.423,74.9681 248.923,69.9681 252,63.5C 256.037,58.8982 260.871,55.3982 266.5,53C 278.31,49.0632 289.977,44.7299 301.5,40C 315.469,31.0336 314.803,23.5336 299.5,17.5C 297.574,16.5139 295.574,15.5139 293.5,14.5C 290.228,13.2422 286.894,12.0755 283.5,11C 196.834,10.5 110.167,10.3333 23.5,10.5C 109.167,9.83333 194.833,9.16667 280.5,8.5 Z"/></g>
<g><path style="opacity:1" fill="#111111" d="M 561.5,11.5 C 560.168,22.6467 559.501,34.1467 559.5,46C 559.5,57.6716 559.833,69.1716 560.5,80.5C 560.5,80.8333 560.5,81.1667 560.5,81.5C 560.33,82.8221 560.663,83.9887 561.5,85C 560.956,85.7172 560.289,86.2172 559.5,86.5C 558.549,85.0813 558.216,83.4147 558.5,81.5C 558.5,81.1667 558.5,80.8333 558.5,80.5C 558.5,59.5 558.5,38.5 558.5,17.5C 558.5,16.8333 558.5,16.1667 558.5,15.5C 558.5,13.8333 558.5,12.1667 558.5,10.5C 478.668,9.33438 398.668,9.16771 318.5,10C 319.044,10.7172 319.711,11.2172 320.5,11.5C 320.833,11.5 321.167,11.5 321.5,11.5C 321.5,12.1667 321.167,12.5 320.5,12.5C 317.148,12.2163 314.148,11.0496 311.5,9C 394.833,8.5 478.166,8.33334 561.5,8.5C 561.5,9.5 561.5,10.5 561.5,11.5 Z"/></g>
<g><path style="opacity:1" fill="#4d4d4d" d="M 558.5,10.5 C 478.998,10.1674 399.665,10.5007 320.5,11.5C 319.711,11.2172 319.044,10.7172 318.5,10C 398.668,9.16771 478.668,9.33438 558.5,10.5 Z"/></g>
<g><path style="opacity:1" fill="#fdfdfd" d="M 23.5,10.5 C 110.167,10.3333 196.834,10.5 283.5,11C 286.894,12.0755 290.228,13.2422 293.5,14.5C 203.668,15.4994 113.668,15.8327 23.5,15.5C 23.5,13.8333 23.5,12.1667 23.5,10.5 Z"/></g>
<g><path style="opacity:1" fill="#fdfdfd" d="M 320.5,11.5 C 399.665,10.5007 478.998,10.1674 558.5,10.5C 558.5,12.1667 558.5,13.8333 558.5,15.5C 483.167,15.5 407.833,15.5 332.5,15.5C 328.828,14.1652 325.162,12.8319 321.5,11.5C 321.167,11.5 320.833,11.5 320.5,11.5 Z"/></g>
<g><path style="opacity:1" fill="#868485" d="M 293.5,14.5 C 295.574,15.5139 297.574,16.5139 299.5,17.5C 207.833,17.5 116.167,17.5 24.5,17.5C 24.1667,17.5 23.8333,17.5 23.5,17.5C 23.5,16.8333 23.5,16.1667 23.5,15.5C 113.668,15.8327 203.668,15.4994 293.5,14.5 Z"/></g>
<g><path style="opacity:1" fill="#868485" d="M 332.5,15.5 C 407.833,15.5 483.167,15.5 558.5,15.5C 558.5,16.1667 558.5,16.8333 558.5,17.5C 558.167,17.5 557.833,17.5 557.5,17.5C 483.665,17.1674 409.998,17.5008 336.5,18.5C 335.128,17.4884 333.795,16.4884 332.5,15.5 Z"/></g>
<g><path style="opacity:1" fill="#fdfdfd" d="M 16.5,17.5 C 18.1667,17.5 19.8333,17.5 21.5,17.5C 21.5,38.5 21.5,59.5 21.5,80.5C 19.8333,80.5 18.1667,80.5 16.5,80.5C 16.5,59.5 16.5,38.5 16.5,17.5 Z"/></g>
<g><path style="opacity:1" fill="#fefefe" d="M 24.5,17.5 C 116.167,17.5 207.833,17.5 299.5,17.5C 314.803,23.5336 315.469,31.0336 301.5,40C 289.977,44.7299 278.31,49.0632 266.5,53C 260.871,55.3982 256.037,58.8982 252,63.5C 248.923,69.9681 250.423,74.9681 256.5,78.5C 179.335,79.4993 102.002,79.8326 24.5,79.5C 24.5,58.8333 24.5,38.1667 24.5,17.5 Z"/></g>
<g><path style="opacity:1" fill="#fefefe" d="M 336.5,18.5 C 409.998,17.5008 483.665,17.1674 557.5,17.5C 557.5,38.1667 557.5,58.8333 557.5,79.5C 469.833,79.5 382.167,79.5 294.5,79.5C 290.456,78.0558 286.956,75.7224 284,72.5C 283.245,69.6967 283.578,67.0301 285,64.5C 288.718,60.7265 292.884,57.5599 297.5,55C 307.092,51.4693 316.759,48.136 326.5,45C 332.487,42.6738 337.654,39.1738 342,34.5C 346.172,27.167 344.339,21.8336 336.5,18.5 Z"/></g>
<g><path style="opacity:1" fill="#4c4c4c" d="M 20.5,12.5 C 20.56,11.9569 20.8933,11.6236 21.5,11.5C 22.8286,34.6632 22.8286,57.6632 21.5,80.5C 21.5,59.5 21.5,38.5 21.5,17.5C 21.7845,15.5853 21.4511,13.9187 20.5,12.5 Z"/></g>
<g><path style="opacity:1" fill="#504f4f" d="M 16.5,17.5 C 16.5,38.5 16.5,59.5 16.5,80.5C 18.1667,80.5 19.8333,80.5 21.5,80.5C 21.5,80.8333 21.5,81.1667 21.5,81.5C 19.901,81.2322 18.5676,81.5655 17.5,82.5C 17.5,82.8333 17.5,83.1667 17.5,83.5C 16.3263,82.4863 15.6596,81.153 15.5,79.5C 15.1695,58.6599 15.5028,37.9933 16.5,17.5 Z"/></g>
<g><path style="opacity:1" fill="#414141" d="M 561.5,11.5 C 563.55,13.2368 565.383,15.2368 567,17.5C 567.667,38.5 567.667,59.5 567,80.5C 565.192,82.5582 563.025,82.8916 560.5,81.5C 560.5,81.1667 560.5,80.8333 560.5,80.5C 559.833,69.1716 559.5,57.6716 559.5,46C 559.501,34.1467 560.168,22.6467 561.5,11.5 Z"/></g>
<g><path style="opacity:1" fill="#fdfdfd" d="M 560.5,80.5 C 560.5,59.5 560.5,38.5 560.5,17.5C 562.167,17.5 563.833,17.5 565.5,17.5C 565.5,38.5 565.5,59.5 565.5,80.5C 563.833,80.5 562.167,80.5 560.5,80.5 Z"/></g>
<g><path style="opacity:1" fill="#292929" d="M 321.5,11.5 C 325.162,12.8319 328.828,14.1652 332.5,15.5C 333.795,16.4884 335.128,17.4884 336.5,18.5C 344.339,21.8336 346.172,27.167 342,34.5C 337.654,39.1738 332.487,42.6738 326.5,45C 316.759,48.136 307.092,51.4693 297.5,55C 292.884,57.5599 288.718,60.7265 285,64.5C 283.578,67.0301 283.245,69.6967 284,72.5C 286.956,75.7224 290.456,78.0558 294.5,79.5C 295.209,80.404 296.209,80.7373 297.5,80.5C 297.833,81.5 298.5,82.1667 299.5,82.5C 303.51,83.8405 307.51,85.1738 311.5,86.5C 393.5,87.1667 475.5,87.8333 557.5,88.5C 475.57,89.6635 393.57,89.8302 311.5,89C 303.939,86.5528 296.606,83.5528 289.5,80C 285.044,77.7294 282.378,74.2294 281.5,69.5C 282.65,63.4991 285.983,58.9991 291.5,56C 303.513,50.4937 315.846,45.8271 328.5,42C 333.475,39.9257 337.642,36.7591 341,32.5C 343.613,27.5895 342.447,23.7562 337.5,21C 331.773,18.1363 326.106,15.3029 320.5,12.5C 321.167,12.5 321.5,12.1667 321.5,11.5 Z"/></g>
<g><path style="opacity:1" fill="#292829" d="M 689.5,8.5 C 713.989,5.64922 730.489,15.6492 739,38.5C 742.765,60.1369 734.931,75.9702 715.5,86C 693.756,93.5301 676.59,87.6967 664,68.5C 654.435,47.3604 658.602,29.5271 676.5,15C 680.894,12.8029 685.227,10.6363 689.5,8.5 Z"/></g>
<g><path style="opacity:1" fill="#fbfbfb" d="M 690.5,10.5 C 722.865,9.03228 738.365,24.3656 737,56.5C 730.499,77.9926 715.999,88.1592 693.5,87C 677.639,83.4741 667.139,73.9741 662,58.5C 658.484,34.5043 667.984,18.5043 690.5,10.5 Z"/></g>
<g><path style="opacity:1" fill="#4b4b4b" d="M 725.5,67.5 C 723.438,71.8947 720.104,74.8947 715.5,76.5C 718.808,73.5285 722.141,70.5285 725.5,67.5 Z"/></g>
<g><path style="opacity:1" fill="#474747" d="M 725.5,67.5 C 725.461,66.2438 725.961,65.2438 727,64.5C 727.585,65.9976 727.085,66.9976 725.5,67.5 Z"/></g>
<g><path style="opacity:1" fill="#757575" d="M 669.5,37.5 C 669.205,41.2279 668.539,44.8946 667.5,48.5C 666.423,44.483 667.09,40.8164 669.5,37.5 Z"/></g>
<g><path style="opacity:1" fill="#595959" d="M 719.5,23.5 C 725.346,27.2092 729.179,32.5425 731,39.5C 733.212,47.4582 732.545,55.1249 729,62.5C 733.706,47.6458 730.54,34.6458 719.5,23.5 Z"/></g>
<g><path style="opacity:1" fill="#4b4b4b" d="M 672.5,31.5 C 672.008,33.8185 671.008,35.8185 669.5,37.5C 669.461,34.911 670.461,32.911 672.5,31.5 Z"/></g>
<g><path style="opacity:1" fill="#525252" d="M 675.5,27.5 C 675.262,29.4044 674.262,30.7377 672.5,31.5C 672.738,29.5956 673.738,28.2623 675.5,27.5 Z"/></g>
<g><path style="opacity:1" fill="#717171" d="M 682.5,21.5 C 680.761,24.2427 678.427,26.2427 675.5,27.5C 677.239,24.7573 679.573,22.7573 682.5,21.5 Z"/></g>
<g><path style="opacity:1" fill="#5e5e5e" d="M 719.5,23.5 C 707.541,16.4012 695.208,15.7345 682.5,21.5C 683.749,19.8639 685.416,18.6972 687.5,18C 695.477,14.8814 703.477,14.8814 711.5,18C 714.756,19.116 717.422,20.9493 719.5,23.5 Z"/></g>
<g><path style="opacity:1" fill="#767676" d="M 715.5,76.5 C 714.817,78.1765 713.483,78.8432 711.5,78.5C 712.514,77.3263 713.847,76.6596 715.5,76.5 Z"/></g>
<g><path style="opacity:1" fill="#c1c1c1" d="M 23.5,17.5 C 23.8333,17.5 24.1667,17.5 24.5,17.5C 24.5,38.1667 24.5,58.8333 24.5,79.5C 102.002,79.8326 179.335,79.4993 256.5,78.5C 257.167,78.8333 257.833,79.1667 258.5,79.5C 180.335,80.4993 102.002,80.8326 23.5,80.5C 23.5,59.5 23.5,38.5 23.5,17.5 Z"/></g>
<g><path style="opacity:1" fill="#c2c1c1" d="M 557.5,17.5 C 557.833,17.5 558.167,17.5 558.5,17.5C 558.5,38.5 558.5,59.5 558.5,80.5C 471.5,80.5 384.5,80.5 297.5,80.5C 296.209,80.7373 295.209,80.404 294.5,79.5C 382.167,79.5 469.833,79.5 557.5,79.5C 557.5,58.8333 557.5,38.1667 557.5,17.5 Z"/></g>
<g><path style="opacity:1" fill="#7a7a7a" d="M 711.5,78.5 C 707.928,81.2976 703.928,81.9642 699.5,80.5C 703.452,79.5062 707.452,78.8396 711.5,78.5 Z"/></g>
<g><path style="opacity:1" fill="#4d4d4d" d="M 258.5,79.5 C 259.5,79.8333 260.167,80.5 260.5,81.5C 181.833,81.5 103.167,81.5 24.5,81.5C 24.1667,81.5 23.8333,81.5 23.5,81.5C 23.5,81.1667 23.5,80.8333 23.5,80.5C 102.002,80.8326 180.335,80.4993 258.5,79.5 Z"/></g>
<g><path style="opacity:1" fill="#4d4c4c" d="M 297.5,80.5 C 384.5,80.5 471.5,80.5 558.5,80.5C 558.5,80.8333 558.5,81.1667 558.5,81.5C 558.167,81.5 557.833,81.5 557.5,81.5C 471.332,81.1673 385.332,81.5007 299.5,82.5C 298.5,82.1667 297.833,81.5 297.5,80.5 Z"/></g>
<g><path style="opacity:1" fill="#dfddde" d="M 17.5,82.5 C 18.5676,81.5655 19.901,81.2322 21.5,81.5C 21.6567,82.8734 21.49,84.2068 21,85.5C 19.9609,84.2899 18.7942,83.2899 17.5,82.5 Z"/></g>
<g><path style="opacity:1" fill="#fefdfe" d="M 24.5,81.5 C 103.167,81.5 181.833,81.5 260.5,81.5C 264.275,82.555 267.942,83.8883 271.5,85.5C 189.335,86.4993 107.002,86.8327 24.5,86.5C 24.5,84.8333 24.5,83.1667 24.5,81.5 Z"/></g>
<g><path style="opacity:1" fill="#fefdfe" d="M 299.5,82.5 C 385.332,81.5007 471.332,81.1673 557.5,81.5C 557.5,83.1667 557.5,84.8333 557.5,86.5C 475.5,86.5 393.5,86.5 311.5,86.5C 307.51,85.1738 303.51,83.8405 299.5,82.5 Z"/></g>
<g><path style="opacity:1" fill="#c2c0c1" d="M 23.5,81.5 C 23.8333,81.5 24.1667,81.5 24.5,81.5C 24.5,83.1667 24.5,84.8333 24.5,86.5C 107.002,86.8327 189.335,86.4993 271.5,85.5C 272.71,85.9321 273.71,86.5987 274.5,87.5C 190.833,87.5 107.167,87.5 23.5,87.5C 23.5,85.5 23.5,83.5 23.5,81.5 Z"/></g>
<g><path style="opacity:1" fill="#c2c0c1" d="M 557.5,81.5 C 557.833,81.5 558.167,81.5 558.5,81.5C 558.216,83.4147 558.549,85.0813 559.5,86.5C 559.167,87.5 558.5,88.1667 557.5,88.5C 475.5,87.8333 393.5,87.1667 311.5,86.5C 393.5,86.5 475.5,86.5 557.5,86.5C 557.5,84.8333 557.5,83.1667 557.5,81.5 Z"/></g>
<g><path style="opacity:1" fill="#1e1d1d" d="M 280.5,8.5 C 194.833,9.16667 109.167,9.83333 23.5,10.5C 23.5,12.1667 23.5,13.8333 23.5,15.5C 23.5,16.1667 23.5,16.8333 23.5,17.5C 23.5,38.5 23.5,59.5 23.5,80.5C 23.5,80.8333 23.5,81.1667 23.5,81.5C 23.5,83.5 23.5,85.5 23.5,87.5C 107.167,87.5 190.833,87.5 274.5,87.5C 275.338,87.1583 275.672,86.4916 275.5,85.5C 278.179,85.6726 280.513,86.6726 282.5,88.5C 195.835,89.6667 109.169,89.8333 22.5,89C 20.6266,87.2962 18.9599,85.4628 17.5,83.5C 17.5,83.1667 17.5,82.8333 17.5,82.5C 18.7942,83.2899 19.9609,84.2899 21,85.5C 21.49,84.2068 21.6567,82.8734 21.5,81.5C 21.5,81.1667 21.5,80.8333 21.5,80.5C 22.8286,57.6632 22.8286,34.6632 21.5,11.5C 20.8933,11.6236 20.56,11.9569 20.5,12.5C 19.1667,14.1667 17.8333,15.8333 16.5,17.5C 15.5028,37.9933 15.1695,58.6599 15.5,79.5C 14.3373,58.3373 14.1706,37.004 15,15.5C 17.1667,13.3333 19.3333,11.1667 21.5,9C 107.833,8.5 194.166,8.33334 280.5,8.5 Z"/></g>
<g><path style="opacity:1" fill="#a4a4a4" d="M 20.5,12.5 C 21.4511,13.9187 21.7845,15.5853 21.5,17.5C 19.8333,17.5 18.1667,17.5 16.5,17.5C 17.8333,15.8333 19.1667,14.1667 20.5,12.5 Z"/></g>
</svg>
