<?xml version="1.0" encoding="UTF-8"?>
<!DOCTYPE svg PUBLIC "-//W3C//DTD SVG 1.1//EN" "http://www.w3.org/Graphics/SVG/1.1/DTD/svg11.dtd">
<svg xmlns="http://www.w3.org/2000/svg" version="1.1" width="70px" height="366px" style="shape-rendering:geometricPrecision; text-rendering:geometricPrecision; image-rendering:optimizeQuality; fill-rule:evenodd; clip-rule:evenodd" xmlns:xlink="http://www.w3.org/1999/xlink">
<g><path style="opacity:1" fill="#fafafa" d="M -0.5,-0.5 C 22.8333,-0.5 46.1667,-0.5 69.5,-0.5C 69.5,121.5 69.5,243.5 69.5,365.5C 46.1667,365.5 22.8333,365.5 -0.5,365.5C -0.5,243.5 -0.5,121.5 -0.5,-0.5 Z"/></g>
<g><path style="opacity:1" fill="#eaeaea" d="M 10.5,13.5 C 12.4955,63.8223 13.1621,114.489 12.5,165.5C 12.5,166.167 12.5,166.833 12.5,167.5C 11.7784,167.918 11.2784,168.584 11,169.5C 10.5,117.501 10.3333,65.5011 10.5,13.5 Z"/></g>
<g><path style="opacity:1" fill="#b7b7b7" d="M 10.5,13.5 C 10.5,13.1667 10.5,12.8333 10.5,12.5C 11.5,12.5 12.5,12.5 13.5,12.5C 13.8322,63.6694 13.4989,114.669 12.5,165.5C 13.1621,114.489 12.4955,63.8223 10.5,13.5 Z"/></g>
<g><path style="opacity:1" fill="#fefefe" d="M 15.5,13.5 C 28.1667,13.5 40.8333,13.5 53.5,13.5C 53.5,72.1667 53.5,130.833 53.5,189.5C 53.5,189.833 53.5,190.167 53.5,190.5C 52.1634,191.315 51.1634,192.482 50.5,194C 48.5,194.667 46.5,194.667 44.5,194C 41.4399,189.828 38.9399,185.328 37,180.5C 35.458,174.662 33.458,168.995 31,163.5C 28.7953,160.96 26.2953,158.793 23.5,157C 20.3861,155.913 18.0528,156.746 16.5,159.5C 15.5012,111.003 15.1678,62.3362 15.5,13.5 Z"/></g>
<g><path style="opacity:1" fill="#acacac" d="M 15.5,13.5 C 15.5,13.1667 15.5,12.8333 15.5,12.5C 28.5,12.5 41.5,12.5 54.5,12.5C 54.8324,71.669 54.499,130.669 53.5,189.5C 53.5,130.833 53.5,72.1667 53.5,13.5C 40.8333,13.5 28.1667,13.5 15.5,13.5 Z"/></g>
<g><path style="opacity:1" fill="#373737" d="M 54.5,191.5 C 53.8333,191.5 53.5,191.167 53.5,190.5C 53.5,190.167 53.5,189.833 53.5,189.5C 54.499,130.669 54.8324,71.669 54.5,12.5C 41.5,12.5 28.5,12.5 15.5,12.5C 14.5011,61.6638 14.1678,110.997 14.5,160.5C 15.1098,161.391 15.4431,162.391 15.5,163.5C 14.8333,165.167 14.1667,166.833 13.5,168.5C 12.8333,168.5 12.5,168.167 12.5,167.5C 12.5,166.833 12.5,166.167 12.5,165.5C 13.4989,114.669 13.8322,63.6694 13.5,12.5C 12.5,12.5 11.5,12.5 10.5,12.5C 10.1667,12.5 9.83333,12.5 9.5,12.5C 9.5,11.8333 9.5,11.1667 9.5,10.5C 10.3636,9.31174 11.3636,8.14508 12.5,7C 27.1667,6.33333 41.8333,6.33333 56.5,7C 57.6667,8.16667 58.8333,9.33333 60,10.5C 60.6667,66.5 60.6667,122.5 60,178.5C 58.703,183.09 56.8697,187.423 54.5,191.5 Z"/></g>
<g><path style="opacity:1" fill="#7d7d7d" d="M 15.5,8.5 C 28.3226,7.50452 41.3226,7.17119 54.5,7.5C 54.5,8.83333 54.5,10.1667 54.5,11.5C 41.3226,11.8288 28.3226,11.4955 15.5,10.5C 66.1667,9.83333 66.1667,9.16667 15.5,8.5 Z"/></g>
<g><path style="opacity:1" fill="#f1f1f1" d="M 15.5,8.5 C 66.1667,9.16667 66.1667,9.83333 15.5,10.5C 15.5,9.83333 15.5,9.16667 15.5,8.5 Z"/></g>
<g><path style="opacity:1" fill="#818181" d="M 58.5,13.5 C 57.1668,40.9919 56.5002,68.8252 56.5,97C 56.5,125.002 56.8334,152.835 57.5,180.5C 57.6309,181.376 57.2975,182.043 56.5,182.5C 55.5,125.837 55.1667,69.1706 55.5,12.5C 56.791,12.2627 57.791,12.596 58.5,13.5 Z"/></g>
<g><path style="opacity:1" fill="#6b6b6b" d="M 15.5,12.5 C 15.5,12.8333 15.5,13.1667 15.5,13.5C 15.1678,62.3362 15.5012,111.003 16.5,159.5C 16.1583,160.338 15.4916,160.672 14.5,160.5C 14.1678,110.997 14.5011,61.6638 15.5,12.5 Z"/></g>
<g><path style="opacity:1" fill="#515151" d="M 9.5,10.5 C 9.5,11.1667 9.5,11.8333 9.5,12.5C 9.1677,67.3359 9.50103,122.003 10.5,176.5C 10.44,177.043 10.1067,177.376 9.5,177.5C 8.16864,121.668 8.16864,66.0015 9.5,10.5 Z"/></g>
<g><path style="opacity:1" fill="#414141" d="M 9.5,12.5 C 9.83333,12.5 10.1667,12.5 10.5,12.5C 10.5,12.8333 10.5,13.1667 10.5,13.5C 10.3333,65.5011 10.5,117.501 11,169.5C 11.2784,168.584 11.7784,167.918 12.5,167.5C 12.5,168.167 12.8333,168.5 13.5,168.5C 12.4986,171.172 11.4986,173.838 10.5,176.5C 9.50103,122.003 9.1677,67.3359 9.5,12.5 Z"/></g>
<g><path style="opacity:1" fill="#f2f2f2" d="M 58.5,13.5 C 58.825,69.2085 58.4917,124.875 57.5,180.5C 56.8334,152.835 56.5,125.002 56.5,97C 56.5002,68.8252 57.1668,40.9919 58.5,13.5 Z"/></g>
<g><path style="opacity:1" fill="#a6a6a6" d="M 32.5,173.5 C 33.871,175.936 34.871,178.603 35.5,181.5C 33.3455,179.383 32.3455,176.716 32.5,173.5 Z"/></g>
<g><path style="opacity:1" fill="#fdfdfd" d="M 46.5,216.5 C 47.8333,216.5 49.1667,216.5 50.5,216.5C 51.4959,216.586 52.3292,216.252 53,215.5C 53.5,261.165 53.6667,306.832 53.5,352.5C 40.8333,352.5 28.1667,352.5 15.5,352.5C 15.3333,296.166 15.5,239.832 16,183.5C 19.4776,177.273 23.4776,176.94 28,182.5C 32.1508,192.101 36.1508,201.768 40,211.5C 41.7772,213.79 43.9438,215.457 46.5,216.5 Z"/></g>
<g><path style="opacity:1" fill="#545454" d="M 49.5,214.5 C 48.5,215.167 47.5,215.833 46.5,216.5C 43.9438,215.457 41.7772,213.79 40,211.5C 36.1508,201.768 32.1508,192.101 28,182.5C 23.4776,176.94 19.4776,177.273 16,183.5C 15.5,239.832 15.3333,296.166 15.5,352.5C 14.8333,296.5 14.1667,240.5 13.5,184.5C 15.3285,177.151 19.6618,174.984 26.5,178C 29.0373,180.906 31.204,184.073 33,187.5C 35.7201,196.328 39.2201,204.828 43.5,213C 45.3453,214.128 47.3453,214.628 49.5,214.5 Z"/></g>
<g><path style="opacity:1" fill="#929292" d="M 13.5,184.5 C 13.4431,185.609 13.1098,186.609 12.5,187.5C 12.1667,187.5 11.8333,187.5 11.5,187.5C 11.427,185.973 12.0937,184.973 13.5,184.5 Z"/></g>
<g><path style="opacity:1" fill="#494949" d="M 53.5,190.5 C 53.5,191.167 53.8333,191.5 54.5,191.5C 52.9313,196.573 49.5979,198.406 44.5,197C 39.5725,192.916 36.5725,187.75 35.5,181.5C 34.871,178.603 33.871,175.936 32.5,173.5C 31.3557,168.378 29.0224,163.878 25.5,160C 20.886,157.487 17.5527,158.654 15.5,163.5C 15.4431,162.391 15.1098,161.391 14.5,160.5C 15.4916,160.672 16.1583,160.338 16.5,159.5C 18.0528,156.746 20.3861,155.913 23.5,157C 26.2953,158.793 28.7953,160.96 31,163.5C 33.458,168.995 35.458,174.662 37,180.5C 38.9399,185.328 41.4399,189.828 44.5,194C 46.5,194.667 48.5,194.667 50.5,194C 51.1634,192.482 52.1634,191.315 53.5,190.5 Z"/></g>
<g><path style="opacity:1" fill="#b7b7b7" d="M 13.5,190.5 C 13.5,244.5 13.5,298.5 13.5,352.5C 13.1667,352.5 12.8333,352.5 12.5,352.5C 12.8323,299.664 12.4989,246.997 11.5,194.5C 11.6596,192.847 12.3263,191.514 13.5,190.5 Z"/></g>
<g><path style="opacity:1" fill="#474747" d="M 11.5,187.5 C 11.8333,187.5 12.1667,187.5 12.5,187.5C 12.5569,188.609 12.8902,189.609 13.5,190.5C 12.3263,191.514 11.6596,192.847 11.5,194.5C 10.8376,220.929 10.5043,247.429 10.5,274C 10.5002,300.509 11.1669,326.675 12.5,352.5C 12.8333,352.5 13.1667,352.5 13.5,352.5C 13.634,354.292 13.3007,355.958 12.5,357.5C 11.2058,356.71 10.0391,355.71 9,354.5C 8.50001,301.168 8.33334,247.834 8.5,194.5C 9.94882,192.389 10.9488,190.056 11.5,187.5 Z"/></g>
<g><path style="opacity:1" fill="#d6d6d6" d="M 8.5,194.5 C 8.33334,247.834 8.50001,301.168 9,354.5C 10.0391,355.71 11.2058,356.71 12.5,357.5C 12.5,357.833 12.5,358.167 12.5,358.5C 9.995,359.741 8.495,358.741 8,355.5C 7.16822,301.665 7.33489,247.998 8.5,194.5 Z"/></g>
<g><path style="opacity:1" fill="#adadad" d="M 58.5,196.5 C 59.209,195.596 60.209,195.263 61.5,195.5C 61.8323,248.669 61.4989,301.669 60.5,354.5C 61.1623,301.489 60.4957,248.823 58.5,196.5 Z"/></g>
<g><path style="opacity:1" fill="#ebebeb" d="M 11.5,194.5 C 12.4989,246.997 12.8323,299.664 12.5,352.5C 11.1669,326.675 10.5002,300.509 10.5,274C 10.5043,247.429 10.8376,220.929 11.5,194.5 Z"/></g>
<g><path style="opacity:1" fill="#3b3b3b" d="M 13.5,184.5 C 14.1667,240.5 14.8333,296.5 15.5,352.5C 15.5,353.167 15.5,353.833 15.5,354.5C 15.5,355.5 15.5,356.5 15.5,357.5C 28.5,357.5 41.5,357.5 54.5,357.5C 54.5,356.5 54.5,355.5 54.5,354.5C 54.5,353.833 54.5,353.167 54.5,352.5C 54.8333,306.162 54.4999,259.829 53.5,213.5C 52.1451,214.188 51.1451,215.188 50.5,216.5C 49.1667,216.5 47.8333,216.5 46.5,216.5C 47.5,215.833 48.5,215.167 49.5,214.5C 53.5216,209.124 56.5216,203.124 58.5,196.5C 60.4957,248.823 61.1623,301.489 60.5,354.5C 58.7041,355.793 57.0375,357.293 55.5,359C 41.092,359.815 26.7586,359.648 12.5,358.5C 12.5,358.167 12.5,357.833 12.5,357.5C 13.3007,355.958 13.634,354.292 13.5,352.5C 13.5,298.5 13.5,244.5 13.5,190.5C 12.8902,189.609 12.5569,188.609 12.5,187.5C 13.1098,186.609 13.4431,185.609 13.5,184.5 Z"/></g>
<g><path style="opacity:1" fill="#acacac" d="M 54.5,352.5 C 54.1667,352.5 53.8333,352.5 53.5,352.5C 53.6667,306.832 53.5,261.165 53,215.5C 52.3292,216.252 51.4959,216.586 50.5,216.5C 51.1451,215.188 52.1451,214.188 53.5,213.5C 54.4999,259.829 54.8333,306.162 54.5,352.5 Z"/></g>
<g><path style="opacity:1" fill="#7b7b7b" d="M 57.5,204.5 C 57.56,203.957 57.8933,203.624 58.5,203.5C 59.8311,253.332 59.8311,302.998 58.5,352.5C 58.8322,302.997 58.4989,253.664 57.5,204.5 Z"/></g>
<g><path style="opacity:1" fill="#f1f1f1" d="M 57.5,204.5 C 58.4989,253.664 58.8322,302.997 58.5,352.5C 57.1669,328.343 56.5002,303.843 56.5,279C 56.5046,254.095 56.8379,229.262 57.5,204.5 Z"/></g>
<g><path style="opacity:1" fill="#4b4b4b" d="M 15.5,352.5 C 28.1667,352.5 40.8333,352.5 53.5,352.5C 53.8333,352.5 54.1667,352.5 54.5,352.5C 54.5,353.167 54.5,353.833 54.5,354.5C 41.5,354.5 28.5,354.5 15.5,354.5C 15.5,353.833 15.5,353.167 15.5,352.5 Z"/></g>
<g><path style="opacity:1" fill="#cdcdcd" d="M 15.5,354.5 C 28.5,354.5 41.5,354.5 54.5,354.5C 54.5,355.5 54.5,356.5 54.5,357.5C 41.5,357.5 28.5,357.5 15.5,357.5C 15.5,356.5 15.5,355.5 15.5,354.5 Z"/></g>
</svg>
