<?xml version="1.0" encoding="UTF-8"?>
<!DOCTYPE svg PUBLIC "-//W3C//DTD SVG 1.1//EN" "http://www.w3.org/Graphics/SVG/1.1/DTD/svg11.dtd">
<svg xmlns="http://www.w3.org/2000/svg" version="1.1" width="172px" height="289px" style="shape-rendering:geometricPrecision; text-rendering:geometricPrecision; image-rendering:optimizeQuality; fill-rule:evenodd; clip-rule:evenodd" xmlns:xlink="http://www.w3.org/1999/xlink">
<g><path style="opacity:1" fill="#fdfdfd" d="M -0.5,-0.5 C 56.8333,-0.5 114.167,-0.5 171.5,-0.5C 171.5,95.8333 171.5,192.167 171.5,288.5C 114.167,288.5 56.8333,288.5 -0.5,288.5C -0.5,192.167 -0.5,95.8333 -0.5,-0.5 Z"/></g>
<g><path style="opacity:1" fill="#343434" d="M 24.5,11.5 C 64.5,11.5 104.5,11.5 144.5,11.5C 141.167,12.1667 137.833,12.8333 134.5,13.5C 131.772,13.1706 129.438,13.8372 127.5,15.5C 127.167,15.5 126.833,15.5 126.5,15.5C 125.417,15.5394 124.417,15.8728 123.5,16.5C 122.172,35.329 122.172,53.9957 123.5,72.5C 124.71,72.9321 125.71,73.5987 126.5,74.5C 125.833,74.5 125.5,74.8333 125.5,75.5C 121.276,74.0307 117.276,74.364 113.5,76.5C 111.139,76.3259 108.806,75.9926 106.5,75.5C 111.044,74.509 115.711,73.509 120.5,72.5C 120.5,54.1667 120.5,35.8333 120.5,17.5C 115.758,15.7808 110.758,14.6141 105.5,14C 90.5,13.3333 75.5,13.3333 60.5,14C 57.3718,14.8412 54.3718,15.6746 51.5,16.5C 50.1667,16.5 48.8333,16.5 47.5,16.5C 46.8462,35.5299 47.5129,54.1966 49.5,72.5C 50.1667,72.5 50.5,72.8333 50.5,73.5C 49.8333,73.5 49.5,73.8333 49.5,74.5C 46.5049,74.2938 43.8383,74.9605 41.5,76.5C 40.609,75.8902 39.609,75.5569 38.5,75.5C 40.396,74.5195 42.396,73.5195 44.5,72.5C 45.8333,53.8333 45.8333,35.1667 44.5,16.5C 41.058,14.6085 37.3913,13.6085 33.5,13.5C 30.5,12.8333 27.5,12.1667 24.5,11.5 Z"/></g>
<g><path style="opacity:1" fill="#a4a4a4" d="M 41.5,13.5 C 45.9811,12.3516 50.6478,12.1849 55.5,13C 50.8071,15.5382 46.1405,15.7049 41.5,13.5 Z"/></g>
<g><path style="opacity:1" fill="#a2a2a2" d="M 112.5,13.5 C 116.981,12.3516 121.648,12.1849 126.5,13C 124.87,14.2131 123.036,15.0464 121,15.5C 118.165,14.7669 115.332,14.1003 112.5,13.5 Z"/></g>
<g><path style="opacity:1" fill="#4a4a4a" d="M 144.5,11.5 C 149.659,11.4456 154.325,12.779 158.5,15.5C 157.833,15.5 157.5,15.8333 157.5,16.5C 156.167,16.1667 154.833,15.8333 153.5,15.5C 152.737,14.7321 151.737,14.2321 150.5,14C 145.177,13.5006 139.844,13.334 134.5,13.5C 137.833,12.8333 141.167,12.1667 144.5,11.5 Z"/></g>
<g><path style="opacity:1" fill="#cdcdcd" d="M 120.5,17.5 C 97.5555,13.907 74.5555,13.5737 51.5,16.5C 54.3718,15.6746 57.3718,14.8412 60.5,14C 75.5,13.3333 90.5,13.3333 105.5,14C 110.758,14.6141 115.758,15.7808 120.5,17.5 Z"/></g>
<g><path style="opacity:1" fill="#d1d1d1" d="M 134.5,13.5 C 139.844,13.334 145.177,13.5006 150.5,14C 151.737,14.2321 152.737,14.7321 153.5,15.5C 144.833,14.1667 136.167,14.1667 127.5,15.5C 129.438,13.8372 131.772,13.1706 134.5,13.5 Z"/></g>
<g><path style="opacity:1" fill="#5d5d5d" d="M 24.5,11.5 C 27.5,12.1667 30.5,12.8333 33.5,13.5C 25.9067,12.8969 18.5734,13.8969 11.5,16.5C 10.5004,35.1548 10.1671,53.8214 10.5,72.5C 9.83333,53.8333 9.16667,35.1667 8.5,16.5C 13.0316,12.6932 18.3649,11.0265 24.5,11.5 Z"/></g>
<g><path style="opacity:1" fill="#fcfcfc" d="M 33.5,13.5 C 37.3913,13.6085 41.058,14.6085 44.5,16.5C 45.8333,35.1667 45.8333,53.8333 44.5,72.5C 42.396,73.5195 40.396,74.5195 38.5,75.5C 28.7058,77.5454 19.3724,76.5454 10.5,72.5C 10.1671,53.8214 10.5004,35.1548 11.5,16.5C 18.5734,13.8969 25.9067,12.8969 33.5,13.5 Z"/></g>
<g><path style="opacity:1" fill="#fdfdfd" d="M 120.5,17.5 C 120.5,35.8333 120.5,54.1667 120.5,72.5C 115.711,73.509 111.044,74.509 106.5,75.5C 87.7238,77.315 69.0572,76.6483 50.5,73.5C 50.5,72.8333 50.1667,72.5 49.5,72.5C 48.5138,54.2431 48.1804,35.9098 48.5,17.5C 49.791,17.7373 50.791,17.404 51.5,16.5C 74.5555,13.5737 97.5555,13.907 120.5,17.5 Z"/></g>
<g><path style="opacity:1" fill="#fdfdfd" d="M 153.5,15.5 C 154.833,15.8333 156.167,16.1667 157.5,16.5C 158.112,35.6662 157.445,54.6662 155.5,73.5C 145.957,77.0145 136.29,77.3479 126.5,74.5C 125.71,73.5987 124.71,72.9321 123.5,72.5C 123.167,54.1546 123.5,35.8212 124.5,17.5C 125.522,17.1445 126.189,16.4778 126.5,15.5C 126.833,15.5 127.167,15.5 127.5,15.5C 136.167,14.1667 144.833,14.1667 153.5,15.5 Z"/></g>
<g><path style="opacity:1" fill="#bebebe" d="M 126.5,15.5 C 126.189,16.4778 125.522,17.1445 124.5,17.5C 123.5,35.8212 123.167,54.1546 123.5,72.5C 122.172,53.9957 122.172,35.329 123.5,16.5C 124.417,15.8728 125.417,15.5394 126.5,15.5 Z"/></g>
<g><path style="opacity:1" fill="#272727" d="M 157.5,16.5 C 157.5,15.8333 157.833,15.5 158.5,15.5C 159.117,15.6107 159.617,15.944 160,16.5C 160.826,35.74 160.659,54.9067 159.5,74C 155.317,75.7961 150.984,77.1294 146.5,78C 104.5,78.6667 62.5,78.6667 20.5,78C 16.3111,77.273 12.4778,75.773 9,73.5C 8.50005,54.5029 8.33338,35.5029 8.5,16.5C 9.16667,35.1667 9.83333,53.8333 10.5,72.5C 19.3724,76.5454 28.7058,77.5454 38.5,75.5C 39.609,75.5569 40.609,75.8902 41.5,76.5C 46.1785,76.6658 50.8452,76.4992 55.5,76C 53.4817,75.4954 51.4817,74.9954 49.5,74.5C 49.5,73.8333 49.8333,73.5 50.5,73.5C 69.0572,76.6483 87.7238,77.315 106.5,75.5C 108.806,75.9926 111.139,76.3259 113.5,76.5C 118.278,76.8351 122.278,76.5018 125.5,75.5C 125.5,74.8333 125.833,74.5 126.5,74.5C 136.29,77.3479 145.957,77.0145 155.5,73.5C 156.496,73.5858 157.329,73.2524 158,72.5C 158.829,53.6621 158.662,34.9955 157.5,16.5 Z"/></g>
<g><path style="opacity:1" fill="#d5d5d5" d="M 125.5,75.5 C 122.278,76.5018 118.278,76.8351 113.5,76.5C 117.276,74.364 121.276,74.0307 125.5,75.5 Z"/></g>
<g><path style="opacity:1" fill="#cccccc" d="M 49.5,74.5 C 51.4817,74.9954 53.4817,75.4954 55.5,76C 50.8452,76.4992 46.1785,76.6658 41.5,76.5C 43.8383,74.9605 46.5049,74.2938 49.5,74.5 Z"/></g>
<g><path style="opacity:1" fill="#d8d8d8" d="M 157.5,16.5 C 158.662,34.9955 158.829,53.6621 158,72.5C 157.329,73.2524 156.496,73.5858 155.5,73.5C 157.445,54.6662 158.112,35.6662 157.5,16.5 Z"/></g>
<g><path style="opacity:1" fill="#d3d3d3" d="M 51.5,16.5 C 50.791,17.404 49.791,17.7373 48.5,17.5C 48.1804,35.9098 48.5138,54.2431 49.5,72.5C 47.5129,54.1966 46.8462,35.5299 47.5,16.5C 48.8333,16.5 50.1667,16.5 51.5,16.5 Z"/></g>
<g><path style="opacity:1" fill="#505050" d="M 45.5,150.5 C 70.9967,149.337 96.6634,149.17 122.5,150C 123.056,150.383 123.389,150.883 123.5,151.5C 122.662,151.842 122.328,152.508 122.5,153.5C 116.111,151.437 109.444,150.937 102.5,152C 105.122,153.475 107.788,154.641 110.5,155.5C 109.494,155.938 109.494,156.604 110.5,157.5C 106.257,155.46 101.923,153.793 97.5,152.5C 98.675,152.719 99.675,152.386 100.5,151.5C 96.0162,150.189 91.6829,150.189 87.5,151.5C 84.1667,151.5 80.8333,151.5 77.5,151.5C 73.4488,150.1 69.4488,150.433 65.5,152.5C 59.69,151.51 53.69,151.177 47.5,151.5C 47.1583,150.662 46.4916,150.328 45.5,150.5 Z"/></g>
<g><path style="opacity:1" fill="#111111" d="M 87.5,151.5 C 91.6829,150.189 96.0162,150.189 100.5,151.5C 99.675,152.386 98.675,152.719 97.5,152.5C 96.5,152.5 95.5,152.5 94.5,152.5C 92.3926,151.532 90.0593,151.198 87.5,151.5 Z"/></g>
<g><path style="opacity:1" fill="#b0b0b0" d="M 77.5,151.5 C 80.8333,151.5 84.1667,151.5 87.5,151.5C 90.0593,151.198 92.3926,151.532 94.5,152.5C 85.8154,152.464 77.1487,152.797 68.5,153.5C 71.2727,152.343 74.2727,151.676 77.5,151.5 Z"/></g>
<g><path style="opacity:1" fill="#f8f8f8" d="M 94.5,152.5 C 95.5,152.5 96.5,152.5 97.5,152.5C 101.923,153.793 106.257,155.46 110.5,157.5C 117.849,160.837 124.516,165.171 130.5,170.5C 154.458,200.524 154.458,230.524 130.5,260.5C 119.267,271.115 105.934,277.448 90.5,279.5C 80.6029,279.657 70.9362,278.324 61.5,275.5C 52.8173,272.48 45.1506,267.813 38.5,261.5C 21.5,242.397 16.3334,220.397 23,195.5C 31.3791,173.947 46.5458,159.947 68.5,153.5C 77.1487,152.797 85.8154,152.464 94.5,152.5 Z"/></g>
<g><path style="opacity:1" fill="#e1e1e1" d="M 122.5,153.5 C 125.587,158.34 128.087,163.34 130,168.5C 124.561,162.533 118.061,158.2 110.5,155.5C 107.788,154.641 105.122,153.475 102.5,152C 109.444,150.937 116.111,151.437 122.5,153.5 Z"/></g>
<g><path style="opacity:1" fill="#373737" d="M 123.5,151.5 C 126.5,156.833 129.5,162.167 132.5,167.5C 131.599,168.29 130.932,169.29 130.5,170.5C 124.516,165.171 117.849,160.837 110.5,157.5C 109.494,156.604 109.494,155.938 110.5,155.5C 118.061,158.2 124.561,162.533 130,168.5C 128.087,163.34 125.587,158.34 122.5,153.5C 122.328,152.508 122.662,151.842 123.5,151.5 Z"/></g>
<g><path style="opacity:1" fill="#282828" d="M 45.5,150.5 C 46.4916,150.328 47.1583,150.662 47.5,151.5C 44.3402,156.782 41.5069,162.115 39,167.5C 46.4216,160.038 55.2549,155.038 65.5,152.5C 69.4488,150.433 73.4488,150.1 77.5,151.5C 74.2727,151.676 71.2727,152.343 68.5,153.5C 46.5458,159.947 31.3791,173.947 23,195.5C 16.3334,220.397 21.5,242.397 38.5,261.5C 37.1667,261.5 35.8333,261.5 34.5,261.5C 25.829,246.157 17.1623,230.823 8.5,215.5C 20.576,193.681 32.9093,172.014 45.5,150.5 Z"/></g>
<g><path style="opacity:1" fill="#eaeaea" d="M 19.5,198.5 C 20.0967,198.735 20.4301,199.235 20.5,200C 19.1513,205.073 18.4847,210.24 18.5,215.5C 18.9599,220.514 19.1266,225.514 19,230.5C 16.1506,225.657 13.3172,220.823 10.5,216C 13.2247,209.968 16.2247,204.135 19.5,198.5 Z"/></g>
<g><path style="opacity:1" fill="#e6e6e6" d="M 47.5,151.5 C 53.69,151.177 59.69,151.51 65.5,152.5C 55.2549,155.038 46.4216,160.038 39,167.5C 41.5069,162.115 44.3402,156.782 47.5,151.5 Z"/></g>
<g><path style="opacity:1" fill="#323232" d="M 104.5,161.5 C 110.033,162.349 114.866,164.683 119,168.5C 119.333,179.167 119.667,189.833 120,200.5C 124.517,210.729 124.517,221.062 120,231.5C 119.667,242.167 119.333,252.833 119,263.5C 115.406,266.297 111.406,268.297 107,269.5C 97.6979,265.533 88.8645,260.7 80.5,255C 68.7071,253.776 59.3738,248.442 52.5,239C 43.8333,234 35.1667,229 26.5,224C 25.1941,218.554 25.1941,213.054 26.5,207.5C 34.3381,202.747 42.3381,198.247 50.5,194C 55.684,187.476 62.0173,182.476 69.5,179C 82.5977,175.785 94.2644,169.951 104.5,161.5 Z"/></g>
<g><path style="opacity:1" fill="#f3f3f3" d="M 48.5,196.5 C 49.0431,196.56 49.3764,196.893 49.5,197.5C 46.1205,203.024 44.7872,209.024 45.5,215.5C 44.7872,221.976 46.1205,227.976 49.5,233.5C 49.1667,233.833 48.8333,234.167 48.5,234.5C 41.9965,230.414 35.3299,226.581 28.5,223C 27.1977,218.218 27.1977,213.385 28.5,208.5C 35.5617,204.977 42.2284,200.977 48.5,196.5 Z"/></g>
<g><path style="opacity:1" fill="#383838" d="M 111.5,237.5 C 104.83,244.168 96.83,248.168 87.5,249.5C 70.0527,250.525 58.2193,242.858 52,226.5C 46.9344,203.79 55.4344,188.956 77.5,182C 97.98,180.157 111.48,188.99 118,208.5C 119.138,218.945 116.971,228.612 111.5,237.5 Z"/></g>
<g><path style="opacity:1" fill="#fbfbfb" d="M 76.5,183.5 C 103.374,182.21 116.54,194.877 116,221.5C 110.061,241.731 96.5608,250.231 75.5,247C 58.1204,240.089 50.6204,227.256 53,208.5C 56.5805,196.088 64.4139,187.755 76.5,183.5 Z"/></g>
<g><path style="opacity:1" fill="#9a9a9a" d="M 117.5,169.5 C 118.821,177.676 118.821,186.009 117.5,194.5C 116.893,194.376 116.56,194.043 116.5,193.5C 117.492,185.684 117.826,177.684 117.5,169.5 Z"/></g>
<g><path style="opacity:1" fill="#f4f4f4" d="M 117.5,169.5 C 117.826,177.684 117.492,185.684 116.5,193.5C 108.89,183.024 98.5568,177.19 85.5,176C 92.6009,171.7 99.7675,167.534 107,163.5C 110.894,164.912 114.394,166.912 117.5,169.5 Z"/></g>
<g><path style="opacity:1" fill="#252525" d="M 132.5,167.5 C 142.149,183.297 151.149,199.464 159.5,216C 149.401,234.274 139.068,252.441 128.5,270.5C 127.833,270.5 127.5,270.167 127.5,269.5C 128.529,267.483 129.529,265.483 130.5,263.5C 131.625,262.652 131.625,261.652 130.5,260.5C 154.458,230.524 154.458,200.524 130.5,170.5C 130.932,169.29 131.599,168.29 132.5,167.5 Z"/></g>
<g><path style="opacity:1" fill="#eaeaea" d="M 148.5,199.5 C 151.995,204.484 154.995,209.818 157.5,215.5C 155.31,221.186 152.476,226.52 149,231.5C 149.291,226.189 149.791,220.856 150.5,215.5C 150.049,210.131 149.383,204.797 148.5,199.5 Z"/></g>
<g><path style="opacity:1" fill="#f7f7f7" d="M 116.5,238.5 C 117.492,246.316 117.826,254.316 117.5,262.5C 114.699,263.735 112.032,265.235 109.5,267C 107.833,267.667 106.167,267.667 104.5,267C 98.1667,263.333 91.8333,259.667 85.5,256C 84.7476,255.329 84.4142,254.496 84.5,253.5C 83.5707,252.685 82.5707,251.852 81.5,251C 83.7078,250.809 85.7078,250.309 87.5,249.5C 96.83,248.168 104.83,244.168 111.5,237.5C 112.117,237.389 112.617,237.056 113,236.5C 113.49,237.793 113.657,239.127 113.5,240.5C 115.179,240.715 116.179,240.048 116.5,238.5 Z"/></g>
<g><path style="opacity:1" fill="#989898" d="M 117.5,262.5 C 117.826,254.316 117.492,246.316 116.5,238.5C 116.369,237.624 116.702,236.957 117.5,236.5C 118.821,245.325 118.821,253.991 117.5,262.5 Z"/></g>
<g><path style="opacity:1" fill="#dedede" d="M 116.5,238.5 C 116.179,240.048 115.179,240.715 113.5,240.5C 113.657,239.127 113.49,237.793 113,236.5C 112.617,237.056 112.117,237.389 111.5,237.5C 116.971,228.612 119.138,218.945 118,208.5C 111.48,188.99 97.98,180.157 77.5,182C 55.4344,188.956 46.9344,203.79 52,226.5C 58.2193,242.858 70.0527,250.525 87.5,249.5C 85.7078,250.309 83.7078,250.809 81.5,251C 82.5707,251.852 83.5707,252.685 84.5,253.5C 61.0972,251.096 48.4305,238.096 46.5,214.5C 48.6647,196.505 58.3314,184.672 75.5,179C 96.9756,176.181 111.809,184.681 120,204.5C 123.236,216.529 121.403,227.696 114.5,238C 114.683,239.684 115.35,239.85 116.5,238.5 Z"/></g>
<g><path style="opacity:1" fill="#e9e9e9" d="M 130.5,263.5 C 129.529,265.483 128.529,267.483 127.5,269.5C 125,272.494 123,275.827 121.5,279.5C 115.642,279.822 109.975,279.489 104.5,278.5C 114.146,275.016 122.813,270.016 130.5,263.5 Z"/></g>
<g><path style="opacity:1" fill="#343434" d="M 130.5,260.5 C 131.625,261.652 131.625,262.652 130.5,263.5C 122.813,270.016 114.146,275.016 104.5,278.5C 103.244,278.461 102.244,278.961 101.5,280C 108.346,280.821 115.013,280.654 121.5,279.5C 123,275.827 125,272.494 127.5,269.5C 127.5,270.167 127.833,270.5 128.5,270.5C 126.728,274.112 124.728,277.612 122.5,281C 96.8268,281.833 71.1602,281.666 45.5,280.5C 42.0742,273.976 38.4075,267.642 34.5,261.5C 35.8333,261.5 37.1667,261.5 38.5,261.5C 45.1506,267.813 52.8173,272.48 61.5,275.5C 70.8002,279.829 80.4669,281.162 90.5,279.5C 105.934,277.448 119.267,271.115 130.5,260.5 Z"/></g>
<g><path style="opacity:1" fill="#767676" d="M 104.5,278.5 C 109.975,279.489 115.642,279.822 121.5,279.5C 115.013,280.654 108.346,280.821 101.5,280C 102.244,278.961 103.244,278.461 104.5,278.5 Z"/></g>
<g><path style="opacity:1" fill="#747474" d="M 64.5,278.5 C 65.7562,278.461 66.7562,278.961 67.5,280C 60.6536,280.821 53.987,280.654 47.5,279.5C 53.358,279.822 59.0247,279.489 64.5,278.5 Z"/></g>
<g><path style="opacity:1" fill="#989898" d="M 61.5,275.5 C 70.9362,278.324 80.6029,279.657 90.5,279.5C 80.4669,281.162 70.8002,279.829 61.5,275.5 Z"/></g>
<g><path style="opacity:1" fill="#ededed" d="M 64.5,278.5 C 59.0247,279.489 53.358,279.822 47.5,279.5C 43.8474,274.525 41.0141,269.191 39,263.5C 45.9034,271.202 54.4034,276.202 64.5,278.5 Z"/></g>
</svg>
