<?xml version="1.0" encoding="UTF-8"?>
<!DOCTYPE svg PUBLIC "-//W3C//DTD SVG 1.1//EN" "http://www.w3.org/Graphics/SVG/1.1/DTD/svg11.dtd">
<svg xmlns="http://www.w3.org/2000/svg" version="1.1" width="204px" height="352px" style="shape-rendering:geometricPrecision; text-rendering:geometricPrecision; image-rendering:optimizeQuality; fill-rule:evenodd; clip-rule:evenodd" xmlns:xlink="http://www.w3.org/1999/xlink">
<g><path style="opacity:1" fill="#fcfcfc" d="M -0.5,-0.5 C 67.5,-0.5 135.5,-0.5 203.5,-0.5C 203.5,116.833 203.5,234.167 203.5,351.5C 135.5,351.5 67.5,351.5 -0.5,351.5C -0.5,234.167 -0.5,116.833 -0.5,-0.5 Z"/></g>
<g><path style="opacity:1" fill="#2a2a2a" d="M 179.5,25.5 C 180.493,33.9839 180.826,42.6506 180.5,51.5C 179.209,51.2627 178.209,51.596 177.5,52.5C 171.491,52.3338 165.491,52.5005 159.5,53C 157.685,53.7568 156.019,54.5902 154.5,55.5C 152.574,56.2423 150.741,57.2423 149,58.5C 148.171,80.004 148.337,101.337 149.5,122.5C 151.349,123.593 153.016,124.926 154.5,126.5C 154.5,126.833 154.5,127.167 154.5,127.5C 151.729,126.367 148.896,125.367 146,124.5C 140.833,125.614 135.666,126.614 130.5,127.5C 128.973,127.427 127.973,128.094 127.5,129.5C 125.886,127.925 123.886,127.259 121.5,127.5C 129.742,125.985 138.075,124.318 146.5,122.5C 146.5,101.167 146.5,79.8333 146.5,58.5C 136.701,55.7557 126.701,54.0891 116.5,53.5C 105.674,52.341 94.6745,52.1743 83.5,53C 79.2639,53.3349 75.2639,54.1682 71.5,55.5C 66.8526,56.4842 62.1859,57.4842 57.5,58.5C 56.8335,68.9947 56.5001,79.6614 56.5,90.5C 56.5012,101.522 57.1679,112.188 58.5,122.5C 64.6463,124.596 70.9796,125.93 77.5,126.5C 79.631,127.314 81.9644,127.814 84.5,128C 93.4938,128.5 102.494,128.666 111.5,128.5C 115.833,129.167 120.167,129.833 124.5,130.5C 89.6627,130.832 54.996,130.498 20.5,129.5C 23.0593,129.802 25.3926,129.468 27.5,128.5C 32.1785,128.666 36.8452,128.499 41.5,128C 44.4757,127.295 47.1423,126.129 49.5,124.5C 51.1703,124.249 52.6703,123.582 54,122.5C 54.6667,101.167 54.6667,79.8333 54,58.5C 45.5751,53.2698 36.4084,51.2698 26.5,52.5C 25.5,51.8333 24.5,51.1667 23.5,50.5C 75.5,50.5 127.5,50.5 179.5,50.5C 179.5,42.1667 179.5,33.8333 179.5,25.5 Z"/></g>
<g><path style="opacity:1" fill="#2f2f2f" d="M 124.5,130.5 C 120.167,129.833 115.833,129.167 111.5,128.5C 114.059,128.802 116.393,128.468 118.5,127.5C 119.5,127.5 120.5,127.5 121.5,127.5C 123.886,127.259 125.886,127.925 127.5,129.5C 136.857,129.832 146.19,129.498 155.5,128.5C 155.376,127.893 155.043,127.56 154.5,127.5C 154.5,127.167 154.5,126.833 154.5,126.5C 162.553,128.616 170.553,128.949 178.5,127.5C 183.134,126.686 187.467,125.019 191.5,122.5C 192.833,101.167 192.833,79.8333 191.5,58.5C 188.843,56.3923 185.843,55.059 182.5,54.5C 181.22,53.0687 179.553,52.4021 177.5,52.5C 178.209,51.596 179.209,51.2627 180.5,51.5C 180.826,42.6506 180.493,33.9839 179.5,25.5C 178.527,20.3534 175.527,16.8534 170.5,15C 124.167,14.3333 77.8333,14.3333 31.5,15C 28.3333,16.8333 25.8333,19.3333 24,22.5C 23.5002,31.8274 23.3335,41.1607 23.5,50.5C 24.5,51.1667 25.5,51.8333 26.5,52.5C 21.0403,52.9797 16.207,54.9797 12,58.5C 11.3333,79.8333 11.3333,101.167 12,122.5C 13.7409,123.758 15.5742,124.758 17.5,125.5C 20.5502,127.101 23.8835,128.101 27.5,128.5C 25.3926,129.468 23.0593,129.802 20.5,129.5C 16.3267,128.163 12.4934,126.163 9,123.5C 8.33333,101.5 8.33333,79.5 9,57.5C 12.75,55.0411 16.5834,52.7078 20.5,50.5C 21.3321,40.8505 21.8321,31.1838 22,21.5C 23.7932,18.7047 25.9598,16.2047 28.5,14C 76.0834,12.3434 123.75,12.0101 171.5,13C 175.612,14.7786 178.778,17.6119 181,21.5C 181.333,31.1667 181.667,40.8333 182,50.5C 186.164,52.581 190.164,54.9143 194,57.5C 194.667,79.5 194.667,101.5 194,123.5C 190.086,125.54 186.252,127.707 182.5,130C 163.17,130.5 143.836,130.667 124.5,130.5 Z"/></g>
<g><path style="opacity:1" fill="#dddddd" d="M 154.5,55.5 C 153.343,57.1376 152.176,58.8043 151,60.5C 150.667,60.1667 150.333,59.8333 150,59.5C 149.5,80.4974 149.333,101.497 149.5,122.5C 148.337,101.337 148.171,80.004 149,58.5C 150.741,57.2423 152.574,56.2423 154.5,55.5 Z"/></g>
<g><path style="opacity:1" fill="#fcfcfc" d="M 182.5,54.5 C 185.843,55.059 188.843,56.3923 191.5,58.5C 192.833,79.8333 192.833,101.167 191.5,122.5C 187.467,125.019 183.134,126.686 178.5,127.5C 170.676,127.968 163.009,127.135 155.5,125C 154.789,123.745 153.956,122.579 153,121.5C 151.989,122.337 150.822,122.67 149.5,122.5C 149.333,101.497 149.5,80.4974 150,59.5C 150.333,59.8333 150.667,60.1667 151,60.5C 152.176,58.8043 153.343,57.1376 154.5,55.5C 163.755,53.3194 173.088,52.9861 182.5,54.5 Z"/></g>
<g><path style="opacity:1" fill="#e4e4e4" d="M 131.5,53.5 C 138.833,52.1667 146.167,52.1667 153.5,53.5C 150.923,54.3743 148.423,55.3743 146,56.5C 141.237,55.1231 136.404,54.1231 131.5,53.5 Z"/></g>
<g><path style="opacity:1" fill="#fcfcfc" d="M 116.5,53.5 C 126.701,54.0891 136.701,55.7557 146.5,58.5C 146.5,79.8333 146.5,101.167 146.5,122.5C 138.075,124.318 129.742,125.985 121.5,127.5C 120.5,127.5 119.5,127.5 118.5,127.5C 104.817,127.645 91.1505,127.312 77.5,126.5C 70.9796,125.93 64.6463,124.596 58.5,122.5C 57.5118,101.242 57.1785,79.9088 57.5,58.5C 62.1859,57.4842 66.8526,56.4842 71.5,55.5C 86.4325,53.7727 101.433,53.106 116.5,53.5 Z"/></g>
<g><path style="opacity:1" fill="#bfbfbf" d="M 116.5,53.5 C 101.433,53.106 86.4325,53.7727 71.5,55.5C 75.2639,54.1682 79.2639,53.3349 83.5,53C 94.6745,52.1743 105.674,52.341 116.5,53.5 Z"/></g>
<g><path style="opacity:1" fill="#e7e7e7" d="M 49.5,53.5 C 56.5,52.1667 63.5,52.1667 70.5,53.5C 65.7091,53.864 61.0425,54.864 56.5,56.5C 54.0297,55.7634 51.6964,54.7634 49.5,53.5 Z"/></g>
<g><path style="opacity:1" fill="#fcfcfc" d="M 26.5,52.5 C 36.4084,51.2698 45.5751,53.2698 54,58.5C 54.6667,79.8333 54.6667,101.167 54,122.5C 52.6703,123.582 51.1703,124.249 49.5,124.5C 44.4833,126.227 39.3166,127.227 34,127.5C 28.4583,127.104 22.9583,126.437 17.5,125.5C 15.5742,124.758 13.7409,123.758 12,122.5C 11.3333,101.167 11.3333,79.8333 12,58.5C 16.207,54.9797 21.0403,52.9797 26.5,52.5 Z"/></g>
<g><path style="opacity:1" fill="#c4c4c4" d="M 177.5,52.5 C 179.553,52.4021 181.22,53.0687 182.5,54.5C 173.088,52.9861 163.755,53.3194 154.5,55.5C 156.019,54.5902 157.685,53.7568 159.5,53C 165.491,52.5005 171.491,52.3338 177.5,52.5 Z"/></g>
<g><path style="opacity:1" fill="#656565" d="M 153.5,53.5 C 146.167,52.1667 138.833,52.1667 131.5,53.5C 129.897,53.6882 128.563,53.1882 127.5,52C 136.518,51.168 145.518,51.3347 154.5,52.5C 154.376,53.1067 154.043,53.44 153.5,53.5 Z"/></g>
<g><path style="opacity:1" fill="#686868" d="M 70.5,53.5 C 63.5,52.1667 56.5,52.1667 49.5,53.5C 48.9569,53.44 48.6236,53.1067 48.5,52.5C 57.1475,51.3348 65.8142,51.1681 74.5,52C 73.4366,53.1882 72.1033,53.6882 70.5,53.5 Z"/></g>
<g><path style="opacity:1" fill="#f8f8f8" d="M 179.5,25.5 C 179.5,33.8333 179.5,42.1667 179.5,50.5C 127.5,50.5 75.5,50.5 23.5,50.5C 23.3335,41.1607 23.5002,31.8274 24,22.5C 25.8333,19.3333 28.3333,16.8333 31.5,15C 77.8333,14.3333 124.167,14.3333 170.5,15C 175.527,16.8534 178.527,20.3534 179.5,25.5 Z"/></g>
<g><path style="opacity:1" fill="#9c9c9c" d="M 57.5,58.5 C 57.1785,79.9088 57.5118,101.242 58.5,122.5C 57.1679,112.188 56.5012,101.522 56.5,90.5C 56.5001,79.6614 56.8335,68.9947 57.5,58.5 Z"/></g>
<g><path style="opacity:1" fill="#cecece" d="M 178.5,127.5 C 170.553,128.949 162.553,128.616 154.5,126.5C 153.016,124.926 151.349,123.593 149.5,122.5C 150.822,122.67 151.989,122.337 153,121.5C 153.956,122.579 154.789,123.745 155.5,125C 163.009,127.135 170.676,127.968 178.5,127.5 Z"/></g>
<g><path style="opacity:1" fill="#cfcfcf" d="M 49.5,124.5 C 47.1423,126.129 44.4757,127.295 41.5,128C 36.8452,128.499 32.1785,128.666 27.5,128.5C 23.8835,128.101 20.5502,127.101 17.5,125.5C 22.9583,126.437 28.4583,127.104 34,127.5C 39.3166,127.227 44.4833,126.227 49.5,124.5 Z"/></g>
<g><path style="opacity:1" fill="#e4e4e4" d="M 70.5,127.5 C 63.1667,128.833 55.8333,128.833 48.5,127.5C 51.1505,126.51 53.8172,125.51 56.5,124.5C 61.1128,125.82 65.7794,126.82 70.5,127.5 Z"/></g>
<g><path style="opacity:1" fill="#c2c2c2" d="M 77.5,126.5 C 91.1505,127.312 104.817,127.645 118.5,127.5C 116.393,128.468 114.059,128.802 111.5,128.5C 102.494,128.666 93.4938,128.5 84.5,128C 81.9644,127.814 79.631,127.314 77.5,126.5 Z"/></g>
<g><path style="opacity:1" fill="#dfdfdf" d="M 154.5,127.5 C 146.5,128.833 138.5,128.833 130.5,127.5C 135.666,126.614 140.833,125.614 146,124.5C 148.896,125.367 151.729,126.367 154.5,127.5 Z"/></g>
<g><path style="opacity:1" fill="#616161" d="M 48.5,127.5 C 55.8333,128.833 63.1667,128.833 70.5,127.5C 72.4286,127.231 74.0953,127.731 75.5,129C 66.1489,129.832 56.8155,129.665 47.5,128.5C 47.6236,127.893 47.9569,127.56 48.5,127.5 Z"/></g>
<g><path style="opacity:1" fill="#606060" d="M 130.5,127.5 C 138.5,128.833 146.5,128.833 154.5,127.5C 155.043,127.56 155.376,127.893 155.5,128.5C 146.19,129.498 136.857,129.832 127.5,129.5C 127.973,128.094 128.973,127.427 130.5,127.5 Z"/></g>
<g><path style="opacity:1" fill="#f9f9f9" d="M 114.5,185.5 C 116.903,185.448 119.236,185.781 121.5,186.5C 122.209,187.404 123.209,187.737 124.5,187.5C 166.249,203.97 184.082,234.637 178,279.5C 174.619,293.601 168.119,305.934 158.5,316.5C 144.68,329.576 128.347,337.576 109.5,340.5C 101.817,340.477 94.1499,340.143 86.5,339.5C 69.6289,335.901 55.2956,327.901 43.5,315.5C 23.2986,290.646 18.4652,262.979 29,232.5C 39.0751,210.251 55.5751,195.251 78.5,187.5C 79.791,187.737 80.791,187.404 81.5,186.5C 82.5,186.5 83.5,186.5 84.5,186.5C 94.4519,184.504 104.452,184.17 114.5,185.5 Z"/></g>
<g><path style="opacity:1" fill="#202020" d="M 158.5,324.5 C 157.662,324.158 157.328,323.492 157.5,322.5C 157.833,321.833 158.167,321.167 158.5,320.5C 159.354,319.368 159.354,318.035 158.5,316.5C 168.119,305.934 174.619,293.601 178,279.5C 184.082,234.637 166.249,203.97 124.5,187.5C 125.209,186.596 126.209,186.263 127.5,186.5C 138.673,190.146 148.506,196.146 157,204.5C 154.32,197.477 150.82,190.81 146.5,184.5C 138.657,183.18 130.657,183.18 122.5,184.5C 123.981,185.944 123.648,186.611 121.5,186.5C 119.236,185.781 116.903,185.448 114.5,185.5C 110.258,184.032 105.758,183.366 101,183.5C 95.1284,183.176 89.6284,184.176 84.5,186.5C 83.5,186.5 82.5,186.5 81.5,186.5C 79.3523,186.611 79.019,185.944 80.5,184.5C 72.3428,183.18 64.3428,183.18 56.5,184.5C 52.163,190.845 48.663,197.512 46,204.5C 54.2596,195.793 64.0929,189.793 75.5,186.5C 76.791,186.263 77.791,186.596 78.5,187.5C 55.5751,195.251 39.0751,210.251 29,232.5C 18.4652,262.979 23.2986,290.646 43.5,315.5C 43.0461,317.259 43.0461,319.259 43.5,321.5C 31.4195,302.349 20.0861,282.682 9.5,262.5C 23.8104,235.88 38.6437,209.547 54,183.5C 85.4283,182.338 116.928,182.171 148.5,183C 164.032,209.069 179.032,235.402 193.5,262C 182.482,283.204 170.815,304.037 158.5,324.5 Z"/></g>
<g><path style="opacity:1" fill="#ececec" d="M 146.5,184.5 C 150.82,190.81 154.32,197.477 157,204.5C 148.506,196.146 138.673,190.146 127.5,186.5C 126.737,185.732 125.737,185.232 124.5,185C 131.826,184.5 139.159,184.334 146.5,184.5 Z"/></g>
<g><path style="opacity:1" fill="#ededed" d="M 56.5,184.5 C 63.8409,184.334 71.1742,184.5 78.5,185C 77.2625,185.232 76.2625,185.732 75.5,186.5C 64.0929,189.793 54.2596,195.793 46,204.5C 48.663,197.512 52.163,190.845 56.5,184.5 Z"/></g>
<g><path style="opacity:1" fill="#6e6e6e" d="M 146.5,184.5 C 139.159,184.334 131.826,184.5 124.5,185C 125.737,185.232 126.737,185.732 127.5,186.5C 126.209,186.263 125.209,186.596 124.5,187.5C 123.209,187.737 122.209,187.404 121.5,186.5C 123.648,186.611 123.981,185.944 122.5,184.5C 130.657,183.18 138.657,183.18 146.5,184.5 Z"/></g>
<g><path style="opacity:1" fill="#7b7b7b" d="M 114.5,185.5 C 104.452,184.17 94.4519,184.504 84.5,186.5C 89.6284,184.176 95.1284,183.176 101,183.5C 105.758,183.366 110.258,184.032 114.5,185.5 Z"/></g>
<g><path style="opacity:1" fill="#6e6e6e" d="M 56.5,184.5 C 64.3428,183.18 72.3428,183.18 80.5,184.5C 79.019,185.944 79.3523,186.611 81.5,186.5C 80.791,187.404 79.791,187.737 78.5,187.5C 77.791,186.596 76.791,186.263 75.5,186.5C 76.2625,185.732 77.2625,185.232 78.5,185C 71.1742,184.5 63.8409,184.334 56.5,184.5 Z"/></g>
<g><path style="opacity:1" fill="#ececec" d="M 23.5,240.5 C 24.0431,240.56 24.3764,240.893 24.5,241.5C 22.0734,247.758 21.0734,254.258 21.5,261C 21.6252,268.245 22.1252,275.412 23,282.5C 18.9139,275.997 15.0806,269.33 11.5,262.5C 15.5123,255.14 19.5123,247.806 23.5,240.5 Z"/></g>
<g><path style="opacity:1" fill="#ededed" d="M 179.5,241.5 C 183.606,248.204 187.606,255.038 191.5,262C 188.04,269.092 184.206,275.925 180,282.5C 182.138,268.846 181.972,255.179 179.5,241.5 Z"/></g>
<g><path style="opacity:1" fill="#8f8f8f" d="M 141.5,251.5 C 142.222,251.918 142.722,252.584 143,253.5C 143.815,258.352 143.648,263.019 142.5,267.5C 142.676,262.12 142.342,256.787 141.5,251.5 Z"/></g>
<g><path style="opacity:1" fill="#898989" d="M 54.5,266.5 C 53.71,265.391 53.21,264.058 53,262.5C 52.5065,264.134 52.3398,265.801 52.5,267.5C 51.5386,265.735 51.2053,263.735 51.5,261.5C 52.5,261.5 53.5,261.5 54.5,261.5C 54.5,263.167 54.5,264.833 54.5,266.5 Z"/></g>
<g><path style="opacity:1" fill="#323232" d="M 141.5,251.5 C 142.342,256.787 142.676,262.12 142.5,267.5C 139.301,287.699 127.634,299.699 107.5,303.5C 104.15,303.665 100.817,303.498 97.5,303C 100.695,302.819 103.695,302.319 106.5,301.5C 131.943,295.184 143.109,278.851 140,252.5C 135.208,237.875 125.375,228.542 110.5,224.5C 101.925,221.552 93.5914,222.218 85.5,226.5C 68.3174,235.193 60.8174,249.193 63,268.5C 65.931,284.593 75.0976,295.26 90.5,300.5C 89.791,301.404 88.791,301.737 87.5,301.5C 73.6152,296.107 64.7819,286.107 61,271.5C 57.5981,245.464 68.4314,228.631 93.5,221C 117.518,218.895 133.518,229.061 141.5,251.5 Z"/></g>
<g><path style="opacity:1" fill="#fcfcfc" d="M 110.5,224.5 C 125.375,228.542 135.208,237.875 140,252.5C 143.109,278.851 131.943,295.184 106.5,301.5C 101.073,301.782 95.7401,301.449 90.5,300.5C 75.0976,295.26 65.931,284.593 63,268.5C 60.8174,249.193 68.3174,235.193 85.5,226.5C 93.7148,224.765 102.048,224.098 110.5,224.5 Z"/></g>
<g><path style="opacity:1" fill="#cacaca" d="M 110.5,224.5 C 102.048,224.098 93.7148,224.765 85.5,226.5C 93.5914,222.218 101.925,221.552 110.5,224.5 Z"/></g>
<g><path style="opacity:1" fill="#2d2d2d" d="M 52.5,267.5 C 52.3398,265.801 52.5065,264.134 53,262.5C 53.21,264.058 53.71,265.391 54.5,266.5C 59.232,296.065 76.5654,310.565 106.5,310C 138.292,302.851 152.126,283.018 148,250.5C 140.196,227.999 124.363,215.666 100.5,213.5C 127.358,213.831 144.192,227.164 151,253.5C 153.299,279.414 142.799,297.914 119.5,309C 90.9758,317.651 69.8092,308.818 56,282.5C 54.0425,277.671 52.8758,272.671 52.5,267.5 Z"/></g>
<g><path style="opacity:1" fill="#585858" d="M 90.5,300.5 C 95.7401,301.449 101.073,301.782 106.5,301.5C 103.695,302.319 100.695,302.819 97.5,303C 100.817,303.498 104.15,303.665 107.5,303.5C 103.019,304.648 98.3522,304.815 93.5,304C 91.2774,303.434 89.2774,302.6 87.5,301.5C 88.791,301.737 89.791,301.404 90.5,300.5 Z"/></g>
<g><path style="opacity:1" fill="#e9e9e9" d="M 158.5,320.5 C 158.167,321.167 157.833,321.833 157.5,322.5C 153.802,328.52 150.135,334.52 146.5,340.5C 138.648,340.825 130.982,340.492 123.5,339.5C 136.764,335.788 148.264,329.121 158,319.5C 158.399,319.728 158.565,320.062 158.5,320.5 Z"/></g>
<g><path style="opacity:1" fill="#282828" d="M 43.5,315.5 C 55.2956,327.901 69.6289,335.901 86.5,339.5C 94.1107,341.539 101.777,341.872 109.5,340.5C 128.347,337.576 144.68,329.576 158.5,316.5C 159.354,318.035 159.354,319.368 158.5,320.5C 158.565,320.062 158.399,319.728 158,319.5C 148.264,329.121 136.764,335.788 123.5,339.5C 122.624,339.369 121.957,339.702 121.5,340.5C 129.991,341.821 138.324,341.821 146.5,340.5C 150.135,334.52 153.802,328.52 157.5,322.5C 157.328,323.492 157.662,324.158 158.5,324.5C 155.194,330.149 151.861,335.816 148.5,341.5C 117.167,342.833 85.8333,342.833 54.5,341.5C 50.3011,335.1 46.6344,328.433 43.5,321.5C 43.0461,319.259 43.0461,317.259 43.5,315.5 Z"/></g>
<g><path style="opacity:1" fill="#5d5d5d" d="M 123.5,339.5 C 130.982,340.492 138.648,340.825 146.5,340.5C 138.324,341.821 129.991,341.821 121.5,340.5C 121.957,339.702 122.624,339.369 123.5,339.5 Z"/></g>
<g><path style="opacity:1" fill="#5a5a5a" d="M 86.5,339.5 C 94.1499,340.143 101.817,340.477 109.5,340.5C 101.777,341.872 94.1107,341.539 86.5,339.5 Z"/></g>
<g><path style="opacity:1" fill="#ececec" d="M 44.5,319.5 C 54.1357,329.151 65.4691,335.984 78.5,340C 71.1667,340.667 63.8333,340.667 56.5,340C 52.0984,333.358 48.0984,326.525 44.5,319.5 Z"/></g>
</svg>
