<?xml version="1.0" encoding="UTF-8"?>
<!DOCTYPE svg PUBLIC "-//W3C//DTD SVG 1.1//EN" "http://www.w3.org/Graphics/SVG/1.1/DTD/svg11.dtd">
<svg xmlns="http://www.w3.org/2000/svg" version="1.1" width="176px" height="347px" style="shape-rendering:geometricPrecision; text-rendering:geometricPrecision; image-rendering:optimizeQuality; fill-rule:evenodd; clip-rule:evenodd" xmlns:xlink="http://www.w3.org/1999/xlink">
<g><path style="opacity:1" fill="#fdfdfd" d="M -0.5,-0.5 C 58.1667,-0.5 116.833,-0.5 175.5,-0.5C 175.5,115.167 175.5,230.833 175.5,346.5C 116.833,346.5 58.1667,346.5 -0.5,346.5C -0.5,230.833 -0.5,115.167 -0.5,-0.5 Z"/></g>
<g><path style="opacity:1" fill="#393939" d="M 135.5,46.5 C 134.833,49.8333 134.167,53.1667 133.5,56.5C 133.967,29.9386 121.3,13.4386 95.5,7C 68.906,4.27327 51.0726,15.4399 42,40.5C 41.5045,42.4727 41.3379,44.4727 41.5,46.5C 40.1667,50.1667 40.1667,53.8333 41.5,57.5C 74.8333,58.1667 108.167,58.8333 141.5,59.5C 104.832,59.3333 68.1652,59.5 31.5,60C 30.0692,60.4652 28.9025,61.2986 28,62.5C 24.3241,69.8615 20.1575,76.8615 15.5,83.5C 15.1583,82.6618 14.4916,82.3284 13.5,82.5C 18.0935,76.3183 21.9269,69.6516 25,62.5C 28.3344,57.9446 32.8344,56.278 38.5,57.5C 37.3795,37.911 44.7128,22.411 60.5,11C 89.7404,-2.98293 113.24,3.51707 131,30.5C 133.699,35.4969 135.199,40.8302 135.5,46.5 Z"/></g>
<g><path style="opacity:1" fill="#fcfcfc" d="M 133.5,56.5 C 102.833,56.5 72.1667,56.5 41.5,56.5C 41.5,53.1667 41.5,49.8333 41.5,46.5C 41.3379,44.4727 41.5045,42.4727 42,40.5C 51.0726,15.4399 68.906,4.27327 95.5,7C 121.3,13.4386 133.967,29.9386 133.5,56.5 Z"/></g>
<g><path style="opacity:1" fill="#969696" d="M 135.5,46.5 C 136.479,49.6248 136.813,52.9581 136.5,56.5C 138.735,56.2053 140.735,56.5386 142.5,57.5C 140.167,57.5 137.833,57.5 135.5,57.5C 135.5,53.8333 135.5,50.1667 135.5,46.5 Z"/></g>
<g><path style="opacity:1" fill="#9b9b9b" d="M 41.5,46.5 C 41.5,49.8333 41.5,53.1667 41.5,56.5C 72.1667,56.5 102.833,56.5 133.5,56.5C 103.005,57.4981 72.3379,57.8315 41.5,57.5C 40.1667,53.8333 40.1667,50.1667 41.5,46.5 Z"/></g>
<g><path style="opacity:1" fill="#fafafa" d="M 141.5,59.5 C 143.426,60.2423 145.259,61.2423 147,62.5C 151.037,71.1883 155.87,79.3549 161.5,87C 158.821,86.7816 156.155,86.115 153.5,85C 147.833,84.3333 142.167,84.3333 136.5,85C 132.589,86.7908 128.589,88.2908 124.5,89.5C 99.641,82.865 74.8076,82.865 50,89.5C 40.3092,84.965 30.1425,83.465 19.5,85C 18.5842,85.2784 17.9175,85.7784 17.5,86.5C 13.2601,87.9254 12.5934,86.9254 15.5,83.5C 20.1575,76.8615 24.3241,69.8615 28,62.5C 28.9025,61.2986 30.0692,60.4652 31.5,60C 68.1652,59.5 104.832,59.3333 141.5,59.5 Z"/></g>
<g><path style="opacity:1" fill="#fcfcfc" d="M 39.5,149.5 C 38.8333,149.5 38.1667,149.5 37.5,149.5C 29.9483,150.127 22.6149,149.294 15.5,147C 14.6667,145.5 13.5,144.333 12,143.5C 11.5001,126.17 11.3334,108.837 11.5,91.5C 13.8485,89.659 16.5152,88.3257 19.5,87.5C 29.2169,85.1974 38.3835,86.5307 47,91.5C 47.6667,109.5 47.6667,127.5 47,145.5C 44.3673,146.752 41.8673,148.086 39.5,149.5 Z"/></g>
<g><path style="opacity:1" fill="#252525" d="M 135.5,46.5 C 135.5,50.1667 135.5,53.8333 135.5,57.5C 137.833,57.5 140.167,57.5 142.5,57.5C 144.736,58.3891 146.736,59.7224 148.5,61.5C 153.857,70.8881 159.19,80.2214 164.5,89.5C 164.167,90.1667 163.833,90.8333 163.5,91.5C 155.516,86.7799 146.849,85.2799 137.5,87C 133.938,87.7389 130.772,89.2389 128,91.5C 127.167,109.842 127.334,128.176 128.5,146.5C 130.396,147.275 132.063,148.275 133.5,149.5C 132.833,149.5 132.5,149.833 132.5,150.5C 131.609,149.89 130.609,149.557 129.5,149.5C 128.085,148.711 126.585,148.044 125,147.5C 122.276,148.687 119.443,149.353 116.5,149.5C 114.62,149.229 113.287,149.896 112.5,151.5C 110.544,149.852 108.211,149.185 105.5,149.5C 112.005,148.015 118.672,146.682 125.5,145.5C 125.5,127.5 125.5,109.5 125.5,91.5C 100.489,84.8548 75.4886,84.8548 50.5,91.5C 49.1667,109.5 49.1667,127.5 50.5,145.5C 53.3992,146.642 56.3992,147.308 59.5,147.5C 60.8333,148.167 62.1667,148.833 63.5,149.5C 65.0311,150.925 64.6977,151.591 62.5,151.5C 61.3646,149.787 59.698,149.12 57.5,149.5C 54.5569,149.353 51.7236,148.687 49,147.5C 47.415,148.044 45.915,148.711 44.5,149.5C 43.1667,149.5 42.5,150.167 42.5,151.5C 41.7777,150.449 40.7777,149.782 39.5,149.5C 41.8673,148.086 44.3673,146.752 47,145.5C 47.6667,127.5 47.6667,109.5 47,91.5C 38.3835,86.5307 29.2169,85.1974 19.5,87.5C 19.1583,86.6618 18.4916,86.3284 17.5,86.5C 17.9175,85.7784 18.5842,85.2784 19.5,85C 30.1425,83.465 40.3092,84.965 50,89.5C 74.8076,82.865 99.641,82.865 124.5,89.5C 128.589,88.2908 132.589,86.7908 136.5,85C 142.167,84.3333 147.833,84.3333 153.5,85C 156.155,86.115 158.821,86.7816 161.5,87C 155.87,79.3549 151.037,71.1883 147,62.5C 145.259,61.2423 143.426,60.2423 141.5,59.5C 108.167,58.8333 74.8333,58.1667 41.5,57.5C 72.3379,57.8315 103.005,57.4981 133.5,56.5C 134.167,53.1667 134.833,49.8333 135.5,46.5 Z"/></g>
<g><path style="opacity:1" fill="#fbfbfb" d="M 105.5,149.5 C 105.167,149.5 104.833,149.5 104.5,149.5C 89.4237,149.922 74.4237,149.256 59.5,147.5C 56.3992,147.308 53.3992,146.642 50.5,145.5C 49.1667,127.5 49.1667,109.5 50.5,91.5C 75.4886,84.8548 100.489,84.8548 125.5,91.5C 125.5,109.5 125.5,127.5 125.5,145.5C 118.672,146.682 112.005,148.015 105.5,149.5 Z"/></g>
<g><path style="opacity:1" fill="#f9f9f9" d="M 163.5,91.5 C 164.827,109.338 164.827,127.338 163.5,145.5C 160.754,147.473 157.754,148.973 154.5,150C 147.45,150.76 140.45,150.593 133.5,149.5C 132.063,148.275 130.396,147.275 128.5,146.5C 127.334,128.176 127.167,109.842 128,91.5C 130.772,89.2389 133.938,87.7389 137.5,87C 146.849,85.2799 155.516,86.7799 163.5,91.5 Z"/></g>
<g><path style="opacity:1" fill="#2c2c2c" d="M 13.5,82.5 C 14.4916,82.3284 15.1583,82.6618 15.5,83.5C 12.5934,86.9254 13.2601,87.9254 17.5,86.5C 18.4916,86.3284 19.1583,86.6618 19.5,87.5C 16.5152,88.3257 13.8485,89.659 11.5,91.5C 10.338,109.329 10.1713,127.329 11,145.5C 13.4689,147.652 16.3022,149.152 19.5,150C 25.6812,150.819 31.6812,150.653 37.5,149.5C 38.1667,149.5 38.8333,149.5 39.5,149.5C 40.7777,149.782 41.7777,150.449 42.5,151.5C 49.1667,151.5 55.8333,151.5 62.5,151.5C 64.6977,151.591 65.0311,150.925 63.5,149.5C 71.2981,150.496 79.1314,151.163 87,151.5C 93.0592,151.55 98.8926,150.883 104.5,149.5C 104.833,149.5 105.167,149.5 105.5,149.5C 108.211,149.185 110.544,149.852 112.5,151.5C 119.354,151.824 126.021,151.491 132.5,150.5C 132.5,149.833 132.833,149.5 133.5,149.5C 140.45,150.593 147.45,150.76 154.5,150C 157.754,148.973 160.754,147.473 163.5,145.5C 164.827,127.338 164.827,109.338 163.5,91.5C 163.833,90.8333 164.167,90.1667 164.5,89.5C 165.117,89.6107 165.617,89.944 166,90.5C 166.667,109.167 166.667,127.833 166,146.5C 162.584,148.792 159.084,150.959 155.5,153C 109.833,153.667 64.1667,153.667 18.5,153C 15.073,151.204 11.9063,149.037 9,146.5C 8.33333,127.5 8.33333,108.5 9,89.5C 10.7235,87.2833 12.2235,84.95 13.5,82.5 Z"/></g>
<g><path style="opacity:1" fill="#858585" d="M 116.5,149.5 C 120.833,150.833 125.167,150.833 129.5,149.5C 130.609,149.557 131.609,149.89 132.5,150.5C 126.021,151.491 119.354,151.824 112.5,151.5C 113.287,149.896 114.62,149.229 116.5,149.5 Z"/></g>
<g><path style="opacity:1" fill="#7f7f7f" d="M 44.5,149.5 C 48.8333,150.833 53.1667,150.833 57.5,149.5C 59.698,149.12 61.3646,149.787 62.5,151.5C 55.8333,151.5 49.1667,151.5 42.5,151.5C 42.5,150.167 43.1667,149.5 44.5,149.5 Z"/></g>
<g><path style="opacity:1" fill="#e4e4e4" d="M 129.5,149.5 C 125.167,150.833 120.833,150.833 116.5,149.5C 119.443,149.353 122.276,148.687 125,147.5C 126.585,148.044 128.085,148.711 129.5,149.5 Z"/></g>
<g><path style="opacity:1" fill="#b4b4b4" d="M 59.5,147.5 C 74.4237,149.256 89.4237,149.922 104.5,149.5C 98.8926,150.883 93.0592,151.55 87,151.5C 79.1314,151.163 71.2981,150.496 63.5,149.5C 62.1667,148.833 60.8333,148.167 59.5,147.5 Z"/></g>
<g><path style="opacity:1" fill="#e4e4e4" d="M 57.5,149.5 C 53.1667,150.833 48.8333,150.833 44.5,149.5C 45.915,148.711 47.415,148.044 49,147.5C 51.7236,148.687 54.5569,149.353 57.5,149.5 Z"/></g>
<g><path style="opacity:1" fill="#d4d4d4" d="M 11.5,91.5 C 11.3334,108.837 11.5001,126.17 12,143.5C 13.5,144.333 14.6667,145.5 15.5,147C 22.6149,149.294 29.9483,150.127 37.5,149.5C 31.6812,150.653 25.6812,150.819 19.5,150C 16.3022,149.152 13.4689,147.652 11,145.5C 10.1713,127.329 10.338,109.329 11.5,91.5 Z"/></g>
<g><path style="opacity:1" fill="#252525" d="M 127.5,337.5 C 126.508,337.672 125.842,337.338 125.5,336.5C 128.071,331.695 130.904,327.028 134,322.5C 134.688,321.668 134.521,321.002 133.5,320.5C 125.858,327.824 116.858,332.824 106.5,335.5C 104.108,336.713 101.441,337.379 98.5,337.5C 95.9746,337.497 93.6413,337.163 91.5,336.5C 133.886,328.942 154.386,303.608 153,260.5C 144.629,224.464 121.963,205.464 85,203.5C 81.9792,203.502 79.1459,203.836 76.5,204.5C 71.8354,205.057 67.5021,206.39 63.5,208.5C 42.5134,216.658 29.0134,231.658 23,253.5C 17.1169,280.85 24.6169,303.683 45.5,322C 51.2442,326.539 57.5776,330.039 64.5,332.5C 67.5046,334.277 70.8379,335.277 74.5,335.5C 76.6074,336.468 78.9407,336.802 81.5,336.5C 79.6965,337.162 77.6965,337.495 75.5,337.5C 72.3776,337.149 69.3776,336.482 66.5,335.5C 56.7886,332.722 48.2886,327.722 41,320.5C 43.0141,326.191 45.8474,331.525 49.5,336.5C 49.1583,337.338 48.4916,337.672 47.5,337.5C 34.1259,315.257 21.1259,292.757 8.5,270C 21.7321,247.545 34.7321,224.878 47.5,202C 73.8333,201.333 100.167,201.333 126.5,202C 139.221,223.948 152.054,245.781 165,267.5C 165.706,269.971 165.373,272.305 164,274.5C 151.606,295.388 139.439,316.388 127.5,337.5 Z"/></g>
<g><path style="opacity:1" fill="#bababa" d="M 76.5,204.5 C 72.4979,206.61 68.1646,207.943 63.5,208.5C 67.5021,206.39 71.8354,205.057 76.5,204.5 Z"/></g>
<g><path style="opacity:1" fill="#e6e6e6" d="M 109.5,205.5 C 114.64,204.512 119.974,204.179 125.5,204.5C 129.153,209.475 131.986,214.809 134,220.5C 127.03,213.596 118.863,208.596 109.5,205.5 Z"/></g>
<g><path style="opacity:1" fill="#f7f7f7" d="M 91.5,336.5 C 88.1667,336.5 84.8333,336.5 81.5,336.5C 78.9407,336.802 76.6074,336.468 74.5,335.5C 71.4954,333.723 68.1621,332.723 64.5,332.5C 57.5776,330.039 51.2442,326.539 45.5,322C 24.6169,303.683 17.1169,280.85 23,253.5C 29.0134,231.658 42.5134,216.658 63.5,208.5C 68.1646,207.943 72.4979,206.61 76.5,204.5C 79.1459,203.836 81.9792,203.502 85,203.5C 121.963,205.464 144.629,224.464 153,260.5C 154.386,303.608 133.886,328.942 91.5,336.5 Z"/></g>
<g><path style="opacity:1" fill="#ededed" d="M 48.5,204.5 C 54.0262,204.179 59.3595,204.512 64.5,205.5C 55.7556,208.373 48.089,213.04 41.5,219.5C 41.1667,219.167 40.8333,218.833 40.5,218.5C 43.5943,214.074 46.261,209.407 48.5,204.5 Z"/></g>
<g><path style="opacity:1" fill="#a3a3a3" d="M 125.5,204.5 C 119.974,204.179 114.64,204.512 109.5,205.5C 108.078,205.291 106.745,204.791 105.5,204C 112.346,203.179 119.013,203.346 125.5,204.5 Z"/></g>
<g><path style="opacity:1" fill="#a4a4a4" d="M 48.5,204.5 C 54.987,203.346 61.6536,203.179 68.5,204C 67.255,204.791 65.9217,205.291 64.5,205.5C 59.3595,204.512 54.0262,204.179 48.5,204.5 Z"/></g>
<g><path style="opacity:1" fill="#e8e8e8" d="M 153.5,253.5 C 157.383,258.576 160.716,264.076 163.5,270C 160.719,275.729 157.553,281.229 154,286.5C 156.093,275.507 155.927,264.507 153.5,253.5 Z"/></g>
<g><path style="opacity:1" fill="#ededed" d="M 19.5,254.5 C 20.1239,254.917 20.4573,255.584 20.5,256.5C 19.4539,260.943 18.7872,265.443 18.5,270C 19.1051,275.216 19.6051,280.383 20,285.5C 16.6441,280.787 13.8108,275.787 11.5,270.5C 13.7514,264.928 16.4181,259.594 19.5,254.5 Z"/></g>
<g><path style="opacity:1" fill="#343434" d="M 75.5,220.5 C 107.445,217.314 127.945,230.981 137,261.5C 137.479,301.021 117.979,320.521 78.5,320C 49.3027,311.456 35.8027,291.956 38,261.5C 42.7088,240.628 55.2088,226.961 75.5,220.5 Z"/></g>
<g><path style="opacity:1" fill="#b4b4b4" d="M 67.5,313.5 C 71.767,314.256 75.767,315.589 79.5,317.5C 75.0845,317.139 71.0845,315.806 67.5,313.5 Z"/></g>
<g><path style="opacity:1" fill="#fcfcfc" d="M 79.5,317.5 C 75.767,315.589 71.767,314.256 67.5,313.5C 49.6371,304.477 40.3038,289.81 39.5,269.5C 42.2552,240.578 58.0885,224.911 87,222.5C 111.494,223.664 127.16,235.997 134,259.5C 137.228,288.248 125.395,307.415 98.5,317C 92.1754,317.5 85.8421,317.666 79.5,317.5 Z"/></g>
<g><path style="opacity:1" fill="#e5e5e5" d="M 66.5,335.5 C 61.0247,336.489 55.358,336.822 49.5,336.5C 45.8474,331.525 43.0141,326.191 41,320.5C 48.2886,327.722 56.7886,332.722 66.5,335.5 Z"/></g>
<g><path style="opacity:1" fill="#e2e2e2" d="M 125.5,336.5 C 118.978,336.823 112.645,336.49 106.5,335.5C 116.858,332.824 125.858,327.824 133.5,320.5C 134.521,321.002 134.688,321.668 134,322.5C 130.904,327.028 128.071,331.695 125.5,336.5 Z"/></g>
<g><path style="opacity:1" fill="#8b8b8b" d="M 64.5,332.5 C 68.1621,332.723 71.4954,333.723 74.5,335.5C 70.8379,335.277 67.5046,334.277 64.5,332.5 Z"/></g>
<g><path style="opacity:1" fill="#3d3d3d" d="M 66.5,335.5 C 69.3776,336.482 72.3776,337.149 75.5,337.5C 77.6965,337.495 79.6965,337.162 81.5,336.5C 84.8333,336.5 88.1667,336.5 91.5,336.5C 93.6413,337.163 95.9746,337.497 98.5,337.5C 101.441,337.379 104.108,336.713 106.5,335.5C 112.645,336.49 118.978,336.823 125.5,336.5C 125.842,337.338 126.508,337.672 127.5,337.5C 100.833,338.833 74.1667,338.833 47.5,337.5C 48.4916,337.672 49.1583,337.338 49.5,336.5C 55.358,336.822 61.0247,336.489 66.5,335.5 Z"/></g>
</svg>
