<?xml version="1.0" encoding="UTF-8"?>
<!DOCTYPE svg PUBLIC "-//W3C//DTD SVG 1.1//EN" "http://www.w3.org/Graphics/SVG/1.1/DTD/svg11.dtd">
<svg xmlns="http://www.w3.org/2000/svg" version="1.1" width="255px" height="237px" style="shape-rendering:geometricPrecision; text-rendering:geometricPrecision; image-rendering:optimizeQuality; fill-rule:evenodd; clip-rule:evenodd" xmlns:xlink="http://www.w3.org/1999/xlink">
<g><path style="opacity:1" fill="#fdfdfd" d="M -0.5,-0.5 C 84.5,-0.5 169.5,-0.5 254.5,-0.5C 254.5,78.5 254.5,157.5 254.5,236.5C 169.5,236.5 84.5,236.5 -0.5,236.5C -0.5,157.5 -0.5,78.5 -0.5,-0.5 Z"/></g>
<g><path style="opacity:1" fill="#1d1d1d" d="M 119.5,0.5 C 177.842,-0.0129462 217.509,26.8204 238.5,81C 250.292,126.839 239.626,166.506 206.5,200C 174.716,227.095 138.383,235.762 97.5,226C 47.937,209.045 20.1037,174.545 14,122.5C 13.2492,70.4802 36.0826,32.9802 82.5,10C 94.4263,4.76914 106.76,1.60247 119.5,0.5 Z"/></g>
<g><path style="opacity:1" fill="#fcfcfc" d="M 116.5,2.5 C 170.616,0.848247 209.45,24.1816 233,72.5C 249.349,118.931 240.849,160.098 207.5,196C 165.552,232.082 119.886,237.416 70.5,212C 26.665,182.207 9.49831,141.04 19,88.5C 30.4747,47.6917 56.3081,20.525 96.5,7C 103.259,5.28494 109.925,3.78494 116.5,2.5 Z"/></g>
<g><path style="opacity:1" fill="#1c1c1c" d="M 121.5,50.5 C 160.486,50 184.319,68.6666 193,106.5C 195.336,134.995 184.502,156.828 160.5,172C 130.424,185.976 103.591,181.476 80,158.5C 60.3103,132.923 58.6436,106.256 75,78.5C 86.6258,62.6089 102.126,53.2755 121.5,50.5 Z"/></g>
<g><path style="opacity:1" fill="#fdfdfd" d="M 121.5,52.5 C 158.991,52.153 182.158,70.153 191,106.5C 192.539,144.278 175.039,167.778 138.5,177C 100.235,179.79 76.4015,162.624 67,125.5C 63.7131,93.4856 76.5465,70.6523 105.5,57C 110.894,55.2967 116.227,53.7967 121.5,52.5 Z"/></g>
</svg>
