<?xml version="1.0" encoding="UTF-8"?>
<!DOCTYPE svg PUBLIC "-//W3C//DTD SVG 1.1//EN" "http://www.w3.org/Graphics/SVG/1.1/DTD/svg11.dtd">
<svg xmlns="http://www.w3.org/2000/svg" version="1.1" width="395px" height="254px" style="shape-rendering:geometricPrecision; text-rendering:geometricPrecision; image-rendering:optimizeQuality; fill-rule:evenodd; clip-rule:evenodd" xmlns:xlink="http://www.w3.org/1999/xlink">
<g><path style="opacity:1" fill="#fdfdfd" d="M -0.5,-0.5 C 131.167,-0.5 262.833,-0.5 394.5,-0.5C 394.5,84.1667 394.5,168.833 394.5,253.5C 262.833,253.5 131.167,253.5 -0.5,253.5C -0.5,168.833 -0.5,84.1667 -0.5,-0.5 Z"/></g>
<g><path style="opacity:1" fill="#fdfdfd" d="M 361.5,13.5 C 374.135,35.1798 378.635,58.5131 375,83.5C 373.563,95.2466 370.563,106.58 366,117.5C 364.694,120.621 362.86,123.287 360.5,125.5C 341.167,125.5 321.833,125.5 302.5,125.5C 302.5,88.1667 302.5,50.8333 302.5,13.5C 322.167,13.5 341.833,13.5 361.5,13.5 Z"/></g>
<g><path style="opacity:1" fill="#212121" d="M 363.5,12.5 C 362.833,12.8333 362.167,13.1667 361.5,13.5C 341.833,13.5 322.167,13.5 302.5,13.5C 302.5,50.8333 302.5,88.1667 302.5,125.5C 321.833,125.5 341.167,125.5 360.5,125.5C 341.167,126.167 321.833,126.833 302.5,127.5C 302.5,164.833 302.5,202.167 302.5,239.5C 322.167,240.167 341.833,240.833 361.5,241.5C 341.167,241.5 320.833,241.5 300.5,241.5C 300.5,164.5 300.5,87.5 300.5,10.5C 321.86,9.84468 342.86,10.5113 363.5,12.5 Z"/></g>
<g><path style="opacity:1" fill="#f7f7f7" d="M 380.5,198.5 C 379.305,200.751 378.305,203.085 377.5,205.5C 376.876,205.083 376.543,204.416 376.5,203.5C 381.31,176.228 376.977,150.561 363.5,126.5C 373.803,108.583 378.803,89.2495 378.5,68.5C 378.319,61.0953 377.819,53.762 377,46.5C 378,48.5 379,50.5 380,52.5C 380.5,101.166 380.667,149.832 380.5,198.5 Z"/></g>
<g><path style="opacity:1" fill="#242424" d="M 382.5,53.5 C 383.665,101.998 383.832,150.665 383,199.5C 381.205,202.099 379.705,204.766 378.5,207.5C 377.662,207.158 377.328,206.492 377.5,205.5C 378.305,203.085 379.305,200.751 380.5,198.5C 381.167,150.167 381.833,101.833 382.5,53.5 Z"/></g>
<g><path style="opacity:1" fill="#fefefe" d="M 302.5,127.5 C 322.511,127.167 342.511,127.5 362.5,128.5C 375.831,154.49 379.331,181.824 373,210.5C 370.39,220.544 366.557,230.044 361.5,239C 341.836,239.5 322.169,239.667 302.5,239.5C 302.5,202.167 302.5,164.833 302.5,127.5 Z"/></g>
<g><path style="opacity:1" fill="#2e2e2e" d="M 363.5,12.5 C 365.451,14.48 366.951,16.8133 368,19.5C 372.57,30.9706 377.404,42.3039 382.5,53.5C 381.833,101.833 381.167,150.167 380.5,198.5C 380.667,149.832 380.5,101.166 380,52.5C 379,50.5 378,48.5 377,46.5C 377.819,53.762 378.319,61.0953 378.5,68.5C 378.803,89.2495 373.803,108.583 363.5,126.5C 376.977,150.561 381.31,176.228 376.5,203.5C 376.543,204.416 376.876,205.083 377.5,205.5C 377.328,206.492 377.662,207.158 378.5,207.5C 374.012,217.812 369.512,228.145 365,238.5C 364.241,240.063 363.074,241.063 361.5,241.5C 341.833,240.833 322.167,240.167 302.5,239.5C 322.169,239.667 341.836,239.5 361.5,239C 366.557,230.044 370.39,220.544 373,210.5C 379.331,181.824 375.831,154.49 362.5,128.5C 342.511,127.5 322.511,127.167 302.5,127.5C 321.833,126.833 341.167,126.167 360.5,125.5C 362.86,123.287 364.694,120.621 366,117.5C 370.563,106.58 373.563,95.2466 375,83.5C 378.635,58.5131 374.135,35.1798 361.5,13.5C 362.167,13.1667 362.833,12.8333 363.5,12.5 Z"/></g>
<g><path style="opacity:1" fill="#191919" d="M 117.5,11.5 C 119.199,11.3398 120.866,11.5065 122.5,12C 160.738,49.7371 198.405,87.9038 235.5,126.5C 197.47,165.53 158.803,203.864 119.5,241.5C 80.9038,204.405 42.7371,166.738 5,128.5C 4.33333,127.167 4.33333,125.833 5,124.5C 42.7014,86.9654 80.2014,49.2987 117.5,11.5 Z"/></g>
<g><path style="opacity:1" fill="#f7f7f7" d="M 118.5,13.5 C 119.552,13.3505 120.552,13.5172 121.5,14C 158.819,50.9861 195.819,88.3194 232.5,126C 195.36,164.307 157.693,202.14 119.5,239.5C 81.5,202.167 43.8333,164.5 6.5,126.5C 43.8544,88.8124 81.1878,51.1458 118.5,13.5 Z"/></g>
<g><path style="opacity:1" fill="#1c1c1c" d="M 111.5,53.5 C 148.977,52.4696 174.81,69.1363 189,103.5C 197.646,138.57 187.479,166.737 158.5,188C 123.915,206.009 92.748,201.509 65,174.5C 48.8022,154.032 43.8022,131.032 50,105.5C 60.3595,75.9598 80.8595,58.6265 111.5,53.5 Z"/></g>
<g><path style="opacity:1" fill="#fbfbfb" d="M 113.5,55.5 C 155.281,56.117 180.781,76.7837 190,117.5C 191.557,155.255 174.723,180.755 139.5,194C 99.7663,202.05 71.2663,187.883 54,151.5C 42.9156,115.083 53.0823,86.2495 84.5,65C 93.7382,60.0865 103.405,56.9198 113.5,55.5 Z"/></g>
<g><path style="opacity:1" fill="#1f1f1f" d="M 112.5,83.5 C 138.479,82.6657 154.979,94.6657 162,119.5C 162.146,153.354 145.313,169.521 111.5,168C 86.4456,160.578 75.279,143.745 78,117.5C 83.1004,99.5656 94.6004,88.2323 112.5,83.5 Z"/></g>
<g><path style="opacity:1" fill="#fcfcfc" d="M 110.5,86.5 C 134.601,83.9554 150.767,93.9554 159,116.5C 162.407,139.858 153.24,156.025 131.5,165C 104.994,169.667 87.8276,159.167 80,133.5C 78.1075,109.941 88.2742,94.2741 110.5,86.5 Z"/></g>
</svg>
