<?xml version="1.0" encoding="UTF-8"?>
<!DOCTYPE svg PUBLIC "-//W3C//DTD SVG 1.1//EN" "http://www.w3.org/Graphics/SVG/1.1/DTD/svg11.dtd">
<svg xmlns="http://www.w3.org/2000/svg" version="1.1" width="411px" height="128px" style="shape-rendering:geometricPrecision; text-rendering:geometricPrecision; image-rendering:optimizeQuality; fill-rule:evenodd; clip-rule:evenodd" xmlns:xlink="http://www.w3.org/1999/xlink">
<g><path style="opacity:1" fill="#fdfdfd" d="M -0.5,-0.5 C 136.5,-0.5 273.5,-0.5 410.5,-0.5C 410.5,42.1667 410.5,84.8333 410.5,127.5C 273.5,127.5 136.5,127.5 -0.5,127.5C -0.5,84.8333 -0.5,42.1667 -0.5,-0.5 Z"/></g>
<g><path style="opacity:1" fill="#f8f8f8" d="M 190.5,10.5 C 193.5,10.5 196.5,10.5 199.5,10.5C 199.5,45.5 199.5,80.5 199.5,115.5C 191.813,115.54 184.146,115.207 176.5,114.5C 176.5,80.8333 176.5,47.1667 176.5,13.5C 176.5,12.5 176.5,11.5 176.5,10.5C 181.167,10.5 185.833,10.5 190.5,10.5 Z"/></g>
<g><path style="opacity:1" fill="#f8f8f8" d="M 173.5,15.5 C 174.833,46.8333 174.833,78.1667 173.5,109.5C 168.009,99.5105 164.509,88.8438 163,77.5C 164.436,70.8163 165.269,63.8163 165.5,56.5C 164.5,56.5 163.5,56.5 162.5,56.5C 162.758,41.8595 166.424,28.1928 173.5,15.5 Z"/></g>
<g><path style="opacity:1" fill="#1c1c1c" d="M 201.5,10.5 C 201.167,10.5 200.833,10.5 200.5,10.5C 197.167,9.16667 193.833,9.16667 190.5,10.5C 185.833,10.5 181.167,10.5 176.5,10.5C 176.5,11.5 176.5,12.5 176.5,13.5C 176.167,13.5 175.833,13.5 175.5,13.5C 174.5,13.8333 173.833,14.5 173.5,15.5C 166.424,28.1928 162.758,41.8595 162.5,56.5C 163.5,56.5 164.5,56.5 165.5,56.5C 165.269,63.8163 164.436,70.8163 163,77.5C 164.509,88.8438 168.009,99.5105 173.5,109.5C 172.662,109.842 172.328,110.508 172.5,111.5C 164.775,98.2692 160.941,83.9359 161,68.5C 162.946,67.0063 163.779,65.0063 163.5,62.5C 161.783,58.9109 160.783,55.0776 160.5,51C 161.728,35.6499 166.728,21.6499 175.5,9C 184.186,8.67376 192.853,8.17376 201.5,7.5C 201.5,8.5 201.5,9.5 201.5,10.5 Z"/></g>
<g><path style="opacity:1" fill="#828282" d="M 175.5,13.5 C 175.833,46.1735 175.5,78.8401 174.5,111.5C 173.702,111.043 173.369,110.376 173.5,109.5C 174.833,78.1667 174.833,46.8333 173.5,15.5C 173.833,14.5 174.5,13.8333 175.5,13.5 Z"/></g>
<g><path style="opacity:1" fill="#787878" d="M 190.5,10.5 C 193.833,9.16667 197.167,9.16667 200.5,10.5C 200.832,45.6706 200.498,80.6706 199.5,115.5C 199.5,80.5 199.5,45.5 199.5,10.5C 196.5,10.5 193.5,10.5 190.5,10.5 Z"/></g>
<g><path style="opacity:1" fill="#1d1d1d" d="M 53.5,7.5 C 85.959,6.47109 106.792,21.4711 116,52.5C 118.896,81.2196 107.396,101.72 81.5,114C 50.0268,123.009 26.5268,113.175 11,84.5C 0.901801,55.5508 8.4018,32.3841 33.5,15C 39.9603,11.5884 46.627,9.08835 53.5,7.5 Z"/></g>
<g><path style="opacity:1" fill="#fafafa" d="M 53.5,9.5 C 85.0883,8.60231 105.255,23.269 114,53.5C 116.163,86.3531 101.329,106.853 69.5,115C 35.5707,116.741 15.404,100.907 9,67.5C 8.65474,36.5248 23.4881,17.1915 53.5,9.5 Z"/></g>
<g><path style="opacity:1" fill="#161616" d="M 200.5,10.5 C 200.833,10.5 201.167,10.5 201.5,10.5C 201.185,18.4197 201.518,26.253 202.5,34C 269.833,34.5 337.166,34.6667 404.5,34.5C 404.5,53.1667 404.5,71.8333 404.5,90.5C 337.166,90.3333 269.833,90.5 202.5,91C 201.516,99.7489 201.183,108.582 201.5,117.5C 192.417,117.829 183.417,117.162 174.5,115.5C 173.82,114.14 173.153,112.807 172.5,111.5C 172.328,110.508 172.662,109.842 173.5,109.5C 173.369,110.376 173.702,111.043 174.5,111.5C 175.5,78.8401 175.833,46.1735 175.5,13.5C 175.833,13.5 176.167,13.5 176.5,13.5C 176.5,47.1667 176.5,80.8333 176.5,114.5C 184.146,115.207 191.813,115.54 199.5,115.5C 200.498,80.6706 200.832,45.6706 200.5,10.5 Z"/></g>
<g><path style="opacity:1" fill="#cdcdcd" d="M 218.5,41.5 C 279.833,41.5 341.167,41.5 402.5,41.5C 402.5,55.5 402.5,69.5 402.5,83.5C 341.167,83.5 279.833,83.5 218.5,83.5C 218.5,69.5 218.5,55.5 218.5,41.5 Z"/></g>
<g><path style="opacity:1" fill="#fefefe" d="M 219.5,42.5 C 280.167,42.5 340.833,42.5 401.5,42.5C 401.5,55.8333 401.5,69.1667 401.5,82.5C 340.833,82.5 280.167,82.5 219.5,82.5C 219.5,69.1667 219.5,55.8333 219.5,42.5 Z"/></g>
<g><path style="opacity:1" fill="#f5f5f5" d="M 201.5,36.5 C 206.5,36.5 211.5,36.5 216.5,36.5C 216.5,53.8333 216.5,71.1667 216.5,88.5C 211.5,88.5 206.5,88.5 201.5,88.5C 201.5,71.1667 201.5,53.8333 201.5,36.5 Z"/></g>
<g><path style="opacity:1" fill="#d1d1d1" d="M 401.5,39.5 C 371.507,38.1668 341.174,37.5001 310.5,37.5C 279.826,37.5001 249.493,38.1668 219.5,39.5C 218.596,38.791 218.263,37.791 218.5,36.5C 279.833,36.5 341.167,36.5 402.5,36.5C 402.737,37.791 402.404,38.791 401.5,39.5 Z"/></g>
<g><path style="opacity:1" fill="#fdfdfd" d="M 401.5,39.5 C 340.833,39.5 280.167,39.5 219.5,39.5C 249.493,38.1668 279.826,37.5001 310.5,37.5C 341.174,37.5001 371.507,38.1668 401.5,39.5 Z"/></g>
<g><path style="opacity:1" fill="#d3d3d3" d="M 401.5,88.5 C 371.507,87.1668 341.174,86.5001 310.5,86.5C 279.826,86.5001 249.493,87.1668 219.5,88.5C 218.596,87.791 218.263,86.791 218.5,85.5C 279.833,85.5 341.167,85.5 402.5,85.5C 402.737,86.791 402.404,87.791 401.5,88.5 Z"/></g>
<g><path style="opacity:1" fill="#fbfbfb" d="M 401.5,88.5 C 340.833,88.5 280.167,88.5 219.5,88.5C 249.493,87.1668 279.826,86.5001 310.5,86.5C 341.174,86.5001 371.507,87.1668 401.5,88.5 Z"/></g>
<g><path style="opacity:1" fill="#1b1b1b" d="M 55.5,29.5 C 59.8333,29.5 64.1667,29.5 68.5,29.5C 67.6607,47.6606 76.3274,56.6606 94.5,56.5C 94.5,60.8333 94.5,65.1667 94.5,69.5C 76.1667,68.5 67.5,77.1667 68.5,95.5C 64.1667,95.5 59.8333,95.5 55.5,95.5C 55.6209,77.2866 46.6209,68.62 28.5,69.5C 28.5,65.1667 28.5,60.8333 28.5,56.5C 46.4604,56.5396 55.4604,47.5396 55.5,29.5 Z"/></g>
<g><path style="opacity:1" fill="#e6e6e6" d="M 58.5,85.5 C 64.9049,84.4062 67.2382,87.0729 65.5,93.5C 62.8333,93.5 60.1667,93.5 57.5,93.5C 57.5751,90.7938 57.9084,88.1272 58.5,85.5 Z"/></g>
<g><path style="opacity:1" fill="#cfcfcf" d="M 78.5,67.5 C 79.8734,67.3433 81.2068,67.51 82.5,68C 74.6667,70.5 69.5,75.6667 67,83.5C 66.8823,79.3841 68.2157,75.7175 71,72.5C 73.4795,70.6859 75.9795,69.0192 78.5,67.5 Z"/></g>
<g><path style="opacity:1" fill="#c9c9c9" d="M 39.5,68.5 C 46.1404,67.7385 51.3071,70.4052 55,76.5C 56.1505,78.7538 56.4838,81.0871 56,83.5C 53.4738,75.1368 47.9738,70.1368 39.5,68.5 Z"/></g>
<g><path style="opacity:1" fill="#e7e7e7" d="M 86.5,58.5 C 88.5,58.5 90.5,58.5 92.5,58.5C 92.5,61.1667 92.5,63.8333 92.5,66.5C 84.5519,67.865 82.5519,65.1984 86.5,58.5 Z"/></g>
<g><path style="opacity:1" fill="#f2f2f2" d="M 30.5,58.5 C 32.8056,58.9926 35.139,59.3259 37.5,59.5C 38.4976,65.1675 36.1643,67.5008 30.5,66.5C 30.5,63.8333 30.5,61.1667 30.5,58.5 Z"/></g>
<g><path style="opacity:1" fill="#d3d3d3" d="M 55.5,42.5 C 55.6509,49.2744 52.3176,54.1077 45.5,57C 43.8333,57.6667 42.1667,57.6667 40.5,57C 47.9838,54.6821 52.9838,49.8487 55.5,42.5 Z"/></g>
<g><path style="opacity:1" fill="#cecece" d="M 66.5,41.5 C 69.3165,49.1483 74.6498,54.315 82.5,57C 72.8223,56.4912 67.4889,51.3246 66.5,41.5 Z"/></g>
<g><path style="opacity:1" fill="#f6f6f6" d="M 58.5,41.5 C 60.5,41.5 62.5,41.5 64.5,41.5C 65.5449,52.545 71.5449,58.545 82.5,59.5C 82.5,61.5 82.5,63.5 82.5,65.5C 71.3157,66.8396 65.3157,73.1729 64.5,84.5C 62.5,84.5 60.5,84.5 58.5,84.5C 57.9943,72.9936 51.9943,66.6603 40.5,65.5C 40.5,63.5 40.5,61.5 40.5,59.5C 51.4833,58.5167 57.4833,52.5167 58.5,41.5 Z"/></g>
<g><path style="opacity:1" fill="#ededed" d="M 57.5,31.5 C 60.1667,31.5 62.8333,31.5 65.5,31.5C 65.1667,34.1667 64.8333,36.8333 64.5,39.5C 62.5,39.5 60.5,39.5 58.5,39.5C 58.1667,36.8333 57.8333,34.1667 57.5,31.5 Z"/></g>
</svg>
