<?xml version="1.0" encoding="UTF-8"?>
<!DOCTYPE svg PUBLIC "-//W3C//DTD SVG 1.1//EN" "http://www.w3.org/Graphics/SVG/1.1/DTD/svg11.dtd">
<svg xmlns="http://www.w3.org/2000/svg" version="1.1" width="331px" height="151px" style="shape-rendering:geometricPrecision; text-rendering:geometricPrecision; image-rendering:optimizeQuality; fill-rule:evenodd; clip-rule:evenodd" xmlns:xlink="http://www.w3.org/1999/xlink">
<g><path style="opacity:1" fill="#fdfdfd" d="M -0.5,-0.5 C 109.833,-0.5 220.167,-0.5 330.5,-0.5C 330.5,49.8333 330.5,100.167 330.5,150.5C 220.167,150.5 109.833,150.5 -0.5,150.5C -0.5,100.167 -0.5,49.8333 -0.5,-0.5 Z"/></g>
<g><path style="opacity:1" fill="#fafafa" d="M 141.5,34.5 C 140.662,34.8417 140.328,35.5084 140.5,36.5C 139.847,37.8068 139.18,39.1401 138.5,40.5C 122.844,41.6662 107.177,41.8329 91.5,41C 90.9341,40.0053 90.2674,39.172 89.5,38.5C 87.1196,33.8073 86.1196,28.8073 86.5,23.5C 86.8878,18.501 88.5544,14.001 91.5,10C 107.177,9.16712 122.844,9.33379 138.5,10.5C 142.547,18.0902 143.547,26.0902 141.5,34.5 Z"/></g>
<g><path style="opacity:1" fill="#080808" d="M 86.5,23.5 C 86.1196,28.8073 87.1196,33.8073 89.5,38.5C 89.5,39.1667 89.1667,39.5 88.5,39.5C 88.2172,38.7109 87.7172,38.0442 87,37.5C 86.5006,42.8229 86.334,48.1563 86.5,53.5C 86.5172,55.5648 86.8505,57.5648 87.5,59.5C 86.3407,70.1531 86.3407,80.8197 87.5,91.5C 87.634,93.2915 87.3007,94.9582 86.5,96.5C 86.5,102.5 86.5,108.5 86.5,114.5C 86.3284,115.492 86.6618,116.158 87.5,116.5C 85.2106,125.611 86.5439,134.111 91.5,142C 106.83,142.5 122.163,142.667 137.5,142.5C 138.167,142.5 138.5,142.833 138.5,143.5C 122.153,143.833 105.82,143.499 89.5,142.5C 87.5657,139.314 86.2323,135.981 85.5,132.5C 77.5,132.5 69.5,132.5 61.5,132.5C 69.1667,131.833 76.8333,131.167 84.5,130.5C 85.1667,94.8333 85.8333,59.1667 86.5,23.5 Z"/></g>
<g><path style="opacity:1" fill="#e8e8e8" d="M 141.5,37.5 C 142.167,37.5 142.5,37.8333 142.5,38.5C 142.666,43.5111 142.499,48.5111 142,53.5C 139.727,48.0851 139.56,42.7517 141.5,37.5 Z"/></g>
<g><path style="opacity:1" fill="#fcfcfc" d="M 87.5,91.5 C 86.3407,80.8197 86.3407,70.1531 87.5,59.5C 88.629,54.383 89.9623,49.2164 91.5,44C 106.833,43.3333 122.167,43.3333 137.5,44C 144.155,65.1361 144.155,86.3028 137.5,107.5C 122.167,108.833 106.833,108.833 91.5,107.5C 89.7668,102.137 88.4334,96.8038 87.5,91.5 Z"/></g>
<g><path style="opacity:1" fill="#d9d9d9" d="M 88.5,39.5 C 89.4323,44.4254 88.7656,49.0921 86.5,53.5C 86.334,48.1563 86.5006,42.8229 87,37.5C 87.7172,38.0442 88.2172,38.7109 88.5,39.5 Z"/></g>
<g><path style="opacity:1" fill="#3a3a3a" d="M 143.5,16.5 C 144.833,55.8333 144.833,95.1667 143.5,134.5C 143.832,102.329 143.498,70.329 142.5,38.5C 142.5,37.8333 142.167,37.5 141.5,37.5C 141.5,36.8333 141.167,36.5 140.5,36.5C 140.328,35.5084 140.662,34.8417 141.5,34.5C 141.783,35.2891 142.283,35.9558 143,36.5C 143.5,29.8417 143.666,23.175 143.5,16.5 Z"/></g>
<g><path style="opacity:1" fill="#d5d5d5" d="M 86.5,96.5 C 87.7054,100.149 88.7054,103.983 89.5,108C 89.1414,110.546 88.1414,112.713 86.5,114.5C 86.5,108.5 86.5,102.5 86.5,96.5 Z"/></g>
<g><path style="opacity:1" fill="#212121" d="M 140.5,36.5 C 141.167,36.5 141.5,36.8333 141.5,37.5C 139.56,42.7517 139.727,48.0851 142,53.5C 142.499,48.5111 142.666,43.5111 142.5,38.5C 143.498,70.329 143.832,102.329 143.5,134.5C 142.59,137.992 140.924,140.992 138.5,143.5C 138.5,142.833 138.167,142.5 137.5,142.5C 143.651,132.352 143.985,122.019 138.5,111.5C 122.5,110.167 106.5,110.167 90.5,111.5C 89.7255,113.396 88.7255,115.063 87.5,116.5C 86.6618,116.158 86.3284,115.492 86.5,114.5C 88.1414,112.713 89.1414,110.546 89.5,108C 88.7054,103.983 87.7054,100.149 86.5,96.5C 87.3007,94.9582 87.634,93.2915 87.5,91.5C 88.4334,96.8038 89.7668,102.137 91.5,107.5C 106.833,108.833 122.167,108.833 137.5,107.5C 144.155,86.3028 144.155,65.1361 137.5,44C 122.167,43.3333 106.833,43.3333 91.5,44C 89.9623,49.2164 88.629,54.383 87.5,59.5C 86.8505,57.5648 86.5172,55.5648 86.5,53.5C 88.7656,49.0921 89.4323,44.4254 88.5,39.5C 89.1667,39.5 89.5,39.1667 89.5,38.5C 90.2674,39.172 90.9341,40.0053 91.5,41C 107.177,41.8329 122.844,41.6662 138.5,40.5C 139.18,39.1401 139.847,37.8068 140.5,36.5 Z"/></g>
<g><path style="opacity:1" fill="#e2e2e2" d="M 141.5,98.5 C 142.65,103.316 142.816,108.316 142,113.5C 140.637,112.107 139.804,110.441 139.5,108.5C 140.297,105.18 140.964,101.846 141.5,98.5 Z"/></g>
<g><path style="opacity:1" fill="#f9f9f9" d="M 137.5,142.5 C 122.163,142.667 106.83,142.5 91.5,142C 86.5439,134.111 85.2106,125.611 87.5,116.5C 88.7255,115.063 89.7255,113.396 90.5,111.5C 106.5,110.167 122.5,110.167 138.5,111.5C 143.985,122.019 143.651,132.352 137.5,142.5 Z"/></g>
<g><path style="opacity:1" fill="#252525" d="M 262.5,7.5 C 282.812,18.4102 302.978,29.7435 323,41.5C 323.833,64.5072 323.666,87.5072 322.5,110.5C 303.065,121.634 283.565,132.634 264,143.5C 244.435,132.634 224.935,121.634 205.5,110.5C 204.334,87.5072 204.167,64.5072 205,41.5C 224.477,30.5184 243.644,19.185 262.5,7.5 Z"/></g>
<g><path style="opacity:1" fill="#e5e5e5" d="M 206.5,91.5 C 209.635,99.9313 213.968,107.765 219.5,115C 215.236,113.944 211.236,112.11 207.5,109.5C 206.504,103.537 206.171,97.5368 206.5,91.5 Z"/></g>
<g><path style="opacity:1" fill="#e4e4e4" d="M 320.5,91.5 C 321.652,96.9846 321.818,102.651 321,108.5C 316.503,111.749 311.837,114.749 307,117.5C 306.333,116.833 306.333,116.167 307,115.5C 314.232,109.086 318.732,101.086 320.5,91.5 Z"/></g>
<g><path style="opacity:1" fill="#eaeaea" d="M 219.5,34.5 C 220.239,34.369 220.906,34.5357 221.5,35C 214.494,41.8399 209.661,50.0065 207,59.5C 206.333,53.8333 206.333,48.1667 207,42.5C 211.609,40.3646 215.776,37.698 219.5,34.5 Z"/></g>
<g><path style="opacity:1" fill="#e9e9e9" d="M 307.5,36.5 C 307.56,35.9569 307.893,35.6236 308.5,35.5C 312.5,37.8333 316.5,40.1667 320.5,42.5C 321.663,48.1375 321.83,53.8041 321,59.5C 318.522,50.5287 314.022,42.862 307.5,36.5 Z"/></g>
<g><path style="opacity:1" fill="#f7f7f7" d="M 254.5,18.5 C 290.216,16.7442 312.383,33.0776 321,67.5C 322.582,100.905 307.415,122.405 275.5,132C 250.656,135.823 230.823,127.657 216,107.5C 199.183,75.6145 205.016,48.7812 233.5,27C 240.182,23.0582 247.182,20.2248 254.5,18.5 Z"/></g>
<g><path style="opacity:1" fill="#232323" d="M 256.5,32.5 C 281.012,30.9945 297.512,41.6612 306,64.5C 309.682,84.7903 303.182,100.957 286.5,113C 262.546,124.529 242.712,119.696 227,98.5C 215.037,73.8519 220.203,53.6853 242.5,38C 247.161,35.8494 251.828,34.0161 256.5,32.5 Z"/></g>
<g><path style="opacity:1" fill="#fcfcfc" d="M 256.5,34.5 C 282.223,33.0979 298.39,44.7646 305,69.5C 306.146,95.0218 294.313,110.855 269.5,117C 237.702,116.534 222.202,100.368 223,68.5C 227.721,50.6131 238.888,39.2798 256.5,34.5 Z"/></g>
<g><path style="opacity:1" fill="#eaeaea" d="M 263.5,9.5 C 267.806,11.9883 272.139,14.4883 276.5,17C 267.427,16.1491 258.427,16.4824 249.5,18C 254.397,15.3922 259.063,12.5589 263.5,9.5 Z"/></g>
<g><path style="opacity:1" fill="#2b2b2b" d="M 143.5,16.5 C 143.666,23.175 143.5,29.8417 143,36.5C 142.283,35.9558 141.783,35.2891 141.5,34.5C 143.547,26.0902 142.547,18.0902 138.5,10.5C 122.844,9.33379 107.177,9.16712 91.5,10C 88.5544,14.001 86.8878,18.501 86.5,23.5C 85.8333,59.1667 85.1667,94.8333 84.5,130.5C 76.8333,131.167 69.1667,131.833 61.5,132.5C 25.0822,126.238 7.58217,104.572 9,67.5C 14.509,40.6577 30.6756,24.491 57.5,19C 66.5184,18.832 75.5184,18.332 84.5,17.5C 86.4203,14.6612 88.0869,11.6612 89.5,8.5C 106.167,7.16667 122.833,7.16667 139.5,8.5C 140.847,11.1932 142.18,13.8599 143.5,16.5 Z"/></g>
<g><path style="opacity:1" fill="#fdfdfd" d="M 84.5,130.5 C 58.8965,135.162 37.7298,127.829 21,108.5C 7.86988,87.8859 7.20321,66.8859 19,45.5C 35.6294,24.1154 57.4628,15.782 84.5,20.5C 84.5,57.1667 84.5,93.8333 84.5,130.5 Z"/></g>
<g><path style="opacity:1" fill="#ebebeb" d="M 250.5,134.5 C 259.358,134.579 268.358,134.412 277.5,134C 272.99,136.516 268.49,139.016 264,141.5C 259.567,139.034 255.067,136.7 250.5,134.5 Z"/></g>
</svg>
