<?xml version="1.0" encoding="UTF-8"?>
<!DOCTYPE svg PUBLIC "-//W3C//DTD SVG 1.1//EN" "http://www.w3.org/Graphics/SVG/1.1/DTD/svg11.dtd">
<svg xmlns="http://www.w3.org/2000/svg" version="1.1" width="308px" height="196px" style="shape-rendering:geometricPrecision; text-rendering:geometricPrecision; image-rendering:optimizeQuality; fill-rule:evenodd; clip-rule:evenodd" xmlns:xlink="http://www.w3.org/1999/xlink">
<g><path style="opacity:1" fill="#fdfdfd" d="M -0.5,-0.5 C 102.167,-0.5 204.833,-0.5 307.5,-0.5C 307.5,64.8333 307.5,130.167 307.5,195.5C 204.833,195.5 102.167,195.5 -0.5,195.5C -0.5,130.167 -0.5,64.8333 -0.5,-0.5 Z"/></g>
<g><path style="opacity:1" fill="#1f1f1f" d="M 93.5,6.5 C 144.721,5.26322 177.888,28.9299 193,77.5C 200.164,123.333 183.664,157.499 143.5,180C 101.56,196.886 65.0597,189.053 34,156.5C 6.54386,119.2 5.54386,81.2 31,42.5C 47.163,22.3368 67.9964,10.3368 93.5,6.5 Z"/></g>
<g><path style="opacity:1" fill="#f9f9f9" d="M 96.5,8.5 C 139.161,7.90227 169.328,26.9023 187,65.5C 199.333,103.814 191.166,136.98 162.5,165C 138.385,184.693 111.052,191.026 80.5,184C 41.4802,171.116 19.6469,144.283 15,103.5C 14.6323,62.051 33.1323,32.551 70.5,15C 79.0069,11.6054 87.6736,9.43873 96.5,8.5 Z"/></g>
<g><path style="opacity:1" fill="#181818" d="M 286.5,6.5 C 290.167,6.5 293.833,6.5 297.5,6.5C 297.386,20.5375 298.052,34.5375 299.5,48.5C 298.821,54.5364 298.821,60.5364 299.5,66.5C 296.872,72.0274 296.872,77.5274 299.5,83C 296.932,89.2585 296.932,95.5918 299.5,102C 298.674,105.303 298.008,108.636 297.5,112C 298.405,114.755 299.072,117.588 299.5,120.5C 298.9,143.129 298.233,165.795 297.5,188.5C 293.833,188.5 290.167,188.5 286.5,188.5C 286.871,172.913 285.871,157.413 283.5,142C 286.103,137.174 286.103,132.341 283.5,127.5C 287.312,122.334 287.312,117.001 283.5,111.5C 286.008,109.728 287.008,107.228 286.5,104C 286.86,100.223 285.86,96.89 283.5,94C 284.422,90.4776 285.422,86.9776 286.5,83.5C 282.91,77.9178 282.577,72.0845 285.5,66C 284.105,64.2793 283.439,62.2793 283.5,60C 283.685,49.9492 284.519,39.7826 286,29.5C 286.5,21.8406 286.666,14.1739 286.5,6.5 Z"/></g>
<g><path style="opacity:1" fill="#cecece" d="M 293.5,60.5 C 294.209,59.596 295.209,59.2627 296.5,59.5C 296.649,60.552 296.483,61.552 296,62.5C 295.292,61.6195 294.458,60.9528 293.5,60.5 Z"/></g>
<g><path style="opacity:1" fill="#e0e0e0" d="M 286.5,57.5 C 290.31,58.7542 290.31,59.7542 286.5,60.5C 286.5,59.5 286.5,58.5 286.5,57.5 Z"/></g>
<g><path style="opacity:1" fill="#e6e6e6" d="M 288.5,55.5 C 289.274,54.8529 290.274,54.5195 291.5,54.5C 295.635,54.7366 296.135,55.7366 293,57.5C 291.167,57.4814 289.667,56.8148 288.5,55.5 Z"/></g>
<g><path style="opacity:1" fill="#f5f5f5" d="M 294.5,45.5 C 295.451,46.9187 295.784,48.5853 295.5,50.5C 293.801,50.6602 292.134,50.4935 290.5,50C 292.041,48.6288 293.375,47.1288 294.5,45.5 Z"/></g>
<g><path style="opacity:1" fill="#e9e9e9" d="M 294.5,30.5 C 297.214,37.8402 295.381,43.8402 289,48.5C 288.333,44.5 288.333,40.5 289,36.5C 291.04,34.6298 292.873,32.6298 294.5,30.5 Z"/></g>
<g><path style="opacity:1" fill="#f2f2f2" d="M 294.5,16.5 C 296.886,23.4929 295.052,29.1596 289,33.5C 288.333,29.8333 288.333,26.1667 289,22.5C 291.04,20.6298 292.873,18.6298 294.5,16.5 Z"/></g>
<g><path style="opacity:1" fill="#e9e9e9" d="M 288.5,8.5 C 290.833,8.5 293.167,8.5 295.5,8.5C 295.328,13.2087 293.161,16.8754 289,19.5C 288.501,15.8484 288.335,12.1817 288.5,8.5 Z"/></g>
<g><path style="opacity:1" fill="#e7e7e7" d="M 289.5,61.5 C 292.827,61.9865 295.161,63.8198 296.5,67C 295.303,68.5199 293.803,69.6866 292,70.5C 290.167,68.1667 288.333,65.8333 286.5,63.5C 287.602,62.8243 288.602,62.1577 289.5,61.5 Z"/></g>
<g><path style="opacity:1" fill="#e0e0e0" d="M 286.5,68.5 C 291.072,70.5383 291.239,72.5383 287,74.5C 286.505,72.5273 286.338,70.5273 286.5,68.5 Z"/></g>
<g><path style="opacity:1" fill="#d7d7d7" d="M 293.5,71.5 C 295.225,71.8425 295.725,72.8425 295,74.5C 293.961,73.7562 293.461,72.7562 293.5,71.5 Z"/></g>
<g><path style="opacity:1" fill="#eaeaea" d="M 290.5,74.5 C 293.64,76.4903 295.973,79.3237 297.5,83C 294.343,86.3518 291.509,86.1851 289,82.5C 288.167,80.8333 287.333,79.1667 286.5,77.5C 287.901,76.4793 289.235,75.4793 290.5,74.5 Z"/></g>
<g><path style="opacity:1" fill="#d7d7d7" d="M 287.5,86.5 C 291.362,88.0581 291.362,89.7247 287.5,91.5C 286.566,89.9052 286.566,88.2385 287.5,86.5 Z"/></g>
<g><path style="opacity:1" fill="#b9b9b9" d="M 294.5,87.5 C 295.598,88.6009 295.765,89.9343 295,91.5C 293.232,90.3181 293.065,88.9848 294.5,87.5 Z"/></g>
<g><path style="opacity:1" fill="#ebebeb" d="M 290.5,91.5 C 291.496,91.4142 292.329,91.7476 293,92.5C 294.3,95.2947 295.8,97.9613 297.5,100.5C 295.807,102.027 293.973,103.36 292,104.5C 290.034,101.399 288.2,98.2324 286.5,95C 287.686,93.5879 289.019,92.4212 290.5,91.5 Z"/></g>
<g><path style="opacity:1" fill="#dedede" d="M 294.5,104.5 C 296.972,105.749 297.139,107.415 295,109.5C 293.481,107.861 293.314,106.194 294.5,104.5 Z"/></g>
<g><path style="opacity:1" fill="#ededed" d="M 289.5,109.5 C 290.822,109.33 291.989,109.663 293,110.5C 294.123,113.249 295.623,115.749 297.5,118C 295.349,119.895 293.016,120.395 290.5,119.5C 289.167,117.167 287.833,114.833 286.5,112.5C 287.77,111.712 288.77,110.712 289.5,109.5 Z"/></g>
<g><path style="opacity:1" fill="#dedede" d="M 296.5,120.5 C 297.709,122.435 297.542,124.435 296,126.5C 292.681,124.155 292.848,122.155 296.5,120.5 Z"/></g>
<g><path style="opacity:1" fill="#1b1b1b" d="M 116.5,24.5 C 117.586,24.62 118.253,25.2867 118.5,26.5C 116.032,35.3679 114.365,44.3679 113.5,53.5C 117.698,53.3579 121.698,53.8579 125.5,55C 131.344,48.3238 137.344,41.8238 143.5,35.5C 144.583,36.365 144.749,37.365 144,38.5C 139.667,44.8333 135.333,51.1667 131,57.5C 130.316,58.7839 130.483,59.9505 131.5,61C 134.579,62.2477 137.246,64.0811 139.5,66.5C 147.167,63 154.833,59.5 162.5,56C 163.635,55.2506 164.635,55.4173 165.5,56.5C 157.857,61.8007 150.19,67.1341 142.5,72.5C 144.888,75.4465 146.888,78.6132 148.5,82C 185.32,80.4644 185.653,82.6311 149.5,88.5C 150.2,92.7978 150.533,97.1311 150.5,101.5C 185.519,112.23 184.852,114.23 148.5,107.5C 148.283,111.608 147.783,115.608 147,119.5C 153.65,125.316 160.15,131.316 166.5,137.5C 165.635,138.583 164.635,138.749 163.5,138C 156.42,133.043 149.253,128.21 142,123.5C 139.952,127.1 137.786,130.6 135.5,134C 138.901,142.135 142.568,150.135 146.5,158C 145.365,158.749 144.365,158.583 143.5,157.5C 138.862,150.362 134.028,143.362 129,136.5C 126.414,138.545 123.58,140.211 120.5,141.5C 119.668,151.149 119.168,160.816 119,170.5C 116.591,163.067 114.924,155.401 114,147.5C 113.882,145.427 112.882,144.093 111,143.5C 107.486,144.058 103.986,144.724 100.5,145.5C 97.4252,153.976 94.0919,162.309 90.5,170.5C 90.1667,169.667 89.8333,168.833 89.5,168C 91.2223,159.497 92.889,150.997 94.5,142.5C 90.6521,142.76 86.9855,142.094 83.5,140.5C 76.8333,146.5 70.5,152.833 64.5,159.5C 63.4173,158.635 63.2506,157.635 64,156.5C 68.7476,150.006 73.2476,143.339 77.5,136.5C 74.5142,133.673 71.1809,131.34 67.5,129.5C 60.2676,132.116 53.2676,135.282 46.5,139C 45.1667,139.667 43.8333,139.667 42.5,139C 49.9921,133.42 57.6588,128.087 65.5,123C 62.7225,120.397 61.0558,117.23 60.5,113.5C 23.3321,114.613 22.6654,112.28 58.5,106.5C 57.7279,102.548 57.3946,98.5483 57.5,94.5C 22.5465,82.965 23.2132,80.965 59.5,88.5C 59.3579,84.302 59.8579,80.302 61,76.5C 54.1689,70.5021 47.6689,64.1688 41.5,57.5C 42.0016,56.479 42.6683,56.3123 43.5,57C 50.662,62.0818 57.9953,66.9152 65.5,71.5C 67.7167,68.2271 70.05,65.0604 72.5,62C 68.9705,53.7741 65.3038,45.6075 61.5,37.5C 62.2739,36.2888 63.1072,36.2888 64,37.5C 68.6091,45.1074 73.6091,52.4408 79,59.5C 81.2194,56.6395 84.0527,54.6395 87.5,53.5C 87.7834,16.8421 90.1167,16.5088 94.5,52.5C 98.7429,51.2578 103.076,50.2578 107.5,49.5C 110.35,41.092 113.35,32.7587 116.5,24.5 Z"/></g>
<g><path style="opacity:1" fill="#cccccc" d="M 143.5,122.5 C 144.251,121.427 145.251,121.26 146.5,122C 147.685,123.353 149.019,124.52 150.5,125.5C 150.333,125.833 150.167,126.167 150,126.5C 147.931,124.915 145.764,123.581 143.5,122.5 Z"/></g>
<g><path style="opacity:1" fill="#909090" d="M 57.5,108.5 C 58.7736,109.189 58.7736,110.023 57.5,111C 54.7728,111.818 52.1062,111.652 49.5,110.5C 52.3056,109.832 54.9723,109.166 57.5,108.5 Z"/></g>
<g><path style="opacity:1" fill="#c2c2c2" d="M 150.5,103.5 C 153.311,103.826 155.978,104.659 158.5,106C 155.485,106.201 152.485,105.868 149.5,105C 150.056,104.617 150.389,104.117 150.5,103.5 Z"/></g>
<g><path style="opacity:1" fill="#9a9a9a" d="M 47.5,89.5 C 50.6318,88.9883 53.9651,88.9883 57.5,89.5C 57.719,90.675 57.3857,91.675 56.5,92.5C 53.5504,91.2946 50.5504,90.2946 47.5,89.5 Z"/></g>
<g><path style="opacity:1" fill="#cbcbcb" d="M 149.5,84.5 C 152.187,84.3359 154.854,84.5026 157.5,85C 155.722,85.704 153.888,86.204 152,86.5C 150.624,86.3158 149.791,85.6491 149.5,84.5 Z"/></g>
<g><path style="opacity:1" fill="#c7c7c7" d="M 57.5,70.5 C 57.56,69.9569 57.8933,69.6236 58.5,69.5C 60.9289,70.8551 62.2623,72.5217 62.5,74.5C 60.8144,73.1431 59.1477,71.8098 57.5,70.5 Z"/></g>
<g><path style="opacity:1" fill="#b6b6b6" d="M 147.5,64.5 C 149.379,64.3932 149.712,64.8932 148.5,66C 146.63,67.3662 144.63,68.5328 142.5,69.5C 142.167,69.1667 141.833,68.8333 141.5,68.5C 143.565,67.1433 145.565,65.81 147.5,64.5 Z"/></g>
<g><path style="opacity:1" fill="#bababa" d="M 70.5,51.5 C 72.6009,54.1789 74.6009,57.0123 76.5,60C 75.5509,60.6172 74.7175,60.4506 74,59.5C 72.5462,56.9289 71.3795,54.2622 70.5,51.5 Z"/></g>
<g><path style="opacity:1" fill="#e0e0e0" d="M 129.5,53.5 C 130.559,55.0699 130.059,56.4032 128,57.5C 127.7,55.9343 128.2,54.601 129.5,53.5 Z"/></g>
<g><path style="opacity:1" fill="#fcfcfc" d="M 100.5,52.5 C 103.518,52.3354 106.518,52.502 109.5,53C 110.167,53.6667 110.833,54.3333 111.5,55C 116.346,55.1886 121.012,56.1886 125.5,58C 129.95,61.7746 134.45,65.6079 139,69.5C 139.333,70.8333 139.667,72.1667 140,73.5C 144.86,77.367 147.027,82.2003 146.5,88C 147.881,91.1727 148.548,94.506 148.5,98C 147.163,102.993 146.33,108.16 146,113.5C 141.878,118.299 138.545,123.633 136,129.5C 130.843,132.083 126.01,135.25 121.5,139C 115.34,140.207 109.173,141.374 103,142.5C 95.7373,141.375 88.5707,139.708 81.5,137.5C 81.67,136.178 81.3366,135.011 80.5,134C 76.7926,133.064 73.6259,131.231 71,128.5C 66.9652,122.929 63.4652,116.929 60.5,110.5C 60.9867,109.554 61.3201,108.554 61.5,107.5C 59.2408,96.9772 60.0741,86.6438 64,76.5C 67.4573,71.8015 71.2907,67.3015 75.5,63C 76.8333,62.6667 78.1667,62.3333 79.5,62C 84.0304,56.5583 89.6971,54.225 96.5,55C 97.8584,54.0656 99.1917,53.2323 100.5,52.5 Z"/></g>
<g><path style="opacity:1" fill="#bdbdbd" d="M 90.5,41.5 C 92.2451,44.8855 92.7451,48.5521 92,52.5C 90.5845,49.0418 90.0845,45.3751 90.5,41.5 Z"/></g>
<g><path style="opacity:1" fill="#a5a5a5" d="M 112.5,40.5 C 113.097,40.7352 113.43,41.2352 113.5,42C 112.73,45.2485 111.73,48.4152 110.5,51.5C 110.167,51 109.833,50.5 109.5,50C 110.607,46.8462 111.607,43.6795 112.5,40.5 Z"/></g>
<g><path style="opacity:1" fill="#d0d0d0" d="M 64.5,125.5 C 66.5492,125.706 66.8825,126.539 65.5,128C 63.8353,128.788 62.1686,129.122 60.5,129C 62.0931,128.051 63.4264,126.885 64.5,125.5 Z"/></g>
<g><path style="opacity:1" fill="#e6e6e6" d="M 289.5,125.5 C 293.012,126.005 295.345,128.005 296.5,131.5C 294.085,134.128 291.585,134.128 289,131.5C 288.535,130.069 287.701,128.903 286.5,128C 287.571,127.148 288.571,126.315 289.5,125.5 Z"/></g>
<g><path style="opacity:1" fill="#c8c8c8" d="M 287.5,133.5 C 289.332,134.14 289.665,135.14 288.5,136.5C 287.614,135.675 287.281,134.675 287.5,133.5 Z"/></g>
<g><path style="opacity:1" fill="#dcdcdc" d="M 294.5,134.5 C 295.5,134.5 296.5,134.5 297.5,134.5C 297.992,139.208 296.659,139.708 293.5,136C 294.056,135.617 294.389,135.117 294.5,134.5 Z"/></g>
<g><path style="opacity:1" fill="#d7d7d7" d="M 289.5,137.5 C 291.929,137.585 293.929,138.585 295.5,140.5C 292.515,141.87 289.849,141.37 287.5,139C 288.416,138.722 289.082,138.222 289.5,137.5 Z"/></g>
<g><path style="opacity:1" fill="#c1c1c1" d="M 79.5,137.5 C 80.5735,138.251 80.7401,139.251 80,140.5C 78.3333,142.167 76.6667,143.833 75,145.5C 76.1413,142.802 77.6413,140.135 79.5,137.5 Z"/></g>
<g><path style="opacity:1" fill="#bbbbbb" d="M 132.5,135.5 C 134.749,137.331 135.915,139.664 136,142.5C 134.295,140.423 133.128,138.09 132.5,135.5 Z"/></g>
<g><path style="opacity:1" fill="#b9b9b9" d="M 96.5,144.5 C 97.3764,144.369 98.0431,144.702 98.5,145.5C 97.1813,148.442 96.0146,151.442 95,154.5C 94.847,151.1 95.347,147.767 96.5,144.5 Z"/></g>
<g><path style="opacity:1" fill="#e2e2e2" d="M 288.5,144.5 C 295.84,143.923 296.174,145.589 289.5,149.5C 288.548,147.955 288.215,146.288 288.5,144.5 Z"/></g>
<g><path style="opacity:1" fill="#a7a7a7" d="M 115.5,143.5 C 116.777,144.694 117.444,146.36 117.5,148.5C 117.333,150.167 117.167,151.833 117,153.5C 115.957,150.243 115.457,146.91 115.5,143.5 Z"/></g>
<g><path style="opacity:1" fill="#efefef" d="M 293.5,147.5 C 297.173,154.269 295.673,159.936 289,164.5C 288.333,160.833 288.333,157.167 289,153.5C 291.127,151.886 292.627,149.886 293.5,147.5 Z"/></g>
<g><path style="opacity:1" fill="#e8e8e8" d="M 294.5,161.5 C 297.214,168.84 295.381,174.84 289,179.5C 288.333,175.5 288.333,171.5 289,167.5C 291.04,165.63 292.873,163.63 294.5,161.5 Z"/></g>
<g><path style="opacity:1" fill="#f4f4f4" d="M 294.5,176.5 C 295.479,179.625 295.813,182.958 295.5,186.5C 293.167,186.5 290.833,186.5 288.5,186.5C 288.343,185.127 288.51,183.793 289,182.5C 291.04,180.63 292.873,178.63 294.5,176.5 Z"/></g>
</svg>
