<?xml version="1.0" encoding="UTF-8"?>
<!DOCTYPE svg PUBLIC "-//W3C//DTD SVG 1.1//EN" "http://www.w3.org/Graphics/SVG/1.1/DTD/svg11.dtd">
<svg xmlns="http://www.w3.org/2000/svg" version="1.1" width="275px" height="241px" style="shape-rendering:geometricPrecision; text-rendering:geometricPrecision; image-rendering:optimizeQuality; fill-rule:evenodd; clip-rule:evenodd" xmlns:xlink="http://www.w3.org/1999/xlink">
<g><path style="opacity:1" fill="#fdfdfd" d="M -0.5,-0.5 C 91.1667,-0.5 182.833,-0.5 274.5,-0.5C 274.5,79.8333 274.5,160.167 274.5,240.5C 182.833,240.5 91.1667,240.5 -0.5,240.5C -0.5,160.167 -0.5,79.8333 -0.5,-0.5 Z"/></g>
<g><path style="opacity:1" fill="#1d1d1d" d="M 111.5,3.5 C 164.944,-1.19532 205.444,19.138 233,64.5C 249.954,98.9837 250.954,133.984 236,169.5C 213.662,212.789 177.995,235.456 129,237.5C 72.9603,233.791 35.627,205.458 17,152.5C 4.62914,95.1003 22.7958,50.267 71.5,18C 84.3267,11.4496 97.6601,6.61624 111.5,3.5 Z"/></g>
<g><path style="opacity:1" fill="#fdfdfd" d="M 114.5,5.5 C 165.827,1.9099 204.661,21.9099 231,65.5C 251.541,108.278 248.541,149.278 222,188.5C 192.535,225.109 154.369,239.943 107.5,233C 59.3333,220.833 29.1667,190.667 17,142.5C 9.28117,82.0907 32.7812,38.924 87.5,13C 96.4062,9.69343 105.406,7.19343 114.5,5.5 Z"/></g>
<g><path style="opacity:1" fill="#1a1a1a" d="M 123.5,81.5 C 144.991,80.1527 159.491,89.4861 167,109.5C 170.697,134.456 160.531,150.622 136.5,158C 112.833,159.921 97.9999,149.421 92,126.5C 90.1985,102.739 100.699,87.7395 123.5,81.5 Z"/></g>
<g><path style="opacity:1" fill="#fbfbfb" d="M 123.5,83.5 C 144.554,82.2685 158.388,91.6018 165,111.5C 167.909,135.854 157.409,150.688 133.5,156C 112.273,156.3 99.1058,146.134 94,125.5C 93.1203,103.892 102.954,89.8924 123.5,83.5 Z"/></g>
</svg>
