<?xml version="1.0" encoding="UTF-8"?>
<!DOCTYPE svg PUBLIC "-//W3C//DTD SVG 1.1//EN" "http://www.w3.org/Graphics/SVG/1.1/DTD/svg11.dtd">
<svg xmlns="http://www.w3.org/2000/svg" version="1.1" width="430px" height="107px" style="shape-rendering:geometricPrecision; text-rendering:geometricPrecision; image-rendering:optimizeQuality; fill-rule:evenodd; clip-rule:evenodd" xmlns:xlink="http://www.w3.org/1999/xlink">
<g><path style="opacity:1" fill="#fbfbfb" d="M -0.5,-0.5 C 142.833,-0.5 286.167,-0.5 429.5,-0.5C 429.5,35.1667 429.5,70.8333 429.5,106.5C 286.167,106.5 142.833,106.5 -0.5,106.5C -0.5,70.8333 -0.5,35.1667 -0.5,-0.5 Z"/></g>
<g><path style="opacity:1" fill="#f5f5f5" d="M 176.5,45.5 C 174.056,38.4054 170.389,32.0721 165.5,26.5C 158.167,26.5 150.833,26.5 143.5,26.5C 143.188,19.5778 143.521,12.7445 144.5,6C 155.495,5.50015 166.495,5.33349 177.5,5.5C 177.829,19.0105 177.496,32.3438 176.5,45.5 Z"/></g>
<g><path style="opacity:1" fill="#1d1d1d" d="M 141.5,79.5 C 142.167,79.1667 142.833,78.8333 143.5,78.5C 143.5,85.1667 143.5,91.8333 143.5,98.5C 154.833,98.5 166.167,98.5 177.5,98.5C 177.5,85.5 177.5,72.5 177.5,59.5C 177.167,58.8333 176.833,58.1667 176.5,57.5C 177.747,54.1328 177.747,50.7995 176.5,47.5C 176.5,46.8333 176.5,46.1667 176.5,45.5C 177.496,32.3438 177.829,19.0105 177.5,5.5C 166.495,5.33349 155.495,5.50015 144.5,6C 143.521,12.7445 143.188,19.5778 143.5,26.5C 150.833,26.5 158.167,26.5 165.5,26.5C 165.5,27.1667 165.167,27.5 164.5,27.5C 157.8,27.17 151.134,27.5033 144.5,28.5C 144.624,29.1067 144.957,29.44 145.5,29.5C 146.714,32.1293 146.714,34.796 145.5,37.5C 144.169,40.0489 143.169,39.7155 142.5,36.5C 143.693,36.0296 144.36,35.0296 144.5,33.5C 144.167,32.5 143.833,31.5 143.5,30.5C 142.893,30.6236 142.56,30.9569 142.5,31.5C 142.167,31.5 141.833,31.5 141.5,31.5C 141.183,22.5822 141.516,13.7489 142.5,5C 154.829,4.50012 167.162,4.33346 179.5,4.5C 179.192,10.4254 179.525,16.2588 180.5,22C 260.167,22.3333 339.833,22.6667 419.5,23C 421,24.5 422.5,26 424,27.5C 424.667,44.1667 424.667,60.8333 424,77.5C 422.5,79 421,80.5 419.5,82C 339.833,82.3333 260.167,82.6667 180.5,83C 179.525,88.7412 179.192,94.5746 179.5,100.5C 167.495,100.667 155.495,100.5 143.5,100C 143,99.5 142.5,99 142,98.5C 141.5,92.1754 141.334,85.8421 141.5,79.5 Z"/></g>
<g><path style="opacity:1" fill="#fbfbfb" d="M 164.5,28.5 C 164.5,31.8333 164.5,35.1667 164.5,38.5C 157.978,38.8235 151.645,38.4902 145.5,37.5C 146.714,34.796 146.714,32.1293 145.5,29.5C 151.645,28.5098 157.978,28.1765 164.5,28.5 Z"/></g>
<g><path style="opacity:1" fill="#7d7d7d" d="M 164.5,27.5 C 164.5,27.8333 164.5,28.1667 164.5,28.5C 157.978,28.1765 151.645,28.5098 145.5,29.5C 144.957,29.44 144.624,29.1067 144.5,28.5C 151.134,27.5033 157.8,27.17 164.5,27.5 Z"/></g>
<g><path style="opacity:1" fill="#2e2e2e" d="M 260.5,28.5 C 257.557,28.0198 254.89,27.0198 252.5,25.5C 255.584,23.8986 258.917,23.2319 262.5,23.5C 262.635,25.5542 261.968,27.2209 260.5,28.5 Z"/></g>
<g><path style="opacity:1" fill="#fdfdfd" d="M 417.5,24.5 C 417.5,25.5 417.5,26.5 417.5,27.5C 366.5,27.5 315.5,27.5 264.5,27.5C 264.5,26.5 264.5,25.5 264.5,24.5C 315.5,24.5 366.5,24.5 417.5,24.5 Z"/></g>
<g><path style="opacity:1" fill="#efefef" d="M 256.5,25.5 C 258.035,24.2121 259.701,24.2121 261.5,25.5C 259.997,26.0522 258.331,26.0522 256.5,25.5 Z"/></g>
<g><path style="opacity:1" fill="#fefefe" d="M 252.5,25.5 C 254.89,27.0198 257.557,28.0198 260.5,28.5C 261.484,44.089 261.817,59.7556 261.5,75.5C 258.167,76.8333 254.833,78.1667 251.5,79.5C 227.545,80.4803 203.545,80.8136 179.5,80.5C 179.5,61.8333 179.5,43.1667 179.5,24.5C 203.878,24.1861 228.212,24.5194 252.5,25.5 Z"/></g>
<g><path style="opacity:1" fill="#373737" d="M 417.5,24.5 C 366.5,24.5 315.5,24.5 264.5,24.5C 264.5,25.5 264.5,26.5 264.5,27.5C 263.566,26.4324 263.232,25.099 263.5,23.5C 315.003,23.1678 366.336,23.5011 417.5,24.5 Z"/></g>
<g><path style="opacity:1" fill="#d4d4d4" d="M 264.5,30.5 C 264.5,30.1667 264.5,29.8333 264.5,29.5C 315.5,29.5 366.5,29.5 417.5,29.5C 417.5,44.5 417.5,59.5 417.5,74.5C 417.167,74.5 416.833,74.5 416.5,74.5C 416.5,59.8333 416.5,45.1667 416.5,30.5C 365.833,30.5 315.167,30.5 264.5,30.5 Z"/></g>
<g><path style="opacity:1" fill="#8f8f8f" d="M 142.5,36.5 C 142.5,34.8333 142.5,33.1667 142.5,31.5C 142.56,30.9569 142.893,30.6236 143.5,30.5C 143.833,31.5 144.167,32.5 144.5,33.5C 144.36,35.0296 143.693,36.0296 142.5,36.5 Z"/></g>
<g><path style="opacity:1" fill="#fefefe" d="M 264.5,30.5 C 315.167,30.5 365.833,30.5 416.5,30.5C 416.5,45.1667 416.5,59.8333 416.5,74.5C 365.833,74.5 315.167,74.5 264.5,74.5C 264.5,59.8333 264.5,45.1667 264.5,30.5 Z"/></g>
<g><path style="opacity:1" fill="#fbfbfb" d="M 419.5,29.5 C 420.5,29.5 421.5,29.5 422.5,29.5C 422.5,44.8333 422.5,60.1667 422.5,75.5C 421.5,75.5 420.5,75.5 419.5,75.5C 419.5,60.1667 419.5,44.8333 419.5,29.5 Z"/></g>
<g><path style="opacity:1" fill="#191919" d="M 165.5,26.5 C 170.389,32.0721 174.056,38.4054 176.5,45.5C 176.5,46.1667 176.5,46.8333 176.5,47.5C 173.108,42.3951 169.941,37.0618 167,31.5C 166.333,45.5 166.333,59.5 167,73.5C 169.941,67.9382 173.108,62.6049 176.5,57.5C 176.833,58.1667 177.167,58.8333 177.5,59.5C 173.665,65.5168 169.998,71.6835 166.5,78C 158.841,78.4997 151.174,78.6664 143.5,78.5C 142.833,78.8333 142.167,79.1667 141.5,79.5C 141.5,63.5 141.5,47.5 141.5,31.5C 141.833,31.5 142.167,31.5 142.5,31.5C 142.5,33.1667 142.5,34.8333 142.5,36.5C 143.169,39.7155 144.169,40.0489 145.5,37.5C 151.645,38.4902 157.978,38.8235 164.5,38.5C 164.5,35.1667 164.5,31.8333 164.5,28.5C 164.5,28.1667 164.5,27.8333 164.5,27.5C 165.167,27.5 165.5,27.1667 165.5,26.5 Z"/></g>
<g><path style="opacity:1" fill="#f6f6f6" d="M 176.5,47.5 C 177.747,50.7995 177.747,54.1328 176.5,57.5C 173.108,62.6049 169.941,67.9382 167,73.5C 166.333,59.5 166.333,45.5 167,31.5C 169.941,37.0618 173.108,42.3951 176.5,47.5 Z"/></g>
<g><path style="opacity:1" fill="#878787" d="M 260.5,28.5 C 261.831,35.9703 262.498,43.8037 262.5,52C 262.5,60.0073 262.166,67.8406 261.5,75.5C 261.817,59.7556 261.484,44.089 260.5,28.5 Z"/></g>
<g><path style="opacity:1" fill="#fbfbfb" d="M 164.5,63.5 C 157.646,63.824 150.979,63.4907 144.5,62.5C 147.167,55.1659 147.167,47.8326 144.5,40.5C 151.167,40.5 157.833,40.5 164.5,40.5C 164.5,48.1667 164.5,55.8333 164.5,63.5 Z"/></g>
<g><path style="opacity:1" fill="#949494" d="M 142.5,45.5 C 143.117,45.6107 143.617,45.944 144,46.5C 144.827,50.5411 144.66,54.5411 143.5,58.5C 142.508,54.2172 142.174,49.8839 142.5,45.5 Z"/></g>
<g><path style="opacity:1" fill="#fbfbfb" d="M 177.5,59.5 C 177.5,72.5 177.5,85.5 177.5,98.5C 166.167,98.5 154.833,98.5 143.5,98.5C 143.5,91.8333 143.5,85.1667 143.5,78.5C 151.174,78.6664 158.841,78.4997 166.5,78C 169.998,71.6835 173.665,65.5168 177.5,59.5 Z"/></g>
<g><path style="opacity:1" fill="#8f8f8f" d="M 144.5,62.5 C 150.979,63.4907 157.646,63.824 164.5,63.5C 157.656,64.8188 150.656,64.8188 143.5,63.5C 143.624,62.8933 143.957,62.56 144.5,62.5 Z"/></g>
<g><path style="opacity:1" fill="#828282" d="M 164.5,66.5 C 157.978,66.1765 151.645,66.5098 145.5,67.5C 144.957,67.44 144.624,67.1067 144.5,66.5C 151.322,65.1819 157.989,65.1819 164.5,66.5 Z"/></g>
<g><path style="opacity:1" fill="#fcfcfc" d="M 164.5,66.5 C 164.5,69.8333 164.5,73.1667 164.5,76.5C 158.167,76.5 151.833,76.5 145.5,76.5C 146.588,73.4442 146.588,70.4442 145.5,67.5C 151.645,66.5098 157.978,66.1765 164.5,66.5 Z"/></g>
<g><path style="opacity:1" fill="#8d8d8d" d="M 142.5,68.5 C 143.693,68.9704 144.36,69.9704 144.5,71.5C 144.167,72.5 143.833,73.5 143.5,74.5C 142.534,72.604 142.201,70.604 142.5,68.5 Z"/></g>
<g><path style="opacity:1" fill="#b2b2b2" d="M 264.5,29.5 C 264.5,29.8333 264.5,30.1667 264.5,30.5C 264.5,45.1667 264.5,59.8333 264.5,74.5C 315.167,74.5 365.833,74.5 416.5,74.5C 416.833,74.5 417.167,74.5 417.5,74.5C 366.336,75.4989 315.003,75.8322 263.5,75.5C 263.17,59.9909 263.504,44.6576 264.5,29.5 Z"/></g>
<g><path style="opacity:1" fill="#fdfdfd" d="M 263.5,77.5 C 314.833,77.5 366.167,77.5 417.5,77.5C 417.5,78.5 417.5,79.5 417.5,80.5C 366.167,80.5 314.833,80.5 263.5,80.5C 263.5,79.5 263.5,78.5 263.5,77.5 Z"/></g>
<g><path style="opacity:1" fill="#212121" d="M 48.5,3.5 C 76.5453,3.39965 94.3786,16.733 102,43.5C 104.663,73.0323 91.8301,91.8656 63.5,100C 31.9795,103.132 12.8129,89.2986 6,58.5C 4.05956,36.546 12.5596,20.046 31.5,9C 37.1266,6.62319 42.7933,4.78986 48.5,3.5 Z"/></g>
<g><path style="opacity:1" fill="#fafafa" d="M 43.5,6.5 C 70.4351,3.54341 88.9351,14.5434 99,39.5C 104.035,69.4256 92.2018,88.9256 63.5,98C 35.9275,101.057 17.7609,89.5566 9,63.5C 5.00642,35.0164 16.5064,16.0164 43.5,6.5 Z"/></g>
<g><path style="opacity:1" fill="#1c1c1c" d="M 47.5,26.5 C 69.9437,24.7875 80.7771,35.1208 80,57.5C 74.717,73.7591 63.5503,80.5924 46.5,78C 32.2122,72.2563 26.0455,61.7563 28,46.5C 31.3776,36.6241 37.8776,29.9574 47.5,26.5 Z"/></g>
<g><path style="opacity:1" fill="#bcbcbc" d="M 67.5,70.5 C 69.8418,70.7748 69.8418,71.6081 67.5,73C 65.3502,74.5899 63.0168,75.2566 60.5,75C 63.2387,73.9741 65.572,72.4741 67.5,70.5 Z"/></g>
<g><path style="opacity:1" fill="#bbbbbb" d="M 38.5,71.5 C 38.56,70.9569 38.8933,70.6236 39.5,70.5C 42.0387,72.2003 44.7053,73.7003 47.5,75C 44.1108,74.9771 41.1108,73.8105 38.5,71.5 Z"/></g>
<g><path style="opacity:1" fill="#9b9b9b" d="M 30.5,45.5 C 31.6484,49.9811 31.8151,54.6478 31,59.5C 29.2295,54.8696 29.0628,50.203 30.5,45.5 Z"/></g>
<g><path style="opacity:1" fill="#9c9c9c" d="M 76.5,45.5 C 77.1174,45.6107 77.6174,45.944 78,46.5C 78.8673,50.9558 78.5339,55.2891 77,59.5C 76.5008,54.8452 76.3342,50.1785 76.5,45.5 Z"/></g>
<g><path style="opacity:1" fill="#b5b5b5" d="M 44.5,29.5 C 46.3786,29.3932 46.7119,29.8932 45.5,31C 35.4739,36.7809 35.1406,36.2809 44.5,29.5 Z"/></g>
<g><path style="opacity:1" fill="#acacac" d="M 59.5,29.5 C 63.1614,29.4809 66.4947,30.9809 69.5,34C 66.1651,32.8389 62.8317,31.3389 59.5,29.5 Z"/></g>
<g><path style="opacity:1" fill="#f9f9f9" d="M 52.5,28.5 C 59.6887,31.6601 66.6887,35.3268 73.5,39.5C 74.8333,48.1667 74.8333,56.8333 73.5,65.5C 66.903,69.0471 60.403,72.7137 54,76.5C 46.7526,72.9162 39.7526,68.9162 33,64.5C 32.3333,56.5 32.3333,48.5 33,40.5C 39.8148,36.8509 46.3148,32.8509 52.5,28.5 Z"/></g>
<g><path style="opacity:1" fill="#d1d1d1" d="M 260.5,77.5 C 262.048,77.8212 262.715,78.8212 262.5,80.5C 260.473,80.6621 258.473,80.4955 256.5,80C 258.066,79.3918 259.4,78.5585 260.5,77.5 Z"/></g>
<g><path style="opacity:1" fill="#353535" d="M 251.5,79.5 C 239.852,80.8324 227.852,81.499 215.5,81.5C 203.329,81.4999 191.329,81.1666 179.5,80.5C 203.545,80.8136 227.545,80.4803 251.5,79.5 Z"/></g>
</svg>
