<?xml version="1.0" encoding="UTF-8"?>
<!DOCTYPE svg PUBLIC "-//W3C//DTD SVG 1.1//EN" "http://www.w3.org/Graphics/SVG/1.1/DTD/svg11.dtd">
<svg xmlns="http://www.w3.org/2000/svg" version="1.1" width="438px" height="130px" style="shape-rendering:geometricPrecision; text-rendering:geometricPrecision; image-rendering:optimizeQuality; fill-rule:evenodd; clip-rule:evenodd" xmlns:xlink="http://www.w3.org/1999/xlink">
<g><path style="opacity:1" fill="#fcfcfc" d="M -0.5,-0.5 C 145.5,-0.5 291.5,-0.5 437.5,-0.5C 437.5,42.8333 437.5,86.1667 437.5,129.5C 291.5,129.5 145.5,129.5 -0.5,129.5C -0.5,86.1667 -0.5,42.8333 -0.5,-0.5 Z"/></g>
<g><path style="opacity:1" fill="#1e1e1e" d="M 164.5,4.5 C 164.5,5.16667 164.833,5.5 165.5,5.5C 154.504,16.8371 148.337,30.5038 147,46.5C 148.152,43.5597 149.152,40.5597 150,37.5C 150.167,38.3333 150.333,39.1667 150.5,40C 148.938,45.4117 147.938,50.9117 147.5,56.5C 148.5,56.5 149.5,56.5 150.5,56.5C 150.5,60.5 150.5,64.5 150.5,68.5C 149.5,68.5 148.5,68.5 147.5,68.5C 148.022,73.5876 149.022,78.5876 150.5,83.5C 150.333,84.5 150.167,85.5 150,86.5C 148.848,83.5597 147.848,80.5597 147,77.5C 146.897,84.0952 148.231,90.4285 151,96.5C 153.667,101.833 156.333,107.167 159,112.5C 160.406,115.409 162.572,117.409 165.5,118.5C 165.5,119.167 165.5,119.833 165.5,120.5C 161.901,118.737 159.068,116.07 157,112.5C 148.511,99.0362 144.511,84.3695 145,68.5C 146.11,66.9632 147.61,66.2965 149.5,66.5C 150.378,61.9133 148.878,58.58 145,56.5C 144.172,42.6452 147.172,29.6452 154,17.5C 156.333,13.8333 158.667,10.1667 161,6.5C 162.113,5.69499 163.279,5.02832 164.5,4.5 Z"/></g>
<g><path style="opacity:1" fill="#fbfbfb" d="M 165.5,5.5 C 172.167,5.5 178.833,5.5 185.5,5.5C 185.5,43.1667 185.5,80.8333 185.5,118.5C 178.833,118.5 172.167,118.5 165.5,118.5C 162.572,117.409 160.406,115.409 159,112.5C 156.333,107.167 153.667,101.833 151,96.5C 148.231,90.4285 146.897,84.0952 147,77.5C 147.848,80.5597 148.848,83.5597 150,86.5C 150.167,85.5 150.333,84.5 150.5,83.5C 149.022,78.5876 148.022,73.5876 147.5,68.5C 148.5,68.5 149.5,68.5 150.5,68.5C 150.5,64.5 150.5,60.5 150.5,56.5C 149.5,56.5 148.5,56.5 147.5,56.5C 147.938,50.9117 148.938,45.4117 150.5,40C 150.333,39.1667 150.167,38.3333 150,37.5C 149.152,40.5597 148.152,43.5597 147,46.5C 148.337,30.5038 154.504,16.8371 165.5,5.5 Z"/></g>
<g><path style="opacity:1" fill="#aaaaaa" d="M 208.5,44.5 C 210.099,44.2322 211.432,44.5655 212.5,45.5C 207.305,45.1795 202.305,45.5128 197.5,46.5C 196.957,46.44 196.624,46.1067 196.5,45.5C 200.445,44.5091 204.445,44.1758 208.5,44.5 Z"/></g>
<g><path style="opacity:1" fill="#f7f7f7" d="M 194.5,45.5 C 195.742,52.436 196.408,59.436 196.5,66.5C 197.352,70.7936 198.018,75.127 198.5,79.5C 195.167,79.5 191.833,79.5 188.5,79.5C 188.5,68.1667 188.5,56.8333 188.5,45.5C 190.5,45.5 192.5,45.5 194.5,45.5 Z"/></g>
<g><path style="opacity:1" fill="#f7f7f7" d="M 212.5,45.5 C 215.672,56.3579 218.339,67.3579 220.5,78.5C 216.702,79.4834 212.702,79.8168 208.5,79.5C 206.365,74.0513 204.865,68.3846 204,62.5C 203.156,58.7708 201.656,55.4374 199.5,52.5C 199.029,50.4214 198.363,48.4214 197.5,46.5C 202.305,45.5128 207.305,45.1795 212.5,45.5 Z"/></g>
<g><path style="opacity:1" fill="#232323" d="M 164.5,4.5 C 172.167,4.5 179.833,4.5 187.5,4.5C 187.5,17.5 187.5,30.5 187.5,43.5C 194.5,43.5 201.5,43.5 208.5,43.5C 208.5,43.8333 208.5,44.1667 208.5,44.5C 204.445,44.1758 200.445,44.5091 196.5,45.5C 196.624,46.1067 196.957,46.44 197.5,46.5C 198.363,48.4214 199.029,50.4214 199.5,52.5C 197.576,52.7107 197.243,53.3774 198.5,54.5C 198.963,57.4824 199.296,60.4824 199.5,63.5C 199.5,64.5 199.5,65.5 199.5,66.5C 198.5,66.5 197.5,66.5 196.5,66.5C 196.408,59.436 195.742,52.436 194.5,45.5C 192.393,44.5318 190.059,44.1984 187.5,44.5C 187.5,56.5 187.5,68.5 187.5,80.5C 190.833,80.5 194.167,80.5 197.5,80.5C 197.5,80.8333 197.5,81.1667 197.5,81.5C 194.167,81.5 190.833,81.5 187.5,81.5C 187.5,94.5 187.5,107.5 187.5,120.5C 180.167,120.5 172.833,120.5 165.5,120.5C 165.5,119.833 165.5,119.167 165.5,118.5C 172.167,118.5 178.833,118.5 185.5,118.5C 185.5,80.8333 185.5,43.1667 185.5,5.5C 178.833,5.5 172.167,5.5 165.5,5.5C 164.833,5.5 164.5,5.16667 164.5,4.5 Z"/></g>
<g><path style="opacity:1" fill="#1b1b1b" d="M 197.5,81.5 C 197.5,81.1667 197.5,80.8333 197.5,80.5C 198.167,80.5 198.5,80.1667 198.5,79.5C 198.018,75.127 197.352,70.7936 196.5,66.5C 197.5,66.5 198.5,66.5 199.5,66.5C 199.5,65.5 199.5,64.5 199.5,63.5C 200.875,70.7195 202.375,78.0528 204,85.5C 204.333,85.8333 204.667,86.1667 205,86.5C 206.221,85.2259 207.054,83.7259 207.5,82C 205.121,75.3181 203.288,68.4848 202,61.5C 201.102,58.9309 199.935,56.5976 198.5,54.5C 197.243,53.3774 197.576,52.7107 199.5,52.5C 201.656,55.4374 203.156,58.7708 204,62.5C 204.865,68.3846 206.365,74.0513 208.5,79.5C 212.683,80.8111 217.016,80.8111 221.5,79.5C 221.376,78.8933 221.043,78.56 220.5,78.5C 218.339,67.3579 215.672,56.3579 212.5,45.5C 211.432,44.5655 210.099,44.2322 208.5,44.5C 208.5,44.1667 208.5,43.8333 208.5,43.5C 211.122,41.3809 213.622,39.0476 216,36.5C 218.164,38.2895 219.998,40.4562 221.5,43C 226.202,43.8283 230.869,43.6616 235.5,42.5C 238.833,34.5 242.167,34.5 245.5,42.5C 250.131,43.6616 254.798,43.8283 259.5,43C 261.221,40.3806 263.054,37.8806 265,35.5C 266.946,37.8806 268.779,40.3806 270.5,43C 275.202,43.8283 279.869,43.6616 284.5,42.5C 285.443,39.5999 287.11,37.2666 289.5,35.5C 291.4,37.6195 293.066,39.9528 294.5,42.5C 299.131,43.6616 303.798,43.8283 308.5,43C 312.167,34.3333 315.833,34.3333 319.5,43C 324.202,43.8283 328.869,43.6616 333.5,42.5C 334.811,39.8646 336.478,37.5313 338.5,35.5C 340.522,37.5313 342.189,39.8646 343.5,42.5C 348.167,43.8333 352.833,43.8333 357.5,42.5C 361.275,34.5125 364.609,34.8458 367.5,43.5C 372.017,44.7545 376.517,46.0878 381,47.5C 382.301,46.9019 383.135,45.9019 383.5,44.5C 384.723,43.3861 386.056,43.2195 387.5,44C 389.081,45.828 390.415,47.828 391.5,50C 395.566,50.9789 399.566,52.1455 403.5,53.5C 405.747,52.7552 407.581,51.4219 409,49.5C 412.049,51.4105 414.549,53.9105 416.5,57C 422.712,58.2184 428.712,60.0518 434.5,62.5C 431.466,63.5671 428.466,64.7337 425.5,66C 424.571,68.3914 423.071,70.2247 421,71.5C 419.217,70.0471 417.217,69.0471 415,68.5C 411.248,69.188 407.581,70.188 404,71.5C 402.22,74.0861 400.22,76.4194 398,78.5C 396.014,77.3427 394.18,76.0093 392.5,74.5C 388.123,75.5109 383.79,76.6775 379.5,78C 378.268,80.975 376.434,83.475 374,85.5C 372.48,84.303 371.313,82.803 370.5,81C 365.467,80.8366 360.467,81.3366 355.5,82.5C 352.167,90.5 348.833,90.5 345.5,82.5C 340.5,81.1667 335.5,81.1667 330.5,82.5C 327.015,90.4128 323.682,90.2461 320.5,82C 315.833,81.3333 311.167,81.3333 306.5,82C 303.318,90.2461 299.985,90.4128 296.5,82.5C 291.5,81.1667 286.5,81.1667 281.5,82.5C 278.015,90.4128 274.682,90.2461 271.5,82C 266.798,81.1717 262.131,81.3384 257.5,82.5C 254.167,90.5 250.833,90.5 247.5,82.5C 242.5,81.1667 237.5,81.1667 232.5,82.5C 229.111,90.4522 225.777,90.2855 222.5,82C 218.129,81.1725 213.795,81.3391 209.5,82.5C 208.552,84.9438 207.052,86.9438 205,88.5C 202.483,86.0744 199.983,83.7411 197.5,81.5 Z"/></g>
<g><path style="opacity:1" fill="#f6f6f6" d="M 369.5,46.5 C 374.52,47.2685 379.353,48.6018 384,50.5C 386.575,57.2965 389.075,64.1299 391.5,71C 391.355,71.772 391.022,72.4387 390.5,73C 386.606,73.9645 382.773,75.1311 379,76.5C 378.228,76.3552 377.561,76.0219 377,75.5C 374.072,65.9203 371.572,56.2536 369.5,46.5 Z"/></g>
<g><path style="opacity:1" fill="#f4f4f4" d="M 345.5,44.5 C 349.846,44.3343 354.179,44.501 358.5,45C 359,45.5 359.5,46 360,46.5C 363.152,57.4329 365.986,68.4329 368.5,79.5C 363.5,79.5 358.5,79.5 353.5,79.5C 350.94,67.8044 348.273,56.1377 345.5,44.5 Z"/></g>
<g><path style="opacity:1" fill="#f3f3f3" d="M 320.5,44.5 C 325.43,44.1975 330.263,44.5308 335,45.5C 338.404,57.0207 341.238,68.6874 343.5,80.5C 339.154,80.6657 334.821,80.499 330.5,80C 330,79.5 329.5,79 329,78.5C 326.272,67.1206 323.438,55.7873 320.5,44.5 Z"/></g>
<g><path style="opacity:1" fill="#e0e0e0" d="M 313.5,38.5 C 314.117,38.6107 314.617,38.944 315,39.5C 317.82,52.4254 319.82,65.4254 321,78.5C 317.912,68.0072 315.246,57.3405 313,46.5C 312.535,45.0692 311.701,43.9025 310.5,43C 311.386,41.3853 312.386,39.8853 313.5,38.5 Z"/></g>
<g><path style="opacity:1" fill="#f5f5f5" d="M 318.5,78.5 C 314.366,79.4849 310.032,79.8182 305.5,79.5C 303.559,75.4456 302.059,71.1123 301,66.5C 299.605,59.1225 298.105,51.7891 296.5,44.5C 300.846,44.3343 305.179,44.501 309.5,45C 310,45.5 310.5,46 311,46.5C 313.456,57.2135 315.956,67.8801 318.5,78.5 Z"/></g>
<g><path style="opacity:1" fill="#f8f8f8" d="M 285.5,45.5 C 289.011,55.8443 291.677,66.511 293.5,77.5C 289.627,79.4302 285.294,80.0969 280.5,79.5C 277.515,68.6022 274.849,57.6022 272.5,46.5C 276.634,45.5151 280.968,45.1818 285.5,45.5 Z"/></g>
<g><path style="opacity:1" fill="#f6f6f6" d="M 269.5,78.5 C 265.366,79.4849 261.032,79.8182 256.5,79.5C 253.083,68.3957 250.083,57.0623 247.5,45.5C 249.833,45.1667 252.167,44.8333 254.5,44.5C 257.287,44.5738 259.787,45.2405 262,46.5C 264.821,57.1071 267.321,67.7738 269.5,78.5 Z"/></g>
<g><path style="opacity:1" fill="#f3f3f3" d="M 222.5,44.5 C 227.43,44.1975 232.263,44.5308 237,45.5C 240.404,57.0207 243.238,68.6874 245.5,80.5C 240.786,80.8266 236.12,80.4933 231.5,79.5C 228.626,67.7973 225.626,56.1307 222.5,44.5 Z"/></g>
<g><path style="opacity:1" fill="#979797" d="M 285.5,45.5 C 280.968,45.1818 276.634,45.5151 272.5,46.5C 271.957,46.44 271.624,46.1067 271.5,45.5C 276.318,44.1876 280.985,44.1876 285.5,45.5 Z"/></g>
<g><path style="opacity:1" fill="#e0e0e0" d="M 337.5,38.5 C 339.825,39.6546 340.992,41.6546 341,44.5C 343.069,56.4972 344.736,68.4972 346,80.5C 342.699,69.6626 340.032,58.6626 338,47.5C 337.15,45.99 336.317,44.49 335.5,43C 336.414,41.5936 337.08,40.0936 337.5,38.5 Z"/></g>
<g><path style="opacity:1" fill="#e3e3e3" d="M 264.5,38.5 C 265.117,38.6107 265.617,38.944 266,39.5C 268.979,52.7306 270.979,66.0639 272,79.5C 269.046,67.1107 265.88,54.7774 262.5,42.5C 262.752,40.9271 263.418,39.5938 264.5,38.5 Z"/></g>
<g><path style="opacity:1" fill="#e4e4e4" d="M 288.5,38.5 C 289.497,38.4701 290.164,38.9701 290.5,40C 293.361,52.3929 295.194,64.8929 296,77.5C 293.378,65.8468 290.212,54.3468 286.5,43C 287.414,41.5936 288.08,40.0936 288.5,38.5 Z"/></g>
<g><path style="opacity:1" fill="#e4e4e4" d="M 215.5,38.5 C 216.117,38.6107 216.617,38.944 217,39.5C 220.091,52.7079 222.091,66.0412 223,79.5C 220.015,68.5952 217.348,57.5952 215,46.5C 214.535,45.0692 213.701,43.9025 212.5,43C 213.386,41.3853 214.386,39.8853 215.5,38.5 Z"/></g>
<g><path style="opacity:1" fill="#d6d6d6" d="M 361.5,38.5 C 363.511,40.667 364.678,43.3337 365,46.5C 366.475,54.4866 367.475,62.4866 368,70.5C 366.404,60.7792 363.57,51.4458 359.5,42.5C 360.18,41.1401 360.847,39.8068 361.5,38.5 Z"/></g>
<g><path style="opacity:1" fill="#dddddd" d="M 239.5,38.5 C 240.931,38.8807 241.764,39.8807 242,41.5C 244.66,54.4525 246.66,67.4525 248,80.5C 244.701,69.6751 242.034,58.6751 240,47.5C 239.15,45.99 238.317,44.49 237.5,43C 238.414,41.5936 239.08,40.0936 239.5,38.5 Z"/></g>
<g><path style="opacity:1" fill="#cfcfcf" d="M 385.5,44.5 C 389.04,50.9926 390.874,57.9926 391,65.5C 389.754,58.9157 387.254,52.9157 383.5,47.5C 384.193,46.4822 384.859,45.4822 385.5,44.5 Z"/></g>
<g><path style="opacity:1" fill="#f3f3f3" d="M 393.5,52.5 C 398.126,53.763 402.793,54.9297 407.5,56C 410.08,59.1584 412.413,62.4918 414.5,66C 409.718,68.6182 404.718,69.4516 399.5,68.5C 396.931,63.3648 394.931,58.0315 393.5,52.5 Z"/></g>
<g><path style="opacity:1" fill="#e2e2e2" d="M 293.5,45.5 C 297.312,54.6853 299.812,64.352 301,74.5C 301.885,77 303.052,79.3333 304.5,81.5C 303.826,83.5165 302.659,85.1832 301,86.5C 297.899,72.9631 295.399,59.2965 293.5,45.5 Z"/></g>
<g><path style="opacity:1" fill="#c9c9c9" d="M 408.5,51.5 C 410.074,51.9371 411.241,52.9371 412,54.5C 413.314,57.0893 413.981,59.7559 414,62.5C 412.487,59.4756 410.487,56.8089 408,54.5C 407.53,53.4232 407.697,52.4232 408.5,51.5 Z"/></g>
<g><path style="opacity:1" fill="#c2c2c2" d="M 194.5,45.5 C 192.5,45.5 190.5,45.5 188.5,45.5C 188.5,56.8333 188.5,68.1667 188.5,79.5C 191.833,79.5 195.167,79.5 198.5,79.5C 198.5,80.1667 198.167,80.5 197.5,80.5C 194.167,80.5 190.833,80.5 187.5,80.5C 187.5,68.5 187.5,56.5 187.5,44.5C 190.059,44.1984 192.393,44.5318 194.5,45.5 Z"/></g>
<g><path style="opacity:1" fill="#e4e4e4" d="M 418.5,60.5 C 418.735,59.9033 419.235,59.5699 420,59.5C 422.856,60.2557 425.689,61.089 428.5,62C 427.226,63.2208 425.726,64.0541 424,64.5C 422.019,63.3498 420.186,62.0165 418.5,60.5 Z"/></g>
<g><path style="opacity:1" fill="#e2e2e2" d="M 391.5,54.5 C 393.726,60.8166 396.726,66.8166 400.5,72.5C 398.056,77.8477 396.223,77.5143 395,71.5C 393.671,65.8519 392.504,60.1853 391.5,54.5 Z"/></g>
<g><path style="opacity:1" fill="#dbdbdb" d="M 416.5,61.5 C 418.561,63.3807 420.894,65.0474 423.5,66.5C 422.469,67.7003 421.635,69.0337 421,70.5C 418.962,67.7568 417.462,64.7568 416.5,61.5 Z"/></g>
<g><path style="opacity:1" fill="#e4e4e4" d="M 318.5,46.5 C 319.793,47.842 320.626,49.5087 321,51.5C 322.641,61.8987 325.141,72.0654 328.5,82C 327.093,87.4706 325.593,87.6372 324,82.5C 321.839,70.5411 320.006,58.5411 318.5,46.5 Z"/></g>
<g><path style="opacity:1" fill="#e4e4e4" d="M 366.5,45.5 C 369.883,56.5267 373.217,67.6934 376.5,79C 374.764,83.5686 373.264,83.4019 372,78.5C 369.757,67.5543 367.924,56.5543 366.5,45.5 Z"/></g>
<g><path style="opacity:1" fill="#e4e4e4" d="M 269.5,46.5 C 270.793,47.842 271.626,49.5087 272,51.5C 273.807,61.8492 276.307,72.0159 279.5,82C 278.093,87.4706 276.593,87.6372 275,82.5C 272.84,70.5386 271.006,58.5386 269.5,46.5 Z"/></g>
<g><path style="opacity:1" fill="#e7e7e7" d="M 198.5,54.5 C 199.935,56.5976 201.102,58.9309 202,61.5C 203.288,68.4848 205.121,75.3181 207.5,82C 207.054,83.7259 206.221,85.2259 205,86.5C 204.667,86.1667 204.333,85.8333 204,85.5C 202.375,78.0528 200.875,70.7195 199.5,63.5C 199.296,60.4824 198.963,57.4824 198.5,54.5 Z"/></g>
<g><path style="opacity:1" fill="#e5e5e5" d="M 220.5,46.5 C 221.793,47.842 222.626,49.5087 223,51.5C 224.637,61.8801 227.137,72.0468 230.5,82C 229.093,87.4706 227.593,87.6372 226,82.5C 224.212,70.4808 222.378,58.4808 220.5,46.5 Z"/></g>
<g><path style="opacity:1" fill="#e2e2e2" d="M 245.5,47.5 C 248.762,58.9448 252.095,70.4448 255.5,82C 254.711,83.6255 253.711,85.1255 252.5,86.5C 250.896,82.6568 249.729,78.6568 249,74.5C 248.077,65.4505 246.911,56.4505 245.5,47.5 Z"/></g>
<g><path style="opacity:1" fill="#e5e5e5" d="M 342.5,44.5 C 346.286,56.732 349.952,69.0653 353.5,81.5C 352.752,83.3325 351.752,84.9991 350.5,86.5C 346.814,72.7034 344.148,58.7034 342.5,44.5 Z"/></g>
<g><path style="opacity:1" fill="#808080" d="M 220.5,78.5 C 221.043,78.56 221.376,78.8933 221.5,79.5C 217.016,80.8111 212.683,80.8111 208.5,79.5C 212.702,79.8168 216.702,79.4834 220.5,78.5 Z"/></g>
<g><path style="opacity:1" fill="#7e7e7e" d="M 269.5,78.5 C 270.043,78.56 270.376,78.8933 270.5,79.5C 265.682,80.8124 261.015,80.8124 256.5,79.5C 261.032,79.8182 265.366,79.4849 269.5,78.5 Z"/></g>
<g><path style="opacity:1" fill="#858585" d="M 293.5,77.5 C 294.404,78.209 294.737,79.209 294.5,80.5C 289.637,80.8195 284.97,80.4861 280.5,79.5C 285.294,80.0969 289.627,79.4302 293.5,77.5 Z"/></g>
<g><path style="opacity:1" fill="#808080" d="M 318.5,78.5 C 319.043,78.56 319.376,78.8933 319.5,79.5C 314.682,80.8124 310.015,80.8124 305.5,79.5C 310.032,79.8182 314.366,79.4849 318.5,78.5 Z"/></g>
<g><path style="opacity:1" fill="#212121" d="M 52.5,4.5 C 87.2357,1.6055 110.069,16.6055 121,49.5C 125.359,77.6088 115.526,99.1088 91.5,114C 60.875,127.136 35.375,120.636 15,94.5C -1.10479,64.0331 3.72854,37.5331 29.5,15C 36.7602,10.3659 44.4268,6.86591 52.5,4.5 Z"/></g>
<g><path style="opacity:1" fill="#fafafa" d="M 59.5,5.5 C 86.6634,5.51084 105.83,17.8442 117,42.5C 125.655,75.5719 114.822,99.7386 84.5,115C 56.0832,124.03 33.2498,116.53 16,92.5C 0.244681,61.0266 6.41135,34.8599 34.5,14C 42.3771,9.37311 50.7104,6.53978 59.5,5.5 Z"/></g>
<g><path style="opacity:1" fill="#212121" d="M 71.5,27.5 C 72.1323,34.2668 72.799,40.9335 73.5,47.5C 77.9673,45.3008 82.3007,42.1341 86.5,38C 87.3317,37.3123 87.9984,37.479 88.5,38.5C 85.5741,42.6819 82.4075,46.6819 79,50.5C 78.5172,51.448 78.3505,52.448 78.5,53.5C 85.1667,53.5 91.8333,53.5 98.5,53.5C 100.121,59.4853 99.788,65.3187 97.5,71C 91.1406,71.1694 84.8072,71.6694 78.5,72.5C 92.6516,89.5142 91.1516,90.8475 74,76.5C 73.5004,83.1583 73.3337,89.825 73.5,96.5C 67.2892,97.7281 61.1225,97.7281 55,96.5C 54.6667,89.8333 54.3333,83.1667 54,76.5C 37.0418,90.7076 35.5418,89.3742 49.5,72.5C 42.8333,71.8333 36.1667,71.1667 29.5,70.5C 28.1667,65.1667 28.1667,59.8333 29.5,54.5C 36.1667,53.8333 42.8333,53.1667 49.5,52.5C 46.5237,48.3562 43.357,44.3562 40,40.5C 39.2506,39.365 39.4173,38.365 40.5,37.5C 45.0918,41.047 49.5918,44.7136 54,48.5C 54.3333,41.8333 54.6667,35.1667 55,28.5C 60.3604,26.271 65.8604,25.9376 71.5,27.5 Z"/></g>
<g><path style="opacity:1" fill="#f2f2f2" d="M 56.5,80.5 C 61.4693,81.5909 66.4693,81.5909 71.5,80.5C 71.8275,85.544 71.4941,90.544 70.5,95.5C 66.1667,96.8333 61.8333,96.8333 57.5,95.5C 56.5059,90.544 56.1725,85.544 56.5,80.5 Z"/></g>
<g><path style="opacity:1" fill="#b7b7b7" d="M 50.5,73.5 C 52.0281,73.5173 52.5281,74.184 52,75.5C 50.5784,77.6381 48.745,78.8047 46.5,79C 48.4641,77.549 49.7974,75.7157 50.5,73.5 Z"/></g>
<g><path style="opacity:1" fill="#d5d5d5" d="M 74.5,73.5 C 76.8863,74.3733 78.8863,75.8733 80.5,78C 79.8333,78.6667 79.1667,78.6667 78.5,78C 76.8082,76.6927 75.4749,75.1927 74.5,73.5 Z"/></g>
<g><path style="opacity:1" fill="#f9f9f9" d="M 96.5,55.5 C 97.7994,59.7025 97.7994,64.0358 96.5,68.5C 91.8804,69.4933 87.2137,69.8266 82.5,69.5C 82.5,65.1667 82.5,60.8333 82.5,56.5C 86.97,55.5139 91.6367,55.1805 96.5,55.5 Z"/></g>
<g><path style="opacity:1" fill="#f6f6f6" d="M 30.5,55.5 C 35.544,55.1725 40.544,55.5059 45.5,56.5C 44.1667,60.5 44.1667,64.5 45.5,68.5C 40.544,69.4941 35.544,69.8275 30.5,69.5C 29.3274,64.8091 29.3274,60.1425 30.5,55.5 Z"/></g>
<g><path style="opacity:1" fill="#808080" d="M 96.5,55.5 C 91.6367,55.1805 86.97,55.5139 82.5,56.5C 81.9569,56.44 81.6236,56.1067 81.5,55.5C 86.6523,54.1863 91.6523,54.1863 96.5,55.5 Z"/></g>
<g><path style="opacity:1" fill="#b7b7b7" d="M 80.5,44.5 C 81.0431,44.56 81.3764,44.8933 81.5,45.5C 79.7516,48.6701 77.4183,50.3368 74.5,50.5C 76.8272,48.8394 78.8272,46.8394 80.5,44.5 Z"/></g>
<g><path style="opacity:1" fill="#d0d0d0" d="M 46.5,46.5 C 46.8966,45.475 47.5632,45.3083 48.5,46C 50.019,47.3513 51.3523,48.8513 52.5,50.5C 52.1667,50.8333 51.8333,51.1667 51.5,51.5C 50.1455,49.4788 48.4788,47.8121 46.5,46.5 Z"/></g>
<g><path style="opacity:1" fill="#f8f8f8" d="M 57.5,45.5 C 61.8461,45.3343 66.1794,45.501 70.5,46C 71.7023,51.2024 74.869,54.3691 80,55.5C 81.8265,60.1103 81.9932,64.7769 80.5,69.5C 78.6916,69.4914 77.0249,69.9914 75.5,71C 73.242,73.5361 71.242,76.2028 69.5,79C 65.2452,79.7961 61.0785,79.6295 57,78.5C 55.7027,73.3699 52.5361,70.0365 47.5,68.5C 46.1667,64.1667 46.1667,59.8333 47.5,55.5C 53.1854,54.4813 56.5188,51.1479 57.5,45.5 Z"/></g>
<g><path style="opacity:1" fill="#b2b2b2" d="M 70.5,29.5 C 71.8137,34.3477 71.8137,39.3477 70.5,44.5C 69.8933,44.3764 69.56,44.0431 69.5,43.5C 70.4861,39.03 70.8195,34.3633 70.5,29.5 Z"/></g>
<g><path style="opacity:1" fill="#929292" d="M 71.5,27.5 C 73.4589,33.7496 74.1255,40.4163 73.5,47.5C 72.799,40.9335 72.1323,34.2668 71.5,27.5 Z"/></g>
<g><path style="opacity:1" fill="#f8f8f8" d="M 70.5,29.5 C 70.8195,34.3633 70.4861,39.03 69.5,43.5C 65.4295,43.2338 61.4295,43.5672 57.5,44.5C 56.3377,39.533 56.1711,34.533 57,29.5C 61.4994,28.1943 65.9994,28.1943 70.5,29.5 Z"/></g>
</svg>
