<?xml version="1.0" encoding="UTF-8"?>
<!DOCTYPE svg PUBLIC "-//W3C//DTD SVG 1.1//EN" "http://www.w3.org/Graphics/SVG/1.1/DTD/svg11.dtd">
<svg xmlns="http://www.w3.org/2000/svg" version="1.1" width="449px" height="133px" style="shape-rendering:geometricPrecision; text-rendering:geometricPrecision; image-rendering:optimizeQuality; fill-rule:evenodd; clip-rule:evenodd" xmlns:xlink="http://www.w3.org/1999/xlink">
<g><path style="opacity:1" fill="#fdfdfd" d="M -0.5,-0.5 C 149.167,-0.5 298.833,-0.5 448.5,-0.5C 448.5,43.8333 448.5,88.1667 448.5,132.5C 298.833,132.5 149.167,132.5 -0.5,132.5C -0.5,88.1667 -0.5,43.8333 -0.5,-0.5 Z"/></g>
<g><path style="opacity:1" fill="#fcfcfc" d="M 439.5,57.5 C 424.515,58.8328 409.182,59.4994 393.5,59.5C 377.818,59.4994 362.485,58.8328 347.5,57.5C 353.772,35.3424 368.438,23.0091 391.5,20.5C 416.543,21.3308 432.543,33.6641 439.5,57.5 Z"/></g>
<g><path style="opacity:1" fill="#1c1c1c" d="M 442.5,60.5 C 441.833,60.5 441.167,60.5 440.5,60.5C 440.737,59.209 440.404,58.209 439.5,57.5C 432.543,33.6641 416.543,21.3308 391.5,20.5C 368.438,23.0091 353.772,35.3424 347.5,57.5C 347.167,57.5 346.833,57.5 346.5,57.5C 346.5,56.8333 346.167,56.5 345.5,56.5C 352.492,33.1633 368.159,20.4967 392.5,18.5C 419.866,19.8722 436.532,33.8722 442.5,60.5 Z"/></g>
<g><path style="opacity:1" fill="#f4f4f4" d="M 18.5,27.5 C 19.4946,38.3206 19.8279,49.3206 19.5,60.5C 16.8333,60.5 14.1667,60.5 11.5,60.5C 11.7789,49.0526 14.1123,38.0526 18.5,27.5 Z"/></g>
<g><path style="opacity:1" fill="#898989" d="M 19.5,25.5 C 20.8333,37.1667 20.8333,48.8333 19.5,60.5C 19.8279,49.3206 19.4946,38.3206 18.5,27.5C 18.8333,26.8333 19.1667,26.1667 19.5,25.5 Z"/></g>
<g><path style="opacity:1" fill="#fdfdfd" d="M 48.5,42.5 C 74.1667,42.5 99.8333,42.5 125.5,42.5C 127.303,57.5379 129.303,72.5379 131.5,87.5C 129.812,89.8545 127.812,91.8545 125.5,93.5C 99.8333,93.5 74.1667,93.5 48.5,93.5C 48.5,76.5 48.5,59.5 48.5,42.5 Z"/></g>
<g><path style="opacity:1" fill="#1b1b1b" d="M 124.5,40.5 C 99.1667,41.1667 73.8333,41.8333 48.5,42.5C 48.5,59.5 48.5,76.5 48.5,93.5C 74.1667,93.5 99.8333,93.5 125.5,93.5C 125.5,94.1667 125.5,94.8333 125.5,95.5C 99.4915,95.1669 73.4915,95.5002 47.5,96.5C 40.9873,103.512 34.3207,110.346 27.5,117C 25.1667,117.667 22.8333,117.667 20.5,117C 14.1066,104.261 10.44,90.7615 9.5,76.5C 17.2814,74.8459 25.2814,73.8459 33.5,73.5C 33.5,69.8333 33.5,66.1667 33.5,62.5C 24.953,61.8985 17.6197,61.2318 11.5,60.5C 14.1667,60.5 16.8333,60.5 19.5,60.5C 20.8333,48.8333 20.8333,37.1667 19.5,25.5C 18.8333,25.5 18.5,25.1667 18.5,24.5C 19.0003,18.6829 22.0003,17.0162 27.5,19.5C 33.9853,26.4856 40.652,33.3189 47.5,40C 73.1645,40.5 98.8312,40.6666 124.5,40.5 Z"/></g>
<g><path style="opacity:1" fill="#676767" d="M 28.5,23.5 C 27.5048,35.6554 27.1714,47.9887 27.5,60.5C 26.175,47.9938 26.175,35.3271 27.5,22.5C 28.1067,22.6236 28.44,22.9569 28.5,23.5 Z"/></g>
<g><path style="opacity:1" fill="#fafafa" d="M 28.5,23.5 C 34.4647,28.9638 40.2981,34.6304 46,40.5C 46.6667,58.8333 46.6667,77.1667 46,95.5C 40.2981,101.37 34.4647,107.036 28.5,112.5C 27.5048,100.345 27.1714,88.0113 27.5,75.5C 30.1667,75.5 32.8333,75.5 35.5,75.5C 35.5,70.5 35.5,65.5 35.5,60.5C 32.8333,60.5 30.1667,60.5 27.5,60.5C 27.1714,47.9887 27.5048,35.6554 28.5,23.5 Z"/></g>
<g><path style="opacity:1" fill="#c9c9c9" d="M 21.5,20.5 C 22.8333,20.5 24.1667,20.5 25.5,20.5C 25.5,33.8333 25.5,47.1667 25.5,60.5C 24.1667,60.5 22.8333,60.5 21.5,60.5C 21.5,47.1667 21.5,33.8333 21.5,20.5 Z"/></g>
<g><path style="opacity:1" fill="#212121" d="M 18.5,24.5 C 18.5,25.1667 18.8333,25.5 19.5,25.5C 19.1667,26.1667 18.8333,26.8333 18.5,27.5C 14.1123,38.0526 11.7789,49.0526 11.5,60.5C 17.6197,61.2318 24.953,61.8985 33.5,62.5C 25.1667,62.5 16.8333,62.5 8.5,62.5C 9.5258,55.1538 10.6925,47.8204 12,40.5C 13.2708,34.6902 15.4375,29.3569 18.5,24.5 Z"/></g>
<g><path style="opacity:1" fill="#d5d5d5" d="M 346.5,57.5 C 346.833,57.5 347.167,57.5 347.5,57.5C 362.485,58.8328 377.818,59.4994 393.5,59.5C 409.182,59.4994 424.515,58.8328 439.5,57.5C 440.404,58.209 440.737,59.209 440.5,60.5C 409.167,60.5 377.833,60.5 346.5,60.5C 346.5,59.5 346.5,58.5 346.5,57.5 Z"/></g>
<g><path style="opacity:1" fill="#010101" d="M 345.5,56.5 C 346.167,56.5 346.5,56.8333 346.5,57.5C 346.5,58.5 346.5,59.5 346.5,60.5C 377.833,60.5 409.167,60.5 440.5,60.5C 441.167,60.5 441.833,60.5 442.5,60.5C 442.5,60.8333 442.5,61.1667 442.5,61.5C 439.833,61.5 437.167,61.5 434.5,61.5C 434.5,65.1667 434.5,68.8333 434.5,72.5C 434.5,72.8333 434.5,73.1667 434.5,73.5C 437.118,74.056 439.118,74.7227 440.5,75.5C 411.5,75.5 382.5,75.5 353.5,75.5C 379.833,74.8333 406.167,74.1667 432.5,73.5C 433.715,69.6992 433.715,66.0326 432.5,62.5C 403.671,61.502 374.671,61.1686 345.5,61.5C 345.5,60.1667 345.5,58.8333 345.5,57.5C 345.5,57.1667 345.5,56.8333 345.5,56.5 Z"/></g>
<g><path style="opacity:1" fill="#fcfcfc" d="M 432.5,62.5 C 433.715,66.0326 433.715,69.6992 432.5,73.5C 406.5,73.5 380.5,73.5 354.5,73.5C 354.5,69.8333 354.5,66.1667 354.5,62.5C 380.5,62.5 406.5,62.5 432.5,62.5 Z"/></g>
<g><path style="opacity:1" fill="#545454" d="M 442.5,61.5 C 440.393,62.4682 438.059,62.8016 435.5,62.5C 435.813,66.0419 435.479,69.3752 434.5,72.5C 434.5,68.8333 434.5,65.1667 434.5,61.5C 437.167,61.5 439.833,61.5 442.5,61.5 Z"/></g>
<g><path style="opacity:1" fill="#3e3e3e" d="M 33.5,73.5 C 25.2814,73.8459 17.2814,74.8459 9.5,76.5C 8.59603,75.791 8.26269,74.791 8.5,73.5C 16.8333,73.5 25.1667,73.5 33.5,73.5 Z"/></g>
<g><path style="opacity:1" fill="#f6f6f6" d="M 19.5,75.5 C 19.8279,86.6794 19.4946,97.6794 18.5,108.5C 14.4307,97.8868 12.0974,86.8868 11.5,75.5C 14.1667,75.5 16.8333,75.5 19.5,75.5 Z"/></g>
<g><path style="opacity:1" fill="#8b8b8b" d="M 19.5,75.5 C 20.6595,86.9927 20.8261,98.6593 20,110.5C 19.2828,109.956 18.7828,109.289 18.5,108.5C 19.4946,97.6794 19.8279,86.6794 19.5,75.5 Z"/></g>
<g><path style="opacity:1" fill="#dfdfdf" d="M 22.5,75.5 C 23.5,75.5 24.5,75.5 25.5,75.5C 25.5,88.8333 25.5,102.167 25.5,115.5C 24.5,115.5 23.5,115.5 22.5,115.5C 22.5,102.167 22.5,88.8333 22.5,75.5 Z"/></g>
<g><path style="opacity:1" fill="#696969" d="M 27.5,75.5 C 27.1714,88.0113 27.5048,100.345 28.5,112.5C 28.44,113.043 28.1067,113.376 27.5,113.5C 26.175,100.673 26.175,88.0062 27.5,75.5 Z"/></g>
<g><path style="opacity:1" fill="#1c1c1c" d="M 124.5,40.5 C 128.499,41.9843 131.833,44.4843 134.5,48C 137.882,48.8236 141.216,48.657 144.5,47.5C 147.602,39.6242 150.936,39.6242 154.5,47.5C 159.167,48.8333 163.833,48.8333 168.5,47.5C 171.833,39.5 175.167,39.5 178.5,47.5C 183.167,48.8333 187.833,48.8333 192.5,47.5C 195.833,39.5 199.167,39.5 202.5,47.5C 207.167,48.8333 211.833,48.8333 216.5,47.5C 219.833,39.5 223.167,39.5 226.5,47.5C 231.167,48.8333 235.833,48.8333 240.5,47.5C 241.766,45.2902 243.266,43.2902 245,41.5C 247.732,43.4331 249.899,45.9331 251.5,49C 255.411,50.4705 259.411,51.6372 263.5,52.5C 265.771,51.5609 267.771,50.2276 269.5,48.5C 272.172,50.6726 274.506,53.1726 276.5,56C 280.152,56.8971 283.819,57.7304 287.5,58.5C 289.208,58.2972 290.541,57.4638 291.5,56C 292.833,55.3333 294.167,55.3333 295.5,56C 296.833,58 298.167,60 299.5,62C 306.357,63.3806 313.023,65.3806 319.5,68C 316.702,69.4532 313.702,70.4532 310.5,71C 308.998,73.5438 307.164,75.7105 305,77.5C 303.28,76.277 301.447,75.277 299.5,74.5C 295.78,75.1197 292.114,75.953 288.5,77C 286.557,80.0464 284.057,82.5464 281,84.5C 279.333,83.1667 277.667,81.8333 276,80.5C 271.868,81.793 267.701,82.9597 263.5,84C 261.899,87.0669 259.732,89.5669 257,91.5C 255.584,89.2927 253.751,87.6261 251.5,86.5C 247.153,87.047 242.819,87.7137 238.5,88.5C 235.045,96.462 231.712,96.462 228.5,88.5C 223.833,87.1667 219.167,87.1667 214.5,88.5C 211.615,95.9754 208.282,96.3088 204.5,89.5C 202.603,88.1952 200.269,87.5286 197.5,87.5C 194.975,87.5034 192.641,87.8367 190.5,88.5C 187.451,95.8824 184.118,96.2158 180.5,89.5C 178.603,88.1952 176.269,87.5286 173.5,87.5C 170.975,87.5034 168.641,87.8367 166.5,88.5C 162.592,96.5973 158.925,96.4306 155.5,88C 151.129,87.1725 146.795,87.3391 142.5,88.5C 141.289,90.4219 139.956,92.2552 138.5,94C 137.5,94.6667 136.5,94.6667 135.5,94C 134.845,92.5134 133.845,91.3467 132.5,90.5C 130.427,92.5798 128.093,94.2464 125.5,95.5C 125.5,94.8333 125.5,94.1667 125.5,93.5C 127.812,91.8545 129.812,89.8545 131.5,87.5C 129.303,72.5379 127.303,57.5379 125.5,42.5C 99.8333,42.5 74.1667,42.5 48.5,42.5C 73.8333,41.8333 99.1667,41.1667 124.5,40.5 Z"/></g>
<g><path style="opacity:1" fill="#dddddd" d="M 177.5,50.5 C 180.781,62.8662 184.447,75.1995 188.5,87.5C 187.752,89.3325 186.752,90.9991 185.5,92.5C 182.193,78.6628 179.526,64.6628 177.5,50.5 Z"/></g>
<g><path style="opacity:1" fill="#e4e4e4" d="M 226.5,53.5 C 229.505,64.8401 232.839,76.1735 236.5,87.5C 235.974,89.2303 234.974,90.5637 233.5,91.5C 230.152,79.05 227.818,66.3833 226.5,53.5 Z"/></g>
<g><path style="opacity:1" fill="#dedede" d="M 202.5,53.5 C 205.33,61.856 207.496,70.5227 209,79.5C 209.869,82.3303 211.036,84.997 212.5,87.5C 211.752,89.3325 210.752,90.9991 209.5,92.5C 206.202,79.7151 203.869,66.7151 202.5,53.5 Z"/></g>
<g><path style="opacity:1" fill="#e0e0e0" d="M 250.5,53.5 C 253.125,61.5706 255.291,69.9039 257,78.5C 260.886,81.8332 261.053,85.1666 257.5,88.5C 256.21,86.3435 255.376,84.0101 255,81.5C 253.175,72.206 251.675,62.8726 250.5,53.5 Z"/></g>
<g><path style="opacity:1" fill="#dcdcdc" d="M 153.5,51.5 C 154.117,51.6107 154.617,51.944 155,52.5C 157.46,62.4658 159.793,72.4658 162,82.5C 162.36,84.4211 163.194,86.0878 164.5,87.5C 161.563,93.888 159.73,93.2213 159,85.5C 157.489,74.1017 155.656,62.7683 153.5,51.5 Z"/></g>
<g><path style="opacity:1" fill="#e2e2e2" d="M 275.5,61.5 C 277.997,67.3332 280.664,73.1665 283.5,79C 283.387,80.2798 282.72,81.1131 281.5,81.5C 278.13,75.3789 276.13,68.7123 275.5,61.5 Z"/></g>
<g><path style="opacity:1" fill="#818181" d="M 250.5,68.5 C 251.596,71.6657 252.096,74.999 252,78.5C 250.976,75.8649 250.143,73.1982 249.5,70.5C 250.338,70.1583 250.672,69.4916 250.5,68.5 Z"/></g>
<g><path style="opacity:1" fill="#dadada" d="M 130.5,56.5 C 133.326,66.9209 136.659,77.2543 140.5,87.5C 139.5,88.8333 138.5,90.1667 137.5,91.5C 135.874,88.0018 134.707,84.3351 134,80.5C 132.996,72.4636 131.829,64.4636 130.5,56.5 Z"/></g>
<g><path style="opacity:1" fill="#e9e9e9" d="M 301.5,68.5 C 303.317,69.8157 304.983,71.3157 306.5,73C 306.37,74.0588 305.87,74.8921 305,75.5C 302.978,73.6066 301.812,71.2733 301.5,68.5 Z"/></g>
<g><path style="opacity:1" fill="#dcdcdc" d="M 148.5,44.5 C 149.79,45.0577 150.623,46.0577 151,47.5C 153.327,59.4521 154.993,71.4521 156,83.5C 153.542,73.5456 151.209,63.5456 149,53.5C 146.144,50.5311 145.978,47.5311 148.5,44.5 Z"/></g>
<g><path style="opacity:1" fill="#d5d5d5" d="M 302.5,64.5 C 306.142,65.649 309.808,66.8157 313.5,68C 308.364,70.8286 304.697,69.6619 302.5,64.5 Z"/></g>
<g><path style="opacity:1" fill="#dcdcdc" d="M 292.5,57.5 C 295.577,59.6534 297.077,62.6534 297,66.5C 295.638,63.7644 293.804,61.4311 291.5,59.5C 291.863,58.8165 292.196,58.1499 292.5,57.5 Z"/></g>
<g><path style="opacity:1" fill="#dddddd" d="M 196.5,44.5 C 197.497,44.4701 198.164,44.9701 198.5,46C 201.365,58.3872 203.198,70.8872 204,83.5C 201.285,73.59 198.951,63.59 197,53.5C 194.144,50.5311 193.978,47.5311 196.5,44.5 Z"/></g>
<g><path style="opacity:1" fill="#f4f4f4" d="M 277.5,58.5 C 282.673,59.4343 287.673,60.9343 292.5,63C 294.108,66.272 296.108,69.272 298.5,72C 293.56,73.9959 288.56,74.8292 283.5,74.5C 280.931,69.3648 278.931,64.0315 277.5,58.5 Z"/></g>
<g><path style="opacity:1" fill="#c6c6c6" d="M 268.5,51.5 C 270.614,52.3602 271.78,54.0268 272,56.5C 273.324,60.4463 273.991,64.4463 274,68.5C 272.604,62.9682 270.437,57.8015 267.5,53C 268.056,52.6174 268.389,52.1174 268.5,51.5 Z"/></g>
<g><path style="opacity:1" fill="#f4f4f4" d="M 253.5,52.5 C 258.529,52.5904 263.196,53.9237 267.5,56.5C 270.817,63.9356 273.15,71.4356 274.5,79C 270.171,79.6235 266.005,80.7902 262,82.5C 261.5,82.1667 261,81.8333 260.5,81.5C 257.633,71.9637 255.299,62.2971 253.5,52.5 Z"/></g>
<g><path style="opacity:1" fill="#dbdbdb" d="M 250.5,68.5 C 250.672,69.4916 250.338,70.1583 249.5,70.5C 248.933,62.385 246.6,54.885 242.5,48C 243.92,43.8394 245.42,43.6727 247,47.5C 248.586,54.4402 249.753,61.4402 250.5,68.5 Z"/></g>
<g><path style="opacity:1" fill="#f7f7f7" d="M 228.5,50.5 C 233.214,50.1734 237.88,50.5067 242.5,51.5C 245.499,62.1421 248.499,72.8087 251.5,83.5C 246.785,85.6712 241.952,86.0046 237,84.5C 234.228,73.1355 231.395,61.8021 228.5,50.5 Z"/></g>
<g><path style="opacity:1" fill="#e2e2e2" d="M 220.5,44.5 C 222.83,46.5418 223.996,49.2084 224,52.5C 226.124,62.4399 227.458,72.4399 228,82.5C 225.238,74.0273 223.238,65.3606 222,56.5C 221.311,53.5919 220.145,50.9252 218.5,48.5C 219.18,47.1401 219.847,45.8068 220.5,44.5 Z"/></g>
<g><path style="opacity:1" fill="#f6f6f6" d="M 204.5,51.5 C 208.9,50.1771 213.4,50.1771 218,51.5C 221.15,62.4126 223.983,73.4126 226.5,84.5C 221.95,85.8001 217.45,85.8001 213,84.5C 210.576,73.279 207.743,62.279 204.5,51.5 Z"/></g>
<g><path style="opacity:1" fill="#f7f7f7" d="M 180.5,50.5 C 185.099,50.2 189.599,50.5333 194,51.5C 196.834,62.5122 199.668,73.5122 202.5,84.5C 197.95,85.8001 193.45,85.8001 189,84.5C 186.065,73.1945 183.232,61.8612 180.5,50.5 Z"/></g>
<g><path style="opacity:1" fill="#f7f7f7" d="M 156.5,50.5 C 161.099,50.2 165.599,50.5333 170,51.5C 172.897,62.4828 175.73,73.4828 178.5,84.5C 173.95,85.8001 169.45,85.8001 165,84.5C 162.061,73.1852 159.228,61.8519 156.5,50.5 Z"/></g>
<g><path style="opacity:1" fill="#f6f6f6" d="M 129.5,46.5 C 130.962,47.4577 132.295,48.6244 133.5,50C 137.541,50.1735 141.541,50.6735 145.5,51.5C 148.393,62.5126 151.393,73.5126 154.5,84.5C 149.95,85.8001 145.45,85.8001 141,84.5C 137.774,71.5853 133.941,58.9187 129.5,46.5 Z"/></g>
<g><path style="opacity:1" fill="#dddddd" d="M 172.5,44.5 C 173.79,45.0577 174.623,46.0577 175,47.5C 177.327,59.4561 178.994,71.4561 180,83.5C 177.357,73.5931 175.024,63.5931 173,53.5C 170.144,50.5311 169.978,47.5311 172.5,44.5 Z"/></g>
<g><path style="opacity:1" fill="#bdbdbd" d="M 166.5,88.5 C 168.641,87.8367 170.975,87.5034 173.5,87.5C 176.269,87.5286 178.603,88.1952 180.5,89.5C 175.93,88.559 171.263,88.2256 166.5,88.5 Z"/></g>
<g><path style="opacity:1" fill="#bbbbbb" d="M 190.5,88.5 C 192.641,87.8367 194.975,87.5034 197.5,87.5C 200.269,87.5286 202.603,88.1952 204.5,89.5C 199.93,88.559 195.263,88.2256 190.5,88.5 Z"/></g>
<g><path style="opacity:1" fill="#232323" d="M 345.5,57.5 C 345.5,58.8333 345.5,60.1667 345.5,61.5C 374.671,61.1686 403.671,61.502 432.5,62.5C 406.5,62.5 380.5,62.5 354.5,62.5C 354.5,66.1667 354.5,69.8333 354.5,73.5C 380.5,73.5 406.5,73.5 432.5,73.5C 406.167,74.1667 379.833,74.8333 353.5,75.5C 351.167,75.5 348.833,75.5 346.5,75.5C 346.263,76.791 346.596,77.791 347.5,78.5C 353.751,101.414 368.751,113.747 392.5,115.5C 417.09,114.385 432.756,102.051 439.5,78.5C 440.404,77.791 440.737,76.791 440.5,75.5C 439.118,74.7227 437.118,74.056 434.5,73.5C 437.167,73.5 439.833,73.5 442.5,73.5C 439.749,93.8093 428.749,107.643 409.5,115C 381.645,121.985 361.145,112.818 348,87.5C 346.203,82.9769 345.036,78.3102 344.5,73.5C 347.167,73.5 349.833,73.5 352.5,73.5C 352.5,69.8333 352.5,66.1667 352.5,62.5C 349.833,62.5 347.167,62.5 344.5,62.5C 344.216,60.5853 344.549,58.9187 345.5,57.5 Z"/></g>
<g><path style="opacity:1" fill="#fcfcfc" d="M 439.5,78.5 C 432.756,102.051 417.09,114.385 392.5,115.5C 368.751,113.747 353.751,101.414 347.5,78.5C 362.485,77.1672 377.818,76.5006 393.5,76.5C 409.182,76.5006 424.515,77.1672 439.5,78.5 Z"/></g>
<g><path style="opacity:1" fill="#bfbfbf" d="M 353.5,75.5 C 382.5,75.5 411.5,75.5 440.5,75.5C 440.737,76.791 440.404,77.791 439.5,78.5C 424.515,77.1672 409.182,76.5006 393.5,76.5C 377.818,76.5006 362.485,77.1672 347.5,78.5C 346.596,77.791 346.263,76.791 346.5,75.5C 348.833,75.5 351.167,75.5 353.5,75.5 Z"/></g>
</svg>
