<?xml version="1.0" encoding="UTF-8"?>
<!DOCTYPE svg PUBLIC "-//W3C//DTD SVG 1.1//EN" "http://www.w3.org/Graphics/SVG/1.1/DTD/svg11.dtd">
<svg xmlns="http://www.w3.org/2000/svg" version="1.1" width="428px" height="123px" style="shape-rendering:geometricPrecision; text-rendering:geometricPrecision; image-rendering:optimizeQuality; fill-rule:evenodd; clip-rule:evenodd" xmlns:xlink="http://www.w3.org/1999/xlink">
<g><path style="opacity:1" fill="#fdfdfd" d="M -0.5,-0.5 C 142.167,-0.5 284.833,-0.5 427.5,-0.5C 427.5,40.5 427.5,81.5 427.5,122.5C 284.833,122.5 142.167,122.5 -0.5,122.5C -0.5,81.5 -0.5,40.5 -0.5,-0.5 Z"/></g>
<g><path style="opacity:1" fill="#242424" d="M 57.5,3.5 C 87.0191,2.55632 107.519,15.5563 119,42.5C 126.07,70.1045 118.237,92.2712 95.5,109C 63.665,125.103 37.165,118.937 16,90.5C 0.865133,59.2102 7.0318,33.0435 34.5,12C 41.8699,7.9649 49.5366,5.13157 57.5,3.5 Z"/></g>
<g><path style="opacity:1" fill="#fbfbfb" d="M 55.5,5.5 C 88.2815,3.78111 109.448,18.4478 119,49.5C 122.406,83.8838 107.573,105.717 74.5,115C 40.0022,118.159 18.5022,102.992 10,69.5C 8.31891,36.0366 23.4856,14.7033 55.5,5.5 Z"/></g>
<g><path style="opacity:1" fill="#1d1d1d" d="M 59.5,30.5 C 63.1667,30.5 66.8333,30.5 70.5,30.5C 70.5694,46.5696 78.5694,54.5696 94.5,54.5C 94.5,58.5 94.5,62.5 94.5,66.5C 78.8678,66.7988 70.8678,74.7988 70.5,90.5C 66.5,90.5 62.5,90.5 58.5,90.5C 58.9037,74.2369 50.9037,66.2369 34.5,66.5C 34.3347,62.8183 34.5014,59.1516 35,55.5C 50.7385,54.5948 58.9051,46.2615 59.5,30.5 Z"/></g>
<g><path style="opacity:1" fill="#ececec" d="M 61.5,32.5 C 63.8333,32.5 66.1667,32.5 68.5,32.5C 68.5,34.5 68.5,36.5 68.5,38.5C 66.1667,38.5 63.8333,38.5 61.5,38.5C 61.5,36.5 61.5,34.5 61.5,32.5 Z"/></g>
<g><path style="opacity:1" fill="#f5f5f5" d="M 61.5,40.5 C 63.604,40.2011 65.604,40.5344 67.5,41.5C 69.4875,51.494 75.4875,56.8273 85.5,57.5C 85.5,59.5 85.5,61.5 85.5,63.5C 74.5,64.5 68.5,70.5 67.5,81.5C 65.5,81.5 63.5,81.5 61.5,81.5C 60.7418,71.0701 55.0751,65.0701 44.5,63.5C 44.5,61.5 44.5,59.5 44.5,57.5C 55.1667,56.8333 60.8333,51.1667 61.5,40.5 Z"/></g>
<g><path style="opacity:1" fill="#f9f9f9" d="M 402.5,40.5 C 408.5,47.1667 414.833,53.5 421.5,59.5C 421.5,59.8333 421.5,60.1667 421.5,60.5C 414.763,60.6561 408.097,61.3228 401.5,62.5C 401.175,54.9809 401.508,47.6476 402.5,40.5 Z"/></g>
<g><path style="opacity:1" fill="#727272" d="M 402.5,40.5 C 401.508,47.6476 401.175,54.9809 401.5,62.5C 400.18,54.9902 400.18,47.3235 401.5,39.5C 402.107,39.6236 402.44,39.9569 402.5,40.5 Z"/></g>
<g><path style="opacity:1" fill="#cdcdcd" d="M 69.5,42.5 C 72.6436,47.8085 76.9769,51.9752 82.5,55C 75.1408,54.1437 70.8075,49.977 69.5,42.5 Z"/></g>
<g><path style="opacity:1" fill="#d6d6d6" d="M 58.5,42.5 C 59.709,44.4346 59.5423,46.4346 58,48.5C 56.1667,50.3333 54.3333,52.1667 52.5,54C 50.6354,55.3014 48.6354,55.6347 46.5,55C 52.7472,52.9208 56.7472,48.7542 58.5,42.5 Z"/></g>
<g><path style="opacity:1" fill="#1f1f1f" d="M 422.5,58.5 C 421.833,58.5 421.5,58.8333 421.5,59.5C 414.833,53.5 408.5,47.1667 402.5,40.5C 402.44,39.9569 402.107,39.6236 401.5,39.5C 400.18,47.3235 400.18,54.9902 401.5,62.5C 408.097,61.3228 414.763,60.6561 421.5,60.5C 421.167,61.1667 420.833,61.8333 420.5,62.5C 397.877,68.9318 375.544,75.9318 353.5,83.5C 351.708,83.634 350.042,83.3007 348.5,82.5C 365.131,75.3587 382.131,69.0254 399.5,63.5C 399.5,55.1667 399.5,46.8333 399.5,38.5C 379.34,37.5028 359.007,37.1695 338.5,37.5C 338.263,38.791 338.596,39.791 339.5,40.5C 341.495,54.4581 343.161,68.4581 344.5,82.5C 345.5,82.5 346.5,82.5 347.5,82.5C 346.074,83.3412 344.74,84.3412 343.5,85.5C 341.662,69.7901 339.495,54.1235 337,38.5C 336.667,38.1667 336.333,37.8333 336,37.5C 336.841,54.8966 338.507,72.23 341,89.5C 341.852,88.4293 342.685,87.4293 343.5,86.5C 343.5,87.1667 343.833,87.5 344.5,87.5C 341.315,94.2731 338.649,93.9397 336.5,86.5C 334.235,85.3526 331.902,85.1859 329.5,86C 327.998,88.5438 326.164,90.7105 324,92.5C 322.14,90.625 320.64,88.4583 319.5,86C 317.167,85.3333 314.833,85.3333 312.5,86C 309.768,94.3462 306.768,94.5129 303.5,86.5C 297.751,84.0706 294.084,85.9039 292.5,92C 291.552,92.4828 290.552,92.6495 289.5,92.5C 288.973,86.151 285.639,83.9843 279.5,86C 276.768,94.3462 273.768,94.5129 270.5,86.5C 268.235,85.3526 265.902,85.1859 263.5,86C 261.943,88.2955 260.276,90.4622 258.5,92.5C 256.24,90.8232 254.573,88.6566 253.5,86C 251.167,85.3333 248.833,85.3333 246.5,86C 243.768,94.3462 240.768,94.5129 237.5,86.5C 234.894,85.3483 232.227,85.1816 229.5,86C 226.516,92.0165 223.85,91.8498 221.5,85.5C 218.5,84.8333 215.5,84.1667 212.5,83.5C 215.167,83.5 217.833,83.5 220.5,83.5C 219.06,73.5533 218.06,63.5533 217.5,53.5C 217.216,51.5853 217.549,49.9187 218.5,48.5C 219.116,59.8901 220.283,71.2235 222,82.5C 221.44,70.1721 220.607,57.8388 219.5,45.5C 219.135,42.3751 218.302,39.3751 217,36.5C 217.618,40.3052 217.451,43.9719 216.5,47.5C 216.384,44.1401 216.051,40.8067 215.5,37.5C 212.03,38.1252 209.196,37.1252 207,34.5C 206.5,51.4967 206.333,68.4967 206.5,85.5C 205.833,58.8333 205.167,32.1667 204.5,5.5C 197.492,5.33371 190.492,5.50038 183.5,6C 172.135,19.4287 166.302,34.9287 166,52.5C 169.035,56.5627 170.202,61.2293 169.5,66.5C 167.876,66.3601 166.71,67.0267 166,68.5C 166.325,86.1494 172.158,101.649 183.5,115C 190.492,115.5 197.492,115.666 204.5,115.5C 205.167,106.325 205.833,96.9914 206.5,87.5C 207.107,87.6236 207.44,87.9569 207.5,88.5C 206.527,98.0838 206.194,107.75 206.5,117.5C 198.493,117.666 190.493,117.5 182.5,117C 169.995,102.483 164.162,85.6492 165,66.5C 166.603,65.1142 167.437,63.2809 167.5,61C 164.099,53.1041 163.599,44.9374 166,36.5C 168.638,26.8903 172.638,17.8903 178,9.5C 179.167,7 181,5.16667 183.5,4C 191.159,3.50031 198.826,3.33365 206.5,3.5C 206.077,13.5797 206.577,23.5797 208,33.5C 211.292,37.3001 214.459,37.3001 217.5,33.5C 220.622,36.2501 224.289,37.0834 228.5,36C 229.795,33.2419 231.461,30.7419 233.5,28.5C 235.522,30.5313 237.189,32.8646 238.5,35.5C 240.833,36.8333 243.167,36.8333 245.5,35.5C 246.811,32.8646 248.478,30.5313 250.5,28.5C 251.919,30.3359 253.086,32.3359 254,34.5C 256.153,36.4439 258.653,36.9439 261.5,36C 262.795,33.2419 264.461,30.7419 266.5,28.5C 268.522,30.5313 270.189,32.8646 271.5,35.5C 273.833,36.8333 276.167,36.8333 278.5,35.5C 279.811,32.8646 281.478,30.5313 283.5,28.5C 285,30.8333 286.5,33.1667 288,35.5C 290.064,36.5914 292.231,36.7581 294.5,36C 295.795,33.2419 297.461,30.7419 299.5,28.5C 301.4,30.6195 303.066,32.9528 304.5,35.5C 306.833,36.8333 309.167,36.8333 311.5,35.5C 312.513,32.7971 314.013,30.4638 316,28.5C 317.946,30.8806 319.779,33.3806 321.5,36C 323.5,36.6667 325.5,36.6667 327.5,36C 328.795,33.2419 330.461,30.7419 332.5,28.5C 334.526,30.7049 336.192,33.2049 337.5,36C 358.833,36.3333 380.167,36.6667 401.5,37C 408.703,44.0351 415.703,51.2018 422.5,58.5 Z"/></g>
<g><path style="opacity:1" fill="#e9e9e9" d="M 236.5,36.5 C 237.793,37.842 238.626,39.5087 239,41.5C 240.74,55.3467 242.573,69.1801 244.5,83C 244.637,85.5559 243.804,87.7225 242,89.5C 239.891,71.8586 238.058,54.192 236.5,36.5 Z"/></g>
<g><path style="opacity:1" fill="#e4e4e4" d="M 302.5,37.5 C 303.966,38.347 304.8,39.6803 305,41.5C 306.443,55.7158 308.276,69.8825 310.5,84C 310.342,86.1493 309.508,87.9826 308,89.5C 305.505,72.2531 303.671,54.9198 302.5,37.5 Z"/></g>
<g><path style="opacity:1" fill="#676767" d="M 219.5,45.5 C 218.596,46.209 218.263,47.209 218.5,48.5C 217.549,49.9187 217.216,51.5853 217.5,53.5C 216.539,51.7354 216.205,49.7354 216.5,47.5C 217.451,43.9719 217.618,40.3052 217,36.5C 218.302,39.3751 219.135,42.3751 219.5,45.5 Z"/></g>
<g><path style="opacity:1" fill="#e7e7e7" d="M 249.5,31.5 C 251.091,35.2036 251.924,39.2036 252,43.5C 253.417,57.1624 254.417,70.8291 255,84.5C 254.138,82.913 253.471,81.2464 253,79.5C 251.813,68.1488 250.479,56.8155 249,45.5C 248.853,42.4294 248.02,39.5961 246.5,37C 247.639,35.2196 248.639,33.3863 249.5,31.5 Z"/></g>
<g><path style="opacity:1" fill="#f0f0f0" d="M 322.5,38.5 C 324.5,38.5 326.5,38.5 328.5,38.5C 330.5,53.5 332.5,68.5 334.5,83.5C 332.5,83.5 330.5,83.5 328.5,83.5C 326.619,68.4731 324.619,53.4731 322.5,38.5 Z"/></g>
<g><path style="opacity:1" fill="#f2f2f2" d="M 240.5,38.5 C 242.5,38.5 244.5,38.5 246.5,38.5C 248.332,53.4863 249.999,68.4863 251.5,83.5C 249.833,83.5 248.167,83.5 246.5,83.5C 244.255,68.5367 242.255,53.5367 240.5,38.5 Z"/></g>
<g><path style="opacity:1" fill="#fcfcfc" d="M 399.5,38.5 C 399.5,46.8333 399.5,55.1667 399.5,63.5C 382.131,69.0254 365.131,75.3587 348.5,82.5C 348.167,82.5 347.833,82.5 347.5,82.5C 346.5,82.5 345.5,82.5 344.5,82.5C 343.161,68.4581 341.495,54.4581 339.5,40.5C 359.139,38.512 379.139,37.8453 399.5,38.5 Z"/></g>
<g><path style="opacity:1" fill="#f2f2f2" d="M 311.5,38.5 C 314.222,53.264 316.222,68.264 317.5,83.5C 315.234,83.8588 313.401,83.1922 312,81.5C 310.083,67.83 308.25,54.1634 306.5,40.5C 307.552,38.744 309.219,38.0773 311.5,38.5 Z"/></g>
<g><path style="opacity:1" fill="#eeeeee" d="M 289.5,38.5 C 291.5,38.5 293.5,38.5 295.5,38.5C 297.581,53.4839 299.581,68.4839 301.5,83.5C 299.5,83.5 297.5,83.5 295.5,83.5C 293.792,68.4578 291.792,53.4578 289.5,38.5 Z"/></g>
<g><path style="opacity:1" fill="#efefef" d="M 273.5,38.5 C 277.421,37.93 279.588,39.5967 280,43.5C 281.757,56.8145 283.257,70.1478 284.5,83.5C 282.533,83.7394 280.699,83.4061 279,82.5C 277.129,67.8277 275.296,53.161 273.5,38.5 Z"/></g>
<g><path style="opacity:1" fill="#f1f1f1" d="M 256.5,39.5 C 258.265,38.5386 260.265,38.2053 262.5,38.5C 264.646,53.4794 266.646,68.4794 268.5,83.5C 266.5,83.5 264.5,83.5 262.5,83.5C 260.977,68.6381 258.977,53.9715 256.5,39.5 Z"/></g>
<g><path style="opacity:1" fill="#f3f3f3" d="M 229.5,38.5 C 231.5,53.4956 233.5,68.4956 235.5,83.5C 233.167,83.5 230.833,83.5 228.5,83.5C 226.312,68.8056 223.979,54.1389 221.5,39.5C 223.948,38.5269 226.615,38.1936 229.5,38.5 Z"/></g>
<g><path style="opacity:1" fill="#3c3c3c" d="M 204.5,5.5 C 205.167,32.1667 205.833,58.8333 206.5,85.5C 206.435,85.9382 206.601,86.2716 207,86.5C 208.488,84.84 210.321,83.84 212.5,83.5C 215.5,84.1667 218.5,84.8333 221.5,85.5C 217.818,85.3347 214.152,85.5014 210.5,86C 209.627,87.045 208.627,87.8783 207.5,88.5C 207.44,87.9569 207.107,87.6236 206.5,87.5C 205.833,96.9914 205.167,106.325 204.5,115.5C 204.5,78.8333 204.5,42.1667 204.5,5.5 Z"/></g>
<g><path style="opacity:1" fill="#757575" d="M 399.5,38.5 C 379.139,37.8453 359.139,38.512 339.5,40.5C 338.596,39.791 338.263,38.791 338.5,37.5C 359.007,37.1695 379.34,37.5028 399.5,38.5 Z"/></g>
<g><path style="opacity:1" fill="#eaeaea" d="M 331.5,32.5 C 332.117,32.6107 332.617,32.944 333,33.5C 335.252,50.1126 336.586,66.7793 337,83.5C 334.429,68.0339 331.929,52.5339 329.5,37C 330.044,35.415 330.711,33.915 331.5,32.5 Z"/></g>
<g><path style="opacity:1" fill="#717171" d="M 311.5,38.5 C 309.219,38.0773 307.552,38.744 306.5,40.5C 305.596,39.791 305.263,38.791 305.5,37.5C 307.735,37.2053 309.735,37.5386 311.5,38.5 Z"/></g>
<g><path style="opacity:1" fill="#6d6d6d" d="M 229.5,38.5 C 226.615,38.1936 223.948,38.5269 221.5,39.5C 220.957,39.44 220.624,39.1067 220.5,38.5C 223.645,37.1968 226.645,37.1968 229.5,38.5 Z"/></g>
<g><path style="opacity:1" fill="#f6f6f6" d="M 216.5,47.5 C 216.205,49.7354 216.539,51.7354 217.5,53.5C 218.06,63.5533 219.06,73.5533 220.5,83.5C 217.833,83.5 215.167,83.5 212.5,83.5C 210.321,83.84 208.488,84.84 207,86.5C 206.601,86.2716 206.435,85.9382 206.5,85.5C 206.333,68.4967 206.5,51.4967 207,34.5C 209.196,37.1252 212.03,38.1252 215.5,37.5C 216.051,40.8067 216.384,44.1401 216.5,47.5 Z"/></g>
<g><path style="opacity:1" fill="#e2e2e2" d="M 298.5,32.5 C 300.197,34.3052 301.03,36.6385 301,39.5C 302.459,54.8805 303.792,70.2138 305,85.5C 303.956,84.3774 303.29,83.0441 303,81.5C 301.341,66.4104 299.175,51.4104 296.5,36.5C 297.18,35.1401 297.847,33.8068 298.5,32.5 Z"/></g>
<g><path style="opacity:1" fill="#fcfcfc" d="M 204.5,5.5 C 204.5,42.1667 204.5,78.8333 204.5,115.5C 197.492,115.666 190.492,115.5 183.5,115C 172.158,101.649 166.325,86.1494 166,68.5C 166.71,67.0267 167.876,66.3601 169.5,66.5C 170.202,61.2293 169.035,56.5627 166,52.5C 166.302,34.9287 172.135,19.4287 183.5,6C 190.492,5.50038 197.492,5.33371 204.5,5.5 Z"/></g>
<g><path style="opacity:1" fill="#e3e3e3" d="M 232.5,32.5 C 234.197,34.3052 235.03,36.6385 235,39.5C 236.643,54.864 237.976,70.1973 239,85.5C 237.956,84.3774 237.29,83.0441 237,81.5C 235.523,66.5536 233.356,51.7203 230.5,37C 231.044,35.415 231.711,33.915 232.5,32.5 Z"/></g>
<g><path style="opacity:1" fill="#e3e3e3" d="M 315.5,31.5 C 316.268,32.2625 316.768,33.2625 317,34.5C 318.508,51.2117 319.842,67.8784 321,84.5C 319.883,83.0506 319.216,81.3839 319,79.5C 317.48,65.0467 315.313,50.7134 312.5,36.5C 313.763,34.9713 314.763,33.3046 315.5,31.5 Z"/></g>
<g><path style="opacity:1" fill="#e4e4e4" d="M 265.5,32.5 C 267.164,33.9488 267.998,35.9488 268,38.5C 269.128,54.2432 270.462,69.9098 272,85.5C 270.956,84.3774 270.29,83.0441 270,81.5C 268.416,66.5733 266.249,51.74 263.5,37C 264.044,35.415 264.711,33.915 265.5,32.5 Z"/></g>
<g><path style="opacity:1" fill="#eaeaea" d="M 36.5,56.5 C 38.5,56.8333 40.5,57.1667 42.5,57.5C 43.9064,62.9313 41.9064,65.2647 36.5,64.5C 36.5,61.8333 36.5,59.1667 36.5,56.5 Z"/></g>
<g><path style="opacity:1" fill="#e5e5e5" d="M 86.5,57.5 C 88.5,57.5 90.5,57.5 92.5,57.5C 92.5,59.8333 92.5,62.1667 92.5,64.5C 87.0936,65.2647 85.0936,62.9313 86.5,57.5 Z"/></g>
<g><path style="opacity:1" fill="#e7e7e7" d="M 343.5,85.5 C 343.5,85.8333 343.5,86.1667 343.5,86.5C 342.685,87.4293 341.852,88.4293 341,89.5C 338.507,72.23 336.841,54.8966 336,37.5C 336.333,37.8333 336.667,38.1667 337,38.5C 339.495,54.1235 341.662,69.7901 343.5,85.5 Z"/></g>
<g><path style="opacity:1" fill="#dadada" d="M 252.5,36.5 C 254.694,38.2214 255.861,40.5547 256,43.5C 257.359,57.235 259.193,70.9016 261.5,84.5C 260.935,86.4048 259.935,88.0715 258.5,89.5C 256.019,71.8731 254.019,54.2065 252.5,36.5 Z"/></g>
<g><path style="opacity:1" fill="#f0f0f0" d="M 420.5,62.5 C 414.036,69.4649 407.369,76.2982 400.5,83C 384.837,83.4999 369.17,83.6666 353.5,83.5C 375.544,75.9318 397.877,68.9318 420.5,62.5 Z"/></g>
<g><path style="opacity:1" fill="#cfcfcf" d="M 46.5,66.5 C 52.3315,66.5504 56.4981,69.5504 59,75.5C 59.6667,76.5 59.6667,77.5 59,78.5C 56.2833,72.9492 52.1166,68.9492 46.5,66.5 Z"/></g>
<g><path style="opacity:1" fill="#cacaca" d="M 400.5,63.5 C 403.518,63.3354 406.518,63.502 409.5,64C 398.925,67.6404 388.258,70.6404 377.5,73C 385.474,70.3389 393.141,67.1722 400.5,63.5 Z"/></g>
<g><path style="opacity:1" fill="#cccccc" d="M 80.5,65.5 C 81.552,65.3505 82.552,65.5172 83.5,66C 80.8333,67.6667 78.1667,69.3333 75.5,71C 73.2419,73.5849 71.4086,76.4182 70,79.5C 70.9555,73.0297 74.4555,68.363 80.5,65.5 Z"/></g>
<g><path style="opacity:1" fill="#e4e4e4" d="M 285.5,36.5 C 287.83,38.5418 288.996,41.2084 289,44.5C 290.433,57.9006 292.266,71.234 294.5,84.5C 293.935,86.4048 292.935,88.0715 291.5,89.5C 289.352,71.8386 287.352,54.172 285.5,36.5 Z"/></g>
<g><path style="opacity:1" fill="#eaeaea" d="M 269.5,36.5 C 271.219,39.8586 272.386,43.5253 273,47.5C 274.171,59.547 275.671,71.547 277.5,83.5C 277.489,85.8541 276.656,87.8541 275,89.5C 272.891,71.8607 271.058,54.1941 269.5,36.5 Z"/></g>
<g><path style="opacity:1" fill="#e0e0e0" d="M 282.5,31.5 C 284.091,35.2036 284.924,39.2036 285,43.5C 286.279,57.1795 287.279,70.8462 288,84.5C 287.138,82.913 286.471,81.2464 286,79.5C 284.427,68.1948 283.093,56.8615 282,45.5C 281.608,42.3728 280.775,39.3728 279.5,36.5C 280.763,34.9713 281.763,33.3046 282.5,31.5 Z"/></g>
<g><path style="opacity:1" fill="#e4e4e4" d="M 319.5,38.5 C 321.011,40.4758 321.844,42.8091 322,45.5C 323.309,58.5951 325.142,71.5951 327.5,84.5C 326.935,86.4048 325.935,88.0715 324.5,89.5C 321.801,72.6038 320.134,55.6038 319.5,38.5 Z"/></g>
<g><path style="opacity:1" fill="#a0a0a0" d="M 219.5,45.5 C 220.607,57.8388 221.44,70.1721 222,82.5C 220.283,71.2235 219.116,59.8901 218.5,48.5C 218.263,47.209 218.596,46.209 219.5,45.5 Z"/></g>
<g><path style="opacity:1" fill="#c8c8c8" d="M 221.5,51.5 C 223.083,62.4409 225.083,73.4409 227.5,84.5C 227.444,85.737 226.944,86.737 226,87.5C 224.806,85.3766 224.14,83.0432 224,80.5C 222.902,70.8504 222.068,61.1838 221.5,51.5 Z"/></g>
<g><path style="opacity:1" fill="#e4e4e4" d="M 68.5,88.5 C 66.1667,88.5 63.8333,88.5 61.5,88.5C 61.5,87.5 61.5,86.5 61.5,85.5C 61.5,84.5 61.5,83.5 61.5,82.5C 66.9313,81.0936 69.2647,83.0936 68.5,88.5 Z"/></g>
<g><path style="opacity:1" fill="#1d1d1d" d="M 422.5,58.5 C 424.085,59.0024 424.585,60.0024 424,61.5C 416.167,69.3333 408.333,77.1667 400.5,85C 382.167,85.3333 363.833,85.6667 345.5,86C 344.944,86.3826 344.611,86.8826 344.5,87.5C 343.833,87.5 343.5,87.1667 343.5,86.5C 343.5,86.1667 343.5,85.8333 343.5,85.5C 344.74,84.3412 346.074,83.3412 347.5,82.5C 347.833,82.5 348.167,82.5 348.5,82.5C 350.042,83.3007 351.708,83.634 353.5,83.5C 369.17,83.6666 384.837,83.4999 400.5,83C 407.369,76.2982 414.036,69.4649 420.5,62.5C 420.833,61.8333 421.167,61.1667 421.5,60.5C 421.5,60.1667 421.5,59.8333 421.5,59.5C 421.5,58.8333 421.833,58.5 422.5,58.5 Z"/></g>
<g><path style="opacity:1" fill="#636363" d="M 61.5,85.5 C 61.5,86.5 61.5,87.5 61.5,88.5C 63.8333,88.5 66.1667,88.5 68.5,88.5C 66.0521,89.4731 63.3854,89.8064 60.5,89.5C 60.2322,87.901 60.5655,86.5676 61.5,85.5 Z"/></g>
</svg>
