<?xml version="1.0" encoding="UTF-8"?>
<!DOCTYPE svg PUBLIC "-//W3C//DTD SVG 1.1//EN" "http://www.w3.org/Graphics/SVG/1.1/DTD/svg11.dtd">
<svg xmlns="http://www.w3.org/2000/svg" version="1.1" width="438px" height="108px" style="shape-rendering:geometricPrecision; text-rendering:geometricPrecision; image-rendering:optimizeQuality; fill-rule:evenodd; clip-rule:evenodd" xmlns:xlink="http://www.w3.org/1999/xlink">
<g><path style="opacity:1" fill="#fbfbfb" d="M -0.5,-0.5 C 145.5,-0.5 291.5,-0.5 437.5,-0.5C 437.5,35.5 437.5,71.5 437.5,107.5C 291.5,107.5 145.5,107.5 -0.5,107.5C -0.5,71.5 -0.5,35.5 -0.5,-0.5 Z"/></g>
<g><path style="opacity:1" fill="#1a1a1a" d="M 430.5,30.5 C 429.508,30.3284 428.842,30.6618 428.5,31.5C 427.5,31.5 426.5,31.5 425.5,31.5C 425.5,46.8333 425.5,62.1667 425.5,77.5C 426.405,78.7024 426.405,80.0357 425.5,81.5C 424.833,82.1667 424.167,82.8333 423.5,83.5C 423.843,81.5168 423.176,80.1834 421.5,79.5C 422.167,78.8333 422.833,78.1667 423.5,77.5C 423.5,62.1667 423.5,46.8333 423.5,31.5C 372.167,31.5 320.833,31.5 269.5,31.5C 269.5,46.8333 269.5,62.1667 269.5,77.5C 319.833,78.1667 370.167,78.8333 420.5,79.5C 370.167,79.5 319.833,79.5 269.5,79.5C 269.5,80.8333 269.5,82.1667 269.5,83.5C 268.833,83.5 268.167,83.5 267.5,83.5C 267.5,82.5 267.5,81.5 267.5,80.5C 264.458,80.7329 261.792,81.7329 259.5,83.5C 258.609,82.8902 257.609,82.5569 256.5,82.5C 259.95,80.7922 263.617,79.4588 267.5,78.5C 267.825,62.5889 267.491,46.7556 266.5,31C 263.167,29.6667 259.833,28.3333 256.5,27C 225.168,26.5 193.835,26.3334 162.5,26.5C 162.5,30.8333 162.5,35.1667 162.5,39.5C 166.182,39.3347 169.848,39.5014 173.5,40C 175.829,42.8255 177.496,45.9922 178.5,49.5C 180.054,50.9142 181.388,52.5808 182.5,54.5C 179.752,59.6657 176.752,64.6657 173.5,69.5C 170.232,70.487 166.898,70.8204 163.5,70.5C 163.167,70.5 162.833,70.5 162.5,70.5C 162.5,69.8333 162.5,69.1667 162.5,68.5C 162.833,68.5 163.167,68.5 163.5,68.5C 166.5,68.5 169.5,68.5 172.5,68.5C 172.827,59.3178 172.493,50.3178 171.5,41.5C 168.713,40.5233 165.713,40.19 162.5,40.5C 161.833,40.5 161.167,40.5 160.5,40.5C 159.662,40.1583 159.328,39.4916 159.5,38.5C 160.492,38.6716 161.158,38.3382 161.5,37.5C 161.5,27.5 161.5,17.5 161.5,7.5C 149.988,7.1719 138.654,7.50523 127.5,8.5C 126.509,14.979 126.176,21.6457 126.5,28.5C 136.348,28.1729 146.014,28.5062 155.5,29.5C 155.591,31.6977 154.925,32.0311 153.5,30.5C 144.991,29.1786 136.325,29.1786 127.5,30.5C 127.624,31.1067 127.957,31.44 128.5,31.5C 129.833,34.1667 129.833,36.8333 128.5,39.5C 127.957,39.56 127.624,39.8933 127.5,40.5C 136.141,41.498 144.808,41.8314 153.5,41.5C 154.833,41.8333 154.833,42.1667 153.5,42.5C 144.475,42.1685 135.475,42.5018 126.5,43.5C 126.624,44.1067 126.957,44.44 127.5,44.5C 129.814,50.0103 130.147,55.6769 128.5,61.5C 127.948,56.5067 127.115,51.5067 126,46.5C 124.958,52.4553 125.458,58.122 127.5,63.5C 127.5,63.8333 127.5,64.1667 127.5,64.5C 126.314,65.7054 126.314,67.0387 127.5,68.5C 130.017,72.1293 130.017,75.796 127.5,79.5C 126.883,79.3893 126.383,79.056 126,78.5C 125.814,75.9644 125.314,73.631 124.5,71.5C 124.333,50.4974 124.5,29.4974 125,8.5C 125.5,8 126,7.5 126.5,7C 138.495,6.50013 150.495,6.33346 162.5,6.5C 162.192,12.4254 162.525,18.2588 163.5,24C 250.833,24.3333 338.167,24.6667 425.5,25C 427.373,26.7038 429.04,28.5372 430.5,30.5 Z"/></g>
<g><path style="opacity:1" fill="#fcfcfc" d="M 127.5,8.5 C 138.5,8.5 149.5,8.5 160.5,8.5C 160.827,18.015 160.494,27.3483 159.5,36.5C 158.905,33.6829 157.572,31.3495 155.5,29.5C 146.014,28.5062 136.348,28.1729 126.5,28.5C 126.176,21.6457 126.509,14.979 127.5,8.5 Z"/></g>
<g><path style="opacity:1" fill="#232323" d="M 44.5,6.5 C 74.2118,3.75628 93.7118,16.4229 103,44.5C 105.965,76.108 92.1321,95.608 61.5,103C 33.7235,104.541 15.8902,92.0415 8,65.5C 3.97935,35.7098 16.146,16.0431 44.5,6.5 Z"/></g>
<g><path style="opacity:1" fill="#fafafa" d="M 44.5,8.5 C 73.0552,5.51463 91.8885,17.5146 101,44.5C 104.477,70.3858 94.3101,88.5524 70.5,99C 49.6354,105.156 32.1354,99.9889 18,83.5C 2.3492,57.9309 5.8492,35.4309 28.5,16C 33.6146,12.8068 38.9479,10.3068 44.5,8.5 Z"/></g>
<g><path style="opacity:1" fill="#fdfdfd" d="M 256.5,82.5 C 255.833,82.5 255.167,82.5 254.5,82.5C 224.167,82.5 193.833,82.5 163.5,82.5C 163.5,78.5 163.5,74.5 163.5,70.5C 166.898,70.8204 170.232,70.487 173.5,69.5C 176.752,64.6657 179.752,59.6657 182.5,54.5C 181.388,52.5808 180.054,50.9142 178.5,49.5C 177.496,45.9922 175.829,42.8255 173.5,40C 169.848,39.5014 166.182,39.3347 162.5,39.5C 162.5,35.1667 162.5,30.8333 162.5,26.5C 193.835,26.3334 225.168,26.5 256.5,27C 259.833,28.3333 263.167,29.6667 266.5,31C 267.491,46.7556 267.825,62.5889 267.5,78.5C 263.617,79.4588 259.95,80.7922 256.5,82.5 Z"/></g>
<g><path style="opacity:1" fill="#d8d8d8" d="M 260.5,27.5 C 262.607,26.5318 264.941,26.1984 267.5,26.5C 267.649,27.552 267.483,28.552 267,29.5C 264.913,28.6028 262.746,27.9361 260.5,27.5 Z"/></g>
<g><path style="opacity:1" fill="#e4e4e4" d="M 269.5,26.5 C 320.833,26.5 372.167,26.5 423.5,26.5C 423.5,27.8333 423.5,29.1667 423.5,30.5C 372.167,30.5 320.833,30.5 269.5,30.5C 269.5,29.1667 269.5,27.8333 269.5,26.5 Z"/></g>
<g><path style="opacity:1" fill="#1d1d1d" d="M 48.5,28.5 C 67.5752,26.7575 78.5752,35.2575 81.5,54C 78.4048,75.7367 66.0715,84.0701 44.5,79C 31.7407,71.7278 26.9074,60.8944 30,46.5C 33.4414,37.5567 39.6081,31.5567 48.5,28.5 Z"/></g>
<g><path style="opacity:1" fill="#6f6f6f" d="M 153.5,30.5 C 144.983,30.1739 136.65,30.5073 128.5,31.5C 127.957,31.44 127.624,31.1067 127.5,30.5C 136.325,29.1786 144.991,29.1786 153.5,30.5 Z"/></g>
<g><path style="opacity:1" fill="#fbfbfb" d="M 153.5,30.5 C 153.5,33.8333 153.5,37.1667 153.5,40.5C 144.983,40.8261 136.65,40.4927 128.5,39.5C 129.833,36.8333 129.833,34.1667 128.5,31.5C 136.65,30.5073 144.983,30.1739 153.5,30.5 Z"/></g>
<g><path style="opacity:1" fill="#c0c0c0" d="M 61.5,32.5 C 64.9012,31.8386 67.9012,33.0052 70.5,36C 67.3626,35.4408 64.3626,34.2741 61.5,32.5 Z"/></g>
<g><path style="opacity:1" fill="#c3c3c3" d="M 430.5,30.5 C 431.662,46.9949 431.828,63.6616 431,80.5C 430.329,81.2524 429.496,81.5858 428.5,81.5C 428.783,80.7109 429.283,80.0442 430,79.5C 430.5,63.1701 430.667,46.8367 430.5,30.5 Z"/></g>
<g><path style="opacity:1" fill="#b8b8b8" d="M 47.5,30.5 C 48.552,30.3505 49.552,30.5172 50.5,31C 46.2505,33.3742 42.0838,35.8742 38,38.5C 37.3123,37.6683 37.479,37.0016 38.5,36.5C 41.3935,34.2285 44.3935,32.2285 47.5,30.5 Z"/></g>
<g><path style="opacity:1" fill="#8b8b8b" d="M 127.5,8.5 C 138.654,7.50523 149.988,7.1719 161.5,7.5C 161.5,17.5 161.5,27.5 161.5,37.5C 160.508,37.6716 159.842,37.3382 159.5,36.5C 160.494,27.3483 160.827,18.015 160.5,8.5C 149.5,8.5 138.5,8.5 127.5,8.5 Z"/></g>
<g><path style="opacity:1" fill="#fdfdfd" d="M 423.5,77.5 C 372.167,77.5 320.833,77.5 269.5,77.5C 269.5,62.1667 269.5,46.8333 269.5,31.5C 320.833,31.5 372.167,31.5 423.5,31.5C 423.5,46.8333 423.5,62.1667 423.5,77.5 Z"/></g>
<g><path style="opacity:1" fill="#fcfcfc" d="M 428.5,31.5 C 428.5,46.8333 428.5,62.1667 428.5,77.5C 427.5,77.5 426.5,77.5 425.5,77.5C 425.5,62.1667 425.5,46.8333 425.5,31.5C 426.5,31.5 427.5,31.5 428.5,31.5 Z"/></g>
<g><path style="opacity:1" fill="#919191" d="M 125.5,32.5 C 127.978,34.4827 128.145,36.816 126,39.5C 125.503,37.1902 125.337,34.8568 125.5,32.5 Z"/></g>
<g><path style="opacity:1" fill="#e6e6e6" d="M 159.5,38.5 C 159.328,39.4916 159.662,40.1583 160.5,40.5C 160.786,50.8852 160.452,61.2185 159.5,71.5C 158.115,72.5736 156.949,73.9069 156,75.5C 155.333,61.5 155.333,47.5 156,33.5C 156.902,35.4308 158.069,37.0975 159.5,38.5 Z"/></g>
<g><path style="opacity:1" fill="#818181" d="M 428.5,31.5 C 429.827,47.0051 429.827,62.6717 428.5,78.5C 427.712,79.7701 426.712,80.7701 425.5,81.5C 426.405,80.0357 426.405,78.7024 425.5,77.5C 426.5,77.5 427.5,77.5 428.5,77.5C 428.5,62.1667 428.5,46.8333 428.5,31.5 Z"/></g>
<g><path style="opacity:1" fill="#f2f2f2" d="M 53.5,30.5 C 61.1415,34.073 68.6415,38.073 76,42.5C 76.8317,50.8533 76.6651,59.1866 75.5,67.5C 68.6861,71.3218 61.8527,74.9885 55,78.5C 48.2333,75.1146 41.5666,71.4479 35,67.5C 34.1681,58.8142 34.3348,50.1475 35.5,41.5C 41.8976,38.3098 47.8976,34.6431 53.5,30.5 Z"/></g>
<g><path style="opacity:1" fill="#9f9f9f" d="M 128.5,39.5 C 136.65,40.4927 144.983,40.8261 153.5,40.5C 153.5,40.8333 153.5,41.1667 153.5,41.5C 144.808,41.8314 136.141,41.498 127.5,40.5C 127.624,39.8933 127.957,39.56 128.5,39.5 Z"/></g>
<g><path style="opacity:1" fill="#999999" d="M 153.5,42.5 C 153.5,42.8333 153.5,43.1667 153.5,43.5C 144.651,43.1736 135.984,43.507 127.5,44.5C 126.957,44.44 126.624,44.1067 126.5,43.5C 135.475,42.5018 144.475,42.1685 153.5,42.5 Z"/></g>
<g><path style="opacity:1" fill="#fcfcfc" d="M 153.5,43.5 C 153.5,51.1667 153.5,58.8333 153.5,66.5C 144.435,67.1364 135.769,66.4698 127.5,64.5C 127.5,64.1667 127.5,63.8333 127.5,63.5C 128.338,63.1583 128.672,62.4916 128.5,61.5C 130.147,55.6769 129.814,50.0103 127.5,44.5C 135.984,43.507 144.651,43.1736 153.5,43.5 Z"/></g>
<g><path style="opacity:1" fill="#cecece" d="M 31.5,46.5 C 32.6497,51.3158 32.8163,56.3158 32,61.5C 30.2219,56.5806 30.0552,51.5806 31.5,46.5 Z"/></g>
<g><path style="opacity:1" fill="#9d9d9d" d="M 77.5,46.5 C 78.1174,46.6107 78.6174,46.944 79,47.5C 79.1667,49.8333 79.3333,52.1667 79.5,54.5C 79.614,57.3636 79.114,60.0302 78,62.5C 77.5006,57.1771 77.334,51.8437 77.5,46.5 Z"/></g>
<g><path style="opacity:1" fill="#8d8d8d" d="M 128.5,61.5 C 128.672,62.4916 128.338,63.1583 127.5,63.5C 125.458,58.122 124.958,52.4553 126,46.5C 127.115,51.5067 127.948,56.5067 128.5,61.5 Z"/></g>
<g><path style="opacity:1" fill="#232323" d="M 49.5,39.5 C 67.2935,38.7763 73.4602,46.7763 68,63.5C 62.8177,70.0052 56.3177,71.8385 48.5,69C 40.4154,63.8459 37.9154,56.6792 41,47.5C 43.1565,44.0241 45.9898,41.3575 49.5,39.5 Z"/></g>
<g><path style="opacity:1" fill="#f7f7f7" d="M 52.5,40.5 C 67.3042,42.1349 71.8042,49.8016 66,63.5C 55.9056,71.4921 47.9056,69.8254 42,58.5C 40.2977,49.3866 43.7977,43.3866 52.5,40.5 Z"/></g>
<g><path style="opacity:1" fill="#2f2f2f" d="M 155.5,29.5 C 157.572,31.3495 158.905,33.6829 159.5,36.5C 159.842,37.3382 160.508,37.6716 161.5,37.5C 161.158,38.3382 160.492,38.6716 159.5,38.5C 158.069,37.0975 156.902,35.4308 156,33.5C 155.333,47.5 155.333,61.5 156,75.5C 156.949,73.9069 158.115,72.5736 159.5,71.5C 159.5,71.8333 159.5,72.1667 159.5,72.5C 158.416,75.0041 157.083,77.3374 155.5,79.5C 155.062,78.4937 154.396,78.4937 153.5,79.5C 153.5,75.8333 153.5,72.1667 153.5,68.5C 144.833,68.5 136.167,68.5 127.5,68.5C 126.314,67.0387 126.314,65.7054 127.5,64.5C 135.769,66.4698 144.435,67.1364 153.5,66.5C 153.5,58.8333 153.5,51.1667 153.5,43.5C 153.5,43.1667 153.5,42.8333 153.5,42.5C 154.833,42.1667 154.833,41.8333 153.5,41.5C 153.5,41.1667 153.5,40.8333 153.5,40.5C 153.5,37.1667 153.5,33.8333 153.5,30.5C 154.925,32.0311 155.591,31.6977 155.5,29.5 Z"/></g>
<g><path style="opacity:1" fill="#f7f7f7" d="M 127.5,68.5 C 136.167,68.5 144.833,68.5 153.5,68.5C 153.5,72.1667 153.5,75.8333 153.5,79.5C 144.833,79.5 136.167,79.5 127.5,79.5C 130.017,75.796 130.017,72.1293 127.5,68.5 Z"/></g>
<g><path style="opacity:1" fill="#b9b9b9" d="M 37.5,72.5 C 37.56,71.9569 37.8933,71.6236 38.5,71.5C 42.1667,73.6667 45.8333,75.8333 49.5,78C 44.9295,77.5502 40.9295,75.7169 37.5,72.5 Z"/></g>
<g><path style="opacity:1" fill="#c9c9c9" d="M 70.5,71.5 C 71.2389,71.369 71.9056,71.5357 72.5,72C 69.2192,75.6406 65.2192,77.6406 60.5,78C 64.4109,76.5558 67.7442,74.3891 70.5,71.5 Z"/></g>
<g><path style="opacity:1" fill="#080808" d="M 428.5,31.5 C 428.842,30.6618 429.508,30.3284 430.5,30.5C 430.667,46.8367 430.5,63.1701 430,79.5C 429.283,80.0442 428.783,80.7109 428.5,81.5C 427.373,82.1217 426.373,82.955 425.5,84C 338.167,84.3333 250.833,84.6667 163.5,85C 162.524,91.0758 162.19,97.2424 162.5,103.5C 150.066,103.96 137.733,103.46 125.5,102C 124.514,91.9158 124.181,81.7491 124.5,71.5C 125.314,73.631 125.814,75.9644 126,78.5C 126.383,79.056 126.883,79.3893 127.5,79.5C 136.167,79.5 144.833,79.5 153.5,79.5C 154.396,78.4937 155.062,78.4937 155.5,79.5C 155.5,79.8333 155.5,80.1667 155.5,80.5C 145.5,80.5 135.5,80.5 125.5,80.5C 125.177,87.0221 125.51,93.3554 126.5,99.5C 126.611,100.117 126.944,100.617 127.5,101C 138.495,101.5 149.495,101.667 160.5,101.5C 161.166,96.6782 161.499,91.6782 161.5,86.5C 161.494,81.1194 160.828,76.1194 159.5,71.5C 160.452,61.2185 160.786,50.8852 160.5,40.5C 161.167,40.5 161.833,40.5 162.5,40.5C 162.5,49.8333 162.5,59.1667 162.5,68.5C 162.5,69.1667 162.5,69.8333 162.5,70.5C 162.5,74.8333 162.5,79.1667 162.5,83.5C 193.338,83.8315 224.005,83.4981 254.5,82.5C 255.167,82.5 255.833,82.5 256.5,82.5C 257.609,82.5569 258.609,82.8902 259.5,83.5C 262.167,83.5 264.833,83.5 267.5,83.5C 268.167,83.5 268.833,83.5 269.5,83.5C 320.833,83.5 372.167,83.5 423.5,83.5C 424.167,82.8333 424.833,82.1667 425.5,81.5C 426.712,80.7701 427.712,79.7701 428.5,78.5C 429.827,62.6717 429.827,47.0051 428.5,31.5 Z"/></g>
<g><path style="opacity:1" fill="#bebebe" d="M 267.5,83.5 C 264.833,83.5 262.167,83.5 259.5,83.5C 261.792,81.7329 264.458,80.7329 267.5,80.5C 267.5,81.5 267.5,82.5 267.5,83.5 Z"/></g>
<g><path style="opacity:1" fill="#b1b1b1" d="M 162.5,70.5 C 162.833,70.5 163.167,70.5 163.5,70.5C 163.5,74.5 163.5,78.5 163.5,82.5C 193.833,82.5 224.167,82.5 254.5,82.5C 224.005,83.4981 193.338,83.8315 162.5,83.5C 162.5,79.1667 162.5,74.8333 162.5,70.5 Z"/></g>
<g><path style="opacity:1" fill="#838383" d="M 155.5,80.5 C 146.014,81.4938 136.348,81.8271 126.5,81.5C 126.5,87.5 126.5,93.5 126.5,99.5C 125.51,93.3554 125.177,87.0221 125.5,80.5C 135.5,80.5 145.5,80.5 155.5,80.5 Z"/></g>
<g><path style="opacity:1" fill="#ececec" d="M 420.5,79.5 C 420.833,79.5 421.167,79.5 421.5,79.5C 423.176,80.1834 423.843,81.5168 423.5,83.5C 372.167,83.5 320.833,83.5 269.5,83.5C 269.5,82.1667 269.5,80.8333 269.5,79.5C 319.833,79.5 370.167,79.5 420.5,79.5 Z"/></g>
<g><path style="opacity:1" fill="#333333" d="M 269.5,77.5 C 320.833,77.5 372.167,77.5 423.5,77.5C 422.833,78.1667 422.167,78.8333 421.5,79.5C 421.167,79.5 420.833,79.5 420.5,79.5C 370.167,78.8333 319.833,78.1667 269.5,77.5 Z"/></g>
<g><path style="opacity:1" fill="#fcfcfc" d="M 159.5,72.5 C 160.494,81.9856 160.827,91.6522 160.5,101.5C 149.495,101.667 138.495,101.5 127.5,101C 126.944,100.617 126.611,100.117 126.5,99.5C 126.5,93.5 126.5,87.5 126.5,81.5C 136.348,81.8271 146.014,81.4938 155.5,80.5C 155.5,80.1667 155.5,79.8333 155.5,79.5C 157.083,77.3374 158.416,75.0041 159.5,72.5 Z"/></g>
<g><path style="opacity:1" fill="#dcdcdc" d="M 178.5,49.5 C 180.002,55.564 178.502,60.8973 174,65.5C 173.333,58.1667 173.333,50.8333 174,43.5C 175.277,45.7472 176.777,47.7472 178.5,49.5 Z"/></g>
<g><path style="opacity:1" fill="#b9b9b9" d="M 162.5,40.5 C 165.713,40.19 168.713,40.5233 171.5,41.5C 168.833,41.5 166.167,41.5 163.5,41.5C 163.5,50.5 163.5,59.5 163.5,68.5C 163.167,68.5 162.833,68.5 162.5,68.5C 162.5,59.1667 162.5,49.8333 162.5,40.5 Z"/></g>
<g><path style="opacity:1" fill="#f0f0f0" d="M 171.5,41.5 C 172.493,50.3178 172.827,59.3178 172.5,68.5C 169.5,68.5 166.5,68.5 163.5,68.5C 163.5,59.5 163.5,50.5 163.5,41.5C 166.167,41.5 168.833,41.5 171.5,41.5 Z"/></g>
<g><path style="opacity:1" fill="#878787" d="M 159.5,72.5 C 159.5,72.1667 159.5,71.8333 159.5,71.5C 160.828,76.1194 161.494,81.1194 161.5,86.5C 161.499,91.6782 161.166,96.6782 160.5,101.5C 160.827,91.6522 160.494,81.9856 159.5,72.5 Z"/></g>
</svg>
