<?xml version="1.0" encoding="UTF-8"?>
<!DOCTYPE svg PUBLIC "-//W3C//DTD SVG 1.1//EN" "http://www.w3.org/Graphics/SVG/1.1/DTD/svg11.dtd">
<svg xmlns="http://www.w3.org/2000/svg" version="1.1" width="433px" height="116px" style="shape-rendering:geometricPrecision; text-rendering:geometricPrecision; image-rendering:optimizeQuality; fill-rule:evenodd; clip-rule:evenodd" xmlns:xlink="http://www.w3.org/1999/xlink">
<g><path style="opacity:1" fill="#fbfbfb" d="M -0.5,-0.5 C 52.8333,-0.5 106.167,-0.5 159.5,-0.5C 161.833,0.166667 164.167,0.833333 166.5,1.5C 164.167,1.5 161.833,1.5 159.5,1.5C 159.5,39.1667 159.5,76.8333 159.5,114.5C 159.5,114.833 159.5,115.167 159.5,115.5C 106.167,115.5 52.8333,115.5 -0.5,115.5C -0.5,76.8333 -0.5,38.1667 -0.5,-0.5 Z"/></g>
<g><path style="opacity:1" fill="#fcfcfc" d="M 159.5,-0.5 C 250.5,-0.5 341.5,-0.5 432.5,-0.5C 432.5,19.1667 432.5,38.8333 432.5,58.5C 431.833,58.8333 431.167,59.1667 430.5,59.5C 430.5,58.5 430.5,57.5 430.5,56.5C 427.406,55.7866 424.406,54.7866 421.5,53.5C 418.154,52.1036 414.821,50.6036 411.5,49C 410.659,44.3882 408.492,43.5548 405,46.5C 401.221,45.3023 397.721,43.6356 394.5,41.5C 393.587,35.9464 391.421,35.2797 388,39.5C 385.224,38.1952 382.39,37.0285 379.5,36C 378.427,33.3434 376.76,31.1768 374.5,29.5C 372.724,31.5378 371.057,33.7045 369.5,36C 367.167,36.6667 364.833,36.6667 362.5,36C 361.36,33.5417 359.86,31.375 358,29.5C 355.929,30.7753 354.429,32.6086 353.5,35C 350.833,35.6667 348.167,35.6667 345.5,35C 344.354,32.8562 342.854,31.0228 341,29.5C 339.266,31.2902 337.766,33.2902 336.5,35.5C 333.833,36.8333 331.167,36.8333 328.5,35.5C 325.476,27.6357 322.476,27.8023 319.5,36C 317.167,36.6667 314.833,36.6667 312.5,36C 310.994,33.6667 309.327,31.5 307.5,29.5C 305.392,31.306 303.726,33.4727 302.5,36C 300.167,36.6667 297.833,36.6667 295.5,36C 294.427,33.3434 292.76,31.1768 290.5,29.5C 288.812,31.0294 287.479,32.8627 286.5,35C 283.833,35.6667 281.167,35.6667 278.5,35C 275.235,27.6537 272.235,27.8204 269.5,35.5C 267.235,36.6474 264.902,36.8141 262.5,36C 261.015,33.5227 259.181,31.356 257,29.5C 255.14,31.375 253.64,33.5417 252.5,36C 250.167,36.6667 247.833,36.6667 245.5,36C 243.943,33.7045 242.276,31.5378 240.5,29.5C 238.24,31.1768 236.573,33.3434 235.5,36C 233.167,36.6667 230.833,36.6667 228.5,36C 226.994,33.6667 225.327,31.5 223.5,29.5C 221.674,31.1475 220.34,33.1475 219.5,35.5C 212.58,36.6278 205.58,36.7945 198.5,36C 187.6,24.6041 176.933,13.1041 166.5,1.5C 164.167,0.833333 161.833,0.166667 159.5,-0.5 Z"/></g>
<g><path style="opacity:1" fill="#161616" d="M 166.5,1.5 C 176.933,13.1041 187.6,24.6041 198.5,36C 205.58,36.7945 212.58,36.6278 219.5,35.5C 220.833,36.1667 220.833,36.8333 219.5,37.5C 212.5,37.5 205.5,37.5 198.5,37.5C 198.5,51.1667 198.5,64.8333 198.5,78.5C 202.371,78.815 206.038,78.4816 209.5,77.5C 209.5,77.1667 209.5,76.8333 209.5,76.5C 209.328,75.5084 209.662,74.8417 210.5,74.5C 210.433,75.9587 210.766,77.2921 211.5,78.5C 211.5,79.1667 211.5,79.8333 211.5,80.5C 207.253,79.3982 202.92,79.2316 198.5,80C 187.833,91.3333 177.167,102.667 166.5,114C 164.19,114.497 161.857,114.663 159.5,114.5C 159.5,76.8333 159.5,39.1667 159.5,1.5C 161.833,1.5 164.167,1.5 166.5,1.5 Z"/></g>
<g><path style="opacity:1" fill="#fefefe" d="M 164.5,3.5 C 164.5,39.8333 164.5,76.1667 164.5,112.5C 163.5,112.5 162.5,112.5 161.5,112.5C 161.5,76.1667 161.5,39.8333 161.5,3.5C 162.5,3.5 163.5,3.5 164.5,3.5 Z"/></g>
<g><path style="opacity:1" fill="#fbfbfb" d="M 168.5,6.5 C 177.766,16.9373 187.266,27.2706 197,37.5C 197.667,51.1667 197.667,64.8333 197,78.5C 187.294,88.7034 177.794,99.0368 168.5,109.5C 167.167,75.1667 167.167,40.8333 168.5,6.5 Z"/></g>
<g><path style="opacity:1" fill="#8f8f8f" d="M 164.5,3.5 C 163.5,3.5 162.5,3.5 161.5,3.5C 161.5,39.8333 161.5,76.1667 161.5,112.5C 160.502,76.0038 160.168,39.3371 160.5,2.5C 162.099,2.23219 163.432,2.56552 164.5,3.5 Z"/></g>
<g><path style="opacity:1" fill="#c8c8c8" d="M 168.5,6.5 C 167.167,40.8333 167.167,75.1667 168.5,109.5C 168.217,110.289 167.717,110.956 167,111.5C 166.167,76.162 166.333,40.8286 167.5,5.5C 168.107,5.62358 168.44,5.95691 168.5,6.5 Z"/></g>
<g><path style="opacity:1" fill="#f7f7f7" d="M 219.5,38.5 C 222.469,50.8804 224.469,63.547 225.5,76.5C 223.735,77.4614 221.735,77.7947 219.5,77.5C 217.837,71.3958 216.67,65.0625 216,58.5C 214.421,55.0061 212.587,51.6728 210.5,48.5C 209.914,48.7093 209.414,49.0426 209,49.5C 208.372,53.7152 207.538,57.8818 206.5,62C 207.459,66.9788 208.459,71.8121 209.5,76.5C 209.5,76.8333 209.5,77.1667 209.5,77.5C 206.167,77.5 202.833,77.5 199.5,77.5C 199.5,64.5 199.5,51.5 199.5,38.5C 206.167,38.5 212.833,38.5 219.5,38.5 Z"/></g>
<g><path style="opacity:1" fill="#808080" d="M 219.5,37.5 C 219.5,37.8333 219.5,38.1667 219.5,38.5C 212.833,38.5 206.167,38.5 199.5,38.5C 199.5,51.5 199.5,64.5 199.5,77.5C 202.833,77.5 206.167,77.5 209.5,77.5C 206.038,78.4816 202.371,78.815 198.5,78.5C 198.5,64.8333 198.5,51.1667 198.5,37.5C 205.5,37.5 212.5,37.5 219.5,37.5 Z"/></g>
<g><path style="opacity:1" fill="#f2f2f2" d="M 397.5,45.5 C 400.614,46.9278 403.781,48.2612 407,49.5C 408.939,54.4852 410.772,59.4852 412.5,64.5C 409.218,65.539 406.052,66.8724 403,68.5C 400.202,61.1111 398.369,53.4444 397.5,45.5 Z"/></g>
<g><path style="opacity:1" fill="#1d1d1d" d="M 394.5,41.5 C 393.503,41.4701 392.836,41.9701 392.5,43C 393.459,45.1199 393.626,47.2865 393,49.5C 392.407,46.6837 391.573,44.6837 390.5,43.5C 387.622,41.6485 384.622,39.9819 381.5,38.5C 381.167,39 380.833,39.5 380.5,40C 382.612,49.3927 384.112,58.8927 385,68.5C 385.233,70.7801 386.066,72.7801 387.5,74.5C 389.751,73.3052 392.085,72.3052 394.5,71.5C 394.833,70.8333 395.167,70.1667 395.5,69.5C 394.829,66.8151 394.162,64.1484 393.5,61.5C 394.9,60.9002 395.9,59.9002 396.5,58.5C 396.977,63.0642 398.143,67.3975 400,71.5C 399.503,66.1623 398.67,60.829 397.5,55.5C 396.957,52.7816 396.291,50.115 395.5,47.5C 396.268,46.7375 396.768,45.7375 397,44.5C 397.399,44.7284 397.565,45.0618 397.5,45.5C 398.369,53.4444 400.202,61.1111 403,68.5C 406.052,66.8724 409.218,65.539 412.5,64.5C 413.5,65.8333 414.5,65.8333 415.5,64.5C 415.969,65.7454 416.303,65.5787 416.5,64C 416.361,62.699 415.695,61.8656 414.5,61.5C 413.709,59.6907 413.709,57.6907 414.5,55.5C 415.267,58.0274 416.767,60.0274 419,61.5C 421.62,60.5192 424.12,59.3526 426.5,58C 424.382,56.9179 422.382,55.7512 420.5,54.5C 421.167,54.5 421.5,54.1667 421.5,53.5C 424.406,54.7866 427.406,55.7866 430.5,56.5C 430.5,57.5 430.5,58.5 430.5,59.5C 424.556,60.3029 419.723,62.9696 416,67.5C 411.59,66.5938 407.423,67.4271 403.5,70C 402.521,72.1373 401.188,73.9706 399.5,75.5C 397.809,73.7438 395.809,73.2438 393.5,74C 391.5,75 389.5,76 387.5,77C 386.354,79.1438 384.854,80.9772 383,82.5C 380.975,80.5777 378.475,79.5777 375.5,79.5C 373.833,79.8333 372.167,80.1667 370.5,80.5C 367.232,88.5129 364.232,88.3462 361.5,80C 358.773,79.1816 356.106,79.3483 353.5,80.5C 351.295,87.9729 348.629,88.3063 345.5,81.5C 344.666,80.2521 343.333,79.5854 341.5,79.5C 339.955,79.5108 338.622,79.8442 337.5,80.5C 336.184,82.7158 334.517,84.7158 332.5,86.5C 330.774,84.7721 329.441,82.7721 328.5,80.5C 325.894,79.3483 323.227,79.1816 320.5,80C 317.768,88.3462 314.768,88.5129 311.5,80.5C 308.833,79.1667 306.167,79.1667 303.5,80.5C 300.42,88.3303 297.42,88.1636 294.5,80C 291.773,79.1816 289.106,79.3483 286.5,80.5C 285.559,82.7721 284.226,84.7721 282.5,86.5C 280.673,84.5 279.006,82.3333 277.5,80C 275.167,79.3333 272.833,79.3333 270.5,80C 268.994,82.3333 267.327,84.5 265.5,86.5C 263.684,84.8816 262.351,82.8816 261.5,80.5C 258.894,79.3483 256.227,79.1816 253.5,80C 250.58,88.1636 247.58,88.3303 244.5,80.5C 241.833,79.1667 239.167,79.1667 236.5,80.5C 233.232,88.5129 230.232,88.3462 227.5,80C 224.773,79.1816 222.106,79.3483 219.5,80.5C 216.686,88.4129 214.019,88.4129 211.5,80.5C 211.5,79.8333 211.5,79.1667 211.5,78.5C 212.139,77.9032 212.472,77.0698 212.5,76C 211.594,69.5117 210.761,63.0117 210,56.5C 208.936,57.9441 208.436,59.6107 208.5,61.5C 209.169,65.8432 209.836,70.1765 210.5,74.5C 209.662,74.8417 209.328,75.5084 209.5,76.5C 208.459,71.8121 207.459,66.9788 206.5,62C 207.538,57.8818 208.372,53.7152 209,49.5C 209.414,49.0426 209.914,48.7093 210.5,48.5C 212.587,51.6728 214.421,55.0061 216,58.5C 216.67,65.0625 217.837,71.3958 219.5,77.5C 221.693,78.7969 224.027,78.7969 226.5,77.5C 226.376,76.8933 226.043,76.56 225.5,76.5C 224.469,63.547 222.469,50.8804 219.5,38.5C 219.5,38.1667 219.5,37.8333 219.5,37.5C 220.833,36.8333 220.833,36.1667 219.5,35.5C 220.34,33.1475 221.674,31.1475 223.5,29.5C 225.327,31.5 226.994,33.6667 228.5,36C 230.833,36.6667 233.167,36.6667 235.5,36C 236.573,33.3434 238.24,31.1768 240.5,29.5C 242.276,31.5378 243.943,33.7045 245.5,36C 247.833,36.6667 250.167,36.6667 252.5,36C 253.64,33.5417 255.14,31.375 257,29.5C 259.181,31.356 261.015,33.5227 262.5,36C 264.902,36.8141 267.235,36.6474 269.5,35.5C 272.235,27.8204 275.235,27.6537 278.5,35C 281.167,35.6667 283.833,35.6667 286.5,35C 287.479,32.8627 288.812,31.0294 290.5,29.5C 292.76,31.1768 294.427,33.3434 295.5,36C 297.833,36.6667 300.167,36.6667 302.5,36C 303.726,33.4727 305.392,31.306 307.5,29.5C 309.327,31.5 310.994,33.6667 312.5,36C 314.833,36.6667 317.167,36.6667 319.5,36C 322.476,27.8023 325.476,27.6357 328.5,35.5C 331.167,36.8333 333.833,36.8333 336.5,35.5C 337.766,33.2902 339.266,31.2902 341,29.5C 342.854,31.0228 344.354,32.8562 345.5,35C 348.167,35.6667 350.833,35.6667 353.5,35C 354.429,32.6086 355.929,30.7753 358,29.5C 359.86,31.375 361.36,33.5417 362.5,36C 364.833,36.6667 367.167,36.6667 369.5,36C 371.057,33.7045 372.724,31.5378 374.5,29.5C 376.76,31.1768 378.427,33.3434 379.5,36C 382.39,37.0285 385.224,38.1952 388,39.5C 391.421,35.2797 393.587,35.9464 394.5,41.5 Z"/></g>
<g><path style="opacity:1" fill="#dcdcdc" d="M 226.5,37.5 C 228.011,39.4758 228.844,41.8091 229,44.5C 230.549,56.0588 232.382,67.5588 234.5,79C 234.054,80.7259 233.221,82.2259 232,83.5C 230.197,68.1632 228.363,52.8298 226.5,37.5 Z"/></g>
<g><path style="opacity:1" fill="#e0e0e0" d="M 323.5,32.5 C 325.109,35.1489 325.943,38.1489 326,41.5C 327.425,53.5024 328.425,65.5024 329,77.5C 326.612,66.6212 324.945,55.6212 324,44.5C 323.731,41.6484 322.897,38.9818 321.5,36.5C 322.63,35.3777 323.297,34.0443 323.5,32.5 Z"/></g>
<g><path style="opacity:1" fill="#eeeeee" d="M 330.5,37.5 C 332.833,37.5 335.167,37.5 337.5,37.5C 339.663,50.8076 341.663,64.141 343.5,77.5C 341.167,77.5 338.833,77.5 336.5,77.5C 334.281,64.1985 332.281,50.8651 330.5,37.5 Z"/></g>
<g><path style="opacity:1" fill="#dbdbdb" d="M 260.5,38.5 C 261.222,38.9175 261.722,39.5842 262,40.5C 263.793,53.0082 265.626,65.5082 267.5,78C 267.546,79.728 267.046,81.228 266,82.5C 263.467,67.9324 261.633,53.2657 260.5,38.5 Z"/></g>
<g><path style="opacity:1" fill="#dedede" d="M 239.5,32.5 C 241.109,35.1489 241.943,38.1489 242,41.5C 243.664,53.4729 244.664,65.4729 245,77.5C 243.196,63.7011 240.696,50.0344 237.5,36.5C 238.63,35.3777 239.297,34.0443 239.5,32.5 Z"/></g>
<g><path style="opacity:1" fill="#dadada" d="M 256.5,32.5 C 258.018,35.5341 258.851,38.8675 259,42.5C 260.335,54.177 261.335,65.8437 262,77.5C 259.709,63.8586 257.209,50.1919 254.5,36.5C 255.18,35.1401 255.847,33.8068 256.5,32.5 Z"/></g>
<g><path style="opacity:1" fill="#f3f3f3" d="M 390.5,43.5 C 391.5,49.5 392.5,55.5 393.5,61.5C 394.162,64.1484 394.829,66.8151 395.5,69.5C 395.167,70.1667 394.833,70.8333 394.5,71.5C 392.085,72.3052 389.751,73.3052 387.5,74.5C 386.066,72.7801 385.233,70.7801 385,68.5C 384.112,58.8927 382.612,49.3927 380.5,40C 380.833,39.5 381.167,39 381.5,38.5C 384.622,39.9819 387.622,41.6485 390.5,43.5 Z"/></g>
<g><path style="opacity:1" fill="#f2f2f2" d="M 370.5,38.5 C 373.796,50.9081 376.462,63.5747 378.5,76.5C 375.572,77.4841 372.572,77.8174 369.5,77.5C 368.113,65.126 366.447,52.7927 364.5,40.5C 365.918,38.6921 367.918,38.0254 370.5,38.5 Z"/></g>
<g><path style="opacity:1" fill="#f2f2f2" d="M 353.5,38.5 C 354.384,41.0232 355.218,43.6898 356,46.5C 357.002,56.2043 358.169,65.8709 359.5,75.5C 358.082,77.3079 356.082,77.9746 353.5,77.5C 351.284,64.9041 349.284,52.2374 347.5,39.5C 349.265,38.5386 351.265,38.2053 353.5,38.5 Z"/></g>
<g><path style="opacity:1" fill="#efefef" d="M 313.5,37.5 C 315.833,37.5 318.167,37.5 320.5,37.5C 322.61,50.815 324.61,64.1483 326.5,77.5C 324.167,77.5 321.833,77.5 319.5,77.5C 317.499,64.1546 315.499,50.8213 313.5,37.5 Z"/></g>
<g><path style="opacity:1" fill="#f3f3f3" d="M 303.5,38.5 C 306.315,51.019 308.315,63.6857 309.5,76.5C 307.735,77.4614 305.735,77.7947 303.5,77.5C 300.926,65.3899 298.926,53.0566 297.5,40.5C 298.918,38.6921 300.918,38.0254 303.5,38.5 Z"/></g>
<g><path style="opacity:1" fill="#f3f3f3" d="M 286.5,38.5 C 289.469,50.8828 291.469,63.5495 292.5,76.5C 290.735,77.4614 288.735,77.7947 286.5,77.5C 284.238,65.0106 282.238,52.344 280.5,39.5C 282.265,38.5386 284.265,38.2053 286.5,38.5 Z"/></g>
<g><path style="opacity:1" fill="#f1f1f1" d="M 269.5,38.5 C 270.887,40.8766 271.721,43.5432 272,46.5C 273.055,56.7792 274.555,66.9459 276.5,77C 273.901,77.769 271.401,77.6023 269,76.5C 267,64.1724 265.166,51.839 263.5,39.5C 265.265,38.5386 267.265,38.2053 269.5,38.5 Z"/></g>
<g><path style="opacity:1" fill="#efefef" d="M 246.5,37.5 C 248.833,37.5 251.167,37.5 253.5,37.5C 255.44,50.8457 257.44,64.1791 259.5,77.5C 256.881,77.7683 254.381,77.435 252,76.5C 250.574,63.4272 248.741,50.4272 246.5,37.5 Z"/></g>
<g><path style="opacity:1" fill="#efefef" d="M 229.5,37.5 C 232.394,37.0423 234.894,37.709 237,39.5C 239.308,52.1027 241.141,64.7694 242.5,77.5C 240.167,77.5 237.833,77.5 235.5,77.5C 233.864,64.1024 231.864,50.7691 229.5,37.5 Z"/></g>
<g><path style="opacity:1" fill="#858585" d="M 370.5,38.5 C 367.918,38.0254 365.918,38.6921 364.5,40.5C 363.596,39.791 363.263,38.791 363.5,37.5C 366.059,37.1984 368.393,37.5318 370.5,38.5 Z"/></g>
<g><path style="opacity:1" fill="#818181" d="M 353.5,38.5 C 351.265,38.2053 349.265,38.5386 347.5,39.5C 346.957,39.44 346.624,39.1067 346.5,38.5C 348.973,37.2031 351.307,37.2031 353.5,38.5 Z"/></g>
<g><path style="opacity:1" fill="#d8d8d8" d="M 340.5,32.5 C 341.222,32.9175 341.722,33.5842 342,34.5C 343.705,48.8388 345.038,63.1722 346,77.5C 343.301,64.1018 340.801,50.6018 338.5,37C 339.044,35.415 339.711,33.915 340.5,32.5 Z"/></g>
<g><path style="opacity:1" fill="#dcdcdc" d="M 306.5,32.5 C 308.197,34.3052 309.03,36.6385 309,39.5C 310.599,51.8131 311.599,64.1464 312,76.5C 309.789,63.1921 307.622,49.8587 305.5,36.5C 305.846,35.1508 306.179,33.8175 306.5,32.5 Z"/></g>
<g><path style="opacity:1" fill="#8c8c8c" d="M 303.5,38.5 C 300.918,38.0254 298.918,38.6921 297.5,40.5C 296.596,39.791 296.263,38.791 296.5,37.5C 299.059,37.1984 301.393,37.5318 303.5,38.5 Z"/></g>
<g><path style="opacity:1" fill="#868686" d="M 286.5,38.5 C 284.265,38.2053 282.265,38.5386 280.5,39.5C 279.957,39.44 279.624,39.1067 279.5,38.5C 281.973,37.2031 284.307,37.2031 286.5,38.5 Z"/></g>
<g><path style="opacity:1" fill="#dddddd" d="M 273.5,32.5 C 274.268,33.2625 274.768,34.2625 275,35.5C 276.668,49.8394 278.001,64.1727 279,78.5C 276.598,64.6449 274.098,50.8116 271.5,37C 272.044,35.415 272.711,33.915 273.5,32.5 Z"/></g>
<g><path style="opacity:1" fill="#7f7f7f" d="M 269.5,38.5 C 267.265,38.2053 265.265,38.5386 263.5,39.5C 262.957,39.44 262.624,39.1067 262.5,38.5C 264.973,37.2031 267.307,37.2031 269.5,38.5 Z"/></g>
<g><path style="opacity:1" fill="#d5d5d5" d="M 289.5,32.5 C 291.164,33.9488 291.998,35.9488 292,38.5C 293.602,51.8544 294.935,65.1877 296,78.5C 293.322,64.6209 290.822,50.6209 288.5,36.5C 288.846,35.1508 289.179,33.8175 289.5,32.5 Z"/></g>
<g><path style="opacity:1" fill="#d8d8d8" d="M 356.5,32.5 C 358.045,33.2297 358.878,34.563 359,36.5C 360.577,50.5197 361.911,64.5197 363,78.5C 360.462,64.3755 357.962,50.2088 355.5,36C 355.989,34.8615 356.322,33.6948 356.5,32.5 Z"/></g>
<g><path style="opacity:1" fill="#c5c5c5" d="M 373.5,32.5 C 374.725,33.1522 375.392,34.3189 375.5,36C 377.238,46.1148 378.071,56.2814 378,66.5C 376.49,56.4394 374.657,46.4394 372.5,36.5C 372.846,35.1508 373.179,33.8175 373.5,32.5 Z"/></g>
<g><path style="opacity:1" fill="#131313" d="M 394.5,41.5 C 397.721,43.6356 401.221,45.3023 405,46.5C 408.492,43.5548 410.659,44.3882 411.5,49C 414.821,50.6036 418.154,52.1036 421.5,53.5C 421.5,54.1667 421.167,54.5 420.5,54.5C 418.323,54.4139 416.323,53.7472 414.5,52.5C 413.913,53.2334 413.913,54.2334 414.5,55.5C 413.709,57.6907 413.709,59.6907 414.5,61.5C 414.557,62.609 414.89,63.609 415.5,64.5C 414.5,65.8333 413.5,65.8333 412.5,64.5C 410.772,59.4852 408.939,54.4852 407,49.5C 403.781,48.2612 400.614,46.9278 397.5,45.5C 397.565,45.0618 397.399,44.7284 397,44.5C 396.768,45.7375 396.268,46.7375 395.5,47.5C 395.073,44.9589 394.74,45.1256 394.5,48C 394.867,50.7082 395.534,53.2082 396.5,55.5C 396.5,56.5 396.5,57.5 396.5,58.5C 395.9,59.9002 394.9,60.9002 393.5,61.5C 392.5,55.5 391.5,49.5 390.5,43.5C 391.573,44.6837 392.407,46.6837 393,49.5C 393.626,47.2865 393.459,45.1199 392.5,43C 392.836,41.9701 393.503,41.4701 394.5,41.5 Z"/></g>
<g><path style="opacity:1" fill="#666666" d="M 395.5,47.5 C 396.291,50.115 396.957,52.7816 397.5,55.5C 397.167,55.5 396.833,55.5 396.5,55.5C 395.534,53.2082 394.867,50.7082 394.5,48C 394.74,45.1256 395.073,44.9589 395.5,47.5 Z"/></g>
<g><path style="opacity:1" fill="#ededed" d="M 420.5,54.5 C 422.382,55.7512 424.382,56.9179 426.5,58C 424.12,59.3526 421.62,60.5192 419,61.5C 416.767,60.0274 415.267,58.0274 414.5,55.5C 413.913,54.2334 413.913,53.2334 414.5,52.5C 416.323,53.7472 418.323,54.4139 420.5,54.5 Z"/></g>
<g><path style="opacity:1" fill="#dcdcdc" d="M 222.5,32.5 C 224.164,33.9488 224.998,35.9488 225,38.5C 226.665,51.1405 227.665,63.8072 228,76.5C 226.038,63.3002 223.871,50.1335 221.5,37C 221.773,35.4672 222.106,33.9672 222.5,32.5 Z"/></g>
<g><path style="opacity:1" fill="#d7d7d7" d="M 377.5,37.5 C 378.222,37.9175 378.722,38.5842 379,39.5C 380.505,51.5561 382.339,63.5561 384.5,75.5C 384.523,77.0666 384.023,78.3999 383,79.5C 380.508,65.6189 378.675,51.6189 377.5,37.5 Z"/></g>
<g><path style="opacity:1" fill="#fbfbfb" d="M 432.5,58.5 C 432.5,77.5 432.5,96.5 432.5,115.5C 341.5,115.5 250.5,115.5 159.5,115.5C 159.5,115.167 159.5,114.833 159.5,114.5C 161.857,114.663 164.19,114.497 166.5,114C 177.167,102.667 187.833,91.3333 198.5,80C 202.92,79.2316 207.253,79.3982 211.5,80.5C 214.019,88.4129 216.686,88.4129 219.5,80.5C 222.106,79.3483 224.773,79.1816 227.5,80C 230.232,88.3462 233.232,88.5129 236.5,80.5C 239.167,79.1667 241.833,79.1667 244.5,80.5C 247.58,88.3303 250.58,88.1636 253.5,80C 256.227,79.1816 258.894,79.3483 261.5,80.5C 262.351,82.8816 263.684,84.8816 265.5,86.5C 267.327,84.5 268.994,82.3333 270.5,80C 272.833,79.3333 275.167,79.3333 277.5,80C 279.006,82.3333 280.673,84.5 282.5,86.5C 284.226,84.7721 285.559,82.7721 286.5,80.5C 289.106,79.3483 291.773,79.1816 294.5,80C 297.42,88.1636 300.42,88.3303 303.5,80.5C 306.167,79.1667 308.833,79.1667 311.5,80.5C 314.768,88.5129 317.768,88.3462 320.5,80C 323.227,79.1816 325.894,79.3483 328.5,80.5C 329.441,82.7721 330.774,84.7721 332.5,86.5C 334.517,84.7158 336.184,82.7158 337.5,80.5C 340.279,80.2786 342.946,80.612 345.5,81.5C 348.629,88.3063 351.295,87.9729 353.5,80.5C 356.106,79.3483 358.773,79.1816 361.5,80C 364.232,88.3462 367.232,88.5129 370.5,80.5C 372.167,80.1667 373.833,79.8333 375.5,79.5C 378.475,79.5777 380.975,80.5777 383,82.5C 384.854,80.9772 386.354,79.1438 387.5,77C 389.5,76 391.5,75 393.5,74C 395.809,73.2438 397.809,73.7438 399.5,75.5C 401.188,73.9706 402.521,72.1373 403.5,70C 407.423,67.4271 411.59,66.5938 416,67.5C 419.723,62.9696 424.556,60.3029 430.5,59.5C 431.167,59.1667 431.833,58.8333 432.5,58.5 Z"/></g>
<g><path style="opacity:1" fill="#dbdbdb" d="M 344.5,38.5 C 347.025,51.6405 349.358,64.9738 351.5,78.5C 351.563,80.4809 350.896,82.1476 349.5,83.5C 347.287,68.5556 345.62,53.5556 344.5,38.5 Z"/></g>
<g><path style="opacity:1" fill="#d9d9d9" d="M 211.5,55.5 C 212.79,56.0577 213.623,57.0577 214,58.5C 215.113,65.3429 216.279,72.1762 217.5,79C 217.612,80.6624 216.946,81.8291 215.5,82.5C 213.444,73.6039 212.111,64.6039 211.5,55.5 Z"/></g>
<g><path style="opacity:1" fill="#a9a9a9" d="M 414.5,61.5 C 415.695,61.8656 416.361,62.699 416.5,64C 416.303,65.5787 415.969,65.7454 415.5,64.5C 414.89,63.609 414.557,62.609 414.5,61.5 Z"/></g>
<g><path style="opacity:1" fill="#cacaca" d="M 396.5,55.5 C 396.833,55.5 397.167,55.5 397.5,55.5C 398.67,60.829 399.503,66.1623 400,71.5C 398.143,67.3975 396.977,63.0642 396.5,58.5C 396.5,57.5 396.5,56.5 396.5,55.5 Z"/></g>
<g><path style="opacity:1" fill="#dddddd" d="M 243.5,38.5 C 244.222,38.9175 244.722,39.5842 245,40.5C 246.936,53.5566 249.103,66.5566 251.5,79.5C 250.917,81.0016 250.084,82.3349 249,83.5C 246.915,68.5675 245.081,53.5675 243.5,38.5 Z"/></g>
<g><path style="opacity:1" fill="#d4d4d4" d="M 310.5,37.5 C 312.011,39.4758 312.844,41.8091 313,44.5C 314.385,56.0787 316.218,67.5787 318.5,79C 318.054,80.7259 317.221,82.2259 316,83.5C 313.838,68.2084 312.005,52.8751 310.5,37.5 Z"/></g>
<g><path style="opacity:1" fill="#d8d8d8" d="M 327.5,38.5 C 328.222,38.9175 328.722,39.5842 329,40.5C 330.761,53.5983 332.928,66.5983 335.5,79.5C 334.469,80.7003 333.635,82.0337 333,83.5C 330.376,68.5981 328.543,53.5981 327.5,38.5 Z"/></g>
<g><path style="opacity:1" fill="#bdbdbd" d="M 211.5,78.5 C 210.766,77.2921 210.433,75.9587 210.5,74.5C 209.836,70.1765 209.169,65.8432 208.5,61.5C 208.436,59.6107 208.936,57.9441 210,56.5C 210.761,63.0117 211.594,69.5117 212.5,76C 212.472,77.0698 212.139,77.9032 211.5,78.5 Z"/></g>
<g><path style="opacity:1" fill="#d5d5d5" d="M 293.5,37.5 C 295.13,39.0261 295.963,41.0261 296,43.5C 297.4,55.236 299.234,66.9026 301.5,78.5C 301.363,80.1073 300.696,81.4406 299.5,82.5C 297.065,67.5958 295.065,52.5958 293.5,37.5 Z"/></g>
<g><path style="opacity:1" fill="#d1d1d1" d="M 361.5,39.5 C 363.671,52.3721 366.004,65.3721 368.5,78.5C 368.363,80.1073 367.696,81.4406 366.5,82.5C 365.018,78.6563 364.185,74.6563 364,70.5C 362.901,60.1825 362.068,49.8491 361.5,39.5 Z"/></g>
<g><path style="opacity:1" fill="#e5e5e5" d="M 277.5,39.5 C 280.28,52.4528 282.613,65.6195 284.5,79C 284.612,80.6624 283.946,81.8291 282.5,82.5C 280.294,68.2282 278.627,53.8949 277.5,39.5 Z"/></g>
<g><path style="opacity:1" fill="#767676" d="M 225.5,76.5 C 226.043,76.56 226.376,76.8933 226.5,77.5C 224.027,78.7969 221.693,78.7969 219.5,77.5C 221.735,77.7947 223.735,77.4614 225.5,76.5 Z"/></g>
<g><path style="opacity:1" fill="#797979" d="M 292.5,76.5 C 293.043,76.56 293.376,76.8933 293.5,77.5C 291.027,78.7969 288.693,78.7969 286.5,77.5C 288.735,77.7947 290.735,77.4614 292.5,76.5 Z"/></g>
<g><path style="opacity:1" fill="#6f6f6f" d="M 309.5,76.5 C 310.043,76.56 310.376,76.8933 310.5,77.5C 308.027,78.7969 305.693,78.7969 303.5,77.5C 305.735,77.7947 307.735,77.4614 309.5,76.5 Z"/></g>
<g><path style="opacity:1" fill="#7c7c7c" d="M 359.5,75.5 C 360.404,76.209 360.737,77.209 360.5,78.5C 357.941,78.8016 355.607,78.4682 353.5,77.5C 356.082,77.9746 358.082,77.3079 359.5,75.5 Z"/></g>
<g><path style="opacity:1" fill="#898989" d="M 337.5,80.5 C 338.622,79.8442 339.955,79.5108 341.5,79.5C 343.333,79.5854 344.666,80.2521 345.5,81.5C 342.946,80.612 340.279,80.2786 337.5,80.5 Z"/></g>
<g><path style="opacity:1" fill="#1f1f1f" d="M 48.5,1.5 C 82.2943,-1.1981 104.461,13.4686 115,45.5C 118.975,81.7535 103.475,104.587 68.5,114C 39.1578,116.964 18.3245,105.131 6,78.5C -3.09823,47.44 6.06844,23.6066 33.5,7C 38.4337,4.63687 43.4337,2.80354 48.5,1.5 Z"/></g>
<g><path style="opacity:1" fill="#fbfbfb" d="M 47.5,3.5 C 80.5787,0.273997 102.412,14.274 113,45.5C 116.91,69.7811 109.076,89.2811 89.5,104C 60.2891,119.528 35.1224,114.695 14,89.5C -1.98144,61.2578 1.85189,36.0911 25.5,14C 32.4918,9.62281 39.8251,6.12281 47.5,3.5 Z"/></g>
<g><path style="opacity:1" fill="#191919" d="M 53.5,28.5 C 57.5,28.5 61.5,28.5 65.5,28.5C 65.5496,43.883 73.2162,51.5496 88.5,51.5C 88.5,55.5 88.5,59.5 88.5,63.5C 72.9403,64.0578 65.2736,72.0578 65.5,87.5C 61.5,87.5 57.5,87.5 53.5,87.5C 53.2098,71.8764 45.2098,63.8764 29.5,63.5C 29.5,59.5 29.5,55.5 29.5,51.5C 45.3011,52.033 53.3011,44.3664 53.5,28.5 Z"/></g>
<g><path style="opacity:1" fill="#efefef" d="M 55.5,80.5 C 57.8333,80.5 60.1667,80.5 62.5,80.5C 62.5,82.1667 62.5,83.8333 62.5,85.5C 60.1667,85.5 57.8333,85.5 55.5,85.5C 55.5,83.8333 55.5,82.1667 55.5,80.5 Z"/></g>
<g><path style="opacity:1" fill="#bcbcbc" d="M 40.5,63.5 C 44.9077,63.5938 48.7411,65.5938 52,69.5C 53.5899,71.6498 54.2566,73.9832 54,76.5C 52.2912,73.5815 50.4579,70.7482 48.5,68C 45.9679,66.2347 43.3013,64.7347 40.5,63.5 Z"/></g>
<g><path style="opacity:1" fill="#cdcdcd" d="M 75.5,62.5 C 76.2389,62.369 76.9056,62.5357 77.5,63C 72,65.8333 67.8333,70 65,75.5C 64.8363,72.4775 65.8363,69.8109 68,67.5C 70.4795,65.6859 72.9795,64.0192 75.5,62.5 Z"/></g>
<g><path style="opacity:1" fill="#e0e0e0" d="M 81.5,54.5 C 83.5,54.5 85.5,54.5 87.5,54.5C 87.5,56.8333 87.5,59.1667 87.5,61.5C 85.5,61.5 83.5,61.5 81.5,61.5C 81.5,59.1667 81.5,56.8333 81.5,54.5 Z"/></g>
<g><path style="opacity:1" fill="#eeeeee" d="M 31.5,54.5 C 33.1667,54.5 34.8333,54.5 36.5,54.5C 36.5,56.8333 36.5,59.1667 36.5,61.5C 34.8333,61.5 33.1667,61.5 31.5,61.5C 31.5,59.1667 31.5,56.8333 31.5,54.5 Z"/></g>
<g><path style="opacity:1" fill="#c4c4c4" d="M 53.5,39.5 C 54.0967,39.7352 54.4301,40.2352 54.5,41C 52.5981,47.2466 48.5981,50.9132 42.5,52C 47.7775,49.2242 51.4442,45.0575 53.5,39.5 Z"/></g>
<g><path style="opacity:1" fill="#cdcdcd" d="M 64.5,40.5 C 67.3111,45.4759 71.3111,49.3093 76.5,52C 69.8061,51.1426 65.8061,47.3092 64.5,40.5 Z"/></g>
<g><path style="opacity:1" fill="#f5f5f5" d="M 56.5,37.5 C 58.5,37.5 60.5,37.5 62.5,37.5C 62.3662,45.0605 65.6996,50.5605 72.5,54C 74.8098,54.4966 77.1432,54.6633 79.5,54.5C 79.5,56.5 79.5,58.5 79.5,60.5C 73.1235,61.276 67.9568,64.276 64,69.5C 62.7114,72.3508 62.2114,75.3508 62.5,78.5C 60.5,78.5 58.5,78.5 56.5,78.5C 55.6549,67.9873 49.9882,61.9873 39.5,60.5C 38.5344,58.604 38.2011,56.604 38.5,54.5C 49.6464,54.3551 55.6464,48.6884 56.5,37.5 Z"/></g>
<g><path style="opacity:1" fill="#f6f6f6" d="M 55.5,30.5 C 58.3878,29.9898 60.7211,30.6565 62.5,32.5C 62.5,33.5 62.5,34.5 62.5,35.5C 60.5,35.5 58.5,35.5 56.5,35.5C 56.3713,33.7839 56.038,32.1172 55.5,30.5 Z"/></g>
<g><path style="opacity:1" fill="#707070" d="M 55.5,30.5 C 57.9479,29.5269 60.6146,29.1936 63.5,29.5C 63.7373,30.791 63.404,31.791 62.5,32.5C 60.7211,30.6565 58.3878,29.9898 55.5,30.5 Z"/></g>
</svg>
