<?xml version="1.0" encoding="UTF-8"?>
<!DOCTYPE svg PUBLIC "-//W3C//DTD SVG 1.1//EN" "http://www.w3.org/Graphics/SVG/1.1/DTD/svg11.dtd">
<svg xmlns="http://www.w3.org/2000/svg" version="1.1" width="296px" height="170px" style="shape-rendering:geometricPrecision; text-rendering:geometricPrecision; image-rendering:optimizeQuality; fill-rule:evenodd; clip-rule:evenodd" xmlns:xlink="http://www.w3.org/1999/xlink">
<g><path style="opacity:1" fill="#fdfdfd" d="M -0.5,-0.5 C 98.1667,-0.5 196.833,-0.5 295.5,-0.5C 295.5,56.1667 295.5,112.833 295.5,169.5C 196.833,169.5 98.1667,169.5 -0.5,169.5C -0.5,112.833 -0.5,56.1667 -0.5,-0.5 Z"/></g>
<g><path style="opacity:1" fill="#202020" d="M 77.5,9.5 C 78.8734,9.34332 80.2068,9.50999 81.5,10C 102.371,22.3663 123.371,34.533 144.5,46.5C 145.667,72.4936 145.833,98.4936 145,124.5C 123.198,137.329 101.198,149.663 79,161.5C 56.9844,149.573 35.151,137.24 13.5,124.5C 12.3335,98.8398 12.1668,73.1732 13,47.5C 34.6455,34.933 56.1455,22.2663 77.5,9.5 Z"/></g>
<g><path style="opacity:1" fill="#e6e6e6" d="M 78.5,11.5 C 84.6044,14.3865 90.6044,17.5531 96.5,21C 90.9135,20.296 85.2468,19.796 79.5,19.5C 73.4423,19.9026 67.4423,20.4026 61.5,21C 67.3334,17.9695 73,14.8029 78.5,11.5 Z"/></g>
<g><path style="opacity:1" fill="#efefef" d="M 143.5,48.5 C 143.823,54.69 143.49,60.69 142.5,66.5C 139.834,56.3369 134.834,47.5035 127.5,40C 133.191,42.0141 138.525,44.8474 143.5,48.5 Z"/></g>
<g><path style="opacity:1" fill="#e8e8e8" d="M 30.5,38.5 C 31.2389,38.369 31.9056,38.5357 32.5,39C 24.1706,47.3347 18.3372,57.168 15,68.5C 14.3333,61.8333 14.3333,55.1667 15,48.5C 20.4867,45.5163 25.6533,42.183 30.5,38.5 Z"/></g>
<g><path style="opacity:1" fill="#dddddd" d="M 220.5,43.5 C 221.455,48.4798 221.289,53.4798 220,58.5C 219.501,53.8452 219.334,49.1785 219.5,44.5C 219.5,43.8333 219.833,43.5 220.5,43.5 Z"/></g>
<g><path style="opacity:1" fill="#fdfdfd" d="M 223.5,49.5 C 242.243,49.1802 260.91,49.5135 279.5,50.5C 285.125,74.7107 284.792,98.7107 278.5,122.5C 260.167,122.5 241.833,122.5 223.5,122.5C 222.623,117.35 221.623,112.35 220.5,107.5C 218.394,87.964 219.394,68.6307 223.5,49.5 Z"/></g>
<g><path style="opacity:1" fill="#161616" d="M 218.5,147.5 C 218.172,136.321 218.505,125.321 219.5,114.5C 219.182,119.032 219.515,123.366 220.5,127.5C 221.167,127.5 221.5,127.833 221.5,128.5C 218.673,138.608 219.007,148.608 222.5,158.5C 222.611,159.117 222.944,159.617 223.5,160C 242.338,160.829 261.005,160.662 279.5,159.5C 285.141,147.558 284.808,135.891 278.5,124.5C 278.5,123.833 278.5,123.167 278.5,122.5C 284.792,98.7107 285.125,74.7107 279.5,50.5C 270.525,49.1683 261.191,48.5016 251.5,48.5C 241.994,48.5002 232.661,48.8335 223.5,49.5C 219.394,68.6307 218.394,87.964 220.5,107.5C 220.715,109.179 220.048,110.179 218.5,110.5C 218.169,88.327 218.503,66.327 219.5,44.5C 219.334,49.1785 219.501,53.8452 220,58.5C 221.289,53.4798 221.455,48.4798 220.5,43.5C 218.595,36.7808 217.929,29.7808 218.5,22.5C 218.684,17.9179 220.018,13.7513 222.5,10C 241.833,9.33333 261.167,9.33333 280.5,10C 282.646,12.7948 283.813,15.9614 284,19.5C 284.667,63.5 284.667,107.5 284,151.5C 283.33,155.011 282.163,158.344 280.5,161.5C 261.175,162.666 241.842,162.833 222.5,162C 220,157.503 218.667,152.67 218.5,147.5 Z"/></g>
<g><path style="opacity:1" fill="#c4c4c4" d="M 223.5,49.5 C 232.661,48.8335 241.994,48.5002 251.5,48.5C 261.191,48.5016 270.525,49.1683 279.5,50.5C 260.91,49.5135 242.243,49.1802 223.5,49.5 Z"/></g>
<g><path style="opacity:1" fill="#c7c7c7" d="M 282.5,42.5 C 283.651,47.6503 283.817,52.9836 283,58.5C 282.479,55.0815 281.645,51.7481 280.5,48.5C 281.372,46.5504 282.039,44.5504 282.5,42.5 Z"/></g>
<g><path style="opacity:1" fill="#f6f6f6" d="M 223.5,10.5 C 242.179,10.1671 260.845,10.5004 279.5,11.5C 284.721,23.51 284.721,35.51 279.5,47.5C 260.821,47.8329 242.155,47.4996 223.5,46.5C 218.206,34.4598 218.206,22.4598 223.5,10.5 Z"/></g>
<g><path style="opacity:1" fill="#727272" d="M 143.5,48.5 C 144.655,55.3209 144.821,62.3209 144,69.5C 143.487,68.4734 142.987,67.4734 142.5,66.5C 143.49,60.69 143.823,54.69 143.5,48.5 Z"/></g>
<g><path style="opacity:1" fill="#3a3a3a" d="M 218.5,22.5 C 217.929,29.7808 218.595,36.7808 220.5,43.5C 219.833,43.5 219.5,43.8333 219.5,44.5C 218.503,66.327 218.169,88.327 218.5,110.5C 218.782,111.778 219.449,112.778 220.5,113.5C 219.833,113.5 219.5,113.833 219.5,114.5C 218.505,125.321 218.172,136.321 218.5,147.5C 217.167,105.833 217.167,64.1667 218.5,22.5 Z"/></g>
<g><path style="opacity:1" fill="#737373" d="M 142.5,104.5 C 142.56,103.957 142.893,103.624 143.5,103.5C 144.818,110.322 144.818,116.989 143.5,123.5C 143.823,116.978 143.49,110.645 142.5,104.5 Z"/></g>
<g><path style="opacity:1" fill="#ededed" d="M 14.5,102.5 C 18.2498,113.683 23.7498,123.683 31,132.5C 25.9152,129.374 20.7486,126.374 15.5,123.5C 14.503,116.532 14.1697,109.532 14.5,102.5 Z"/></g>
<g><path style="opacity:1" fill="#ededed" d="M 142.5,104.5 C 143.49,110.645 143.823,116.978 143.5,123.5C 138.02,126.907 132.353,129.74 126.5,132C 134.539,124.424 139.872,115.257 142.5,104.5 Z"/></g>
<g><path style="opacity:1" fill="#f9f9f9" d="M 67.5,21.5 C 106.74,18.5941 131.906,35.9275 143,73.5C 146.749,107.518 133.249,131.685 102.5,146C 69.8577,156.119 43.691,147.286 24,119.5C 8.15282,89.4798 11.9862,62.3131 35.5,38C 44.7967,29.7417 55.4633,24.2417 67.5,21.5 Z"/></g>
<g><path style="opacity:1" fill="#1c1c1c" d="M 71.5,26.5 C 76.5111,26.3341 81.5111,26.5007 86.5,27C 91.4593,35.0842 96.2926,43.2509 101,51.5C 110.865,59.5599 116.865,69.8932 119,82.5C 124.103,91.0425 128.937,99.7091 133.5,108.5C 132.07,113.195 129.737,117.362 126.5,121C 115.833,121.333 105.167,121.667 94.5,122C 84.1298,126.552 73.7965,126.552 63.5,122C 52.8333,121.667 42.1667,121.333 31.5,121C 28.5328,117.197 26.1995,113.03 24.5,108.5C 29.6667,99.5 34.8333,90.5 40,81.5C 41.4486,69.3794 47.1153,59.7128 57,52.5C 61.661,43.6887 66.4943,35.022 71.5,26.5 Z"/></g>
<g><path style="opacity:1" fill="#717171" d="M 100.5,118.5 C 108.65,119.493 116.983,119.826 125.5,119.5C 116.991,120.821 108.325,120.821 99.5,119.5C 99.6236,118.893 99.9569,118.56 100.5,118.5 Z"/></g>
<g><path style="opacity:1" fill="#727272" d="M 57.5,118.5 C 58.0431,118.56 58.3764,118.893 58.5,119.5C 49.6755,120.821 41.0088,120.821 32.5,119.5C 41.0168,119.826 49.3501,119.493 57.5,118.5 Z"/></g>
<g><path style="opacity:1" fill="#1e1e1e" d="M 73.5,119.5 C 58.7261,116.848 49.5595,108.181 46,93.5C 45.5006,87.8431 45.3339,82.1764 45.5,76.5C 54.3358,55.084 70.0024,47.584 92.5,54C 113.161,65.3172 118.661,81.8172 109,103.5C 100.47,116.013 88.6366,121.346 73.5,119.5 Z"/></g>
<g><path style="opacity:1" fill="#f6f6f6" d="M 125.5,119.5 C 116.983,119.826 108.65,119.493 100.5,118.5C 112.049,111.084 118.215,100.418 119,86.5C 123.436,93.7082 127.603,101.042 131.5,108.5C 130.25,112.673 128.25,116.339 125.5,119.5 Z"/></g>
<g><path style="opacity:1" fill="#f5f5f5" d="M 45.5,76.5 C 45.3339,82.1764 45.5006,87.8431 46,93.5C 49.5595,108.181 58.7261,116.848 73.5,119.5C 76.3583,120.166 79.3583,120.833 82.5,121.5C 79.2317,122.487 75.8984,122.82 72.5,122.5C 66.3901,121.629 60.8901,119.296 56,115.5C 55.4153,116.998 55.9153,117.998 57.5,118.5C 49.3501,119.493 41.0168,119.826 32.5,119.5C 30.2583,116.021 28.2583,112.354 26.5,108.5C 30.6811,100.792 35.3477,93.4585 40.5,86.5C 41.2492,83.4726 41.9159,80.4726 42.5,77.5C 43.1174,77.6107 43.6174,77.944 44,78.5C 44.2784,77.5842 44.7784,76.9175 45.5,76.5 Z"/></g>
<g><path style="opacity:1" fill="#e3e3e3" d="M 72.5,122.5 C 75.8984,122.82 79.2317,122.487 82.5,121.5C 79.3583,120.833 76.3583,120.166 73.5,119.5C 88.6366,121.346 100.47,116.013 109,103.5C 118.661,81.8172 113.161,65.3172 92.5,54C 70.0024,47.584 54.3358,55.084 45.5,76.5C 44.7784,76.9175 44.2784,77.5842 44,78.5C 43.6174,77.944 43.1174,77.6107 42.5,77.5C 49.7066,55.0565 65.0399,45.5565 88.5,49C 109.485,56.4616 118.652,71.295 116,93.5C 109.495,115.326 94.9954,124.993 72.5,122.5 Z"/></g>
<g><path style="opacity:1" fill="#fbfbfb" d="M 71.5,53.5 C 91.6107,51.1457 104.777,59.4791 111,78.5C 112.856,105.286 100.356,118.453 73.5,118C 54.9333,112.426 46.0999,99.9261 47,80.5C 50.1439,66.8596 58.3106,57.8596 71.5,53.5 Z"/></g>
<g><path style="opacity:1" fill="#f5f5f5" d="M 72.5,28.5 C 77.2137,28.1734 81.8804,28.5067 86.5,29.5C 90.1216,36.5797 94.1216,43.4131 98.5,50C 92.424,47.9321 86.0907,46.7654 79.5,46.5C 73.0729,46.1841 67.0729,47.5175 61.5,50.5C 61.1667,50.1667 60.8333,49.8333 60.5,49.5C 64.7648,42.6354 68.7648,35.6354 72.5,28.5 Z"/></g>
<g><path style="opacity:1" fill="#eaeaea" d="M 220.5,113.5 C 221.557,118.2 221.557,122.866 220.5,127.5C 219.515,123.366 219.182,119.032 219.5,114.5C 219.5,113.833 219.833,113.5 220.5,113.5 Z"/></g>
<g><path style="opacity:1" fill="#232323" d="M 220.5,107.5 C 221.623,112.35 222.623,117.35 223.5,122.5C 241.833,122.5 260.167,122.5 278.5,122.5C 278.5,123.167 278.5,123.833 278.5,124.5C 260.164,124.333 241.83,124.5 223.5,125C 222.915,126.302 222.249,127.469 221.5,128.5C 221.5,127.833 221.167,127.5 220.5,127.5C 221.557,122.866 221.557,118.2 220.5,113.5C 219.449,112.778 218.782,111.778 218.5,110.5C 220.048,110.179 220.715,109.179 220.5,107.5 Z"/></g>
<g><path style="opacity:1" fill="#fcfcfc" d="M 278.5,124.5 C 284.808,135.891 285.141,147.558 279.5,159.5C 260.454,159.808 241.454,159.475 222.5,158.5C 219.007,148.608 218.673,138.608 221.5,128.5C 222.249,127.469 222.915,126.302 223.5,125C 241.83,124.5 260.164,124.333 278.5,124.5 Z"/></g>
<g><path style="opacity:1" fill="#c4c4c4" d="M 282.5,111.5 C 283.652,116.985 283.818,122.651 283,128.5C 282.03,126.726 281.196,124.893 280.5,123C 281.619,119.239 282.286,115.406 282.5,111.5 Z"/></g>
<g><path style="opacity:1" fill="#e4e4e4" d="M 61.5,150.5 C 61.56,149.957 61.8933,149.624 62.5,149.5C 68.0483,150.981 73.7149,151.648 79.5,151.5C 84.8622,151.18 90.1955,151.013 95.5,151C 90.2884,154.105 84.9551,156.939 79.5,159.5C 73.5061,156.511 67.5061,153.511 61.5,150.5 Z"/></g>
<g><path style="opacity:1" fill="#d7d7d7" d="M 222.5,158.5 C 241.454,159.475 260.454,159.808 279.5,159.5C 261.005,160.662 242.338,160.829 223.5,160C 222.944,159.617 222.611,159.117 222.5,158.5 Z"/></g>
</svg>
