<?xml version="1.0" encoding="UTF-8"?>
<!DOCTYPE svg PUBLIC "-//W3C//DTD SVG 1.1//EN" "http://www.w3.org/Graphics/SVG/1.1/DTD/svg11.dtd">
<svg xmlns="http://www.w3.org/2000/svg" version="1.1" width="300px" height="188px" style="shape-rendering:geometricPrecision; text-rendering:geometricPrecision; image-rendering:optimizeQuality; fill-rule:evenodd; clip-rule:evenodd" xmlns:xlink="http://www.w3.org/1999/xlink">
<g><path style="opacity:1" fill="#fdfdfd" d="M -0.5,-0.5 C 99.5,-0.5 199.5,-0.5 299.5,-0.5C 299.5,62.1667 299.5,124.833 299.5,187.5C 199.5,187.5 99.5,187.5 -0.5,187.5C -0.5,124.833 -0.5,62.1667 -0.5,-0.5 Z"/></g>
<g><path style="opacity:1" fill="#181818" d="M 274.5,3.5 C 280.561,3.20955 286.561,3.54289 292.5,4.5C 293.7,9.08129 293.366,13.5813 291.5,18C 294.024,23.927 293.69,29.7603 290.5,35.5C 291.325,36.3857 292.325,36.719 293.5,36.5C 292.6,40.8012 291.267,44.9678 289.5,49C 290.833,53 292.167,57 293.5,61C 292.216,65.5237 290.55,69.857 288.5,74C 289.963,76.2997 291.63,78.4663 293.5,80.5C 292.111,84.9442 290.444,89.2775 288.5,93.5C 290.291,97.5874 291.958,101.754 293.5,106C 291.802,108.171 290.135,110.338 288.5,112.5C 290.309,116.617 291.976,120.784 293.5,125C 292.167,129.333 290.833,133.667 289.5,138C 291.278,142.048 292.611,146.214 293.5,150.5C 292.5,150.5 291.5,150.5 290.5,150.5C 291.296,154.222 292.296,157.889 293.5,161.5C 293.321,164.191 292.321,166.525 290.5,168.5C 292.96,172.844 293.96,177.511 293.5,182.5C 286.862,183.498 280.195,183.665 273.5,183C 272.572,182.612 271.905,181.945 271.5,181C 272.833,179.333 272.833,177.667 271.5,176C 272.697,173.411 273.697,170.744 274.5,168C 273.277,166.28 272.277,164.447 271.5,162.5C 272.5,159.167 273.5,155.833 274.5,152.5C 273.751,150.964 272.751,149.631 271.5,148.5C 273.562,144.872 275.229,141.039 276.5,137C 274.696,133.225 273.029,129.392 271.5,125.5C 273.363,120.941 275.363,116.441 277.5,112C 275.645,109.977 273.645,108.144 271.5,106.5C 273.243,102.016 275.243,97.6829 277.5,93.5C 275.226,89.2864 273.226,84.9531 271.5,80.5C 273.543,78.4914 275.543,76.4914 277.5,74.5C 275.64,69.9461 273.64,65.4461 271.5,61C 273.362,57.0811 275.029,53.0811 276.5,49C 274.934,44.7151 273.267,40.5484 271.5,36.5C 272.5,36.5 273.5,36.5 274.5,36.5C 274.323,32.3018 273.323,28.3018 271.5,24.5C 272.729,22.4378 273.729,20.2711 274.5,18C 273.923,15.3432 272.923,12.8432 271.5,10.5C 272.248,8.58414 272.248,6.58414 271.5,4.5C 272.791,4.73731 273.791,4.40397 274.5,3.5 Z"/></g>
<g><path style="opacity:1" fill="#f0f0f0" d="M 276.5,99.5 C 277.638,102.304 277.805,105.304 277,108.5C 274.153,105.772 273.986,102.772 276.5,99.5 Z"/></g>
<g><path style="opacity:1" fill="#dedede" d="M 279.5,98.5 C 281.957,101.751 283.624,105.418 284.5,109.5C 282.833,109.5 281.167,109.5 279.5,109.5C 279.5,105.833 279.5,102.167 279.5,98.5 Z"/></g>
<g><path style="opacity:1" fill="#eeeeee" d="M 276.5,78.5 C 277.978,78.238 279.311,78.5713 280.5,79.5C 283.777,88.3299 287.443,96.9966 291.5,105.5C 290.564,106.974 289.23,107.974 287.5,108.5C 282.91,99.6528 278.577,90.6528 274.5,81.5C 275.193,80.4822 275.859,79.4822 276.5,78.5 Z"/></g>
<g><path style="opacity:1" fill="#828282" d="M 285.5,77.5 C 286.641,80.6399 286.808,83.9733 286,87.5C 285.283,86.9558 284.783,86.2891 284.5,85.5C 285.473,83.0521 285.806,80.3854 285.5,77.5 Z"/></g>
<g><path style="opacity:1" fill="#7d7d7d" d="M 289.5,79.5 C 288.167,81.8333 288.167,84.1667 289.5,86.5C 289.217,87.2891 288.717,87.9558 288,88.5C 287.176,85.1177 287.343,81.7844 288.5,78.5C 289.107,78.6236 289.44,78.9569 289.5,79.5 Z"/></g>
<g><path style="opacity:1" fill="#e9e9e9" d="M 289.5,79.5 C 290.497,79.4701 291.164,79.9701 291.5,81C 290.68,82.8003 290.014,84.6336 289.5,86.5C 288.167,84.1667 288.167,81.8333 289.5,79.5 Z"/></g>
<g><path style="opacity:1" fill="#ececec" d="M 285.5,77.5 C 285.806,80.3854 285.473,83.0521 284.5,85.5C 283.629,82.8877 282.963,80.221 282.5,77.5C 283.5,77.5 284.5,77.5 285.5,77.5 Z"/></g>
<g><path style="opacity:1" fill="#e0e0e0" d="M 279.5,54.5 C 284.385,59.3955 284.552,64.3955 280,69.5C 279.501,64.5111 279.334,59.5111 279.5,54.5 Z"/></g>
<g><path style="opacity:1" fill="#e5e5e5" d="M 288.5,63.5 C 289.376,63.3691 290.043,63.7025 290.5,64.5C 289.333,66.8333 288.167,69.1667 287,71.5C 285.186,72.7596 283.353,72.7596 281.5,71.5C 283.169,68.1697 285.502,65.5031 288.5,63.5 Z"/></g>
<g><path style="opacity:1" fill="#ededed" d="M 276.5,54.5 C 277.647,58.6463 277.814,62.9796 277,67.5C 273.948,63.2221 273.781,58.8887 276.5,54.5 Z"/></g>
<g><path style="opacity:1" fill="#f0f0f0" d="M 277.5,36.5 C 278.675,36.281 279.675,36.6143 280.5,37.5C 284.732,45.2937 288.399,53.2937 291.5,61.5C 289.326,61.9202 287.326,61.9202 285.5,61.5C 282.106,53.7118 278.439,46.0451 274.5,38.5C 275.602,37.8243 276.602,37.1577 277.5,36.5 Z"/></g>
<g><path style="opacity:1" fill="#ededed" d="M 286.5,26.5 C 287.833,26.5 289.167,26.5 290.5,26.5C 289.507,31.3134 288.007,35.9801 286,40.5C 284.437,39.2748 283.27,37.7748 282.5,36C 283.435,32.6346 284.768,29.468 286.5,26.5 Z"/></g>
<g><path style="opacity:1" fill="#e9e9e9" d="M 276.5,16.5 C 284.042,21.3251 285.209,27.3251 280,34.5C 279.781,28.2948 278.614,22.2948 276.5,16.5 Z"/></g>
<g><path style="opacity:1" fill="#d6d6d6" d="M 274.5,22.5 C 275.931,22.8807 276.764,23.8807 277,25.5C 277.667,28.5 277.667,31.5 277,34.5C 275.932,31.129 274.765,27.7957 273.5,24.5C 273.863,23.8165 274.196,23.1499 274.5,22.5 Z"/></g>
<g><path style="opacity:1" fill="#ececec" d="M 275.5,10.5 C 277.199,10.3398 278.866,10.5065 280.5,11C 284.982,14.441 288.149,18.6076 290,23.5C 288.612,24.5536 287.112,24.7203 285.5,24C 282.31,19.3223 278.977,14.8223 275.5,10.5 Z"/></g>
<g><path style="opacity:1" fill="#dddddd" d="M 285.5,6.5 C 287.604,6.2011 289.604,6.53443 291.5,7.5C 290.499,10.1725 289.499,12.8392 288.5,15.5C 284.499,13.4967 283.499,10.4967 285.5,6.5 Z"/></g>
<g><path style="opacity:1" fill="#e7e7e7" d="M 273.5,5.5 C 276.187,5.33591 278.854,5.50258 281.5,6C 283.405,6.82612 283.739,7.99279 282.5,9.5C 279.891,8.7695 277.224,8.2695 274.5,8C 273.748,7.32924 273.414,6.4959 273.5,5.5 Z"/></g>
<g><path style="opacity:1" fill="#e0e0e0" d="M 279.5,113.5 C 281.288,113.215 282.955,113.548 284.5,114.5C 282.428,119.092 279.094,121.925 274.5,123C 276.307,119.885 277.973,116.719 279.5,113.5 Z"/></g>
<g><path style="opacity:1" fill="#ebebeb" d="M 284.5,118.5 C 285.833,122.5 285.833,126.5 284.5,130.5C 283.987,127.791 282.987,125.291 281.5,123C 282.315,121.357 283.315,119.857 284.5,118.5 Z"/></g>
<g><path style="opacity:1" fill="#878787" d="M 284.5,130.5 C 285.833,126.5 285.833,122.5 284.5,118.5C 284.783,117.711 285.283,117.044 286,116.5C 286.667,121.833 286.667,127.167 286,132.5C 285.283,131.956 284.783,131.289 284.5,130.5 Z"/></g>
<g><path style="opacity:1" fill="#ececec" d="M 289.5,120.5 C 292.017,124.129 292.017,127.796 289.5,131.5C 288.167,127.833 288.167,124.167 289.5,120.5 Z"/></g>
<g><path style="opacity:1" fill="#ececec" d="M 276.5,124.5 C 277.978,124.238 279.311,124.571 280.5,125.5C 283.766,133.2 287.433,140.7 291.5,148C 289.523,149.541 287.523,150.041 285.5,149.5C 281.904,142.544 278.404,135.544 275,128.5C 274.516,126.807 275.016,125.473 276.5,124.5 Z"/></g>
<g><path style="opacity:1" fill="#7b7b7b" d="M 289.5,120.5 C 288.167,124.167 288.167,127.833 289.5,131.5C 289.44,132.043 289.107,132.376 288.5,132.5C 287.338,127.869 287.172,123.202 288,118.5C 288.717,119.044 289.217,119.711 289.5,120.5 Z"/></g>
<g><path style="opacity:1" fill="#e9e9e9" d="M 278.5,146.5 C 282.254,147.828 283.421,150.494 282,154.5C 281.097,158.531 278.597,160.531 274.5,160.5C 275.833,155.833 277.167,151.167 278.5,146.5 Z"/></g>
<g><path style="opacity:1" fill="#d9d9d9" d="M 284.5,152.5 C 285.748,153.334 286.415,154.667 286.5,156.5C 287.34,160.844 287.84,165.178 288,169.5C 285.64,166.64 283.473,163.64 281.5,160.5C 282.513,157.812 283.513,155.146 284.5,152.5 Z"/></g>
<g><path style="opacity:1" fill="#1c1c1c" d="M 90.5,1.5 C 101.683,0.803289 112.349,2.80329 122.5,7.5C 123.249,5.98841 124.416,4.98841 126,4.5C 141.869,8.25691 154.202,16.9236 163,30.5C 164.133,28.7888 165.633,28.2888 167.5,29C 178.956,40.0805 185.456,53.5805 187,69.5C 188.183,68.269 189.349,68.269 190.5,69.5C 195.059,85.2297 194.059,100.563 187.5,115.5C 188.5,115.5 189.5,115.5 190.5,115.5C 187.782,131.711 179.616,144.377 166,153.5C 166.305,155.443 166.305,157.443 166,159.5C 155.298,170.794 142.131,176.794 126.5,177.5C 127.035,180.238 126.035,182.072 123.5,183C 113.579,185.804 103.579,186.137 93.5,184C 88.8069,183.29 84.6402,181.457 81,178.5C 80.4241,180.852 78.9241,181.852 76.5,181.5C 61.052,178.201 49.2187,169.868 41,156.5C 39.8668,158.211 38.3668,158.711 36.5,158C 24.9136,146.993 18.5803,133.493 17.5,117.5C 15.8333,117.5 14.1667,117.5 12.5,117.5C 10.6707,107.58 10.1707,97.5798 11,87.5C 11.743,82.1047 13.5764,77.1047 16.5,72.5C 15.675,71.6143 14.675,71.281 13.5,71.5C 16.0445,54.7344 24.3778,41.7344 38.5,32.5C 37.1666,31.3801 36.6666,30.0468 37,28.5C 47.8163,16.3407 61.3163,10.0074 77.5,9.5C 77.2148,7.71199 77.5481,6.04533 78.5,4.5C 82.5463,3.17575 86.5463,2.17575 90.5,1.5 Z"/></g>
<g><path style="opacity:1" fill="#939393" d="M 156.5,145.5 C 159.137,147.491 161.804,149.491 164.5,151.5C 160.643,151.531 157.976,149.531 156.5,145.5 Z"/></g>
<g><path style="opacity:1" fill="#bbbbbb" d="M 25.5,114.5 C 27.3474,114.234 28.014,114.568 27.5,115.5C 25.0846,116.305 22.7513,117.305 20.5,118.5C 20.1667,118.167 19.8333,117.833 19.5,117.5C 21.444,116.199 23.444,115.199 25.5,114.5 Z"/></g>
<g><path style="opacity:1" fill="#b1b1b1" d="M 175.5,112.5 C 178.74,111.258 182.074,111.424 185.5,113C 182.132,113.543 178.799,113.376 175.5,112.5 Z"/></g>
<g><path style="opacity:1" fill="#aaaaaa" d="M 18.5,72.5 C 21.8988,73.0164 25.2321,73.8497 28.5,75C 26.5,75.6667 24.5,75.6667 22.5,75C 20.563,74.8784 19.2297,74.045 18.5,72.5 Z"/></g>
<g><path style="opacity:1" fill="#aeaeae" d="M 181.5,68.5 C 182.552,68.3505 183.552,68.5172 184.5,69C 181.477,71.1863 178.143,72.1863 174.5,72C 177.069,71.1016 179.402,69.935 181.5,68.5 Z"/></g>
<g><path style="opacity:1" fill="#b2b2b2" d="M 39.5,35.5 C 39.8966,34.475 40.5632,34.3083 41.5,35C 42.8333,36.3333 44.1667,37.6667 45.5,39C 44.8333,39.6667 44.1667,39.6667 43.5,39C 42.2949,37.6244 40.9616,36.4577 39.5,35.5 Z"/></g>
<g><path style="opacity:1" fill="#fafafa" d="M 87.5,3.5 C 98.1538,2.7312 108.487,4.06453 118.5,7.5C 118.55,15.2279 117.884,22.8945 116.5,30.5C 116.833,32.1667 117.167,33.8333 117.5,35.5C 120.439,26.9801 122.939,18.3135 125,9.5C 125.674,8.4216 126.674,7.75493 128,7.5C 140.067,10.5356 150.067,16.8689 158,26.5C 158.52,28.2889 158.187,29.9556 157,31.5C 152.009,37.4818 147.509,43.8151 143.5,50.5C 143.833,50.8333 144.167,51.1667 144.5,51.5C 151.819,44.6813 158.986,37.6813 166,30.5C 176.076,39.6492 182.243,50.9825 184.5,64.5C 176.293,69.1035 167.959,73.4368 159.5,77.5C 167.453,76.4833 175.453,74.6499 183.5,72C 188.382,70.6233 190.882,72.4566 191,77.5C 191.667,84.1667 191.667,90.8333 191,97.5C 190.092,101.906 188.925,106.239 187.5,110.5C 179.99,110.017 172.49,109.351 165,108.5C 163.167,108.833 161.333,109.167 159.5,109.5C 169.42,111.878 179.086,114.878 188.5,118.5C 184.993,131.015 178.327,141.515 168.5,150C 160.749,146.299 153.415,141.632 146.5,136C 145.5,135.333 144.5,135.333 143.5,136C 150.681,143.014 157.681,150.181 164.5,157.5C 155.238,168.131 143.571,173.965 129.5,175C 125.771,166.612 121.771,158.445 117.5,150.5C 118.91,160.173 121.243,169.84 124.5,179.5C 111.223,184.994 98.056,184.66 85,178.5C 85.3338,169.994 86.1672,161.494 87.5,153C 87.1667,152.167 86.8333,151.333 86.5,150.5C 82.7479,159.839 80.0813,169.506 78.5,179.5C 64.3324,177.083 52.9991,170.083 44.5,158.5C 49.8333,151.167 55.1667,143.833 60.5,136.5C 59.9984,135.479 59.3317,135.312 58.5,136C 51.6667,142.833 44.8333,149.667 38,156.5C 27.3331,146.833 21.1665,134.833 19.5,120.5C 28.0802,117.417 36.4135,113.75 44.5,109.5C 43.8333,109.167 43.1667,108.833 42.5,108.5C 33.1405,110.854 23.8071,113.187 14.5,115.5C 12.5604,106.271 12.0604,96.9375 13,87.5C 13.561,83.9054 14.7276,80.5721 16.5,77.5C 18,77.1667 19.5,76.8333 21,76.5C 28.4281,78.174 35.9281,78.674 43.5,78C 34.5984,75.0215 25.5984,72.1882 16.5,69.5C 15.4879,67.1631 15.6546,64.8297 17,62.5C 20.8486,51.7844 27.3486,43.1178 36.5,36.5C 43.8333,41.5 51.1667,46.5 58.5,51.5C 59.521,50.9984 59.6877,50.3317 59,49.5C 52.3186,42.9856 45.8186,36.3189 39.5,29.5C 48.6595,18.0016 60.4929,12.335 75,12.5C 78.0179,20.3873 81.5179,28.0539 85.5,35.5C 86.2236,32.5488 86.0569,29.5488 85,26.5C 83.3972,20.2535 81.5639,14.0868 79.5,8C 81.7908,5.69142 84.4575,4.19142 87.5,3.5 Z"/></g>
<g><path style="opacity:1" fill="#cdcdcd" d="M 45.5,151.5 C 46.5075,153.268 45.8408,154.601 43.5,155.5C 43.1667,155.167 42.8333,154.833 42.5,154.5C 43.7701,153.712 44.7701,152.712 45.5,151.5 Z"/></g>
<g><path style="opacity:1" fill="#1d1d1d" d="M 93.5,50.5 C 121.101,48.5333 138.268,60.8666 145,87.5C 145.953,113.113 134.12,129.28 109.5,136C 81.7733,138.216 64.94,125.716 59,98.5C 58.0143,73.3446 69.5143,57.3446 93.5,50.5 Z"/></g>
<g><path style="opacity:1" fill="#fcfcfc" d="M 92.5,52.5 C 116.599,50.1265 133.099,60.1265 142,82.5C 145.491,100.35 140.325,115.183 126.5,127C 104.987,139.446 85.8206,136.613 69,118.5C 56.3849,98.8289 57.8849,80.3289 73.5,63C 79.3161,58.4282 85.6495,54.9282 92.5,52.5 Z"/></g>
<g><path style="opacity:1" fill="#d2d2d2" d="M 159.5,31.5 C 160.239,31.369 160.906,31.5357 161.5,32C 160,33.5 158.5,35 157,36.5C 157.058,34.5646 157.891,32.8979 159.5,31.5 Z"/></g>
<g><path style="opacity:1" fill="#979797" d="M 120.5,10.5 C 121.376,10.3691 122.043,10.7025 122.5,11.5C 121.879,14.5639 121.045,17.5639 120,20.5C 119.828,17.1745 119.995,13.8411 120.5,10.5 Z"/></g>
<g><path style="opacity:1" fill="#c5c5c5" d="M 76.5,12.5 C 77.1894,11.2264 78.0228,11.2264 79,12.5C 80.1505,14.7538 80.4838,17.0871 80,19.5C 79.1016,16.9309 77.935,14.5976 76.5,12.5 Z"/></g>
<g><path style="opacity:1" fill="#d9d9d9" d="M 288.5,154.5 C 291.032,157.437 291.699,160.771 290.5,164.5C 289.808,163.975 289.308,163.308 289,162.5C 288.503,159.854 288.336,157.187 288.5,154.5 Z"/></g>
<g><path style="opacity:1" fill="#eaeaea" d="M 274.5,162.5 C 276.527,162.338 278.527,162.505 280.5,163C 283.08,167.584 286.413,171.584 290.5,175C 288.55,176.496 286.55,176.663 284.5,175.5C 280.352,171.699 277.019,167.366 274.5,162.5 Z"/></g>
<g><path style="opacity:1" fill="#bfbfbf" d="M 82.5,168.5 C 83.8003,171.024 83.8003,173.691 82.5,176.5C 81.5508,173.874 81.5508,171.208 82.5,168.5 Z"/></g>
<g><path style="opacity:1" fill="#c3c3c3" d="M 123.5,168.5 C 124.933,170.519 126.267,172.686 127.5,175C 126.552,175.483 125.552,175.649 124.5,175.5C 124.326,173.139 123.993,170.806 123.5,168.5 Z"/></g>
<g><path style="opacity:1" fill="#ededed" d="M 276.5,171.5 C 280.146,172.462 281.313,174.795 280,178.5C 278.301,179.406 276.467,179.739 274.5,179.5C 274.963,176.779 275.629,174.112 276.5,171.5 Z"/></g>
<g><path style="opacity:1" fill="#d7d7d7" d="M 282.5,177.5 C 285.393,178.076 288.393,178.076 291.5,177.5C 291.5,178.833 291.5,180.167 291.5,181.5C 289.143,181.663 286.81,181.497 284.5,181C 283.027,180.29 282.36,179.124 282.5,177.5 Z"/></g>
</svg>
