<?xml version="1.0" encoding="UTF-8"?>
<!DOCTYPE svg PUBLIC "-//W3C//DTD SVG 1.1//EN" "http://www.w3.org/Graphics/SVG/1.1/DTD/svg11.dtd">
<svg xmlns="http://www.w3.org/2000/svg" version="1.1" width="425px" height="123px" style="shape-rendering:geometricPrecision; text-rendering:geometricPrecision; image-rendering:optimizeQuality; fill-rule:evenodd; clip-rule:evenodd" xmlns:xlink="http://www.w3.org/1999/xlink">
<g><path style="opacity:1" fill="#fdfdfd" d="M -0.5,-0.5 C 141.167,-0.5 282.833,-0.5 424.5,-0.5C 424.5,40.5 424.5,81.5 424.5,122.5C 282.833,122.5 141.167,122.5 -0.5,122.5C -0.5,81.5 -0.5,40.5 -0.5,-0.5 Z"/></g>
<g><path style="opacity:1" fill="#fdfdfd" d="M 201.5,32.5 C 480.167,33.1667 480.167,33.8333 201.5,34.5C 201.5,33.8333 201.5,33.1667 201.5,32.5 Z"/></g>
<g><path style="opacity:1" fill="#0f0f0f" d="M 204.5,31.5 C 273.998,30.5008 343.665,30.1675 413.5,30.5C 414.793,32.2959 416.293,33.9625 418,35.5C 418.667,52.5 418.667,69.5 418,86.5C 416.293,88.0375 414.793,89.7041 413.5,91.5C 336.499,91.6667 259.499,91.5 182.5,91C 188.348,90.8272 194.015,90.3272 199.5,89.5C 200.167,89.5 200.833,89.5 201.5,89.5C 271.331,90.4992 341.331,90.8325 411.5,90.5C 411.768,88.901 411.434,87.5676 410.5,86.5C 340.833,86.5 271.167,86.5 201.5,86.5C 200.167,85.8333 200.167,85.1667 201.5,84.5C 271.5,84.5 341.5,84.5 411.5,84.5C 411.83,68.6578 411.496,52.9911 410.5,37.5C 341.167,36.8333 271.833,36.1667 202.5,35.5C 272.167,35.5 341.833,35.5 411.5,35.5C 411.5,34.1667 411.5,32.8333 411.5,31.5C 342.5,31.5 273.5,31.5 204.5,31.5 Z"/></g>
<g><path style="opacity:1" fill="#949494" d="M 412.5,33.5 C 414.983,33.73 415.483,34.3966 414,35.5C 412.97,35.1639 412.47,34.4972 412.5,33.5 Z"/></g>
<g><path style="opacity:1" fill="#d2d2d2" d="M 201.5,32.5 C 202.209,31.596 203.209,31.2627 204.5,31.5C 273.5,31.5 342.5,31.5 411.5,31.5C 411.5,32.8333 411.5,34.1667 411.5,35.5C 341.833,35.5 272.167,35.5 202.5,35.5C 201.833,35.5 201.5,35.1667 201.5,34.5C 480.167,33.8333 480.167,33.1667 201.5,32.5 Z"/></g>
<g><path style="opacity:1" fill="#fefefe" d="M 410.5,37.5 C 410.5,52.8333 410.5,68.1667 410.5,83.5C 340.833,83.5 271.167,83.5 201.5,83.5C 201.5,68.1667 201.5,52.8333 201.5,37.5C 271.167,37.5 340.833,37.5 410.5,37.5 Z"/></g>
<g><path style="opacity:1" fill="#fdfdfd" d="M 416.5,37.5 C 416.5,53.1667 416.5,68.8333 416.5,84.5C 415.5,84.5 414.5,84.5 413.5,84.5C 413.5,68.8333 413.5,53.1667 413.5,37.5C 414.5,37.5 415.5,37.5 416.5,37.5 Z"/></g>
<g><path style="opacity:1" fill="#303030" d="M 413.5,30.5 C 343.665,30.1675 273.998,30.5008 204.5,31.5C 203.209,31.2627 202.209,31.596 201.5,32.5C 201.5,33.1667 201.5,33.8333 201.5,34.5C 201.5,35.1667 201.833,35.5 202.5,35.5C 271.833,36.1667 341.167,36.8333 410.5,37.5C 340.833,37.5 271.167,37.5 201.5,37.5C 201.5,52.8333 201.5,68.1667 201.5,83.5C 201.5,83.8333 201.5,84.1667 201.5,84.5C 200.167,85.1667 200.167,85.8333 201.5,86.5C 201.5,87.5 201.5,88.5 201.5,89.5C 200.833,89.5 200.167,89.5 199.5,89.5C 194.015,90.3272 188.348,90.8272 182.5,91C 259.499,91.5 336.499,91.6667 413.5,91.5C 336.668,92.4993 259.668,92.8326 182.5,92.5C 182.5,99.8333 182.5,107.167 182.5,114.5C 168.278,111.447 156.778,104.114 148,92.5C 147.333,71.1667 147.333,49.8333 148,28.5C 155.869,19.2824 165.369,12.4491 176.5,8C 178.473,7.50454 180.473,7.33788 182.5,7.5C 182.5,14.8333 182.5,22.1667 182.5,29.5C 259.668,29.1674 336.668,29.5007 413.5,30.5 Z"/></g>
<g><path style="opacity:1" fill="#f8f8f8" d="M 166.5,40.5 C 166.5,43.1667 166.5,45.8333 166.5,48.5C 161.305,48.8205 156.305,48.4872 151.5,47.5C 151.5,45.5 151.5,43.5 151.5,41.5C 156.305,40.5128 161.305,40.1795 166.5,40.5 Z"/></g>
<g><path style="opacity:1" fill="#8f8f8f" d="M 166.5,40.5 C 161.305,40.1795 156.305,40.5128 151.5,41.5C 150.957,41.44 150.624,41.1067 150.5,40.5C 155.986,39.1853 161.32,39.1853 166.5,40.5 Z"/></g>
<g><path style="opacity:1" fill="#878787" d="M 149.5,30.5 C 149.5,32.8333 149.5,35.1667 149.5,37.5C 156.022,37.1765 162.355,37.5098 168.5,38.5C 161.833,38.5 155.167,38.5 148.5,38.5C 148.194,35.6146 148.527,32.9479 149.5,30.5 Z"/></g>
<g><path style="opacity:1" fill="#fdfdfd" d="M 199.5,89.5 C 193.833,89.5 188.167,89.5 182.5,89.5C 182.5,70.1667 182.5,50.8333 182.5,31.5C 188.167,31.5 193.833,31.5 199.5,31.5C 199.5,50.8333 199.5,70.1667 199.5,89.5 Z"/></g>
<g><path style="opacity:1" fill="#f8f8f8" d="M 168.5,38.5 C 162.355,37.5098 156.022,37.1765 149.5,37.5C 149.5,35.1667 149.5,32.8333 149.5,30.5C 157.368,19.9819 167.702,12.9819 180.5,9.5C 180.667,25.8367 180.5,42.1701 180,58.5C 176.421,51.6748 172.588,45.0082 168.5,38.5 Z"/></g>
<g><path style="opacity:1" fill="#6a6a6a" d="M 148.5,41.5 C 150.924,43.2276 151.09,45.2276 149,47.5C 148.505,45.5273 148.338,43.5273 148.5,41.5 Z"/></g>
<g><path style="opacity:1" fill="#818181" d="M 416.5,37.5 C 415.5,37.5 414.5,37.5 413.5,37.5C 413.5,53.1667 413.5,68.8333 413.5,84.5C 412.504,68.6754 412.17,52.6754 412.5,36.5C 414.099,36.2322 415.432,36.5655 416.5,37.5 Z"/></g>
<g><path style="opacity:1" fill="#868686" d="M 151.5,47.5 C 156.305,48.4872 161.305,48.8205 166.5,48.5C 161.32,49.8147 155.986,49.8147 150.5,48.5C 150.624,47.8933 150.957,47.56 151.5,47.5 Z"/></g>
<g><path style="opacity:1" fill="#949494" d="M 166.5,50.5 C 166.5,50.8333 166.5,51.1667 166.5,51.5C 160.974,51.1786 155.64,51.5119 150.5,52.5C 149.957,52.44 149.624,52.1067 149.5,51.5C 155.128,50.5046 160.794,50.1712 166.5,50.5 Z"/></g>
<g><path style="opacity:1" fill="#f9f9f9" d="M 166.5,51.5 C 166.5,57.8333 166.5,64.1667 166.5,70.5C 160.974,70.8214 155.64,70.4881 150.5,69.5C 151.295,65.2147 151.628,60.8814 151.5,56.5C 151.737,55.209 151.404,54.209 150.5,53.5C 150.5,53.1667 150.5,52.8333 150.5,52.5C 155.64,51.5119 160.974,51.1786 166.5,51.5 Z"/></g>
<g><path style="opacity:1" fill="#efefef" d="M 178.5,59.5 C 178.657,60.8734 178.49,62.2068 178,63.5C 174.26,68.0493 171.26,73.0493 169,78.5C 168.501,73.1771 168.334,67.8437 168.5,62.5C 168.334,56.1579 168.5,49.8246 169,43.5C 172.43,48.6959 175.597,54.0292 178.5,59.5 Z"/></g>
<g><path style="opacity:1" fill="#7d7d7d" d="M 150.5,53.5 C 151.404,54.209 151.737,55.209 151.5,56.5C 150.907,59.5 150.074,62.5 149,65.5C 148.151,61.2668 148.651,57.2668 150.5,53.5 Z"/></g>
<g><path style="opacity:1" fill="#f9f9f9" d="M 176.5,69.5 C 177.5,69.5 178.5,69.5 179.5,69.5C 179.829,83.6766 179.496,97.6766 178.5,111.5C 167.709,108.175 158.542,102.175 151,93.5C 149.684,90.3117 149.184,86.9783 149.5,83.5C 155.868,83.8297 162.202,83.4963 168.5,82.5C 171.456,78.2372 174.122,73.9039 176.5,69.5 Z"/></g>
<g><path style="opacity:1" fill="#262626" d="M 166.5,50.5 C 167.167,54.5 167.833,58.5 168.5,62.5C 168.334,67.8437 168.501,73.1771 169,78.5C 171.26,73.0493 174.26,68.0493 178,63.5C 178.49,62.2068 178.657,60.8734 178.5,59.5C 179.345,60.6715 180.011,62.0048 180.5,63.5C 178.684,65.1184 177.351,67.1184 176.5,69.5C 174.122,73.9039 171.456,78.2372 168.5,82.5C 162.202,83.4963 155.868,83.8297 149.5,83.5C 149.833,82.8333 150.167,82.1667 150.5,81.5C 155.833,81.5 161.167,81.5 166.5,81.5C 166.5,78.5 166.5,75.5 166.5,72.5C 160.986,71.8335 155.319,71.1668 149.5,70.5C 149.624,69.8933 149.957,69.56 150.5,69.5C 155.64,70.4881 160.974,70.8214 166.5,70.5C 166.5,64.1667 166.5,57.8333 166.5,51.5C 166.5,51.1667 166.5,50.8333 166.5,50.5 Z"/></g>
<g><path style="opacity:1" fill="#f5f5f5" d="M 166.5,72.5 C 166.5,75.5 166.5,78.5 166.5,81.5C 161.167,81.5 155.833,81.5 150.5,81.5C 151.786,78.6649 151.786,75.8316 150.5,73C 155.823,72.5006 161.156,72.334 166.5,72.5 Z"/></g>
<g><path style="opacity:1" fill="#808080" d="M 148.5,74.5 C 150.898,75.8823 151.065,77.549 149,79.5C 148.506,77.8659 148.34,76.1992 148.5,74.5 Z"/></g>
<g><path style="opacity:1" fill="#d5d5d5" d="M 180.5,63.5 C 180.833,79.8469 180.499,96.1803 179.5,112.5C 178.893,112.376 178.56,112.043 178.5,111.5C 179.496,97.6766 179.829,83.6766 179.5,69.5C 178.5,69.5 177.5,69.5 176.5,69.5C 177.351,67.1184 178.684,65.1184 180.5,63.5 Z"/></g>
<g><path style="opacity:1" fill="#c8c8c8" d="M 410.5,37.5 C 411.496,52.9911 411.83,68.6578 411.5,84.5C 341.5,84.5 271.5,84.5 201.5,84.5C 201.5,84.1667 201.5,83.8333 201.5,83.5C 271.167,83.5 340.833,83.5 410.5,83.5C 410.5,68.1667 410.5,52.8333 410.5,37.5 Z"/></g>
<g><path style="opacity:1" fill="#fefefe" d="M 201.5,86.5 C 271.167,86.5 340.833,86.5 410.5,86.5C 410.5,87.5 410.5,88.5 410.5,89.5C 340.833,89.5 271.167,89.5 201.5,89.5C 201.5,88.5 201.5,87.5 201.5,86.5 Z"/></g>
<g><path style="opacity:1" fill="#848484" d="M 410.5,86.5 C 411.434,87.5676 411.768,88.901 411.5,90.5C 341.331,90.8325 271.331,90.4992 201.5,89.5C 271.167,89.5 340.833,89.5 410.5,89.5C 410.5,88.5 410.5,87.5 410.5,86.5 Z"/></g>
<g><path style="opacity:1" fill="#1f1f1f" d="M 46.5,7.5 C 77.473,4.22138 98.6397,16.888 110,45.5C 116.167,79.0124 103.334,101.512 71.5,113C 38.5131,118.098 16.6798,104.931 6,73.5C 1.43895,40.2706 14.9389,18.2706 46.5,7.5 Z"/></g>
<g><path style="opacity:1" fill="#f9f9f9" d="M 46.5,9.5 C 73.7265,6.02709 93.5598,16.3604 106,40.5C 114.353,65.4258 108.52,86.2592 88.5,103C 61.7914,118.678 37.9581,115.178 17,92.5C 2.13951,69.4175 3.13951,47.0841 20,25.5C 27.7495,18.2155 36.5828,12.8822 46.5,9.5 Z"/></g>
<g><path style="opacity:1" fill="#202020" d="M 52.5,29.5 C 77.3585,29.524 89.5251,41.8573 89,66.5C 80.8171,89.4512 65.3171,96.6178 42.5,88C 26.8217,76.1173 23.3217,61.284 32,43.5C 37.1173,36.1992 43.9507,31.5326 52.5,29.5 Z"/></g>
<g><path style="opacity:1" fill="#ededed" d="M 52.5,31.5 C 75.0388,31.2088 86.5388,42.2088 87,64.5C 85.049,77.2306 77.8824,85.3973 65.5,89C 47.4966,91.9185 35.6633,84.7519 30,67.5C 27.6393,49.2033 35.1393,37.2033 52.5,31.5 Z"/></g>
<g><path style="opacity:1" fill="#1c1c1c" d="M 50.5,37.5 C 63.3536,35.1803 73.1869,39.5136 80,50.5C 84.4361,65.2196 79.9361,76.0529 66.5,83C 52.5887,86.7917 42.422,82.2917 36,69.5C 31.9075,54.6905 36.7408,44.0238 50.5,37.5 Z"/></g>
<g><path style="opacity:1" fill="#888888" d="M 69.5,77.5 C 71.3786,77.3932 71.7119,77.8932 70.5,79C 63.1074,82.264 62.774,81.764 69.5,77.5 Z"/></g>
<g><path style="opacity:1" fill="#979797" d="M 43.5,77.5 C 43.56,76.9569 43.8933,76.6236 44.5,76.5C 46.8333,78 49.1667,79.5 51.5,81C 48.539,80.6904 45.8723,79.5237 43.5,77.5 Z"/></g>
<g><path style="opacity:1" fill="#9f9f9f" d="M 78.5,54.5 C 80.8693,58.3103 81.036,62.3103 79,66.5C 78.5012,62.5138 78.3345,58.5138 78.5,54.5 Z"/></g>
<g><path style="opacity:1" fill="#9b9b9b" d="M 50.5,39.5 C 52.3786,39.3932 52.7119,39.8932 51.5,41C 41.4739,46.7809 41.1406,46.2809 50.5,39.5 Z"/></g>
<g><path style="opacity:1" fill="#949494" d="M 65.5,41.5 C 68.483,41.1378 71.1496,42.3045 73.5,45C 70.8328,44.1743 68.1661,43.0076 65.5,41.5 Z"/></g>
<g><path style="opacity:1" fill="#fafafa" d="M 56.5,39.5 C 63.2953,42.1482 69.7953,45.4815 76,49.5C 76.8315,57.1883 76.6648,64.855 75.5,72.5C 69.842,75.9119 64.0086,78.9119 58,81.5C 51.5773,78.9547 45.5773,75.6213 40,71.5C 39.3333,64.1667 39.3333,56.8333 40,49.5C 45.9344,46.7006 51.4344,43.3673 56.5,39.5 Z"/></g>
</svg>
