<svg id="splitsvg" version="1.1" xmlns="http://www.w3.org/2000/svg" xmlns:xlink="http://www.w3.org/1999/xlink" width="1380" height="1510"><g id="svgg"><path id="path0" d="M16.206 20.018 L 8.486 27.697 8.521 80.908 C 8.541 110.174,8.838 134.400,9.182 134.744 C 9.526 135.088,16.604 135.242,24.911 135.086 C 44.369 134.721,45.895 135.139,49.073 141.704 C 50.476 144.601,51.465 147.722,51.272 148.639 C 50.990 149.975,55.109 150.429,71.988 150.920 C 83.575 151.258,93.301 151.810,93.601 152.147 C 96.824 155.772,96.933 168.596,96.946 546.238 C 96.959 905.224,97.213 947.914,99.303 941.955 C 99.904 940.241,101.418 941.233,107.345 947.223 L 114.647 954.601 110.391 954.896 C 108.050 955.058,145.613 955.472,193.865 955.816 L 281.595 956.442 291.475 946.894 C 296.909 941.643,301.740 937.732,302.211 938.203 C 302.682 938.674,303.067 762.938,303.067 547.678 C 303.067 211.931,303.315 155.959,304.806 153.915 C 306.373 151.769,308.571 151.473,327.073 150.920 L 347.601 150.307 349.296 144.483 C 351.915 135.488,353.846 134.748,373.841 135.079 L 390.798 135.359 391.117 81.843 L 391.437 28.327 383.168 20.299 L 374.898 12.270 199.412 12.305 L 23.926 12.340 16.206 20.018 M79.023 19.602 C 84.236 20.935,91.778 23.773,95.784 25.908 L 103.067 29.790 103.067 80.539 L 103.067 131.288 57.669 131.288 L 12.270 131.288 12.270 80.539 L 12.270 29.790 19.573 25.897 C 35.814 17.241,59.843 14.696,79.023 19.602 M123.926 21.611 C 114.816 23.992,106.810 26.017,106.135 26.112 C 105.460 26.207,100.782 24.235,95.740 21.731 L 86.572 17.178 113.532 17.231 L 140.491 17.283 123.926 21.611 M249.693 20.188 C 265.060 22.680,275.745 25.110,285.583 28.349 L 293.252 30.875 293.252 81.082 L 293.252 131.288 199.986 131.288 L 106.721 131.288 107.042 80.748 L 107.362 30.207 114.724 27.976 C 148.296 17.801,212.221 14.113,249.693 20.188 M305.304 20.696 C 301.472 22.563,297.587 24.714,296.670 25.476 C 295.408 26.523,292.474 26.125,284.617 23.838 C 278.906 22.176,270.644 20.042,266.258 19.097 C 258.525 17.430,259.105 17.377,285.276 17.339 L 312.270 17.300 305.304 20.696 M369.146 21.180 C 374.109 22.942,380.321 25.806,382.950 27.546 L 387.730 30.710 387.730 80.999 L 387.730 131.288 342.331 131.288 L 296.933 131.288 296.933 80.386 L 296.933 29.483 304.445 25.691 C 322.950 16.350,350.185 14.451,369.146 21.180 M348.466 135.439 C 348.466 135.684,347.340 138.431,345.963 141.544 L 343.459 147.204 199.428 147.193 L 55.397 147.182 54.598 143.544 C 54.159 141.543,53.289 139.590,52.666 139.205 C 45.977 135.071,47.987 135.014,200.000 135.004 C 281.656 134.999,348.466 135.195,348.466 135.439 M300.704 153.205 C 300.031 154.462,299.170 157.255,298.790 159.411 C 298.410 161.568,294.466 172.414,290.024 183.515 L 281.949 203.698 199.741 203.383 L 117.533 203.067 109.133 182.209 C 104.513 170.736,100.706 160.071,100.673 158.508 C 100.640 156.946,100.042 154.599,99.343 153.294 C 98.092 150.956,99.608 150.920,200.000 150.920 C 299.034 150.920,301.892 150.985,300.704 153.205 M109.090 186.830 C 112.526 195.445,115.337 202.761,115.337 203.088 C 115.337 203.414,112.025 203.681,107.975 203.681 L 100.613 203.681 100.651 185.583 C 100.673 174.599,101.112 168.208,101.765 169.325 C 102.358 170.337,105.654 178.215,109.090 186.830 M299.387 185.890 L 299.387 203.681 292.025 203.681 C 283.222 203.681,283.359 204.971,290.322 187.677 C 293.435 179.945,296.458 172.377,297.040 170.859 C 299.017 165.704,299.387 168.073,299.387 185.890 M116.564 571.166 L 116.564 933.742 108.589 933.742 L 100.613 933.742 100.613 571.166 L 100.613 208.589 108.589 208.589 L 116.564 208.589 116.564 571.166 M280.982 571.166 L 280.982 933.742 200.000 933.742 L 119.018 933.742 119.018 571.166 L 119.018 208.589 200.000 208.589 L 280.982 208.589 280.982 571.166 M299.082 570.859 L 298.773 933.129 291.104 933.494 L 283.436 933.859 283.436 571.224 L 283.436 208.589 291.413 208.589 L 299.391 208.589 299.082 570.859 M116.564 943.558 C 116.564 946.933,116.406 949.693,116.212 949.693 C 116.017 949.693,113.139 946.933,109.816 943.558 L 103.773 937.423 110.169 937.423 L 116.564 937.423 116.564 943.558 M280.982 944.785 L 280.982 952.147 200.000 952.147 L 119.018 952.147 119.018 944.785 L 119.018 937.423 200.000 937.423 L 280.982 937.423 280.982 944.785 M295.706 937.776 C 295.706 937.970,292.945 940.848,289.571 944.172 L 283.436 950.214 283.436 943.819 L 283.436 937.423 289.571 937.423 C 292.945 937.423,295.706 937.582,295.706 937.776 M101.366 1171.491 C 102.259 1172.081,95.097 1185.545,80.653 1210.429 C 68.509 1231.350,55.124 1254.540,50.906 1261.963 C 46.689 1269.387,35.415 1288.980,25.853 1305.504 C 11.526 1330.262,8.621 1336.090,9.337 1338.633 C 9.815 1340.329,10.094 1342.822,9.956 1344.172 C 9.772 1345.978,9.998 1346.197,10.811 1345.000 C 11.591 1343.851,19.107 1355.916,36.415 1386.104 C 49.890 1409.606,70.537 1445.520,82.298 1465.915 L 103.681 1502.995 199.868 1502.724 L 296.055 1502.454 318.103 1464.417 C 330.229 1443.497,350.615 1408.160,363.405 1385.890 C 388.055 1342.968,388.873 1341.681,389.101 1345.460 C 389.181 1346.776,389.702 1345.124,390.260 1341.788 L 391.275 1335.724 369.027 1297.003 C 356.791 1275.707,342.051 1250.217,336.273 1240.360 C 330.495 1230.503,319.141 1210.784,311.043 1196.541 L 296.319 1170.644 198.160 1170.617 C 144.172 1170.602,100.615 1170.995,101.366 1171.491 M148.725 1178.551 C 125.604 1186.238,104.645 1198.565,86.186 1215.335 L 78.507 1222.311 92.321 1198.287 L 106.135 1174.264 133.742 1174.309 L 161.350 1174.354 148.725 1178.551 M230.468 1177.369 C 384.039 1208.209,409.786 1417.243,268.169 1483.465 C 140.864 1542.994,2.345 1420.443,45.641 1286.591 C 70.596 1209.443,151.654 1161.543,230.468 1177.369 M306.954 1197.546 C 314.204 1210.031,320.160 1220.730,320.190 1221.322 C 320.221 1221.914,316.057 1218.420,310.939 1213.558 C 294.987 1198.405,272.284 1185.281,249.080 1177.800 L 238.650 1174.437 266.212 1174.642 L 293.773 1174.847 306.954 1197.546 M39.905 1291.718 C 32.509 1310.427,32.238 1361.276,39.433 1380.200 C 40.053 1381.829,40.380 1383.342,40.160 1383.562 C 39.469 1384.253,12.866 1337.227,13.227 1335.955 C 13.809 1333.910,39.576 1289.571,40.183 1289.571 C 40.497 1289.571,40.371 1290.537,39.905 1291.718 M380.023 1324.299 C 385.725 1334.365,386.632 1336.768,385.585 1339.023 C 382.359 1345.967,359.344 1384.298,360.023 1381.595 C 364.535 1363.635,365.014 1359.332,365.010 1336.810 C 365.005 1315.043,363.631 1302.749,359.874 1290.869 C 359.174 1288.655,370.119 1306.815,380.023 1324.299 M318.557 1455.521 C 316.896 1458.390,310.757 1469.018,304.914 1479.141 C 299.071 1489.264,293.880 1497.971,293.378 1498.491 C 292.877 1499.010,280.361 1499.287,265.566 1499.104 L 238.666 1498.773 250.903 1494.733 C 273.999 1487.108,295.306 1474.615,311.694 1459.091 C 316.735 1454.316,321.020 1450.387,321.217 1450.358 C 321.415 1450.330,320.217 1452.653,318.557 1455.521 M107.975 1475.154 C 119.876 1482.965,134.148 1489.845,149.265 1495.058 L 161.350 1499.226 133.752 1498.999 L 106.155 1498.773 92.969 1476.074 C 85.717 1463.589,79.777 1452.906,79.769 1452.333 C 79.761 1451.760,84.034 1455.302,89.264 1460.203 C 94.494 1465.104,102.914 1471.832,107.975 1475.154  M -25 0 L -5 0 L -5 20 L -25 20 Z M 405 0 L 425 0 L 425 20 L 405 20 Z" stroke="none" fill="#000000" fill-rule="evenodd" transform="translate(30,0)"></path></g></svg>