<?xml version="1.0" encoding="UTF-8"?>
<!DOCTYPE svg PUBLIC "-//W3C//DTD SVG 1.1//EN" "http://www.w3.org/Graphics/SVG/1.1/DTD/svg11.dtd">
<svg xmlns="http://www.w3.org/2000/svg" version="1.1" width="491px" height="274px" style="shape-rendering:geometricPrecision; text-rendering:geometricPrecision; image-rendering:optimizeQuality; fill-rule:evenodd; clip-rule:evenodd" xmlns:xlink="http://www.w3.org/1999/xlink">
<g><path style="opacity:1" fill="#fefefe" d="M -0.5,-0.5 C 163.167,-0.5 326.833,-0.5 490.5,-0.5C 490.5,90.8333 490.5,182.167 490.5,273.5C 326.833,273.5 163.167,273.5 -0.5,273.5C -0.5,182.167 -0.5,90.8333 -0.5,-0.5 Z"/></g>
<g><path style="opacity:1" fill="#252424" d="M 122.5,2.5 C 170.17,-1.12213 209.67,14.8779 241,50.5C 272.861,93.0168 278.861,139.017 259,188.5C 231.138,243.287 186.304,269.12 124.5,266C 65.1405,256.64 26.9739,223.14 10,165.5C -0.706898,112.955 13.7931,68.7885 53.5,33C 73.7864,16.7362 96.7864,6.56957 122.5,2.5 Z"/></g>
<g><path style="opacity:1" fill="#fdfdfd" d="M 126.5,4.5 C 180.426,2.21034 221.926,23.5437 251,68.5C 274.915,113.877 274.248,158.877 249,203.5C 218.918,246.789 177.418,266.956 124.5,264C 77.5059,257.087 43.0059,232.587 21,190.5C -3.30276,130.892 7.86391,79.0585 54.5,35C 75.4125,17.3726 99.4125,7.20591 126.5,4.5 Z"/></g>
<g><path style="opacity:1" fill="#252424" d="M 129.5,64.5 C 171.835,63.4113 198.002,83.4113 208,124.5C 209.564,169.223 188.397,195.723 144.5,204C 105.698,204.193 80.8648,185.693 70,148.5C 65.2922,111.411 79.7922,84.9111 113.5,69C 118.874,67.1604 124.207,65.6604 129.5,64.5 Z"/></g>
<g><path style="opacity:1" fill="#fdfdfd" d="M 128.5,66.5 C 170.121,64.881 195.954,84.2143 206,124.5C 208.051,164.443 189.884,189.943 151.5,201C 116.754,205.212 91.5871,191.712 76,160.5C 64.1367,124.421 73.97,95.921 105.5,75C 112.899,71.1052 120.566,68.2719 128.5,66.5 Z"/></g>
<g><path style="opacity:1" fill="#bebcbd" d="M 461.5,2.5 C 461.169,90.5706 461.503,178.571 462.5,266.5C 460.801,266.66 459.134,266.494 457.5,266C 458.448,265.517 459.448,265.351 460.5,265.5C 460.5,244.833 460.5,224.167 460.5,203.5C 455.167,203.167 455.167,202.833 460.5,202.5C 460.5,157.167 460.5,111.833 460.5,66.5C 455.167,66.1667 455.167,65.8333 460.5,65.5C 460.169,44.3267 460.503,23.3267 461.5,2.5 Z"/></g>
<g><path style="opacity:1" fill="#1b1919" d="M 461.5,2.5 C 470.833,2.5 480.167,2.5 489.5,2.5C 489.667,91.1673 489.5,179.834 489,268.5C 480.434,266.546 471.601,265.88 462.5,266.5C 461.503,178.571 461.169,90.5706 461.5,2.5 Z"/></g>
<g><path style="opacity:1" fill="#fefefd" d="M 463.5,66.5 C 471.5,66.5 479.5,66.5 487.5,66.5C 487.5,111.833 487.5,157.167 487.5,202.5C 479.5,202.5 471.5,202.5 463.5,202.5C 463.5,157.167 463.5,111.833 463.5,66.5 Z"/></g>
<g><path style="opacity:1" fill="#5a5957" d="M 487.5,55.5 C 487.5,56.1667 487.5,56.8333 487.5,57.5C 484.833,59.5 482.5,61.8333 480.5,64.5C 479.833,64.5 479.167,64.5 478.5,64.5C 481.167,61.1667 484.167,58.1667 487.5,55.5 Z"/></g>
<g><path style="opacity:1" fill="#fcfbf9" d="M 487.5,57.5 C 487.5,59.8333 487.5,62.1667 487.5,64.5C 485.167,64.5 482.833,64.5 480.5,64.5C 482.5,61.8333 484.833,59.5 487.5,57.5 Z"/></g>
<g><path style="opacity:1" fill="#fbfbfa" d="M 487.5,46.5 C 487.5,49.5 487.5,52.5 487.5,55.5C 484.167,58.1667 481.167,61.1667 478.5,64.5C 475.5,64.5 472.5,64.5 469.5,64.5C 475.167,58.1667 481.167,52.1667 487.5,46.5 Z"/></g>
<g><path style="opacity:1" fill="#595858" d="M 486.5,45.5 C 487.167,45.5 487.5,45.8333 487.5,46.5C 481.167,52.1667 475.167,58.1667 469.5,64.5C 468.833,64.5 468.167,64.5 467.5,64.5C 473.5,57.8333 479.833,51.5 486.5,45.5 Z"/></g>
<g><path style="opacity:1" fill="#fbf9fa" d="M 487.5,35.5 C 487.747,38.9387 487.414,42.272 486.5,45.5C 479.833,51.5 473.5,57.8333 467.5,64.5C 466.167,64.5 464.833,64.5 463.5,64.5C 463.5,62.5 463.5,60.5 463.5,58.5C 471.5,50.8333 479.5,43.1667 487.5,35.5 Z"/></g>
<g><path style="opacity:1" fill="#4d4b4c" d="M 486.5,34.5 C 487.167,34.5 487.5,34.8333 487.5,35.5C 479.5,43.1667 471.5,50.8333 463.5,58.5C 462.213,54.7316 462.213,51.0649 463.5,47.5C 463.335,50.5184 463.502,53.5184 464,56.5C 471.368,48.9642 478.868,41.6308 486.5,34.5 Z"/></g>
<g><path style="opacity:1" fill="#f7f6f6" d="M 487.5,24.5 C 487.747,27.9387 487.414,31.272 486.5,34.5C 478.868,41.6308 471.368,48.9642 464,56.5C 463.502,53.5184 463.335,50.5184 463.5,47.5C 463.5,47.1667 463.5,46.8333 463.5,46.5C 471.78,39.5572 479.78,32.2238 487.5,24.5 Z"/></g>
<g><path style="opacity:1" fill="#6b696a" d="M 486.5,23.5 C 487.167,23.5 487.5,23.8333 487.5,24.5C 479.78,32.2238 471.78,39.5572 463.5,46.5C 462.167,43.5 462.167,40.5 463.5,37.5C 463.336,40.1873 463.503,42.854 464,45.5C 471.368,37.9642 478.868,30.6308 486.5,23.5 Z"/></g>
<g><path style="opacity:1" fill="#686767" d="M 486.5,12.5 C 487.167,12.5 487.5,12.8333 487.5,13.5C 479.78,21.2238 471.78,28.5572 463.5,35.5C 462.167,32.1667 462.167,28.8333 463.5,25.5C 463.335,28.5184 463.502,31.5184 464,34.5C 471.368,26.9642 478.868,19.6308 486.5,12.5 Z"/></g>
<g><path style="opacity:1" fill="#615f5f" d="M 473.5,4.5 C 476.979,3.01 480.312,3.34333 483.5,5.5C 477.444,12.5577 470.778,18.8911 463.5,24.5C 462.167,21.1667 462.167,17.8333 463.5,14.5C 463.335,17.5184 463.502,20.5184 464,23.5C 470.015,17.6521 475.848,11.6521 481.5,5.5C 478.914,4.51998 476.247,4.18665 473.5,4.5 Z"/></g>
<g><path style="opacity:1" fill="#f7f6f7" d="M 487.5,13.5 C 487.747,16.9387 487.414,20.272 486.5,23.5C 478.868,30.6308 471.368,37.9642 464,45.5C 463.503,42.854 463.336,40.1873 463.5,37.5C 463.5,36.8333 463.5,36.1667 463.5,35.5C 471.78,28.5572 479.78,21.2238 487.5,13.5 Z"/></g>
<g><path style="opacity:1" fill="#f7f6f6" d="M 486.5,12.5 C 478.868,19.6308 471.368,26.9642 464,34.5C 463.502,31.5184 463.335,28.5184 463.5,25.5C 463.5,25.1667 463.5,24.8333 463.5,24.5C 470.778,18.8911 477.444,12.5577 483.5,5.5C 484.568,4.56552 485.901,4.23219 487.5,4.5C 487.721,7.27884 487.388,9.94551 486.5,12.5 Z"/></g>
<g><path style="opacity:1" fill="#ebe9ea" d="M 473.5,4.5 C 476.247,4.18665 478.914,4.51998 481.5,5.5C 475.848,11.6521 470.015,17.6521 464,23.5C 463.502,20.5184 463.335,17.5184 463.5,14.5C 463.953,13.5416 464.619,12.7083 465.5,12C 463.709,9.89382 463.042,7.39382 463.5,4.5C 466.187,4.33591 468.854,4.50258 471.5,5C 470.304,5.65431 470.304,6.15431 471.5,6.5C 472.182,5.75731 472.849,5.09065 473.5,4.5 Z"/></g>
<g><path style="opacity:1" fill="#fcfbfa" d="M 472.5,204.5 C 472.833,204.5 473.167,204.5 473.5,204.5C 476.187,204.336 478.854,204.503 481.5,205C 475.667,210.833 469.833,216.667 464,222.5C 463.503,219.854 463.336,217.187 463.5,214.5C 463.5,214.167 463.5,213.833 463.5,213.5C 466.833,210.833 469.833,207.833 472.5,204.5 Z"/></g>
<g><path style="opacity:1" fill="#454442" d="M 472.5,204.5 C 469.833,207.833 466.833,210.833 463.5,213.5C 462.225,210.396 462.225,207.396 463.5,204.5C 466.396,203.225 469.396,203.225 472.5,204.5 Z"/></g>
<g><path style="opacity:1" fill="#f9f8f6" d="M 463.5,204.5 C 465.857,204.337 468.19,204.503 470.5,205C 468.333,207.167 466.167,209.333 464,211.5C 463.503,209.19 463.337,206.857 463.5,204.5 Z"/></g>
<g><path style="opacity:1" fill="#504f4d" d="M 473.5,204.5 C 476.731,203.218 480.064,203.218 483.5,204.5C 477.167,211.5 470.5,218.167 463.5,224.5C 462.218,221.064 462.218,217.731 463.5,214.5C 463.336,217.187 463.503,219.854 464,222.5C 469.833,216.667 475.667,210.833 481.5,205C 478.854,204.503 476.187,204.336 473.5,204.5 Z"/></g>
<g><path style="opacity:1" fill="#fbfafa" d="M 483.5,204.5 C 484.833,204.5 486.167,204.5 487.5,204.5C 487.5,206.5 487.5,208.5 487.5,210.5C 479.535,217.964 471.702,225.631 464,233.5C 463.503,230.854 463.336,228.187 463.5,225.5C 463.5,225.167 463.5,224.833 463.5,224.5C 470.5,218.167 477.167,211.5 483.5,204.5 Z"/></g>
<g><path style="opacity:1" fill="#504e4f" d="M 487.5,210.5 C 487.5,211.167 487.5,211.833 487.5,212.5C 479.833,219.833 472.167,227.167 464.5,234.5C 463.235,233.486 462.569,231.986 462.5,230C 462.508,228.293 462.842,226.793 463.5,225.5C 463.336,228.187 463.503,230.854 464,233.5C 471.702,225.631 479.535,217.964 487.5,210.5 Z"/></g>
<g><path style="opacity:1" fill="#fbf9fa" d="M 487.5,212.5 C 487.5,215.5 487.5,218.5 487.5,221.5C 479.535,228.964 471.702,236.631 464,244.5C 463.503,241.854 463.336,239.187 463.5,236.5C 463.833,235.833 464.167,235.167 464.5,234.5C 472.167,227.167 479.833,219.833 487.5,212.5 Z"/></g>
<g><path style="opacity:1" fill="#3e3c3c" d="M 487.5,221.5 C 487.5,222.167 487.5,222.833 487.5,223.5C 479.833,230.833 472.167,238.167 464.5,245.5C 463.235,244.486 462.569,242.986 462.5,241C 462.508,239.293 462.842,237.793 463.5,236.5C 463.336,239.187 463.503,241.854 464,244.5C 471.702,236.631 479.535,228.964 487.5,221.5 Z"/></g>
<g><path style="opacity:1" fill="#e6e5e5" d="M 487.5,223.5 C 487.754,234.584 487.42,245.584 486.5,256.5C 483.833,258.5 481.5,260.833 479.5,263.5C 474.096,264.211 468.762,264.544 463.5,264.5C 463.651,258.231 463.984,251.898 464.5,245.5C 472.167,238.167 479.833,230.833 487.5,223.5 Z"/></g>
<g><path style="opacity:1" fill="#fdfcfa" d="M 487.5,257.5 C 487.5,259.833 487.5,262.167 487.5,264.5C 485.167,264.5 482.833,264.5 480.5,264.5C 482.5,261.833 484.833,259.5 487.5,257.5 Z"/></g>
<g><path style="opacity:1" fill="#6a6968" d="M 486.5,256.5 C 487.167,256.5 487.5,256.833 487.5,257.5C 484.833,259.5 482.5,261.833 480.5,264.5C 479.833,264.5 479.5,264.167 479.5,263.5C 481.5,260.833 483.833,258.5 486.5,256.5 Z"/></g>
</svg>
