<?xml version="1.0" encoding="UTF-8"?>
<!DOCTYPE svg PUBLIC "-//W3C//DTD SVG 1.1//EN" "http://www.w3.org/Graphics/SVG/1.1/DTD/svg11.dtd">
<svg xmlns="http://www.w3.org/2000/svg" version="1.1" width="535px" height="256px" style="shape-rendering:geometricPrecision; text-rendering:geometricPrecision; image-rendering:optimizeQuality; fill-rule:evenodd; clip-rule:evenodd" xmlns:xlink="http://www.w3.org/1999/xlink">
<g><path style="opacity:1" fill="#fefefe" d="M -0.5,-0.5 C 177.833,-0.5 356.167,-0.5 534.5,-0.5C 534.5,84.8333 534.5,170.167 534.5,255.5C 356.167,255.5 177.833,255.5 -0.5,255.5C -0.5,170.167 -0.5,84.8333 -0.5,-0.5 Z"/></g>
<g><path style="opacity:1" fill="#f5f5f5" d="M 155.5,41.5 C 154.791,42.404 153.791,42.7373 152.5,42.5C 149.833,42.5 147.167,42.5 144.5,42.5C 142.72,35.2076 138.72,29.3743 132.5,25C 109.584,13.3621 92.2509,18.8621 80.5,41.5C 78.2573,42.4742 75.924,42.8076 73.5,42.5C 72.209,42.7373 71.209,42.404 70.5,41.5C 77.1884,21.8038 90.8551,11.1371 111.5,9.5C 133.392,10.4285 148.059,21.0952 155.5,41.5 Z"/></g>
<g><path style="opacity:1" fill="#242424" d="M 156.5,40.5 C 156.5,40.8333 156.5,41.1667 156.5,41.5C 156.167,41.5 155.833,41.5 155.5,41.5C 148.059,21.0952 133.392,10.4285 111.5,9.5C 90.8551,11.1371 77.1884,21.8038 70.5,41.5C 60.4936,41.6769 50.4936,42.0102 40.5,42.5C 41.8822,41.7227 43.8822,41.056 46.5,40.5C 54.1793,40.4038 61.846,40.0705 69.5,39.5C 76.2638,19.4098 90.2638,8.74312 111.5,7.5C 134.186,8.2048 149.186,19.2048 156.5,40.5 Z"/></g>
<g><path style="opacity:1" fill="#242323" d="M 152.5,42.5 C 158.31,43.4896 164.31,43.8229 170.5,43.5C 180.658,44.6585 190.992,44.8252 201.5,44C 196.233,42.809 190.899,42.309 185.5,42.5C 175.839,42.042 166.172,41.7087 156.5,41.5C 156.5,41.1667 156.5,40.8333 156.5,40.5C 177.198,40.3485 197.864,41.0152 218.5,42.5C 218.351,41.448 218.517,40.448 219,39.5C 220.713,47.3469 220.879,55.1802 219.5,63C 198.522,64.6259 177.522,65.9592 156.5,67C 146.809,90.6458 129.142,100.979 103.5,98C 86.3311,93.6161 74.9977,83.1161 69.5,66.5C 48.4587,65.9985 27.4587,64.8318 6.5,63C 5.52364,56.9242 5.19031,50.7576 5.5,44.5C 6.16667,49.8333 6.83333,55.1667 7.5,60.5C 30.9712,60.2327 54.6378,60.566 78.5,61.5C 78.5,55.8333 78.5,50.1667 78.5,44.5C 58.1828,45.3991 37.8494,45.7324 17.5,45.5C 14.6946,44.6805 11.6946,44.1805 8.5,44C 9.05596,43.6174 9.38929,43.1174 9.5,42.5C 16.8088,41.7516 24.1422,41.4183 31.5,41.5C 29.5242,43.0109 27.1909,43.8442 24.5,44C 35.0083,44.8252 45.3416,44.6585 55.5,43.5C 61.69,43.8229 67.69,43.4896 73.5,42.5C 75.924,42.8076 78.2573,42.4742 80.5,41.5C 92.2509,18.8621 109.584,13.3621 132.5,25C 138.72,29.3743 142.72,35.2076 144.5,42.5C 147.167,42.5 149.833,42.5 152.5,42.5 Z"/></g>
<g><path style="opacity:1" fill="#fcfcfc" d="M 105.5,21.5 C 124.261,19.4565 137.094,27.1232 144,44.5C 146.369,71.7971 133.869,85.2971 106.5,85C 87.8611,78.8904 79.3611,66.057 81,46.5C 84.7182,33.6166 92.8848,25.2833 105.5,21.5 Z"/></g>
<g><path style="opacity:1" fill="#444140" d="M 46.5,40.5 C 43.8822,41.056 41.8822,41.7227 40.5,42.5C 45.3054,43.4872 50.3054,43.8205 55.5,43.5C 45.3416,44.6585 35.0083,44.8252 24.5,44C 27.1909,43.8442 29.5242,43.0109 31.5,41.5C 36.453,40.6708 41.453,40.3375 46.5,40.5 Z"/></g>
<g><path style="opacity:1" fill="#999896" d="M 70.5,41.5 C 71.209,42.404 72.209,42.7373 73.5,42.5C 67.69,43.4896 61.69,43.8229 55.5,43.5C 50.3054,43.8205 45.3054,43.4872 40.5,42.5C 50.4936,42.0102 60.4936,41.6769 70.5,41.5 Z"/></g>
<g><path style="opacity:1" fill="#9c9a98" d="M 155.5,41.5 C 155.833,41.5 156.167,41.5 156.5,41.5C 166.172,41.7087 175.839,42.042 185.5,42.5C 180.695,43.4872 175.695,43.8205 170.5,43.5C 164.31,43.8229 158.31,43.4896 152.5,42.5C 153.791,42.7373 154.791,42.404 155.5,41.5 Z"/></g>
<g><path style="opacity:1" fill="#555452" d="M 185.5,42.5 C 190.899,42.309 196.233,42.809 201.5,44C 190.992,44.8252 180.658,44.6585 170.5,43.5C 175.695,43.8205 180.695,43.4872 185.5,42.5 Z"/></g>
<g><path style="opacity:1" fill="#fafaf9" d="M 7.5,60.5 C 7.5,55.5 7.5,50.5 7.5,45.5C 10.8333,45.5 14.1667,45.5 17.5,45.5C 37.8494,45.7324 58.1828,45.3991 78.5,44.5C 78.5,50.1667 78.5,55.8333 78.5,61.5C 54.6378,60.566 30.9712,60.2327 7.5,60.5 Z"/></g>
<g><path style="opacity:1" fill="#f7f7f6" d="M 146.5,44.5 C 170.505,45.7984 194.505,45.7984 218.5,44.5C 218.5,50.1667 218.5,55.8333 218.5,61.5C 194.516,60.3044 170.516,60.3044 146.5,61.5C 146.5,55.8333 146.5,50.1667 146.5,44.5 Z"/></g>
<g><path style="opacity:1" fill="#4e4c4c" d="M 9.5,42.5 C 9.38929,43.1174 9.05596,43.6174 8.5,44C 11.6946,44.1805 14.6946,44.6805 17.5,45.5C 14.1667,45.5 10.8333,45.5 7.5,45.5C 7.5,50.5 7.5,55.5 7.5,60.5C 6.83333,55.1667 6.16667,49.8333 5.5,44.5C 5.33982,42.8008 5.50649,41.1341 6,39.5C 6.48278,40.448 6.64945,41.448 6.5,42.5C 7.5,42.5 8.5,42.5 9.5,42.5 Z"/></g>
<g><path style="opacity:1" fill="#565452" d="M 174.5,62.5 C 182.343,61.1796 190.343,61.1796 198.5,62.5C 195.232,63.487 191.898,63.8204 188.5,63.5C 184.03,62.5139 179.363,62.1805 174.5,62.5 Z"/></g>
<g><path style="opacity:1" fill="#585654" d="M 51.5,62.5 C 46.6367,62.1805 41.97,62.5139 37.5,63.5C 34.1016,63.8204 30.7683,63.487 27.5,62.5C 35.6572,61.1796 43.6572,61.1796 51.5,62.5 Z"/></g>
<g><path style="opacity:1" fill="#999896" d="M 37.5,63.5 C 41.97,62.5139 46.6367,62.1805 51.5,62.5C 58.3543,62.176 65.021,62.5093 71.5,63.5C 69.5853,63.2155 67.9187,63.5489 66.5,64.5C 56.8251,64.3622 47.1584,64.0289 37.5,63.5 Z"/></g>
<g><path style="opacity:1" fill="#f5f5f5" d="M 66.5,64.5 C 67.9187,63.5489 69.5853,63.2155 71.5,63.5C 74.5719,63.1826 77.5719,63.5159 80.5,64.5C 91.1099,85.8044 107.443,91.971 129.5,83C 137.179,78.6433 142.512,72.31 145.5,64C 148.146,63.5026 150.813,63.3359 153.5,63.5C 155.415,63.2155 157.081,63.5489 158.5,64.5C 157.167,64.5 155.833,64.5 154.5,64.5C 148.135,85.4411 133.968,96.1077 112,96.5C 91.4287,95.2581 77.762,84.9248 71,65.5C 69.6439,64.6198 68.1439,64.2865 66.5,64.5 Z"/></g>
<g><path style="opacity:1" fill="#9a9796" d="M 153.5,63.5 C 160.313,62.5088 167.313,62.1755 174.5,62.5C 179.363,62.1805 184.03,62.5139 188.5,63.5C 178.506,63.9898 168.506,64.3231 158.5,64.5C 157.081,63.5489 155.415,63.2155 153.5,63.5 Z"/></g>
<g><path style="opacity:1" fill="#fcfcfc" d="M 157.5,235.5 C 153.964,224.225 150.631,212.892 147.5,201.5C 156.567,181.531 167.567,162.698 180.5,145C 198.265,142.795 210.432,149.962 217,166.5C 217.163,171.204 215.83,175.537 213,179.5C 199.002,202.664 180.502,221.331 157.5,235.5 Z"/></g>
<g><path style="opacity:1" fill="#201f1f" d="M 412.5,240.5 C 384.5,240.5 356.5,240.5 328.5,240.5C 328.5,239.833 328.833,239.5 329.5,239.5C 332.385,239.806 335.052,239.473 337.5,238.5C 337.833,238.5 338.167,238.5 338.5,238.5C 341.604,239.775 344.604,239.775 347.5,238.5C 348.167,238.5 348.5,238.167 348.5,237.5C 349.458,237.047 350.292,236.381 351,235.5C 351.801,232.633 351.634,229.966 350.5,227.5C 350.5,226.833 350.5,226.167 350.5,225.5C 351.156,224.378 351.489,223.045 351.5,221.5C 351.415,219.667 350.748,218.334 349.5,217.5C 349.833,216.833 350.167,216.167 350.5,215.5C 351.491,212.142 351.491,208.975 350.5,206C 349.627,204.955 348.627,204.122 347.5,203.5C 347.5,203.167 347.5,202.833 347.5,202.5C 347.5,202.167 347.5,201.833 347.5,201.5C 351.167,201.5 354.833,201.5 358.5,201.5C 359.414,179.508 360.414,157.508 361.5,135.5C 367.5,135.5 373.5,135.5 379.5,135.5C 380.365,156.826 381.199,178.159 382,199.5C 389.811,201.154 397.811,202.154 406,202.5C 409.291,213.949 412.458,225.449 415.5,237C 415.022,238.642 414.022,239.809 412.5,240.5 Z"/></g>
<g><path style="opacity:1" fill="#fbfbfb" d="M 379.5,187.5 C 379.5,191.833 379.5,196.167 379.5,200.5C 373.5,200.5 367.5,200.5 361.5,200.5C 361.5,195.5 361.5,190.5 361.5,185.5C 362.087,169.496 362.754,153.496 363.5,137.5C 368.167,137.5 372.833,137.5 377.5,137.5C 378.193,154.165 378.86,170.832 379.5,187.5 Z"/></g>
<g><path style="opacity:1" fill="#3c3b3b" d="M 82.5,201.5 C 103.167,202.167 123.833,202.833 144.5,203.5C 123.164,203.333 101.831,203.5 80.5,204C 76.4757,214.297 73.1423,224.797 70.5,235.5C 70.5,235.833 70.5,236.167 70.5,236.5C 98.3363,237.167 126.336,237.833 154.5,238.5C 126.839,239.333 99.1727,239.833 71.5,240C 99.498,240.5 127.498,240.667 155.5,240.5C 127.336,241.664 99.003,241.83 70.5,241C 47,225.5 27.5,206 12,182.5C 10.3333,179.167 8.66667,175.833 7,172.5C 7.97298,157.497 15.8063,147.663 30.5,143C 35.5,142.333 40.5,142.333 45.5,143C 59.0565,160.753 70.3898,179.92 79.5,200.5C 80.325,201.386 81.325,201.719 82.5,201.5 Z"/></g>
<g><path style="opacity:1" fill="#fcfcfc" d="M 30.5,144.5 C 35.1785,144.334 39.8452,144.501 44.5,145C 58.2452,162.975 69.5785,182.475 78.5,203.5C 74.8338,214.165 71.1672,224.832 67.5,235.5C 41.592,218.923 21.592,196.923 7.5,169.5C 11.3971,157.606 19.0638,149.273 30.5,144.5 Z"/></g>
<g><path style="opacity:1" fill="#252525" d="M 158.5,237.5 C 158.167,236.833 157.833,236.167 157.5,235.5C 180.502,221.331 199.002,202.664 213,179.5C 215.83,175.537 217.163,171.204 217,166.5C 210.432,149.962 198.265,142.795 180.5,145C 167.567,162.698 156.567,181.531 147.5,201.5C 147.5,200.833 147.167,200.5 146.5,200.5C 155.314,180.034 166.314,160.867 179.5,143C 198.589,140.29 211.756,147.79 219,165.5C 219.509,170.975 218.176,175.975 215,180.5C 200.669,203.998 181.835,222.998 158.5,237.5 Z"/></g>
<g><path style="opacity:1" fill="#a6a6a4" d="M 361.5,185.5 C 361.5,190.5 361.5,195.5 361.5,200.5C 367.5,200.5 373.5,200.5 379.5,200.5C 379.5,196.167 379.5,191.833 379.5,187.5C 380.486,191.97 380.819,196.637 380.5,201.5C 373.833,201.5 367.167,201.5 360.5,201.5C 360.179,195.974 360.512,190.64 361.5,185.5 Z"/></g>
<g><path style="opacity:1" fill="#4e4c4a" d="M 389.5,204.5 C 376.833,203.167 364.167,203.167 351.5,204.5C 350.957,204.44 350.624,204.107 350.5,203.5C 363.833,202.167 377.167,202.167 390.5,203.5C 390.376,204.107 390.043,204.44 389.5,204.5 Z"/></g>
<g><path style="opacity:1" fill="#595959" d="M 450.5,203.5 C 457.648,202.508 464.981,202.175 472.5,202.5C 472.81,205.713 472.477,208.713 471.5,211.5C 471.5,208.833 471.5,206.167 471.5,203.5C 464.5,203.5 457.5,203.5 450.5,203.5 Z"/></g>
<g><path style="opacity:1" fill="#fdfdfd" d="M 144.5,203.5 C 148.804,213.079 152.138,223.079 154.5,233.5C 126.853,235.492 98.8533,236.158 70.5,235.5C 73.1423,224.797 76.4757,214.297 80.5,204C 101.831,203.5 123.164,203.333 144.5,203.5 Z"/></g>
<g><path style="opacity:1" fill="#f0f0ef" d="M 347.5,202.5 C 347.5,202.833 347.5,203.167 347.5,203.5C 347.662,205.527 347.495,207.527 347,209.5C 341.969,215.068 336.803,219.735 331.5,223.5C 332.225,219.252 333.559,215.252 335.5,211.5C 338.631,208.871 341.631,206.038 344.5,203C 345.448,202.517 346.448,202.351 347.5,202.5 Z"/></g>
<g><path style="opacity:1" fill="#fcfcfc" d="M 450.5,203.5 C 457.5,203.5 464.5,203.5 471.5,203.5C 471.5,206.167 471.5,208.833 471.5,211.5C 471.5,217.833 471.5,224.167 471.5,230.5C 470.549,231.919 470.216,233.585 470.5,235.5C 460.833,235.5 451.167,235.5 441.5,235.5C 444.042,225.452 446.709,215.452 449.5,205.5C 449.328,204.508 449.662,203.842 450.5,203.5 Z"/></g>
<g><path style="opacity:1" fill="#afacab" d="M 351.5,204.5 C 364.167,203.167 376.833,203.167 389.5,204.5C 376.833,205.833 364.167,205.833 351.5,204.5 Z"/></g>
<g><path style="opacity:1" fill="#e6e5e5" d="M 402.5,203.5 C 403.496,203.414 404.329,203.748 405,204.5C 405.758,206.769 405.591,208.936 404.5,211C 405.416,211.374 406.25,211.874 407,212.5C 407.495,214.473 407.662,216.473 407.5,218.5C 402.869,222.63 398.369,226.963 394,231.5C 394.667,225.167 394.667,218.833 394,212.5C 397.038,209.631 399.871,206.631 402.5,203.5 Z"/></g>
<g><path style="opacity:1" fill="#868382" d="M 387.5,207.5 C 376.167,207.5 364.833,207.5 353.5,207.5C 353.5,216.5 353.5,225.5 353.5,234.5C 353.5,234.833 353.5,235.167 353.5,235.5C 352.506,226.014 352.173,216.348 352.5,206.5C 364.345,206.172 376.012,206.505 387.5,207.5 Z"/></g>
<g><path style="opacity:1" fill="#fefefe" d="M 387.5,207.5 C 387.5,216.5 387.5,225.5 387.5,234.5C 376.167,234.5 364.833,234.5 353.5,234.5C 353.5,225.5 353.5,216.5 353.5,207.5C 364.833,207.5 376.167,207.5 387.5,207.5 Z"/></g>
<g><path style="opacity:1" fill="#bfbdba" d="M 392.5,204.5 C 392.664,207.187 392.497,209.854 392,212.5C 391.292,213.381 390.458,214.047 389.5,214.5C 389.336,211.813 389.503,209.146 390,206.5C 390.708,205.619 391.542,204.953 392.5,204.5 Z"/></g>
<g><path style="opacity:1" fill="#f9f8f7" d="M 329.5,237.5 C 328.503,237.53 327.836,237.03 327.5,236C 328.014,232.389 329.347,229.222 331.5,226.5C 336.798,221.703 341.965,216.703 347,211.5C 347.667,214.167 347.667,216.833 347,219.5C 340.964,225.369 335.13,231.369 329.5,237.5 Z"/></g>
<g><path style="opacity:1" fill="#d0cecf" d="M 350.5,215.5 C 350.167,216.167 349.833,216.833 349.5,217.5C 348.197,214.645 348.197,211.645 349.5,208.5C 350.474,210.743 350.808,213.076 350.5,215.5 Z"/></g>
<g><path style="opacity:1" fill="#201f1f" d="M 528.5,235.5 C 528.703,237.39 528.037,238.89 526.5,240C 499.835,240.5 473.169,240.667 446.5,240.5C 454.99,239.67 463.657,239.17 472.5,239C 464.153,237.863 455.819,237.03 447.5,236.5C 455.5,236.5 463.5,236.5 471.5,236.5C 471.5,234.5 471.5,232.5 471.5,230.5C 471.5,224.167 471.5,217.833 471.5,211.5C 472.477,208.713 472.81,205.713 472.5,202.5C 464.981,202.175 457.648,202.508 450.5,203.5C 449.662,203.842 449.328,204.508 449.5,205.5C 448.596,204.791 448.263,203.791 448.5,202.5C 456.316,201.508 464.316,201.174 472.5,201.5C 473.267,179.834 474.1,158.167 475,136.5C 483.147,135.208 489.314,135.208 493.5,136.5C 493.676,158.183 494.343,179.85 495.5,201.5C 503.752,201.184 511.919,201.518 520,202.5C 522.995,213.48 525.828,224.48 528.5,235.5 Z"/></g>
<g><path style="opacity:1" fill="#fcfcfc" d="M 517.5,203.5 C 520.483,214.091 523.483,224.758 526.5,235.5C 516.833,235.5 507.167,235.5 497.5,235.5C 497.795,233.265 497.461,231.265 496.5,229.5C 496.5,225.167 496.5,220.833 496.5,216.5C 496.5,212.167 496.5,207.833 496.5,203.5C 503.5,203.5 510.5,203.5 517.5,203.5 Z"/></g>
<g><path style="opacity:1" fill="#535353" d="M 517.5,203.5 C 510.5,203.5 503.5,203.5 496.5,203.5C 496.5,207.833 496.5,212.167 496.5,216.5C 495.514,212.03 495.181,207.363 495.5,202.5C 503.019,202.175 510.352,202.508 517.5,203.5 Z"/></g>
<g><path style="opacity:1" fill="#fbfbfa" d="M 494.5,223.5 C 494.5,228.167 494.5,232.833 494.5,237.5C 492.901,237.232 491.568,237.566 490.5,238.5C 485.103,238.785 479.77,238.451 474.5,237.5C 474.167,233.167 473.833,228.833 473.5,224.5C 474.736,195.506 475.736,166.506 476.5,137.5C 481.5,137.5 486.5,137.5 491.5,137.5C 492.234,166.177 493.234,194.843 494.5,223.5 Z"/></g>
<g><path style="opacity:1" fill="#302e2d" d="M 347.5,201.5 C 347.5,201.833 347.5,202.167 347.5,202.5C 346.448,202.351 345.448,202.517 344.5,203C 341.631,206.038 338.631,208.871 335.5,211.5C 333.559,215.252 332.225,219.252 331.5,223.5C 330.375,224.348 330.375,225.348 331.5,226.5C 329.347,229.222 328.014,232.389 327.5,236C 327.836,237.03 328.503,237.53 329.5,237.5C 329.5,238.167 329.5,238.833 329.5,239.5C 328.833,239.5 328.5,239.833 328.5,240.5C 326.801,240.66 325.134,240.494 323.5,240C 324.5,239.667 325.5,239.333 326.5,239C 325.424,237.274 325.257,235.441 326,233.5C 328.625,225.25 330.958,216.917 333,208.5C 334.039,206.254 335.206,204.087 336.5,202C 340.152,201.501 343.818,201.335 347.5,201.5 Z"/></g>
<g><path style="opacity:1" fill="#e7e6e5" d="M 335.5,211.5 C 334.903,211.265 334.57,210.765 334.5,210C 335.472,207.889 336.305,205.722 337,203.5C 338.726,202.424 340.559,202.257 342.5,203C 339.553,205.436 337.22,208.269 335.5,211.5 Z"/></g>
<g><path style="opacity:1" fill="#d0cfce" d="M 350.5,225.5 C 350.5,226.167 350.5,226.833 350.5,227.5C 349.252,226.666 348.585,225.333 348.5,223.5C 348.436,221.611 348.936,219.944 350,218.5C 350.497,220.81 350.663,223.143 350.5,225.5 Z"/></g>
<g><path style="opacity:1" fill="#fafaf8" d="M 408.5,219.5 C 408.971,221.579 409.637,223.579 410.5,225.5C 406.036,229.463 401.702,233.63 397.5,238C 396.207,238.49 394.873,238.657 393.5,238.5C 393.201,236.396 393.534,234.396 394.5,232.5C 399.187,228.145 403.854,223.812 408.5,219.5 Z"/></g>
<g><path style="opacity:1" fill="#5d5c5b" d="M 347.5,203.5 C 348.627,204.122 349.627,204.955 350.5,206C 351.491,208.975 351.491,212.142 350.5,215.5C 350.808,213.076 350.474,210.743 349.5,208.5C 348.197,211.645 348.197,214.645 349.5,217.5C 350.748,218.334 351.415,219.667 351.5,221.5C 351.489,223.045 351.156,224.378 350.5,225.5C 350.663,223.143 350.497,220.81 350,218.5C 348.936,219.944 348.436,221.611 348.5,223.5C 348.585,225.333 349.252,226.666 350.5,227.5C 348.701,230.505 348.034,233.838 348.5,237.5C 348.5,238.167 348.167,238.5 347.5,238.5C 344.604,239.775 341.604,239.775 338.5,238.5C 341.129,235.369 343.962,232.369 347,229.5C 347.667,226.833 347.667,224.167 347,221.5C 341.5,227 336,232.5 330.5,238C 332.81,238.497 335.143,238.663 337.5,238.5C 335.052,239.473 332.385,239.806 329.5,239.5C 329.5,238.833 329.5,238.167 329.5,237.5C 335.13,231.369 340.964,225.369 347,219.5C 347.667,216.833 347.667,214.167 347,211.5C 341.965,216.703 336.798,221.703 331.5,226.5C 330.375,225.348 330.375,224.348 331.5,223.5C 336.803,219.735 341.969,215.068 347,209.5C 347.495,207.527 347.662,205.527 347.5,203.5 Z"/></g>
<g><path style="opacity:1" fill="#fcfcfb" d="M 338.5,238.5 C 338.167,238.5 337.833,238.5 337.5,238.5C 335.143,238.663 332.81,238.497 330.5,238C 336,232.5 341.5,227 347,221.5C 347.667,224.167 347.667,226.833 347,229.5C 343.962,232.369 341.129,235.369 338.5,238.5 Z"/></g>
<g><path style="opacity:1" fill="#565452" d="M 402.5,203.5 C 399.871,206.631 397.038,209.631 394,212.5C 394.667,218.833 394.667,225.167 394,231.5C 398.369,226.963 402.869,222.63 407.5,218.5C 408.167,218.5 408.5,218.833 408.5,219.5C 403.854,223.812 399.187,228.145 394.5,232.5C 393.534,234.396 393.201,236.396 393.5,238.5C 391.926,238.063 390.759,237.063 390,235.5C 389.195,232.304 389.362,229.304 390.5,226.5C 390.336,229.187 390.503,231.854 391,234.5C 392.57,231.367 392.903,228.033 392,224.5C 391.617,225.056 391.117,225.389 390.5,225.5C 389.518,222.038 389.185,218.371 389.5,214.5C 390.458,214.047 391.292,213.381 392,212.5C 392.497,209.854 392.664,207.187 392.5,204.5C 392.5,203.833 392.833,203.5 393.5,203.5C 396.396,202.225 399.396,202.225 402.5,203.5 Z"/></g>
<g><path style="opacity:1" fill="#d1cecb" d="M 391.5,214.5 C 392.803,217.355 392.803,220.355 391.5,223.5C 390.259,220.463 390.259,217.463 391.5,214.5 Z"/></g>
<g><path style="opacity:1" fill="#f9f9f7" d="M 393.5,203.5 C 395.857,203.337 398.19,203.503 400.5,204C 398.333,206.167 396.167,208.333 394,210.5C 393.503,208.19 393.337,205.857 393.5,203.5 Z"/></g>
<g><path style="opacity:1" fill="#eae9e7" d="M 411.5,227.5 C 412.45,230.068 412.45,232.568 411.5,235C 413.932,237.011 413.432,238.511 410,239.5C 409.098,239.257 408.265,238.923 407.5,238.5C 404.813,238.664 402.146,238.497 399.5,238C 403.095,233.896 407.095,230.396 411.5,227.5 Z"/></g>
<g><path style="opacity:1" fill="#d0cfcc" d="M 390.5,226.5 C 390.5,226.167 390.5,225.833 390.5,225.5C 391.117,225.389 391.617,225.056 392,224.5C 392.903,228.033 392.57,231.367 391,234.5C 390.503,231.854 390.336,229.187 390.5,226.5 Z"/></g>
<g><path style="opacity:1" fill="#4c4b4a" d="M 410.5,225.5 C 410.833,226.167 411.167,226.833 411.5,227.5C 407.095,230.396 403.095,233.896 399.5,238C 402.146,238.497 404.813,238.664 407.5,238.5C 402.833,239.833 398.167,239.833 393.5,238.5C 394.873,238.657 396.207,238.49 397.5,238C 401.702,233.63 406.036,229.463 410.5,225.5 Z"/></g>
<g><path style="opacity:1" fill="#f3f3f1" d="M 347.5,238.5 C 345.143,238.663 342.81,238.497 340.5,238C 342.667,235.833 344.833,233.667 347,231.5C 347.497,233.81 347.663,236.143 347.5,238.5 Z"/></g>
<g><path style="opacity:1" fill="#bebdbb" d="M 350.5,227.5 C 351.634,229.966 351.801,232.633 351,235.5C 350.292,236.381 349.458,237.047 348.5,237.5C 348.034,233.838 348.701,230.505 350.5,227.5 Z"/></g>
<g><path style="opacity:1" fill="#adacaa" d="M 387.5,207.5 C 388.494,216.652 388.827,225.985 388.5,235.5C 376.833,235.5 365.167,235.5 353.5,235.5C 353.5,235.167 353.5,234.833 353.5,234.5C 364.833,234.5 376.167,234.5 387.5,234.5C 387.5,225.5 387.5,216.5 387.5,207.5 Z"/></g>
<g><path style="opacity:1" fill="#3d3b3b" d="M 448.5,202.5 C 448.263,203.791 448.596,204.791 449.5,205.5C 446.709,215.452 444.042,225.452 441.5,235.5C 443.265,236.461 445.265,236.795 447.5,236.5C 455.819,237.03 464.153,237.863 472.5,239C 463.657,239.17 454.99,239.67 446.5,240.5C 444.833,240.5 443.167,240.5 441.5,240.5C 440.175,239.047 439.342,239.381 439,241.5C 438.333,239.5 438.333,237.5 439,235.5C 442.116,224.375 445.283,213.375 448.5,202.5 Z"/></g>
<g><path style="opacity:1" fill="#c0bfbd" d="M 154.5,233.5 C 155.404,234.209 155.737,235.209 155.5,236.5C 127.167,236.5 98.8333,236.5 70.5,236.5C 70.5,236.167 70.5,235.833 70.5,235.5C 98.8533,236.158 126.853,235.492 154.5,233.5 Z"/></g>
<g><path style="opacity:1" fill="#b8b6b5" d="M 471.5,230.5 C 471.5,232.5 471.5,234.5 471.5,236.5C 463.5,236.5 455.5,236.5 447.5,236.5C 445.265,236.795 443.265,236.461 441.5,235.5C 451.167,235.5 460.833,235.5 470.5,235.5C 470.216,233.585 470.549,231.919 471.5,230.5 Z"/></g>
<g><path style="opacity:1" fill="#bbbab7" d="M 496.5,229.5 C 497.461,231.265 497.795,233.265 497.5,235.5C 507.167,235.5 516.833,235.5 526.5,235.5C 516.681,236.494 506.681,236.827 496.5,236.5C 496.5,234.167 496.5,231.833 496.5,229.5 Z"/></g>
<g><path style="opacity:1" fill="#5c5858" d="M 494.5,223.5 C 495.167,227.833 495.833,232.167 496.5,236.5C 506.008,237.167 515.675,237.833 525.5,238.5C 513.822,239.747 502.155,239.747 490.5,238.5C 491.568,237.566 492.901,237.232 494.5,237.5C 494.5,232.833 494.5,228.167 494.5,223.5 Z"/></g>
<g><path style="opacity:1" fill="#aaa9a8" d="M 351.5,237.5 C 364.659,237.02 377.659,237.52 390.5,239C 377.167,239.667 363.833,239.667 350.5,239C 351.056,238.617 351.389,238.117 351.5,237.5 Z"/></g>
<g><path style="opacity:1" fill="#151213" d="M 146.5,200.5 C 147.167,200.5 147.5,200.833 147.5,201.5C 150.631,212.892 153.964,224.225 157.5,235.5C 157.833,236.167 158.167,236.833 158.5,237.5C 157.167,238.167 156.167,239.167 155.5,240.5C 127.498,240.667 99.498,240.5 71.5,240C 99.1727,239.833 126.839,239.333 154.5,238.5C 126.336,237.833 98.3363,237.167 70.5,236.5C 98.8333,236.5 127.167,236.5 155.5,236.5C 155.737,235.209 155.404,234.209 154.5,233.5C 152.138,223.079 148.804,213.079 144.5,203.5C 123.833,202.833 103.167,202.167 82.5,201.5C 104.007,201.831 125.34,201.497 146.5,200.5 Z"/></g>
<g><path style="opacity:1" fill="#848283" d="M 328.5,240.5 C 356.5,240.5 384.5,240.5 412.5,240.5C 406.355,241.49 400.022,241.823 393.5,241.5C 393.167,245.5 392.833,245.5 392.5,241.5C 377.833,241.5 363.167,241.5 348.5,241.5C 348.167,245.5 347.833,245.5 347.5,241.5C 340.978,241.823 334.645,241.49 328.5,240.5 Z"/></g>
<g><path style="opacity:1" fill="#848282" d="M 528.5,235.5 C 529.461,237.265 529.795,239.265 529.5,241.5C 499.995,241.831 470.662,241.498 441.5,240.5C 443.167,240.5 444.833,240.5 446.5,240.5C 473.169,240.667 499.835,240.5 526.5,240C 528.037,238.89 528.703,237.39 528.5,235.5 Z"/></g>
</svg>
