<?xml version="1.0" encoding="UTF-8"?>
<!DOCTYPE svg PUBLIC "-//W3C//DTD SVG 1.1//EN" "http://www.w3.org/Graphics/SVG/1.1/DTD/svg11.dtd">
<svg xmlns="http://www.w3.org/2000/svg" version="1.1" width="488px" height="224px" style="shape-rendering:geometricPrecision; text-rendering:geometricPrecision; image-rendering:optimizeQuality; fill-rule:evenodd; clip-rule:evenodd" xmlns:xlink="http://www.w3.org/1999/xlink">
<g><path style="opacity:1" fill="#fefefe" d="M -0.5,-0.5 C 162.167,-0.5 324.833,-0.5 487.5,-0.5C 487.5,74.1667 487.5,148.833 487.5,223.5C 324.833,223.5 162.167,223.5 -0.5,223.5C -0.5,148.833 -0.5,74.1667 -0.5,-0.5 Z"/></g>
<g><path style="opacity:1" fill="#1c1b1a" d="M 100.5,69.5 C 100.5,76.5 100.5,83.5 100.5,90.5C 150.834,90.3333 201.168,90.5 251.5,91C 251.167,91.3333 250.833,91.6667 250.5,92C 251.381,92.7083 252.047,93.5416 252.5,94.5C 252.667,106.171 252.5,117.838 252,129.5C 250.955,130.373 250.122,131.373 249.5,132.5C 199.833,132.5 150.167,132.5 100.5,132.5C 101.132,140.573 100.465,148.24 98.5,155.5C 97.5084,155.672 96.8417,155.338 96.5,154.5C 96.5,126.5 96.5,98.5 96.5,70.5C 97.3323,97.997 97.8323,125.664 98,153.5C 97.8398,125.149 98.6731,97.1488 100.5,69.5 Z"/></g>
<g><path style="opacity:1" fill="#fefdfb" d="M 113.5,92.5 C 158.172,92.1667 202.838,92.5001 247.5,93.5C 225.167,93.8333 202.833,94.1667 180.5,94.5C 157.823,94.4997 135.49,93.8331 113.5,92.5 Z"/></g>
<g><path style="opacity:1" fill="#fefefd" d="M 110.5,92.5 C 110.5,105.167 110.5,117.833 110.5,130.5C 107.167,130.5 103.833,130.5 100.5,130.5C 100.5,117.833 100.5,105.167 100.5,92.5C 103.833,92.5 107.167,92.5 110.5,92.5 Z"/></g>
<g><path style="opacity:1" fill="#514d4a" d="M 94.5,69.5 C 95.6226,68.2426 96.2893,68.5759 96.5,70.5C 96.5,98.5 96.5,126.5 96.5,154.5C 95.5084,154.672 94.8417,154.338 94.5,153.5C 95.8333,125.5 95.8333,97.5 94.5,69.5 Z"/></g>
<g><path style="opacity:1" fill="#b7b5b2" d="M 110.5,92.5 C 111.495,105.323 111.829,118.323 111.5,131.5C 107.629,131.815 103.962,131.482 100.5,130.5C 103.833,130.5 107.167,130.5 110.5,130.5C 110.5,117.833 110.5,105.167 110.5,92.5 Z"/></g>
<g><path style="opacity:1" fill="#fefefe" d="M 113.5,95.5 C 158.167,95.5 202.833,95.5 247.5,95.5C 247.5,106.167 247.5,116.833 247.5,127.5C 202.833,127.5 158.167,127.5 113.5,127.5C 113.5,116.833 113.5,106.167 113.5,95.5 Z"/></g>
<g><path style="opacity:1" fill="#b0aaaa" d="M 249.5,95.5 C 250.828,100.456 251.495,105.789 251.5,111.5C 251.167,116.833 250.833,122.167 250.5,127.5C 249.501,116.854 249.168,106.187 249.5,95.5 Z"/></g>
<g><path style="opacity:1" fill="#848482" d="M 252.5,94.5 C 253.66,106.66 253.827,118.993 253,131.5C 251.989,132.337 250.822,132.67 249.5,132.5C 250.122,131.373 250.955,130.373 252,129.5C 252.5,117.838 252.667,106.171 252.5,94.5 Z"/></g>
<g><path style="opacity:1" fill="#dededc" d="M 113.5,128.5 C 158.167,128.5 202.833,128.5 247.5,128.5C 247.5,129.5 247.5,130.5 247.5,131.5C 202.833,131.5 158.167,131.5 113.5,131.5C 113.5,130.5 113.5,129.5 113.5,128.5 Z"/></g>
<g><path style="opacity:1" fill="#222221" d="M 450.5,202.5 C 449.835,204.369 449.169,206.369 448.5,208.5C 447.828,207.051 447.161,205.718 446.5,204.5C 446.257,184.815 446.59,165.149 447.5,145.5C 441.833,145.5 436.167,145.5 430.5,145.5C 431.792,168.856 431.792,192.19 430.5,215.5C 430.709,216.086 431.043,216.586 431.5,217C 436.155,217.499 440.821,217.666 445.5,217.5C 440.695,218.487 435.695,218.821 430.5,218.5C 429.127,218.657 427.793,218.49 426.5,218C 427.704,216.647 428.371,214.981 428.5,213C 427.128,193.86 426.295,174.693 426,155.5C 401.841,146.21 391.175,128.543 394,102.5C 398.522,85.0632 409.188,73.3965 426,67.5C 426.541,48.3174 427.374,29.1508 428.5,10C 428.456,8.23579 428.122,6.56912 427.5,5C 434.826,4.50034 442.159,4.33368 449.5,4.5C 450.546,25.8393 451.546,47.1727 452.5,68.5C 466.484,72.3096 476.317,80.9763 482,94.5C 488.019,114.748 483.519,132.248 468.5,147C 463.703,150.483 458.536,153.316 453,155.5C 451.697,171.107 450.864,186.774 450.5,202.5 Z"/></g>
<g><path style="opacity:1" fill="#fcfcfc" d="M 431.5,79.5 C 451.785,77.5483 464.951,86.2149 471,105.5C 471.525,132.307 458.358,144.807 431.5,143C 412.386,136.187 404.553,122.687 408,102.5C 412.415,91.2504 420.249,83.5837 431.5,79.5 Z"/></g>
<g><path style="opacity:1" fill="#f5f5f5" d="M 450.5,64.5 C 450.215,66.288 450.548,67.9547 451.5,69.5C 474.71,78.5725 484.877,95.5725 482,120.5C 477.899,137.102 467.732,148.102 451.5,153.5C 450.571,154.689 450.238,156.022 450.5,157.5C 449.549,156.081 449.216,154.415 449.5,152.5C 449.5,149.5 449.5,146.5 449.5,143.5C 465.01,138.205 473.01,127.205 473.5,110.5C 472.339,95.3395 464.673,85.0062 450.5,79.5C 449.516,76.5719 449.183,73.5719 449.5,70.5C 449.205,68.2646 449.539,66.2646 450.5,64.5 Z"/></g>
<g><path style="opacity:1" fill="#f5f5f5" d="M 427.5,68.5 C 428.167,68.5 428.5,68.8333 428.5,69.5C 428.5,72.8333 428.5,76.1667 428.5,79.5C 413.499,84.8169 405.832,95.4836 405.5,111.5C 405.462,127.784 413.129,138.45 428.5,143.5C 428.5,145.833 428.5,148.167 428.5,150.5C 428.768,152.099 428.434,153.432 427.5,154.5C 400.997,143.829 391.163,124.496 398,96.5C 403.905,82.9751 413.738,73.6418 427.5,68.5 Z"/></g>
<g><path style="opacity:1" fill="#9e9d9c" d="M 428.5,39.5 C 429.487,44.3054 429.821,49.3054 429.5,54.5C 429.821,59.6946 429.487,64.6946 428.5,69.5C 428.5,68.8333 428.167,68.5 427.5,68.5C 427.709,58.828 428.042,49.1614 428.5,39.5 Z"/></g>
<g><path style="opacity:1" fill="#9f9d9b" d="M 449.5,35.5 C 450.029,45.1584 450.362,54.8251 450.5,64.5C 449.539,66.2646 449.205,68.2646 449.5,70.5C 448.508,63.3524 448.175,56.0191 448.5,48.5C 448.182,43.9677 448.515,39.6344 449.5,35.5 Z"/></g>
<g><path style="opacity:1" fill="#555150" d="M 449.5,35.5 C 448.515,39.6344 448.182,43.9677 448.5,48.5C 447.345,41.3451 447.178,34.0118 448,26.5C 448.333,26.1667 448.667,25.8333 449,25.5C 449.498,28.8168 449.665,32.1501 449.5,35.5 Z"/></g>
<g><path style="opacity:1" fill="#6c6b67" d="M 429.5,54.5 C 429.821,49.3054 429.487,44.3054 428.5,39.5C 428.309,34.1007 428.809,28.7674 430,23.5C 430.825,34.0083 430.659,44.3416 429.5,54.5 Z"/></g>
<g><path style="opacity:1" fill="#f7f7f6" d="M 431.5,5.5 C 436.833,5.5 442.167,5.5 447.5,5.5C 446.225,29.4915 446.225,53.4915 447.5,77.5C 441.833,77.5 436.167,77.5 430.5,77.5C 431.416,53.5154 431.75,29.5154 431.5,5.5 Z"/></g>
<g><path style="opacity:1" fill="#f8f8f7" d="M 446.5,204.5 C 446.38,208.042 446.714,211.542 447.5,215C 447.316,216.376 446.649,217.209 445.5,217.5C 440.821,217.666 436.155,217.499 431.5,217C 431.043,216.586 430.709,216.086 430.5,215.5C 431.792,192.19 431.792,168.856 430.5,145.5C 436.167,145.5 441.833,145.5 447.5,145.5C 446.59,165.149 446.257,184.815 446.5,204.5 Z"/></g>
<g><path style="opacity:1" fill="#959593" d="M 428.5,150.5 C 429.49,156.31 429.823,162.31 429.5,168.5C 429.821,174.026 429.488,179.36 428.5,184.5C 428.01,174.506 427.677,164.506 427.5,154.5C 428.434,153.432 428.768,152.099 428.5,150.5 Z"/></g>
<g><path style="opacity:1" fill="#9d9c9a" d="M 449.5,152.5 C 449.216,154.415 449.549,156.081 450.5,157.5C 450.362,167.175 450.029,176.842 449.5,186.5C 448.515,182.366 448.182,178.032 448.5,173.5C 448.175,166.313 448.509,159.313 449.5,152.5 Z"/></g>
<g><path style="opacity:1" fill="#353535" d="M 100.5,69.5 C 98.6731,97.1488 97.8398,125.149 98,153.5C 97.8323,125.664 97.3323,97.997 96.5,70.5C 96.2893,68.5759 95.6226,68.2426 94.5,69.5C 84.1321,72.3424 73.7987,75.3424 63.5,78.5C 63.5,100.5 63.5,122.5 63.5,144.5C 73.7697,147.701 84.1031,150.701 94.5,153.5C 94.8417,154.338 95.5084,154.672 96.5,154.5C 96.8417,155.338 97.5084,155.672 98.5,155.5C 81.483,183.353 58.3163,204.353 29,218.5C 16.2588,215.425 7.5921,207.758 3,195.5C 2.66667,196.167 2.33333,196.833 2,197.5C 1.5685,191.225 1.73517,184.892 2.5,178.5C 20.3378,164.913 39.6711,153.913 60.5,145.5C 60.833,123.157 60.4997,100.823 59.5,78.5C 38.917,68.9678 19.7504,57.3011 2,43.5C 0.42123,24.4955 8.5879,11.6621 26.5,5C 28.1667,4.33333 29.8333,4.33333 31.5,5C 60.1833,20.5198 83.1833,42.0198 100.5,69.5 Z"/></g>
<g><path style="opacity:1" fill="#fcfcfc" d="M 60.5,146.5 C 71.816,149.487 83.1493,152.487 94.5,155.5C 91.7123,162.398 87.879,168.732 83,174.5C 68.0873,191.762 50.5873,205.595 30.5,216C 15.7844,213.285 6.95107,204.451 4,189.5C 3.33333,186.5 3.33333,183.5 4,180.5C 21.6851,167.242 40.5184,155.908 60.5,146.5 Z"/></g>
<g><path style="opacity:1" fill="#fdfdfd" d="M 94.5,69.5 C 95.8333,97.5 95.8333,125.5 94.5,153.5C 84.1031,150.701 73.7697,147.701 63.5,144.5C 63.5,122.5 63.5,100.5 63.5,78.5C 73.7987,75.3424 84.1321,72.3424 94.5,69.5 Z"/></g>
<g><path style="opacity:1" fill="#fcfcfc" d="M 26.5,6.5 C 31.4544,7.4726 36.1211,9.30593 40.5,12C 61.2471,25.4129 78.7471,42.2462 93,62.5C 94.0086,64.0249 94.5086,65.6916 94.5,67.5C 83.5122,70.2893 72.6788,73.6226 62,77.5C 41.6906,68.0075 22.5239,56.6742 4.5,43.5C 2.59845,25.7236 9.93179,13.3903 26.5,6.5 Z"/></g>
<g><path style="opacity:1" fill="#585453" d="M 448.5,173.5 C 448.182,178.032 448.515,182.366 449.5,186.5C 449.823,190.226 449.489,193.893 448.5,197.5C 447.18,189.343 447.18,181.343 448.5,173.5 Z"/></g>
<g><path style="opacity:1" fill="#6b6966" d="M 429.5,168.5 C 430.659,178.658 430.825,188.992 430,199.5C 428.84,194.566 428.34,189.566 428.5,184.5C 429.488,179.36 429.821,174.026 429.5,168.5 Z"/></g>
<g><path style="opacity:1" fill="#373636" d="M 450.5,202.5 C 450.49,207.915 449.823,213.248 448.5,218.5C 442.371,219.809 436.371,219.809 430.5,218.5C 435.695,218.821 440.695,218.487 445.5,217.5C 446.649,217.209 447.316,216.376 447.5,215C 446.714,211.542 446.38,208.042 446.5,204.5C 447.161,205.718 447.828,207.051 448.5,208.5C 449.169,206.369 449.835,204.369 450.5,202.5 Z"/></g>
</svg>
