<?xml version="1.0" encoding="UTF-8"?>
<!DOCTYPE svg PUBLIC "-//W3C//DTD SVG 1.1//EN" "http://www.w3.org/Graphics/SVG/1.1/DTD/svg11.dtd">
<svg xmlns="http://www.w3.org/2000/svg" version="1.1" width="327px" height="232px" style="shape-rendering:geometricPrecision; text-rendering:geometricPrecision; image-rendering:optimizeQuality; fill-rule:evenodd; clip-rule:evenodd" xmlns:xlink="http://www.w3.org/1999/xlink">
<g><path style="opacity:1" fill="#fefefe" d="M -0.5,-0.5 C 108.5,-0.5 217.5,-0.5 326.5,-0.5C 326.5,76.8333 326.5,154.167 326.5,231.5C 217.5,231.5 108.5,231.5 -0.5,231.5C -0.5,154.167 -0.5,76.8333 -0.5,-0.5 Z"/></g>
<g><path style="opacity:1" fill="#f8f8f8" d="M 134.5,8.5 C 137.484,9.81732 140.484,10.8173 143.5,11.5C 197.346,39.2773 215.846,82.944 199,142.5C 192.819,158.017 183.319,171.184 170.5,182C 162.312,187.53 154.146,193.03 146,198.5C 144.793,202.867 143.459,207.2 142,211.5C 141.167,212.333 140.333,213.167 139.5,214C 132.562,215.586 125.562,216.753 118.5,217.5C 117.5,217.5 116.5,217.5 115.5,217.5C 115.5,209.5 115.5,201.5 115.5,193.5C 117.5,193.167 119.5,192.833 121.5,192.5C 123.527,192.662 125.527,192.495 127.5,192C 128.056,191.617 128.389,191.117 128.5,190.5C 163.327,180.248 184.493,157.248 192,121.5C 193.394,107.288 192.394,93.2882 189,79.5C 187.663,75.4933 185.83,71.8267 183.5,68.5C 171.705,44.4124 152.705,29.0791 126.5,22.5C 123.026,21.4751 119.36,20.8084 115.5,20.5C 71.6304,18.8894 41.1304,38.2227 24,78.5C 12.1443,123.956 25.9777,159.123 65.5,184C 75.5204,189.338 86.187,192.505 97.5,193.5C 97.5,201.5 97.5,209.5 97.5,217.5C 89.2846,217.689 81.2846,216.523 73.5,214C 72.6667,213.167 71.8333,212.333 71,211.5C 69.6373,206.711 67.9707,202.044 66,197.5C 22.2084,174.253 2.87505,137.92 8,88.5C 18.4382,42.3968 46.9382,14.8968 93.5,6C 106.885,4.76415 120.052,5.93082 133,9.5C 133.765,9.43007 134.265,9.09674 134.5,8.5 Z"/></g>
<g><path style="opacity:1" fill="#888687" d="M 324.5,4.5 C 325.666,76.3322 325.832,148.332 325,220.5C 324.31,221.738 323.81,221.738 323.5,220.5C 324.497,148.571 324.83,76.571 324.5,4.5 Z"/></g>
<g><path style="opacity:1" fill="#4e4e4e" d="M 309.5,4.5 C 309.17,76.571 309.503,148.571 310.5,220.5C 310.307,224.449 309.807,224.449 309,220.5C 308.168,148.332 308.334,76.3322 309.5,4.5 Z"/></g>
<g><path style="opacity:1" fill="#100f10" d="M 309.5,4.5 C 314.5,4.5 319.5,4.5 324.5,4.5C 324.83,76.571 324.497,148.571 323.5,220.5C 319.167,220.5 314.833,220.5 310.5,220.5C 309.503,148.571 309.17,76.571 309.5,4.5 Z"/></g>
<g><path style="opacity:1" fill="#858384" d="M 310.5,6.5 C 314.634,5.51511 318.968,5.18178 323.5,5.5C 323.833,76.6686 323.499,147.669 322.5,218.5C 322.5,147.833 322.5,77.1667 322.5,6.5C 318.5,6.5 314.5,6.5 310.5,6.5 Z"/></g>
<g><path style="opacity:1" fill="#f9f9f9" d="M 310.5,6.5 C 314.5,6.5 318.5,6.5 322.5,6.5C 322.5,77.1667 322.5,147.833 322.5,218.5C 318.5,218.5 314.5,218.5 310.5,218.5C 310.5,147.833 310.5,77.1667 310.5,6.5 Z"/></g>
<g><path style="opacity:1" fill="#272626" d="M 143.5,11.5 C 164.175,18.576 180.675,31.9093 193,51.5C 205.822,72.4177 210.489,95.0843 207,119.5C 200.472,155.901 180.806,182.568 148,199.5C 146.422,202.657 145.422,205.991 145,209.5C 144.208,211.587 143.041,213.421 141.5,215C 134.436,217.855 127.103,219.355 119.5,219.5C 119.167,218.833 118.833,218.167 118.5,217.5C 125.562,216.753 132.562,215.586 139.5,214C 140.333,213.167 141.167,212.333 142,211.5C 143.459,207.2 144.793,202.867 146,198.5C 154.146,193.03 162.312,187.53 170.5,182C 183.319,171.184 192.819,158.017 199,142.5C 215.846,82.944 197.346,39.2773 143.5,11.5 Z"/></g>
<g><path style="opacity:1" fill="#5f5f5f" d="M 115.5,20.5 C 119.36,20.8084 123.026,21.4751 126.5,22.5C 124.265,22.2053 122.265,22.5386 120.5,23.5C 113.869,22.669 107.202,22.3357 100.5,22.5C 105.5,21.8333 110.5,21.1667 115.5,20.5 Z"/></g>
<g><path style="opacity:1" fill="#272727" d="M 120.5,23.5 C 122.265,22.5386 124.265,22.2053 126.5,22.5C 152.705,29.0791 171.705,44.4124 183.5,68.5C 178.687,62.2351 173.854,55.9018 169,49.5C 155.622,35.7265 139.456,27.0598 120.5,23.5 Z"/></g>
<g><path style="opacity:1" fill="#242424" d="M 134.5,8.5 C 134.265,9.09674 133.765,9.43007 133,9.5C 120.052,5.93082 106.885,4.76415 93.5,6C 46.9382,14.8968 18.4382,42.3968 8,88.5C 2.87505,137.92 22.2084,174.253 66,197.5C 67.9707,202.044 69.6373,206.711 71,211.5C 71.8333,212.333 72.6667,213.167 73.5,214C 81.2846,216.523 89.2846,217.689 97.5,217.5C 97.5,209.5 97.5,201.5 97.5,193.5C 86.187,192.505 75.5204,189.338 65.5,184C 25.9777,159.123 12.1443,123.956 24,78.5C 41.1304,38.2227 71.6304,18.8894 115.5,20.5C 110.5,21.1667 105.5,21.8333 100.5,22.5C 57.2382,28.2563 31.0715,52.5897 22,95.5C 19.276,142.083 39.776,173.25 83.5,189C 88.7297,190.546 94.0631,191.38 99.5,191.5C 99.5,200.833 99.5,210.167 99.5,219.5C 90.3193,219.688 81.3193,218.522 72.5,216C 71.3333,214.833 70.1667,213.667 69,212.5C 67.8217,208.12 66.4883,203.787 65,199.5C 37.372,185.54 18.7054,163.873 9,134.5C -2.50325,87.0001 11.3301,48.8334 50.5,20C 76.7578,2.84386 104.758,-0.989473 134.5,8.5 Z"/></g>
<g><path style="opacity:1" fill="#2e2d2d" d="M 183.5,68.5 C 185.83,71.8267 187.663,75.4933 189,79.5C 192.394,93.2882 193.394,107.288 192,121.5C 184.493,157.248 163.327,180.248 128.5,190.5C 125.99,190.927 123.657,191.593 121.5,192.5C 119.5,192.833 117.5,193.167 115.5,193.5C 114.833,202.167 114.167,210.833 113.5,219.5C 112.343,210.676 112.176,201.676 113,192.5C 154.309,185.696 179.976,162.03 190,121.5C 190.667,111.5 190.667,101.5 190,91.5C 187.923,83.7737 185.756,76.107 183.5,68.5 Z"/></g>
<g><path style="opacity:1" fill="#838182" d="M 128.5,190.5 C 128.389,191.117 128.056,191.617 127.5,192C 125.527,192.495 123.527,192.662 121.5,192.5C 123.657,191.593 125.99,190.927 128.5,190.5 Z"/></g>
<g><path style="opacity:1" fill="#2f2e2f" d="M 81.5,197.5 C 87.2948,196.137 90.9615,198.304 92.5,204C 90.0208,210.538 85.6874,212.038 79.5,208.5C 77.8112,204.305 78.4779,200.638 81.5,197.5 Z"/></g>
<g><path style="opacity:1" fill="#f5f3f4" d="M 82.5,199.5 C 89.4863,199.331 91.153,202.164 87.5,208C 80.4159,208.475 78.7492,205.642 82.5,199.5 Z"/></g>
<g><path style="opacity:1" fill="#7f7e7e" d="M 115.5,193.5 C 115.5,201.5 115.5,209.5 115.5,217.5C 116.5,217.5 117.5,217.5 118.5,217.5C 118.833,218.167 119.167,218.833 119.5,219.5C 117.259,219.954 115.259,219.954 113.5,219.5C 114.167,210.833 114.833,202.167 115.5,193.5 Z"/></g>
<g><path style="opacity:1" fill="#242324" d="M 124.5,197.5 C 133.968,197.285 136.301,201.118 131.5,209C 124.388,211.554 120.888,209.054 121,201.5C 121.69,199.65 122.856,198.316 124.5,197.5 Z"/></g>
<g><path style="opacity:1" fill="#edeced" d="M 124.5,199.5 C 131.716,198.688 133.716,201.355 130.5,207.5C 127.42,209.105 124.92,208.438 123,205.5C 122.252,203.16 122.752,201.16 124.5,199.5 Z"/></g>
</svg>
