<?xml version="1.0" encoding="UTF-8"?>
<!DOCTYPE svg PUBLIC "-//W3C//DTD SVG 1.1//EN" "http://www.w3.org/Graphics/SVG/1.1/DTD/svg11.dtd">
<svg xmlns="http://www.w3.org/2000/svg" version="1.1" width="793px" height="222px" style="shape-rendering:geometricPrecision; text-rendering:geometricPrecision; image-rendering:optimizeQuality; fill-rule:evenodd; clip-rule:evenodd" xmlns:xlink="http://www.w3.org/1999/xlink">
<g><path style="opacity:1" fill="#fefefe" d="M -0.5,-0.5 C 263.833,-0.5 528.167,-0.5 792.5,-0.5C 792.5,73.5 792.5,147.5 792.5,221.5C 528.167,221.5 263.833,221.5 -0.5,221.5C -0.5,147.5 -0.5,73.5 -0.5,-0.5 Z"/></g>
<g><path style="opacity:1" fill="#949391" d="M 726.5,43.5 C 725.5,44.8333 724.5,44.8333 723.5,43.5C 722.537,42.6365 722.537,41.9698 723.5,41.5C 724.739,41.9424 725.739,42.6091 726.5,43.5 Z"/></g>
<g><path style="opacity:1" fill="#21201f" d="M 723.5,43.5 C 724.5,44.8333 725.5,44.8333 726.5,43.5C 731.032,44.7632 735.365,46.5965 739.5,49C 754.416,57.7074 769.249,66.5408 784,75.5C 784.667,106.833 784.667,138.167 784,169.5C 783.667,169.167 783.333,168.833 783,168.5C 757.078,183.879 730.911,198.879 704.5,213.5C 678.816,198.806 653.15,184.139 627.5,169.5C 626.89,168.609 626.557,167.609 626.5,166.5C 625.502,136.338 625.169,106.005 625.5,75.5C 651.072,59.7978 677.072,44.6311 703.5,30C 705.5,29.3333 707.5,29.3333 709.5,30C 709.167,30.3333 708.833,30.6667 708.5,31C 710.329,32.1133 711.163,33.6133 711,35.5C 708.75,34.2921 706.583,32.9587 704.5,31.5C 697.5,35.6667 690.5,39.8333 683.5,44C 696.721,40.9168 710.055,40.7501 723.5,43.5 Z"/></g>
<g><path style="opacity:1" fill="#fdfdfd" d="M 694.5,43.5 C 741.414,42.2742 770.581,64.2742 782,109.5C 784.931,151.855 766.765,180.688 727.5,196C 690.646,204.983 661.146,194.149 639,163.5C 618.406,124.437 624.24,89.937 656.5,60C 667.934,51.4446 680.601,45.9446 694.5,43.5 Z"/></g>
<g><path style="opacity:1" fill="#7f7e7c" d="M 764.5,66.5 C 763.833,66.5 763.5,66.8333 763.5,67.5C 762.038,66.5423 760.705,65.3756 759.5,64C 761.668,63.7506 763.335,64.5839 764.5,66.5 Z"/></g>
<g><path style="opacity:1" fill="#fefefe" d="M 77.5,68.5 C 79.6576,70.9929 82.3243,72.6595 85.5,73.5C 115.662,74.4981 145.995,74.8315 176.5,74.5C 177.167,78.5 177.833,78.5 178.5,74.5C 194.167,74.5 209.833,74.5 225.5,74.5C 226.931,74.8807 227.764,75.8807 228,77.5C 230.573,92.4174 232.406,107.417 233.5,122.5C 234.086,130.186 234.919,137.853 236,145.5C 236.668,149.525 237.835,153.359 239.5,157C 235.522,161.825 230.855,165.658 225.5,168.5C 178.664,168.168 131.997,168.501 85.5,169.5C 82.7052,170.063 80.3718,171.396 78.5,173.5C 77.5016,138.671 77.1683,103.671 77.5,68.5 Z"/></g>
<g><path style="opacity:1" fill="#f3f3f1" d="M 628.5,98.5 C 627.508,91.3524 627.175,84.0191 627.5,76.5C 634.298,72.105 641.298,68.2716 648.5,65C 638.633,74.2301 631.966,85.3968 628.5,98.5 Z"/></g>
<g><path style="opacity:1" fill="#181817" d="M 259.5,86.5 C 260.338,86.8417 260.672,87.5084 260.5,88.5C 254.824,88.6661 249.157,88.4994 243.5,88C 238.748,85.2523 234.581,81.7523 231,77.5C 233.6,84.0562 236.266,90.7229 239,97.5C 241.349,103.711 243.182,110.044 244.5,116.5C 244.737,117.791 244.404,118.791 243.5,119.5C 241.497,109.484 238.33,99.8174 234,90.5C 233.57,93.1922 233.737,95.8589 234.5,98.5C 232.069,100.068 232.069,101.568 234.5,103C 233.182,106.269 233.182,109.435 234.5,112.5C 234.5,114.833 234.5,117.167 234.5,119.5C 234.737,120.791 234.404,121.791 233.5,122.5C 232.406,107.417 230.573,92.4174 228,77.5C 227.764,75.8807 226.931,74.8807 225.5,74.5C 179.003,73.5012 132.336,73.1679 85.5,73.5C 82.3243,72.6595 79.6576,70.9929 77.5,68.5C 76.8268,85.2609 76.4934,102.761 76.5,121C 76.8333,138.833 77.1667,156.667 77.5,174.5C 78.1067,174.376 78.44,174.043 78.5,173.5C 80.3718,171.396 82.7052,170.063 85.5,169.5C 130.003,169.168 174.336,169.501 218.5,170.5C 174.165,170.333 129.832,170.5 85.5,171C 82.0629,172.105 79.5629,174.272 78,177.5C 77.6667,189.167 77.3333,200.833 77,212.5C 75.1316,213.672 73.2983,213.505 71.5,212C 72.448,211.517 73.448,211.351 74.5,211.5C 75.496,197.01 75.8293,182.343 75.5,167.5C 57.6588,167.17 39.9921,167.503 22.5,168.5C 7.07998,181.893 6.57998,195.893 21,210.5C 34.425,211.324 47.925,211.824 61.5,212C 47.9028,213.612 34.2361,213.945 20.5,213C 16.2984,209.133 12.4651,204.967 9,200.5C 8.33333,147.5 8.33333,94.5 9,41.5C 12.8333,37.6667 16.6667,33.8333 20.5,30C 39.4971,29.5001 58.4971,29.3334 77.5,29.5C 77.3335,41.1714 77.5001,52.8381 78,64.5C 79.5,68 82,70.5 85.5,72C 133.167,72.3333 180.833,72.6667 228.5,73C 233.5,77.3333 238.5,81.6667 243.5,86C 248.823,86.4994 254.156,86.666 259.5,86.5 Z"/></g>
<g><path style="opacity:1" fill="#878787" d="M 85.5,73.5 C 132.336,73.1679 179.003,73.5012 225.5,74.5C 209.833,74.5 194.167,74.5 178.5,74.5C 177.833,78.5 177.167,78.5 176.5,74.5C 145.995,74.8315 115.662,74.4981 85.5,73.5 Z"/></g>
<g><path style="opacity:1" fill="#f6f5f5" d="M 10.5,63.5 C 13.5607,67.9098 16.8941,72.2431 20.5,76.5C 15.9198,84.6585 12.7531,93.3251 11,102.5C 10.5001,89.5043 10.3334,76.5043 10.5,63.5 Z"/></g>
<g><path style="opacity:1" fill="#fafafa" d="M 21.5,31.5 C 39.5,31.5 57.5,31.5 75.5,31.5C 75.5,46.1667 75.5,60.8333 75.5,75.5C 57.8302,75.6666 40.1635,75.4999 22.5,75C 6.90133,60.8031 6.56799,46.3031 21.5,31.5 Z"/></g>
<g><path style="opacity:1" fill="#f7f7f5" d="M 763.5,67.5 C 763.5,66.8333 763.833,66.5 764.5,66.5C 770.702,69.2057 776.536,72.5391 782,76.5C 782.667,84.5 782.667,92.5 782,100.5C 778.381,87.915 772.215,76.915 763.5,67.5 Z"/></g>
<g><path style="opacity:1" fill="#fefefe" d="M 22.5,77.5 C 39.8333,77.5 57.1667,77.5 74.5,77.5C 74.5,106.833 74.5,136.167 74.5,165.5C 57.1667,165.5 39.8333,165.5 22.5,165.5C 6.56515,136.15 6.56515,106.817 22.5,77.5 Z"/></g>
<g><path style="opacity:1" fill="#838280" d="M 627.5,76.5 C 627.175,84.0191 627.508,91.3524 628.5,98.5C 628.291,99.9217 627.791,101.255 627,102.5C 626.176,93.6567 626.343,84.9901 627.5,76.5 Z"/></g>
<g><path style="opacity:1" fill="#4d4d4d" d="M 77.5,68.5 C 77.1683,103.671 77.5016,138.671 78.5,173.5C 78.44,174.043 78.1067,174.376 77.5,174.5C 77.1667,156.667 76.8333,138.833 76.5,121C 76.4934,102.761 76.8268,85.2609 77.5,68.5 Z"/></g>
<g><path style="opacity:1" fill="#a6a6a6" d="M 22.5,77.5 C 39.9921,76.5033 57.6588,76.1699 75.5,76.5C 75.5,106.5 75.5,136.5 75.5,166.5C 57.6588,166.83 39.9921,166.497 22.5,165.5C 39.8333,165.5 57.1667,165.5 74.5,165.5C 74.5,136.167 74.5,106.833 74.5,77.5C 57.1667,77.5 39.8333,77.5 22.5,77.5 Z"/></g>
<g><path style="opacity:1" fill="#fbfbfb" d="M 260.5,88.5 C 261.458,88.9528 262.292,89.6195 263,90.5C 264.53,94.0901 265.864,97.7568 267,101.5C 269.914,119.156 274.081,136.49 279.5,153.5C 271.275,154.815 263.108,154.815 255,153.5C 253.275,150.326 251.942,146.993 251,143.5C 249.274,134.266 247.107,125.266 244.5,116.5C 243.182,110.044 241.349,103.711 239,97.5C 236.266,90.7229 233.6,84.0562 231,77.5C 234.581,81.7523 238.748,85.2523 243.5,88C 249.157,88.4994 254.824,88.6661 260.5,88.5 Z"/></g>
<g><path style="opacity:1" fill="#f0f0ef" d="M 243.5,119.5 C 245.523,129.928 248.023,140.261 251,150.5C 251.883,153.102 253.383,155.269 255.5,157C 253.368,160.764 250.868,164.264 248,167.5C 247.333,166.167 246.667,164.833 246,163.5C 241.689,141.791 237.855,120.124 234.5,98.5C 233.737,95.8589 233.57,93.1922 234,90.5C 238.33,99.8174 241.497,109.484 243.5,119.5 Z"/></g>
<g><path style="opacity:1" fill="#cfcfcd" d="M 234.5,112.5 C 236.7,125.882 239.033,139.382 241.5,153C 241.406,155.954 240.906,156.121 240,153.5C 237.976,142.061 236.143,130.727 234.5,119.5C 234.5,117.167 234.5,114.833 234.5,112.5 Z"/></g>
<g><path style="opacity:1" fill="#81807f" d="M 625.5,75.5 C 625.169,106.005 625.502,136.338 626.5,166.5C 626.557,167.609 626.89,168.609 627.5,169.5C 625.908,170.602 625.075,169.935 625,167.5C 624.169,136.664 624.336,105.997 625.5,75.5 Z"/></g>
<g><path style="opacity:1" fill="#858583" d="M 628.5,144.5 C 627.508,151.648 627.175,158.981 627.5,166.5C 627.167,166.5 626.833,166.5 626.5,166.5C 626.334,157.827 626.5,149.16 627,140.5C 627.791,141.745 628.291,143.078 628.5,144.5 Z"/></g>
<g><path style="opacity:1" fill="#f5f5f4" d="M 10.5,140.5 C 12.9099,149.43 16.2432,158.097 20.5,166.5C 16.8444,170.479 13.6778,174.812 11,179.5C 10.5001,166.504 10.3334,153.504 10.5,140.5 Z"/></g>
<g><path style="opacity:1" fill="#f3f3f2" d="M 628.5,144.5 C 632.064,157.554 638.731,168.721 648.5,178C 641.298,174.728 634.298,170.895 627.5,166.5C 627.175,158.981 627.508,151.648 628.5,144.5 Z"/></g>
<g><path style="opacity:1" fill="#f3f3f2" d="M 781.5,141.5 C 782.657,149.656 782.823,157.99 782,166.5C 775.639,170.592 769.139,174.092 762.5,177C 772.108,166.952 778.442,155.119 781.5,141.5 Z"/></g>
<g><path style="opacity:1" fill="#222120" d="M 225.5,169.5 C 225.5,169.167 225.5,168.833 225.5,168.5C 230.855,165.658 235.522,161.825 239.5,157C 237.835,153.359 236.668,149.525 236,145.5C 234.919,137.853 234.086,130.186 233.5,122.5C 234.404,121.791 234.737,120.791 234.5,119.5C 236.143,130.727 237.976,142.061 240,153.5C 240.906,156.121 241.406,155.954 241.5,153C 239.033,139.382 236.7,125.882 234.5,112.5C 233.182,109.435 233.182,106.269 234.5,103C 232.069,101.568 232.069,100.068 234.5,98.5C 237.855,120.124 241.689,141.791 246,163.5C 246.667,164.833 247.333,166.167 248,167.5C 250.868,164.264 253.368,160.764 255.5,157C 253.383,155.269 251.883,153.102 251,150.5C 248.023,140.261 245.523,129.928 243.5,119.5C 244.404,118.791 244.737,117.791 244.5,116.5C 247.107,125.266 249.274,134.266 251,143.5C 251.942,146.993 253.275,150.326 255,153.5C 263.108,154.815 271.275,154.815 279.5,153.5C 274.081,136.49 269.914,119.156 267,101.5C 265.864,97.7568 264.53,94.0901 263,90.5C 262.292,89.6195 261.458,88.9528 260.5,88.5C 260.672,87.5084 260.338,86.8417 259.5,86.5C 261.655,82.8609 263.822,79.1943 266,75.5C 268,72.8333 270,72.8333 272,75.5C 274.041,79.0838 276.208,82.5838 278.5,86C 287.518,86.832 296.518,86.6653 305.5,85.5C 307.667,81.8333 309.833,78.1667 312,74.5C 314.585,73.1154 316.585,73.7821 318,76.5C 319.455,79.9121 321.288,83.0788 323.5,86C 332.167,86.6667 340.833,86.6667 349.5,86C 351.792,82.5838 353.959,79.0838 356,75.5C 358,72.8333 360,72.8333 362,75.5C 364.041,79.0838 366.208,82.5838 368.5,86C 377.518,86.832 386.518,86.6653 395.5,85.5C 397.667,81.8333 399.833,78.1667 402,74.5C 403.667,73.1667 405.333,73.1667 407,74.5C 408.787,78.5766 410.954,82.41 413.5,86C 421.833,86.6667 430.167,86.6667 438.5,86C 441.39,81.7073 444.39,77.5406 447.5,73.5C 448.814,74.3128 449.981,75.3128 451,76.5C 453.067,81.3473 456.067,85.3473 460,88.5C 467.72,90.2957 475.387,92.2957 483,94.5C 485.468,92.3577 487.635,89.8577 489.5,87C 490.833,86.3333 492.167,86.3333 493.5,87C 495.792,90.4162 497.959,93.9162 500,97.5C 500.903,98.7014 502.069,99.5348 503.5,100C 510.93,101.524 518.264,103.358 525.5,105.5C 528.586,104.251 530.92,102.084 532.5,99C 533.833,98.3333 535.167,98.3333 536.5,99C 539.885,102.717 542.885,106.717 545.5,111C 557.5,114.333 569.5,117.667 581.5,121C 570.936,120.208 560.603,118.041 550.5,114.5C 549.479,115.002 549.312,115.668 550,116.5C 552.91,120.451 556.577,123.451 561,125.5C 563.795,124.422 566.629,123.922 569.5,124C 567.751,125.292 565.918,126.458 564,127.5C 561.959,131.084 559.792,134.584 557.5,138C 555.711,138.52 554.044,138.187 552.5,137C 551.273,134.271 549.273,132.438 546.5,131.5C 538.777,133.514 531.111,135.68 523.5,138C 520.573,141.862 517.907,145.862 515.5,150C 513.833,150.667 512.167,150.667 510.5,150C 509.319,146.782 507.319,144.282 504.5,142.5C 495.224,144.425 486.391,147.425 478,151.5C 475.891,156.065 473.058,160.065 469.5,163.5C 466.539,161.588 464.539,158.921 463.5,155.5C 462.167,155.167 460.833,154.833 459.5,154.5C 451.568,155.929 443.568,156.762 435.5,157C 433.208,160.416 431.041,163.916 429,167.5C 427,170.167 425,170.167 423,167.5C 421.421,164.006 419.587,160.673 417.5,157.5C 408.167,156.167 398.833,156.167 389.5,157.5C 387.867,160.96 386.034,164.294 384,167.5C 382,170.167 380,170.167 378,167.5C 375.959,163.916 373.792,160.416 371.5,157C 362.833,156.333 354.167,156.333 345.5,157C 343.208,160.416 341.041,163.916 339,167.5C 337,170.167 335,170.167 333,167.5C 331.46,163.581 329.293,160.081 326.5,157C 317.482,156.168 308.482,156.335 299.5,157.5C 297.373,162.12 294.54,166.12 291,169.5C 289.395,168.899 288.062,167.899 287,166.5C 285.545,163.088 283.712,159.921 281.5,157C 273.5,156.333 265.5,156.333 257.5,157C 255.088,161.684 252.088,165.851 248.5,169.5C 247.558,169.392 246.725,169.059 246,168.5C 244.167,165.5 242.333,162.5 240.5,159.5C 237.349,162.15 234.349,164.984 231.5,168C 229.655,169.128 227.655,169.628 225.5,169.5 Z"/></g>
<g><path style="opacity:1" fill="#f1f1f0" d="M 453.5,85.5 C 455.451,87.48 456.951,89.8133 458,92.5C 462.793,110.131 467.46,127.797 472,145.5C 473.182,147.344 474.349,149.177 475.5,151C 473.867,154.44 471.867,157.606 469.5,160.5C 467.402,157.455 465.902,154.122 465,150.5C 461.493,128.766 457.66,107.099 453.5,85.5 Z"/></g>
<g><path style="opacity:1" fill="#f1f0ee" d="M 544.5,113.5 C 548.269,117.771 552.269,121.938 556.5,126C 558.087,126.862 559.754,127.529 561.5,128C 560.04,131.089 558.207,133.922 556,136.5C 553.957,134.792 552.29,132.792 551,130.5C 548.925,124.771 546.758,119.104 544.5,113.5 Z"/></g>
<g><path style="opacity:1" fill="#f3f3f1" d="M 499.5,101.5 C 500.315,102.429 501.148,103.429 502,104.5C 506.012,114.545 510.012,124.545 514,134.5C 515.684,136.351 517.517,138.018 519.5,139.5C 517.823,142.853 515.657,145.853 513,148.5C 510.048,144.66 508.048,140.327 507,135.5C 503.96,124.248 501.46,112.914 499.5,101.5 Z"/></g>
<g><path style="opacity:1" fill="#f2f2f0" d="M 275.5,86.5 C 278.504,90.2991 280.67,94.6324 282,99.5C 284.936,117.848 289.269,135.848 295,153.5C 296.022,154.354 296.855,155.354 297.5,156.5C 295.527,160.457 293.194,164.124 290.5,167.5C 287.608,161.491 285.774,155.157 285,148.5C 282.065,127.787 278.898,107.121 275.5,86.5 Z"/></g>
<g><path style="opacity:1" fill="#f3f3f1" d="M 320.5,86.5 C 323.683,89.8228 325.85,93.8228 327,98.5C 330.518,113.795 333.852,129.128 337,144.5C 338.163,148.991 339.997,153.157 342.5,157C 340.716,160.735 338.549,164.235 336,167.5C 335,165.5 334,163.5 333,161.5C 328.692,136.505 324.525,111.505 320.5,86.5 Z"/></g>
<g><path style="opacity:1" fill="#f0f0ee" d="M 533.5,100.5 C 536.091,101.254 537.924,102.921 539,105.5C 541.966,112.074 544.299,118.741 546,125.5C 541.943,120.442 538.276,115.108 535,109.5C 533.167,108.333 531.333,107.167 529.5,106C 530.965,104.226 532.298,102.392 533.5,100.5 Z"/></g>
<g><path style="opacity:1" fill="#fafafa" d="M 503.5,103.5 C 512.932,104.16 522.265,106.327 531.5,110C 536.5,116.333 541.5,122.667 546.5,129C 537.245,131.98 527.912,134.314 518.5,136C 517.213,134.59 516.046,133.09 515,131.5C 511.629,121.865 507.796,112.532 503.5,103.5 Z"/></g>
<g><path style="opacity:1" fill="#ecebe9" d="M 490.5,88.5 C 493.908,91.6374 496.075,95.6374 497,100.5C 499.57,112.949 502.237,125.283 505,137.5C 500.086,125.762 495.753,113.762 492,101.5C 490.638,98.7644 488.804,96.4311 486.5,94.5C 487.844,92.4714 489.177,90.4714 490.5,88.5 Z"/></g>
<g><path style="opacity:1" fill="#f1f1ef" d="M 410.5,85.5 C 413.148,89.4622 415.315,93.7955 417,98.5C 420.588,113.774 423.922,129.108 427,144.5C 428.072,149.068 429.906,153.234 432.5,157C 430.716,160.735 428.549,164.235 426,167.5C 423.718,162.376 422.051,157.043 421,151.5C 417.818,129.426 414.318,107.426 410.5,85.5 Z"/></g>
<g><path style="opacity:1" fill="#f2f2f1" d="M 358.5,75.5 C 359.458,75.9528 360.292,76.6195 361,77.5C 361.749,81.2513 362.749,84.918 364,88.5C 367.503,111.2 370.836,133.866 374,156.5C 371.566,153.205 369.899,149.538 369,145.5C 364.949,129.579 361.283,113.579 358,97.5C 357.1,93.2013 355.267,89.3679 352.5,86C 354.378,82.4072 356.378,78.9072 358.5,75.5 Z"/></g>
<g><path style="opacity:1" fill="#fafafa" d="M 459.5,90.5 C 468.185,92.4717 476.851,94.6384 485.5,97C 488.491,99.9904 490.657,103.49 492,107.5C 494.893,119.017 499.06,130.017 504.5,140.5C 496.516,142.663 488.516,144.83 480.5,147C 478.741,147.798 477.074,147.631 475.5,146.5C 474.667,144.833 473.833,143.167 473,141.5C 468.793,124.387 464.293,107.387 459.5,90.5 Z"/></g>
<g><path style="opacity:1" fill="#fbfbfb" d="M 415.5,89.5 C 423.99,88.3431 432.657,88.1764 441.5,89C 444.625,93.3631 446.792,98.1965 448,103.5C 450.918,117.589 454.251,131.589 458,145.5C 458.516,148.034 459.683,150.2 461.5,152C 452.021,154.19 442.521,154.69 433,153.5C 430.386,147.716 428.386,141.716 427,135.5C 424.702,119.641 420.869,104.308 415.5,89.5 Z"/></g>
<g><path style="opacity:1" fill="#fcfcfb" d="M 370.5,88.5 C 379.751,88.1822 388.917,88.5155 398,89.5C 403.187,104.095 406.854,119.095 409,134.5C 410.772,141.148 412.938,147.648 415.5,154C 406.5,154.667 397.5,154.667 388.5,154C 385.902,150.217 384.068,146.05 383,141.5C 379.528,123.632 375.361,105.965 370.5,88.5 Z"/></g>
<g><path style="opacity:1" fill="#f2f1f1" d="M 365.5,86.5 C 368.69,90.2136 370.857,94.5469 372,99.5C 375.235,117.007 379.235,134.341 384,151.5C 385.182,153.344 386.349,155.177 387.5,157C 385.716,160.735 383.549,164.235 381,167.5C 377.924,160.872 375.924,153.872 375,146.5C 371.766,126.5 368.599,106.5 365.5,86.5 Z"/></g>
<g><path style="opacity:1" fill="#fbfbfb" d="M 325.5,88.5 C 334.525,88.1685 343.525,88.5018 352.5,89.5C 353.942,92.0496 355.108,94.7163 356,97.5C 359.56,116.408 364.06,135.075 369.5,153.5C 360.5,154.833 351.5,154.833 342.5,153.5C 337.535,138.107 333.702,122.44 331,106.5C 329.662,100.321 327.828,94.3206 325.5,88.5 Z"/></g>
<g><path style="opacity:1" fill="#fbfbfb" d="M 280.5,88.5 C 289.525,88.1685 298.525,88.5018 307.5,89.5C 307.808,90.3081 308.308,90.9747 309,91.5C 314.355,112.437 319.521,133.437 324.5,154.5C 315.249,154.818 306.083,154.485 297,153.5C 291.185,131.894 285.685,110.227 280.5,88.5 Z"/></g>
<g><path style="opacity:1" fill="#f2f2f1" d="M 313.5,75.5 C 315.136,76.7489 316.303,78.4156 317,80.5C 322.304,105.677 326.304,131.011 329,156.5C 326.227,152.185 324.227,147.518 323,142.5C 319.41,125.066 315.41,107.732 311,90.5C 309.839,89.0047 308.673,87.5047 307.5,86C 309.711,82.6216 311.711,79.1216 313.5,75.5 Z"/></g>
<g><path style="opacity:1" fill="#edecec" d="M 447.5,75.5 C 449.163,77.4927 450.33,79.8261 451,82.5C 455.587,104.416 459.254,126.416 462,148.5C 461,146.167 460,143.833 459,141.5C 455.299,124.655 450.965,107.989 446,91.5C 444.692,89.3586 443.192,87.3586 441.5,85.5C 443.511,82.1389 445.511,78.8056 447.5,75.5 Z"/></g>
<g><path style="opacity:1" fill="#f1f0ef" d="M 403.5,75.5 C 404.458,75.9528 405.292,76.6195 406,77.5C 407.711,82.3849 409.045,87.3849 410,92.5C 413.5,113.479 416.5,134.479 419,155.5C 417.234,153.404 415.901,151.071 415,148.5C 411,131.167 407,113.833 403,96.5C 402.296,92.3747 400.463,88.8747 397.5,86C 399.756,82.5944 401.756,79.0944 403.5,75.5 Z"/></g>
<g><path style="opacity:1" fill="#f1f1f0" d="M 268.5,75.5 C 271.687,79.8582 273.521,84.8582 274,90.5C 277.993,112.79 281.327,135.123 284,157.5C 280.146,150.604 277.479,143.27 276,135.5C 273.764,121.653 270.764,107.987 267,94.5C 266.06,91.326 264.56,88.4926 262.5,86C 264.378,82.4072 266.378,78.9072 268.5,75.5 Z"/></g>
<g><path style="opacity:1" fill="#868686" d="M 85.5,169.5 C 131.997,168.501 178.664,168.168 225.5,168.5C 225.5,168.833 225.5,169.167 225.5,169.5C 223.05,169.298 220.717,169.631 218.5,170.5C 174.336,169.501 130.003,169.168 85.5,169.5 Z"/></g>
<g><path style="opacity:1" fill="#aaaaaa" d="M 22.5,168.5 C 39.9921,167.503 57.6588,167.17 75.5,167.5C 75.8293,182.343 75.496,197.01 74.5,211.5C 74.5,197.167 74.5,182.833 74.5,168.5C 57.1667,168.5 39.8333,168.5 22.5,168.5 Z"/></g>
<g><path style="opacity:1" fill="#f1f1f0" d="M 683.5,199.5 C 683.735,198.903 684.235,198.57 685,198.5C 691.501,200.524 698.167,201.524 705,201.5C 712.268,201.042 719.434,200.208 726.5,199C 719.353,202.989 712.186,206.822 705,210.5C 697.632,207.233 690.465,203.566 683.5,199.5 Z"/></g>
</svg>
