<?xml version="1.0" standalone="no"?>
<!DOCTYPE svg PUBLIC "-//W3C//DTD SVG 20010904//EN"
 "http://www.w3.org/TR/2001/REC-SVG-20010904/DTD/svg10.dtd">
<svg version="1.0" xmlns="http://www.w3.org/2000/svg"
 width="307.000000pt" height="451.000000pt" viewBox="0 0 307.000000 451.000000"
 preserveAspectRatio="xMidYMid meet">

<g transform="translate(0.000000,451.000000) scale(0.100000,-0.100000)"
fill="#000000" stroke="none">
<path d="M1185 4414 c-54 -7 -119 -20 -144 -29 -24 -8 -55 -15 -67 -15 -12 0
-62 -14 -111 -31 -233 -81 -454 -222 -626 -398 -127 -130 -147 -160 -147 -223
0 -47 28 -96 69 -118 35 -18 730 -210 763 -210 24 0 51 14 103 53 134 101 264
146 447 154 92 5 133 2 193 -12 74 -18 76 -18 102 1 16 12 47 66 83 143 31 68
66 132 79 142 42 34 97 25 176 -27 81 -54 217 -188 293 -289 74 -98 162 -278
162 -331 0 -54 -29 -90 -83 -105 -68 -18 -111 -45 -158 -97 l-44 -49 1 -155
c1 -85 6 -164 12 -174 28 -52 149 -134 197 -134 12 0 34 -13 49 -29 26 -27 28
-35 24 -79 -17 -172 -280 -515 -484 -633 -82 -46 -146 -33 -179 38 -10 21 -37
79 -61 129 -23 50 -54 100 -68 112 -26 20 -28 20 -79 4 -82 -26 -290 -23 -390
6 -110 31 -192 71 -269 129 -37 28 -76 54 -87 58 -24 7 -759 -196 -796 -221
-31 -20 -55 -73 -55 -122 0 -47 24 -82 135 -201 203 -214 500 -385 785 -451
30 -7 62 -15 70 -18 17 -6 20 -6 190 -21 205 -17 416 8 619 75 416 136 762
440 952 839 379 792 51 1739 -738 2134 -275 137 -624 197 -918 155z m317 -24
c648 -54 1179 -468 1382 -1080 63 -190 80 -291 80 -490 0 -171 -13 -269 -54
-420 -160 -581 -623 -1009 -1230 -1137 -122 -26 -447 -25 -580 0 -253 49 -501
163 -701 322 -85 69 -268 263 -276 294 -9 36 9 92 37 113 27 20 718 218 761
218 17 0 45 -16 75 -40 63 -53 189 -115 284 -141 106 -29 304 -37 387 -15 33
9 68 13 76 10 16 -6 20 -13 92 -170 27 -57 55 -101 76 -118 29 -25 39 -28 89
-24 45 3 67 12 120 48 252 170 515 558 470 694 -13 40 -62 86 -92 86 -34 0
-136 60 -163 96 -25 33 -26 39 -26 180 0 141 1 147 26 180 31 41 95 80 153 93
54 12 77 32 98 86 15 40 15 47 -1 102 -54 188 -270 465 -462 593 -91 61 -126
69 -187 42 -44 -20 -47 -25 -109 -154 -36 -73 -71 -139 -79 -146 -11 -8 -24
-9 -49 -2 -130 39 -304 31 -462 -21 -102 -33 -173 -71 -244 -129 -26 -22 -58
-40 -70 -40 -18 0 -615 165 -731 201 -39 13 -72 60 -72 104 0 64 164 241 334
363 164 118 319 194 498 246 128 37 229 53 413 64 11 1 73 -3 137 -8z"/>
<path d="M89 265 c0 -7 0 -192 0 -205 1 -7 487 -9 1454 -8 l1452 3 3 108 3
107 -1456 0 c-800 0 -1455 -2 -1456 -5z m2881 -105 l0 -80 -1425 0 -1425 0 0
80 0 80 1425 0 1425 0 0 -80z"/>
</g>
</svg>
