<?xml version="1.0" encoding="UTF-8"?>
<!DOCTYPE svg PUBLIC "-//W3C//DTD SVG 1.1//EN" "http://www.w3.org/Graphics/SVG/1.1/DTD/svg11.dtd">
<svg xmlns="http://www.w3.org/2000/svg" version="1.1" width="922px" height="173px" style="shape-rendering:geometricPrecision; text-rendering:geometricPrecision; image-rendering:optimizeQuality; fill-rule:evenodd; clip-rule:evenodd" xmlns:xlink="http://www.w3.org/1999/xlink">
<g><path style="opacity:1" fill="#fefefe" d="M -0.5,-0.5 C 306.833,-0.5 614.167,-0.5 921.5,-0.5C 921.5,57.1667 921.5,114.833 921.5,172.5C 614.167,172.5 306.833,172.5 -0.5,172.5C -0.5,114.833 -0.5,57.1667 -0.5,-0.5 Z"/></g>
<g><path style="opacity:1" fill="#323130" d="M 23.5,10.5 C 23.8195,15.3633 23.4861,20.03 22.5,24.5C 22.5,24.8333 22.5,25.1667 22.5,25.5C 18.5,25.5 14.5,25.5 10.5,25.5C 9.83333,25.5 9.16667,25.5 8.5,25.5C 13.1667,20.1667 18.1667,15.1667 23.5,10.5 Z"/></g>
<g><path style="opacity:1" fill="#f6f6f4" d="M 22.5,24.5 C 19.1501,24.665 15.8168,24.4983 12.5,24C 15.6667,20.8333 18.8333,17.6667 22,14.5C 22.4983,17.8168 22.665,21.1501 22.5,24.5 Z"/></g>
<g><path style="opacity:1" fill="#888787" d="M 556.5,26.5 C 552.5,26.5 548.5,26.5 544.5,26.5C 544.5,65.8333 544.5,105.167 544.5,144.5C 548.167,144.5 551.833,144.5 555.5,144.5C 555.068,145.71 554.401,146.71 553.5,147.5C 550.713,146.523 547.713,146.19 544.5,146.5C 544.335,149.518 544.502,152.518 545,155.5C 546.039,154.29 547.206,153.29 548.5,152.5C 547.89,154.434 546.89,156.101 545.5,157.5C 543.514,113.719 542.847,69.7186 543.5,25.5C 548.032,25.1818 552.366,25.5151 556.5,26.5 Z"/></g>
<g><path style="opacity:1" fill="#4e4c4d" d="M 564.5,31.5 C 565.766,32.0899 567.099,32.5899 568.5,33C 567.552,33.4828 566.552,33.6495 565.5,33.5C 565.171,68.4063 565.504,103.24 566.5,138C 565.906,138.464 565.239,138.631 564.5,138.5C 564.5,102.833 564.5,67.1667 564.5,31.5 Z"/></g>
<g><path style="opacity:1" fill="#262626" d="M 830.5,10.5 C 871.363,9.347 898.53,26.347 912,61.5C 921.273,97.0168 911.44,125.85 882.5,148C 844.924,168.725 811.424,163.559 782,132.5C 756.412,93.448 760.579,57.948 794.5,26C 805.458,18.1883 817.458,13.0216 830.5,10.5 Z"/></g>
<g><path style="opacity:1" fill="#fafafa" d="M 829.5,12.5 C 865.458,10.2177 891.625,24.8843 908,56.5C 918.1,85.5807 913.767,111.581 895,134.5C 872.478,157.319 844.978,163.486 812.5,153C 775.934,134.507 762.101,104.673 771,63.5C 781.418,35.9058 800.918,18.9058 829.5,12.5 Z"/></g>
<g><path style="opacity:1" fill="#414141" d="M 891.5,117.5 C 891.573,119.027 890.906,120.027 889.5,120.5C 889.427,118.973 890.094,117.973 891.5,117.5 Z"/></g>
<g><path style="opacity:1" fill="#4b4b4b" d="M 896.5,107.5 C 895.873,111.42 894.207,114.753 891.5,117.5C 892.659,113.849 894.326,110.515 896.5,107.5 Z"/></g>
<g><path style="opacity:1" fill="#5a5a5a" d="M 899.5,92.5 C 899.833,92.5 900.167,92.5 900.5,92.5C 900.549,97.977 899.216,102.977 896.5,107.5C 897.628,102.527 898.628,97.5272 899.5,92.5 Z"/></g>
<g><path style="opacity:1" fill="#929292" d="M 900.5,76.5 C 901.833,81.8333 901.833,87.1667 900.5,92.5C 900.167,92.5 899.833,92.5 899.5,92.5C 899.5,87.8333 899.5,83.1667 899.5,78.5C 900.338,78.1583 900.672,77.4916 900.5,76.5 Z"/></g>
<g><path style="opacity:1" fill="#595959" d="M 786.5,59.5 C 783.457,67.8785 781.624,76.5451 781,85.5C 779.694,76.0704 781.527,67.4038 786.5,59.5 Z"/></g>
<g><path style="opacity:1" fill="#545454" d="M 889.5,50.5 C 895.872,57.9274 899.538,66.5941 900.5,76.5C 900.672,77.4916 900.338,78.1583 899.5,78.5C 898.342,68.3574 895.009,59.0241 889.5,50.5 Z"/></g>
<g><path style="opacity:1" fill="#505050" d="M 790.5,52.5 C 789.921,55.3311 788.588,57.6644 786.5,59.5C 786.998,56.6737 788.331,54.3403 790.5,52.5 Z"/></g>
<g><path style="opacity:1" fill="#5a5a5a" d="M 885.5,45.5 C 887.531,46.5387 888.864,48.2054 889.5,50.5C 887.413,49.4154 886.08,47.7488 885.5,45.5 Z"/></g>
<g><path style="opacity:1" fill="#545454" d="M 804.5,37.5 C 799.805,42.5261 795.139,47.5261 790.5,52.5C 793.783,46.2166 798.45,41.2166 804.5,37.5 Z"/></g>
<g><path style="opacity:1" fill="#4d4d4d" d="M 885.5,45.5 C 883.915,44.9976 883.415,43.9976 884,42.5C 885.039,43.2438 885.539,44.2438 885.5,45.5 Z"/></g>
<g><path style="opacity:1" fill="#4a4a4a" d="M 875.5,36.5 C 876.756,36.4614 877.756,36.9614 878.5,38C 877.002,38.5847 876.002,38.0847 875.5,36.5 Z"/></g>
<g><path style="opacity:1" fill="#4b4b4b" d="M 810.5,33.5 C 808.853,35.3264 806.853,36.6597 804.5,37.5C 805.802,35.1782 807.802,33.8449 810.5,33.5 Z"/></g>
<g><path style="opacity:1" fill="#505050" d="M 810.5,33.5 C 813.32,30.9193 816.654,29.0859 820.5,28C 823.077,26.7496 825.743,26.4163 828.5,27C 822.373,28.8751 816.373,31.0418 810.5,33.5 Z"/></g>
<g><path style="opacity:1" fill="#696969" d="M 875.5,36.5 C 861.347,27.9726 846.013,24.4726 829.5,26C 845.142,22.9941 859.809,25.6608 873.5,34C 874.381,34.7083 875.047,35.5416 875.5,36.5 Z"/></g>
<g><path style="opacity:1" fill="#252423" d="M 834.5,41.5 C 868.082,41.915 884.582,58.915 884,92.5C 877.79,117.618 861.29,129.785 834.5,129C 821.655,126.662 811.488,120.162 804,109.5C 803.667,110.833 803.333,112.167 803,113.5C 802.257,111.559 802.424,109.726 803.5,108C 791.673,84.1475 796.34,64.1475 817.5,48C 823.02,45.11 828.686,42.9433 834.5,41.5 Z"/></g>
<g><path style="opacity:1" fill="#f0efed" d="M 870.5,111.5 C 871.239,111.369 871.906,111.536 872.5,112C 865.744,120.376 857.078,125.042 846.5,126C 854.73,121.392 862.73,116.559 870.5,111.5 Z"/></g>
<g><path style="opacity:1" fill="#f8f8f6" d="M 801.5,70.5 C 802.658,80.3247 802.825,90.3247 802,100.5C 798.909,90.5414 798.743,80.5414 801.5,70.5 Z"/></g>
<g><path style="opacity:1" fill="#dddbd9" d="M 878.5,69.5 C 879.966,70.347 880.8,71.6803 881,73.5C 883.429,83.0732 882.762,92.4065 879,101.5C 878.5,90.8385 878.333,80.1719 878.5,69.5 Z"/></g>
<g><path style="opacity:1" fill="#e9e8e6" d="M 829.5,44.5 C 831.199,44.3398 832.866,44.5065 834.5,45C 825.972,50.2585 817.306,54.9252 808.5,59C 814.324,52.3223 821.324,47.4889 829.5,44.5 Z"/></g>
<g><path style="opacity:1" fill="#e4e4e3" d="M 846.5,45.5 C 847.097,44.8614 847.93,44.528 849,44.5C 858.35,46.8422 866.35,51.5089 873,58.5C 873.667,59.1667 873.667,59.8333 873,60.5C 864.355,55.0964 855.522,50.0964 846.5,45.5 Z"/></g>
<g><path style="opacity:1" fill="#fcfcfc" d="M 838.5,44.5 C 840.655,44.372 842.655,44.872 844.5,46C 854.918,52.2928 865.418,58.4594 876,64.5C 876.667,78.5 876.667,92.5 876,106.5C 864.317,113.174 852.651,119.84 841,126.5C 828.94,120.22 817.106,113.554 805.5,106.5C 804.334,92.5119 804.167,78.5119 805,64.5C 816.478,58.1848 827.645,51.5182 838.5,44.5 Z"/></g>
<g><path style="opacity:1" fill="#e6e5e3" d="M 807.5,111.5 C 807.897,110.475 808.563,110.308 809.5,111C 817.668,116.252 826.001,121.252 834.5,126C 828.687,126.105 823.353,124.439 818.5,121C 814.666,117.998 811,114.831 807.5,111.5 Z"/></g>
<g><path style="opacity:1" fill="#4d4d4d" d="M 889.5,120.5 C 888.92,122.749 887.587,124.415 885.5,125.5C 886.08,123.251 887.413,121.585 889.5,120.5 Z"/></g>
<g><path style="opacity:1" fill="#4c4c4c" d="M 885.5,125.5 C 884.856,128.144 883.189,129.811 880.5,130.5C 880.586,129.504 880.252,128.671 879.5,128C 881.811,127.764 883.811,126.931 885.5,125.5 Z"/></g>
<g><path style="opacity:1" fill="#4a4a4a" d="M 880.5,130.5 C 877.875,133.815 874.542,136.149 870.5,137.5C 873.175,135.658 875.342,133.324 877,130.5C 877.986,131.171 879.153,131.171 880.5,130.5 Z"/></g>
<g><path style="opacity:1" fill="#3c3c3c" d="M 870.5,137.5 C 869.089,139.539 867.089,140.539 864.5,140.5C 866.181,138.992 868.181,137.992 870.5,137.5 Z"/></g>
<g><path style="opacity:1" fill="#5e5e5e" d="M 864.5,140.5 C 857.004,144.708 849.004,146.375 840.5,145.5C 848.679,144.598 856.679,142.931 864.5,140.5 Z"/></g>
<g><path style="opacity:1" fill="#fcfbfc" d="M 553.5,147.5 C 551.5,148.833 549.833,150.5 548.5,152.5C 547.206,153.29 546.039,154.29 545,155.5C 544.502,152.518 544.335,149.518 544.5,146.5C 547.713,146.19 550.713,146.523 553.5,147.5 Z"/></g>
<g><path style="opacity:1" fill="#141413" d="M 23.5,10.5 C 197.834,10.3333 372.167,10.5 546.5,11C 546.167,11.3333 545.833,11.6667 545.5,12C 552.036,18.3685 558.369,24.8685 564.5,31.5C 564.5,67.1667 564.5,102.833 564.5,138.5C 560.106,144.227 554.773,148.893 548.5,152.5C 549.833,150.5 551.5,148.833 553.5,147.5C 554.401,146.71 555.068,145.71 555.5,144.5C 557.814,142.523 560.147,140.523 562.5,138.5C 563.667,103.171 563.833,67.838 563,32.5C 560.963,30.2941 558.797,28.2941 556.5,26.5C 552.366,25.5151 548.032,25.1818 543.5,25.5C 542.847,69.7186 543.514,113.719 545.5,157.5C 545.196,158.15 544.863,158.817 544.5,159.5C 390.932,160.167 237.432,160.834 84,161.5C 63.9064,160.673 43.7397,160.173 23.5,160C 19.5,157.333 16.1667,154 13.5,150C 12.0692,149.535 10.9025,148.701 10,147.5C 9.66667,147.833 9.33333,148.167 9,148.5C 8.50001,107.501 8.33334,66.5014 8.5,25.5C 9.16667,25.5 9.83333,25.5 10.5,25.5C 10.5,31.1667 10.5,36.8333 10.5,42.5C 14.5,42.8333 14.5,43.1667 10.5,43.5C 10.3338,49.5092 10.5005,55.5092 11,61.5C 12.6665,60.6598 12.8331,61.1598 11.5,63C 12.1667,63.3333 12.8333,63.6667 13.5,64C 12.376,64.2492 11.376,64.7492 10.5,65.5C 10.5,78.8333 10.5,92.1667 10.5,105.5C 14.3107,106.738 14.3107,107.404 10.5,107.5C 9.90318,113.96 10.5698,120.126 12.5,126C 11.3659,127.016 11.6992,127.683 13.5,128C 12.552,128.483 11.552,128.649 10.5,128.5C 10.5,133.833 10.5,139.167 10.5,144.5C 11.1667,145.833 12.1667,146.833 13.5,147.5C 16.1288,150.631 18.9621,153.631 22,156.5C 22.4983,153.183 22.665,149.85 22.5,146.5C 22.5,145.833 22.5,145.167 22.5,144.5C 23.0868,138.697 22.4202,133.197 20.5,128C 21.7864,124.767 22.453,121.267 22.5,117.5C 22.453,113.733 21.7864,110.233 20.5,107C 21.8142,100.07 22.4809,92.9035 22.5,85.5C 22.4809,78.0965 21.8142,70.9298 20.5,64C 21.0944,63.5357 21.7611,63.369 22.5,63.5C 23.8333,50.8333 23.8333,38.1667 22.5,25.5C 22.5,25.1667 22.5,24.8333 22.5,24.5C 23.4861,20.03 23.8195,15.3633 23.5,10.5 Z"/></g>
<g><path style="opacity:1" fill="#fefefe" d="M 24.5,146.5 C 196.833,146.5 369.167,146.5 541.5,146.5C 541.5,150.5 541.5,154.5 541.5,158.5C 388.79,159.164 236.29,158.498 84,156.5C 64.4005,158.481 44.5672,159.147 24.5,158.5C 24.5,154.5 24.5,150.5 24.5,146.5 Z"/></g>
<g><path style="opacity:1" fill="#f1f0ee" d="M 22.5,146.5 C 22.665,149.85 22.4983,153.183 22,156.5C 18.9621,153.631 16.1288,150.631 13.5,147.5C 16.2869,146.523 19.2869,146.19 22.5,146.5 Z"/></g>
<g><path style="opacity:1" fill="#878684" d="M 10.5,144.5 C 14.5,144.5 18.5,144.5 22.5,144.5C 22.5,145.167 22.5,145.833 22.5,146.5C 19.2869,146.19 16.2869,146.523 13.5,147.5C 12.1667,146.833 11.1667,145.833 10.5,144.5 Z"/></g>
<g><path style="opacity:1" fill="#868686" d="M 541.5,25.5 C 541.833,25.5 542.167,25.5 542.5,25.5C 542.832,70.0031 542.499,114.336 541.5,158.5C 541.5,154.5 541.5,150.5 541.5,146.5C 369.167,146.5 196.833,146.5 24.5,146.5C 24.5,145.833 24.5,145.167 24.5,144.5C 44.1667,144.5 63.8333,144.5 83.5,144.5C 83.8333,140.5 84.1667,140.5 84.5,144.5C 236.833,144.5 389.167,144.5 541.5,144.5C 541.5,105.167 541.5,65.8333 541.5,26.5C 541.5,26.1667 541.5,25.8333 541.5,25.5 Z"/></g>
<g><path style="opacity:1" fill="#4e4d4b" d="M 22.5,25.5 C 23.8333,38.1667 23.8333,50.8333 22.5,63.5C 23.1046,56.3818 22.438,49.5485 20.5,43C 22.4255,37.4642 23.0922,31.6309 22.5,25.5 Z"/></g>
<g><path style="opacity:1" fill="#f3f3f2" d="M 10.5,25.5 C 14.5,25.5 18.5,25.5 22.5,25.5C 23.0922,31.6309 22.4255,37.4642 20.5,43C 22.438,49.5485 23.1046,56.3818 22.5,63.5C 21.7611,63.369 21.0944,63.5357 20.5,64C 21.8142,70.9298 22.4809,78.0965 22.5,85.5C 22.4809,92.9035 21.8142,100.07 20.5,107C 21.7864,110.233 22.453,113.733 22.5,117.5C 22.453,121.267 21.7864,124.767 20.5,128C 22.4202,133.197 23.0868,138.697 22.5,144.5C 18.5,144.5 14.5,144.5 10.5,144.5C 10.5,139.167 10.5,133.833 10.5,128.5C 11.552,128.649 12.552,128.483 13.5,128C 11.6992,127.683 11.3659,127.016 12.5,126C 10.5698,120.126 9.90318,113.96 10.5,107.5C 14.3107,107.404 14.3107,106.738 10.5,105.5C 10.5,92.1667 10.5,78.8333 10.5,65.5C 11.376,64.7492 12.376,64.2492 13.5,64C 12.8333,63.6667 12.1667,63.3333 11.5,63C 12.8331,61.1598 12.6665,60.6598 11,61.5C 10.5005,55.5092 10.3338,49.5092 10.5,43.5C 14.5,43.1667 14.5,42.8333 10.5,42.5C 10.5,36.8333 10.5,31.1667 10.5,25.5 Z"/></g>
<g><path style="opacity:1" fill="#4b4b49" d="M 13.5,120.5 C 15.6456,120.696 15.8122,121.696 14,123.5C 13.5172,122.552 13.3505,121.552 13.5,120.5 Z"/></g>
<g><path style="opacity:1" fill="#676765" d="M 11.5,110.5 C 12.0768,109.227 12.7435,109.227 13.5,110.5C 14.3256,111.451 14.4922,112.451 14,113.5C 13.1482,112.429 12.3149,111.429 11.5,110.5 Z"/></g>
<g><path style="opacity:1" fill="#525250" d="M 12.5,97.5 C 13.7965,98.8488 13.6298,100.182 12,101.5C 11.805,100.181 11.9717,98.8474 12.5,97.5 Z"/></g>
<g><path style="opacity:1" fill="#555553" d="M 13.5,92.5 C 14.2389,92.369 14.9056,92.5357 15.5,93C 14.1177,97.7055 13.4511,97.5388 13.5,92.5 Z"/></g>
<g><path style="opacity:1" fill="#4f4f4d" d="M 11.5,69.5 C 13.2726,70.3143 13.7726,71.6476 13,73.5C 12.2086,72.255 11.7086,70.9217 11.5,69.5 Z"/></g>
<g><path style="opacity:1" fill="#4b4b48" d="M 13.5,56.5 C 15.6456,56.6964 15.8122,57.6964 14,59.5C 13.5172,58.552 13.3505,57.552 13.5,56.5 Z"/></g>
<g><path style="opacity:1" fill="#fbfbfb" d="M 556.5,26.5 C 558.797,28.2941 560.963,30.2941 563,32.5C 563.833,67.838 563.667,103.171 562.5,138.5C 560.147,140.523 557.814,142.523 555.5,144.5C 551.833,144.5 548.167,144.5 544.5,144.5C 544.5,105.167 544.5,65.8333 544.5,26.5C 548.5,26.5 552.5,26.5 556.5,26.5 Z"/></g>
<g><path style="opacity:1" fill="#fefefe" d="M 541.5,26.5 C 541.5,65.8333 541.5,105.167 541.5,144.5C 389.167,144.5 236.833,144.5 84.5,144.5C 84.1667,140.5 83.8333,140.5 83.5,144.5C 63.8333,144.5 44.1667,144.5 24.5,144.5C 24.1869,131.754 24.5202,119.087 25.5,106.5C 25.5,79.8333 25.5,53.1667 25.5,26.5C 197.5,26.5 369.5,26.5 541.5,26.5 Z"/></g>
<g><path style="opacity:1" fill="#404040" d="M 82.5,124.5 C 83.7562,124.461 84.7562,124.961 85.5,126C 84.7511,127.734 84.2511,129.567 84,131.5C 83.5172,130.552 83.3505,129.552 83.5,128.5C 79.1617,128.378 78.8284,128.045 82.5,127.5C 82.5,126.5 82.5,125.5 82.5,124.5 Z"/></g>
<g><path style="opacity:1" fill="#585858" d="M 86.5,120.5 C 87.2389,120.369 87.9056,120.536 88.5,121C 85.856,125.838 85.1893,125.672 86.5,120.5 Z"/></g>
<g><path style="opacity:1" fill="#858585" d="M 82.5,118.5 C 83.5862,118.62 84.2528,119.287 84.5,120.5C 84.1667,121.167 83.8333,121.833 83.5,122.5C 82.5713,121.311 82.238,119.978 82.5,118.5 Z"/></g>
<g><path style="opacity:1" fill="#626262" d="M 89.5,115.5 C 90.2389,115.369 90.9056,115.536 91.5,116C 88.856,120.838 88.1893,120.672 89.5,115.5 Z"/></g>
<g><path style="opacity:1" fill="#5d5d5d" d="M 92.5,110.5 C 93.7965,111.849 93.6298,113.182 92,114.5C 91.805,113.181 91.9717,111.847 92.5,110.5 Z"/></g>
<g><path style="opacity:1" fill="#878787" d="M 82.5,112.5 C 83.5862,112.62 84.2528,113.287 84.5,114.5C 84.1667,115.167 83.8333,115.833 83.5,116.5C 82.5713,115.311 82.238,113.978 82.5,112.5 Z"/></g>
<g><path style="opacity:1" fill="#838383" d="M 82.5,100.5 C 83.6491,100.791 84.3158,101.624 84.5,103C 83.3965,104.889 83.3965,106.723 84.5,108.5C 84.1667,109.167 83.8333,109.833 83.5,110.5C 82.6143,109.675 82.281,108.675 82.5,107.5C 78.5,106.833 78.5,106.167 82.5,105.5C 82.5,103.833 82.5,102.167 82.5,100.5 Z"/></g>
<g><path style="opacity:1" fill="#929292" d="M 98.5,100.5 C 98.9725,102.97 98.1392,105.304 96,107.5C 95.6826,104.793 96.5159,102.46 98.5,100.5 Z"/></g>
<g><path style="opacity:1" fill="#909090" d="M 82.5,94.5 C 83.6491,94.7911 84.3158,95.6244 84.5,97C 84.1667,97.8333 83.8333,98.6667 83.5,99.5C 82.5481,97.9547 82.2148,96.288 82.5,94.5 Z"/></g>
<g><path style="opacity:1" fill="#898989" d="M 82.5,89.5 C 83.5862,89.62 84.2528,90.2867 84.5,91.5C 84.1667,92.1667 83.8333,92.8333 83.5,93.5C 82.5713,92.3112 82.238,90.9778 82.5,89.5 Z"/></g>
<g><path style="opacity:1" fill="#aaaaaa" d="M 107.5,86.5 C 106.136,90.8929 103.969,94.8929 101,98.5C 101.203,96.0627 102.037,93.7293 103.5,91.5C 102.145,90.3247 102.312,89.3247 104,88.5C 104.333,88.8333 104.667,89.1667 105,89.5C 105.377,88.0577 106.21,87.0577 107.5,86.5 Z"/></g>
<g><path style="opacity:1" fill="#868686" d="M 82.5,83.5 C 83.5862,83.62 84.2528,84.2867 84.5,85.5C 84.1667,86.1667 83.8333,86.8333 83.5,87.5C 82.5713,86.3112 82.238,84.9778 82.5,83.5 Z"/></g>
<g><path style="opacity:1" fill="#2d2d2d" d="M 107.5,86.5 C 106.972,85.1526 106.805,83.8193 107,82.5C 108.63,83.8179 108.797,85.1512 107.5,86.5 Z"/></g>
<g><path style="opacity:1" fill="#464646" d="M 103.5,77.5 C 105.085,78.0024 105.585,79.0024 105,80.5C 103.961,79.7562 103.461,78.7562 103.5,77.5 Z"/></g>
<g><path style="opacity:1" fill="#868686" d="M 82.5,77.5 C 83.5862,77.62 84.2528,78.2867 84.5,79.5C 84.1667,80.1667 83.8333,80.8333 83.5,81.5C 82.5713,80.3112 82.238,78.9778 82.5,77.5 Z"/></g>
<g><path style="opacity:1" fill="#4a4a4a" d="M 100.5,72.5 C 102.085,73.0024 102.585,74.0024 102,75.5C 100.961,74.7562 100.461,73.7562 100.5,72.5 Z"/></g>
<g><path style="opacity:1" fill="#878787" d="M 82.5,71.5 C 83.5862,71.62 84.2528,72.2867 84.5,73.5C 84.1667,74.1667 83.8333,74.8333 83.5,75.5C 82.5713,74.3112 82.238,72.9778 82.5,71.5 Z"/></g>
<g><path style="opacity:1" fill="#434343" d="M 97.5,66.5 C 98.8478,67.5268 99.3478,68.8602 99,70.5C 97.8118,69.4366 97.3118,68.1033 97.5,66.5 Z"/></g>
<g><path style="opacity:1" fill="#898989" d="M 82.5,65.5 C 83.5862,65.62 84.2528,66.2867 84.5,67.5C 84.1667,68.1667 83.8333,68.8333 83.5,69.5C 82.5713,68.3112 82.238,66.9778 82.5,65.5 Z"/></g>
<g><path style="opacity:1" fill="#707070" d="M 82.5,59.5 C 84.256,60.5521 84.9227,62.2188 84.5,64.5C 82.8008,64.6602 81.1341,64.4935 79.5,64C 80.448,63.5172 81.448,63.3505 82.5,63.5C 82.5,62.1667 82.5,60.8333 82.5,59.5 Z"/></g>
<g><path style="opacity:1" fill="#5b5b5b" d="M 91.5,56.5 C 92.8366,57.3149 93.8366,58.4815 94.5,60C 92.5216,59.967 91.5216,58.8004 91.5,56.5 Z"/></g>
<g><path style="opacity:1" fill="#898989" d="M 82.5,54.5 C 83.5862,54.62 84.2528,55.2867 84.5,56.5C 84.1667,57.1667 83.8333,57.8333 83.5,58.5C 82.5713,57.3112 82.238,55.9778 82.5,54.5 Z"/></g>
<g><path style="opacity:1" fill="#565656" d="M 88.5,51.5 C 89.8366,52.3149 90.8366,53.4815 91.5,55C 89.5216,54.967 88.5216,53.8004 88.5,51.5 Z"/></g>
<g><path style="opacity:1" fill="#878787" d="M 82.5,48.5 C 83.5862,48.62 84.2528,49.2867 84.5,50.5C 84.1667,51.1667 83.8333,51.8333 83.5,52.5C 82.5713,51.3112 82.238,49.9778 82.5,48.5 Z"/></g>
<g><path style="opacity:1" fill="#555555" d="M 85.5,46.5 C 86.8366,47.3149 87.8366,48.4815 88.5,50C 86.5216,49.967 85.5216,48.8004 85.5,46.5 Z"/></g>
<g><path style="opacity:1" fill="#575757" d="M 79.5,43.5 C 80.9464,42.3871 82.6131,42.2204 84.5,43C 85.8213,44.5445 85.4879,45.7112 83.5,46.5C 82.6143,45.675 82.281,44.675 82.5,43.5C 81.5,43.5 80.5,43.5 79.5,43.5 Z"/></g>
<g><path style="opacity:1" fill="#c1c1c0" d="M 25.5,25.5 C 197.5,25.5 369.5,25.5 541.5,25.5C 541.5,25.8333 541.5,26.1667 541.5,26.5C 369.5,26.5 197.5,26.5 25.5,26.5C 25.5,53.1667 25.5,79.8333 25.5,106.5C 24.1667,79.5 24.1667,52.5 25.5,25.5 Z"/></g>
<g><path style="opacity:1" fill="#4f4f4f" d="M 541.5,12.5 C 542.485,16.6344 542.818,20.9677 542.5,25.5C 542.167,25.5 541.833,25.5 541.5,25.5C 369.5,25.5 197.5,25.5 25.5,25.5C 25.5,25.1667 25.5,24.8333 25.5,24.5C 197.5,24.5 369.5,24.5 541.5,24.5C 541.5,20.5 541.5,16.5 541.5,12.5 Z"/></g>
<g><path style="opacity:1" fill="#898886" d="M 545.5,15.5 C 544.523,18.2869 544.19,21.2869 544.5,24.5C 543.194,21.3132 543.194,17.9798 544.5,14.5C 545.107,14.6236 545.44,14.9569 545.5,15.5 Z"/></g>
<g><path style="opacity:1" fill="#edeceb" d="M 545.5,15.5 C 548.631,18.1288 551.631,20.9621 554.5,24C 551.183,24.4983 547.85,24.665 544.5,24.5C 544.19,21.2869 544.523,18.2869 545.5,15.5 Z"/></g>
<g><path style="opacity:1" fill="#fefefe" d="M 541.5,12.5 C 541.5,16.5 541.5,20.5 541.5,24.5C 369.5,24.5 197.5,24.5 25.5,24.5C 24.5166,20.7016 24.1832,16.7016 24.5,12.5C 196.833,12.5 369.167,12.5 541.5,12.5 Z"/></g>
</svg>
