<?xml version="1.0" encoding="UTF-8"?>
<!DOCTYPE svg PUBLIC "-//W3C//DTD SVG 1.1//EN" "http://www.w3.org/Graphics/SVG/1.1/DTD/svg11.dtd">
<svg xmlns="http://www.w3.org/2000/svg" version="1.1" width="1022px" height="187px" style="shape-rendering:geometricPrecision; text-rendering:geometricPrecision; image-rendering:optimizeQuality; fill-rule:evenodd; clip-rule:evenodd" xmlns:xlink="http://www.w3.org/1999/xlink">
<g><path style="opacity:1" fill="#fcfcfc" d="M -0.5,-0.5 C 340.167,-0.5 680.833,-0.5 1021.5,-0.5C 1021.5,61.8333 1021.5,124.167 1021.5,186.5C 680.833,186.5 340.167,186.5 -0.5,186.5C -0.5,124.167 -0.5,61.8333 -0.5,-0.5 Z"/></g>
<g><path style="opacity:1" fill="#272626" d="M 917.5,8.5 C 962.253,5.53511 993.087,23.5351 1010,62.5C 1019.53,95.2734 1013.86,123.607 993,147.5C 976.652,164.755 955.485,173.422 929.5,173.5C 887.042,170.608 860.542,147.941 850,105.5C 845.54,72.2112 856.373,45.0445 882.5,24C 893.331,16.5769 904.997,11.4103 917.5,8.5 Z"/></g>
<g><path style="opacity:1" fill="#f9f9f9" d="M 917.5,10.5 C 957.98,6.81515 987.48,22.8152 1006,58.5C 1017.99,90.232 1013.32,119.232 992,145.5C 965.855,171.317 935.355,178.151 900.5,166C 863.244,147.33 847.077,117.163 852,75.5C 861.102,40.8981 882.935,19.2314 917.5,10.5 Z"/></g>
<g><path style="opacity:1" fill="#424242" d="M 987.5,54.5 C 998.044,69.1107 1001.54,85.444 998,103.5C 996.901,109.678 994.734,115.345 991.5,120.5C 1000.48,97.8509 999.145,75.8509 987.5,54.5 Z"/></g>
<g><path style="opacity:1" fill="#262524" d="M 924.5,42.5 C 951.764,41.5416 969.931,53.875 979,79.5C 982.578,102.393 975.411,119.893 957.5,132C 931.979,145.328 910.146,140.828 892,118.5C 891.667,119.167 891.333,119.833 891,120.5C 889.288,114.741 887.288,109.074 885,103.5C 880.29,71.409 893.457,51.0757 924.5,42.5 Z"/></g>
<g><path style="opacity:1" fill="#eeeeec" d="M 967.5,118.5 C 968.525,118.897 968.692,119.563 968,120.5C 959.938,129.279 950.105,134.445 938.5,136C 948.23,130.141 957.897,124.308 967.5,118.5 Z"/></g>
<g><path style="opacity:1" fill="#e8e6e5" d="M 894.5,119.5 C 895.721,118.535 897.054,118.702 898.5,120C 907.335,125.585 916.335,130.919 925.5,136C 919.804,136.328 914.471,134.994 909.5,132C 904.043,128.375 899.043,124.209 894.5,119.5 Z"/></g>
<g><path style="opacity:1" fill="#4e4e4c" d="M 888.5,108.5 C 889.833,96.8333 889.833,85.1667 888.5,73.5C 888.783,72.7109 889.283,72.0442 890,71.5C 890.833,84.1798 890.666,96.8465 889.5,109.5C 888.893,109.376 888.56,109.043 888.5,108.5 Z"/></g>
<g><path style="opacity:1" fill="#eeeeeb" d="M 888.5,73.5 C 889.833,85.1667 889.833,96.8333 888.5,108.5C 884.542,96.837 884.542,85.1704 888.5,73.5 Z"/></g>
<g><path style="opacity:1" fill="#bdbcba" d="M 975.5,75.5 C 974.167,85.8333 974.167,96.1667 975.5,106.5C 975.539,107.756 975.039,108.756 974,109.5C 973.333,96.8333 973.333,84.1667 974,71.5C 974.41,72.9007 974.91,74.234 975.5,75.5 Z"/></g>
<g><path style="opacity:1" fill="#f2f1ef" d="M 975.5,75.5 C 978.138,85.8197 978.138,96.1531 975.5,106.5C 974.167,96.1667 974.167,85.8333 975.5,75.5 Z"/></g>
<g><path style="opacity:1" fill="#ebebea" d="M 938.5,46.5 C 950.275,46.8901 959.941,51.8901 967.5,61.5C 965.477,62.041 963.477,61.541 961.5,60C 954.135,54.9841 946.468,50.4841 938.5,46.5 Z"/></g>
<g><path style="opacity:1" fill="#ededeb" d="M 921.5,45.5 C 922.873,45.3433 924.207,45.51 925.5,46C 915.749,51.9593 905.916,57.7926 896,63.5C 897.237,60.224 899.403,57.3906 902.5,55C 908.378,50.7274 914.712,47.5607 921.5,45.5 Z"/></g>
<g><path style="opacity:1" fill="#414141" d="M 959.5,30.5 C 933.203,20.5796 909.203,24.4129 887.5,42C 873.521,55.4656 866.187,71.9656 865.5,91.5C 866.214,58.6069 882.214,36.7736 913.5,26C 929.54,21.6986 944.873,23.1986 959.5,30.5 Z"/></g>
<g><path style="opacity:1" fill="#fdfdfc" d="M 929.5,45.5 C 932.425,45.4598 935.091,46.2932 937.5,48C 948.5,54.5 959.5,61 970.5,67.5C 971.666,83.156 971.833,98.8227 971,114.5C 957.939,121.86 944.939,129.193 932,136.5C 918.652,129.574 905.485,122.241 892.5,114.5C 891.167,98.8333 891.167,83.1667 892.5,67.5C 905.392,60.8959 917.726,53.5626 929.5,45.5 Z"/></g>
<g><path style="opacity:1" fill="#3b3b3b" d="M 959.5,30.5 C 971.603,35.2703 980.937,43.2703 987.5,54.5C 982.312,48.823 977.312,43.6563 972.5,39C 968.102,36.1428 963.768,33.3095 959.5,30.5 Z"/></g>
<g><path style="opacity:1" fill="#414141" d="M 991.5,120.5 C 989.281,126.586 985.781,131.919 981,136.5C 980.517,137.448 980.351,138.448 980.5,139.5C 976.487,141.322 972.82,143.822 969.5,147C 957.92,154.697 945.253,158.197 931.5,157.5C 946.372,156.988 959.705,152.322 971.5,143.5C 972.429,142.311 972.762,140.978 972.5,139.5C 970.801,139.66 969.134,139.494 967.5,139C 969.433,138.749 971.266,138.249 973,137.5C 973.333,138.833 973.667,140.167 974,141.5C 977.306,138.194 980.64,134.86 984,131.5C 986.363,127.655 988.863,123.989 991.5,120.5 Z"/></g>
<g><path style="opacity:1" fill="#7d7d7b" d="M 9.5,154.5 C 10.3092,156.028 10.9759,157.694 11.5,159.5C 10.7784,159.918 10.2784,160.584 10,161.5C 9.50335,159.19 9.33669,156.857 9.5,154.5 Z"/></g>
<g><path style="opacity:1" fill="#151515" d="M 604.5,171.5 C 603.527,171.987 602.527,172.487 601.5,173C 432,173.167 262.666,173.667 93.5,174.5C 92.8897,176.85 92.5563,176.517 92.5,173.5C 70.1642,173.667 47.8308,173.5 25.5,173C 20.9645,168.297 16.2979,163.797 11.5,159.5C 10.9759,157.694 10.3092,156.028 9.5,154.5C 10.3068,110.852 10.8068,67.1849 11,23.5C 15.8333,18.6667 20.6667,13.8333 25.5,9C 219.167,8.33333 412.833,8.33333 606.5,9C 605.833,9.33333 605.167,9.66667 604.5,10C 611.5,17 618.5,24 625.5,31C 649.5,31.3333 673.5,31.6667 697.5,32C 698.931,32.4652 700.097,33.2986 701,34.5C 701.667,71.5 701.667,108.5 701,145.5C 700.667,109.167 700.333,72.8333 700,36.5C 699.167,35.6667 698.333,34.8333 697.5,34C 673.836,33.5 650.169,33.3334 626.5,33.5C 626.5,71.8333 626.5,110.167 626.5,148.5C 649.502,148.333 672.502,148.5 695.5,149C 672.314,150.323 648.981,150.99 625.5,151C 618.632,158.036 611.632,164.869 604.5,171.5 Z"/></g>
<g><path style="opacity:1" fill="#f7f6f5" d="M 614.5,158.5 C 611.167,162.5 607.5,166.167 603.5,169.5C 603.5,165.833 603.5,162.167 603.5,158.5C 607.167,158.5 610.833,158.5 614.5,158.5 Z"/></g>
<g><path style="opacity:1" fill="#f6f6f5" d="M 27.5,158.5 C 49.1667,158.5 70.8333,158.5 92.5,158.5C 92.8333,163.833 93.1667,163.833 93.5,158.5C 262.5,158.5 431.5,158.5 600.5,158.5C 600.5,162.833 600.5,167.167 600.5,171.5C 409.667,172.5 218.667,172.833 27.5,172.5C 27.5,167.833 27.5,163.167 27.5,158.5 Z"/></g>
<g><path style="opacity:1" fill="#fcfcfb" d="M 14.5,159.5 C 17.9619,158.518 21.6286,158.185 25.5,158.5C 25.6653,162.182 25.4986,165.848 25,169.5C 21.6309,165.963 18.1309,162.629 14.5,159.5 Z"/></g>
<g><path style="opacity:1" fill="#575757" d="M 600.5,25.5 C 600.833,25.5 601.167,25.5 601.5,25.5C 601.832,74.3362 601.499,123.003 600.5,171.5C 600.5,167.167 600.5,162.833 600.5,158.5C 431.5,158.5 262.5,158.5 93.5,158.5C 93.1667,163.833 92.8333,163.833 92.5,158.5C 70.8333,158.5 49.1667,158.5 27.5,158.5C 27.5,158.167 27.5,157.833 27.5,157.5C 218.667,157.833 409.667,157.5 600.5,156.5C 600.5,112.833 600.5,69.1667 600.5,25.5 Z"/></g>
<g><path style="opacity:1" fill="#616161" d="M 12.5,156.5 C 16.8333,156.5 21.1667,156.5 25.5,156.5C 25.5,157.167 25.5,157.833 25.5,158.5C 21.6286,158.185 17.9619,158.518 14.5,159.5C 13.5987,158.71 12.9321,157.71 12.5,156.5 Z"/></g>
<g><path style="opacity:1" fill="#504f4d" d="M 25.5,137.5 C 26.8073,143.932 26.8073,150.266 25.5,156.5C 26.0614,150.276 25.3947,144.276 23.5,138.5C 23.9569,137.702 24.6236,137.369 25.5,137.5 Z"/></g>
<g><path style="opacity:1" fill="#838280" d="M 12.5,116.5 C 11.9323,123.053 12.599,129.387 14.5,135.5C 13.2822,136.803 13.6155,137.803 15.5,138.5C 14.675,139.386 13.675,139.719 12.5,139.5C 11.2525,131.692 11.2525,124.025 12.5,116.5 Z"/></g>
<g><path style="opacity:1" fill="#9b9b9a" d="M 27.5,24.5 C 218.667,24.167 409.667,24.5003 600.5,25.5C 409.833,25.5 219.167,25.5 28.5,25.5C 28.5,69.1667 28.5,112.833 28.5,156.5C 219.167,156.5 409.833,156.5 600.5,156.5C 409.667,157.5 218.667,157.833 27.5,157.5C 27.5,120.5 27.5,83.5 27.5,46.5C 27.5,42.5 27.5,38.5 27.5,34.5C 27.5,31.1667 27.5,27.8333 27.5,24.5 Z"/></g>
<g><path style="opacity:1" fill="#7e7d7c" d="M 12.5,69.5 C 13.6527,70.3132 13.6527,71.3132 12.5,72.5C 15.1677,73.515 15.8344,75.1817 14.5,77.5C 13.7492,76.624 13.2492,75.624 13,74.5C 12.3333,85.5 12.3333,96.5 13,107.5C 13.4186,106.328 14.0853,105.328 15,104.5C 15.2444,106.93 14.411,108.93 12.5,110.5C 11.1784,96.9313 11.1784,83.2646 12.5,69.5 Z"/></g>
<g><path style="opacity:1" fill="#52514f" d="M 25.5,66.5 C 26.8231,82.2645 26.8231,97.9312 25.5,113.5C 26.1292,97.9932 25.4626,82.6598 23.5,67.5C 23.9569,66.7025 24.6236,66.3691 25.5,66.5 Z"/></g>
<g><path style="opacity:1" fill="#898788" d="M 12.5,45.5 C 11.9323,52.0532 12.599,58.3865 14.5,64.5C 14.3764,65.1067 14.0431,65.44 13.5,65.5C 13.19,64.2617 12.69,64.2617 12,65.5C 11.1794,58.6536 11.346,51.987 12.5,45.5 Z"/></g>
<g><path style="opacity:1" fill="#f6f5f5" d="M 12.5,25.5 C 16.8333,25.5 21.1667,25.5 25.5,25.5C 26.0614,31.7239 25.3947,37.7239 23.5,43.5C 25.4203,50.96 26.0869,58.6266 25.5,66.5C 24.6236,66.3691 23.9569,66.7025 23.5,67.5C 25.4626,82.6598 26.1292,97.9932 25.5,113.5C 24.6236,113.369 23.9569,113.702 23.5,114.5C 25.4203,121.96 26.0869,129.627 25.5,137.5C 24.6236,137.369 23.9569,137.702 23.5,138.5C 25.3947,144.276 26.0614,150.276 25.5,156.5C 21.1667,156.5 16.8333,156.5 12.5,156.5C 11.1667,150.833 11.1667,145.167 12.5,139.5C 13.675,139.719 14.675,139.386 15.5,138.5C 13.6155,137.803 13.2822,136.803 14.5,135.5C 12.599,129.387 11.9323,123.053 12.5,116.5C 12.9175,115.778 13.5842,115.278 14.5,115C 12.8934,113.951 12.2267,112.451 12.5,110.5C 14.411,108.93 15.2444,106.93 15,104.5C 14.0853,105.328 13.4186,106.328 13,107.5C 12.3333,96.5 12.3333,85.5 13,74.5C 13.2492,75.624 13.7492,76.624 14.5,77.5C 15.8344,75.1817 15.1677,73.515 12.5,72.5C 13.6527,71.3132 13.6527,70.3132 12.5,69.5C 12.5774,68.2502 13.244,67.4169 14.5,67C 13.944,66.6174 13.6107,66.1174 13.5,65.5C 14.0431,65.44 14.3764,65.1067 14.5,64.5C 12.599,58.3865 11.9323,52.0532 12.5,45.5C 12.5,45.1667 12.5,44.8333 12.5,44.5C 16.5,43.8333 16.5,43.1667 12.5,42.5C 12.5,36.8333 12.5,31.1667 12.5,25.5 Z"/></g>
<g><path style="opacity:1" fill="#7f7f7f" d="M 16.5,137.5 C 18.288,137.215 19.9547,137.548 21.5,138.5C 20.6667,138.833 19.8333,139.167 19,139.5C 17.6244,139.316 16.7911,138.649 16.5,137.5 Z"/></g>
<g><path style="opacity:1" fill="#3e3e3e" d="M 15.5,129.5 C 17.8075,130.405 17.8075,131.738 15.5,133.5C 14.7084,132.3 14.7084,130.967 15.5,129.5 Z"/></g>
<g><path style="opacity:1" fill="#40403e" d="M 13.5,117.5 C 15.7279,118.322 16.3946,119.655 15.5,121.5C 14.2949,120.423 13.6282,119.09 13.5,117.5 Z"/></g>
<g><path style="opacity:1" fill="#636363" d="M 17.5,113.5 C 18.9778,113.238 20.3112,113.571 21.5,114.5C 19.9255,115.631 18.2588,115.798 16.5,115C 17.056,114.617 17.3893,114.117 17.5,113.5 Z"/></g>
<g><path style="opacity:1" fill="#3a3a3a" d="M 15.5,98.5 C 16.3764,98.3691 17.0431,98.7025 17.5,99.5C 15.9929,103.355 15.3262,103.021 15.5,98.5 Z"/></g>
<g><path style="opacity:1" fill="#484848" d="M 15.5,79.5 C 16.2485,80.531 16.9152,81.6976 17.5,83C 17.1667,83.1667 16.8333,83.3333 16.5,83.5C 15.5713,82.3112 15.238,80.9778 15.5,79.5 Z"/></g>
<g><path style="opacity:1" fill="#747474" d="M 17.5,66.5 C 18.9778,66.238 20.3112,66.5713 21.5,67.5C 20.8333,67.8333 20.1667,68.1667 19.5,68.5C 18.2867,68.2528 17.62,67.5862 17.5,66.5 Z"/></g>
<g><path style="opacity:1" fill="#3e3d3e" d="M 15.5,58.5 C 17.8075,59.405 17.8075,60.7383 15.5,62.5C 14.7084,61.3002 14.7084,59.9669 15.5,58.5 Z"/></g>
<g><path style="opacity:1" fill="#424141" d="M 13.5,46.5 C 15.7279,47.3218 16.3946,48.6552 15.5,50.5C 14.2949,49.4231 13.6282,48.0898 13.5,46.5 Z"/></g>
<g><path style="opacity:1" fill="#393836" d="M 25.5,25.5 C 26.1667,28.5 26.8333,31.5 27.5,34.5C 27.5,38.5 27.5,42.5 27.5,46.5C 26.8333,53.1667 26.1667,59.8333 25.5,66.5C 26.0869,58.6266 25.4203,50.96 23.5,43.5C 25.3947,37.7239 26.0614,31.7239 25.5,25.5 Z"/></g>
<g><path style="opacity:1" fill="#626262" d="M 17.5,42.5 C 18.9778,42.238 20.3112,42.5713 21.5,43.5C 19.9255,44.6309 18.2588,44.7975 16.5,44C 17.056,43.6174 17.3893,43.1174 17.5,42.5 Z"/></g>
<g><path style="opacity:1" fill="#7c7c7c" d="M 603.5,12.5 C 603.5,16.1667 603.5,19.8333 603.5,23.5C 607.167,23.5 610.833,23.5 614.5,23.5C 615.5,23.8333 616.167,24.5 616.5,25.5C 612.167,25.5 607.833,25.5 603.5,25.5C 603.5,69.1667 603.5,112.833 603.5,156.5C 607.833,156.5 612.167,156.5 616.5,156.5C 616.167,157.5 615.5,158.167 614.5,158.5C 610.833,158.5 607.167,158.5 603.5,158.5C 603.5,162.167 603.5,165.833 603.5,169.5C 602.167,117.167 602.167,64.8333 603.5,12.5 Z"/></g>
<g><path style="opacity:1" fill="#7f7e7d" d="M 12.5,25.5 C 12.5,31.1667 12.5,36.8333 12.5,42.5C 16.5,43.1667 16.5,43.8333 12.5,44.5C 11.1927,38.0676 11.1927,31.7343 12.5,25.5 Z"/></g>
<g><path style="opacity:1" fill="#fefefd" d="M 616.5,25.5 C 619.13,27.6281 621.63,29.9614 624,32.5C 624.667,71.5 624.667,110.5 624,149.5C 621.63,152.039 619.13,154.372 616.5,156.5C 612.167,156.5 607.833,156.5 603.5,156.5C 603.5,112.833 603.5,69.1667 603.5,25.5C 607.833,25.5 612.167,25.5 616.5,25.5 Z"/></g>
<g><path style="opacity:1" fill="#fefefe" d="M 600.5,25.5 C 600.5,69.1667 600.5,112.833 600.5,156.5C 409.833,156.5 219.167,156.5 28.5,156.5C 28.5,112.833 28.5,69.1667 28.5,25.5C 219.167,25.5 409.833,25.5 600.5,25.5 Z"/></g>
<g><path style="opacity:1" fill="#7b7b7b" d="M 81.5,137.5 C 83.288,137.215 84.9547,137.548 86.5,138.5C 85.6667,138.833 84.8333,139.167 84,139.5C 82.6244,139.316 81.7911,138.649 81.5,137.5 Z"/></g>
<g><path style="opacity:1" fill="#7f7f7f" d="M 75.5,137.5 C 77.288,137.215 78.9547,137.548 80.5,138.5C 79.6667,138.833 78.8333,139.167 78,139.5C 76.6244,139.316 75.7911,138.649 75.5,137.5 Z"/></g>
<g><path style="opacity:1" fill="#7a7a7a" d="M 68.5,137.5 C 70.288,137.215 71.9547,137.548 73.5,138.5C 72.6667,138.833 71.8333,139.167 71,139.5C 69.6244,139.316 68.7911,138.649 68.5,137.5 Z"/></g>
<g><path style="opacity:1" fill="#737373" d="M 62.5,137.5 C 64.1992,137.34 65.8659,137.506 67.5,138C 65.4153,140.139 63.7487,139.972 62.5,137.5 Z"/></g>
<g><path style="opacity:1" fill="#7b7b7b" d="M 55.5,137.5 C 57.288,137.215 58.9547,137.548 60.5,138.5C 59.6667,138.833 58.8333,139.167 58,139.5C 56.6244,139.316 55.7911,138.649 55.5,137.5 Z"/></g>
<g><path style="opacity:1" fill="#7a7a7a" d="M 49.5,137.5 C 51.288,137.215 52.9547,137.548 54.5,138.5C 53.6667,138.833 52.8333,139.167 52,139.5C 50.6244,139.316 49.7911,138.649 49.5,137.5 Z"/></g>
<g><path style="opacity:1" fill="#787878" d="M 42.5,137.5 C 44.288,137.215 45.9547,137.548 47.5,138.5C 46.6667,138.833 45.8333,139.167 45,139.5C 43.6244,139.316 42.7911,138.649 42.5,137.5 Z"/></g>
<g><path style="opacity:1" fill="#7a7a7a" d="M 36.5,137.5 C 38.288,137.215 39.9547,137.548 41.5,138.5C 40.6667,138.833 39.8333,139.167 39,139.5C 37.6244,139.316 36.7911,138.649 36.5,137.5 Z"/></g>
<g><path style="opacity:1" fill="#787877" d="M 29.5,137.5 C 31.288,137.215 32.9547,137.548 34.5,138.5C 33.6667,138.833 32.8333,139.167 32,139.5C 30.6244,139.316 29.7911,138.649 29.5,137.5 Z"/></g>
<g><path style="opacity:1" fill="#484848" d="M 92.5,134.5 C 94.5988,135.37 94.9321,136.703 93.5,138.5C 91.8333,139.833 90.1667,139.833 88.5,138.5C 89.6888,137.571 91.0222,137.238 92.5,137.5C 92.5,136.5 92.5,135.5 92.5,134.5 Z"/></g>
<g><path style="opacity:1" fill="#313131" d="M 96.5,130.5 C 97.7125,131.497 97.5458,132.497 96,133.5C 95.5304,132.423 95.6971,131.423 96.5,130.5 Z"/></g>
<g><path style="opacity:1" fill="#3e3e3e" d="M 99.5,124.5 C 100.239,124.369 100.906,124.536 101.5,125C 98.856,129.838 98.1893,129.672 99.5,124.5 Z"/></g>
<g><path style="opacity:1" fill="#424242" d="M 103.5,118.5 C 104.334,120.263 103.834,121.93 102,123.5C 101.878,121.718 102.378,120.052 103.5,118.5 Z"/></g>
<g><path style="opacity:1" fill="#444444" d="M 92.5,108.5 C 93.9617,114.453 93.9617,116.787 92.5,115.5C 87.1667,114.833 87.1667,114.167 92.5,113.5C 92.5,111.833 92.5,110.167 92.5,108.5 Z"/></g>
<g><path style="opacity:1" fill="#656565" d="M 81.5,113.5 C 83.288,113.215 84.9547,113.548 86.5,114.5C 85.6667,114.833 84.8333,115.167 84,115.5C 82.6244,115.316 81.7911,114.649 81.5,113.5 Z"/></g>
<g><path style="opacity:1" fill="#666666" d="M 75.5,113.5 C 77.4286,113.231 79.0953,113.731 80.5,115C 79.6667,115.167 78.8333,115.333 78,115.5C 76.6244,115.316 75.7911,114.649 75.5,113.5 Z"/></g>
<g><path style="opacity:1" fill="#636363" d="M 68.5,113.5 C 70.288,113.215 71.9547,113.548 73.5,114.5C 72.6667,114.833 71.8333,115.167 71,115.5C 69.6244,115.316 68.7911,114.649 68.5,113.5 Z"/></g>
<g><path style="opacity:1" fill="#646464" d="M 62.5,113.5 C 64.4286,113.231 66.0953,113.731 67.5,115C 66.6667,115.167 65.8333,115.333 65,115.5C 63.6244,115.316 62.7911,114.649 62.5,113.5 Z"/></g>
<g><path style="opacity:1" fill="#646464" d="M 55.5,113.5 C 57.288,113.215 58.9547,113.548 60.5,114.5C 59.6667,114.833 58.8333,115.167 58,115.5C 56.6244,115.316 55.7911,114.649 55.5,113.5 Z"/></g>
<g><path style="opacity:1" fill="#666666" d="M 49.5,113.5 C 51.4286,113.231 53.0953,113.731 54.5,115C 53.6667,115.167 52.8333,115.333 52,115.5C 50.6244,115.316 49.7911,114.649 49.5,113.5 Z"/></g>
<g><path style="opacity:1" fill="#646464" d="M 42.5,113.5 C 44.288,113.215 45.9547,113.548 47.5,114.5C 46.6667,114.833 45.8333,115.167 45,115.5C 43.6244,115.316 42.7911,114.649 42.5,113.5 Z"/></g>
<g><path style="opacity:1" fill="#636363" d="M 36.5,113.5 C 38.288,113.215 39.9547,113.548 41.5,114.5C 40.6667,114.833 39.8333,115.167 39,115.5C 37.6244,115.316 36.7911,114.649 36.5,113.5 Z"/></g>
<g><path style="opacity:1" fill="#606060" d="M 30.5,113.5 C 31.9778,113.238 33.3112,113.571 34.5,114.5C 32.9255,115.631 31.2588,115.798 29.5,115C 30.056,114.617 30.3893,114.117 30.5,113.5 Z"/></g>
<g><path style="opacity:1" fill="#898989" d="M 109.5,107.5 C 110.124,107.917 110.457,108.584 110.5,109.5C 108.833,112.167 107.167,114.833 105.5,117.5C 105.167,117.167 104.833,116.833 104.5,116.5C 106.445,113.607 108.111,110.607 109.5,107.5 Z"/></g>
<g><path style="opacity:1" fill="#4f4f4f" d="M 112.5,101.5 C 113.376,101.369 114.043,101.702 114.5,102.5C 111.708,107.835 111.042,107.502 112.5,101.5 Z"/></g>
<g><path style="opacity:1" fill="#393939" d="M 116.5,96.5 C 117.559,98.0699 117.059,99.4032 115,100.5C 114.7,98.9343 115.2,97.601 116.5,96.5 Z"/></g>
<g><path style="opacity:1" fill="#3b3b3b" d="M 117.5,88.5 C 117.56,87.9569 117.893,87.6236 118.5,87.5C 121.297,90.53 120.964,92.6967 117.5,94C 120.07,92.0099 120.07,90.1766 117.5,88.5 Z"/></g>
<g><path style="opacity:1" fill="#393939" d="M 114.5,81.5 C 115.837,82.3149 116.837,83.4815 117.5,85C 115.522,84.967 114.522,83.8004 114.5,81.5 Z"/></g>
<g><path style="opacity:1" fill="#4d4d4d" d="M 111.5,76.5 C 113.832,77.1617 114.499,78.495 113.5,80.5C 112.295,79.4231 111.628,78.0898 111.5,76.5 Z"/></g>
<g><path style="opacity:1" fill="#464646" d="M 108.5,70.5 C 109.837,71.3149 110.837,72.4815 111.5,74C 109.066,74.3329 108.066,73.1662 108.5,70.5 Z"/></g>
<g><path style="opacity:1" fill="#969696" d="M 88.5,66.5 C 89.9187,67.4511 91.5853,67.7845 93.5,67.5C 93.6621,69.5273 93.4955,71.5273 93,73.5C 92.5065,71.8659 92.3398,70.1992 92.5,68.5C 90.8561,68.2865 89.3561,68.6198 88,69.5C 87.6667,68.8333 87.3333,68.1667 87,67.5C 85.1862,68.7596 83.3529,68.7596 81.5,67.5C 83.7427,66.5258 86.076,66.1924 88.5,66.5 Z"/></g>
<g><path style="opacity:1" fill="#7d7d7d" d="M 75.5,66.5 C 77.288,66.2148 78.9547,66.5481 80.5,67.5C 79.6667,67.8333 78.8333,68.1667 78,68.5C 76.6244,68.3158 75.7911,67.6491 75.5,66.5 Z"/></g>
<g><path style="opacity:1" fill="#7c7c7c" d="M 68.5,66.5 C 70.288,66.2148 71.9547,66.5481 73.5,67.5C 72.6667,67.8333 71.8333,68.1667 71,68.5C 69.6244,68.3158 68.7911,67.6491 68.5,66.5 Z"/></g>
<g><path style="opacity:1" fill="#7c7c7c" d="M 62.5,66.5 C 64.288,66.2148 65.9547,66.5481 67.5,67.5C 66.6667,67.8333 65.8333,68.1667 65,68.5C 63.6244,68.3158 62.7911,67.6491 62.5,66.5 Z"/></g>
<g><path style="opacity:1" fill="#7a7a7a" d="M 55.5,66.5 C 57.288,66.2148 58.9547,66.5481 60.5,67.5C 59.6667,67.8333 58.8333,68.1667 58,68.5C 56.6244,68.3158 55.7911,67.6491 55.5,66.5 Z"/></g>
<g><path style="opacity:1" fill="#797979" d="M 49.5,66.5 C 51.288,66.2148 52.9547,66.5481 54.5,67.5C 53.6667,67.8333 52.8333,68.1667 52,68.5C 50.6244,68.3158 49.7911,67.6491 49.5,66.5 Z"/></g>
<g><path style="opacity:1" fill="#7c7c7c" d="M 42.5,66.5 C 44.288,66.2148 45.9547,66.5481 47.5,67.5C 46.6667,67.8333 45.8333,68.1667 45,68.5C 43.6244,68.3158 42.7911,67.6491 42.5,66.5 Z"/></g>
<g><path style="opacity:1" fill="#7a7a7a" d="M 36.5,66.5 C 38.288,66.2148 39.9547,66.5481 41.5,67.5C 40.6667,67.8333 39.8333,68.1667 39,68.5C 37.6244,68.3158 36.7911,67.6491 36.5,66.5 Z"/></g>
<g><path style="opacity:1" fill="#797978" d="M 29.5,66.5 C 31.288,66.2148 32.9547,66.5481 34.5,67.5C 33.6667,67.8333 32.8333,68.1667 32,68.5C 30.6244,68.3158 29.7911,67.6491 29.5,66.5 Z"/></g>
<g><path style="opacity:1" fill="#4c4c4c" d="M 104.5,64.5 C 106.908,65.3148 107.741,66.9814 107,69.5C 105.906,67.9221 105.072,66.2554 104.5,64.5 Z"/></g>
<g><path style="opacity:1" fill="#303030" d="M 93.5,67.5 C 91.5853,67.7845 89.9187,67.4511 88.5,66.5C 89.8333,66.5 91.1667,66.5 92.5,66.5C 93.0031,61.5 93.3364,61.8333 93.5,67.5 Z"/></g>
<g><path style="opacity:1" fill="#3f3f3f" d="M 101.5,59.5 C 103.609,60.0524 104.442,61.3858 104,63.5C 102.519,62.5291 101.685,61.1958 101.5,59.5 Z"/></g>
<g><path style="opacity:1" fill="#3b3b3b" d="M 98.5,53.5 C 99.8366,54.3149 100.837,55.4815 101.5,57C 99.5216,56.967 98.5216,55.8004 98.5,53.5 Z"/></g>
<g><path style="opacity:1" fill="#353535" d="M 95.5,48.5 C 97.0847,49.0024 97.5847,50.0024 97,51.5C 95.9614,50.7562 95.4614,49.7562 95.5,48.5 Z"/></g>
<g><path style="opacity:1" fill="#484848" d="M 88.5,42.5 C 91.2882,42.0769 93.2882,43.0769 94.5,45.5C 92.9954,48.1306 92.3287,47.7973 92.5,44.5C 90.5168,44.8432 89.1834,44.1765 88.5,42.5 Z"/></g>
<g><path style="opacity:1" fill="#646464" d="M 81.5,42.5 C 83.288,42.2148 84.9547,42.5481 86.5,43.5C 85.6667,43.8333 84.8333,44.1667 84,44.5C 82.6244,44.3158 81.7911,43.6491 81.5,42.5 Z"/></g>
<g><path style="opacity:1" fill="#676767" d="M 75.5,42.5 C 77.4286,42.2308 79.0953,42.7308 80.5,44C 79.6667,44.1667 78.8333,44.3333 78,44.5C 76.6244,44.3158 75.7911,43.6491 75.5,42.5 Z"/></g>
<g><path style="opacity:1" fill="#616161" d="M 68.5,42.5 C 70.288,42.2148 71.9547,42.5481 73.5,43.5C 72.6667,43.8333 71.8333,44.1667 71,44.5C 69.6244,44.3158 68.7911,43.6491 68.5,42.5 Z"/></g>
<g><path style="opacity:1" fill="#646464" d="M 62.5,42.5 C 64.4286,42.2308 66.0953,42.7308 67.5,44C 66.6667,44.1667 65.8333,44.3333 65,44.5C 63.6244,44.3158 62.7911,43.6491 62.5,42.5 Z"/></g>
<g><path style="opacity:1" fill="#636363" d="M 55.5,42.5 C 57.288,42.2148 58.9547,42.5481 60.5,43.5C 59.6667,43.8333 58.8333,44.1667 58,44.5C 56.6244,44.3158 55.7911,43.6491 55.5,42.5 Z"/></g>
<g><path style="opacity:1" fill="#666666" d="M 49.5,42.5 C 51.4286,42.2308 53.0953,42.7308 54.5,44C 53.6667,44.1667 52.8333,44.3333 52,44.5C 50.6244,44.3158 49.7911,43.6491 49.5,42.5 Z"/></g>
<g><path style="opacity:1" fill="#626262" d="M 43.5,42.5 C 44.9778,42.238 46.3112,42.5713 47.5,43.5C 45.9255,44.6309 44.2588,44.7975 42.5,44C 43.056,43.6174 43.3893,43.1174 43.5,42.5 Z"/></g>
<g><path style="opacity:1" fill="#686868" d="M 36.5,42.5 C 38.4286,42.2308 40.0953,42.7308 41.5,44C 40.6667,44.1667 39.8333,44.3333 39,44.5C 37.6244,44.3158 36.7911,43.6491 36.5,42.5 Z"/></g>
<g><path style="opacity:1" fill="#626261" d="M 30.5,42.5 C 31.9778,42.238 33.3112,42.5713 34.5,43.5C 32.9255,44.6309 31.2588,44.7975 29.5,44C 30.056,43.6174 30.3893,43.1174 30.5,42.5 Z"/></g>
<g><path style="opacity:1" fill="#727271" d="M 14.5,22.5 C 17.9619,23.4816 21.6286,23.815 25.5,23.5C 25.5,24.1667 25.5,24.8333 25.5,25.5C 21.1667,25.5 16.8333,25.5 12.5,25.5C 12.9321,24.2905 13.5987,23.2905 14.5,22.5 Z"/></g>
<g><path style="opacity:1" fill="#4e4e4e" d="M 600.5,10.5 C 601.487,15.3054 601.821,20.3054 601.5,25.5C 601.167,25.5 600.833,25.5 600.5,25.5C 409.667,24.5003 218.667,24.167 27.5,24.5C 27.5,24.1667 27.5,23.8333 27.5,23.5C 218.5,23.5 409.5,23.5 600.5,23.5C 600.5,19.1667 600.5,14.8333 600.5,10.5 Z"/></g>
<g><path style="opacity:1" fill="#fafaf9" d="M 25.5,23.5 C 21.6286,23.815 17.9619,23.4816 14.5,22.5C 18.1309,19.3707 21.6309,16.0374 25,12.5C 25.4986,16.1516 25.6653,19.8183 25.5,23.5 Z"/></g>
<g><path style="opacity:1" fill="#f6f6f6" d="M 603.5,12.5 C 607.5,15.8333 611.167,19.5 614.5,23.5C 610.833,23.5 607.167,23.5 603.5,23.5C 603.5,19.8333 603.5,16.1667 603.5,12.5 Z"/></g>
<g><path style="opacity:1" fill="#f6f6f6" d="M 600.5,10.5 C 600.5,14.8333 600.5,19.1667 600.5,23.5C 409.5,23.5 218.5,23.5 27.5,23.5C 27.5,18.8333 27.5,14.1667 27.5,9.5C 218.667,9.16696 409.667,9.50029 600.5,10.5 Z"/></g>
<g><path style="opacity:1" fill="#858585" d="M 604.5,171.5 C 604.918,172.222 605.584,172.722 606.5,173C 605.167,173.333 603.833,173.667 602.5,174C 432.834,174.5 263.167,174.667 93.5,174.5C 262.666,173.667 432,173.167 601.5,173C 602.527,172.487 603.527,171.987 604.5,171.5 Z"/></g>
</svg>
