<?xml version="1.0" encoding="UTF-8"?>
<!DOCTYPE svg PUBLIC "-//W3C//DTD SVG 1.1//EN" "http://www.w3.org/Graphics/SVG/1.1/DTD/svg11.dtd">
<svg xmlns="http://www.w3.org/2000/svg" version="1.1" width="757px" height="207px" style="shape-rendering:geometricPrecision; text-rendering:geometricPrecision; image-rendering:optimizeQuality; fill-rule:evenodd; clip-rule:evenodd" xmlns:xlink="http://www.w3.org/1999/xlink">
<g><path style="opacity:1" fill="#fefefd" d="M -0.5,-0.5 C 251.833,-0.5 504.167,-0.5 756.5,-0.5C 756.5,68.5 756.5,137.5 756.5,206.5C 504.167,206.5 251.833,206.5 -0.5,206.5C -0.5,137.5 -0.5,68.5 -0.5,-0.5 Z"/></g>
<g><path style="opacity:1" fill="#8b8b8b" d="M 679.5,19.5 C 679.5,19.8333 679.5,20.1667 679.5,20.5C 677.364,19.5974 675.364,18.4307 673.5,17C 675.821,16.992 677.821,17.8253 679.5,19.5 Z"/></g>
<g><path style="opacity:1" fill="#212020" d="M 19.5,8.5 C 37.1667,8.5 54.8333,8.5 72.5,8.5C 72.1703,14.8682 72.5037,21.2015 73.5,27.5C 75.2895,28.8772 77.2895,29.8772 79.5,30.5C 80.3309,37.1419 80.8309,43.8085 81,50.5C 81.5,51 82,51.5 82.5,52C 210.833,52.3333 339.167,52.6667 467.5,53C 470.333,55.8333 473.167,58.6667 476,61.5C 476.667,89.1667 476.667,116.833 476,144.5C 473.5,147 471,149.5 468.5,152C 468.833,152.333 469.167,152.667 469.5,153C 340.5,153.333 211.5,153.667 82.5,154C 82,154.5 81.5,155 81,155.5C 80.6667,162.167 80.3333,168.833 80,175.5C 77.7635,176.056 75.7635,177.056 74,178.5C 73.6667,184.5 73.3333,190.5 73,196.5C 55.2403,197.658 37.407,197.825 19.5,197C 17.6667,195.167 15.8333,193.333 14,191.5C 13.6667,191.833 13.3333,192.167 13,192.5C 12.3333,133.5 12.3333,74.5 13,15.5C 15.3722,13.2968 17.5389,10.9635 19.5,8.5 Z"/></g>
<g><path style="opacity:1" fill="#5a5a5a" d="M 199.5,62.5 C 193.344,60.0108 187.344,57.3442 181.5,54.5C 187.979,53.5093 194.646,53.176 201.5,53.5C 201.909,56.8555 201.242,59.8555 199.5,62.5 Z"/></g>
<g><path style="opacity:1" fill="#e8e6e7" d="M 468.5,57.5 C 469.833,58.1667 470.833,59.1667 471.5,60.5C 470.432,61.4345 469.099,61.7678 467.5,61.5C 467.232,59.901 467.566,58.5676 468.5,57.5 Z"/></g>
<g><path style="opacity:1" fill="#fbfbfb" d="M 20.5,57.5 C 37.5,57.5 54.5,57.5 71.5,57.5C 71.5,87.8333 71.5,118.167 71.5,148.5C 54.5895,148.825 37.7561,148.492 21,147.5C 12.5204,117.559 12.3538,87.5595 20.5,57.5 Z"/></g>
<g><path style="opacity:1" fill="#e2e2e2" d="M 72.5,29.5 C 74.1417,31.0808 76.1417,31.7475 78.5,31.5C 78.5,79.1667 78.5,126.833 78.5,174.5C 76.2776,174.178 74.4443,174.845 73,176.5C 72.5,127.501 72.3333,78.5011 72.5,29.5 Z"/></g>
<g><path style="opacity:1" fill="#f7f7f7" d="M 184.5,55.5 C 189.64,54.5119 194.974,54.1786 200.5,54.5C 200.5,56.5 200.5,58.5 200.5,60.5C 195.167,58.8333 189.833,57.1667 184.5,55.5 Z"/></g>
<g><path style="opacity:1" fill="#4e4e4e" d="M 81.5,53.5 C 80.5017,86.3291 80.1684,119.329 80.5,152.5C 79.1699,119.331 79.1699,85.9976 80.5,52.5C 81.1067,52.6236 81.44,52.9569 81.5,53.5 Z"/></g>
<g><path style="opacity:1" fill="#adadab" d="M 70.5,10.5 C 71.4961,25.324 71.8294,40.324 71.5,55.5C 54.3251,55.8299 37.3251,55.4966 20.5,54.5C 37.1667,54.5 53.8333,54.5 70.5,54.5C 70.5,39.8333 70.5,25.1667 70.5,10.5 Z"/></g>
<g><path style="opacity:1" fill="#fdfdfd" d="M 81.5,53.5 C 114.662,54.4983 147.996,54.8316 181.5,54.5C 187.344,57.3442 193.344,60.0108 199.5,62.5C 200.833,75.4829 201.499,88.8162 201.5,102.5C 201.333,115.833 201.167,129.167 201,142.5C 199.348,143.399 197.848,144.399 196.5,145.5C 194.447,145.402 192.78,146.069 191.5,147.5C 189.447,147.402 187.78,148.069 186.5,149.5C 184.447,149.402 182.78,150.069 181.5,151.5C 147.76,151.174 114.094,151.507 80.5,152.5C 80.1684,119.329 80.5017,86.3291 81.5,53.5 Z"/></g>
<g><path style="opacity:1" fill="#f0efee" d="M 14.5,47.5 C 15.8709,50.567 17.5376,53.567 19.5,56.5C 17.362,61.9905 15.862,67.6572 15,73.5C 14.5002,64.8397 14.3336,56.1731 14.5,47.5 Z"/></g>
<g><path style="opacity:1" fill="#fcfcfc" d="M 70.5,10.5 C 70.5,25.1667 70.5,39.8333 70.5,54.5C 53.8333,54.5 37.1667,54.5 20.5,54.5C 12.6369,40.1221 12.6369,25.7887 20.5,11.5C 37.1533,10.5005 53.82,10.1672 70.5,10.5 Z"/></g>
<g><path style="opacity:1" fill="#858585" d="M 203.5,54.5 C 203.5,56.8333 203.5,59.1667 203.5,61.5C 290.5,61.5 377.5,61.5 464.5,61.5C 464.5,59.1667 464.5,56.8333 464.5,54.5C 465.498,83.6619 465.831,112.995 465.5,142.5C 465.167,142.5 464.833,142.5 464.5,142.5C 464.5,116.167 464.5,89.8333 464.5,63.5C 377.5,63.5 290.5,63.5 203.5,63.5C 203.5,89.8333 203.5,116.167 203.5,142.5C 203.167,142.5 202.833,142.5 202.5,142.5C 202.169,112.995 202.502,83.6619 203.5,54.5 Z"/></g>
<g><path style="opacity:1" fill="#fefefe" d="M 203.5,54.5 C 290.5,54.5 377.5,54.5 464.5,54.5C 464.5,56.8333 464.5,59.1667 464.5,61.5C 377.5,61.5 290.5,61.5 203.5,61.5C 203.5,59.1667 203.5,56.8333 203.5,54.5 Z"/></g>
<g><path style="opacity:1" fill="#fefefe" d="M 464.5,142.5 C 377.5,142.5 290.5,142.5 203.5,142.5C 203.5,116.167 203.5,89.8333 203.5,63.5C 290.5,63.5 377.5,63.5 464.5,63.5C 464.5,89.8333 464.5,116.167 464.5,142.5 Z"/></g>
<g><path style="opacity:1" fill="#828181" d="M 468.5,57.5 C 467.566,58.5676 467.232,59.901 467.5,61.5C 469.099,61.7678 470.432,61.4345 471.5,60.5C 472.833,61.1667 473.833,62.1667 474.5,63.5C 472.167,63.5 469.833,63.5 467.5,63.5C 467.5,89.8333 467.5,116.167 467.5,142.5C 469.5,142.5 471.5,142.5 473.5,142.5C 473.672,143.492 473.338,144.158 472.5,144.5C 471.081,143.549 469.415,143.216 467.5,143.5C 467.216,145.415 467.549,147.081 468.5,148.5C 468.44,149.043 468.107,149.376 467.5,149.5C 466.167,118.5 466.167,87.5 467.5,56.5C 468.107,56.6236 468.44,56.9569 468.5,57.5 Z"/></g>
<g><path style="opacity:1" fill="#f5f5f5" d="M 474.5,63.5 C 474.831,90.0053 474.498,116.339 473.5,142.5C 471.5,142.5 469.5,142.5 467.5,142.5C 467.5,116.167 467.5,89.8333 467.5,63.5C 469.833,63.5 472.167,63.5 474.5,63.5 Z"/></g>
<g><path style="opacity:1" fill="#edeceb" d="M 14.5,130.5 C 15.8092,136.62 17.4759,142.786 19.5,149C 17.8801,151.738 16.3801,154.572 15,157.5C 14.5002,148.506 14.3336,139.506 14.5,130.5 Z"/></g>
<g><path style="opacity:1" fill="#dfdedd" d="M 472.5,144.5 C 471.5,146.167 470.167,147.5 468.5,148.5C 467.549,147.081 467.216,145.415 467.5,143.5C 469.415,143.216 471.081,143.549 472.5,144.5 Z"/></g>
<g><path style="opacity:1" fill="#4f4f4e" d="M 196.5,145.5 C 195.22,146.931 193.553,147.598 191.5,147.5C 192.78,146.069 194.447,145.402 196.5,145.5 Z"/></g>
<g><path style="opacity:1" fill="#52514f" d="M 191.5,147.5 C 190.22,148.931 188.553,149.598 186.5,149.5C 187.78,148.069 189.447,147.402 191.5,147.5 Z"/></g>
<g><path style="opacity:1" fill="#f7f7f4" d="M 200.5,144.5 C 200.5,146.833 200.5,149.167 200.5,151.5C 195.156,151.666 189.823,151.499 184.5,151C 185.416,150.722 186.082,150.222 186.5,149.5C 188.553,149.598 190.22,148.931 191.5,147.5C 193.553,147.598 195.22,146.931 196.5,145.5C 197.959,145.567 199.292,145.234 200.5,144.5 Z"/></g>
<g><path style="opacity:1" fill="#fefefe" d="M 70.5,150.5 C 70.5,165.167 70.5,179.833 70.5,194.5C 53.8333,194.5 37.1667,194.5 20.5,194.5C 12.6959,180.103 12.6959,165.769 20.5,151.5C 37.1533,150.501 53.82,150.167 70.5,150.5 Z"/></g>
<g><path style="opacity:1" fill="#555652" d="M 200.5,144.5 C 201.473,146.948 201.806,149.615 201.5,152.5C 194.646,152.824 187.979,152.491 181.5,151.5C 182.78,150.069 184.447,149.402 186.5,149.5C 186.082,150.222 185.416,150.722 184.5,151C 189.823,151.499 195.156,151.666 200.5,151.5C 200.5,149.167 200.5,146.833 200.5,144.5 Z"/></g>
<g><path style="opacity:1" fill="#4f4f4e" d="M 202.5,142.5 C 202.833,142.5 203.167,142.5 203.5,142.5C 290.5,142.5 377.5,142.5 464.5,142.5C 464.833,142.5 465.167,142.5 465.5,142.5C 465.81,145.713 465.477,148.713 464.5,151.5C 377.335,152.499 290.002,152.833 202.5,152.5C 202.5,149.167 202.5,145.833 202.5,142.5 Z"/></g>
<g><path style="opacity:1" fill="#f6f6f6" d="M 464.5,151.5 C 377.5,151.5 290.5,151.5 203.5,151.5C 203.5,148.833 203.5,146.167 203.5,143.5C 290.5,143.5 377.5,143.5 464.5,143.5C 464.5,146.167 464.5,148.833 464.5,151.5 Z"/></g>
<g><path style="opacity:1" fill="#252424" d="M 679.5,20.5 C 679.5,20.1667 679.5,19.8333 679.5,19.5C 683.362,20.4281 687.029,21.9281 690.5,24C 708.749,34.7075 726.916,45.5408 745,56.5C 745.667,87.5 745.667,118.5 745,149.5C 722.249,163.126 699.416,176.626 676.5,190C 673.148,191.17 669.814,192.336 666.5,193.5C 664.473,196.836 661.807,197.336 658.5,195C 633.331,179.914 607.998,165.081 582.5,150.5C 581.333,118.839 581.167,87.1719 582,55.5C 609.085,39.707 636.252,24.0403 663.5,8.5C 664.732,9.14452 666.065,9.31118 667.5,9C 667.167,9.33333 666.833,9.66667 666.5,10C 667.833,11.3333 669.167,12.6667 670.5,14C 667.953,13.6607 665.453,12.8274 663,11.5C 655.274,15.2791 647.774,19.4458 640.5,24C 653.887,20.9599 667.387,20.7932 681,23.5C 681.833,23.3333 682.667,23.1667 683.5,23C 682.307,21.9054 680.973,21.072 679.5,20.5 Z"/></g>
<g><path style="opacity:1" fill="#848382" d="M 742.5,149.5 C 742.826,141.316 742.492,133.316 741.5,125.5C 741.709,124.078 742.209,122.745 743,121.5C 743.824,131.009 743.658,140.343 742.5,149.5 Z"/></g>
<g><path style="opacity:1" fill="#f2f1f1" d="M 741.5,125.5 C 742.492,133.316 742.826,141.316 742.5,149.5C 735.946,153.028 729.446,156.695 723,160.5C 722.833,160.167 722.667,159.833 722.5,159.5C 731.435,149.632 737.768,138.298 741.5,125.5 Z"/></g>
<g><path style="opacity:1" fill="#f1f1f1" d="M 583.5,122.5 C 587.229,136.787 594.229,149.287 604.5,160C 597.453,157.225 590.62,153.725 584,149.5C 583.5,140.506 583.334,131.506 583.5,122.5 Z"/></g>
<g><path style="opacity:1" fill="#878785" d="M 742.5,56.5 C 743.657,65.3238 743.824,74.3238 743,83.5C 741.812,82.4366 741.312,81.1033 741.5,79.5C 742.492,72.0182 742.825,64.3516 742.5,56.5 Z"/></g>
<g><path style="opacity:1" fill="#f5f5f4" d="M 742.5,56.5 C 742.825,64.3516 742.492,72.0182 741.5,79.5C 737.436,66.205 730.436,54.705 720.5,45C 727.839,48.506 735.173,52.3393 742.5,56.5 Z"/></g>
<g><path style="opacity:1" fill="#f4f3f3" d="M 602.5,45.5 C 603.239,45.369 603.906,45.5357 604.5,46C 594.774,56.0838 587.941,67.9171 584,81.5C 583.333,73.1667 583.333,64.8333 584,56.5C 590.337,52.97 596.503,49.3033 602.5,45.5 Z"/></g>
<g><path style="opacity:1" fill="#fefefd" d="M 651.5,23.5 C 699.294,21.4743 729.46,43.4743 742,89.5C 746.008,125.981 732.508,153.814 701.5,173C 658.129,192.07 622.629,182.57 595,144.5C 575.553,106.223 581.053,72.0564 611.5,42C 623.276,32.3712 636.61,26.2045 651.5,23.5 Z"/></g>
<g><path style="opacity:1" fill="#efedee" d="M 666.5,193.5 C 664.863,194.218 663.197,194.384 661.5,194C 654.337,190.253 647.337,186.253 640.5,182C 647.177,183.535 654.01,184.369 661,184.5C 668.996,184.518 676.83,183.518 684.5,181.5C 685.696,181.846 685.696,182.346 684.5,183C 678.273,186.274 672.273,189.774 666.5,193.5 Z"/></g>
<g><path style="opacity:1" fill="#adadac" d="M 70.5,150.5 C 71.4961,165.324 71.8294,180.324 71.5,195.5C 54.3251,195.83 37.3251,195.497 20.5,194.5C 37.1667,194.5 53.8333,194.5 70.5,194.5C 70.5,179.833 70.5,165.167 70.5,150.5 Z"/></g>
</svg>
