<?xml version="1.0" standalone="no"?>
<!DOCTYPE svg PUBLIC "-//W3C//DTD SVG 20010904//EN"
 "http://www.w3.org/TR/2001/REC-SVG-20010904/DTD/svg10.dtd">
<svg version="1.0" xmlns="http://www.w3.org/2000/svg"
 width="326.000000pt" height="1231.000000pt" viewBox="0 0 326.000000 1231.000000"
 preserveAspectRatio="xMidYMid meet">

<g transform="translate(0.000000,1231.000000) scale(0.100000,-0.100000)"
fill="#000000" stroke="none">
<path d="M132 12147 l-63 -63 0 -433 c1 -239 3 -436 6 -439 3 -3 60 -4 128 -3
159 3 171 0 197 -54 11 -23 19 -49 18 -56 -2 -11 31 -15 169 -19 157 -5 173
-7 187 -25 14 -18 15 -380 16 -3190 0 -1743 3 -3188 7 -3210 4 -26 8 -33 12
-22 5 14 18 6 66 -43 l59 -60 -34 -2 c-19 -2 287 -5 680 -8 l715 -5 81 78 c44
43 83 74 87 71 4 -4 7 1428 7 3182 0 2737 2 3193 14 3210 13 17 31 19 182 24
l167 5 14 47 c21 74 37 80 200 77 l138 -2 3 436 2 436 -67 66 -68 65 -1430 0
-1430 -1 -63 -62z m98 19 c0 -2 -9 -6 -20 -9 -11 -3 -18 -1 -14 4 5 9 34 13
34 5z m414 -16 c43 -11 104 -34 137 -51 l59 -32 0 -413 0 -414 -370 0 -370 0
0 414 0 413 60 32 c132 70 328 91 484 51z m366 -16 c-74 -20 -139 -36 -145
-37 -5 -1 -44 15 -85 36 l-74 37 219 0 220 -1 -135 -35z m1025 11 c125 -20
212 -40 293 -66 l62 -21 0 -409 0 -409 -760 0 -760 0 2 412 3 412 60 18 c88
27 286 66 390 77 136 15 590 6 710 -14z m453 -4 c-31 -15 -63 -32 -70 -39 -10
-8 -34 -5 -98 14 -47 13 -114 31 -150 38 -63 14 -58 14 155 15 l220 0 -57 -28z
m521 -4 c40 -14 91 -37 112 -52 l39 -25 0 -410 0 -410 -370 0 -370 0 0 415 0
415 61 31 c107 53 187 69 329 66 104 -3 137 -8 199 -30z m55 24 c4 -5 -3 -7
-14 -4 -23 6 -26 13 -6 13 8 0 17 -4 20 -9z m-224 -955 c0 -2 -9 -24 -20 -50
l-21 -46 -1174 0 -1174 0 -6 30 c-4 16 -11 32 -16 35 -5 4 -9 13 -9 20 0 13
170 15 1210 15 666 0 1210 -2 1210 -4z m-389 -145 c-6 -10 -13 -33 -16 -50 -3
-18 -35 -106 -71 -197 l-66 -164 -670 2 -670 3 -69 170 c-37 94 -68 180 -69
193 0 13 -5 32 -10 43 -11 19 2 19 820 19 807 0 830 -1 821 -19z m-1562 -274
c28 -70 51 -130 51 -132 0 -3 -27 -5 -60 -5 l-60 0 0 148 c0 89 4 141 9 132 5
-8 32 -72 60 -143z m1551 8 l0 -145 -60 0 c-33 0 -60 4 -60 8 0 4 21 59 46
122 25 63 50 125 55 138 5 12 11 22 14 22 3 0 5 -65 5 -145z m-1490 -3140 l0
-2955 -65 0 -65 0 0 2955 0 2955 65 0 65 0 0 -2955z m1340 0 l0 -2955 -660 0
-660 0 0 2955 0 2955 660 0 660 0 0 -2955z m148 3 l-3 -2953 -62 -3 -63 -3 0
2956 0 2955 65 0 65 0 -2 -2952z m-1488 -3038 c0 -27 -1 -50 -3 -50 -1 0 -25
23 -52 50 l-49 50 52 0 52 0 0 -50z m1340 -10 l0 -60 -660 0 -660 0 0 60 0 60
660 0 660 0 0 -60z m120 57 c0 -1 -22 -25 -50 -52 l-50 -49 0 52 0 52 50 0
c28 0 50 -1 50 -3z"/>
<path d="M826 2762 c7 -4 -51 -114 -169 -317 -99 -170 -208 -359 -242 -420
-34 -60 -126 -220 -204 -355 -117 -202 -141 -249 -135 -270 4 -14 6 -34 5 -45
-1 -15 1 -16 7 -7 8 12 89 -121 328 -543 34 -60 84 -147 111 -191 26 -45 109
-188 183 -318 l135 -236 784 3 784 2 180 310 c98 171 264 459 369 640 104 182
193 334 199 340 6 5 9 2 10 -10 1 -11 5 2 10 29 l8 50 -181 315 c-100 174
-220 382 -267 462 -47 80 -140 241 -206 357 l-120 211 -800 0 c-440 1 -795 -3
-789 -7z m386 -57 c-186 -62 -362 -165 -510 -300 l-62 -57 112 196 113 196
225 -1 225 0 -103 -34z m666 9 c446 -89 813 -394 982 -818 72 -179 105 -439
81 -633 -72 -585 -502 -1040 -1086 -1148 -138 -26 -415 -16 -549 19 -247 66
-437 176 -616 355 -179 180 -291 388 -357 661 -23 96 -25 408 -4 515 73 362
298 686 610 879 151 93 359 166 531 186 100 12 313 4 408 -16z m624 -164 c59
-102 107 -189 108 -194 0 -5 -34 24 -76 64 -130 123 -315 230 -504 291 l-85
27 225 -1 224 -2 108 -185z m-2177 -767 c-26 -66 -48 -229 -48 -358 0 -133 20
-299 44 -364 5 -13 8 -25 6 -27 -5 -6 -222 378 -219 388 5 17 215 378 219 378
3 0 2 -8 -2 -17z m2772 -266 c47 -82 54 -102 46 -120 -27 -57 -214 -369 -209
-347 37 146 41 181 41 365 0 177 -11 278 -42 374 -6 18 83 -130 164 -272z
m-480 -1034 c-130 -225 -220 -380 -226 -386 -4 -4 -106 -6 -227 -5 l-219 3
100 33 c188 62 362 164 495 290 73 69 86 80 77 65z m-1737 -196 c97 -63 213
-119 337 -162 l98 -34 -225 2 -225 2 -107 185 c-59 102 -108 189 -108 193 0 5
35 -24 78 -64 42 -40 111 -94 152 -122z"/>
</g>
</svg>
