<?xml version="1.0" encoding="UTF-8"?>
<!DOCTYPE svg PUBLIC "-//W3C//DTD SVG 1.1//EN" "http://www.w3.org/Graphics/SVG/1.1/DTD/svg11.dtd">
<svg xmlns="http://www.w3.org/2000/svg" version="1.1" width="342px" height="191px" style="shape-rendering:geometricPrecision; text-rendering:geometricPrecision; image-rendering:optimizeQuality; fill-rule:evenodd; clip-rule:evenodd" xmlns:xlink="http://www.w3.org/1999/xlink">
<g><path style="opacity:1" fill="#fcfcfc" d="M -0.5,-0.5 C 113.5,-0.5 227.5,-0.5 341.5,-0.5C 341.5,63.1667 341.5,126.833 341.5,190.5C 227.5,190.5 113.5,190.5 -0.5,190.5C -0.5,126.833 -0.5,63.1667 -0.5,-0.5 Z"/></g>
<g><path style="opacity:1" fill="#1b1b1b" d="M 257.5,9.5 C 280.169,9.33337 302.836,9.50004 325.5,10C 327.387,13.6586 328.887,17.4919 330,21.5C 330.667,72.8333 330.667,124.167 330,175.5C 329.266,180.107 327.766,184.441 325.5,188.5C 302.833,189.833 280.167,189.833 257.5,188.5C 255.396,184.768 253.896,180.768 253,176.5C 252.333,125.5 252.333,74.5 253,23.5C 253.89,18.5972 255.39,13.9305 257.5,9.5 Z"/></g>
<g><path style="opacity:1" fill="#f9f9f9" d="M 258.5,144.5 C 280.51,144.167 302.51,144.5 324.5,145.5C 328.3,154.798 329.466,164.465 328,174.5C 326.982,178.907 325.815,183.241 324.5,187.5C 302.5,187.5 280.5,187.5 258.5,187.5C 253.167,173.167 253.167,158.834 258.5,144.5 Z"/></g>
<g><path style="opacity:1" fill="#656565" d="M 327.5,148.5 C 328.833,144.167 328.833,139.833 327.5,135.5C 327.372,133.345 327.872,131.345 329,129.5C 329.667,136.5 329.667,143.5 329,150.5C 328.283,149.956 327.783,149.289 327.5,148.5 Z"/></g>
<g><path style="opacity:1" fill="#717171" d="M 258.5,141.5 C 280.5,142.833 302.5,142.833 324.5,141.5C 313.854,142.832 302.854,143.499 291.5,143.5C 280.146,143.499 269.146,142.832 258.5,141.5 Z"/></g>
<g><path style="opacity:1" fill="#7b7b7b" d="M 255.5,135.5 C 254.167,139.5 254.167,143.5 255.5,147.5C 255.539,148.756 255.039,149.756 254,150.5C 253.333,144.167 253.333,137.833 254,131.5C 255.188,132.563 255.688,133.897 255.5,135.5 Z"/></g>
<g><path style="opacity:1" fill="#e3e3e3" d="M 327.5,135.5 C 328.833,139.833 328.833,144.167 327.5,148.5C 327.123,146.742 326.456,145.075 325.5,143.5C 326.785,140.979 327.452,138.313 327.5,135.5 Z"/></g>
<g><path style="opacity:1" fill="#e3e3e3" d="M 255.5,135.5 C 255.548,138.313 256.215,140.979 257.5,143.5C 256.82,144.86 256.153,146.193 255.5,147.5C 254.167,143.5 254.167,139.5 255.5,135.5 Z"/></g>
<g><path style="opacity:1" fill="#fdfdfd" d="M 324.5,141.5 C 302.5,142.833 280.5,142.833 258.5,141.5C 253.234,113.152 253.234,84.8191 258.5,56.5C 280.5,56.5 302.5,56.5 324.5,56.5C 329.814,84.8346 329.814,113.168 324.5,141.5 Z"/></g>
<g><path style="opacity:1" fill="#757575" d="M 255.5,51.5 C 254.167,55.5 254.167,59.5 255.5,63.5C 255.509,65.3084 255.009,66.9751 254,68.5C 253.333,61.5 253.333,54.5 254,47.5C 254.791,48.745 255.291,50.0783 255.5,51.5 Z"/></g>
<g><path style="opacity:1" fill="#676767" d="M 327.5,63.5 C 328.833,59.1667 328.833,54.8333 327.5,50.5C 327.783,49.7109 328.283,49.0442 329,48.5C 329.667,55.1667 329.667,61.8333 329,68.5C 327.991,66.9751 327.491,65.3084 327.5,63.5 Z"/></g>
<g><path style="opacity:1" fill="#e9e9e9" d="M 327.5,50.5 C 328.833,54.8333 328.833,59.1667 327.5,63.5C 326.246,59.1516 326.246,54.8183 327.5,50.5 Z"/></g>
<g><path style="opacity:1" fill="#e9e9e9" d="M 255.5,51.5 C 256.678,55.4522 256.678,59.4522 255.5,63.5C 254.167,59.5 254.167,55.5 255.5,51.5 Z"/></g>
<g><path style="opacity:1" fill="#fafafa" d="M 258.5,11.5 C 280.51,11.167 302.51,11.5003 324.5,12.5C 329.767,26.132 329.767,39.7986 324.5,53.5C 302.5,54.8333 280.5,54.8333 258.5,53.5C 253.203,39.4834 253.203,25.4834 258.5,11.5 Z"/></g>
<g><path style="opacity:1" fill="#1a1a1a" d="M 83.5,10.5 C 85.1992,10.3398 86.8659,10.5065 88.5,11C 113.305,25.7297 138.305,39.8964 163.5,53.5C 163.833,84.1739 163.5,114.841 162.5,145.5C 137.173,159.495 112.173,173.995 87.5,189C 86.5,189.667 85.5,189.667 84.5,189C 59.8274,173.995 34.8274,159.495 9.5,145.5C 8.33345,115.172 8.16679,84.8388 9,54.5C 33.9789,39.933 58.8122,25.2664 83.5,10.5 Z"/></g>
<g><path style="opacity:1" fill="#ededed" d="M 160.5,121.5 C 161.492,128.648 161.825,135.981 161.5,143.5C 154.863,147.364 148.196,150.864 141.5,154C 150.785,144.936 157.118,134.102 160.5,121.5 Z"/></g>
<g><path style="opacity:1" fill="#747474" d="M 161.5,143.5 C 161.825,135.981 161.492,128.648 160.5,121.5C 160.709,120.078 161.209,118.745 162,117.5C 162.824,126.343 162.657,135.01 161.5,143.5 Z"/></g>
<g><path style="opacity:1" fill="#f1f1f1" d="M 10.5,120.5 C 14.4575,133.243 21.1242,144.409 30.5,154C 23.9406,150.965 17.4406,147.465 11,143.5C 10.5003,135.841 10.3336,128.174 10.5,120.5 Z"/></g>
<g><path style="opacity:1" fill="#747474" d="M 161.5,55.5 C 162.657,63.6563 162.823,71.9896 162,80.5C 160.961,79.7562 160.461,78.7562 160.5,77.5C 161.492,70.3524 161.825,63.0191 161.5,55.5 Z"/></g>
<g><path style="opacity:1" fill="#f4f4f4" d="M 28.5,44.5 C 29.2389,44.369 29.9056,44.5357 30.5,45C 21.3326,54.1573 14.8326,64.9906 11,77.5C 10.3333,70.1667 10.3333,62.8333 11,55.5C 17.1505,52.1837 22.9838,48.517 28.5,44.5 Z"/></g>
<g><path style="opacity:1" fill="#f1f1f1" d="M 161.5,55.5 C 161.825,63.0191 161.492,70.3524 160.5,77.5C 157.151,64.9749 150.818,54.1415 141.5,45C 148.213,48.1645 154.88,51.6645 161.5,55.5 Z"/></g>
<g><path style="opacity:1" fill="#fafafa" d="M 77.5,23.5 C 110.716,22.0205 135.883,35.3538 153,63.5C 168.971,99.3824 162.805,130.882 134.5,158C 102.146,181.302 69.8127,181.302 37.5,158C 13.0445,135.294 5.21116,107.794 14,75.5C 25.4861,46.194 46.6528,28.8606 77.5,23.5 Z"/></g>
<g><path style="opacity:1" fill="#1c1c1c" d="M 78.5,59.5 C 102.824,57.6689 118.657,68.3355 126,91.5C 128.286,115.446 118.119,131.279 95.5,139C 69.2717,142.093 52.7717,130.926 46,105.5C 44.4441,88.4468 50.6107,74.9468 64.5,65C 69.0171,62.4455 73.6838,60.6121 78.5,59.5 Z"/></g>
<g><path style="opacity:1" fill="#1d1d1d" d="M 75.5,51.5 C 102.549,48.7648 121.382,59.7648 132,84.5C 138.412,114.178 127.579,134.678 99.5,146C 94.8162,147.175 90.1495,147.341 85.5,146.5C 113.785,143.049 129.452,127.216 132.5,99C 127.826,66.6647 109.16,51.6647 76.5,54C 53.4413,60.9015 40.7746,76.4015 38.5,100.5C 37.8728,82.9219 44.8728,69.0885 59.5,59C 64.6146,55.8068 69.9479,53.3068 75.5,51.5 Z"/></g>
<g><path style="opacity:1" fill="#fbfbfb" d="M 77.5,61.5 C 101.488,59.3502 116.988,69.6835 124,92.5C 125.783,115.048 115.95,129.881 94.5,137C 71.9183,139.964 56.7516,130.797 49,109.5C 45.4352,85.6163 54.9352,69.6163 77.5,61.5 Z"/></g>
<g><path style="opacity:1" fill="#ededed" d="M 84.5,12.5 C 91.5122,15.1745 98.1789,18.6745 104.5,23C 97.859,22.6718 91.1923,22.1718 84.5,21.5C 78.7972,22.0787 73.1305,22.5787 67.5,23C 73.2306,19.4748 78.8973,15.9748 84.5,12.5 Z"/></g>
<g><path style="opacity:1" fill="#ececec" d="M 65.5,175.5 C 65.56,174.957 65.8933,174.624 66.5,174.5C 72.9537,176.798 79.6204,177.798 86.5,177.5C 93.6559,177.378 100.656,176.544 107.5,175C 100.397,178.968 93.2303,182.801 86,186.5C 79.076,182.955 72.2426,179.289 65.5,175.5 Z"/></g>
</svg>
