<?xml version="1.0" encoding="UTF-8"?>
<!DOCTYPE svg PUBLIC "-//W3C//DTD SVG 1.1//EN" "http://www.w3.org/Graphics/SVG/1.1/DTD/svg11.dtd">
<svg xmlns="http://www.w3.org/2000/svg" version="1.1" width="768px" height="113px" style="shape-rendering:geometricPrecision; text-rendering:geometricPrecision; image-rendering:optimizeQuality; fill-rule:evenodd; clip-rule:evenodd" xmlns:xlink="http://www.w3.org/1999/xlink">
<g><path style="opacity:1" fill="#fefefe" d="M -0.5,-0.5 C 255.5,-0.5 511.5,-0.5 767.5,-0.5C 767.5,37.1667 767.5,74.8333 767.5,112.5C 511.5,112.5 255.5,112.5 -0.5,112.5C -0.5,74.8333 -0.5,37.1667 -0.5,-0.5 Z"/></g>
<g><path style="opacity:1" fill="#fafafa" d="M 61.5,27.5 C 61.5,27.8333 61.5,28.1667 61.5,28.5C 61.6655,32.5138 61.4988,36.5138 61,40.5C 49.3228,22.953 34.4895,19.7864 16.5,31C 13.2379,33.592 10.7379,36.7587 9,40.5C 5.13082,23.0445 11.2975,10.8778 27.5,4C 46.2998,1.22131 57.6331,9.05465 61.5,27.5 Z"/></g>
<g><path style="opacity:1" fill="#fcfcfc" d="M 309.5,20.5 C 310.833,21.1667 311.833,22.1667 312.5,23.5C 312.414,24.4959 312.748,25.3292 313.5,26C 434.167,26.3333 554.833,26.6667 675.5,27C 685.997,32.7475 696.33,38.7475 706.5,45C 702.5,47 698.5,49 694.5,51C 564.834,51.5 435.167,51.6667 305.5,51.5C 302.596,49.7052 299.596,47.8718 296.5,46C 293.308,41.2956 289.642,36.9623 285.5,33C 269.16,24.559 256.66,28.3923 248,44.5C 244.424,60.46 250.257,71.2934 265.5,77C 271.362,77.9521 277.028,77.2854 282.5,75C 288.833,70 294.5,64.3333 299.5,58C 301.193,57.1534 302.86,56.3201 304.5,55.5C 453.43,54.3351 602.43,54.1684 751.5,55C 755.051,57.2683 758.384,59.7683 761.5,62.5C 756.316,68.5174 750.65,74.0174 744.5,79C 600.666,79.1669 456.999,79.6669 313.5,80.5C 312.599,81.2905 311.932,82.2905 311.5,83.5C 290.535,105.991 266.868,109.158 240.5,93C 223.958,78.3487 218.125,60.1821 223,38.5C 234.668,10.4139 255.501,-0.752724 285.5,5C 295.031,7.92387 303.031,13.0905 309.5,20.5 Z"/></g>
<g><path style="opacity:1" fill="#222221" d="M 63.5,27.5 C 62.8333,27.5 62.1667,27.5 61.5,27.5C 57.6331,9.05465 46.2998,1.22131 27.5,4C 11.2975,10.8778 5.13082,23.0445 9,40.5C 10.7379,36.7587 13.2379,33.592 16.5,31C 34.4895,19.7864 49.3228,22.953 61,40.5C 61.4988,36.5138 61.6655,32.5138 61.5,28.5C 62.1633,30.6413 62.4966,32.9746 62.5,35.5C 62.3795,38.4411 61.7128,41.1078 60.5,43.5C 51.5122,27.5592 38.5122,23.0592 21.5,30C 13.1573,35.0781 9.15733,42.2448 9.5,51.5C 8.16667,52.5 8.16667,53.5 9.5,54.5C 9.60861,66.5115 15.6086,74.6781 27.5,79C 44.1686,81.5064 55.5019,75.0064 61.5,59.5C 62.6643,65.6506 62.6643,71.6506 61.5,77.5C 61.6655,73.4862 61.4988,69.4862 61,65.5C 51.1107,81.1286 37.6107,85.2953 20.5,78C 15.2258,74.7259 11.3925,70.2259 9,64.5C 6.81792,75.4232 8.81792,85.4232 15,94.5C 26.8939,104.957 39.3939,105.791 52.5,97C 57.6974,91.9107 60.6974,85.7441 61.5,78.5C 62.1667,78.5 62.8333,78.5 63.5,78.5C 61.344,94.99 52.0107,103.99 35.5,105.5C 21.9359,104.756 12.7693,98.0894 8,85.5C 6.89108,74.2129 6.39108,62.8796 6.5,51.5C 6.66667,41.8333 6.83333,32.1667 7,22.5C 16.2214,1.63286 31.0548,-3.86714 51.5,6C 58.7429,11.3971 62.7429,18.5638 63.5,27.5 Z"/></g>
<g><path style="opacity:1" fill="#fbfbfa" d="M 60.5,43.5 C 61.0916,46.1272 61.4249,48.7938 61.5,51.5C 44.1667,51.5 26.8333,51.5 9.5,51.5C 9.15733,42.2448 13.1573,35.0781 21.5,30C 38.5122,23.0592 51.5122,27.5592 60.5,43.5 Z"/></g>
<g><path style="opacity:1" fill="#11110f" d="M 61.5,28.5 C 61.5,28.1667 61.5,27.8333 61.5,27.5C 62.1667,27.5 62.8333,27.5 63.5,27.5C 63.5,44.5 63.5,61.5 63.5,78.5C 62.8333,78.5 62.1667,78.5 61.5,78.5C 61.5,78.1667 61.5,77.8333 61.5,77.5C 62.6643,71.6506 62.6643,65.6506 61.5,59.5C 61.5,57.8333 61.5,56.1667 61.5,54.5C 44.1667,54.5 26.8333,54.5 9.5,54.5C 8.16667,53.5 8.16667,52.5 9.5,51.5C 26.8333,51.5 44.1667,51.5 61.5,51.5C 61.4249,48.7938 61.0916,46.1272 60.5,43.5C 61.7128,41.1078 62.3795,38.4411 62.5,35.5C 62.4966,32.9746 62.1633,30.6413 61.5,28.5 Z"/></g>
<g><path style="opacity:1" fill="#1b1b1a" d="M 312.5,23.5 C 434.432,24.1648 556.432,24.8315 678.5,25.5C 688.846,32.3409 699.512,38.6742 710.5,44.5C 706.626,47.6051 702.292,49.9385 697.5,51.5C 696.957,51.56 696.624,51.8933 696.5,52.5C 715.155,53.4996 733.821,53.8329 752.5,53.5C 755.969,56.0723 759.636,58.4057 763.5,60.5C 764.842,57.6794 765.508,57.8461 765.5,61C 759.638,68.3627 752.971,74.8627 745.5,80.5C 744.833,80.5 744.167,80.5 743.5,80.5C 600.167,80.5 456.833,80.5 313.5,80.5C 456.999,79.6669 600.666,79.1669 744.5,79C 750.65,74.0174 756.316,68.5174 761.5,62.5C 758.384,59.7683 755.051,57.2683 751.5,55C 602.43,54.1684 453.43,54.3351 304.5,55.5C 304.5,54.8333 304.5,54.1667 304.5,53.5C 305.338,53.1583 305.672,52.4916 305.5,51.5C 435.167,51.6667 564.834,51.5 694.5,51C 698.5,49 702.5,47 706.5,45C 696.33,38.7475 685.997,32.7475 675.5,27C 554.833,26.6667 434.167,26.3333 313.5,26C 312.748,25.3292 312.414,24.4959 312.5,23.5 Z"/></g>
<g><path style="opacity:1" fill="#4e4e4e" d="M 697.5,51.5 C 715.833,52.1667 734.167,52.8333 752.5,53.5C 733.821,53.8329 715.155,53.4996 696.5,52.5C 696.624,51.8933 696.957,51.56 697.5,51.5 Z"/></g>
<g><path style="opacity:1" fill="#f8f8f8" d="M 9.5,54.5 C 26.8333,54.5 44.1667,54.5 61.5,54.5C 61.5,56.1667 61.5,57.8333 61.5,59.5C 55.5019,75.0064 44.1686,81.5064 27.5,79C 15.6086,74.6781 9.60861,66.5115 9.5,54.5 Z"/></g>
<g><path style="opacity:1" fill="#252424" d="M 305.5,51.5 C 305.672,52.4916 305.338,53.1583 304.5,53.5C 304.5,54.1667 304.5,54.8333 304.5,55.5C 302.86,56.3201 301.193,57.1534 299.5,58C 294.5,64.3333 288.833,70 282.5,75C 277.028,77.2854 271.362,77.9521 265.5,77C 250.257,71.2934 244.424,60.46 248,44.5C 256.66,28.3923 269.16,24.559 285.5,33C 289.642,36.9623 293.308,41.2956 296.5,46C 299.596,47.8718 302.596,49.7052 305.5,51.5 Z"/></g>
<g><path style="opacity:1" fill="#fafafa" d="M 304.5,53.5 C 301.91,54.1283 299.577,55.295 297.5,57C 292.824,62.0416 288.157,67.0416 283.5,72C 268.522,79.1187 257.355,75.2854 250,60.5C 246.914,48.8354 250.414,39.6687 260.5,33C 268.277,29.6388 275.944,29.9721 283.5,34C 287.918,37.7467 291.584,42.0801 294.5,47C 297.728,49.4397 301.061,51.6064 304.5,53.5 Z"/></g>
<g><path style="opacity:1" fill="#f9f9f9" d="M 61.5,77.5 C 61.5,77.8333 61.5,78.1667 61.5,78.5C 60.6974,85.7441 57.6974,91.9107 52.5,97C 39.3939,105.791 26.8939,104.957 15,94.5C 8.81792,85.4232 6.81792,75.4232 9,64.5C 11.3925,70.2259 15.2258,74.7259 20.5,78C 37.6107,85.2953 51.1107,81.1286 61,65.5C 61.4988,69.4862 61.6655,73.4862 61.5,77.5 Z"/></g>
<g><path style="opacity:1" fill="#292929" d="M 309.5,20.5 C 303.031,13.0905 295.031,7.92387 285.5,5C 255.501,-0.752724 234.668,10.4139 223,38.5C 218.125,60.1821 223.958,78.3487 240.5,93C 266.868,109.158 290.535,105.991 311.5,83.5C 312.167,83.5 312.833,83.5 313.5,83.5C 303.105,97.7832 288.938,105.117 271,105.5C 238.141,101.639 220.641,83.1386 218.5,50C 224.368,15.7498 245.368,-0.250234 281.5,2C 292.392,4.19379 301.559,9.36045 309,17.5C 309.483,18.448 309.649,19.448 309.5,20.5 Z"/></g>
<g><path style="opacity:1" fill="#110f10" d="M 313.5,80.5 C 456.833,80.5 600.167,80.5 743.5,80.5C 600.5,81.1667 457.5,81.8333 314.5,82.5C 313.833,82.5 313.5,82.8333 313.5,83.5C 312.833,83.5 312.167,83.5 311.5,83.5C 311.932,82.2905 312.599,81.2905 313.5,80.5 Z"/></g>
<g><path style="opacity:1" fill="#c2c0c1" d="M 743.5,80.5 C 744.167,80.5 744.833,80.5 745.5,80.5C 745.389,81.1174 745.056,81.6174 744.5,82C 601.167,82.5 457.834,82.6667 314.5,82.5C 457.5,81.8333 600.5,81.1667 743.5,80.5 Z"/></g>
</svg>
