<?xml version="1.0" encoding="UTF-8"?>
<!DOCTYPE svg PUBLIC "-//W3C//DTD SVG 1.1//EN" "http://www.w3.org/Graphics/SVG/1.1/DTD/svg11.dtd">
<svg xmlns="http://www.w3.org/2000/svg" version="1.1" width="411px" height="158px" style="shape-rendering:geometricPrecision; text-rendering:geometricPrecision; image-rendering:optimizeQuality; fill-rule:evenodd; clip-rule:evenodd" xmlns:xlink="http://www.w3.org/1999/xlink">
<g><path style="opacity:1" fill="#fdfdfd" d="M -0.5,-0.5 C 136.5,-0.5 273.5,-0.5 410.5,-0.5C 410.5,52.1667 410.5,104.833 410.5,157.5C 273.5,157.5 136.5,157.5 -0.5,157.5C -0.5,104.833 -0.5,52.1667 -0.5,-0.5 Z"/></g>
<g><path style="opacity:1" fill="#fefefe" d="M 188.5,10.5 C 258.836,10.1667 329.17,10.5 399.5,11.5C 401.028,16.0129 401.695,20.6796 401.5,25.5C 401.974,31.0108 400.974,36.1774 398.5,41C 328.501,41.5 258.501,41.6667 188.5,41.5C 184.565,31.0511 184.565,20.7178 188.5,10.5 Z"/></g>
<g><path style="opacity:1" fill="#191919" d="M 69.5,8.5 C 71.1992,8.33982 72.8659,8.50649 74.5,9C 93.0029,20.0858 111.67,30.9192 130.5,41.5C 131.833,64.8333 131.833,88.1667 130.5,111.5C 111.215,122.975 91.7153,133.975 72,144.5C 52.1558,134.16 32.6558,123.16 13.5,111.5C 12.1667,88.1667 12.1667,64.8333 13.5,41.5C 32.2298,30.4736 50.8965,19.4736 69.5,8.5 Z"/></g>
<g><path style="opacity:1" fill="#f9f9f9" d="M 68.5,18.5 C 100.893,19.7752 121.059,36.1085 129,67.5C 130.871,102.281 115.037,124.114 81.5,133C 54.9207,136.126 34.754,126.293 21,103.5C 7.61187,72.1362 14.7785,46.6362 42.5,27C 50.7389,22.4194 59.4056,19.5861 68.5,18.5 Z"/></g>
<g><path style="opacity:1" fill="#e0e0e0" d="M 70.5,10.5 C 75.0479,12.1072 79.3812,14.2739 83.5,17C 75.8333,17.6667 68.1667,17.6667 60.5,17C 64.0689,15.0583 67.4022,12.8916 70.5,10.5 Z"/></g>
<g><path style="opacity:1" fill="#e8e8e8" d="M 115.5,36.5 C 115.897,35.475 116.563,35.3083 117.5,36C 121.248,38.6244 125.081,41.1244 129,43.5C 129.667,48.5 129.667,53.5 129,58.5C 126.243,49.9645 121.743,42.6312 115.5,36.5 Z"/></g>
<g><path style="opacity:1" fill="#eeeeee" d="M 26.5,35.5 C 27.2389,35.369 27.9056,35.5357 28.5,36C 21.9479,42.2298 17.4479,49.7298 15,58.5C 14.3333,53.5 14.3333,48.5 15,43.5C 19.0125,40.9703 22.8459,38.3036 26.5,35.5 Z"/></g>
<g><path style="opacity:1" fill="#e8e8e8" d="M 79.5,110.5 C 79.4142,109.504 79.7476,108.671 80.5,108C 78.8659,107.506 77.1992,107.34 75.5,107.5C 95.8183,102.631 104.652,89.6312 102,68.5C 95.9639,51.2252 83.7973,43.7252 65.5,46C 53.8154,49.1908 45.8154,56.3574 41.5,67.5C 41.7709,65.6203 41.1042,64.287 39.5,63.5C 48.294,45.4388 62.6274,38.6055 82.5,43C 103.331,52.1621 110.497,67.6621 104,89.5C 99.3545,100.648 91.1878,107.648 79.5,110.5 Z"/></g>
<g><path style="opacity:1" fill="#fcfcfc" d="M 399.5,45.5 C 400.812,52.0892 401.479,58.7558 401.5,65.5C 401.5,68.5 401.5,71.5 401.5,74.5C 329.5,74.5 257.5,74.5 185.5,74.5C 185.5,72.8333 185.5,71.1667 185.5,69.5C 185.196,60.6634 186.196,51.9967 188.5,43.5C 259.047,42.8417 329.381,43.5084 399.5,45.5 Z"/></g>
<g><path style="opacity:1" fill="#b0b0b0" d="M 400.5,43.5 C 400.5,43.1667 400.5,42.8333 400.5,42.5C 400.461,41.2438 400.961,40.2438 402,39.5C 402.667,42.5 402.667,45.5 402,48.5C 401.392,46.8455 400.892,45.1789 400.5,43.5 Z"/></g>
<g><path style="opacity:1" fill="#1a1a1a" d="M 79.5,110.5 C 91.1878,107.648 99.3545,100.648 104,89.5C 110.497,67.6621 103.331,52.1621 82.5,43C 62.6274,38.6055 48.294,45.4388 39.5,63.5C 37.5526,67.9509 36.2193,72.6176 35.5,77.5C 35.3761,57.6349 45.0428,45.1349 64.5,40C 86.2493,37.7564 100.749,46.9231 108,67.5C 111.083,91.1907 101.25,106.357 78.5,113C 76.0982,113.814 73.7649,113.647 71.5,112.5C 74.1867,111.74 76.8534,111.073 79.5,110.5 Z"/></g>
<g><path style="opacity:1" fill="#d4d4d4" d="M 401.5,65.5 C 402.16,66.964 402.493,68.6307 402.5,70.5C 402.444,72.6397 401.777,74.3064 400.5,75.5C 328.5,75.5 256.5,75.5 184.5,75.5C 184.205,73.2646 184.539,71.2646 185.5,69.5C 185.5,71.1667 185.5,72.8333 185.5,74.5C 257.5,74.5 329.5,74.5 401.5,74.5C 401.5,71.5 401.5,68.5 401.5,65.5 Z"/></g>
<g><path style="opacity:1" fill="#040404" d="M 187.5,8.5 C 258.167,8.33334 328.834,8.5 399.5,9C 328.999,9.16707 258.665,9.66707 188.5,10.5C 184.565,20.7178 184.565,31.0511 188.5,41.5C 258.998,42.4992 329.665,42.8325 400.5,42.5C 400.5,42.8333 400.5,43.1667 400.5,43.5C 399.662,43.8417 399.328,44.5084 399.5,45.5C 329.381,43.5084 259.047,42.8417 188.5,43.5C 186.196,51.9967 185.196,60.6634 185.5,69.5C 184.539,71.2646 184.205,73.2646 184.5,75.5C 256.5,75.5 328.5,75.5 400.5,75.5C 400.5,76.1667 400.5,76.8333 400.5,77.5C 399.833,77.5 399.167,77.5 398.5,77.5C 398.118,87.9101 397.118,98.2435 395.5,108.5C 394.833,108.5 394.167,108.5 393.5,108.5C 393.5,108.167 393.5,107.833 393.5,107.5C 392.833,106.833 392.167,106.167 391.5,105.5C 393.167,105.5 394.833,105.5 396.5,105.5C 396.827,95.985 396.494,86.6517 395.5,77.5C 327.5,77.5 259.5,77.5 191.5,77.5C 190.67,86.6577 190.17,95.991 190,105.5C 189.83,95.991 189.33,86.6577 188.5,77.5C 187.5,77.5 186.5,77.5 185.5,77.5C 184.834,82.6559 184.501,87.9892 184.5,93.5C 184.505,99.2109 185.172,104.544 186.5,109.5C 186.328,110.492 186.662,111.158 187.5,111.5C 188.5,111.5 189.5,111.5 190.5,111.5C 188.833,112.167 187.167,112.833 185.5,113.5C 184.596,114.209 184.263,115.209 184.5,116.5C 185.11,117.391 185.443,118.391 185.5,119.5C 184.566,120.568 184.232,121.901 184.5,123.5C 184.5,124.833 184.5,126.167 184.5,127.5C 184.5,127.833 184.5,128.167 184.5,128.5C 183.502,92.6705 183.168,56.6705 183.5,20.5C 183.459,15.9555 184.792,11.9555 187.5,8.5 Z"/></g>
<g><path style="opacity:1" fill="#949494" d="M 184.5,39.5 C 186.978,42.5298 187.145,45.8632 185,49.5C 184.502,46.1832 184.335,42.8499 184.5,39.5 Z"/></g>
<g><path style="opacity:1" fill="#373737" d="M 398.5,77.5 C 398.334,87.1724 398.5,96.8391 399,106.5C 399.383,107.056 399.883,107.389 400.5,107.5C 400.5,107.833 400.5,108.167 400.5,108.5C 399.833,108.5 399.167,108.5 398.5,108.5C 397.5,108.5 396.5,108.5 395.5,108.5C 397.118,98.2435 398.118,87.9101 398.5,77.5 Z"/></g>
<g><path style="opacity:1" fill="#fdfdfd" d="M 191.5,77.5 C 259.5,77.5 327.5,77.5 395.5,77.5C 395.5,86.5 395.5,95.5 395.5,104.5C 327.5,104.5 259.5,104.5 191.5,104.5C 191.5,95.5 191.5,86.5 191.5,77.5 Z"/></g>
<g><path style="opacity:1" fill="#fafafa" d="M 398.5,77.5 C 399.167,77.5 399.833,77.5 400.5,77.5C 400.833,77.5 401.167,77.5 401.5,77.5C 401.827,87.6806 401.494,97.6806 400.5,107.5C 399.883,107.389 399.383,107.056 399,106.5C 398.5,96.8391 398.334,87.1724 398.5,77.5 Z"/></g>
<g><path style="opacity:1" fill="#aeaeae" d="M 401.5,77.5 C 402.659,87.992 402.825,98.6586 402,109.5C 401.617,108.944 401.117,108.611 400.5,108.5C 400.5,108.167 400.5,107.833 400.5,107.5C 401.494,97.6806 401.827,87.6806 401.5,77.5 Z"/></g>
<g><path style="opacity:1" fill="#1b1b1b" d="M 75.5,107.5 C 50.2072,106.198 38.8739,92.8647 41.5,67.5C 45.8154,56.3574 53.8154,49.1908 65.5,46C 83.7973,43.7252 95.9639,51.2252 102,68.5C 104.652,89.6312 95.8183,102.631 75.5,107.5 Z"/></g>
<g><path style="opacity:1" fill="#fbfbfb" d="M 65.5,47.5 C 90.1732,47.0047 101.673,59.0047 100,83.5C 94.0527,99.3981 82.5527,106.565 65.5,105C 47.9451,99.0377 40.7785,86.8711 44,68.5C 47.7507,57.915 54.9174,50.915 65.5,47.5 Z"/></g>
<g><path style="opacity:1" fill="#e5e5e5" d="M 128.5,93.5 C 129.489,98.9753 129.822,104.642 129.5,110.5C 125.088,112.379 120.754,114.213 116.5,116C 122.469,109.563 126.469,102.063 128.5,93.5 Z"/></g>
<g><path style="opacity:1" fill="#c8c8c8" d="M 395.5,77.5 C 396.494,86.6517 396.827,95.985 396.5,105.5C 394.833,105.5 393.167,105.5 391.5,105.5C 384.5,105.5 377.5,105.5 370.5,105.5C 355.167,105.5 339.833,105.5 324.5,105.5C 322.833,105.5 321.167,105.5 319.5,105.5C 276.663,105.832 233.997,105.499 191.5,104.5C 259.5,104.5 327.5,104.5 395.5,104.5C 395.5,95.5 395.5,86.5 395.5,77.5 Z"/></g>
<g><path style="opacity:1" fill="#dadada" d="M 393.5,107.5 C 393.5,107.833 393.5,108.167 393.5,108.5C 392.373,109.122 391.373,109.955 390.5,111C 385.546,111.916 385.213,110.916 389.5,108C 390.793,107.51 392.127,107.343 393.5,107.5 Z"/></g>
<g><path style="opacity:1" fill="#e9e9e9" d="M 14.5,94.5 C 17.1338,102.585 21.4671,109.751 27.5,116C 22.9495,114.833 18.7829,112.667 15,109.5C 14.5007,104.511 14.3341,99.5111 14.5,94.5 Z"/></g>
<g><path style="opacity:1" fill="#e0e0e0" d="M 314.5,108.5 C 313.167,109.167 312.167,110.167 311.5,111.5C 306.578,111.89 306.244,110.723 310.5,108C 312.066,107.235 313.399,107.402 314.5,108.5 Z"/></g>
<g><path style="opacity:1" fill="#d3d3d3" d="M 395.5,108.5 C 396.5,108.5 397.5,108.5 398.5,108.5C 397.952,111.084 396.285,112.084 393.5,111.5C 394.167,110.5 394.833,109.5 395.5,108.5 Z"/></g>
<g><path style="opacity:1" fill="#191919" d="M 183.5,20.5 C 183.168,56.6705 183.502,92.6705 184.5,128.5C 184.517,130.028 185.184,130.528 186.5,130C 191.833,124.667 197.167,119.333 202.5,114C 201.167,113.333 199.833,113.333 198.5,114C 193.965,118.703 189.298,123.203 184.5,127.5C 184.5,126.167 184.5,124.833 184.5,123.5C 188.57,120.94 192.236,117.773 195.5,114C 194.167,113.333 192.833,113.333 191.5,114C 189.63,116.04 187.63,117.873 185.5,119.5C 185.443,118.391 185.11,117.391 184.5,116.5C 185.922,116.25 186.922,115.417 187.5,114C 186.906,113.536 186.239,113.369 185.5,113.5C 187.167,112.833 188.833,112.167 190.5,111.5C 191.29,110.206 192.29,109.039 193.5,108C 190.696,107.613 188.696,108.779 187.5,111.5C 186.662,111.158 186.328,110.492 186.5,109.5C 186.5,109.167 186.5,108.833 186.5,108.5C 186.783,107.711 187.283,107.044 188,106.5C 188.5,96.8391 188.666,87.1724 188.5,77.5C 189.33,86.6577 189.83,95.991 190,105.5C 190.17,95.991 190.67,86.6577 191.5,77.5C 191.5,86.5 191.5,95.5 191.5,104.5C 233.997,105.499 276.663,105.832 319.5,105.5C 318.449,106.222 317.782,107.222 317.5,108.5C 316.5,109.167 315.5,109.833 314.5,110.5C 314.5,109.833 314.5,109.167 314.5,108.5C 313.399,107.402 312.066,107.235 310.5,108C 306.244,110.723 306.578,111.89 311.5,111.5C 313.698,111.409 314.031,112.075 312.5,113.5C 311.5,114.167 310.5,114.833 309.5,115.5C 309.5,114.5 309.5,113.5 309.5,112.5C 306.615,112.806 303.948,112.473 301.5,111.5C 304.084,111.431 306.084,110.265 307.5,108C 305.16,107.252 303.16,107.752 301.5,109.5C 300.833,109.5 300.167,109.5 299.5,109.5C 299.611,108.883 299.944,108.383 300.5,108C 297.404,107.073 295.07,108.073 293.5,111C 294.793,111.49 296.127,111.657 297.5,111.5C 299.698,111.409 300.031,112.075 298.5,113.5C 289.202,122.298 280.035,131.298 271,140.5C 270.409,141.483 270.743,142.15 272,142.5C 273.303,142.022 274.469,141.355 275.5,140.5C 276.167,140.5 276.833,140.5 277.5,140.5C 276.89,141.391 276.557,142.391 276.5,143.5C 276.5,143.833 276.5,144.167 276.5,144.5C 246.833,144.5 217.167,144.5 187.5,144.5C 184.944,140.65 183.444,136.316 183,131.5C 182.169,94.3311 182.336,57.3311 183.5,20.5 Z"/></g>
<g><path style="opacity:1" fill="#d3d3d3" d="M 184.5,123.5 C 184.232,121.901 184.566,120.568 185.5,119.5C 187.63,117.873 189.63,116.04 191.5,114C 192.833,113.333 194.167,113.333 195.5,114C 192.236,117.773 188.57,120.94 184.5,123.5 Z"/></g>
<g><path style="opacity:1" fill="#e4e4e4" d="M 219.5,113.5 C 220.873,113.343 222.207,113.51 223.5,114C 213.833,123.667 204.167,133.333 194.5,143C 193.365,143.749 192.365,143.583 191.5,142.5C 200.855,132.813 210.188,123.146 219.5,113.5 Z"/></g>
<g><path style="opacity:1" fill="#9a9a9a" d="M 185.5,113.5 C 186.239,113.369 186.906,113.536 187.5,114C 186.922,115.417 185.922,116.25 184.5,116.5C 184.263,115.209 184.596,114.209 185.5,113.5 Z"/></g>
<g><path style="opacity:1" fill="#e1e1e1" d="M 247.5,107.5 C 248.552,107.351 249.552,107.517 250.5,108C 249.29,109.039 248.29,110.206 247.5,111.5C 242.805,111.358 242.805,110.025 247.5,107.5 Z"/></g>
<g><path style="opacity:1" fill="#e6e6e6" d="M 211.5,107.5 C 215.135,107.656 215.468,108.822 212.5,111C 211.167,111.667 209.833,111.667 208.5,111C 209.71,109.961 210.71,108.794 211.5,107.5 Z"/></g>
<g><path style="opacity:1" fill="#e0e0e0" d="M 301.5,111.5 C 300.494,111.062 300.494,110.396 301.5,109.5C 303.16,107.752 305.16,107.252 307.5,108C 306.084,110.265 304.084,111.431 301.5,111.5 Z"/></g>
<g><path style="opacity:1" fill="#e0e0e0" d="M 299.5,109.5 C 298.5,109.833 297.833,110.5 297.5,111.5C 296.127,111.657 294.793,111.49 293.5,111C 295.07,108.073 297.404,107.073 300.5,108C 299.944,108.383 299.611,108.883 299.5,109.5 Z"/></g>
<g><path style="opacity:1" fill="#e3e3e3" d="M 282.5,107.5 C 287.422,107.11 287.756,108.277 283.5,111C 282.167,111.667 280.833,111.667 279.5,111C 280.71,109.961 281.71,108.794 282.5,107.5 Z"/></g>
<g><path style="opacity:1" fill="#e2e2e2" d="M 275.5,107.5 C 279.135,107.656 279.468,108.822 276.5,111C 275.167,111.667 273.833,111.667 272.5,111C 273.71,109.961 274.71,108.794 275.5,107.5 Z"/></g>
<g><path style="opacity:1" fill="#dcdcdc" d="M 268.5,107.5 C 273.422,107.11 273.756,108.277 269.5,111C 268.167,111.667 266.833,111.667 265.5,111C 266.71,109.961 267.71,108.794 268.5,107.5 Z"/></g>
<g><path style="opacity:1" fill="#dedede" d="M 239.5,107.5 C 244.422,107.11 244.756,108.277 240.5,111C 239.167,111.667 237.833,111.667 236.5,111C 237.71,109.961 238.71,108.794 239.5,107.5 Z"/></g>
<g><path style="opacity:1" fill="#d2d2d2" d="M 232.5,107.5 C 237.422,107.11 237.756,108.277 233.5,111C 232.167,111.667 230.833,111.667 229.5,111C 230.71,109.961 231.71,108.794 232.5,107.5 Z"/></g>
<g><path style="opacity:1" fill="#dedede" d="M 225.5,107.5 C 230.422,107.11 230.756,108.277 226.5,111C 225.167,111.667 223.833,111.667 222.5,111C 223.71,109.961 224.71,108.794 225.5,107.5 Z"/></g>
<g><path style="opacity:1" fill="#e3e3e3" d="M 218.5,107.5 C 223.422,107.11 223.756,108.277 219.5,111C 218.167,111.667 216.833,111.667 215.5,111C 216.71,109.961 217.71,108.794 218.5,107.5 Z"/></g>
<g><path style="opacity:1" fill="#dddddd" d="M 204.5,107.5 C 209.422,107.11 209.756,108.277 205.5,111C 204.167,111.667 202.833,111.667 201.5,111C 202.71,109.961 203.71,108.794 204.5,107.5 Z"/></g>
<g><path style="opacity:1" fill="#efefef" d="M 190.5,111.5 C 189.5,111.5 188.5,111.5 187.5,111.5C 188.696,108.779 190.696,107.613 193.5,108C 192.29,109.039 191.29,110.206 190.5,111.5 Z"/></g>
<g><path style="opacity:1" fill="#dddddd" d="M 289.5,107.5 C 294.422,107.11 294.756,108.277 290.5,111C 289.167,111.667 287.833,111.667 286.5,111C 287.71,109.961 288.71,108.794 289.5,107.5 Z"/></g>
<g><path style="opacity:1" fill="#d4d4d4" d="M 262.5,111.5 C 261.127,111.657 259.793,111.49 258.5,111C 259.056,110.617 259.389,110.117 259.5,109.5C 265.108,106.424 266.108,107.09 262.5,111.5 Z"/></g>
<g><path style="opacity:1" fill="#d8d8d8" d="M 197.5,107.5 C 202.422,107.11 202.756,108.277 198.5,111C 197.167,111.667 195.833,111.667 194.5,111C 195.71,109.961 196.71,108.794 197.5,107.5 Z"/></g>
<g><path style="opacity:1" fill="#fbfbfb" d="M 185.5,77.5 C 186.5,77.5 187.5,77.5 188.5,77.5C 188.666,87.1724 188.5,96.8391 188,106.5C 187.283,107.044 186.783,107.711 186.5,108.5C 185.506,98.3468 185.172,88.0135 185.5,77.5 Z"/></g>
<g><path style="opacity:1" fill="#7e7e7e" d="M 185.5,77.5 C 185.172,88.0135 185.506,98.3468 186.5,108.5C 186.5,108.833 186.5,109.167 186.5,109.5C 185.172,104.544 184.505,99.2109 184.5,93.5C 184.501,87.9892 184.834,82.6559 185.5,77.5 Z"/></g>
<g><path style="opacity:1" fill="#202020" d="M 247.5,107.5 C 249.662,106.583 251.995,106.583 254.5,107.5C 253.71,108.794 252.71,109.961 251.5,111C 253.701,111.825 255.534,111.325 257,109.5C 257.692,108.563 257.525,107.897 256.5,107.5C 258.025,106.611 259.025,107.278 259.5,109.5C 259.389,110.117 259.056,110.617 258.5,111C 259.793,111.49 261.127,111.657 262.5,111.5C 262.5,112.167 262.5,112.833 262.5,113.5C 253.5,123.167 244.167,132.5 234.5,141.5C 234.158,140.662 233.492,140.328 232.5,140.5C 241.605,131.896 250.605,123.063 259.5,114C 258.833,113.833 258.167,113.667 257.5,113.5C 247.206,122.458 237.206,131.792 227.5,141.5C 227.5,140.833 227.167,140.5 226.5,140.5C 234.464,132.035 242.631,123.702 251,115.5C 251.591,114.517 251.257,113.85 250,113.5C 239.875,122.624 230.042,132.124 220.5,142C 221.448,142.483 222.448,142.649 223.5,142.5C 223.083,143.124 222.416,143.457 221.5,143.5C 220.133,142.775 218.8,142.108 217.5,141.5C 226.298,132.202 235.298,123.035 244.5,114C 243.552,113.517 242.552,113.351 241.5,113.5C 242.884,112.199 244.384,112.199 246,113.5C 246.717,112.956 247.217,112.289 247.5,111.5C 248.29,110.206 249.29,109.039 250.5,108C 249.552,107.517 248.552,107.351 247.5,107.5 Z"/></g>
<g><path style="opacity:1" fill="#dedede" d="M 254.5,107.5 C 255.167,107.5 255.833,107.5 256.5,107.5C 257.525,107.897 257.692,108.563 257,109.5C 255.534,111.325 253.701,111.825 251.5,111C 252.71,109.961 253.71,108.794 254.5,107.5 Z"/></g>
<g><path style="opacity:1" fill="#dedede" d="M 347.5,139.5 C 345.637,141.705 343.303,143.039 340.5,143.5C 349.242,133.254 358.575,123.421 368.5,114C 369.833,113.333 371.167,113.333 372.5,114C 363.964,122.368 355.631,130.868 347.5,139.5 Z"/></g>
<g><path style="opacity:1" fill="#e0e0e0" d="M 397.5,113.5 C 398.873,113.343 400.207,113.51 401.5,114C 391.833,123.667 382.167,133.333 372.5,143C 371.167,143.667 369.833,143.667 368.5,143C 377.369,134.298 386.036,125.465 394.5,116.5C 395.833,115.833 396.833,114.833 397.5,113.5 Z"/></g>
<g><path style="opacity:1" fill="#dbdbdb" d="M 262.5,113.5 C 263.873,113.343 265.207,113.51 266.5,114C 256.593,124.41 246.259,134.244 235.5,143.5C 233.582,143.139 233.249,142.472 234.5,141.5C 244.167,132.5 253.5,123.167 262.5,113.5 Z"/></g>
<g><path style="opacity:1" fill="#e6e6e6" d="M 205.5,113.5 C 206.873,113.343 208.207,113.51 209.5,114C 201.986,121.681 194.319,129.181 186.5,136.5C 185.417,135.635 185.251,134.635 186,133.5C 192.703,126.965 199.203,120.298 205.5,113.5 Z"/></g>
<g><path style="opacity:1" fill="#dfdfdf" d="M 226.5,140.5 C 225.5,141.167 224.5,141.833 223.5,142.5C 222.448,142.649 221.448,142.483 220.5,142C 230.042,132.124 239.875,122.624 250,113.5C 251.257,113.85 251.591,114.517 251,115.5C 242.631,123.702 234.464,132.035 226.5,140.5 Z"/></g>
<g><path style="opacity:1" fill="#e5e5e5" d="M 212.5,113.5 C 213.873,113.343 215.207,113.51 216.5,114C 207.319,123.348 197.986,132.514 188.5,141.5C 187.417,140.635 187.251,139.635 188,138.5C 196.369,130.298 204.536,121.965 212.5,113.5 Z"/></g>
<g><path style="opacity:1" fill="#d9d9d9" d="M 226.5,113.5 C 227.873,113.343 229.207,113.51 230.5,114C 220.833,123.667 211.167,133.333 201.5,143C 200.365,143.749 199.365,143.583 198.5,142.5C 207.855,132.813 217.188,123.146 226.5,113.5 Z"/></g>
<g><path style="opacity:1" fill="#d8d8d8" d="M 184.5,128.5 C 184.5,128.167 184.5,127.833 184.5,127.5C 189.298,123.203 193.965,118.703 198.5,114C 199.833,113.333 201.167,113.333 202.5,114C 197.167,119.333 191.833,124.667 186.5,130C 185.184,130.528 184.517,130.028 184.5,128.5 Z"/></g>
<g><path style="opacity:1" fill="#e1e1e1" d="M 233.5,113.5 C 234.873,113.343 236.207,113.51 237.5,114C 227.986,123.347 218.652,132.847 209.5,142.5C 208.167,143.833 206.833,143.833 205.5,142.5C 214.855,132.813 224.188,123.146 233.5,113.5 Z"/></g>
<g><path style="opacity:1" fill="#e0e0e0" d="M 276.5,143.5 C 276.557,142.391 276.89,141.391 277.5,140.5C 286.605,131.896 295.605,123.063 304.5,114C 305.833,113.333 307.167,113.333 308.5,114C 298.986,123.347 289.652,132.847 280.5,142.5C 279.311,143.429 277.978,143.762 276.5,143.5 Z"/></g>
<g><path style="opacity:1" fill="#dbdbdb" d="M 362.5,139.5 C 360.765,141.235 358.765,142.568 356.5,143.5C 355.833,143.167 355.167,142.833 354.5,142.5C 355.243,141.818 355.909,141.151 356.5,140.5C 365.873,131.125 375.54,122.125 385.5,113.5C 386.167,113.667 386.833,113.833 387.5,114C 378.964,122.368 370.631,130.868 362.5,139.5 Z"/></g>
<g><path style="opacity:1" fill="#e4e4e4" d="M 241.5,113.5 C 242.552,113.351 243.552,113.517 244.5,114C 235.298,123.035 226.298,132.202 217.5,141.5C 216.469,142.355 215.303,143.022 214,143.5C 212.743,143.15 212.409,142.483 213,141.5C 222.368,131.964 231.868,122.631 241.5,113.5 Z"/></g>
<g><path style="opacity:1" fill="#dedede" d="M 393.5,115.5 C 384.035,124.464 374.702,133.631 365.5,143C 364.056,143.781 362.723,143.614 361.5,142.5C 361.624,141.893 361.957,141.56 362.5,141.5C 371.965,132.536 381.298,123.369 390.5,114C 391.833,113.333 393.167,113.333 394.5,114C 393.944,114.383 393.611,114.883 393.5,115.5 Z"/></g>
<g><path style="opacity:1" fill="#dbdbdb" d="M 269.5,113.5 C 271.355,113.272 272.188,113.939 272,115.5C 262.833,124.667 253.667,133.833 244.5,143C 243.056,143.781 241.723,143.614 240.5,142.5C 250.521,133.146 260.188,123.479 269.5,113.5 Z"/></g>
<g><path style="opacity:1" fill="#e2e2e2" d="M 283.5,113.5 C 284.873,113.343 286.207,113.51 287.5,114C 277.833,123.667 268.167,133.333 258.5,143C 257.056,143.781 255.723,143.614 254.5,142.5C 264.521,133.146 274.188,123.479 283.5,113.5 Z"/></g>
<g><path style="opacity:1" fill="#e0e0e0" d="M 290.5,113.5 C 291.873,113.343 293.207,113.51 294.5,114C 284.833,123.667 275.167,133.333 265.5,143C 264.365,143.749 263.365,143.583 262.5,142.5C 271.855,132.813 281.188,123.146 290.5,113.5 Z"/></g>
<g><path style="opacity:1" fill="#e4e4e4" d="M 276.5,113.5 C 277.873,113.343 279.207,113.51 280.5,114C 270.833,123.667 261.167,133.333 251.5,143C 250.056,143.781 248.723,143.614 247.5,142.5C 257.521,133.146 267.188,123.479 276.5,113.5 Z"/></g>
<g><path style="opacity:1" fill="#e2e2e2" d="M 298.5,113.5 C 299.552,113.351 300.552,113.517 301.5,114C 292.631,122.702 283.964,131.535 275.5,140.5C 274.469,141.355 273.303,142.022 272,142.5C 270.743,142.15 270.409,141.483 271,140.5C 280.035,131.298 289.202,122.298 298.5,113.5 Z"/></g>
<g><path style="opacity:1" fill="#dcdcdc" d="M 356.5,138.5 C 354.704,139.793 353.037,141.293 351.5,143C 347.657,143.651 346.991,142.818 349.5,140.5C 358.84,131.326 368.34,122.326 378,113.5C 379.257,113.85 379.591,114.517 379,115.5C 371.298,123.035 363.798,130.702 356.5,138.5 Z"/></g>
<g><path style="opacity:1" fill="#dedede" d="M 232.5,140.5 C 231.211,143.322 229.211,143.989 226.5,142.5C 226.624,141.893 226.957,141.56 227.5,141.5C 237.206,131.792 247.206,122.458 257.5,113.5C 258.167,113.667 258.833,113.833 259.5,114C 250.605,123.063 241.605,131.896 232.5,140.5 Z"/></g>
<g><path style="opacity:1" fill="#e6e6e6" d="M 58.5,135.5 C 67.3364,135.648 76.3364,135.481 85.5,135C 81.0646,137.634 76.5646,140.134 72,142.5C 67.5675,140.034 63.0675,137.7 58.5,135.5 Z"/></g>
<g><path style="opacity:1" fill="#1a1a1a" d="M 319.5,105.5 C 321.167,105.5 322.833,105.5 324.5,105.5C 324.833,106.167 325.167,106.833 325.5,107.5C 324.5,108.833 323.5,110.167 322.5,111.5C 321.662,111.842 321.328,112.508 321.5,113.5C 320.761,113.369 320.094,113.536 319.5,114C 309.986,123.681 300.319,133.181 290.5,142.5C 291.723,143.614 293.056,143.781 294.5,143C 304.314,133.352 313.981,123.519 323.5,113.5C 324.5,113.5 325.5,113.5 326.5,113.5C 317.188,123.479 307.521,133.146 297.5,142.5C 298.723,143.614 300.056,143.781 301.5,143C 304.036,140.295 306.703,137.795 309.5,135.5C 309.5,136.167 309.5,136.833 309.5,137.5C 308.04,139.463 306.373,141.296 304.5,143C 305.833,143.667 307.167,143.667 308.5,143C 309.373,141.955 310.373,141.122 311.5,140.5C 312.167,140.5 312.5,140.833 312.5,141.5C 312.389,142.117 312.056,142.617 311.5,143C 312.833,143.667 314.167,143.667 315.5,143C 322.368,135.964 329.368,129.131 336.5,122.5C 336.5,123.167 336.833,123.5 337.5,123.5C 331.369,130.131 325.036,136.631 318.5,143C 320.84,143.748 322.84,143.248 324.5,141.5C 325.167,142.167 325.833,142.833 326.5,143.5C 327.978,143.762 329.311,143.429 330.5,142.5C 339.652,132.847 348.986,123.347 358.5,114C 358.272,113.601 357.938,113.435 357.5,113.5C 357.56,112.957 357.893,112.624 358.5,112.5C 359.386,113.325 359.719,114.325 359.5,115.5C 351.536,123.965 343.369,132.298 335,140.5C 334.409,141.483 334.743,142.15 336,142.5C 346.125,133.376 355.958,123.876 365.5,114C 364.552,113.517 363.552,113.351 362.5,113.5C 362.672,112.508 362.338,111.842 361.5,111.5C 362.167,110.167 363.167,109.167 364.5,108.5C 364.5,109.167 364.833,109.5 365.5,109.5C 365.843,111.225 366.843,111.725 368.5,111C 371.97,108.877 371.97,107.71 368.5,107.5C 369.167,106.833 369.833,106.167 370.5,105.5C 377.5,105.5 384.5,105.5 391.5,105.5C 392.167,106.167 392.833,106.833 393.5,107.5C 392.127,107.343 390.793,107.51 389.5,108C 385.213,110.916 385.546,111.916 390.5,111C 391.373,109.955 392.373,109.122 393.5,108.5C 394.167,108.5 394.833,108.5 395.5,108.5C 394.833,109.5 394.167,110.5 393.5,111.5C 394.514,112.674 395.847,113.34 397.5,113.5C 396.833,114.833 395.833,115.833 394.5,116.5C 394.5,115.833 394.167,115.5 393.5,115.5C 393.611,114.883 393.944,114.383 394.5,114C 393.167,113.333 391.833,113.333 390.5,114C 381.298,123.369 371.965,132.536 362.5,141.5C 362.5,140.833 362.5,140.167 362.5,139.5C 370.631,130.868 378.964,122.368 387.5,114C 386.833,113.833 386.167,113.667 385.5,113.5C 375.54,122.125 365.873,131.125 356.5,140.5C 356.5,139.833 356.5,139.167 356.5,138.5C 363.798,130.702 371.298,123.035 379,115.5C 379.591,114.517 379.257,113.85 378,113.5C 368.34,122.326 358.84,131.326 349.5,140.5C 349.158,139.662 348.492,139.328 347.5,139.5C 355.631,130.868 363.964,122.368 372.5,114C 371.167,113.333 369.833,113.333 368.5,114C 358.575,123.421 349.242,133.254 340.5,143.5C 319.242,144.488 297.909,144.822 276.5,144.5C 276.5,144.167 276.5,143.833 276.5,143.5C 277.978,143.762 279.311,143.429 280.5,142.5C 289.652,132.847 298.986,123.347 308.5,114C 307.167,113.333 305.833,113.333 304.5,114C 295.605,123.063 286.605,131.896 277.5,140.5C 276.833,140.5 276.167,140.5 275.5,140.5C 283.964,131.535 292.631,122.702 301.5,114C 300.552,113.517 299.552,113.351 298.5,113.5C 300.031,112.075 299.698,111.409 297.5,111.5C 297.833,110.5 298.5,109.833 299.5,109.5C 300.167,109.5 300.833,109.5 301.5,109.5C 300.494,110.396 300.494,111.062 301.5,111.5C 303.948,112.473 306.615,112.806 309.5,112.5C 309.5,113.5 309.5,114.5 309.5,115.5C 301.498,124.467 292.998,133.133 284,141.5C 283.568,142.6 284.068,143.267 285.5,143.5C 296.288,134.546 306.288,124.713 315.5,114C 314.552,113.517 313.552,113.351 312.5,113.5C 314.031,112.075 313.698,111.409 311.5,111.5C 312.167,110.167 313.167,109.167 314.5,108.5C 314.5,109.167 314.5,109.833 314.5,110.5C 317.411,112.008 319.744,111.175 321.5,108C 320.072,107.421 318.738,107.588 317.5,108.5C 317.782,107.222 318.449,106.222 319.5,105.5 Z"/></g>
<g><path style="opacity:1" fill="#101010" d="M 324.5,105.5 C 339.833,105.5 355.167,105.5 370.5,105.5C 369.833,106.167 369.167,106.833 368.5,107.5C 367.5,108.167 366.5,108.833 365.5,109.5C 364.833,109.5 364.5,109.167 364.5,108.5C 361.589,106.992 359.256,107.825 357.5,111C 358.793,111.49 360.127,111.657 361.5,111.5C 362.338,111.842 362.672,112.508 362.5,113.5C 361.5,114.167 360.5,114.833 359.5,115.5C 359.719,114.325 359.386,113.325 358.5,112.5C 357.893,112.624 357.56,112.957 357.5,113.5C 356.448,113.351 355.448,113.517 354.5,114C 344.575,123.421 335.242,133.254 326.5,143.5C 325.833,142.833 325.167,142.167 324.5,141.5C 333.298,132.202 342.298,123.035 351.5,114C 350.167,113.333 348.833,113.333 347.5,114C 344.297,117.371 340.964,120.538 337.5,123.5C 336.833,123.5 336.5,123.167 336.5,122.5C 338.962,119.536 341.629,116.703 344.5,114C 343.167,113.333 341.833,113.333 340.5,114C 331.298,123.369 321.965,132.536 312.5,141.5C 312.5,140.833 312.167,140.5 311.5,140.5C 319.964,131.535 328.631,122.702 337.5,114C 336.167,113.333 334.833,113.333 333.5,114C 325.632,122.036 317.632,129.869 309.5,137.5C 309.5,136.833 309.5,136.167 309.5,135.5C 316.297,128.202 323.297,121.035 330.5,114C 329.207,113.51 327.873,113.343 326.5,113.5C 325.5,113.5 324.5,113.5 323.5,113.5C 322.833,113.5 322.167,113.5 321.5,113.5C 321.328,112.508 321.662,111.842 322.5,111.5C 325.599,111.908 327.933,110.741 329.5,108C 328.207,107.51 326.873,107.343 325.5,107.5C 325.167,106.833 324.833,106.167 324.5,105.5 Z"/></g>
<g><path style="opacity:1" fill="#dedede" d="M 326.5,113.5 C 327.873,113.343 329.207,113.51 330.5,114C 323.297,121.035 316.297,128.202 309.5,135.5C 306.703,137.795 304.036,140.295 301.5,143C 300.056,143.781 298.723,143.614 297.5,142.5C 307.521,133.146 317.188,123.479 326.5,113.5 Z"/></g>
<g><path style="opacity:1" fill="#dcdcdc" d="M 321.5,113.5 C 322.167,113.5 322.833,113.5 323.5,113.5C 313.981,123.519 304.314,133.352 294.5,143C 293.056,143.781 291.723,143.614 290.5,142.5C 300.319,133.181 309.986,123.681 319.5,114C 320.094,113.536 320.761,113.369 321.5,113.5 Z"/></g>
<g><path style="opacity:1" fill="#e4e4e4" d="M 336.5,122.5 C 329.368,129.131 322.368,135.964 315.5,143C 314.167,143.667 312.833,143.667 311.5,143C 312.056,142.617 312.389,142.117 312.5,141.5C 321.965,132.536 331.298,123.369 340.5,114C 341.833,113.333 343.167,113.333 344.5,114C 341.629,116.703 338.962,119.536 336.5,122.5 Z"/></g>
<g><path style="opacity:1" fill="#e0e0e0" d="M 311.5,140.5 C 310.373,141.122 309.373,141.955 308.5,143C 307.167,143.667 305.833,143.667 304.5,143C 306.373,141.296 308.04,139.463 309.5,137.5C 317.632,129.869 325.632,122.036 333.5,114C 334.833,113.333 336.167,113.333 337.5,114C 328.631,122.702 319.964,131.535 311.5,140.5 Z"/></g>
<g><path style="opacity:1" fill="#e3e3e3" d="M 324.5,141.5 C 322.84,143.248 320.84,143.748 318.5,143C 325.036,136.631 331.369,130.131 337.5,123.5C 340.964,120.538 344.297,117.371 347.5,114C 348.833,113.333 350.167,113.333 351.5,114C 342.298,123.035 333.298,132.202 324.5,141.5 Z"/></g>
<g><path style="opacity:1" fill="#e3e3e3" d="M 362.5,113.5 C 363.552,113.351 364.552,113.517 365.5,114C 355.958,123.876 346.125,133.376 336,142.5C 334.743,142.15 334.409,141.483 335,140.5C 343.369,132.298 351.536,123.965 359.5,115.5C 360.5,114.833 361.5,114.167 362.5,113.5 Z"/></g>
<g><path style="opacity:1" fill="#dedede" d="M 357.5,113.5 C 357.938,113.435 358.272,113.601 358.5,114C 348.986,123.347 339.652,132.847 330.5,142.5C 329.311,143.429 327.978,143.762 326.5,143.5C 335.242,133.254 344.575,123.421 354.5,114C 355.448,113.517 356.448,113.351 357.5,113.5 Z"/></g>
<g><path style="opacity:1" fill="#d2d2d2" d="M 312.5,113.5 C 313.552,113.351 314.552,113.517 315.5,114C 306.288,124.713 296.288,134.546 285.5,143.5C 284.068,143.267 283.568,142.6 284,141.5C 292.998,133.133 301.498,124.467 309.5,115.5C 310.5,114.833 311.5,114.167 312.5,113.5 Z"/></g>
<g><path style="opacity:1" fill="#eaeaea" d="M 368.5,107.5 C 371.97,107.71 371.97,108.877 368.5,111C 366.843,111.725 365.843,111.225 365.5,109.5C 366.5,108.833 367.5,108.167 368.5,107.5 Z"/></g>
<g><path style="opacity:1" fill="#e1e1e1" d="M 332.5,107.5 C 337.422,107.11 337.756,108.277 333.5,111C 332.167,111.667 330.833,111.667 329.5,111C 330.71,109.961 331.71,108.794 332.5,107.5 Z"/></g>
<g><path style="opacity:1" fill="#dedede" d="M 382.5,107.5 C 386.135,107.656 386.468,108.822 383.5,111C 382.167,111.667 380.833,111.667 379.5,111C 380.71,109.961 381.71,108.794 382.5,107.5 Z"/></g>
<g><path style="opacity:1" fill="#dfdfdf" d="M 374.5,107.5 C 379.422,107.11 379.756,108.277 375.5,111C 374.167,111.667 372.833,111.667 371.5,111C 372.71,109.961 373.71,108.794 374.5,107.5 Z"/></g>
<g><path style="opacity:1" fill="#dddddd" d="M 364.5,108.5 C 363.167,109.167 362.167,110.167 361.5,111.5C 360.127,111.657 358.793,111.49 357.5,111C 359.256,107.825 361.589,106.992 364.5,108.5 Z"/></g>
<g><path style="opacity:1" fill="#e3e3e3" d="M 346.5,107.5 C 351.422,107.11 351.756,108.277 347.5,111C 346.167,111.667 344.833,111.667 343.5,111C 344.71,109.961 345.71,108.794 346.5,107.5 Z"/></g>
<g><path style="opacity:1" fill="#e3e3e3" d="M 314.5,110.5 C 315.5,109.833 316.5,109.167 317.5,108.5C 318.738,107.588 320.072,107.421 321.5,108C 319.744,111.175 317.411,112.008 314.5,110.5 Z"/></g>
<g><path style="opacity:1" fill="#dddddd" d="M 353.5,107.5 C 358.422,107.11 358.756,108.277 354.5,111C 353.167,111.667 351.833,111.667 350.5,111C 351.71,109.961 352.71,108.794 353.5,107.5 Z"/></g>
<g><path style="opacity:1" fill="#dcdcdc" d="M 339.5,107.5 C 344.422,107.11 344.756,108.277 340.5,111C 339.167,111.667 337.833,111.667 336.5,111C 337.71,109.961 338.71,108.794 339.5,107.5 Z"/></g>
<g><path style="opacity:1" fill="#d7d7d7" d="M 325.5,107.5 C 326.873,107.343 328.207,107.51 329.5,108C 327.933,110.741 325.599,111.908 322.5,111.5C 323.5,110.167 324.5,108.833 325.5,107.5 Z"/></g>
<g><path style="opacity:1" fill="#353535" d="M 187.5,8.5 C 258.334,7.16822 329.334,7.16822 400.5,8.5C 401.952,11.7367 403.119,15.07 404,18.5C 404.667,56.1667 404.667,93.8333 404,131.5C 403.139,136.276 401.973,140.943 400.5,145.5C 329.331,145.833 258.331,145.499 187.5,144.5C 217.167,144.5 246.833,144.5 276.5,144.5C 297.909,144.822 319.242,144.488 340.5,143.5C 343.303,143.039 345.637,141.705 347.5,139.5C 348.492,139.328 349.158,139.662 349.5,140.5C 346.991,142.818 347.657,143.651 351.5,143C 353.037,141.293 354.704,139.793 356.5,138.5C 356.5,139.167 356.5,139.833 356.5,140.5C 355.909,141.151 355.243,141.818 354.5,142.5C 355.167,142.833 355.833,143.167 356.5,143.5C 358.765,142.568 360.765,141.235 362.5,139.5C 362.5,140.167 362.5,140.833 362.5,141.5C 361.957,141.56 361.624,141.893 361.5,142.5C 362.723,143.614 364.056,143.781 365.5,143C 374.702,133.631 384.035,124.464 393.5,115.5C 394.167,115.5 394.5,115.833 394.5,116.5C 386.036,125.465 377.369,134.298 368.5,143C 369.833,143.667 371.167,143.667 372.5,143C 382.167,133.333 391.833,123.667 401.5,114C 400.207,113.51 398.873,113.343 397.5,113.5C 395.847,113.34 394.514,112.674 393.5,111.5C 396.285,112.084 397.952,111.084 398.5,108.5C 399.167,108.5 399.833,108.5 400.5,108.5C 401.117,108.611 401.617,108.944 402,109.5C 402.825,98.6586 402.659,87.992 401.5,77.5C 401.167,77.5 400.833,77.5 400.5,77.5C 400.5,76.8333 400.5,76.1667 400.5,75.5C 401.777,74.3064 402.444,72.6397 402.5,70.5C 402.493,68.6307 402.16,66.964 401.5,65.5C 401.479,58.7558 400.812,52.0892 399.5,45.5C 399.328,44.5084 399.662,43.8417 400.5,43.5C 400.892,45.1789 401.392,46.8455 402,48.5C 402.667,45.5 402.667,42.5 402,39.5C 400.961,40.2438 400.461,41.2438 400.5,42.5C 329.665,42.8325 258.998,42.4992 188.5,41.5C 258.501,41.6667 328.501,41.5 398.5,41C 400.974,36.1774 401.974,31.0108 401.5,25.5C 401.695,20.6796 401.028,16.0129 399.5,11.5C 329.17,10.5 258.836,10.1667 188.5,10.5C 258.665,9.66707 328.999,9.16707 399.5,9C 328.834,8.5 258.167,8.33334 187.5,8.5 Z"/></g>
<g><path style="opacity:1" fill="#dbdbdb" d="M 400.5,131.5 C 401.239,131.369 401.906,131.536 402.5,132C 400.284,136.225 397.284,139.892 393.5,143C 392.365,143.749 391.365,143.583 390.5,142.5C 393.855,138.813 397.189,135.147 400.5,131.5 Z"/></g>
<g><path style="opacity:1" fill="#e1e1e1" d="M 401.5,116.5 C 402.598,117.601 402.765,118.934 402,120.5C 394.5,128 387,135.5 379.5,143C 378.056,143.781 376.723,143.614 375.5,142.5C 384.521,134.146 393.188,125.479 401.5,116.5 Z"/></g>
<g><path style="opacity:1" fill="#dfdfdf" d="M 401.5,123.5 C 402.598,124.601 402.765,125.934 402,127.5C 396.833,132.667 391.667,137.833 386.5,143C 385.167,143.667 383.833,143.667 382.5,143C 389.036,136.631 395.369,130.131 401.5,123.5 Z"/></g>
</svg>
