<?xml version="1.0" encoding="UTF-8"?>
<!DOCTYPE svg PUBLIC "-//W3C//DTD SVG 1.1//EN" "http://www.w3.org/Graphics/SVG/1.1/DTD/svg11.dtd">
<svg xmlns="http://www.w3.org/2000/svg" version="1.1" width="355px" height="203px" style="shape-rendering:geometricPrecision; text-rendering:geometricPrecision; image-rendering:optimizeQuality; fill-rule:evenodd; clip-rule:evenodd" xmlns:xlink="http://www.w3.org/1999/xlink">
<g><path style="opacity:1" fill="#fcfcfc" d="M -0.5,-0.5 C 117.833,-0.5 236.167,-0.5 354.5,-0.5C 354.5,67.1667 354.5,134.833 354.5,202.5C 236.167,202.5 117.833,202.5 -0.5,202.5C -0.5,134.833 -0.5,67.1667 -0.5,-0.5 Z"/></g>
<g><path style="opacity:1" fill="#fefefe" d="M 50.5,178.5 C 41.1607,178.666 31.8274,178.5 22.5,178C 19.2716,176.437 17.1049,173.937 16,170.5C 15.5,124.168 15.3333,77.8345 15.5,31.5C 16.2361,27.2088 18.5694,24.0421 22.5,22C 31.8274,21.5002 41.1607,21.3335 50.5,21.5C 50.5,73.8333 50.5,126.167 50.5,178.5 Z"/></g>
<g><path style="opacity:1" fill="#2e2e2e" d="M 15.5,31.5 C 15.3333,77.8345 15.5,124.168 16,170.5C 17.1049,173.937 19.2716,176.437 22.5,178C 31.8274,178.5 41.1607,178.666 50.5,178.5C 42.1667,179.167 33.8333,179.833 25.5,180.5C 18.5098,179.51 14.5098,175.51 13.5,168.5C 14.1667,122.833 14.8333,77.1667 15.5,31.5 Z"/></g>
<g><path style="opacity:1" fill="#252525" d="M 25.5,180.5 C 33.8333,179.833 42.1667,179.167 50.5,178.5C 50.5,126.167 50.5,73.8333 50.5,21.5C 41.1607,21.3335 31.8274,21.5002 22.5,22C 18.5694,24.0421 16.2361,27.2088 15.5,31.5C 14.8333,77.1667 14.1667,122.833 13.5,168.5C 13.3333,121.832 13.5,75.1655 14,28.5C 15.4421,24.7251 17.9421,21.8917 21.5,20C 31.5166,19.8322 41.5166,19.3322 51.5,18.5C 53.7078,14.5834 56.0411,10.75 58.5,7C 80.5,6.33333 102.5,6.33333 124.5,7C 127.046,10.59 129.213,14.4234 131,18.5C 131.667,72.8333 131.667,127.167 131,181.5C 129.213,185.577 127.046,189.41 124.5,193C 102.169,193.5 79.8358,193.667 57.5,193.5C 56.0594,189.286 54.0594,185.286 51.5,181.5C 42.8589,180.502 34.1922,180.169 25.5,180.5 Z"/></g>
<g><path style="opacity:1" fill="#fbfbfb" d="M 58.5,147.5 C 80.1692,147.333 101.836,147.5 123.5,148C 126.263,151.361 128.097,155.195 129,159.5C 130.985,170.587 129.152,180.92 123.5,190.5C 102.174,191.666 80.8411,191.833 59.5,191C 53.8372,180.887 52.0038,170.054 54,158.5C 55.5127,154.812 57.0127,151.145 58.5,147.5 Z"/></g>
<g><path style="opacity:1" fill="#8c8c8c" d="M 54.5,131.5 C 53.1667,138.5 53.1667,145.5 54.5,152.5C 54.2172,153.289 53.7172,153.956 53,154.5C 52.3333,145.167 52.3333,135.833 53,126.5C 53.6077,128.154 54.1077,129.821 54.5,131.5 Z"/></g>
<g><path style="opacity:1" fill="#eeeeee" d="M 128.5,129.5 C 129.833,137.167 129.833,144.833 128.5,152.5C 126.964,150.084 125.964,147.417 125.5,144.5C 126.717,139.523 127.717,134.523 128.5,129.5 Z"/></g>
<g><path style="opacity:1" fill="#747474" d="M 128.5,152.5 C 129.833,144.833 129.833,137.167 128.5,129.5C 128.892,127.821 129.392,126.154 130,124.5C 130.667,134.833 130.667,145.167 130,155.5C 128.961,154.756 128.461,153.756 128.5,152.5 Z"/></g>
<g><path style="opacity:1" fill="#ebebeb" d="M 54.5,131.5 C 55.2854,135.862 56.2854,140.196 57.5,144.5C 56.4897,147.183 55.4897,149.849 54.5,152.5C 53.1667,145.5 53.1667,138.5 54.5,131.5 Z"/></g>
<g><path style="opacity:1" fill="#767676" d="M 128.5,69.5 C 129.833,62.1667 129.833,54.8333 128.5,47.5C 128.461,46.2438 128.961,45.2438 130,44.5C 130.667,54.5 130.667,64.5 130,74.5C 128.991,72.9751 128.491,71.3084 128.5,69.5 Z"/></g>
<g><path style="opacity:1" fill="#fcfcfc" d="M 59.5,54.5 C 80.8333,54.5 102.167,54.5 123.5,54.5C 131.315,83.7663 131.482,113.1 124,142.5C 113.393,143.821 102.56,144.488 91.5,144.5C 80.4402,144.488 69.6068,143.821 59,142.5C 50.3189,113.104 50.4856,83.7707 59.5,54.5 Z"/></g>
<g><path style="opacity:1" fill="#8e8e8e" d="M 54.5,48.5 C 53.1667,55.1667 53.1667,61.8333 54.5,68.5C 54.2914,69.9217 53.7914,71.255 53,72.5C 52.3333,63.1667 52.3333,53.8333 53,44.5C 53.7914,45.745 54.2914,47.0783 54.5,48.5 Z"/></g>
<g><path style="opacity:1" fill="#ececec" d="M 128.5,47.5 C 129.833,54.8333 129.833,62.1667 128.5,69.5C 127.82,64.6207 126.82,59.7873 125.5,55C 126.093,52.3173 127.093,49.8173 128.5,47.5 Z"/></g>
<g><path style="opacity:1" fill="#f5f5f5" d="M 54.5,48.5 C 55.4867,50.4734 56.4867,52.4734 57.5,54.5C 55.8656,59.0369 54.8656,63.7036 54.5,68.5C 53.1667,61.8333 53.1667,55.1667 54.5,48.5 Z"/></g>
<g><path style="opacity:1" fill="#fbfbfb" d="M 59.5,8.5 C 80.8437,8.16699 102.177,8.50033 123.5,9.5C 130.529,22.006 131.362,35.006 126,48.5C 125.044,49.5786 124.211,50.7453 123.5,52C 102.167,52.6667 80.8333,52.6667 59.5,52C 50.1993,37.4683 50.1993,22.9683 59.5,8.5 Z"/></g>
<g><path style="opacity:1" fill="#1a1a1a" d="M 263.5,6.5 C 290.105,21.1377 316.438,36.3044 342.5,52C 343.448,52.4828 344.448,52.6495 345.5,52.5C 345.5,84.1667 345.5,115.833 345.5,147.5C 344.448,147.351 343.448,147.517 342.5,148C 316.863,163.471 290.863,178.305 264.5,192.5C 237.134,178.068 210.301,162.735 184,146.5C 183.333,115.5 183.333,84.5 184,53.5C 210.481,37.6811 236.981,22.0144 263.5,6.5 Z"/></g>
<g><path style="opacity:1" fill="#e9e9e9" d="M 185.5,119.5 C 189.595,133.851 196.929,146.351 207.5,157C 206.092,157.315 204.759,156.982 203.5,156C 197.75,152.374 191.916,148.874 186,145.5C 185.5,136.84 185.334,128.173 185.5,119.5 Z"/></g>
<g><path style="opacity:1" fill="#eaeaea" d="M 342.5,120.5 C 343.821,128.676 343.821,137.009 342.5,145.5C 335.64,149.923 328.64,153.757 321.5,157C 331.976,146.886 338.976,134.72 342.5,120.5 Z"/></g>
<g><path style="opacity:1" fill="#ededed" d="M 205.5,42.5 C 206.239,42.369 206.906,42.5357 207.5,43C 197.129,53.2376 189.962,65.4043 186,79.5C 185.333,71.1667 185.333,62.8333 186,54.5C 192.815,50.8509 199.315,46.8509 205.5,42.5 Z"/></g>
<g><path style="opacity:1" fill="#ebebeb" d="M 321.5,43.5 C 322.721,42.5354 324.054,42.702 325.5,44C 331.25,47.6258 337.084,51.1258 343,54.5C 343.667,62.8333 343.667,71.1667 343,79.5C 339.132,65.4139 331.965,53.4139 321.5,43.5 Z"/></g>
<g><path style="opacity:1" fill="#fbfbfb" d="M 251.5,21.5 C 292.131,18.2196 320.965,34.8862 338,71.5C 349.846,108.618 340.679,139.451 310.5,164C 278.362,183.977 246.696,183.31 215.5,162C 187.102,136.01 179.268,104.843 192,68.5C 204.285,43.1265 224.118,27.4598 251.5,21.5 Z"/></g>
<g><path style="opacity:1" fill="#1c1c1c" d="M 271.5,141.5 C 244.972,143.474 228.806,131.474 223,105.5C 221.442,96.2681 222.942,87.6014 227.5,79.5C 241.118,59.351 259.452,53.5177 282.5,62C 304.033,74.576 310.866,92.7427 303,116.5C 296.608,130.249 286.108,138.583 271.5,141.5 Z"/></g>
<g><path style="opacity:1" fill="#efefef" d="M 279.5,145.5 C 278.15,141.905 275.483,140.572 271.5,141.5C 286.108,138.583 296.608,130.249 303,116.5C 310.866,92.7427 304.033,74.576 282.5,62C 259.452,53.5177 241.118,59.351 227.5,79.5C 226.402,78.603 226.402,77.7697 227.5,77C 226.256,76.5439 225.423,77.0439 225,78.5C 224.583,77.244 223.75,76.5774 222.5,76.5C 238.401,52.6854 259.735,46.1854 286.5,57C 311.416,73.085 318.249,94.9183 307,122.5C 301.01,133.991 291.844,141.658 279.5,145.5 Z"/></g>
<g><path style="opacity:1" fill="#fcfcfc" d="M 255.5,60.5 C 280.797,58.2228 296.963,69.2228 304,93.5C 305.31,117.39 294.477,132.557 271.5,139C 246.405,141.199 230.905,130.032 225,105.5C 224.24,83.0017 234.407,68.0017 255.5,60.5 Z"/></g>
<g><path style="opacity:1" fill="#1c1c1c" d="M 279.5,145.5 C 291.844,141.658 301.01,133.991 307,122.5C 318.249,94.9183 311.416,73.085 286.5,57C 259.735,46.1854 238.401,52.6854 222.5,76.5C 218.31,83.9189 215.977,91.9189 215.5,100.5C 215.471,76.999 226.471,60.8323 248.5,52C 276.671,45.6722 297.504,55.1722 311,80.5C 319.217,104.859 313.384,125.025 293.5,141C 284.461,147.516 274.461,150.016 263.5,148.5C 268.948,147.858 274.281,146.858 279.5,145.5 Z"/></g>
<g><path style="opacity:1" fill="#ebebeb" d="M 263.5,9.5 C 270.846,12.6744 277.846,16.5077 284.5,21C 277.919,20.1083 271.252,19.6083 264.5,19.5C 257.413,19.6387 250.413,20.1387 243.5,21C 250.393,17.3924 257.059,13.5591 263.5,9.5 Z"/></g>
<g><path style="opacity:1" fill="#eeeeee" d="M 242.5,178.5 C 242.56,177.957 242.893,177.624 243.5,177.5C 250.112,179.898 256.946,180.898 264,180.5C 270.919,180.404 277.753,179.904 284.5,179C 277.997,183.086 271.33,186.919 264.5,190.5C 257.14,186.488 249.806,182.488 242.5,178.5 Z"/></g>
</svg>
