<?xml version="1.0" encoding="UTF-8"?>
<!DOCTYPE svg PUBLIC "-//W3C//DTD SVG 1.1//EN" "http://www.w3.org/Graphics/SVG/1.1/DTD/svg11.dtd">
<svg xmlns="http://www.w3.org/2000/svg" version="1.1" width="355px" height="200px" style="shape-rendering:geometricPrecision; text-rendering:geometricPrecision; image-rendering:optimizeQuality; fill-rule:evenodd; clip-rule:evenodd" xmlns:xlink="http://www.w3.org/1999/xlink">
<g><path style="opacity:1" fill="#fcfcfc" d="M -0.5,-0.5 C 117.833,-0.5 236.167,-0.5 354.5,-0.5C 354.5,66.1667 354.5,132.833 354.5,199.5C 236.167,199.5 117.833,199.5 -0.5,199.5C -0.5,132.833 -0.5,66.1667 -0.5,-0.5 Z"/></g>
<g><path style="opacity:1" fill="#252525" d="M 59.5,3.5 C 81.5025,3.33337 103.503,3.50004 125.5,4C 128.046,7.59003 130.213,11.4234 132,15.5C 132.667,69.8333 132.667,124.167 132,178.5C 130.213,182.577 128.046,186.41 125.5,190C 103.5,190.667 81.5,190.667 59.5,190C 57.0411,186.25 54.7078,182.417 52.5,178.5C 42.8505,177.668 33.1838,177.168 23.5,177C 20.0629,175.895 17.5629,173.728 16,170.5C 14.3478,122.225 14.0145,73.892 15,25.5C 16.4421,21.7251 18.9421,18.8917 22.5,17C 32.5166,16.8322 42.5166,16.3322 52.5,15.5C 54.845,11.4725 57.1783,7.47248 59.5,3.5 Z"/></g>
<g><path style="opacity:1" fill="#fefefe" d="M 23.5,18.5 C 32.8333,18.5 42.1667,18.5 51.5,18.5C 51.5,70.8333 51.5,123.167 51.5,175.5C 42.1607,175.666 32.8274,175.5 23.5,175C 20.2716,173.437 18.1049,170.937 17,167.5C 16.3333,120.167 16.3333,72.8333 17,25.5C 18.6941,22.6424 20.8607,20.309 23.5,18.5 Z"/></g>
<g><path style="opacity:1" fill="#fbfbfb" d="M 60.5,5.5 C 81.8437,5.16699 103.177,5.50033 124.5,6.5C 129.138,12.7144 131.138,19.7144 130.5,27.5C 130.817,35.0518 128.983,42.0518 125,48.5C 103.573,49.6598 82.0729,49.8265 60.5,49C 51.1886,34.5385 51.1886,20.0385 60.5,5.5 Z"/></g>
<g><path style="opacity:1" fill="#1a1a1a" d="M 262.5,4.5 C 266.511,4.50164 270.178,5.66831 273.5,8C 297.606,22.3821 321.94,36.2154 346.5,49.5C 346.667,80.8351 346.5,112.168 346,143.5C 319.373,159.229 292.54,174.562 265.5,189.5C 238.134,175.068 211.301,159.735 185,143.5C 184.333,112.5 184.333,81.5 185,50.5C 210.814,35.0146 236.647,19.6812 262.5,4.5 Z"/></g>
<g><path style="opacity:1" fill="#fbfbfb" d="M 252.5,18.5 C 294.087,15.3072 323.254,32.6405 340,70.5C 349.988,106.867 340.488,137.034 311.5,161C 279.345,180.976 247.679,180.309 216.5,159C 187.511,132.211 180.011,100.378 194,63.5C 206.639,39.4463 226.139,24.4463 252.5,18.5 Z"/></g>
<g><path style="opacity:1" fill="#ebebeb" d="M 263.5,6.5 C 271.21,9.52239 278.543,13.3557 285.5,18C 278.919,17.1083 272.252,16.6083 265.5,16.5C 258.413,16.6387 251.413,17.1387 244.5,18C 251.23,14.6435 257.563,10.8102 263.5,6.5 Z"/></g>
<g><path style="opacity:1" fill="#eeeeee" d="M 206.5,39.5 C 207.239,39.369 207.906,39.5357 208.5,40C 198.129,50.2376 190.962,62.4043 187,76.5C 186.333,68.1667 186.333,59.8333 187,51.5C 193.672,47.6368 200.172,43.6368 206.5,39.5 Z"/></g>
<g><path style="opacity:1" fill="#f2f2f2" d="M 55.5,44.5 C 56.3487,47.0351 57.3487,49.5351 58.5,52C 56.7863,56.3534 55.7863,60.8534 55.5,65.5C 54.1667,58.5 54.1667,51.5 55.5,44.5 Z"/></g>
<g><path style="opacity:1" fill="#8d8d8d" d="M 55.5,44.5 C 54.1667,51.5 54.1667,58.5 55.5,65.5C 55.2914,66.9217 54.7914,68.255 54,69.5C 53.3333,60.1667 53.3333,50.8333 54,41.5C 54.5133,42.5266 55.0133,43.5266 55.5,44.5 Z"/></g>
<g><path style="opacity:1" fill="#ececec" d="M 322.5,40.5 C 323.721,39.5354 325.054,39.702 326.5,41C 332.25,44.6258 338.084,48.1258 344,51.5C 344.667,59.8333 344.667,68.1667 344,76.5C 340.132,62.4139 332.965,50.4139 322.5,40.5 Z"/></g>
<g><path style="opacity:1" fill="#f0f0f0" d="M 129.5,44.5 C 130.833,51.5 130.833,58.5 129.5,65.5C 128.898,60.9224 127.898,56.4224 126.5,52C 127.093,49.3173 128.093,46.8173 129.5,44.5 Z"/></g>
<g><path style="opacity:1" fill="#fcfcfc" d="M 60.5,51.5 C 81.8333,51.5 103.167,51.5 124.5,51.5C 132.315,80.7586 132.482,110.092 125,139.5C 114.393,140.821 103.56,141.488 92.5,141.5C 81.4402,141.488 70.6068,140.821 60,139.5C 51.2452,110.1 51.4118,80.767 60.5,51.5 Z"/></g>
<g><path style="opacity:1" fill="#7b7b7b" d="M 129.5,65.5 C 130.833,58.5 130.833,51.5 129.5,44.5C 129.783,43.7109 130.283,43.0442 131,42.5C 131.667,51.5 131.667,60.5 131,69.5C 129.812,68.4366 129.312,67.1033 129.5,65.5 Z"/></g>
<g><path style="opacity:1" fill="#1e1e1e" d="M 290.5,137.5 C 307.859,126.311 315.359,110.311 313,89.5C 308.693,68.5267 296.193,55.3601 275.5,50C 250.774,46.2758 232.774,55.4425 221.5,77.5C 218.985,83.9014 217.318,90.568 216.5,97.5C 216.529,71.9881 228.862,55.4881 253.5,48C 283.219,43.7698 303.385,55.6031 314,83.5C 318.784,107.407 311.284,126.24 291.5,140C 283.134,144.939 274.134,146.939 264.5,146C 273.9,145.033 282.567,142.199 290.5,137.5 Z"/></g>
<g><path style="opacity:1" fill="#1c1c1c" d="M 286.5,133.5 C 265.495,143.3 247.328,139.633 232,122.5C 223.336,109.357 221.503,95.3575 226.5,80.5C 239.309,57.3672 258.309,50.2005 283.5,59C 307.55,73.8232 313.383,93.9899 301,119.5C 296.932,125.07 292.098,129.737 286.5,133.5 Z"/></g>
<g><path style="opacity:1" fill="#fcfcfc" d="M 257.5,57.5 C 280.643,55.1771 296.143,64.8438 304,86.5C 307.865,109.604 299.031,125.77 277.5,135C 252.287,140.148 235.454,130.648 227,106.5C 223.471,81.548 233.637,65.2147 257.5,57.5 Z"/></g>
<g><path style="opacity:1" fill="#f0f0f0" d="M 290.5,137.5 C 289.833,135.5 288.5,134.167 286.5,133.5C 292.098,129.737 296.932,125.07 301,119.5C 313.383,93.9899 307.55,73.8232 283.5,59C 258.309,50.2005 239.309,57.3672 226.5,80.5C 225.952,77.9162 224.285,76.9162 221.5,77.5C 232.774,55.4425 250.774,46.2758 275.5,50C 296.193,55.3601 308.693,68.5267 313,89.5C 315.359,110.311 307.859,126.311 290.5,137.5 Z"/></g>
<g><path style="opacity:1" fill="#eaeaea" d="M 343.5,116.5 C 344.821,125.009 344.821,133.675 343.5,142.5C 336.64,146.923 329.64,150.757 322.5,154C 333.26,143.651 340.26,131.151 343.5,116.5 Z"/></g>
<g><path style="opacity:1" fill="#ebebeb" d="M 186.5,116.5 C 190.507,130.341 197.507,142.508 207.5,153C 200.453,150.225 193.62,146.725 187,142.5C 186.5,133.84 186.334,125.173 186.5,116.5 Z"/></g>
<g><path style="opacity:1" fill="#efefef" d="M 129.5,127.5 C 130.833,134.833 130.833,142.167 129.5,149.5C 128.463,146.814 127.463,144.148 126.5,141.5C 127.819,136.893 128.819,132.227 129.5,127.5 Z"/></g>
<g><path style="opacity:1" fill="#efefef" d="M 55.5,128.5 C 55.8634,132.984 56.8634,137.317 58.5,141.5C 57.4897,144.183 56.4897,146.849 55.5,149.5C 54.1667,142.5 54.1667,135.5 55.5,128.5 Z"/></g>
<g><path style="opacity:1" fill="#757575" d="M 129.5,149.5 C 130.833,142.167 130.833,134.833 129.5,127.5C 129.312,125.897 129.812,124.563 131,123.5C 131.667,133.167 131.667,142.833 131,152.5C 129.961,151.756 129.461,150.756 129.5,149.5 Z"/></g>
<g><path style="opacity:1" fill="#8b8b8b" d="M 55.5,128.5 C 54.1667,135.5 54.1667,142.5 55.5,149.5C 55.2172,150.289 54.7172,150.956 54,151.5C 53.3333,142.167 53.3333,132.833 54,123.5C 55.0086,125.025 55.5086,126.692 55.5,128.5 Z"/></g>
<g><path style="opacity:1" fill="#fbfbfb" d="M 59.5,144.5 C 81.1692,144.333 102.836,144.5 124.5,145C 129.019,151.061 131.019,157.894 130.5,165.5C 130.746,173.43 128.746,180.763 124.5,187.5C 103.167,188.833 81.8333,188.833 60.5,187.5C 55.9302,180.723 53.9302,173.223 54.5,165C 54.6667,161.833 54.8333,158.667 55,155.5C 56.5127,151.812 58.0127,148.145 59.5,144.5 Z"/></g>
<g><path style="opacity:1" fill="#eeeeee" d="M 243.5,175.5 C 243.56,174.957 243.893,174.624 244.5,174.5C 250.939,176.886 257.606,177.886 264.5,177.5C 271.578,177.361 278.578,176.861 285.5,176C 278.997,180.086 272.33,183.919 265.5,187.5C 258.14,183.488 250.806,179.488 243.5,175.5 Z"/></g>
</svg>
