<?xml version="1.0" encoding="UTF-8"?>
<!DOCTYPE svg PUBLIC "-//W3C//DTD SVG 1.1//EN" "http://www.w3.org/Graphics/SVG/1.1/DTD/svg11.dtd">
<svg xmlns="http://www.w3.org/2000/svg" version="1.1" width="420px" height="120px" style="shape-rendering:geometricPrecision; text-rendering:geometricPrecision; image-rendering:optimizeQuality; fill-rule:evenodd; clip-rule:evenodd" xmlns:xlink="http://www.w3.org/1999/xlink">
<g><path style="opacity:1" fill="#fdfdfd" d="M -0.5,-0.5 C 139.5,-0.5 279.5,-0.5 419.5,-0.5C 419.5,39.5 419.5,79.5 419.5,119.5C 279.5,119.5 139.5,119.5 -0.5,119.5C -0.5,79.5 -0.5,39.5 -0.5,-0.5 Z"/></g>
<g><path style="opacity:1" fill="#292929" d="M 164.5,14.5 C 163.833,46.5 163.167,78.5 162.5,110.5C 162.842,111.338 163.508,111.672 164.5,111.5C 162.393,112.468 160.059,112.802 157.5,112.5C 157.5,79.5 157.5,46.5 157.5,13.5C 160.059,13.1984 162.393,13.5318 164.5,14.5 Z"/></g>
<g><path style="opacity:1" fill="#fdfdfd" d="M 162.5,110.5 C 161.5,110.5 160.5,110.5 159.5,110.5C 159.5,78.8333 159.5,47.1667 159.5,15.5C 160.5,15.5 161.5,15.5 162.5,15.5C 162.5,47.1667 162.5,78.8333 162.5,110.5 Z"/></g>
<g><path style="opacity:1" fill="#fbfbfb" d="M 184.5,86.5 C 184.649,87.552 184.483,88.552 184,89.5C 177.631,95.7019 171.464,102.035 165.5,108.5C 164.336,78.0027 164.169,47.3361 165,16.5C 171.306,22.8063 177.64,29.1396 184,35.5C 184.5,52.4967 184.667,69.4967 184.5,86.5 Z"/></g>
<g><path style="opacity:1" fill="#141414" d="M 164.5,14.5 C 171.965,21.4641 179.298,28.6308 186.5,36C 188.025,37.0086 189.692,37.5086 191.5,37.5C 190.791,38.404 189.791,38.7373 188.5,38.5C 188.167,38.5 187.833,38.5 187.5,38.5C 187.44,37.9569 187.107,37.6236 186.5,37.5C 185.833,53.995 185.167,70.3283 184.5,86.5C 184.667,69.4967 184.5,52.4967 184,35.5C 177.64,29.1396 171.306,22.8063 165,16.5C 164.169,47.3361 164.336,78.0027 165.5,108.5C 166.167,108.5 166.833,108.5 167.5,108.5C 166.833,109.833 165.833,110.833 164.5,111.5C 163.508,111.672 162.842,111.338 162.5,110.5C 163.167,78.5 163.833,46.5 164.5,14.5 Z"/></g>
<g><path style="opacity:1" fill="#0c0c0c" d="M 407.5,88.5 C 406.711,88.7828 406.044,89.2828 405.5,90C 344.501,90.5 283.501,90.6667 222.5,90.5C 283.167,89.8333 343.833,89.1667 404.5,88.5C 404.5,88.1667 404.5,87.8333 404.5,87.5C 358.512,85.505 312.179,84.8383 265.5,85.5C 311.833,84.8333 358.167,84.1667 404.5,83.5C 404.5,69.5 404.5,55.5 404.5,41.5C 344.331,41.1676 284.331,41.5009 224.5,42.5C 223.833,57.5 223.167,72.5 222.5,87.5C 221.377,86.2426 220.711,86.5759 220.5,88.5C 220.5,88.8333 220.5,89.1667 220.5,89.5C 219.609,88.8902 218.609,88.5569 217.5,88.5C 208.833,87.8333 200.167,87.1667 191.5,86.5C 201.98,87.0346 212.313,86.3679 222.5,84.5C 222.833,70.1512 222.499,55.8179 221.5,41.5C 220.817,41.1373 220.15,40.8039 219.5,40.5C 219.5,39.8333 219.833,39.5 220.5,39.5C 223.167,38.8333 223.167,38.1667 220.5,37.5C 219.833,37.5 219.5,37.1667 219.5,36.5C 281.763,35.3375 344.096,35.1708 406.5,36C 408,37.5 409.5,39 411,40.5C 411.667,55.5 411.667,70.5 411,85.5C 409.961,86.7101 408.794,87.7101 407.5,88.5 Z"/></g>
<g><path style="opacity:1" fill="#828282" d="M 404.5,37.5 C 404.167,37.5 403.833,37.5 403.5,37.5C 343.491,36.8372 283.824,37.5038 224.5,39.5C 224.5,39.8333 224.5,40.1667 224.5,40.5C 223.566,39.4324 223.232,38.099 223.5,36.5C 284.002,36.1676 344.336,36.5009 404.5,37.5 Z"/></g>
<g><path style="opacity:1" fill="#2e2e2e" d="M 219.5,36.5 C 219.5,37.1667 219.833,37.5 220.5,37.5C 220.5,38.1667 220.5,38.8333 220.5,39.5C 219.833,39.5 219.5,39.8333 219.5,40.5C 209.037,39.8786 198.704,39.212 188.5,38.5C 189.791,38.7373 190.791,38.404 191.5,37.5C 200.886,37.7799 210.22,37.4466 219.5,36.5 Z"/></g>
<g><path style="opacity:1" fill="#fefefe" d="M 403.5,37.5 C 344.176,39.4962 284.509,40.1628 224.5,39.5C 283.824,37.5038 343.491,36.8372 403.5,37.5 Z"/></g>
<g><path style="opacity:1" fill="#fcfcfc" d="M 187.5,38.5 C 187.833,38.5 188.167,38.5 188.5,38.5C 198.704,39.212 209.037,39.8786 219.5,40.5C 220.15,40.8039 220.817,41.1373 221.5,41.5C 222.499,55.8179 222.833,70.1512 222.5,84.5C 212.313,86.3679 201.98,87.0346 191.5,86.5C 190.07,86.4208 188.736,86.7542 187.5,87.5C 186.173,71.0049 186.173,54.6715 187.5,38.5 Z"/></g>
<g><path style="opacity:1" fill="#bfbfbf" d="M 220.5,37.5 C 223.167,38.1667 223.167,38.8333 220.5,39.5C 220.5,38.8333 220.5,38.1667 220.5,37.5 Z"/></g>
<g><path style="opacity:1" fill="#c8c8c8" d="M 403.5,37.5 C 403.833,37.5 404.167,37.5 404.5,37.5C 404.5,38.5 404.5,39.5 404.5,40.5C 344.5,40.5 284.5,40.5 224.5,40.5C 224.5,40.1667 224.5,39.8333 224.5,39.5C 284.509,40.1628 344.176,39.4962 403.5,37.5 Z"/></g>
<g><path style="opacity:1" fill="#fbfbfb" d="M 404.5,83.5 C 344.5,83.5 284.5,83.5 224.5,83.5C 224.5,69.8333 224.5,56.1667 224.5,42.5C 284.331,41.5009 344.331,41.1676 404.5,41.5C 404.5,55.5 404.5,69.5 404.5,83.5 Z"/></g>
<g><path style="opacity:1" fill="#d7d7d7" d="M 406.5,41.5 C 407.5,41.5 408.5,41.5 409.5,41.5C 409.5,55.5 409.5,69.5 409.5,83.5C 408.167,83.5 406.833,83.5 405.5,83.5C 405.185,69.4213 405.518,55.4213 406.5,41.5 Z"/></g>
<g><path style="opacity:1" fill="#4a4a4a" d="M 224.5,42.5 C 224.5,56.1667 224.5,69.8333 224.5,83.5C 284.5,83.5 344.5,83.5 404.5,83.5C 358.167,84.1667 311.833,84.8333 265.5,85.5C 251.833,85.5 238.167,85.5 224.5,85.5C 224.5,86.5 224.5,87.5 224.5,88.5C 284.5,88.5 344.5,88.5 404.5,88.5C 343.833,89.1667 283.167,89.8333 222.5,90.5C 221.833,90.1667 221.167,89.8333 220.5,89.5C 220.5,89.1667 220.5,88.8333 220.5,88.5C 221.492,88.6716 222.158,88.3382 222.5,87.5C 223.167,72.5 223.833,57.5 224.5,42.5 Z"/></g>
<g><path style="opacity:1" fill="#dcdcdc" d="M 265.5,85.5 C 312.179,84.8383 358.512,85.505 404.5,87.5C 358.069,86.8382 311.736,86.1715 265.5,85.5 Z"/></g>
<g><path style="opacity:1" fill="#fdfdfd" d="M 265.5,85.5 C 311.736,86.1715 358.069,86.8382 404.5,87.5C 404.5,87.8333 404.5,88.1667 404.5,88.5C 344.5,88.5 284.5,88.5 224.5,88.5C 224.5,87.5 224.5,86.5 224.5,85.5C 238.167,85.5 251.833,85.5 265.5,85.5 Z"/></g>
<g><path style="opacity:1" fill="#a1a1a1" d="M 222.5,87.5 C 222.158,88.3382 221.492,88.6716 220.5,88.5C 220.711,86.5759 221.377,86.2426 222.5,87.5 Z"/></g>
<g><path style="opacity:1" fill="#343434" d="M 187.5,38.5 C 186.173,54.6715 186.173,71.0049 187.5,87.5C 188.736,86.7542 190.07,86.4208 191.5,86.5C 200.167,87.1667 208.833,87.8333 217.5,88.5C 207.828,88.3335 198.161,88.5002 188.5,89C 181.329,95.3381 174.329,101.838 167.5,108.5C 166.833,108.5 166.167,108.5 165.5,108.5C 171.464,102.035 177.631,95.7019 184,89.5C 184.483,88.552 184.649,87.552 184.5,86.5C 185.167,70.3283 185.833,53.995 186.5,37.5C 187.107,37.6236 187.44,37.9569 187.5,38.5 Z"/></g>
<g><path style="opacity:1" fill="#dadada" d="M 407.5,88.5 C 407.45,91.152 406.45,92.152 404.5,91.5C 403.676,93.7476 402.676,93.9142 401.5,92C 341.665,91.8329 281.999,91.3329 222.5,90.5C 283.501,90.6667 344.501,90.5 405.5,90C 406.044,89.2828 406.711,88.7828 407.5,88.5 Z"/></g>
<g><path style="opacity:1" fill="#242424" d="M 47.5,13.5 C 76.6236,11.8148 95.4569,24.8148 104,52.5C 107.255,83.8418 93.7552,103.675 63.5,112C 31.3654,113.856 12.1987,99.0225 6,67.5C 5.74286,38.5985 19.5762,20.5985 47.5,13.5 Z"/></g>
<g><path style="opacity:1" fill="#fafafa" d="M 45.5,15.5 C 74.2396,12.9404 93.0729,25.2737 102,52.5C 105.53,77.6323 96.0295,95.799 73.5,107C 39.168,116.089 17.3346,103.589 8,69.5C 6.92735,41.9539 19.4273,23.9539 45.5,15.5 Z"/></g>
<g><path style="opacity:1" fill="#1e1e1e" d="M 49.5,33.5 C 53.5,33.5 57.5,33.5 61.5,33.5C 60.9966,49.33 68.6633,57.33 84.5,57.5C 84.5,61.1667 84.5,64.8333 84.5,68.5C 68.6535,68.6796 60.9868,76.6796 61.5,92.5C 57.5,92.5 53.5,92.5 49.5,92.5C 49.8333,76.1667 41.8333,68.1667 25.5,68.5C 25.5,64.8333 25.5,61.1667 25.5,57.5C 41.8432,57.8234 49.8432,49.8234 49.5,33.5 Z"/></g>
<g><path style="opacity:1" fill="#f4f4f4" d="M 52.5,84.5 C 54.5,84.5 56.5,84.5 58.5,84.5C 58.5,86.5 58.5,88.5 58.5,90.5C 56.1667,90.5 53.8333,90.5 51.5,90.5C 51.5172,88.4352 51.8505,86.4352 52.5,84.5 Z"/></g>
<g><path style="opacity:1" fill="#c7c7c7" d="M 69.5,67.5 C 70.8734,67.3433 72.2068,67.51 73.5,68C 66.1365,70.6954 61.6365,75.862 60,83.5C 59.2571,80.2171 59.9238,77.2171 62,74.5C 64.3959,71.9334 66.8959,69.6 69.5,67.5 Z"/></g>
<g><path style="opacity:1" fill="#c9c9c9" d="M 36.5,68.5 C 41.6122,67.7987 45.7789,69.7987 49,74.5C 50.3141,77.0893 50.9808,79.7559 51,82.5C 48.9084,74.907 44.075,70.2404 36.5,68.5 Z"/></g>
<g><path style="opacity:1" fill="#ebebeb" d="M 27.5,59.5 C 29.8333,59.5 32.1667,59.5 34.5,59.5C 35.4976,65.1675 33.1643,67.5008 27.5,66.5C 27.5,64.1667 27.5,61.8333 27.5,59.5 Z"/></g>
<g><path style="opacity:1" fill="#e7e7e7" d="M 76.5,59.5 C 78.8333,59.5 81.1667,59.5 83.5,59.5C 83.5,61.8333 83.5,64.1667 83.5,66.5C 81.1667,66.5 78.8333,66.5 76.5,66.5C 76.5,64.1667 76.5,61.8333 76.5,59.5 Z"/></g>
<g><path style="opacity:1" fill="#cecece" d="M 49.5,45.5 C 50.0019,49.6808 48.3352,53.1808 44.5,56C 42.0859,57.8849 39.4192,58.5516 36.5,58C 42.6531,55.6794 46.9865,51.5127 49.5,45.5 Z"/></g>
<g><path style="opacity:1" fill="#d1d1d1" d="M 59.5,42.5 C 61.5517,50.3871 66.5517,55.5538 74.5,58C 69.2534,58.1254 65.0868,55.9587 62,51.5C 60.0924,48.7935 59.259,45.7935 59.5,42.5 Z"/></g>
<g><path style="opacity:1" fill="#f5f5f5" d="M 52.5,43.5 C 54.5,43.5 56.5,43.5 58.5,43.5C 59.0295,53.696 64.3628,59.3626 74.5,60.5C 74.5,62.1667 74.5,63.8333 74.5,65.5C 64.3402,66.659 59.0069,72.3256 58.5,82.5C 56.5,82.5 54.5,82.5 52.5,82.5C 52.0318,72.3625 46.6985,66.6959 36.5,65.5C 36.2148,63.712 36.5481,62.0453 37.5,60.5C 47.1199,58.8815 52.1199,53.2148 52.5,43.5 Z"/></g>
<g><path style="opacity:1" fill="#f7f7f7" d="M 51.5,35.5 C 54.3878,34.9898 56.7211,35.6565 58.5,37.5C 58.5,38.8333 58.5,40.1667 58.5,41.5C 56.5,41.5 54.5,41.5 52.5,41.5C 52.4828,39.4352 52.1495,37.4352 51.5,35.5 Z"/></g>
<g><path style="opacity:1" fill="#808080" d="M 51.5,35.5 C 53.9479,34.5269 56.6146,34.1936 59.5,34.5C 59.7373,35.791 59.404,36.791 58.5,37.5C 56.7211,35.6565 54.3878,34.9898 51.5,35.5 Z"/></g>
</svg>
