<?xml version="1.0" encoding="UTF-8"?>
<!DOCTYPE svg PUBLIC "-//W3C//DTD SVG 1.1//EN" "http://www.w3.org/Graphics/SVG/1.1/DTD/svg11.dtd">
<svg xmlns="http://www.w3.org/2000/svg" version="1.1" width="350px" height="240px" style="shape-rendering:geometricPrecision; text-rendering:geometricPrecision; image-rendering:optimizeQuality; fill-rule:evenodd; clip-rule:evenodd" xmlns:xlink="http://www.w3.org/1999/xlink">
<g><path style="opacity:1" fill="#fdfdfd" d="M -0.5,-0.5 C 116.167,-0.5 232.833,-0.5 349.5,-0.5C 349.5,79.5 349.5,159.5 349.5,239.5C 232.833,239.5 116.167,239.5 -0.5,239.5C -0.5,159.5 -0.5,79.5 -0.5,-0.5 Z"/></g>
<g><path style="opacity:1" fill="#4c4c4c" d="M 119.5,7.5 C 115.958,7.18723 112.625,7.52056 109.5,8.5C 103.071,8.96053 96.7374,9.96053 90.5,11.5C 90.1583,10.6618 89.4916,10.3284 88.5,10.5C 98.6286,6.95597 108.962,5.95597 119.5,7.5 Z"/></g>
<g><path style="opacity:1" fill="#fcfcfc" d="M 109.5,8.5 C 139.547,7.77469 163.381,19.4414 181,43.5C 209.465,86.0339 213.132,130.701 192,177.5C 183.774,193.463 172.607,206.963 158.5,218C 126.199,235.534 94.5325,234.534 63.5,215C 30.8892,184.179 17.0559,146.346 22,101.5C 26.5387,70.5838 40.372,44.7504 63.5,24C 71.7407,18.2132 80.7407,14.0466 90.5,11.5C 96.7374,9.96053 103.071,8.96053 109.5,8.5 Z"/></g>
<g><path style="opacity:1" fill="#f7f7f7" d="M 329.5,191.5 C 329.5,197.5 329.5,203.5 329.5,209.5C 328.907,215.869 327.074,221.869 324,227.5C 320.662,230.318 316.829,231.151 312.5,230C 316.421,224.5 318.588,218.333 319,211.5C 319.426,189.479 316.759,167.812 311,146.5C 303.394,120.529 297.394,94.196 293,67.5C 291.115,53.8235 291.115,40.1568 293,26.5C 294.552,20.8253 297.052,15.6586 300.5,11C 303.881,8.75515 307.548,8.08849 311.5,9C 306.957,13.5851 304.124,19.0851 303,25.5C 301.536,34.1198 301.202,42.7865 302,51.5C 303.893,66.9634 306.559,82.2967 310,97.5C 315.761,118.733 321.094,140.066 326,161.5C 327.891,171.413 329.058,181.413 329.5,191.5 Z"/></g>
<g><path style="opacity:1" fill="#262626" d="M 109.5,8.5 C 112.625,7.52056 115.958,7.18723 119.5,7.5C 153.457,11.2283 178.957,27.895 196,57.5C 221.263,107.048 217.263,154.048 184,198.5C 155.339,229.624 120.839,238.79 80.5,226C 44.7659,208.905 23.2659,180.739 16,141.5C 9.05431,95.3241 22.8876,56.8241 57.5,26C 67.0188,19.2406 77.3521,14.074 88.5,10.5C 89.4916,10.3284 90.1583,10.6618 90.5,11.5C 80.7407,14.0466 71.7407,18.2132 63.5,24C 40.372,44.7504 26.5387,70.5838 22,101.5C 17.0559,146.346 30.8892,184.179 63.5,215C 94.5325,234.534 126.199,235.534 158.5,218C 172.607,206.963 183.774,193.463 192,177.5C 213.132,130.701 209.465,86.0339 181,43.5C 163.381,19.4414 139.547,7.77469 109.5,8.5 Z"/></g>
<g><path style="opacity:1" fill="#282828" d="M 331.5,208.5 C 330.833,202.833 330.167,197.167 329.5,191.5C 329.058,181.413 327.891,171.413 326,161.5C 321.094,140.066 315.761,118.733 310,97.5C 306.559,82.2967 303.893,66.9634 302,51.5C 301.202,42.7865 301.536,34.1198 303,25.5C 304.124,19.0851 306.957,13.5851 311.5,9C 307.548,8.08849 303.881,8.75515 300.5,11C 297.052,15.6586 294.552,20.8253 293,26.5C 291.115,40.1568 291.115,53.8235 293,67.5C 297.394,94.196 303.394,120.529 311,146.5C 316.759,167.812 319.426,189.479 319,211.5C 318.588,218.333 316.421,224.5 312.5,230C 316.829,231.151 320.662,230.318 324,227.5C 327.074,221.869 328.907,215.869 329.5,209.5C 330.404,210.209 330.737,211.209 330.5,212.5C 329.464,230.377 320.464,236.543 303.5,231C 298.659,226.487 295.492,220.987 294,214.5C 292.472,200.871 292.138,187.204 293,173.5C 295.609,156.563 298.776,139.73 302.5,123C 298.271,104.585 294.438,86.0846 291,67.5C 288.744,52.7705 289.078,38.1038 292,23.5C 295.683,8.90697 304.85,3.40697 319.5,7C 321.96,8.4578 324.127,10.2911 326,12.5C 328.544,17.548 330.211,22.8813 331,28.5C 331.886,43.5677 331.22,58.5677 329,73.5C 325.947,89.9302 322.447,106.264 318.5,122.5C 322.977,140.027 326.81,157.694 330,175.5C 331.319,186.456 331.819,197.456 331.5,208.5 Z"/></g>
<g><path style="opacity:1" fill="#f7f7f7" d="M 313.5,8.5 C 317.803,7.79618 321.303,9.12951 324,12.5C 328.519,21.6242 330.686,31.2909 330.5,41.5C 329.155,61.057 326.322,80.3903 322,99.5C 321.711,92.8354 321.878,86.1687 322.5,79.5C 322.442,74.4534 321.942,69.4534 321,64.5C 319.222,58.4199 316.889,58.0865 314,63.5C 312.969,68.0988 312.469,72.7655 312.5,77.5C 313.114,86.8583 313.614,96.1916 314,105.5C 308.266,84.0264 304.766,62.1931 303.5,40C 302.607,28.047 305.94,17.547 313.5,8.5 Z"/></g>
<g><path style="opacity:1" fill="#f2f2f2" d="M 318.5,110.5 C 317.833,110.167 317.167,109.833 316.5,109.5C 314.716,94.8829 314.216,80.2163 315,65.5C 315.576,62.8758 316.91,62.2092 319,63.5C 320.005,69.6202 320.505,75.7869 320.5,82C 320.162,91.5291 319.495,101.029 318.5,110.5 Z"/></g>
<g><path style="opacity:1" fill="#e4e4e4" d="M 183.5,195.5 C 216.907,141.615 215.407,88.9483 179,37.5C 209.099,72.6439 217.765,112.644 205,157.5C 200.632,171.919 193.465,184.586 183.5,195.5 Z"/></g>
<g><path style="opacity:1" fill="#272727" d="M 103.5,59.5 C 139.532,57.7876 160.699,74.7876 167,110.5C 169.499,135.991 160.666,156.491 140.5,172C 108.415,186.638 83.9151,178.472 67,147.5C 55.2642,117.837 60.7642,92.004 83.5,70C 89.5846,65.2598 96.2513,61.7598 103.5,59.5 Z"/></g>
<g><path style="opacity:1" fill="#fdfdfd" d="M 108.5,60.5 C 135.952,60.443 154.118,73.443 163,99.5C 168.55,120.741 165.217,140.407 153,158.5C 135.063,178.92 113.897,183.087 89.5,171C 66.675,153.201 58.5084,130.034 65,101.5C 71.708,79.2848 86.208,65.6182 108.5,60.5 Z"/></g>
<g><path style="opacity:1" fill="#e2e2e2" d="M 44.5,40.5 C 45.525,40.8966 45.6917,41.5632 45,42.5C 18.7592,78.8366 12.4258,118.503 26,161.5C 31.1128,174.732 37.4461,187.065 45,198.5C 25.8111,175.448 15.9777,148.781 15.5,118.5C 16.2492,89.0335 25.9159,63.0335 44.5,40.5 Z"/></g>
<g><path style="opacity:1" fill="#989898" d="M 316.5,109.5 C 317.167,109.833 317.833,110.167 318.5,110.5C 317.754,115.479 317.088,115.146 316.5,109.5 Z"/></g>
<g><path style="opacity:1" fill="#909090" d="M 301.5,141.5 C 301.672,140.508 301.338,139.842 300.5,139.5C 300.995,137.518 301.495,135.518 302,133.5C 302.801,136.367 302.634,139.034 301.5,141.5 Z"/></g>
<g><path style="opacity:1" fill="#e5e5e5" d="M 304.5,131.5 C 307.152,145.912 307.986,160.579 307,175.5C 306.586,175.957 306.086,176.291 305.5,176.5C 304.104,174.028 303.27,171.362 303,168.5C 302.242,156.092 302.742,143.759 304.5,131.5 Z"/></g>
<g><path style="opacity:1" fill="#f6f6f6" d="M 300.5,139.5 C 301.338,139.842 301.672,140.508 301.5,141.5C 301.091,152.896 301.591,164.23 303,175.5C 304.251,178.816 305.918,179.15 308,176.5C 308.968,172.056 309.468,167.556 309.5,163C 309.018,157.489 308.852,151.989 309,146.5C 315.511,169.071 318.177,192.071 317,215.5C 316.261,219.385 314.927,223.052 313,226.5C 309.088,231.701 305.088,231.701 301,226.5C 295.822,215.612 293.322,204.112 293.5,192C 294.483,174.306 296.816,156.806 300.5,139.5 Z"/></g>
<g><path style="opacity:1" fill="#9e9e9e" d="M 183.5,195.5 C 182.969,197.544 181.802,199.211 180,200.5C 180.077,198.228 181.243,196.562 183.5,195.5 Z"/></g>
<g><path style="opacity:1" fill="#696969" d="M 329.5,191.5 C 330.167,197.167 330.833,202.833 331.5,208.5C 331.768,210.099 331.434,211.432 330.5,212.5C 330.737,211.209 330.404,210.209 329.5,209.5C 329.5,203.5 329.5,197.5 329.5,191.5 Z"/></g>
</svg>
