<?xml version="1.0" encoding="UTF-8"?>
<!DOCTYPE svg PUBLIC "-//W3C//DTD SVG 1.1//EN" "http://www.w3.org/Graphics/SVG/1.1/DTD/svg11.dtd">
<svg xmlns="http://www.w3.org/2000/svg" version="1.1" width="335px" height="230px" style="shape-rendering:geometricPrecision; text-rendering:geometricPrecision; image-rendering:optimizeQuality; fill-rule:evenodd; clip-rule:evenodd" xmlns:xlink="http://www.w3.org/1999/xlink">
<g><path style="opacity:1" fill="#fdfdfd" d="M -0.5,-0.5 C 111.167,-0.5 222.833,-0.5 334.5,-0.5C 334.5,76.1667 334.5,152.833 334.5,229.5C 222.833,229.5 111.167,229.5 -0.5,229.5C -0.5,152.833 -0.5,76.1667 -0.5,-0.5 Z"/></g>
<g><path style="opacity:1" fill="#181818" d="M 274.5,17.5 C 290.5,17.5 306.5,17.5 322.5,17.5C 322.857,21.263 323.69,24.9296 325,28.5C 325.667,86.5 325.667,144.5 325,202.5C 323.53,206.378 322.697,210.378 322.5,214.5C 306.5,214.5 290.5,214.5 274.5,214.5C 273.828,210.812 272.995,207.145 272,203.5C 271.333,144.5 271.333,85.5 272,26.5C 272.993,23.5259 273.826,20.5259 274.5,17.5 Z"/></g>
<g><path style="opacity:1" fill="#fafafa" d="M 276.5,19.5 C 291.167,19.5 305.833,19.5 320.5,19.5C 322.274,26.7092 323.274,34.0425 323.5,41.5C 323.042,49.9109 322.042,58.2443 320.5,66.5C 305.818,66.8326 291.152,66.4993 276.5,65.5C 272.503,50.1323 272.503,34.799 276.5,19.5 Z"/></g>
<g><path style="opacity:1" fill="#636363" d="M 272.5,63.5 C 273.794,65.0478 274.461,67.0478 274.5,69.5C 274.167,71.5 273.833,73.5 273.5,75.5C 272.509,71.5546 272.176,67.5546 272.5,63.5 Z"/></g>
<g><path style="opacity:1" fill="#fcfcfc" d="M 320.5,160.5 C 319.596,161.209 319.263,162.209 319.5,163.5C 305.167,163.5 290.833,163.5 276.5,163.5C 272.834,132.522 272.667,101.522 276,70.5C 290.59,68.5262 305.424,67.8596 320.5,68.5C 322.061,84.1257 323.061,99.7924 323.5,115.5C 322.963,130.533 321.963,145.533 320.5,160.5 Z"/></g>
<g><path style="opacity:1" fill="#a6a6a6" d="M 322.5,62.5 C 323.643,65.9758 323.81,69.6425 323,73.5C 321.178,69.8969 321.011,66.2303 322.5,62.5 Z"/></g>
<g><path style="opacity:1" fill="#d9d9d9" d="M 193.5,66.5 C 194.167,82.9966 194.5,99.6633 194.5,116.5C 194.5,133.514 193.833,150.18 192.5,166.5C 193.493,133.24 193.826,99.9065 193.5,66.5 Z"/></g>
<g><path style="opacity:1" fill="#646464" d="M 320.5,160.5 C 320.5,161.833 320.5,163.167 320.5,164.5C 305.657,164.829 290.99,164.496 276.5,163.5C 290.833,163.5 305.167,163.5 319.5,163.5C 319.263,162.209 319.596,161.209 320.5,160.5 Z"/></g>
<g><path style="opacity:1" fill="#acacac" d="M 322.5,157.5 C 323.643,160.976 323.81,164.642 323,168.5C 322.219,167.271 321.719,165.938 321.5,164.5C 322.223,162.218 322.557,159.884 322.5,157.5 Z"/></g>
<g><path style="opacity:1" fill="#f9f9f9" d="M 276.5,165.5 C 291.079,165.176 305.579,165.51 320,166.5C 322.357,173.64 323.523,180.974 323.5,188.5C 323.151,196.593 322.151,204.593 320.5,212.5C 305.833,212.5 291.167,212.5 276.5,212.5C 272.5,196.829 272.5,181.162 276.5,165.5 Z"/></g>
<g><path style="opacity:1" fill="#636363" d="M 272.5,155.5 C 273.117,155.611 273.617,155.944 274,156.5C 274.827,160.541 274.66,164.541 273.5,168.5C 272.508,164.217 272.174,159.884 272.5,155.5 Z"/></g>
<g><path style="opacity:1" fill="#1b1b1b" d="M 193.5,66.5 C 193.826,99.9065 193.493,133.24 192.5,166.5C 164.861,182.322 137.194,198.155 109.5,214C 108.167,214.667 106.833,214.667 105.5,214C 77.421,198.212 49.5876,182.045 22,165.5C 21.3333,132.5 21.3333,99.5 22,66.5C 49.5554,49.9683 77.3888,33.8016 105.5,18C 108.419,17.4484 111.086,18.1151 113.5,20C 140.335,35.3635 167.002,50.8635 193.5,66.5 Z"/></g>
<g><path style="opacity:1" fill="#f2f2f2" d="M 25.5,139.5 C 29.019,153.709 36.019,165.876 46.5,176C 38.8457,173.004 31.5124,169.171 24.5,164.5C 24.1739,155.983 24.5073,147.65 25.5,139.5 Z"/></g>
<g><path style="opacity:1" fill="#757575" d="M 25.5,139.5 C 24.5073,147.65 24.1739,155.983 24.5,164.5C 23.3424,155.343 23.1757,146.009 24,136.5C 25.0386,137.244 25.5386,138.244 25.5,139.5 Z"/></g>
<g><path style="opacity:1" fill="#ececec" d="M 190.5,136.5 C 191.658,145.657 191.824,154.991 191,164.5C 183.502,168.581 176.169,172.915 169,177.5C 173.524,171.924 177.857,165.924 182,159.5C 185.973,152.228 188.806,144.561 190.5,136.5 Z"/></g>
<g><path style="opacity:1" fill="#787878" d="M 24.5,67.5 C 24.1743,75.6841 24.5076,83.6841 25.5,91.5C 25.5386,92.7562 25.0386,93.7562 24,94.5C 23.176,85.3238 23.3427,76.3238 24.5,67.5 Z"/></g>
<g><path style="opacity:1" fill="#eeeeee" d="M 168.5,54.5 C 175.816,58.806 183.149,63.1393 190.5,67.5C 191.665,76.4815 191.832,85.4815 191,94.5C 186.813,79.1086 179.313,65.7753 168.5,54.5 Z"/></g>
<g><path style="opacity:1" fill="#f1f1f1" d="M 25.5,91.5 C 24.5076,83.6841 24.1743,75.6841 24.5,67.5C 31.9999,62.755 39.6666,58.5883 47.5,55C 36.7239,65.0456 29.3905,77.2122 25.5,91.5 Z"/></g>
<g><path style="opacity:1" fill="#fbfbfb" d="M 96.5,32.5 C 139.641,30.4754 169.808,49.142 187,88.5C 198.167,130.342 186,163.508 150.5,188C 116.361,205.71 84.0275,203.043 53.5,180C 25.6095,153.24 17.7762,121.406 30,84.5C 43.3016,55.6848 65.4683,38.3515 96.5,32.5 Z"/></g>
<g><path style="opacity:1" fill="#1d1d1d" d="M 138.5,148.5 C 116.166,165.461 94.6657,164.461 74,145.5C 63.5467,131.666 60.7134,116.333 65.5,99.5C 82.5479,70.2495 105.881,64.0828 135.5,81C 157.05,102.564 158.05,125.064 138.5,148.5 Z"/></g>
<g><path style="opacity:1" fill="#f2f2f2" d="M 140.5,154.5 C 138.96,152.474 138.293,150.474 138.5,148.5C 158.05,125.064 157.05,102.564 135.5,81C 105.881,64.0828 82.5479,70.2495 65.5,99.5C 63.6862,100.223 61.6862,100.223 59.5,99.5C 70.1762,73.6537 89.5096,62.487 117.5,66C 143.067,72.7272 156.734,89.2272 158.5,115.5C 158.636,131.55 152.636,144.55 140.5,154.5 Z"/></g>
<g><path style="opacity:1" fill="#202020" d="M 140.5,154.5 C 152.636,144.55 158.636,131.55 158.5,115.5C 156.734,89.2272 143.067,72.7272 117.5,66C 89.5096,62.487 70.1762,73.6537 59.5,99.5C 57.4446,104.961 56.1113,110.628 55.5,116.5C 55.8026,91.3346 67.8026,74.1679 91.5,65C 113.242,59.5808 132.075,64.7475 148,80.5C 164.438,101.536 165.771,123.536 152,146.5C 141.02,161.74 126.186,169.074 107.5,168.5C 117.367,166.868 126.7,163.701 135.5,159C 137.618,157.951 139.284,156.451 140.5,154.5 Z"/></g>
<g><path style="opacity:1" fill="#fcfcfc" d="M 100.5,73.5 C 134.826,73.9906 150.993,91.3239 149,125.5C 140.269,150.454 122.769,160.954 96.5,157C 72.4945,147.491 62.6611,129.991 67,104.5C 72.9228,88.4075 84.0894,78.0742 100.5,73.5 Z"/></g>
<g><path style="opacity:1" fill="#ececec" d="M 106.5,19.5 C 114.259,23.409 121.926,27.5756 129.5,32C 121.907,31.1408 114.24,30.6408 106.5,30.5C 99.7318,30.5575 93.0651,31.0575 86.5,32C 93.399,28.0587 100.066,23.892 106.5,19.5 Z"/></g>
<g><path style="opacity:1" fill="#eeeeee" d="M 84.5,199.5 C 84.56,198.957 84.8933,198.624 85.5,198.5C 92.1122,200.898 98.9456,201.898 106,201.5C 113.899,201.281 121.732,200.781 129.5,200C 122.361,204.406 115.028,208.572 107.5,212.5C 99.9682,207.902 92.3015,203.568 84.5,199.5 Z"/></g>
</svg>
