<?xml version="1.0" encoding="UTF-8"?>
<!DOCTYPE svg PUBLIC "-//W3C//DTD SVG 1.1//EN" "http://www.w3.org/Graphics/SVG/1.1/DTD/svg11.dtd">
<svg xmlns="http://www.w3.org/2000/svg" version="1.1" width="425px" height="123px" style="shape-rendering:geometricPrecision; text-rendering:geometricPrecision; image-rendering:optimizeQuality; fill-rule:evenodd; clip-rule:evenodd" xmlns:xlink="http://www.w3.org/1999/xlink">
<g><path style="opacity:1" fill="#fcfcfc" d="M -0.5,-0.5 C 141.167,-0.5 282.833,-0.5 424.5,-0.5C 424.5,40.5 424.5,81.5 424.5,122.5C 282.833,122.5 141.167,122.5 -0.5,122.5C -0.5,81.5 -0.5,40.5 -0.5,-0.5 Z"/></g>
<g><path style="opacity:1" fill="#f6f6f6" d="M 187.5,17.5 C 185.109,24.7961 185.109,32.1294 187.5,39.5C 175.167,39.5 162.833,39.5 150.5,39.5C 149.461,33.2033 149.294,26.8699 150,20.5C 150.374,19.5838 150.874,18.7504 151.5,18C 163.495,17.5001 175.495,17.3335 187.5,17.5 Z"/></g>
<g><path style="opacity:1" fill="#eaeaea" d="M 189.5,18.5 C 190.833,25.1667 190.833,31.8333 189.5,38.5C 186.833,31.8333 186.833,25.1667 189.5,18.5 Z"/></g>
<g><path style="opacity:1" fill="#161616" d="M 189.5,16.5 C 189.5,17.1667 189.5,17.8333 189.5,18.5C 188.833,18.1667 188.167,17.8333 187.5,17.5C 175.495,17.3335 163.495,17.5001 151.5,18C 150.874,18.7504 150.374,19.5838 150,20.5C 149.294,26.8699 149.461,33.2033 150.5,39.5C 147.833,40.5 147.833,41.5 150.5,42.5C 149.086,56.842 149.253,71.1754 151,85.5C 163.42,86.4888 175.92,86.8221 188.5,86.5C 176.167,87.1667 163.833,87.8333 151.5,88.5C 149.97,91.6952 149.304,95.1952 149.5,99C 149.304,102.805 149.97,106.305 151.5,109.5C 163.5,110.167 175.5,110.833 187.5,111.5C 174.833,111.5 162.167,111.5 149.5,111.5C 149.509,109.692 149.009,108.025 148,106.5C 147.833,92.3333 147.667,78.1667 147.5,64C 147.357,48.7687 147.857,33.602 149,18.5C 162.253,16.5291 175.753,15.8624 189.5,16.5 Z"/></g>
<g><path style="opacity:1" fill="#2d2d2d" d="M 187.5,17.5 C 188.167,17.8333 188.833,18.1667 189.5,18.5C 186.833,25.1667 186.833,31.8333 189.5,38.5C 189.5,39.8333 189.5,41.1667 189.5,42.5C 186.99,56.4754 186.99,70.4754 189.5,84.5C 189.5,85.8333 189.5,87.1667 189.5,88.5C 186.833,95.5 186.833,102.5 189.5,109.5C 189.833,110.5 190.5,111.167 191.5,111.5C 190.89,112.391 190.557,113.391 190.5,114.5C 189.728,113.306 188.728,112.306 187.5,111.5C 175.5,110.833 163.5,110.167 151.5,109.5C 163.5,109.5 175.5,109.5 187.5,109.5C 186.707,105.534 186.04,101.534 185.5,97.5C 185.552,94.6776 186.219,92.011 187.5,89.5C 175.518,88.501 163.518,88.1677 151.5,88.5C 163.833,87.8333 176.167,87.1667 188.5,86.5C 184.558,71.6297 184.558,56.7964 188.5,42C 175.758,41.1876 163.091,41.3542 150.5,42.5C 147.833,41.5 147.833,40.5 150.5,39.5C 162.833,39.5 175.167,39.5 187.5,39.5C 185.109,32.1294 185.109,24.7961 187.5,17.5 Z"/></g>
<g><path style="opacity:1" fill="#fcfcfc" d="M 188.5,86.5 C 175.92,86.8221 163.42,86.4888 151,85.5C 149.253,71.1754 149.086,56.842 150.5,42.5C 163.091,41.3542 175.758,41.1876 188.5,42C 184.558,56.7964 184.558,71.6297 188.5,86.5 Z"/></g>
<g><path style="opacity:1" fill="#ededed" d="M 189.5,42.5 C 190.833,56.5 190.833,70.5 189.5,84.5C 186.99,70.4754 186.99,56.4754 189.5,42.5 Z"/></g>
<g><path style="opacity:1" fill="#808080" d="M 189.5,16.5 C 191.493,47.8157 192.159,79.4824 191.5,111.5C 190.5,111.167 189.833,110.5 189.5,109.5C 190.833,102.5 190.833,95.5 189.5,88.5C 189.5,87.1667 189.5,85.8333 189.5,84.5C 190.833,70.5 190.833,56.5 189.5,42.5C 189.5,41.1667 189.5,39.8333 189.5,38.5C 190.833,31.8333 190.833,25.1667 189.5,18.5C 189.5,17.8333 189.5,17.1667 189.5,16.5 Z"/></g>
<g><path style="opacity:1" fill="#fcfcfc" d="M 151.5,88.5 C 163.518,88.1677 175.518,88.501 187.5,89.5C 186.219,92.011 185.552,94.6776 185.5,97.5C 186.04,101.534 186.707,105.534 187.5,109.5C 175.5,109.5 163.5,109.5 151.5,109.5C 149.97,106.305 149.304,102.805 149.5,99C 149.304,95.1952 149.97,91.6952 151.5,88.5 Z"/></g>
<g><path style="opacity:1" fill="#242424" d="M 190.5,114.5 C 190.557,113.391 190.89,112.391 191.5,111.5C 192.159,79.4824 191.493,47.8157 189.5,16.5C 189.35,8.11052 192.85,5.77719 200,9.5C 200.5,18.4938 200.666,27.4938 200.5,36.5C 271.836,36.1667 343.17,36.5 414.5,37.5C 415.815,39.3159 417.315,40.9825 419,42.5C 419.667,56.8333 419.667,71.1667 419,85.5C 417.5,87 416,88.5 414.5,90C 343.167,90.5 271.834,90.6667 200.5,90.5C 200.666,99.5062 200.5,108.506 200,117.5C 195.1,121.983 191.934,120.983 190.5,114.5 Z"/></g>
<g><path style="opacity:1" fill="#878787" d="M 200.5,38.5 C 200.5,55.1667 200.5,71.8333 200.5,88.5C 221.167,88.5 241.833,88.5 262.5,88.5C 241.673,89.4973 220.673,89.8306 199.5,89.5C 199.17,72.3251 199.503,55.3251 200.5,38.5 Z"/></g>
<g><path style="opacity:1" fill="#cccccc" d="M 272.5,86.5 C 273.404,87.209 273.737,88.209 273.5,89.5C 267.189,89.8531 266.855,88.8531 272.5,86.5 Z"/></g>
<g><path style="opacity:1" fill="#e1e1e1" d="M 275.5,86.5 C 321.167,86.5 366.833,86.5 412.5,86.5C 412.5,87.5 412.5,88.5 412.5,89.5C 366.833,89.5 321.167,89.5 275.5,89.5C 275.5,88.5 275.5,87.5 275.5,86.5 Z"/></g>
<g><path style="opacity:1" fill="#f2f2f2" d="M 414.5,43.5 C 415.5,43.5 416.5,43.5 417.5,43.5C 417.5,57.1667 417.5,70.8333 417.5,84.5C 416.5,84.5 415.5,84.5 414.5,84.5C 414.5,70.8333 414.5,57.1667 414.5,43.5 Z"/></g>
<g><path style="opacity:1" fill="#fcfcfc" d="M 275.5,43.5 C 321.167,43.5 366.833,43.5 412.5,43.5C 412.5,57.1667 412.5,70.8333 412.5,84.5C 366.833,84.5 321.167,84.5 275.5,84.5C 275.5,70.8333 275.5,57.1667 275.5,43.5 Z"/></g>
<g><path style="opacity:1" fill="#f3f3f3" d="M 275.5,38.5 C 321.167,38.5 366.833,38.5 412.5,38.5C 412.5,39.5 412.5,40.5 412.5,41.5C 366.833,41.5 321.167,41.5 275.5,41.5C 275.5,40.5 275.5,39.5 275.5,38.5 Z"/></g>
<g><path style="opacity:1" fill="#fdfdfd" d="M 200.5,38.5 C 221.169,38.3334 241.836,38.5 262.5,39C 265.833,40.3333 269.167,41.6667 272.5,43C 273.656,56.7583 273.823,70.5917 273,84.5C 269.532,85.9335 266.032,87.2668 262.5,88.5C 241.833,88.5 221.167,88.5 200.5,88.5C 200.5,71.8333 200.5,55.1667 200.5,38.5 Z"/></g>
<g><path style="opacity:1" fill="#cecece" d="M 267.5,39.5 C 269.364,38.2072 271.364,38.2072 273.5,39.5C 271.54,40.5192 269.54,40.5192 267.5,39.5 Z"/></g>
<g><path style="opacity:1" fill="#ececec" d="M 193.5,9.5 C 195.144,9.28649 196.644,9.61983 198,10.5C 198.667,46.1667 198.667,81.8333 198,117.5C 196.333,118.833 194.667,118.833 193,117.5C 192.174,81.4287 192.341,45.4287 193.5,9.5 Z"/></g>
<g><path style="opacity:1" fill="#eaeaea" d="M 189.5,88.5 C 190.833,95.5 190.833,102.5 189.5,109.5C 186.833,102.5 186.833,95.5 189.5,88.5 Z"/></g>
<g><path style="opacity:1" fill="#1e1e1e" d="M 49.5,6.5 C 80.8497,4.72471 102.016,18.3914 113,47.5C 119.168,82.0094 106.001,105.509 73.5,118C 38.4732,124.244 14.9732,110.744 3,77.5C -2.03191,40.2011 13.4681,16.5345 49.5,6.5 Z"/></g>
<g><path style="opacity:1" fill="#f6f6f6" d="M 47.5,8.5 C 80.2243,5.59452 101.724,19.5945 112,50.5C 116.446,84.6955 102.279,106.862 69.5,117C 47.6208,120.818 29.4542,114.318 15,97.5C -0.650378,73.8977 -0.317045,50.5644 16,27.5C 24.6301,17.9404 35.1301,11.6071 47.5,8.5 Z"/></g>
<g><path style="opacity:1" fill="#1e1e1e" d="M 56.5,16.5 C 70.9632,23.4982 85.1298,31.1649 99,39.5C 99.8329,55.8435 99.6663,72.1769 98.5,88.5C 85.0652,96.3002 71.5652,103.967 58,111.5C 44.4348,103.967 30.9348,96.3002 17.5,88.5C 16.1667,72.1667 16.1667,55.8333 17.5,39.5C 30.7279,32.059 43.7279,24.3924 56.5,16.5 Z"/></g>
<g><path style="opacity:1" fill="#e2e2e2" d="M 49.5,105.5 C 49.7352,104.903 50.2352,104.57 51,104.5C 55.1274,105.239 59.294,105.739 63.5,106C 61.7348,107.298 59.9014,108.464 58,109.5C 55.2599,107.916 52.4266,106.583 49.5,105.5 Z"/></g>
<g><path style="opacity:1" fill="#e6e6e6" d="M 18.5,77.5 C 20.4113,81.8147 22.7447,85.9814 25.5,90C 23.4971,89.5808 21.4971,88.7474 19.5,87.5C 18.513,84.2317 18.1796,80.8984 18.5,77.5 Z"/></g>
<g><path style="opacity:1" fill="#e3e3e3" d="M 96.5,78.5 C 98.7011,84.0782 97.0344,88.0782 91.5,90.5C 91.1667,90.3333 90.8333,90.1667 90.5,90C 93.1632,86.5066 95.1632,82.6733 96.5,78.5 Z"/></g>
<g><path style="opacity:1" fill="#e4e4e4" d="M 24.5,36.5 C 25.2389,36.369 25.9056,36.5357 26.5,37C 23.3712,40.7522 20.8712,44.9188 19,49.5C 18.1786,46.4459 18.3452,43.4459 19.5,40.5C 21.7855,39.8671 23.4522,38.5338 24.5,36.5 Z"/></g>
<g><path style="opacity:1" fill="#e0e0e0" d="M 89.5,37.5 C 89.56,36.9569 89.8933,36.6236 90.5,36.5C 96.6275,38.752 98.7941,43.0853 97,49.5C 95.6838,44.6541 93.1838,40.6541 89.5,37.5 Z"/></g>
<g><path style="opacity:1" fill="#fcfcfc" d="M 48.5,24.5 C 72.7036,21.9981 88.8703,31.9981 97,54.5C 100.209,80.285 89.3754,96.4517 64.5,103C 40.8232,104.748 25.6566,94.248 19,71.5C 16.719,48.0341 26.5524,32.3674 48.5,24.5 Z"/></g>
<g><path style="opacity:1" fill="#e4e4e4" d="M 56.5,18.5 C 59.5158,18.8406 62.1825,20.0073 64.5,22C 60.1667,22.6667 55.8333,22.6667 51.5,22C 53.2331,20.8111 54.8998,19.6444 56.5,18.5 Z"/></g>
</svg>
