<?xml version="1.0" encoding="UTF-8"?>
<!DOCTYPE svg PUBLIC "-//W3C//DTD SVG 1.1//EN" "http://www.w3.org/Graphics/SVG/1.1/DTD/svg11.dtd">
<svg xmlns="http://www.w3.org/2000/svg" version="1.1" width="436px" height="123px" style="shape-rendering:geometricPrecision; text-rendering:geometricPrecision; image-rendering:optimizeQuality; fill-rule:evenodd; clip-rule:evenodd" xmlns:xlink="http://www.w3.org/1999/xlink">
<g><path style="opacity:1" fill="#fcfcfc" d="M -0.5,-0.5 C 144.833,-0.5 290.167,-0.5 435.5,-0.5C 435.5,40.5 435.5,81.5 435.5,122.5C 290.167,122.5 144.833,122.5 -0.5,122.5C -0.5,81.5 -0.5,40.5 -0.5,-0.5 Z"/></g>
<g><path style="opacity:1" fill="#1b1b1b" d="M 182.5,0.5 C 190.167,0.5 197.833,0.5 205.5,0.5C 205.334,10.1724 205.5,19.8391 206,29.5C 207.077,32.913 209.244,35.413 212.5,37C 216.833,37.6667 221.167,37.6667 225.5,37C 227.006,34.6667 228.673,32.5 230.5,30.5C 232.063,31.9448 233.396,33.6115 234.5,35.5C 237.106,36.6517 239.773,36.8184 242.5,36C 243.479,33.8627 244.812,32.0294 246.5,30.5C 248.76,32.1768 250.427,34.3434 251.5,37C 253.833,37.6667 256.167,37.6667 258.5,37C 259.64,34.5417 261.14,32.375 263,30.5C 264.734,32.2902 266.234,34.2902 267.5,36.5C 269.765,37.6474 272.098,37.8141 274.5,37C 276.006,34.6667 277.673,32.5 279.5,30.5C 281.316,32.1184 282.649,34.1184 283.5,36.5C 286.167,37.8333 288.833,37.8333 291.5,36.5C 294.524,28.6357 297.524,28.8023 300.5,37C 302.902,37.8141 305.235,37.6474 307.5,36.5C 308.766,34.2902 310.266,32.2902 312,30.5C 313.611,32.2096 315.111,34.0429 316.5,36C 319.227,36.8184 321.894,36.6517 324.5,35.5C 326.575,29.5103 329.075,29.177 332,34.5C 332.483,35.448 332.649,36.448 332.5,37.5C 335.247,37.8134 337.914,37.48 340.5,36.5C 343.524,28.6357 346.524,28.8023 349.5,37C 351.902,37.8141 354.235,37.6474 356.5,36.5C 357.766,34.2902 359.266,32.2902 361,30.5C 362.734,32.2902 364.234,34.2902 365.5,36.5C 367.765,37.6474 370.098,37.8141 372.5,37C 373.573,34.3434 375.24,32.1768 377.5,30.5C 379.331,32.8257 381.165,35.1591 383,37.5C 385.46,38.5979 387.96,39.5979 390.5,40.5C 391.386,39.675 391.719,38.675 391.5,37.5C 392.552,37.3505 393.552,37.5172 394.5,38C 397.658,44.2458 402.658,46.7458 409.5,45.5C 411.473,46.806 413.139,48.4727 414.5,50.5C 420.766,52.6345 426.766,55.3012 432.5,58.5C 426.967,60.7601 421.967,63.7601 417.5,67.5C 416.707,67.0688 415.873,66.7355 415,66.5C 412.411,67.6965 409.744,68.6965 407,69.5C 404.977,71.3551 403.144,73.3551 401.5,75.5C 400.452,74.6171 399.285,73.9504 398,73.5C 392.698,74.5627 388.865,77.3961 386.5,82C 384.647,82.5513 383.313,81.8847 382.5,80C 379.446,79.1786 376.446,79.3452 373.5,80.5C 372.234,82.7098 370.734,84.7098 369,86.5C 367.14,84.625 365.64,82.4583 364.5,80C 362.167,79.3333 359.833,79.3333 357.5,80C 356.36,82.4583 354.86,84.625 353,86.5C 351.266,84.7098 349.766,82.7098 348.5,80.5C 345.833,79.1667 343.167,79.1667 340.5,80.5C 337.833,88.5 335.167,88.5 332.5,80.5C 329.833,79.1667 327.167,79.1667 324.5,80.5C 323.234,82.7098 321.734,84.7098 320,86.5C 318.14,84.625 316.64,82.4583 315.5,80C 313.167,79.3333 310.833,79.3333 308.5,80C 307.427,82.6566 305.76,84.8232 303.5,86.5C 302.01,82.6683 299.344,80.335 295.5,79.5C 294.167,79.8333 292.833,80.1667 291.5,80.5C 290.649,82.8816 289.316,84.8816 287.5,86.5C 285.724,84.4622 284.057,82.2955 282.5,80C 280.098,79.1859 277.765,79.3526 275.5,80.5C 274.167,82.5 272.833,84.5 271.5,86.5C 269.673,84.5 268.006,82.3333 266.5,80C 264.167,79.3333 261.833,79.3333 259.5,80C 258.427,82.6566 256.76,84.8232 254.5,86.5C 253.041,84.417 251.708,82.2503 250.5,80C 247.773,79.1816 245.106,79.3483 242.5,80.5C 239.833,88.5 237.167,88.5 234.5,80.5C 231.833,79.1667 229.167,79.1667 226.5,80.5C 223.526,88.3907 220.693,88.3907 218,80.5C 212.329,79.0022 208.329,81.0022 206,86.5C 205.5,96.1609 205.334,105.828 205.5,115.5C 197.16,115.666 188.827,115.5 180.5,115C 168.693,100.245 162.859,83.4112 163,64.5C 165.329,63.2292 166.495,61.2292 166.5,58.5C 164.202,54.9413 162.869,50.9413 162.5,46.5C 163.966,28.7226 170.633,13.3893 182.5,0.5 Z"/></g>
<g><path style="opacity:1" fill="#fcfcfc" d="M 183.5,2.5 C 190.167,2.5 196.833,2.5 203.5,2.5C 203.5,39.8333 203.5,77.1667 203.5,114.5C 196.053,114.929 188.719,114.429 181.5,113C 171.817,100.125 166.15,85.6246 164.5,69.5C 166.233,66.1997 167.233,62.533 167.5,58.5C 166.678,54.1096 165.678,49.7763 164.5,45.5C 166.272,28.9726 172.605,14.6392 183.5,2.5 Z"/></g>
<g><path style="opacity:1" fill="#1d1d1d" d="M 55.5,0.5 C 89.6889,-0.341021 111.189,15.659 120,48.5C 122.648,82.8523 107.482,105.019 74.5,115C 48.7874,119.217 28.6207,110.717 14,89.5C -0.416146,61.9612 3.08385,37.1279 24.5,15C 33.6396,7.4279 43.973,2.59457 55.5,0.5 Z"/></g>
<g><path style="opacity:1" fill="#fbfbfb" d="M 56.5,2.5 C 88.7755,2.20999 109.275,17.5433 118,48.5C 120.437,79.4743 107.27,100.641 78.5,112C 52.3743,117.961 31.541,110.128 16,88.5C 0.0241064,57.5807 5.85744,31.7474 33.5,11C 40.7113,6.65496 48.378,3.82163 56.5,2.5 Z"/></g>
<g><path style="opacity:1" fill="#d6d6d6" d="M 343.5,34.5 C 344.117,34.6107 344.617,34.944 345,35.5C 347.129,49.4533 348.462,63.4533 349,77.5C 346.931,64.3098 344.765,51.1431 342.5,38C 342.989,36.8615 343.322,35.6948 343.5,34.5 Z"/></g>
<g><path style="opacity:1" fill="#f2f2f2" d="M 205.5,35.5 C 207.255,36.0722 208.922,36.9055 210.5,38C 215.864,38.1705 221.198,38.6705 226.5,39.5C 228.826,52.105 230.826,64.7716 232.5,77.5C 230.167,77.5 227.833,77.5 225.5,77.5C 224.886,71.1471 224.053,64.8138 223,58.5C 221.438,55.2797 219.604,52.2797 217.5,49.5C 215.295,53.1645 213.962,57.1645 213.5,61.5C 214.223,66.5658 215.223,71.5658 216.5,76.5C 212.539,77.2306 209.039,78.8973 206,81.5C 205.5,66.1703 205.333,50.837 205.5,35.5 Z"/></g>
<g><path style="opacity:1" fill="#838383" d="M 275.5,39.5 C 272.918,39.0254 270.918,39.6921 269.5,41.5C 268.596,40.791 268.263,39.791 268.5,38.5C 271.059,38.1984 273.393,38.5318 275.5,39.5 Z"/></g>
<g><path style="opacity:1" fill="#818181" d="M 324.5,39.5 C 321.918,39.0254 319.918,39.6921 318.5,41.5C 317.596,40.791 317.263,39.791 317.5,38.5C 320.059,38.1984 322.393,38.5318 324.5,39.5 Z"/></g>
<g><path style="opacity:1" fill="#929292" d="M 356.5,39.5 C 354.219,39.0773 352.552,39.744 351.5,41.5C 350.596,40.791 350.263,39.791 350.5,38.5C 352.735,38.2053 354.735,38.5386 356.5,39.5 Z"/></g>
<g><path style="opacity:1" fill="#818181" d="M 373.5,39.5 C 370.918,39.0254 368.918,39.6921 367.5,41.5C 366.596,40.791 366.263,39.791 366.5,38.5C 369.059,38.1984 371.393,38.5318 373.5,39.5 Z"/></g>
<g><path style="opacity:1" fill="#d8d8d8" d="M 379.5,51.5 C 379.672,52.4916 379.338,53.1583 378.5,53.5C 377.322,47.4967 376.489,41.4967 376,35.5C 377.016,34.3659 377.683,34.6992 378,36.5C 378.748,41.4814 379.248,46.4814 379.5,51.5 Z"/></g>
<g><path style="opacity:1" fill="#efefef" d="M 252.5,38.5 C 254.527,38.3379 256.527,38.5045 258.5,39C 259.126,39.7504 259.626,40.5838 260,41.5C 261.83,53.4744 263.33,65.4744 264.5,77.5C 262.5,77.5 260.5,77.5 258.5,77.5C 256.744,64.4519 254.744,51.4519 252.5,38.5 Z"/></g>
<g><path style="opacity:1" fill="#efefef" d="M 275.5,39.5 C 278.144,52.0339 280.144,64.7006 281.5,77.5C 279.167,77.5 276.833,77.5 274.5,77.5C 273.096,65.4532 271.429,53.4532 269.5,41.5C 270.918,39.6921 272.918,39.0254 275.5,39.5 Z"/></g>
<g><path style="opacity:1" fill="#f0f0f0" d="M 285.5,38.5 C 287.792,38.2436 289.959,38.5769 292,39.5C 294.325,52.1028 296.159,64.7695 297.5,77.5C 294.921,77.9167 292.754,77.25 291,75.5C 289.247,63.1414 287.414,50.8081 285.5,38.5 Z"/></g>
<g><path style="opacity:1" fill="#efefef" d="M 301.5,38.5 C 303.833,38.5 306.167,38.5 308.5,38.5C 310.217,51.4087 312.217,64.2421 314.5,77C 312.19,77.4966 309.857,77.6633 307.5,77.5C 305.745,64.4575 303.745,51.4575 301.5,38.5 Z"/></g>
<g><path style="opacity:1" fill="#f2f2f2" d="M 324.5,39.5 C 326.789,51.7532 328.789,64.0866 330.5,76.5C 328.257,77.4742 325.924,77.8076 323.5,77.5C 322.16,65.4416 320.493,53.4416 318.5,41.5C 319.918,39.6921 321.918,39.0254 324.5,39.5 Z"/></g>
<g><path style="opacity:1" fill="#f0f0f0" d="M 334.5,38.5 C 336.792,38.2436 338.959,38.5769 341,39.5C 343.161,52.1257 344.995,64.7923 346.5,77.5C 343.921,77.9167 341.754,77.25 340,75.5C 338.166,63.1547 336.333,50.8214 334.5,38.5 Z"/></g>
<g><path style="opacity:1" fill="#f4f4f4" d="M 356.5,39.5 C 357.963,42.2026 358.796,45.2026 359,48.5C 360.414,58.1446 361.581,67.8112 362.5,77.5C 360.5,77.5 358.5,77.5 356.5,77.5C 354.833,65.501 353.167,53.501 351.5,41.5C 352.552,39.744 354.219,39.0773 356.5,39.5 Z"/></g>
<g><path style="opacity:1" fill="#f2f2f2" d="M 373.5,39.5 C 376.474,52.0071 378.807,64.6738 380.5,77.5C 377.833,77.5 375.167,77.5 372.5,77.5C 370.702,65.5154 369.035,53.5154 367.5,41.5C 368.918,39.6921 370.918,39.0254 373.5,39.5 Z"/></g>
<g><path style="opacity:1" fill="#d9d9d9" d="M 327.5,34.5 C 329.109,37.1489 329.943,40.1489 330,43.5C 331.269,54.8558 332.269,66.1892 333,77.5C 330.703,64.5315 328.536,51.5315 326.5,38.5C 326.623,37.0755 326.957,35.7421 327.5,34.5 Z"/></g>
<g><path style="opacity:1" fill="#f0f0f0" d="M 383.5,40.5 C 386.813,40.9075 389.646,42.2408 392,44.5C 394.627,53.4461 396.127,62.4461 396.5,71.5C 394.393,72.6368 392.227,73.6368 390,74.5C 389.055,74.0946 388.388,73.428 388,72.5C 386.825,61.7671 385.325,51.1004 383.5,40.5 Z"/></g>
<g><path style="opacity:1" fill="#f1f1f1" d="M 236.5,38.5 C 238.792,38.2436 240.959,38.5769 243,39.5C 245.325,52.0987 247.158,64.7654 248.5,77.5C 245.921,77.9167 243.754,77.25 242,75.5C 240.247,63.1414 238.414,50.8081 236.5,38.5 Z"/></g>
<g><path style="opacity:1" fill="#f3f3f3" d="M 399.5,46.5 C 402.614,47.9278 405.781,49.2612 409,50.5C 410.401,54.8708 411.901,59.2041 413.5,63.5C 410.778,66.1888 407.445,67.5222 403.5,67.5C 402.274,60.4788 400.941,53.4788 399.5,46.5 Z"/></g>
<g><path style="opacity:1" fill="#9c9c9c" d="M 252.5,49.5 C 251.662,49.8417 251.328,50.5084 251.5,51.5C 250.128,47.3766 249.628,43.0433 250,38.5C 251.406,42.0314 252.24,45.6981 252.5,49.5 Z"/></g>
<g><path style="opacity:1" fill="#9b9b9b" d="M 350.5,49.5 C 349.662,49.8417 349.328,50.5084 349.5,51.5C 348.042,47.7266 347.542,43.7266 348,39.5C 349.524,42.6103 350.358,45.9436 350.5,49.5 Z"/></g>
<g><path style="opacity:1" fill="#d4d4d4" d="M 261.5,34.5 C 263.045,35.2297 263.878,36.563 264,38.5C 265.536,51.5287 266.869,64.5287 268,77.5C 265.448,64.2372 262.948,50.9038 260.5,37.5C 261.127,36.5832 261.461,35.5832 261.5,34.5 Z"/></g>
<g><path style="opacity:1" fill="#d8d8d8" d="M 310.5,34.5 C 312.045,35.2297 312.878,36.563 313,38.5C 314.598,50.8127 315.598,63.146 316,75.5C 314.449,62.6863 312.282,50.0196 309.5,37.5C 310.127,36.5832 310.461,35.5832 310.5,34.5 Z"/></g>
<g><path style="opacity:1" fill="#cacaca" d="M 331.5,39.5 C 332.222,39.9175 332.722,40.5842 333,41.5C 334.726,54.1873 336.559,66.8539 338.5,79.5C 338.444,80.737 337.944,81.737 337,82.5C 336.333,80.5 335.667,78.5 335,76.5C 333.923,64.1508 332.756,51.8175 331.5,39.5 Z"/></g>
<g><path style="opacity:1" fill="#cccccc" d="M 266.5,40.5 C 268.868,53.1847 271.201,66.0181 273.5,79C 273.22,80.395 272.553,81.5617 271.5,82.5C 268.995,68.6137 267.328,54.6137 266.5,40.5 Z"/></g>
<g><path style="opacity:1" fill="#c9c9c9" d="M 294.5,34.5 C 296.164,35.9488 296.998,37.9488 297,40.5C 298.4,52.4983 299.4,64.4983 300,76.5C 297.927,63.66 295.761,50.8267 293.5,38C 293.989,36.8615 294.322,35.6948 294.5,34.5 Z"/></g>
<g><path style="opacity:1" fill="#d2d2d2" d="M 245.5,34.5 C 247.197,36.3052 248.03,38.6385 248,41.5C 249.484,53.1564 250.484,64.8231 251,76.5C 248.257,62.479 246.424,48.479 245.5,34.5 Z"/></g>
<g><path style="opacity:1" fill="#cfcfcf" d="M 229.5,34.5 C 231.109,37.1489 231.943,40.1489 232,43.5C 233.269,54.8497 234.269,66.183 235,77.5C 232.73,64.2146 230.564,50.8812 228.5,37.5C 228.685,36.4163 229.018,35.4163 229.5,34.5 Z"/></g>
<g><path style="opacity:1" fill="#ebebeb" d="M 415.5,53.5 C 419.727,54.6135 423.727,56.2802 427.5,58.5C 420.794,63.4824 416.794,61.8158 415.5,53.5 Z"/></g>
<g><path style="opacity:1" fill="#cdcdcd" d="M 278.5,33.5 C 279.268,34.2625 279.768,35.2625 280,36.5C 281.8,50.1674 283.134,63.8341 284,77.5C 281.55,64.4136 279.384,51.2469 277.5,38C 277.773,36.4672 278.106,34.9672 278.5,33.5 Z"/></g>
<g><path style="opacity:1" fill="#d2d2d2" d="M 233.5,39.5 C 234.887,41.8766 235.721,44.5432 236,47.5C 237.174,58.2151 238.674,68.8818 240.5,79.5C 240.444,80.737 239.944,81.737 239,82.5C 236.378,68.2789 234.544,53.9456 233.5,39.5 Z"/></g>
<g><path style="opacity:1" fill="#9d9d9d" d="M 397.5,49.5 C 399.565,56.6562 401.065,63.9895 402,71.5C 399.326,64.4658 397.826,57.1325 397.5,49.5 Z"/></g>
<g><path style="opacity:1" fill="#d0d0d0" d="M 219.5,58.5 C 220.117,58.6107 220.617,58.944 221,59.5C 221.877,66.06 223.043,72.56 224.5,79C 224.22,80.395 223.553,81.5617 222.5,82.5C 220.516,74.631 219.516,66.631 219.5,58.5 Z"/></g>
<g><path style="opacity:1" fill="#dddddd" d="M 350.5,49.5 C 352.218,60.1323 353.385,70.799 354,81.5C 353.667,81.8333 353.333,82.1667 353,82.5C 350.912,72.2834 349.745,61.95 349.5,51.5C 349.328,50.5084 349.662,49.8417 350.5,49.5 Z"/></g>
<g><path style="opacity:1" fill="#d3d3d3" d="M 359.5,34.5 C 361.045,35.2297 361.878,36.563 362,38.5C 363.725,50.8017 364.725,63.135 365,75.5C 363.158,62.7532 360.991,50.0866 358.5,37.5C 359.127,36.5832 359.461,35.5832 359.5,34.5 Z"/></g>
<g><path style="opacity:1" fill="#656565" d="M 379.5,51.5 C 380.901,56.9643 381.401,62.631 381,68.5C 379.921,63.5316 379.088,58.5316 378.5,53.5C 379.338,53.1583 379.672,52.4916 379.5,51.5 Z"/></g>
<g><path style="opacity:1" fill="#dcdcdc" d="M 252.5,49.5 C 254.094,60.1501 255.261,70.8167 256,81.5C 255.667,81.8333 255.333,82.1667 255,82.5C 253.078,72.2661 251.911,61.9327 251.5,51.5C 251.328,50.5084 251.662,49.8417 252.5,49.5 Z"/></g>
<g><path style="opacity:1" fill="#dadada" d="M 298.5,38.5 C 299.222,38.9175 299.722,39.5842 300,40.5C 301.793,53.0082 303.626,65.5082 305.5,78C 305.546,79.728 305.046,81.228 304,82.5C 301.707,67.9026 299.873,53.2359 298.5,38.5 Z"/></g>
<g><path style="opacity:1" fill="#acacac" d="M 216.5,57.5 C 217.833,64.0087 218.666,70.6753 219,77.5C 216.62,71.0107 215.787,64.3441 216.5,57.5 Z"/></g>
<g><path style="opacity:1" fill="#191919" d="M 56.5,28.5 C 60.5,28.5 64.5,28.5 68.5,28.5C 68.9746,44.1637 76.9746,52.1637 92.5,52.5C 92.5,56.5 92.5,60.5 92.5,64.5C 76.8957,64.7709 68.8957,72.7709 68.5,88.5C 64.5,88.5 60.5,88.5 56.5,88.5C 56.8933,72.2265 48.8933,64.2265 32.5,64.5C 32.5,60.5 32.5,56.5 32.5,52.5C 48.2444,52.0892 56.2444,44.0892 56.5,28.5 Z"/></g>
<g><path style="opacity:1" fill="#bdbdbd" d="M 44.5,64.5 C 48.6808,63.9981 52.1808,65.6648 55,69.5C 56.5899,71.6498 57.2566,73.9832 57,76.5C 54.8415,70.3493 50.6748,66.3493 44.5,64.5 Z"/></g>
<g><path style="opacity:1" fill="#c5c5c5" d="M 78.5,63.5 C 79.552,63.3505 80.552,63.5172 81.5,64C 75.7284,66.1055 71.5617,69.9389 69,75.5C 70.0286,69.9544 73.1953,65.9544 78.5,63.5 Z"/></g>
<g><path style="opacity:1" fill="#8b8b8b" d="M 88.5,55.5 C 89.209,54.596 90.209,54.2627 91.5,54.5C 91.5,57.1667 91.5,59.8333 91.5,62.5C 90.209,62.7373 89.209,62.404 88.5,61.5C 89.6935,61.0296 90.3601,60.0296 90.5,58.5C 90.3601,56.9704 89.6935,55.9704 88.5,55.5 Z"/></g>
<g><path style="opacity:1" fill="#f9f9f9" d="M 88.5,55.5 C 89.6935,55.9704 90.3601,56.9704 90.5,58.5C 90.3601,60.0296 89.6935,61.0296 88.5,61.5C 87.5,61.5 86.5,61.5 85.5,61.5C 85.5,59.5 85.5,57.5 85.5,55.5C 86.5,55.5 87.5,55.5 88.5,55.5 Z"/></g>
<g><path style="opacity:1" fill="#e4e4e4" d="M 34.5,54.5 C 36.5,54.8333 38.5,55.1667 40.5,55.5C 40.5,57.5 40.5,59.5 40.5,61.5C 38.5,61.8333 36.5,62.1667 34.5,62.5C 34.5,59.8333 34.5,57.1667 34.5,54.5 Z"/></g>
<g><path style="opacity:1" fill="#c3c3c3" d="M 56.5,40.5 C 56.9807,45.6621 54.6474,49.4954 49.5,52C 47.9556,53.1871 46.2889,53.5205 44.5,53C 50.6336,50.7889 54.6336,46.6222 56.5,40.5 Z"/></g>
<g><path style="opacity:1" fill="#bdbdbd" d="M 68.5,41.5 C 70.636,43.8123 72.636,46.3123 74.5,49C 76.5,50.3333 78.5,51.6667 80.5,53C 74.1081,51.777 70.1081,47.9436 68.5,41.5 Z"/></g>
<g><path style="opacity:1" fill="#f6f6f6" d="M 60.5,38.5 C 62.1667,38.5 63.8333,38.5 65.5,38.5C 67.0077,49.0096 73.0077,54.6763 83.5,55.5C 83.5,57.5 83.5,59.5 83.5,61.5C 72.546,62.454 66.546,68.454 65.5,79.5C 63.8333,79.5 62.1667,79.5 60.5,79.5C 59.4551,68.455 53.4551,62.455 42.5,61.5C 42.5,59.5 42.5,57.5 42.5,55.5C 53.0523,54.6135 59.0523,48.9469 60.5,38.5 Z"/></g>
<g><path style="opacity:1" fill="#ebebeb" d="M 59.5,30.5 C 61.8333,30.5 64.1667,30.5 66.5,30.5C 66.5,32.1667 66.5,33.8333 66.5,35.5C 64.1667,35.5 61.8333,35.5 59.5,35.5C 59.5,33.8333 59.5,32.1667 59.5,30.5 Z"/></g>
<g><path style="opacity:1" fill="#d6d6d6" d="M 315.5,40.5 C 318.027,53.1513 320.36,65.9847 322.5,79C 322.22,80.395 321.553,81.5617 320.5,82.5C 317.911,68.6112 316.244,54.6112 315.5,40.5 Z"/></g>
<g><path style="opacity:1" fill="#c8c8c8" d="M 380.5,39.5 C 381.222,39.9175 381.722,40.5842 382,41.5C 383.1,53.3028 384.933,64.9694 387.5,76.5C 387.081,77.6721 386.415,78.6721 385.5,79.5C 383.044,66.2774 381.377,52.9441 380.5,39.5 Z"/></g>
<g><path style="opacity:1" fill="#dcdcdc" d="M 282.5,39.5 C 285.312,52.6062 287.645,65.9396 289.5,79.5C 289.444,80.737 288.944,81.737 288,82.5C 285.233,68.2998 283.399,53.9665 282.5,39.5 Z"/></g>
<g><path style="opacity:1" fill="#d7d7d7" d="M 364.5,40.5 C 366.865,53.1811 369.198,66.0145 371.5,79C 371.22,80.395 370.553,81.5617 369.5,82.5C 366.912,68.6229 365.245,54.6229 364.5,40.5 Z"/></g>
<g><path style="opacity:1" fill="#f0f0f0" d="M 59.5,81.5 C 61.8333,81.5 64.1667,81.5 66.5,81.5C 66.5,83.1667 66.5,84.8333 66.5,86.5C 64.1667,86.5 61.8333,86.5 59.5,86.5C 59.5,84.8333 59.5,83.1667 59.5,81.5 Z"/></g>
</svg>
