<?xml version="1.0" encoding="UTF-8"?>
<!DOCTYPE svg PUBLIC "-//W3C//DTD SVG 1.1//EN" "http://www.w3.org/Graphics/SVG/1.1/DTD/svg11.dtd">
<svg xmlns="http://www.w3.org/2000/svg" version="1.1" width="356px" height="176px" style="shape-rendering:geometricPrecision; text-rendering:geometricPrecision; image-rendering:optimizeQuality; fill-rule:evenodd; clip-rule:evenodd" xmlns:xlink="http://www.w3.org/1999/xlink">
<g><path style="opacity:1" fill="#fdfdfd" d="M -0.5,-0.5 C 118.167,-0.5 236.833,-0.5 355.5,-0.5C 355.5,58.1667 355.5,116.833 355.5,175.5C 236.833,175.5 118.167,175.5 -0.5,175.5C -0.5,116.833 -0.5,58.1667 -0.5,-0.5 Z"/></g>
<g><path style="opacity:1" fill="#fbfbfb" d="M 70.5,147.5 C 68.9752,145.784 67.9752,143.784 67.5,141.5C 67.3333,104.498 67.5,67.4985 68,30.5C 76.351,24.5072 85.0176,18.8405 94,13.5C 91.1489,25.5261 92.3156,37.1928 97.5,48.5C 90.8793,74.1671 90.8793,99.8337 97.5,125.5C 91.7258,136.886 91.0591,148.553 95.5,160.5C 94.9984,161.521 94.3317,161.688 93.5,161C 86.3879,155.448 78.7213,150.948 70.5,147.5 Z"/></g>
<g><path style="opacity:1" fill="#1d1d1d" d="M 210.5,127.5 C 210.5,100.833 210.5,74.1667 210.5,47.5C 232.373,34.4624 254.373,21.6291 276.5,9C 278.167,8.33333 279.833,8.33333 281.5,9C 303.748,21.7071 325.915,34.5404 348,47.5C 348.833,74.1729 348.667,100.84 347.5,127.5C 324.732,140.633 301.899,153.633 279,166.5C 256.372,153.104 233.539,140.104 210.5,127.5 Z"/></g>
<g><path style="opacity:1" fill="#f9f9f9" d="M 270.5,20.5 C 309.998,19.1852 334.831,37.5185 345,75.5C 348.562,109.553 335.062,134.053 304.5,149C 270.026,160.175 242.526,151.009 222,121.5C 205.021,88.0607 210.521,58.8941 238.5,34C 248.218,26.9663 258.885,22.4663 270.5,20.5 Z"/></g>
<g><path style="opacity:1" fill="#ededed" d="M 278.5,10.5 C 284.604,13.3865 290.604,16.5531 296.5,20C 290.961,19.0173 285.294,18.5173 279.5,18.5C 273.694,18.5174 268.027,19.0174 262.5,20C 267.742,16.5717 273.076,13.4051 278.5,10.5 Z"/></g>
<g><path style="opacity:1" fill="#a6a6a6" d="M 65.5,30.5 C 65.5,33.1667 65.5,35.8333 65.5,38.5C 62.1667,38.5 58.8333,38.5 55.5,38.5C 58.2869,37.5233 61.2869,37.19 64.5,37.5C 64.1984,34.9407 64.5318,32.6074 65.5,30.5 Z"/></g>
<g><path style="opacity:1" fill="#fdfdfd" d="M 64.5,40.5 C 64.5,71.5 64.5,102.5 64.5,133.5C 60.8333,133.5 57.1667,133.5 53.5,133.5C 33.6744,130.179 20.841,118.846 15,99.5C 9.93436,71.7975 20.4344,52.6308 46.5,42C 52.4229,40.6959 58.4229,40.1959 64.5,40.5 Z"/></g>
<g><path style="opacity:1" fill="#1d1d1d" d="M 54.5,38.5 C 57.8333,39.1667 61.1667,39.8333 64.5,40.5C 58.4229,40.1959 52.4229,40.6959 46.5,42C 20.4344,52.6308 9.93436,71.7975 15,99.5C 20.841,118.846 33.6744,130.179 53.5,133.5C 53.5,133.833 53.5,134.167 53.5,134.5C 52.5084,134.328 51.8417,134.662 51.5,135.5C 26.1108,129.075 12.7775,112.741 11.5,86.5C 12.5564,63.5946 23.8897,48.0946 45.5,40C 48.4318,39.0467 51.4318,38.5467 54.5,38.5 Z"/></g>
<g><path style="opacity:1" fill="#eeeeee" d="M 227.5,39.5 C 228.239,39.369 228.906,39.5357 229.5,40C 221.948,47.8966 216.448,57.0633 213,67.5C 212.333,61.1667 212.333,54.8333 213,48.5C 217.981,45.6002 222.815,42.6002 227.5,39.5 Z"/></g>
<g><path style="opacity:1" fill="#787878" d="M 64.5,40.5 C 65.4982,71.6622 65.8315,102.996 65.5,134.5C 61.5,134.5 57.5,134.5 53.5,134.5C 53.5,134.167 53.5,133.833 53.5,133.5C 57.1667,133.5 60.8333,133.5 64.5,133.5C 64.5,102.5 64.5,71.5 64.5,40.5 Z"/></g>
<g><path style="opacity:1" fill="#030303" d="M 65.5,30.5 C 66.1667,67.5 66.8333,104.5 67.5,141.5C 67.9752,143.784 68.9752,145.784 70.5,147.5C 69.8333,147.5 69.5,147.833 69.5,148.5C 67.457,147.421 66.1237,145.754 65.5,143.5C 65.5,140.833 65.5,138.167 65.5,135.5C 61.1667,135.5 56.8333,135.5 52.5,135.5C 52.1667,135.5 51.8333,135.5 51.5,135.5C 51.8417,134.662 52.5084,134.328 53.5,134.5C 57.5,134.5 61.5,134.5 65.5,134.5C 65.8315,102.996 65.4982,71.6622 64.5,40.5C 61.1667,39.8333 57.8333,39.1667 54.5,38.5C 54.8333,38.5 55.1667,38.5 55.5,38.5C 58.8333,38.5 62.1667,38.5 65.5,38.5C 65.5,35.8333 65.5,33.1667 65.5,30.5 Z"/></g>
<g><path style="opacity:1" fill="#f1f1f1" d="M 345.5,48.5 C 345.822,54.358 345.489,60.0247 344.5,65.5C 341.54,55.8884 336.54,47.5551 329.5,40.5C 329.833,40.1667 330.167,39.8333 330.5,39.5C 335.362,42.7629 340.362,45.7629 345.5,48.5 Z"/></g>
<g><path style="opacity:1" fill="#848484" d="M 345.5,48.5 C 346.654,54.987 346.821,61.6536 346,68.5C 344.961,67.7562 344.461,66.7562 344.5,65.5C 345.489,60.0247 345.822,54.358 345.5,48.5 Z"/></g>
<g><path style="opacity:1" fill="#d9d9d9" d="M 210.5,47.5 C 210.5,74.1667 210.5,100.833 210.5,127.5C 209.829,101.431 209.162,75.2644 208.5,49C 209.044,48.2828 209.711,47.7828 210.5,47.5 Z"/></g>
<g><path style="opacity:1" fill="#232323" d="M 69.5,148.5 C 69.5,147.833 69.8333,147.5 70.5,147.5C 78.7213,150.948 86.3879,155.448 93.5,161C 94.3317,161.688 94.9984,161.521 95.5,160.5C 91.0591,148.553 91.7258,136.886 97.5,125.5C 90.8793,99.8337 90.8793,74.1671 97.5,48.5C 92.3156,37.1928 91.1489,25.5261 94,13.5C 85.0176,18.8405 76.351,24.5072 68,30.5C 67.5,67.4985 67.3333,104.498 67.5,141.5C 66.8333,104.5 66.1667,67.5 65.5,30.5C 66.1175,28.7708 67.1175,27.2708 68.5,26C 78.8315,20.5031 88.8315,14.5031 98.5,8C 117.509,7.16697 136.509,7.33364 155.5,8.5C 157.428,11.7878 159.261,15.1211 161,18.5C 161.667,64.5 161.667,110.5 161,156.5C 159.167,159.5 157.333,162.5 155.5,165.5C 136.175,166.666 116.842,166.833 97.5,166C 88.2378,159.879 78.9045,154.045 69.5,148.5 Z"/></g>
<g><path style="opacity:1" fill="#fcfcfc" d="M 99.5,49.5 C 117.743,49.1743 135.91,49.5076 154,50.5C 161.43,75.2212 161.264,99.8879 153.5,124.5C 135.5,125.833 117.5,125.833 99.5,124.5C 92.9029,99.4736 92.9029,74.4736 99.5,49.5 Z"/></g>
<g><path style="opacity:1" fill="#dcdcdc" d="M 158.5,41.5 C 159.655,48.6549 159.822,55.9882 159,63.5C 158.1,58.5971 156.933,53.7637 155.5,49C 156.651,46.5351 157.651,44.0351 158.5,41.5 Z"/></g>
<g><path style="opacity:1" fill="#f7f7f7" d="M 99.5,9.5 C 117.503,9.33339 135.503,9.50006 153.5,10C 161.226,22.0179 161.393,34.1845 154,46.5C 135.898,47.8248 117.731,47.8248 99.5,46.5C 92.9203,34.1821 92.9203,21.8488 99.5,9.5 Z"/></g>
<g><path style="opacity:1" fill="#eaeaea" d="M 212.5,105.5 C 216.25,116.683 221.75,126.683 229,135.5C 223.915,132.374 218.749,129.374 213.5,126.5C 212.503,119.532 212.17,112.532 212.5,105.5 Z"/></g>
<g><path style="opacity:1" fill="#838383" d="M 345.5,125.5 C 345.822,119.642 345.489,113.975 344.5,108.5C 344.709,107.078 345.209,105.745 346,104.5C 346.821,111.679 346.655,118.679 345.5,125.5 Z"/></g>
<g><path style="opacity:1" fill="#efefef" d="M 344.5,108.5 C 345.489,113.975 345.822,119.642 345.5,125.5C 342.061,127.394 338.728,129.56 335.5,132C 333.598,133.301 331.598,133.968 329.5,134C 336.679,126.812 341.679,118.312 344.5,108.5 Z"/></g>
<g><path style="opacity:1" fill="#fbfbfb" d="M 99.5,127.5 C 117.845,127.167 136.179,127.5 154.5,128.5C 161.396,140.567 161.062,152.4 153.5,164C 135.5,164.667 117.5,164.667 99.5,164C 92.8511,151.807 92.8511,139.64 99.5,127.5 Z"/></g>
<g><path style="opacity:1" fill="#cdcdcd" d="M 158.5,111.5 C 159.655,118.321 159.821,125.321 159,132.5C 157.815,130.13 156.649,127.797 155.5,125.5C 156.758,120.875 157.758,116.208 158.5,111.5 Z"/></g>
<g><path style="opacity:1" fill="#202020" d="M 273.5,36.5 C 302.428,36.284 320.928,49.9507 329,77.5C 331.558,108.919 317.725,128.752 287.5,137C 263.558,139.374 245.725,130.207 234,109.5C 223.319,81.8795 230.152,59.7129 254.5,43C 260.808,40.3511 267.141,38.1844 273.5,36.5 Z"/></g>
<g><path style="opacity:1" fill="#fcfcfc" d="M 268.5,39.5 C 298.762,36.6945 318.262,49.6945 327,78.5C 328.993,108.498 315.493,127.332 286.5,135C 267.324,137.058 251.824,130.558 240,115.5C 229.852,98.7257 228.852,81.3924 237,63.5C 244.567,51.4858 255.067,43.4858 268.5,39.5 Z"/></g>
<g><path style="opacity:1" fill="#5f5f5f" d="M 52.5,135.5 C 56.8333,135.5 61.1667,135.5 65.5,135.5C 65.5,138.167 65.5,140.833 65.5,143.5C 64.5318,141.393 64.1984,139.059 64.5,136.5C 60.2984,136.817 56.2984,136.483 52.5,135.5 Z"/></g>
<g><path style="opacity:1" fill="#e6e6e6" d="M 263.5,155.5 C 273.669,155.649 284.003,155.483 294.5,155C 289.787,158.356 284.787,161.189 279.5,163.5C 273.928,161.249 268.594,158.582 263.5,155.5 Z"/></g>
</svg>
