<?xml version="1.0" encoding="UTF-8"?>
<!DOCTYPE svg PUBLIC "-//W3C//DTD SVG 1.1//EN" "http://www.w3.org/Graphics/SVG/1.1/DTD/svg11.dtd">
<svg xmlns="http://www.w3.org/2000/svg" version="1.1" width="454px" height="144px" style="shape-rendering:geometricPrecision; text-rendering:geometricPrecision; image-rendering:optimizeQuality; fill-rule:evenodd; clip-rule:evenodd" xmlns:xlink="http://www.w3.org/1999/xlink">
<g><path style="opacity:1" fill="#fdfdfd" d="M -0.5,-0.5 C 150.833,-0.5 302.167,-0.5 453.5,-0.5C 453.5,47.5 453.5,95.5 453.5,143.5C 302.167,143.5 150.833,143.5 -0.5,143.5C -0.5,95.5 -0.5,47.5 -0.5,-0.5 Z"/></g>
<g><path style="opacity:1" fill="#fcfcfc" d="M 443.5,60.5 C 443.5,61.8333 443.5,63.1667 443.5,64.5C 409.15,65.1598 375.15,64.4932 341.5,62.5C 348.117,36.5505 364.784,22.5505 391.5,20.5C 418.429,21.4356 435.762,34.7689 443.5,60.5 Z"/></g>
<g><path style="opacity:1" fill="#1e1e1e" d="M 445.5,59.5 C 444.833,59.5 444.5,59.8333 444.5,60.5C 444.167,60.5 443.833,60.5 443.5,60.5C 435.762,34.7689 418.429,21.4356 391.5,20.5C 364.784,22.5505 348.117,36.5505 341.5,62.5C 341.167,62.5 340.833,62.5 340.5,62.5C 340.167,62.5 339.833,62.5 339.5,62.5C 346.15,35.1814 363.484,20.5147 391.5,18.5C 419.297,19.3005 437.297,32.9672 445.5,59.5 Z"/></g>
<g><path style="opacity:1" fill="#1e1e1e" d="M 138.5,54.5 C 137.833,54.5 137.5,54.8333 137.5,55.5C 136.206,54.7101 135.039,53.7101 134,52.5C 133.833,53 133.667,53.5 133.5,54C 135.669,58.3427 137.336,62.8427 138.5,67.5C 138.737,68.791 138.404,69.791 137.5,70.5C 137.174,67.6887 136.341,65.022 135,62.5C 136.003,73.1862 137.503,83.8528 139.5,94.5C 139.672,95.4916 139.338,96.1583 138.5,96.5C 137.849,95.9094 137.182,95.2427 136.5,94.5C 134.31,96.524 131.977,98.3573 129.5,100C 103.5,100.333 77.5,100.667 51.5,101C 50.6667,101.833 49.8333,102.667 49,103.5C 48.5003,111.493 48.3336,119.493 48.5,127.5C 42.4908,127.666 36.4908,127.499 30.5,127C 23.6617,122.533 18.8284,116.366 16,108.5C 12.0926,99.2056 9.92597,89.539 9.5,79.5C 17.1667,79.5 24.8333,79.5 32.5,79.5C 32.5,75.8333 32.5,72.1667 32.5,68.5C 25.0182,67.508 17.3516,67.1746 9.5,67.5C 9.5,66.5 9.5,65.5 9.5,64.5C 10.7146,50.3559 15.2146,37.3559 23,25.5C 25.2336,23.3002 27.7336,21.4669 30.5,20C 36.4908,19.5005 42.4908,19.3338 48.5,19.5C 48.3336,27.5069 48.5003,35.5069 49,43.5C 49.8333,44.3333 50.6667,45.1667 51.5,46C 77.5,46.3333 103.5,46.6667 129.5,47C 132.69,49.3644 135.69,51.8644 138.5,54.5 Z"/></g>
<g><path style="opacity:1" fill="#fefefe" d="M 48.5,46.5 C 49.2891,46.7828 49.9558,47.2828 50.5,48C 76.8312,48.5 103.165,48.6666 129.5,48.5C 131.244,63.0288 133.244,77.5288 135.5,92C 134.561,93.9439 133.227,95.6106 131.5,97C 104.587,98.3162 77.5867,98.9829 50.5,99C 50,99.5 49.5,100 49,100.5C 48.5001,82.5031 48.3334,64.5031 48.5,46.5 Z"/></g>
<g><path style="opacity:1" fill="#bebebe" d="M 34.5,21.5 C 38.2984,20.5166 42.2984,20.1832 46.5,20.5C 46.5,55.8333 46.5,91.1667 46.5,126.5C 42.2984,126.817 38.2984,126.483 34.5,125.5C 38.1667,125.5 41.8333,125.5 45.5,125.5C 45.5,90.8333 45.5,56.1667 45.5,21.5C 41.8333,21.5 38.1667,21.5 34.5,21.5 Z"/></g>
<g><path style="opacity:1" fill="#fcfcfc" d="M 34.5,21.5 C 38.1667,21.5 41.8333,21.5 45.5,21.5C 45.5,56.1667 45.5,90.8333 45.5,125.5C 41.8333,125.5 38.1667,125.5 34.5,125.5C 29.7137,124.939 26.047,122.606 23.5,118.5C 16.68,107.041 12.68,94.7076 11.5,81.5C 19.1667,81.5 26.8333,81.5 34.5,81.5C 34.5,76.5 34.5,71.5 34.5,66.5C 27.0182,65.508 19.3516,65.1746 11.5,65.5C 11.5,64.5 11.5,63.5 11.5,62.5C 13.2341,48.121 18.5674,35.2877 27.5,24C 29.441,22.0972 31.7743,21.2639 34.5,21.5 Z"/></g>
<g><path style="opacity:1" fill="#f6f6f6" d="M 137.5,55.5 C 141.353,56.1663 145.353,56.833 149.5,57.5C 152.167,68.1667 154.833,78.8333 157.5,89.5C 153.167,90.8333 148.833,90.8333 144.5,89.5C 142.479,82.0739 140.479,74.7406 138.5,67.5C 137.336,62.8427 135.669,58.3427 133.5,54C 133.667,53.5 133.833,53 134,52.5C 135.039,53.7101 136.206,54.7101 137.5,55.5 Z"/></g>
<g><path style="opacity:1" fill="#8c8c8c" d="M 443.5,60.5 C 443.833,60.5 444.167,60.5 444.5,60.5C 444.5,62.1667 444.5,63.8333 444.5,65.5C 409.833,65.5 375.167,65.5 340.5,65.5C 340.5,64.5 340.5,63.5 340.5,62.5C 340.833,62.5 341.167,62.5 341.5,62.5C 375.15,64.4932 409.15,65.1598 443.5,64.5C 443.5,63.1667 443.5,61.8333 443.5,60.5 Z"/></g>
<g><path style="opacity:1" fill="#666666" d="M 11.5,62.5 C 11.5,63.5 11.5,64.5 11.5,65.5C 19.3516,65.1746 27.0182,65.508 34.5,66.5C 26.5,66.5 18.5,66.5 10.5,66.5C 10.2322,64.901 10.5655,63.5676 11.5,62.5 Z"/></g>
<g><path style="opacity:1" fill="#020202" d="M 445.5,59.5 C 446.833,68.1667 446.833,76.8333 445.5,85.5C 444.596,84.791 444.263,83.791 444.5,82.5C 444.5,81.8333 444.5,81.1667 444.5,80.5C 410.337,79.5017 376.004,79.1683 341.5,79.5C 341.5,79.1667 341.5,78.8333 341.5,78.5C 376.167,78.5 410.833,78.5 445.5,78.5C 445.815,74.6286 445.482,70.9619 444.5,67.5C 409.833,66.1667 375.167,66.1667 340.5,67.5C 339.566,66.4324 339.232,65.099 339.5,63.5C 339.5,63.1667 339.5,62.8333 339.5,62.5C 339.833,62.5 340.167,62.5 340.5,62.5C 340.5,63.5 340.5,64.5 340.5,65.5C 375.167,65.5 409.833,65.5 444.5,65.5C 444.5,63.8333 444.5,62.1667 444.5,60.5C 444.5,59.8333 444.833,59.5 445.5,59.5 Z"/></g>
<g><path style="opacity:1" fill="#c0c0c0" d="M 9.5,64.5 C 9.5,65.5 9.5,66.5 9.5,67.5C 17.3516,67.1746 25.0182,67.508 32.5,68.5C 24.5803,68.185 16.747,68.5183 9,69.5C 8.22039,67.6131 8.38705,65.9464 9.5,64.5 Z"/></g>
<g><path style="opacity:1" fill="#f4f4f4" d="M 444.5,67.5 C 444.5,70.8333 444.5,74.1667 444.5,77.5C 409.833,77.5 375.167,77.5 340.5,77.5C 340.5,74.1667 340.5,70.8333 340.5,67.5C 375.167,66.1667 409.833,66.1667 444.5,67.5 Z"/></g>
<g><path style="opacity:1" fill="#cfcfcf" d="M 444.5,67.5 C 445.482,70.9619 445.815,74.6286 445.5,78.5C 410.833,78.5 376.167,78.5 341.5,78.5C 340.833,78.5 340.5,78.1667 340.5,77.5C 375.167,77.5 409.833,77.5 444.5,77.5C 444.5,74.1667 444.5,70.8333 444.5,67.5 Z"/></g>
<g><path style="opacity:1" fill="#e0e0e0" d="M 137.5,70.5 C 139.182,78.0717 141.182,85.5717 143.5,93C 142.505,96.3157 141.172,96.8157 139.5,94.5C 137.503,83.8528 136.003,73.1862 135,62.5C 136.341,65.022 137.174,67.6887 137.5,70.5 Z"/></g>
<g><path style="opacity:1" fill="#323232" d="M 341.5,79.5 C 376.004,79.1683 410.337,79.5017 444.5,80.5C 409.817,79.8401 375.484,80.5068 341.5,82.5C 340.167,81.5 340.167,80.5 341.5,79.5 Z"/></g>
<g><path style="opacity:1" fill="#fcfcfc" d="M 444.5,80.5 C 444.5,81.1667 444.5,81.8333 444.5,82.5C 434.937,114.133 413.604,127.966 380.5,124C 359.062,118.063 346.062,104.229 341.5,82.5C 375.484,80.5068 409.817,79.8401 444.5,80.5 Z"/></g>
<g><path style="opacity:1" fill="#1c1c1c" d="M 138.5,96.5 C 139.338,96.1583 139.672,95.4916 139.5,94.5C 141.172,96.8157 142.505,96.3157 143.5,93C 141.182,85.5717 139.182,78.0717 137.5,70.5C 138.404,69.791 138.737,68.791 138.5,67.5C 140.479,74.7406 142.479,82.0739 144.5,89.5C 148.833,90.8333 153.167,90.8333 157.5,89.5C 154.833,78.8333 152.167,68.1667 149.5,57.5C 145.353,56.833 141.353,56.1663 137.5,55.5C 137.5,54.8333 137.833,54.5 138.5,54.5C 141.518,54.6646 144.518,54.498 147.5,54C 150.682,45.7539 154.015,45.5872 157.5,53.5C 162.167,54.8333 166.833,54.8333 171.5,53.5C 174.985,45.5872 178.318,45.7539 181.5,54C 185.871,54.8275 190.205,54.6609 194.5,53.5C 197.969,45.6646 201.303,45.6646 204.5,53.5C 208.795,54.6609 213.129,54.8275 217.5,54C 221.167,45.3333 224.833,45.3333 228.5,54C 232.871,54.8275 237.205,54.6609 241.5,53.5C 242.766,51.2902 244.266,49.2902 246,47.5C 248.671,50.004 251.171,52.6706 253.5,55.5C 257.067,56.2668 260.567,57.2668 264,58.5C 265.986,57.3427 267.82,56.0093 269.5,54.5C 270.167,54.6667 270.833,54.8333 271.5,55C 272.585,57.172 273.919,59.172 275.5,61C 279.398,62.475 283.398,63.6417 287.5,64.5C 289.529,63.4488 291.363,62.1155 293,60.5C 295.608,62.3504 297.775,64.6838 299.5,67.5C 305.942,69.3568 312.276,71.3568 318.5,73.5C 315.72,75.117 312.72,76.2837 309.5,77C 308.164,79.1999 306.498,81.0333 304.5,82.5C 302.5,81.5 300.5,80.5 298.5,79.5C 294.933,80.2668 291.433,81.2668 288,82.5C 286.337,85.4848 284.003,87.8182 281,89.5C 279.333,88.1667 277.667,86.8333 276,85.5C 271.811,86.5889 267.644,87.7555 263.5,89C 262.268,91.975 260.434,94.475 258,96.5C 256.234,94.2242 254.067,92.5575 251.5,91.5C 247.462,91.9486 243.462,92.6152 239.5,93.5C 236.015,101.413 232.682,101.246 229.5,93C 225.167,92.3333 220.833,92.3333 216.5,93C 213.318,101.246 209.985,101.413 206.5,93.5C 201.833,92.1667 197.167,92.1667 192.5,93.5C 189.015,101.413 185.682,101.246 182.5,93C 178.129,92.1725 173.795,92.3391 169.5,93.5C 166.031,101.335 162.697,101.335 159.5,93.5C 155.205,92.3391 150.871,92.1725 146.5,93C 144.998,95.5438 143.164,97.7105 141,99.5C 139.251,99.2517 138.418,98.2517 138.5,96.5 Z"/></g>
<g><path style="opacity:1" fill="#585858" d="M 251.5,75.5 C 252.29,76.6085 252.79,77.9419 253,79.5C 253.483,78.552 253.649,77.552 253.5,76.5C 254.434,77.5676 254.768,78.901 254.5,80.5C 253.698,81.9516 253.198,83.6183 253,85.5C 252.007,82.5259 251.174,79.5259 250.5,76.5C 251.167,76.5 251.5,76.1667 251.5,75.5 Z"/></g>
<g><path style="opacity:1" fill="#dddddd" d="M 204.5,58.5 C 207.449,69.885 210.782,81.2183 214.5,92.5C 211.441,97.7075 209.608,97.0409 209,90.5C 207.496,79.8219 205.996,69.1552 204.5,58.5 Z"/></g>
<g><path style="opacity:1" fill="#e2e2e2" d="M 157.5,58.5 C 160.559,69.8476 163.892,81.181 167.5,92.5C 166.5,93.8333 165.5,95.1667 164.5,96.5C 161.091,84.0454 158.757,71.3787 157.5,58.5 Z"/></g>
<g><path style="opacity:1" fill="#dedede" d="M 275.5,66.5 C 277.861,72.3923 280.528,78.2257 283.5,84C 283.22,85.395 282.553,86.5617 281.5,87.5C 278.11,80.9472 276.11,73.9472 275.5,66.5 Z"/></g>
<g><path style="opacity:1" fill="#e6e6e6" d="M 227.5,57.5 C 230.73,69.2382 234.063,81.0715 237.5,93C 237.07,94.4341 236.236,95.6008 235,96.5C 231.433,83.7716 228.933,70.7716 227.5,57.5 Z"/></g>
<g><path style="opacity:1" fill="#e5e5e5" d="M 254.5,80.5 C 254.768,78.901 254.434,77.5676 253.5,76.5C 252.488,70.142 251.655,63.8087 251,57.5C 253.849,68.2657 257.016,78.9323 260.5,89.5C 259.917,91.0016 259.084,92.3349 258,93.5C 256.39,89.2791 255.223,84.9457 254.5,80.5 Z"/></g>
<g><path style="opacity:1" fill="#d8d8d8" d="M 299.5,71.5 C 301.494,73.8222 303.827,75.8222 306.5,77.5C 306.081,78.6721 305.415,79.6721 304.5,80.5C 302.064,77.9646 300.397,74.9646 299.5,71.5 Z"/></g>
<g><path style="opacity:1" fill="#dfdfdf" d="M 180.5,57.5 C 181.793,58.842 182.626,60.5087 183,62.5C 184.56,72.7418 187.06,82.7418 190.5,92.5C 189.667,94.1667 188.833,95.8333 188,97.5C 184.67,84.3486 182.17,71.0152 180.5,57.5 Z"/></g>
<g><path style="opacity:1" fill="#e4e4e4" d="M 301.5,71.5 C 304.865,70.8293 308.198,71.4959 311.5,73.5C 307.63,75.1411 304.297,74.4745 301.5,71.5 Z"/></g>
<g><path style="opacity:1" fill="#dddddd" d="M 222.5,49.5 C 223.793,50.842 224.626,52.5087 225,54.5C 227.219,66.1417 228.886,77.8084 230,89.5C 227.036,77.6075 223.869,65.7741 220.5,54C 221.044,52.415 221.711,50.915 222.5,49.5 Z"/></g>
<g><path style="opacity:1" fill="#bdbdbd" d="M 268.5,56.5 C 270.335,57.1223 271.502,58.4556 272,60.5C 273.34,65.8431 274.34,71.1764 275,76.5C 273.181,71.5597 271.514,66.5597 270,61.5C 267.527,60.2595 267.027,58.5929 268.5,56.5 Z"/></g>
<g><path style="opacity:1" fill="#d6d6d6" d="M 292.5,62.5 C 295.367,65.2329 296.867,68.5662 297,72.5C 295.414,69.6595 293.58,66.9928 291.5,64.5C 291.863,63.8165 292.196,63.1499 292.5,62.5 Z"/></g>
<g><path style="opacity:1" fill="#f2f2f2" d="M 277.5,64.5 C 282.327,64.9405 286.993,66.1072 291.5,68C 293.833,71 296.167,74 298.5,77C 294.504,78.5426 290.337,79.7093 286,80.5C 285.167,80.1667 284.333,79.8333 283.5,79.5C 281.102,74.6355 279.102,69.6355 277.5,64.5 Z"/></g>
<g><path style="opacity:1" fill="#dedede" d="M 151.5,50.5 C 153.48,51.8475 154.647,53.8475 155,56.5C 157.076,66.7778 158.41,77.1112 159,87.5C 156.448,78.9851 154.448,70.3185 153,61.5C 152.361,58.8877 151.194,56.5543 149.5,54.5C 150.18,53.1401 150.847,51.8068 151.5,50.5 Z"/></g>
<g><path style="opacity:1" fill="#f6f6f6" d="M 253.5,57.5 C 258.56,58.6364 263.394,60.303 268,62.5C 271.297,69.4109 273.464,76.4109 274.5,83.5C 270.437,84.6321 266.437,85.9654 262.5,87.5C 261.914,87.2907 261.414,86.9574 261,86.5C 258.071,76.9079 255.571,67.2412 253.5,57.5 Z"/></g>
<g><path style="opacity:1" fill="#f8f8f8" d="M 230.5,56.5 C 234.884,56.1744 239.217,56.5078 243.5,57.5C 247.03,68.3384 250.03,79.3384 252.5,90.5C 247.786,90.8266 243.12,90.4933 238.5,89.5C 235.3,78.6333 232.633,67.6333 230.5,56.5 Z"/></g>
<g><path style="opacity:1" fill="#f6f6f6" d="M 206.5,56.5 C 210.884,56.1744 215.217,56.5078 219.5,57.5C 222.931,68.3217 225.597,79.3217 227.5,90.5C 223.167,90.5 218.833,90.5 214.5,90.5C 212.046,79.1073 209.38,67.774 206.5,56.5 Z"/></g>
<g><path style="opacity:1" fill="#f7f7f7" d="M 183.5,56.5 C 187.833,56.5 192.167,56.5 196.5,56.5C 198.656,67.6127 201.323,78.6127 204.5,89.5C 202.333,89.8333 200.167,90.1667 198,90.5C 195.375,90.4188 193.041,89.7522 191,88.5C 188.432,77.8248 185.932,67.1581 183.5,56.5 Z"/></g>
<g><path style="opacity:1" fill="#dedede" d="M 175.5,49.5 C 176.117,49.6107 176.617,49.944 177,50.5C 179.845,63.4156 181.845,76.4156 183,89.5C 180.205,77.562 177.039,65.7287 173.5,54C 174.414,52.5936 175.08,51.0936 175.5,49.5 Z"/></g>
<g><path style="opacity:1" fill="#f8f8f8" d="M 159.5,57.5 C 163.683,56.1889 168.016,56.1889 172.5,57.5C 175.673,68.3648 178.34,79.3648 180.5,90.5C 176.167,90.5 171.833,90.5 167.5,90.5C 165.196,79.2931 162.529,68.2931 159.5,57.5 Z"/></g>
<g><path style="opacity:1" fill="#dbdbdb" d="M 251.5,75.5 C 251.5,76.1667 251.167,76.5 250.5,76.5C 249.625,68.485 247.291,60.985 243.5,54C 245.062,49.9197 246.562,49.7531 248,53.5C 249.493,60.7912 250.66,68.1246 251.5,75.5 Z"/></g>
<g><path style="opacity:1" fill="#dcdcdc" d="M 198.5,50.5 C 199.75,50.5774 200.583,51.244 201,52.5C 203.654,64.3999 205.32,76.3999 206,88.5C 203.453,78.5549 201.12,68.5549 199,58.5C 198.365,57.0337 197.531,55.7003 196.5,54.5C 197.18,53.1401 197.847,51.8068 198.5,50.5 Z"/></g>
<g><path style="opacity:1" fill="#1e1e1e" d="M 339.5,63.5 C 339.232,65.099 339.566,66.4324 340.5,67.5C 340.5,70.8333 340.5,74.1667 340.5,77.5C 340.5,78.1667 340.833,78.5 341.5,78.5C 341.5,78.8333 341.5,79.1667 341.5,79.5C 340.167,80.5 340.167,81.5 341.5,82.5C 346.062,104.229 359.062,118.063 380.5,124C 413.604,127.966 434.937,114.133 444.5,82.5C 444.263,83.791 444.596,84.791 445.5,85.5C 438.633,109.784 422.633,123.617 397.5,127C 366.043,127.21 346.543,112.044 339,81.5C 338.181,75.3188 338.347,69.3188 339.5,63.5 Z"/></g>
</svg>
