<?xml version="1.0" encoding="UTF-8"?>
<!DOCTYPE svg PUBLIC "-//W3C//DTD SVG 1.1//EN" "http://www.w3.org/Graphics/SVG/1.1/DTD/svg11.dtd">
<svg xmlns="http://www.w3.org/2000/svg" version="1.1" width="243px" height="230px" style="shape-rendering:geometricPrecision; text-rendering:geometricPrecision; image-rendering:optimizeQuality; fill-rule:evenodd; clip-rule:evenodd" xmlns:xlink="http://www.w3.org/1999/xlink">
<g><path style="opacity:1" fill="#fcfcfc" d="M -0.5,-0.5 C 80.5,-0.5 161.5,-0.5 242.5,-0.5C 242.5,76.1667 242.5,152.833 242.5,229.5C 161.5,229.5 80.5,229.5 -0.5,229.5C -0.5,152.833 -0.5,76.1667 -0.5,-0.5 Z"/></g>
<g><path style="opacity:1" fill="#1d1d1d" d="M 105.5,2.5 C 163.474,-2.11341 204.307,21.8866 228,74.5C 242.029,121.216 231.863,161.716 197.5,196C 161.047,224.892 121.047,230.892 77.5,214C 29.3966,188.303 8.22993,148.136 14,93.5C 25.8104,44.1891 56.3104,13.8558 105.5,2.5 Z"/></g>
<g><path style="opacity:1" fill="#fdfdfd" d="M 108.5,4.5 C 156.098,0.550207 192.598,18.5502 218,58.5C 239.352,100.5 236.685,140.834 210,179.5C 180.494,213.893 143.327,227.06 98.5,219C 49.9148,204.406 22.0815,171.906 15,121.5C 13.1969,85.6183 25.3636,55.4516 51.5,31C 68.0804,16.8667 87.0804,8.03339 108.5,4.5 Z"/></g>
<g><path style="opacity:1" fill="#1f1f1f" d="M 114.5,73.5 C 140.388,71.1792 156.555,82.5126 163,107.5C 161.911,140.254 145.078,154.754 112.5,151C 90.8045,142.596 81.6378,126.763 85,103.5C 89.6835,88.3174 99.5168,78.3174 114.5,73.5 Z"/></g>
<g><path style="opacity:1" fill="#fcfcfc" d="M 115.5,75.5 C 137.714,73.3462 152.548,82.6795 160,103.5C 162.548,134.285 148.382,149.785 117.5,150C 94.2075,143.275 84.0408,127.775 87,103.5C 91.7776,89.2212 101.278,79.8879 115.5,75.5 Z"/></g>
</svg>
