<?xml version="1.0" encoding="UTF-8"?>
<!DOCTYPE svg PUBLIC "-//W3C//DTD SVG 1.1//EN" "http://www.w3.org/Graphics/SVG/1.1/DTD/svg11.dtd">
<svg xmlns="http://www.w3.org/2000/svg" version="1.1" width="428px" height="125px" style="shape-rendering:geometricPrecision; text-rendering:geometricPrecision; image-rendering:optimizeQuality; fill-rule:evenodd; clip-rule:evenodd" xmlns:xlink="http://www.w3.org/1999/xlink">
<g><path style="opacity:1" fill="#fdfdfd" d="M -0.5,-0.5 C 142.167,-0.5 284.833,-0.5 427.5,-0.5C 427.5,41.1667 427.5,82.8333 427.5,124.5C 284.833,124.5 142.167,124.5 -0.5,124.5C -0.5,82.8333 -0.5,41.1667 -0.5,-0.5 Z"/></g>
<g><path style="opacity:1" fill="#242424" d="M 55.5,4.5 C 90.6354,3.82202 112.135,20.4887 120,54.5C 121.9,78.8364 112.734,97.6697 92.5,111C 60.4833,125.987 34.3167,119.154 14,90.5C 0.599543,62.6203 5.09954,38.1203 27.5,17C 36.067,10.8785 45.4003,6.71179 55.5,4.5 Z"/></g>
<g><path style="opacity:1" fill="#fbfbfb" d="M 54.5,6.5 C 89.0645,5.01064 110.231,21.0106 118,54.5C 119.601,87.5478 104.434,108.048 72.5,116C 39.3942,118.89 18.2276,104.39 9,72.5C 6.09972,37.9488 21.2664,15.9488 54.5,6.5 Z"/></g>
<g><path style="opacity:1" fill="#1d1d1d" d="M 57.5,31.5 C 61.1817,31.3347 64.8484,31.5014 68.5,32C 69.3333,47.5 77.5,55.6667 93,56.5C 93.4986,60.1516 93.6653,63.8183 93.5,67.5C 77.1368,67.1965 69.1368,75.1965 69.5,91.5C 65.5,91.5 61.5,91.5 57.5,91.5C 57.1864,75.853 49.1864,67.853 33.5,67.5C 33.5,63.5 33.5,59.5 33.5,55.5C 49.7834,55.8833 57.7834,47.8833 57.5,31.5 Z"/></g>
<g><path style="opacity:1" fill="#e7e7e7" d="M 89.5,57.5 C 91.369,59.6353 92.0356,62.3019 91.5,65.5C 89.5,65.5 87.5,65.5 85.5,65.5C 85.5,63.1667 85.5,60.8333 85.5,58.5C 87.099,58.7678 88.4324,58.4345 89.5,57.5 Z"/></g>
<g><path style="opacity:1" fill="#e1e1e1" d="M 35.5,58.5 C 37.5,58.5 39.5,58.5 41.5,58.5C 42.9064,63.9313 40.9064,66.2647 35.5,65.5C 35.5,63.1667 35.5,60.8333 35.5,58.5 Z"/></g>
<g><path style="opacity:1" fill="#d4d4d4" d="M 57.5,42.5 C 58.3063,47.0886 56.6396,50.9219 52.5,54C 50.3502,55.5899 48.0168,56.2566 45.5,56C 51.4728,53.1971 55.4728,48.6971 57.5,42.5 Z"/></g>
<g><path style="opacity:1" fill="#d4d4d4" d="M 68.5,43.5 C 70.982,49.4802 75.3154,53.6469 81.5,56C 79.3646,56.6347 77.3646,56.3014 75.5,55C 71.4724,52.0971 69.139,48.2637 68.5,43.5 Z"/></g>
<g><path style="opacity:1" fill="#f5f5f5" d="M 60.5,41.5 C 62.5,41.5 64.5,41.5 66.5,41.5C 67.2132,52.2133 72.8799,57.88 83.5,58.5C 83.5,60.5 83.5,62.5 83.5,64.5C 73.0159,65.9834 67.3492,71.9834 66.5,82.5C 64.5,82.5 62.5,82.5 60.5,82.5C 59.522,71.522 53.522,65.522 42.5,64.5C 42.5,62.5 42.5,60.5 42.5,58.5C 53.0287,57.6382 59.0287,51.9715 60.5,41.5 Z"/></g>
<g><path style="opacity:1" fill="#ededed" d="M 59.5,33.5 C 62.1667,33.5 64.8333,33.5 67.5,33.5C 67.1667,35.5 66.8333,37.5 66.5,39.5C 64.5,39.5 62.5,39.5 60.5,39.5C 60.4828,37.4352 60.1495,35.4352 59.5,33.5 Z"/></g>
<g><path style="opacity:1" fill="#e8e8e8" d="M 335.5,38.5 C 338.194,54.0664 340.528,69.7331 342.5,85.5C 341.872,87.4452 340.872,89.1119 339.5,90.5C 337.266,73.0372 335.932,55.7039 335.5,38.5 Z"/></g>
<g><path style="opacity:1" fill="#cccccc" d="M 78.5,66.5 C 79.8734,66.3433 81.2068,66.51 82.5,67C 76.3924,69.4413 71.8924,73.6079 69,79.5C 68.8363,76.4775 69.8363,73.8109 72,71.5C 74.3256,69.9343 76.4922,68.2676 78.5,66.5 Z"/></g>
<g><path style="opacity:1" fill="#1e1e1e" d="M 335.5,35.5 C 335.611,36.1174 335.944,36.6174 336.5,37C 357.833,37.3333 379.167,37.6667 400.5,38C 408.348,45.681 416.015,53.5143 423.5,61.5C 415.681,69.8191 407.681,77.9857 399.5,86C 381.167,86.3333 362.833,86.6667 344.5,87C 343.023,88.8121 341.69,90.6455 340.5,92.5C 339.662,92.1583 339.328,91.4916 339.5,90.5C 340.872,89.1119 341.872,87.4452 342.5,85.5C 340.528,69.7331 338.194,54.0664 335.5,38.5C 334.375,37.3478 334.375,36.3478 335.5,35.5 Z"/></g>
<g><path style="opacity:1" fill="#f1f1f1" d="M 417.5,63.5 C 418.239,63.369 418.906,63.5357 419.5,64C 412.833,70.6667 406.167,77.3333 399.5,84C 383.5,84.6667 367.5,84.6667 351.5,84C 373.678,77.4388 395.678,70.6055 417.5,63.5 Z"/></g>
<g><path style="opacity:1" fill="#d5d5d5" d="M 399.5,64.5 C 402.518,64.3354 405.518,64.502 408.5,65C 398.875,68.1541 389.208,70.8208 379.5,73C 386.372,70.3905 393.038,67.5572 399.5,64.5 Z"/></g>
<g><path style="opacity:1" fill="#ededed" d="M 399.5,41.5 C 406.911,47.4053 413.911,53.9053 420.5,61C 413.462,61.6009 406.462,62.4342 399.5,63.5C 399.5,56.1667 399.5,48.8333 399.5,41.5 Z"/></g>
<g><path style="opacity:1" fill="#fcfcfc" d="M 398.5,39.5 C 398.5,47.8333 398.5,56.1667 398.5,64.5C 380.259,71.0251 361.925,77.3585 343.5,83.5C 341.954,69.4911 340.287,55.4911 338.5,41.5C 358.139,39.512 378.139,38.8453 398.5,39.5 Z"/></g>
<g><path style="opacity:1" fill="#757575" d="M 398.5,39.5 C 378.139,38.8453 358.139,39.512 338.5,41.5C 337.596,40.791 337.263,39.791 337.5,38.5C 358.007,38.1695 378.34,38.5028 398.5,39.5 Z"/></g>
<g><path style="opacity:1" fill="#cfcfcf" d="M 44.5,67.5 C 49.2018,67.1033 53.0352,69.1033 56,73.5C 57.5899,75.6498 58.2566,77.9832 58,80.5C 55.6112,73.944 51.1112,69.6106 44.5,67.5 Z"/></g>
<g><path style="opacity:1" fill="#f1f1f1" d="M 60.5,84.5 C 62.5,84.5 64.5,84.5 66.5,84.5C 66.5,86.1667 66.5,87.8333 66.5,89.5C 64.1667,89.5 61.8333,89.5 59.5,89.5C 59.2155,87.5853 59.5489,85.9187 60.5,84.5 Z"/></g>
<g><path style="opacity:1" fill="#222222" d="M 335.5,35.5 C 334.375,36.3478 334.375,37.3478 335.5,38.5C 335.932,55.7039 337.266,73.0372 339.5,90.5C 339.328,91.4916 339.662,92.1583 340.5,92.5C 340.103,93.525 339.437,93.6917 338.5,93C 336.916,86.9039 333.249,85.0706 327.5,87.5C 326.552,89.9438 325.052,91.9438 323,93.5C 321.266,91.7098 319.766,89.7098 318.5,87.5C 316.235,86.3526 313.902,86.1859 311.5,87C 308.524,95.1977 305.524,95.3643 302.5,87.5C 299.833,86.1667 297.167,86.1667 294.5,87.5C 291.232,95.5129 288.232,95.3462 285.5,87C 283.167,86.3333 280.833,86.3333 278.5,87C 275.681,95.4156 272.681,95.5823 269.5,87.5C 266.833,86.1667 264.167,86.1667 261.5,87.5C 258.476,95.3643 255.476,95.1977 252.5,87C 250.098,86.1859 247.765,86.3526 245.5,87.5C 244.234,89.7098 242.734,91.7098 241,93.5C 239.266,91.7098 237.766,89.7098 236.5,87.5C 230.71,85.0452 226.71,86.7119 224.5,92.5C 222.812,90.9706 221.479,89.1373 220.5,87C 215.167,86.3333 209.833,86.3333 204.5,87C 194.167,97.3333 183.833,107.667 173.5,118C 172.207,118.49 170.873,118.657 169.5,118.5C 169.17,80.594 169.504,42.7606 170.5,5C 171.5,4.33333 172.5,4.33333 173.5,5C 183.442,15.9441 193.776,26.6107 204.5,37C 209.03,38.2274 213.03,37.3941 216.5,34.5C 219.622,37.2501 223.289,38.0834 227.5,37C 228.795,34.2419 230.461,31.7419 232.5,29.5C 234.526,31.7049 236.192,34.2049 237.5,37C 239.902,37.8141 242.235,37.6474 244.5,36.5C 247.5,27.1667 250.5,27.1667 253.5,36.5C 255.833,37.8333 258.167,37.8333 260.5,36.5C 261.921,33.9906 263.588,31.6572 265.5,29.5C 267.526,31.7049 269.192,34.2049 270.5,37C 272.902,37.8141 275.235,37.6474 277.5,36.5C 280.5,27.1667 283.5,27.1667 286.5,36.5C 288.765,37.6474 291.098,37.8141 293.5,37C 294.808,34.2049 296.474,31.7049 298.5,29.5C 300.539,31.7419 302.205,34.2419 303.5,37C 305.902,37.8141 308.235,37.6474 310.5,36.5C 311.58,34.0038 312.914,31.6705 314.5,29.5C 316.522,31.5313 318.189,33.8646 319.5,36.5C 321.765,37.6474 324.098,37.8141 326.5,37C 327.808,34.2049 329.474,31.7049 331.5,29.5C 333.252,31.2459 334.585,33.2459 335.5,35.5 Z"/></g>
<g><path style="opacity:1" fill="#cfcfcf" d="M 220.5,53.5 C 222.044,64.2913 224.044,75.1246 226.5,86C 226.37,87.0588 225.87,87.8921 225,88.5C 223.806,86.3766 223.14,84.0432 223,81.5C 221.836,72.1906 221.002,62.8573 220.5,53.5 Z"/></g>
<g><path style="opacity:1" fill="#ededed" d="M 297.5,33.5 C 298.117,33.6107 298.617,33.944 299,34.5C 301.042,51.1373 302.375,67.8039 303,84.5C 300.429,69.0412 297.929,53.5412 295.5,38C 296.044,36.415 296.711,34.915 297.5,33.5 Z"/></g>
<g><path style="opacity:1" fill="#e7e7e7" d="M 317.5,37.5 C 318.79,38.0577 319.623,39.0577 320,40.5C 321.406,55.8009 323.573,70.9675 326.5,86C 325.711,87.6255 324.711,89.1255 323.5,90.5C 321.147,72.8779 319.147,55.2112 317.5,37.5 Z"/></g>
<g><path style="opacity:1" fill="#e9e9e9" d="M 235.5,38.5 C 236.966,39.347 237.8,40.6803 238,42.5C 239.505,56.5431 241.339,70.5431 243.5,84.5C 243.489,86.8541 242.656,88.8541 241,90.5C 238.836,73.2011 237.003,55.8678 235.5,38.5 Z"/></g>
<g><path style="opacity:1" fill="#e7e7e7" d="M 301.5,38.5 C 303.067,39.6808 303.901,41.3474 304,43.5C 305.67,57.5239 307.503,71.5239 309.5,85.5C 309.196,87.4405 308.363,89.1072 307,90.5C 304.618,73.2642 302.785,55.9309 301.5,38.5 Z"/></g>
<g><path style="opacity:1" fill="#e8e8e8" d="M 251.5,37.5 C 252.79,38.0577 253.623,39.0577 254,40.5C 255.899,55.5675 258.065,70.5675 260.5,85.5C 259.752,87.3325 258.752,88.9991 257.5,90.5C 255.445,72.8431 253.445,55.1764 251.5,37.5 Z"/></g>
<g><path style="opacity:1" fill="#e6e6e6" d="M 330.5,32.5 C 331.761,35.2578 332.594,38.2578 333,41.5C 334.239,55.8472 335.239,70.1805 336,84.5C 332.976,69.1615 330.476,53.6615 328.5,38C 329.32,36.1997 329.986,34.3664 330.5,32.5 Z"/></g>
<g><path style="opacity:1" fill="#e7e7e7" d="M 284.5,37.5 C 285.79,38.0577 286.623,39.0577 287,40.5C 288.803,55.731 290.97,70.8977 293.5,86C 292.711,87.6255 291.711,89.1255 290.5,90.5C 288.088,72.8743 286.088,55.2076 284.5,37.5 Z"/></g>
<g><path style="opacity:1" fill="#e7e7e7" d="M 314.5,32.5 C 315.813,36.944 316.646,41.6107 317,46.5C 318.08,59.5344 319.08,72.5344 320,85.5C 318.956,84.3774 318.29,83.0441 318,81.5C 316.691,66.8554 314.524,52.3554 311.5,38C 312.124,35.9149 313.124,34.0816 314.5,32.5 Z"/></g>
<g><path style="opacity:1" fill="#ececec" d="M 268.5,38.5 C 270.067,39.6808 270.901,41.3474 271,43.5C 272.25,57.4148 274.083,71.2481 276.5,85C 276.342,87.1493 275.508,88.9826 274,90.5C 271.727,73.227 269.894,55.8937 268.5,38.5 Z"/></g>
<g><path style="opacity:1" fill="#e4e4e4" d="M 264.5,33.5 C 265.117,33.6107 265.617,33.944 266,34.5C 268.092,51.8534 269.759,69.1868 271,86.5C 269.253,83.7896 268.253,80.7896 268,77.5C 266.902,64.3776 265.068,51.3776 262.5,38.5C 262.902,36.6998 263.569,35.0332 264.5,33.5 Z"/></g>
<g><path style="opacity:1" fill="#f3f3f3" d="M 227.5,39.5 C 228.268,40.2625 228.768,41.2625 229,42.5C 230.768,56.5181 232.602,70.5181 234.5,84.5C 232.167,84.5 229.833,84.5 227.5,84.5C 225.168,69.8464 222.835,55.1798 220.5,40.5C 222.607,39.5318 224.941,39.1984 227.5,39.5 Z"/></g>
<g><path style="opacity:1" fill="#9b9b9b" d="M 215.5,37.5 C 216.117,37.6107 216.617,37.944 217,38.5C 218.997,53.8011 220.331,69.1344 221,84.5C 219.136,68.8235 217.302,53.1569 215.5,37.5 Z"/></g>
<g><path style="opacity:1" fill="#e9e9e9" d="M 231.5,33.5 C 233.197,35.3052 234.03,37.6385 234,40.5C 235.312,55.1746 236.312,69.8413 237,84.5C 234.112,68.9057 231.612,53.2391 229.5,37.5C 230.18,36.1401 230.847,34.8068 231.5,33.5 Z"/></g>
<g><path style="opacity:1" fill="#f0f0f0" d="M 321.5,39.5 C 323.5,39.5 325.5,39.5 327.5,39.5C 329.354,54.5226 331.354,69.5226 333.5,84.5C 331.5,84.5 329.5,84.5 327.5,84.5C 325.5,69.4964 323.5,54.4964 321.5,39.5 Z"/></g>
<g><path style="opacity:1" fill="#efefef" d="M 304.5,40.5 C 306.56,39.1888 308.726,39.1888 311,40.5C 313.163,55.1318 314.996,69.7984 316.5,84.5C 314.234,84.8588 312.401,84.1922 311,82.5C 309.141,68.3089 306.974,54.3089 304.5,40.5 Z"/></g>
<g><path style="opacity:1" fill="#efefef" d="M 288.5,39.5 C 290.5,39.5 292.5,39.5 294.5,39.5C 296.5,54.5016 298.5,69.5016 300.5,84.5C 298.5,84.5 296.5,84.5 294.5,84.5C 292.697,69.4733 290.697,54.4733 288.5,39.5 Z"/></g>
<g><path style="opacity:1" fill="#f0f0f0" d="M 277.5,39.5 C 280.226,54.3611 282.226,69.3611 283.5,84.5C 281.234,84.8588 279.401,84.1922 278,82.5C 276.056,68.8402 274.223,55.1735 272.5,41.5C 273.552,39.744 275.219,39.0773 277.5,39.5 Z"/></g>
<g><path style="opacity:1" fill="#f1f1f1" d="M 255.5,39.5 C 257.5,39.5 259.5,39.5 261.5,39.5C 263.501,54.5067 265.501,69.5067 267.5,84.5C 265.5,84.5 263.5,84.5 261.5,84.5C 259.791,69.4511 257.791,54.4511 255.5,39.5 Z"/></g>
<g><path style="opacity:1" fill="#f0f0f0" d="M 239.5,39.5 C 241.467,39.2606 243.301,39.5939 245,40.5C 247.326,55.1071 249.159,69.7737 250.5,84.5C 248.234,84.8588 246.401,84.1922 245,82.5C 242.92,68.1918 241.086,53.8584 239.5,39.5 Z"/></g>
<g><path style="opacity:1" fill="#f8f8f8" d="M 205.5,39.5 C 208.5,39.5 211.5,39.5 214.5,39.5C 215.947,54.1996 217.614,68.8663 219.5,83.5C 214.88,84.4933 210.214,84.8266 205.5,84.5C 205.5,69.5 205.5,54.5 205.5,39.5 Z"/></g>
<g><path style="opacity:1" fill="#717171" d="M 277.5,39.5 C 275.219,39.0773 273.552,39.744 272.5,41.5C 271.596,40.791 271.263,39.791 271.5,38.5C 273.735,38.2053 275.735,38.5386 277.5,39.5 Z"/></g>
<g><path style="opacity:1" fill="#747474" d="M 227.5,39.5 C 224.941,39.1984 222.607,39.5318 220.5,40.5C 219.957,40.44 219.624,40.1067 219.5,39.5C 222.309,38.1997 224.976,38.1997 227.5,39.5 Z"/></g>
<g><path style="opacity:1" fill="#e9e9e9" d="M 248.5,32.5 C 249.945,36.9211 250.778,41.5878 251,46.5C 252.003,59.8696 253.003,73.203 254,86.5C 253.027,84.6079 252.36,82.6079 252,80.5C 250.528,66.6099 248.695,52.7765 246.5,39C 246.482,36.5897 247.149,34.423 248.5,32.5 Z"/></g>
<g><path style="opacity:1" fill="#e6e6e6" d="M 281.5,32.5 C 282.895,36.5911 283.728,40.9244 284,45.5C 285.051,59.2088 286.051,72.8755 287,86.5C 284.167,70.3312 281.333,54.1646 278.5,38C 279.632,36.2355 280.632,34.4021 281.5,32.5 Z"/></g>
<g><path style="opacity:1" fill="#fcfcfc" d="M 173.5,8.5 C 183.465,17.9645 193.298,27.6311 203,37.5C 203.667,53.5 203.667,69.5 203,85.5C 192.97,95.1961 183.303,105.196 174,115.5C 173.5,79.8349 173.333,44.1682 173.5,8.5 Z"/></g>
<g><path style="opacity:1" fill="#5c5c5c" d="M 60.5,84.5 C 62.6074,83.5318 64.9407,83.1984 67.5,83.5C 67.5,85.8333 67.5,88.1667 67.5,90.5C 64.6146,90.8064 61.9479,90.4731 59.5,89.5C 61.8333,89.5 64.1667,89.5 66.5,89.5C 66.5,87.8333 66.5,86.1667 66.5,84.5C 64.5,84.5 62.5,84.5 60.5,84.5 Z"/></g>
</svg>
