<?xml version="1.0" encoding="UTF-8"?>
<!DOCTYPE svg PUBLIC "-//W3C//DTD SVG 1.1//EN" "http://www.w3.org/Graphics/SVG/1.1/DTD/svg11.dtd">
<svg xmlns="http://www.w3.org/2000/svg" version="1.1" width="378px" height="250px" style="shape-rendering:geometricPrecision; text-rendering:geometricPrecision; image-rendering:optimizeQuality; fill-rule:evenodd; clip-rule:evenodd" xmlns:xlink="http://www.w3.org/1999/xlink">
<g><path style="opacity:1" fill="#fdfdfd" d="M -0.5,-0.5 C 125.5,-0.5 251.5,-0.5 377.5,-0.5C 377.5,82.8333 377.5,166.167 377.5,249.5C 251.5,249.5 125.5,249.5 -0.5,249.5C -0.5,166.167 -0.5,82.8333 -0.5,-0.5 Z"/></g>
<g><path style="opacity:1" fill="#aeaeae" d="M 314.5,128.5 C 314.5,129.5 314.5,130.5 314.5,131.5C 308.833,131.5 303.167,131.5 297.5,131.5C 303.269,131.071 308.936,130.071 314.5,128.5 Z"/></g>
<g><path style="opacity:1" fill="#1c1c1c" d="M 297.5,131.5 C 303.167,131.5 308.833,131.5 314.5,131.5C 314.5,130.5 314.5,129.5 314.5,128.5C 315.596,92.4363 317.763,56.4363 321,20.5C 321.579,15.5962 322.912,10.9295 325,6.5C 326.579,4.95884 328.413,3.79217 330.5,3C 338.897,2.13013 347.23,2.46346 355.5,4C 357.378,5.5429 358.878,7.37623 360,9.5C 362.208,19.368 363.541,29.368 364,39.5C 365.832,65.1506 367.332,90.8172 368.5,116.5C 362.833,116.5 357.167,116.5 351.5,116.5C 349.554,153.855 347.054,191.189 344,228.5C 343.438,233.083 342.105,237.417 340,241.5C 338.581,242.46 337.081,243.293 335.5,244C 327.167,244.667 318.833,244.667 310.5,244C 307.894,242.062 306.061,239.562 305,236.5C 301.131,201.602 298.631,166.602 297.5,131.5 Z"/></g>
<g><path style="opacity:1" fill="#fbfbfb" d="M 299.5,133.5 C 310.167,133.5 320.833,133.5 331.5,133.5C 333.058,168.994 335.391,204.327 338.5,239.5C 337.335,240.584 336.002,241.417 334.5,242C 330.833,242.167 327.167,242.333 323.5,242.5C 319.053,242.604 314.72,242.104 310.5,241C 308.396,238.958 307.229,236.458 307,233.5C 305.854,226.524 304.854,219.524 304,212.5C 302.5,186.162 301,159.829 299.5,133.5 Z"/></g>
<g><path style="opacity:1" fill="#a9a9a9" d="M 333.5,106.5 C 334.468,108.607 334.802,110.941 334.5,113.5C 344.833,113.5 355.167,113.5 365.5,113.5C 355.013,114.494 344.346,114.828 333.5,114.5C 333.5,111.833 333.5,109.167 333.5,106.5 Z"/></g>
<g><path style="opacity:1" fill="#909090" d="M 328.5,55.5 C 329.638,58.3035 329.805,61.3035 329,64.5C 328.648,62.7525 328.148,61.0858 327.5,59.5C 328.434,58.4324 328.768,57.099 328.5,55.5 Z"/></g>
<g><path style="opacity:1" fill="#f6f6f6" d="M 323.5,57.5 C 324.931,57.8807 325.764,58.8807 326,60.5C 329.005,79.0547 330.838,97.7214 331.5,116.5C 337.167,116.5 342.833,116.5 348.5,116.5C 347.92,141.378 345.42,166.044 341,190.5C 338.924,183.72 337.59,176.72 337,169.5C 336.06,157.495 335.06,145.495 334,133.5C 328.464,131.575 322.631,130.908 316.5,131.5C 317.632,106.713 319.965,82.046 323.5,57.5 Z"/></g>
<g><path style="opacity:1" fill="#e6e6e6" d="M 328.5,55.5 C 328.768,57.099 328.434,58.4324 327.5,59.5C 327.978,56.7224 326.978,54.7224 324.5,53.5C 322.482,55.6971 321.315,58.3637 321,61.5C 320.764,46.0638 321.931,30.7304 324.5,15.5C 327.367,28.64 328.7,41.9733 328.5,55.5 Z"/></g>
<g><path style="opacity:1" fill="#fbfbfb" d="M 365.5,113.5 C 355.167,113.5 344.833,113.5 334.5,113.5C 334.802,110.941 334.468,108.607 333.5,106.5C 332.801,80.1237 331.301,53.7904 329,27.5C 328.737,21.7348 327.57,16.2348 325.5,11C 326.821,8.34596 328.821,6.34596 331.5,5C 338.5,4.33333 345.5,4.33333 352.5,5C 355,6.16667 356.833,8 358,10.5C 359.432,16.4258 360.432,22.4258 361,28.5C 363.455,56.7858 364.955,85.1191 365.5,113.5 Z"/></g>
<g><path style="opacity:1" fill="#1e1e1e" d="M 118.5,1.5 C 170.103,-0.287657 209.603,20.379 237,63.5C 260.991,112.225 256.658,158.225 224,201.5C 189.047,239.923 146.214,252.757 95.5,240C 44.362,221.69 15.6953,185.524 9.5,131.5C 27.5,131.5 45.5,131.5 63.5,131.5C 68.4257,163.597 86.759,183.43 118.5,191C 159.921,193.894 186.088,175.394 197,135.5C 200.873,102.074 188.04,77.5745 158.5,62C 116.243,47.7447 85.4096,60.578 66,100.5C 64.2962,105.726 63.1295,111.059 62.5,116.5C 44.8333,116.5 27.1667,116.5 9.5,116.5C 11.7859,81.0947 26.4526,51.9281 53.5,29C 72.6404,13.7604 94.3071,4.59375 118.5,1.5 Z"/></g>
<g><path style="opacity:1" fill="#b3b3b3" d="M 12.5,108.5 C 12.5,110.167 12.5,111.833 12.5,113.5C 28.5,113.5 44.5,113.5 60.5,113.5C 44.3419,114.496 28.0085,114.83 11.5,114.5C 11.2053,112.265 11.5386,110.265 12.5,108.5 Z"/></g>
<g><path style="opacity:1" fill="#fcfcfc" d="M 60.5,113.5 C 44.5,113.5 28.5,113.5 12.5,113.5C 12.5,111.833 12.5,110.167 12.5,108.5C 20.3355,59.3605 47.6688,26.1938 94.5,9C 142.589,-3.77166 184.089,7.39501 219,42.5C 248.986,77.4631 257.319,117.13 244,161.5C 226.147,207.186 192.98,234.02 144.5,242C 87.3327,245.346 46.1661,221.513 21,170.5C 16.1173,158.636 13.2839,146.303 12.5,133.5C 28.8333,133.5 45.1667,133.5 61.5,133.5C 67.2598,165.428 85.9265,185.261 117.5,193C 153.492,196.928 179.326,182.761 195,150.5C 206.905,113.879 197.071,84.7124 165.5,63C 135.197,47.832 107.197,51.1654 81.5,73C 70.221,84.402 63.221,97.902 60.5,113.5 Z"/></g>
<g><path style="opacity:1" fill="#939393" d="M 344.5,191.5 C 344.672,190.508 344.338,189.842 343.5,189.5C 343.687,187.436 344.187,185.436 345,183.5C 345.801,186.367 345.634,189.034 344.5,191.5 Z"/></g>
<g><path style="opacity:1" fill="#ebebeb" d="M 343.5,189.5 C 344.338,189.842 344.672,190.508 344.5,191.5C 344.211,204.921 343.044,218.254 341,231.5C 338.087,215.96 336.753,200.293 337,184.5C 337.606,187.43 338.44,190.263 339.5,193C 342.138,193.509 343.472,192.342 343.5,189.5 Z"/></g>
</svg>
