<?xml version="1.0" encoding="UTF-8"?>
<!DOCTYPE svg PUBLIC "-//W3C//DTD SVG 1.1//EN" "http://www.w3.org/Graphics/SVG/1.1/DTD/svg11.dtd">
<svg xmlns="http://www.w3.org/2000/svg" version="1.1" width="456px" height="300px" style="shape-rendering:geometricPrecision; text-rendering:geometricPrecision; image-rendering:optimizeQuality; fill-rule:evenodd; clip-rule:evenodd" xmlns:xlink="http://www.w3.org/1999/xlink">
<g><path style="opacity:1" fill="#fefefe" d="M -0.5,-0.5 C 151.5,-0.5 303.5,-0.5 455.5,-0.5C 455.5,99.5 455.5,199.5 455.5,299.5C 303.5,299.5 151.5,299.5 -0.5,299.5C -0.5,199.5 -0.5,99.5 -0.5,-0.5 Z"/></g>
<g><path style="opacity:1" fill="#060606" d="M 162.5,87.5 C 162.5,87.8333 162.5,88.1667 162.5,88.5C 161.833,88.1667 161.167,87.8333 160.5,87.5C 160.44,86.9569 160.107,86.6236 159.5,86.5C 158.333,123.162 158.167,159.829 159,196.5C 159.717,195.956 160.217,195.289 160.5,194.5C 172.5,183.167 184.167,171.5 195.5,159.5C 196.148,146.93 196.815,134.93 197.5,123.5C 197.5,135.167 197.5,146.833 197.5,158.5C 197.5,159.167 197.5,159.833 197.5,160.5C 184.368,173.131 171.368,185.965 158.5,199C 157.207,199.49 155.873,199.657 154.5,199.5C 154.5,160.5 154.5,121.5 154.5,82.5C 158.175,82.5003 160.841,84.167 162.5,87.5 Z"/></g>
<g><path style="opacity:1" fill="#9f9f9f" d="M 155.5,84.5 C 156.833,102.988 157.5,121.821 157.5,141C 157.167,159.833 156.833,178.667 156.5,197.5C 155.5,159.839 155.167,122.173 155.5,84.5 Z"/></g>
<g><path style="opacity:1" fill="#b2b2b2" d="M 160.5,87.5 C 159.167,123.167 159.167,158.833 160.5,194.5C 160.217,195.289 159.717,195.956 159,196.5C 158.167,159.829 158.333,123.162 159.5,86.5C 160.107,86.6236 160.44,86.9569 160.5,87.5 Z"/></g>
<g><path style="opacity:1" fill="#fcfcfc" d="M 160.5,87.5 C 161.167,87.8333 161.833,88.1667 162.5,88.5C 162.369,89.2389 162.536,89.9056 163,90.5C 173.667,101.167 184.333,111.833 195,122.5C 195.5,134.829 195.667,147.162 195.5,159.5C 184.167,171.5 172.5,183.167 160.5,194.5C 159.167,158.833 159.167,123.167 160.5,87.5 Z"/></g>
<g><path style="opacity:1" fill="#1f1f1f" d="M 162.5,87.5 C 173.965,98.4646 185.298,109.631 196.5,121C 204.853,121.832 213.187,121.665 221.5,120.5C 222.766,118.29 224.266,116.29 226,114.5C 228.181,116.356 230.015,118.523 231.5,121C 236.167,121.667 240.833,121.667 245.5,121C 247.057,118.704 248.724,116.538 250.5,114.5C 252.633,116.091 254.299,118.091 255.5,120.5C 260.5,121.833 265.5,121.833 270.5,120.5C 271.766,118.29 273.266,116.29 275,114.5C 277.052,116.056 278.552,118.056 279.5,120.5C 284.467,121.662 289.467,121.829 294.5,121C 295.573,118.343 297.24,116.177 299.5,114.5C 301.76,116.177 303.427,118.343 304.5,121C 309.533,121.829 314.533,121.662 319.5,120.5C 320.766,118.29 322.266,116.29 324,114.5C 326.052,116.056 327.552,118.056 328.5,120.5C 333.467,121.662 338.467,121.829 343.5,121C 345.006,118.667 346.673,116.5 348.5,114.5C 350.633,116.091 352.299,118.091 353.5,120.5C 358.131,121.662 362.798,121.828 367.5,121C 368.573,118.343 370.24,116.177 372.5,114.5C 374.526,116.705 376.192,119.205 377.5,122C 381.558,123.556 385.725,124.723 390,125.5C 392.38,124.743 394.38,123.409 396,121.5C 398.154,124.271 400.654,126.771 403.5,129C 407.141,130.269 410.808,131.436 414.5,132.5C 415.833,131.833 416.833,130.833 417.5,129.5C 418.723,128.386 420.056,128.219 421.5,129C 423.081,130.828 424.415,132.828 425.5,135C 432.25,136.749 438.916,138.749 445.5,141C 442.637,142.399 439.637,143.399 436.5,144C 434.998,146.544 433.164,148.71 431,150.5C 429.147,148.813 426.981,147.813 424.5,147.5C 420.697,148.034 417.03,149.034 413.5,150.5C 412.14,153.228 410.307,155.561 408,157.5C 406.38,155.591 404.38,154.257 402,153.5C 398.482,154.255 394.982,155.088 391.5,156C 389.11,158.616 386.61,161.116 384,163.5C 382.286,162.924 381.119,161.757 380.5,160C 375.407,159.428 370.407,159.928 365.5,161.5C 364.299,163.909 362.633,165.909 360.5,167.5C 358.673,165.5 357.006,163.333 355.5,161C 350.467,160.171 345.467,160.338 340.5,161.5C 337.5,169.5 334.5,169.5 331.5,161.5C 326.533,160.338 321.533,160.171 316.5,161C 314.994,163.333 313.327,165.5 311.5,167.5C 309.24,165.823 307.573,163.657 306.5,161C 301.467,160.171 296.467,160.338 291.5,161.5C 288.402,169.46 285.402,169.46 282.5,161.5C 277.5,160.167 272.5,160.167 267.5,161.5C 266.299,163.909 264.633,165.909 262.5,167.5C 260.673,165.5 259.006,163.333 257.5,161C 252.467,160.171 247.467,160.338 242.5,161.5C 239.402,169.46 236.402,169.46 233.5,161.5C 228.833,160.167 224.167,160.167 219.5,161.5C 216.402,169.46 213.402,169.46 210.5,161.5C 206.217,160.508 201.884,160.174 197.5,160.5C 197.5,159.833 197.5,159.167 197.5,158.5C 201.167,158.5 204.833,158.5 208.5,158.5C 207.298,147.512 206.131,136.512 205,125.5C 202.894,123.709 200.394,123.042 197.5,123.5C 196.815,134.93 196.148,146.93 195.5,159.5C 195.667,147.162 195.5,134.829 195,122.5C 184.333,111.833 173.667,101.167 163,90.5C 162.536,89.9056 162.369,89.2389 162.5,88.5C 162.5,88.1667 162.5,87.8333 162.5,87.5 Z"/></g>
<g><path style="opacity:1" fill="#f3f3f3" d="M 403.5,131.5 C 413.57,131.028 420.57,135.362 424.5,144.5C 420.022,146.619 415.356,147.786 410.5,148C 407.767,142.697 405.434,137.197 403.5,131.5 Z"/></g>
<g><path style="opacity:1" fill="#dadada" d="M 249.5,117.5 C 250.496,117.414 251.329,117.748 252,118.5C 254.823,131.76 256.823,145.094 258,158.5C 255.135,148.984 252.801,139.317 251,129.5C 250.108,126.716 248.942,124.05 247.5,121.5C 248.63,120.378 249.297,119.044 249.5,117.5 Z"/></g>
<g><path style="opacity:1" fill="#d9d9d9" d="M 418.5,130.5 C 419.496,130.414 420.329,130.748 421,131.5C 422.832,134.328 423.832,137.328 424,140.5C 422.062,137.61 419.895,134.944 417.5,132.5C 417.863,131.817 418.196,131.15 418.5,130.5 Z"/></g>
<g><path style="opacity:1" fill="#e0e0e0" d="M 225.5,117.5 C 226.117,117.611 226.617,117.944 227,118.5C 230.03,131.381 232.03,144.381 233,157.5C 230.343,145.364 227.177,133.364 223.5,121.5C 223.752,119.927 224.418,118.594 225.5,117.5 Z"/></g>
<g><path style="opacity:1" fill="#dcdcdc" d="M 400.5,138.5 C 400.5,139.167 400.167,139.5 399.5,139.5C 397.944,134.422 396.444,129.422 395,124.5C 395.667,123.167 396.333,123.167 397,124.5C 398.74,129.035 399.906,133.702 400.5,138.5 Z"/></g>
<g><path style="opacity:1" fill="#dfdfdf" d="M 298.5,117.5 C 299.75,117.577 300.583,118.244 301,119.5C 303.474,132.49 305.474,145.49 307,158.5C 303.502,146.196 300.002,133.863 296.5,121.5C 297.18,120.14 297.847,118.807 298.5,117.5 Z"/></g>
<g><path style="opacity:1" fill="#f5f5f5" d="M 379.5,124.5 C 384.95,125.81 390.116,127.81 395,130.5C 396.97,137.562 399.47,144.395 402.5,151C 397.369,152.704 392.369,153.87 387.5,154.5C 384.208,144.667 381.542,134.667 379.5,124.5 Z"/></g>
<g><path style="opacity:1" fill="#f8f8f8" d="M 306.5,123.5 C 311.214,123.173 315.88,123.507 320.5,124.5C 323.692,135.629 326.692,146.795 329.5,158C 324.581,158.802 319.748,158.635 315,157.5C 311.633,146.294 308.8,134.961 306.5,123.5 Z"/></g>
<g><path style="opacity:1" fill="#f7f7f7" d="M 282.5,123.5 C 287.099,123.2 291.599,123.533 296,124.5C 299.15,135.413 301.983,146.413 304.5,157.5C 299.833,158.833 295.167,158.833 290.5,157.5C 287.406,146.273 284.74,134.94 282.5,123.5 Z"/></g>
<g><path style="opacity:1" fill="#f7f7f7" d="M 257.5,123.5 C 262.214,123.173 266.88,123.507 271.5,124.5C 274.627,135.468 277.627,146.468 280.5,157.5C 275.615,158.802 270.782,158.802 266,157.5C 263.228,146.135 260.395,134.802 257.5,123.5 Z"/></g>
<g><path style="opacity:1" fill="#f7f7f7" d="M 207.5,123.5 C 212.762,123.195 217.928,123.529 223,124.5C 225.712,135.733 228.545,146.9 231.5,158C 227.129,158.828 222.795,158.661 218.5,157.5C 215.961,145.767 212.294,134.433 207.5,123.5 Z"/></g>
<g><path style="opacity:1" fill="#f2f2f2" d="M 197.5,123.5 C 200.394,123.042 202.894,123.709 205,125.5C 206.131,136.512 207.298,147.512 208.5,158.5C 204.833,158.5 201.167,158.5 197.5,158.5C 197.5,146.833 197.5,135.167 197.5,123.5 Z"/></g>
<g><path style="opacity:1" fill="#f6f6f6" d="M 355.5,123.5 C 360.214,123.173 364.88,123.507 369.5,124.5C 373.121,134.982 376.121,145.649 378.5,156.5C 373.75,158.593 368.917,158.926 364,157.5C 360.935,146.182 358.102,134.848 355.5,123.5 Z"/></g>
<g><path style="opacity:1" fill="#f8f8f8" d="M 331.5,123.5 C 336.099,123.2 340.599,123.533 345,124.5C 348.366,135.694 351.199,147.027 353.5,158.5C 348.786,158.827 344.12,158.493 339.5,157.5C 336.003,146.349 333.337,135.015 331.5,123.5 Z"/></g>
<g><path style="opacity:1" fill="#f8f8f8" d="M 233.5,123.5 C 238.214,123.173 242.88,123.507 247.5,124.5C 250.801,135.703 253.468,147.037 255.5,158.5C 250.786,158.827 246.12,158.493 241.5,157.5C 238.197,146.32 235.53,134.986 233.5,123.5 Z"/></g>
<g><path style="opacity:1" fill="#e2e2e2" d="M 347.5,117.5 C 349.614,118.36 350.78,120.027 351,122.5C 353.112,134.494 354.778,146.494 356,158.5C 352.906,149.035 350.573,139.369 349,129.5C 348.311,126.592 347.145,123.925 345.5,121.5C 346.63,120.378 347.297,119.044 347.5,117.5 Z"/></g>
<g><path style="opacity:1" fill="#e3e3e3" d="M 323.5,116.5 C 324.117,116.611 324.617,116.944 325,117.5C 328.093,130.72 330.093,144.053 331,157.5C 328.277,145.384 325.11,133.384 321.5,121.5C 322.187,119.823 322.854,118.156 323.5,116.5 Z"/></g>
<g><path style="opacity:1" fill="#dedede" d="M 274.5,116.5 C 276.751,121.145 278.251,126.145 279,131.5C 280.171,140.199 281.171,148.866 282,157.5C 278.94,145.48 275.774,133.48 272.5,121.5C 273.187,119.823 273.854,118.156 274.5,116.5 Z"/></g>
<g><path style="opacity:1" fill="#d5d5d5" d="M 371.5,117.5 C 372.931,117.881 373.764,118.881 374,120.5C 376.11,131.155 377.776,141.822 379,152.5C 377.082,145.58 375.415,138.58 374,131.5C 373.171,127.839 371.671,124.505 369.5,121.5C 370.18,120.14 370.847,118.807 371.5,117.5 Z"/></g>
<g><path style="opacity:1" fill="#e0e0e0" d="M 230.5,124.5 C 231.793,125.842 232.626,127.509 233,129.5C 234.929,139.977 237.429,150.31 240.5,160.5C 238.77,167.085 237.27,167.085 236,160.5C 234.026,148.512 232.192,136.512 230.5,124.5 Z"/></g>
<g><path style="opacity:1" fill="#e2e2e2" d="M 255.5,125.5 C 258.818,137.041 262.152,148.707 265.5,160.5C 264.974,162.23 263.974,163.564 262.5,164.5C 260.831,160.379 259.664,156.046 259,151.5C 257.878,142.814 256.711,134.148 255.5,125.5 Z"/></g>
<g><path style="opacity:1" fill="#e1e1e1" d="M 352.5,123.5 C 353.966,124.347 354.8,125.68 355,127.5C 357.14,138.706 359.973,149.706 363.5,160.5C 362.974,162.23 361.974,163.564 360.5,164.5C 357.265,150.963 354.598,137.297 352.5,123.5 Z"/></g>
<g><path style="opacity:1" fill="#e0e0e0" d="M 328.5,124.5 C 332.197,136.274 335.531,148.274 338.5,160.5C 338.196,162.441 337.363,164.107 336,165.5C 334.422,162.343 333.422,159.009 333,155.5C 331.692,145.129 330.192,134.795 328.5,124.5 Z"/></g>
<g><path style="opacity:1" fill="#e3e3e3" d="M 428.5,137.5 C 432.089,138.816 435.756,139.983 439.5,141C 434.326,143.881 430.66,142.714 428.5,137.5 Z"/></g>
<g><path style="opacity:1" fill="#dedede" d="M 376.5,124.5 C 380.012,133.834 382.845,143.501 385,153.5C 387.984,156.316 387.651,158.982 384,161.5C 380.643,149.359 378.143,137.026 376.5,124.5 Z"/></g>
<g><path style="opacity:1" fill="#e3e3e3" d="M 401.5,133.5 C 404.11,139.642 407.11,145.642 410.5,151.5C 409.318,155.952 407.818,156.286 406,152.5C 404.339,146.189 402.839,139.856 401.5,133.5 Z"/></g>
<g><path style="opacity:1" fill="#e0e0e0" d="M 208.5,133.5 C 210.648,136.403 212.148,139.736 213,143.5C 213.866,149.499 215.366,155.332 217.5,161C 217.054,162.726 216.221,164.226 215,165.5C 212.184,154.983 210.017,144.317 208.5,133.5 Z"/></g>
<g><path style="opacity:1" fill="#767676" d="M 400.5,138.5 C 401.693,140.97 402.193,143.636 402,146.5C 400.864,144.257 400.03,141.924 399.5,139.5C 400.167,139.5 400.5,139.167 400.5,138.5 Z"/></g>
<g><path style="opacity:1" fill="#e1e1e1" d="M 426.5,139.5 C 428.671,141.5 431.004,143.334 433.5,145C 432.789,146.255 431.956,147.421 431,148.5C 428.837,145.852 427.337,142.852 426.5,139.5 Z"/></g>
<g><path style="opacity:1" fill="#e5e5e5" d="M 279.5,124.5 C 283.198,136.277 286.531,148.277 289.5,160.5C 289.196,162.441 288.363,164.107 287,165.5C 283.714,152.007 281.214,138.341 279.5,124.5 Z"/></g>
<g><path style="opacity:1" fill="#e7e7e7" d="M 303.5,123.5 C 307.31,135.728 310.976,148.062 314.5,160.5C 313.5,161.833 312.5,163.167 311.5,164.5C 309.717,160.703 308.55,156.703 308,152.5C 306.731,142.781 305.231,133.114 303.5,123.5 Z"/></g>
<g><path style="opacity:1" fill="#202020" d="M 68.5,82.5 C 91.8846,81.777 110.385,90.777 124,109.5C 135.781,131.876 135.115,153.876 122,175.5C 105.012,195.829 83.5124,202.996 57.5,197C 26.0123,183.865 12.8457,160.365 18,126.5C 26.065,101.592 42.8983,86.9253 68.5,82.5 Z"/></g>
<g><path style="opacity:1" fill="#fafafa" d="M 65.5,84.5 C 98.2558,82.9429 119.756,97.6096 130,128.5C 134.169,156.659 124.002,177.826 99.5,192C 69.99,203.419 45.8233,196.585 27,171.5C 11.3731,140.413 17.2064,114.246 44.5,93C 51.3422,89.4495 58.3422,86.6162 65.5,84.5 Z"/></g>
<g><path style="opacity:1" fill="#232323" d="M 89.5,130.5 C 88.9569,130.56 88.6236,130.893 88.5,131.5C 95.1335,132.497 101.8,132.83 108.5,132.5C 110.981,137.934 111.148,143.601 109,149.5C 102.247,150.314 95.4137,150.814 88.5,151C 103.924,168.075 102.591,169.575 84.5,155.5C 84.1156,162.585 83.1156,169.418 81.5,176C 76.4456,176.781 71.4456,176.614 66.5,175.5C 65.8333,168.833 65.1667,162.167 64.5,155.5C 47.6258,169.458 46.2924,167.958 60.5,151C 53.8417,150.5 47.175,150.334 40.5,150.5C 39.2599,144.486 39.2599,138.486 40.5,132.5C 47.1419,131.669 53.8085,131.169 60.5,131C 46.1525,113.848 47.4858,112.348 64.5,126.5C 64.8844,119.415 65.8844,112.582 67.5,106C 72.5544,105.219 77.5544,105.386 82.5,106.5C 83.1667,113.167 83.8333,119.833 84.5,126.5C 89.1667,123.167 93.8333,119.833 98.5,116.5C 98.8333,116.833 99.1667,117.167 99.5,117.5C 96.1426,121.852 92.8093,126.185 89.5,130.5 Z"/></g>
<g><path style="opacity:1" fill="#fafafa" d="M 67.5,159.5 C 72.1425,160.673 76.8091,160.673 81.5,159.5C 81.5,164.5 81.5,169.5 81.5,174.5C 76.8333,174.5 72.1667,174.5 67.5,174.5C 67.5,169.5 67.5,164.5 67.5,159.5 Z"/></g>
<g><path style="opacity:1" fill="#dbdbdb" d="M 86.5,151.5 C 87.9335,152.833 89.2668,154.333 90.5,156C 88.4324,155.983 86.7657,154.983 85.5,153C 86.056,152.617 86.3893,152.117 86.5,151.5 Z"/></g>
<g><path style="opacity:1" fill="#d2d2d2" d="M 61.5,152.5 C 62.3764,152.369 63.0431,152.702 63.5,153.5C 58.1641,159.129 57.4974,158.795 61.5,152.5 Z"/></g>
<g><path style="opacity:1" fill="#f4f4f4" d="M 92.5,133.5 C 97.5111,133.334 102.511,133.501 107.5,134C 108.811,138.469 108.811,142.969 107.5,147.5C 102.5,148.833 97.5,148.833 92.5,147.5C 93.773,142.835 93.773,138.168 92.5,133.5 Z"/></g>
<g><path style="opacity:1" fill="#f3f3f3" d="M 41.5,133.5 C 46.544,133.173 51.544,133.506 56.5,134.5C 55.3834,139.141 55.3834,143.808 56.5,148.5C 51.456,148.827 46.456,148.494 41.5,147.5C 40.227,142.835 40.227,138.168 41.5,133.5 Z"/></g>
<g><path style="opacity:1" fill="#808080" d="M 89.5,130.5 C 95.8333,131.167 102.167,131.833 108.5,132.5C 101.8,132.83 95.1335,132.497 88.5,131.5C 88.6236,130.893 88.9569,130.56 89.5,130.5 Z"/></g>
<g><path style="opacity:1" fill="#c9c9c9" d="M 57.5,123.5 C 60.643,125.229 62.3097,127.562 62.5,130.5C 60.3951,128.408 58.7284,126.075 57.5,123.5 Z"/></g>
<g><path style="opacity:1" fill="#e0e0e0" d="M 88.5,125.5 C 89.2389,125.369 89.9056,125.536 90.5,126C 89.2125,127.41 88.0458,128.91 87,130.5C 86.5,130 86,129.5 85.5,129C 86.7101,127.961 87.7101,126.794 88.5,125.5 Z"/></g>
<g><path style="opacity:1" fill="#f8f8f8" d="M 69.5,123.5 C 73.5817,123.344 77.5817,123.844 81.5,125C 82.6667,130.167 85.8333,133.333 91,134.5C 91.6667,138.5 91.6667,142.5 91,146.5C 89.0053,148.177 86.8386,149.677 84.5,151C 83.283,152.648 82.4497,154.481 82,156.5C 77.6766,158.715 73.1766,159.048 68.5,157.5C 66.5019,152.337 63.0019,148.67 58,146.5C 57.3333,142.833 57.3333,139.167 58,135.5C 60.7972,133.758 63.4639,131.758 66,129.5C 66.4238,126.975 67.5905,124.975 69.5,123.5 Z"/></g>
<g><path style="opacity:1" fill="#f0f0f0" d="M 67.5,107.5 C 72.1785,107.334 76.8452,107.501 81.5,108C 82.4692,112.737 82.8025,117.57 82.5,122.5C 77.5,122.5 72.5,122.5 67.5,122.5C 67.5,117.5 67.5,112.5 67.5,107.5 Z"/></g>
</svg>
