<?xml version="1.0" encoding="UTF-8"?>
<!DOCTYPE svg PUBLIC "-//W3C//DTD SVG 1.1//EN" "http://www.w3.org/Graphics/SVG/1.1/DTD/svg11.dtd">
<svg xmlns="http://www.w3.org/2000/svg" version="1.1" width="412px" height="119px" style="shape-rendering:geometricPrecision; text-rendering:geometricPrecision; image-rendering:optimizeQuality; fill-rule:evenodd; clip-rule:evenodd" xmlns:xlink="http://www.w3.org/1999/xlink">
<g><path style="opacity:1" fill="#fdfdfd" d="M -0.5,-0.5 C 136.833,-0.5 274.167,-0.5 411.5,-0.5C 411.5,39.1667 411.5,78.8333 411.5,118.5C 274.167,118.5 136.833,118.5 -0.5,118.5C -0.5,101.167 -0.5,83.8333 -0.5,66.5C 7.90283,99.8819 29.2362,114.049 63.5,109C 90.9912,99.2037 103.158,79.7037 100,50.5C 92.9578,25.2879 76.2911,11.6213 50,9.5C 22.7136,12.2927 5.88024,26.9593 -0.5,53.5C -0.5,35.5 -0.5,17.5 -0.5,-0.5 Z"/></g>
<g><path style="opacity:1" fill="#070707" d="M 190.5,33.5 C 190.5,34.1667 190.167,34.5 189.5,34.5C 187.516,49.7977 186.849,65.4643 187.5,81.5C 187.167,81.5 186.833,81.5 186.5,81.5C 186.667,65.1633 186.5,48.8299 186,32.5C 185.617,31.944 185.117,31.6107 184.5,31.5C 179.167,25.5 173.5,19.8333 167.5,14.5C 167.44,13.9569 167.107,13.6236 166.5,13.5C 165.17,44.9974 165.17,76.3307 166.5,107.5C 166.5,108.167 166.5,108.833 166.5,109.5C 164.052,110.473 161.385,110.806 158.5,110.5C 158.833,109.833 159.167,109.167 159.5,108.5C 159.833,76.1598 159.5,43.8265 158.5,11.5C 157.893,11.6236 157.56,11.9569 157.5,12.5C 156.167,13.1667 155.167,14.1667 154.5,15.5C 153.833,15.5 153.5,15.1667 153.5,14.5C 156.131,9.80872 160.131,8.30872 165.5,10C 173.421,18.4261 181.755,26.2594 190.5,33.5 Z"/></g>
<g><path style="opacity:1" fill="#f9f9f9" d="M 157.5,12.5 C 158.498,44.329 158.832,76.329 158.5,108.5C 153.696,104.51 150.196,99.5104 148,93.5C 142.453,82.7665 141.287,71.5999 144.5,60C 140.812,43.5873 144.145,28.754 154.5,15.5C 155.167,14.1667 156.167,13.1667 157.5,12.5 Z"/></g>
<g><path style="opacity:1" fill="#fcfcfc" d="M 167.5,14.5 C 173.5,19.8333 179.167,25.5 184.5,31.5C 185.474,50.1202 185.808,68.7868 185.5,87.5C 179.5,94.1667 173.167,100.5 166.5,106.5C 166.169,75.6621 166.502,44.9955 167.5,14.5 Z"/></g>
<g><path style="opacity:1" fill="#848484" d="M 167.5,14.5 C 166.502,44.9955 166.169,75.6621 166.5,106.5C 166.5,106.833 166.5,107.167 166.5,107.5C 165.17,76.3307 165.17,44.9974 166.5,13.5C 167.107,13.6236 167.44,13.9569 167.5,14.5 Z"/></g>
<g><path style="opacity:1" fill="#8f8f8f" d="M 157.5,12.5 C 157.56,11.9569 157.893,11.6236 158.5,11.5C 159.5,43.8265 159.833,76.1598 159.5,108.5C 159.167,108.5 158.833,108.5 158.5,108.5C 158.832,76.329 158.498,44.329 157.5,12.5 Z"/></g>
<g><path style="opacity:1" fill="#bfbfbf" d="M 160.5,11.5 C 161.833,11.5 163.167,11.5 164.5,11.5C 164.5,44.1667 164.5,76.8333 164.5,109.5C 163.167,109.5 161.833,109.5 160.5,109.5C 160.5,76.8333 160.5,44.1667 160.5,11.5 Z"/></g>
<g><path style="opacity:1" fill="#fefefe" d="M 161.5,12.5 C 162.833,28.1524 163.499,44.1524 163.5,60.5C 163.167,76.5 162.833,92.5 162.5,108.5C 161.5,76.5069 161.167,44.5069 161.5,12.5 Z"/></g>
<g><path style="opacity:1" fill="#e0e0e0" d="M 214.5,33.5 C 275.833,33.5 337.167,33.5 398.5,33.5C 398.5,34.8333 398.5,36.1667 398.5,37.5C 337.5,37.5 276.5,37.5 215.5,37.5C 214.566,36.4324 214.232,35.099 214.5,33.5 Z"/></g>
<g><path style="opacity:1" fill="#f8f8f8" d="M 189.5,35.5 C 197.258,35.9161 204.924,36.9161 212.5,38.5C 213.666,52.8217 213.833,67.1551 213,81.5C 211.581,82.4601 210.081,83.2935 208.5,84C 201.754,84.2047 195.087,84.7047 188.5,85.5C 188.17,68.6583 188.503,51.9916 189.5,35.5 Z"/></g>
<g><path style="opacity:1" fill="#212121" d="M 153.5,14.5 C 153.5,15.1667 153.833,15.5 154.5,15.5C 144.145,28.754 140.812,43.5873 144.5,60C 141.287,71.5999 142.453,82.7665 148,93.5C 150.196,99.5104 153.696,104.51 158.5,108.5C 158.833,108.5 159.167,108.5 159.5,108.5C 159.167,109.167 158.833,109.833 158.5,110.5C 156.284,109.797 154.451,108.464 153,106.5C 145.549,95.6474 141.382,83.6474 140.5,70.5C 140.713,66.617 141.713,63.117 143.5,60C 143.359,58.0448 142.526,56.5448 141,55.5C 140.079,40.1618 144.245,26.4951 153.5,14.5 Z"/></g>
<g><path style="opacity:1" fill="#0e0e0e" d="M 214.5,33.5 C 214.5,33.1667 214.5,32.8333 214.5,32.5C 276.501,32.3333 338.501,32.5 400.5,33C 402,34.5 403.5,36 405,37.5C 405.667,52.8333 405.667,68.1667 405,83.5C 403.629,85.0414 402.129,86.3747 400.5,87.5C 399.508,87.6716 398.842,87.3382 398.5,86.5C 398.5,85.5 398.5,84.5 398.5,83.5C 397.833,82.8333 397.167,82.1667 396.5,81.5C 398.482,67.8733 399.149,53.8733 398.5,39.5C 337.669,38.5009 276.669,38.1676 215.5,38.5C 215.5,38.1667 215.5,37.8333 215.5,37.5C 276.5,37.5 337.5,37.5 398.5,37.5C 398.5,36.1667 398.5,34.8333 398.5,33.5C 337.167,33.5 275.833,33.5 214.5,33.5 Z"/></g>
<g><path style="opacity:1" fill="#a1a1a1" d="M 399.5,35.5 C 401.337,35.6395 401.67,36.3061 400.5,37.5C 399.702,37.0431 399.369,36.3764 399.5,35.5 Z"/></g>
<g><path style="opacity:1" fill="#dadada" d="M 184.5,31.5 C 185.117,31.6107 185.617,31.944 186,32.5C 186.5,48.8299 186.667,65.1633 186.5,81.5C 186.795,83.7354 186.461,85.7354 185.5,87.5C 185.808,68.7868 185.474,50.1202 184.5,31.5 Z"/></g>
<g><path style="opacity:1" fill="#636363" d="M 189.5,34.5 C 189.5,34.8333 189.5,35.1667 189.5,35.5C 188.503,51.9916 188.17,68.6583 188.5,85.5C 187.566,84.4324 187.232,83.099 187.5,81.5C 186.849,65.4643 187.516,49.7977 189.5,34.5 Z"/></g>
<g><path style="opacity:1" fill="#161616" d="M 214.5,32.5 C 214.5,32.8333 214.5,33.1667 214.5,33.5C 214.232,35.099 214.566,36.4324 215.5,37.5C 215.5,37.8333 215.5,38.1667 215.5,38.5C 214.504,52.6569 214.171,66.9903 214.5,81.5C 214.5,82.1667 214.5,82.8333 214.5,83.5C 214.5,84.5 214.5,85.5 214.5,86.5C 214.158,87.3382 213.492,87.6716 212.5,87.5C 204.429,84.6714 196.429,84.8381 188.5,88C 181.298,95.3692 173.965,102.536 166.5,109.5C 166.5,108.833 166.5,108.167 166.5,107.5C 166.5,107.167 166.5,106.833 166.5,106.5C 173.167,100.5 179.5,94.1667 185.5,87.5C 186.461,85.7354 186.795,83.7354 186.5,81.5C 186.833,81.5 187.167,81.5 187.5,81.5C 187.232,83.099 187.566,84.4324 188.5,85.5C 195.087,84.7047 201.754,84.2047 208.5,84C 210.081,83.2935 211.581,82.4601 213,81.5C 213.833,67.1551 213.666,52.8217 212.5,38.5C 204.924,36.9161 197.258,35.9161 189.5,35.5C 189.5,35.1667 189.5,34.8333 189.5,34.5C 190.167,34.5 190.5,34.1667 190.5,33.5C 198.546,34.9683 206.546,34.635 214.5,32.5 Z"/></g>
<g><path style="opacity:1" fill="#a2a2a2" d="M 210.5,34.5 C 211.675,34.281 212.675,34.6143 213.5,35.5C 211.948,36.7979 210.948,36.4646 210.5,34.5 Z"/></g>
<g><path style="opacity:1" fill="#fefefe" d="M 398.5,39.5 C 399.149,53.8733 398.482,67.8733 396.5,81.5C 336.167,81.5 275.833,81.5 215.5,81.5C 215.5,67.5 215.5,53.5 215.5,39.5C 276.5,39.5 337.5,39.5 398.5,39.5 Z"/></g>
<g><path style="opacity:1" fill="#f5f5f5" d="M 403.5,39.5 C 403.5,53.5 403.5,67.5 403.5,81.5C 402.5,81.5 401.5,81.5 400.5,81.5C 400.5,67.5 400.5,53.5 400.5,39.5C 401.5,39.5 402.5,39.5 403.5,39.5 Z"/></g>
<g><path style="opacity:1" fill="#adadad" d="M 215.5,38.5 C 276.669,38.1676 337.669,38.5009 398.5,39.5C 337.5,39.5 276.5,39.5 215.5,39.5C 215.5,53.5 215.5,67.5 215.5,81.5C 215.167,81.5 214.833,81.5 214.5,81.5C 214.171,66.9903 214.504,52.6569 215.5,38.5 Z"/></g>
<g><path style="opacity:1" fill="#767676" d="M 403.5,39.5 C 402.5,39.5 401.5,39.5 400.5,39.5C 400.5,53.5 400.5,67.5 400.5,81.5C 399.504,67.3431 399.171,53.0097 399.5,38.5C 401.099,38.2322 402.432,38.5655 403.5,39.5 Z"/></g>
<g><path style="opacity:1" fill="#232323" d="M -0.5,66.5 C -0.5,62.1667 -0.5,57.8333 -0.5,53.5C 5.88024,26.9593 22.7136,12.2927 50,9.5C 76.2911,11.6213 92.9578,25.2879 100,50.5C 103.158,79.7037 90.9912,99.2037 63.5,109C 29.2362,114.049 7.90283,99.8819 -0.5,66.5 Z"/></g>
<g><path style="opacity:1" fill="#fafafa" d="M 42.5,11.5 C 67.8897,9.76986 85.723,20.4365 96,43.5C 102.851,67.9534 96.0176,87.4534 75.5,102C 47.944,115.141 25.444,109.308 8,84.5C -4.71179,56.314 1.78821,33.814 27.5,17C 32.5122,15.0043 37.5122,13.171 42.5,11.5 Z"/></g>
<g><path style="opacity:1" fill="#202020" d="M 55.5,30.5 C 55.9403,46.6055 64.2737,54.6055 80.5,54.5C 80.5,58.5 80.5,62.5 80.5,66.5C 67.8826,65.144 59.8826,70.4773 56.5,82.5C 55.6862,84.631 55.1862,86.9644 55,89.5C 54.79,87.9419 54.29,86.6085 53.5,85.5C 53.5,84.1667 53.5,82.8333 53.5,81.5C 47.5,80.1667 45.1667,82.5 46.5,88.5C 46.1583,89.3382 45.4916,89.6716 44.5,89.5C 44.33,73.6633 36.33,65.9966 20.5,66.5C 20.5,62.5 20.5,58.5 20.5,54.5C 31.0313,55.1583 38.5313,50.8249 43,41.5C 43.49,40.2068 43.6567,38.8734 43.5,37.5C 44.4682,35.3926 44.8016,33.0593 44.5,30.5C 48.1667,30.5 51.8333,30.5 55.5,30.5 Z"/></g>
<g><path style="opacity:1" fill="#dadada" d="M 29.5,65.5 C 32.597,64.2124 35.597,64.7124 38.5,67C 40.3333,68.8333 42.1667,70.6667 44,72.5C 45.3014,74.3646 45.6347,76.3646 45,78.5C 42.3745,71.0342 37.2079,66.7009 29.5,65.5 Z"/></g>
<g><path style="opacity:1" fill="#c4c4c4" d="M 66.5,64.5 C 67.8734,64.3433 69.2068,64.51 70.5,65C 63.0908,67.4084 57.9241,72.2417 55,79.5C 55.5866,72.0725 59.42,67.0725 66.5,64.5 Z"/></g>
<g><path style="opacity:1" fill="#ececec" d="M 73.5,56.5 C 75.1667,56.5 76.8333,56.5 78.5,56.5C 78.8134,59.2469 78.48,61.9135 77.5,64.5C 75.5914,63.6518 73.5914,63.3184 71.5,63.5C 71.1849,60.7892 71.8516,58.4559 73.5,56.5 Z"/></g>
<g><path style="opacity:1" fill="#e5e5e5" d="M 21.5,56.5 C 27.1643,55.4992 29.4976,57.8325 28.5,63.5C 26.139,63.6741 23.8056,64.0074 21.5,64.5C 21.5,61.8333 21.5,59.1667 21.5,56.5 Z"/></g>
<g><path style="opacity:1" fill="#d2d2d2" d="M 44.5,41.5 C 45.3063,46.0886 43.6396,49.9219 39.5,53C 37.3502,54.5899 35.0168,55.2566 32.5,55C 38.4824,52.1885 42.4824,47.6885 44.5,41.5 Z"/></g>
<g><path style="opacity:1" fill="#d2d2d2" d="M 54.5,39.5 C 56.5785,47.4131 61.5785,52.5797 69.5,55C 67.0288,55.7063 64.6954,55.373 62.5,54C 57.3418,50.515 54.6751,45.6817 54.5,39.5 Z"/></g>
<g><path style="opacity:1" fill="#f5f5f5" d="M 47.5,40.5 C 49.5,40.5 51.5,40.5 53.5,40.5C 54.0295,50.696 59.3628,56.3626 69.5,57.5C 69.5,59.5 69.5,61.5 69.5,63.5C 59.5,64.1667 54.1667,69.5 53.5,79.5C 51.5,79.5 49.5,79.5 47.5,79.5C 46.3626,69.3628 40.696,64.0295 30.5,63.5C 30.5,61.5 30.5,59.5 30.5,57.5C 41.1497,56.8503 46.8164,51.1836 47.5,40.5 Z"/></g>
<g><path style="opacity:1" fill="#eeeeee" d="M 46.5,31.5 C 49.2469,31.1866 51.9135,31.52 54.5,32.5C 53.6518,34.4086 53.3184,36.4086 53.5,38.5C 51.5,38.5 49.5,38.5 47.5,38.5C 47.3259,36.139 46.9926,33.8056 46.5,31.5 Z"/></g>
<g><path style="opacity:1" fill="#b6b6b6" d="M 55.5,30.5 C 51.8333,30.5 48.1667,30.5 44.5,30.5C 44.8016,33.0593 44.4682,35.3926 43.5,37.5C 43.5,34.8333 43.5,32.1667 43.5,29.5C 47.7016,29.1832 51.7016,29.5166 55.5,30.5 Z"/></g>
<g><path style="opacity:1" fill="#ececec" d="M 53.5,85.5 C 53.5,86.5 53.5,87.5 53.5,88.5C 51.1667,88.5 48.8333,88.5 46.5,88.5C 45.1667,82.5 47.5,80.1667 53.5,81.5C 53.5,82.8333 53.5,84.1667 53.5,85.5 Z"/></g>
<g><path style="opacity:1" fill="#272727" d="M 214.5,81.5 C 214.833,81.5 215.167,81.5 215.5,81.5C 275.833,81.5 336.167,81.5 396.5,81.5C 397.167,82.1667 397.833,82.8333 398.5,83.5C 337.167,83.5 275.833,83.5 214.5,83.5C 214.5,82.8333 214.5,82.1667 214.5,81.5 Z"/></g>
<g><path style="opacity:1" fill="#fefefe" d="M 214.5,83.5 C 275.833,83.5 337.167,83.5 398.5,83.5C 398.5,84.5 398.5,85.5 398.5,86.5C 337.167,86.5 275.833,86.5 214.5,86.5C 214.5,85.5 214.5,84.5 214.5,83.5 Z"/></g>
<g><path style="opacity:1" fill="#232323" d="M 214.5,86.5 C 275.833,86.5 337.167,86.5 398.5,86.5C 398.842,87.3382 399.508,87.6716 400.5,87.5C 337.833,88.8333 275.167,88.8333 212.5,87.5C 213.492,87.6716 214.158,87.3382 214.5,86.5 Z"/></g>
<g><path style="opacity:1" fill="#393939" d="M 56.5,82.5 C 56.5,85.1667 56.5,87.8333 56.5,90.5C 52.2984,90.8168 48.2984,90.4834 44.5,89.5C 45.4916,89.6716 46.1583,89.3382 46.5,88.5C 48.8333,88.5 51.1667,88.5 53.5,88.5C 53.5,87.5 53.5,86.5 53.5,85.5C 54.29,86.6085 54.79,87.9419 55,89.5C 55.1862,86.9644 55.6862,84.631 56.5,82.5 Z"/></g>
</svg>
