<?xml version="1.0" encoding="UTF-8"?>
<!DOCTYPE svg PUBLIC "-//W3C//DTD SVG 1.1//EN" "http://www.w3.org/Graphics/SVG/1.1/DTD/svg11.dtd">
<svg xmlns="http://www.w3.org/2000/svg" version="1.1" width="332px" height="223px" style="shape-rendering:geometricPrecision; text-rendering:geometricPrecision; image-rendering:optimizeQuality; fill-rule:evenodd; clip-rule:evenodd" xmlns:xlink="http://www.w3.org/1999/xlink">
<g><path style="opacity:1" fill="#fdfdfd" d="M -0.5,-0.5 C 110.167,-0.5 220.833,-0.5 331.5,-0.5C 331.5,73.8333 331.5,148.167 331.5,222.5C 220.833,222.5 110.167,222.5 -0.5,222.5C -0.5,148.167 -0.5,73.8333 -0.5,-0.5 Z"/></g>
<g><path style="opacity:1" fill="#e9e9e9" d="M 295.5,19.5 C 295.833,18.8333 296.167,18.1667 296.5,17.5C 300.298,14.2039 303.964,10.7039 307.5,7C 309.5,6.33333 311.5,6.33333 313.5,7C 314.517,8.04946 314.684,9.21613 314,10.5C 308.319,16.3482 302.485,22.0149 296.5,27.5C 295.52,24.9135 295.187,22.2469 295.5,19.5 Z"/></g>
<g><path style="opacity:1" fill="#272727" d="M 293.5,5.5 C 300.321,4.3454 307.321,4.17874 314.5,5C 316.667,7.16667 318.833,9.33333 321,11.5C 321.497,13.8098 321.663,16.1432 321.5,18.5C 320.711,18.7828 320.044,19.2828 319.5,20C 320.82,23.6013 320.82,27.1013 319.5,30.5C 319.665,27.4816 319.498,24.4816 319,21.5C 311.632,29.0358 304.132,36.3692 296.5,43.5C 295.325,41.6162 294.658,39.4495 294.5,37C 294.506,34.9674 294.839,33.134 295.5,31.5C 294.426,27.6743 294.426,23.6743 295.5,19.5C 295.187,22.2469 295.52,24.9135 296.5,27.5C 302.485,22.0149 308.319,16.3482 314,10.5C 314.684,9.21613 314.517,8.04946 313.5,7C 311.5,6.33333 309.5,6.33333 307.5,7C 303.964,10.7039 300.298,14.2039 296.5,17.5C 294.343,14.3125 294.01,10.9792 295.5,7.5C 298.305,6.68052 301.305,6.18052 304.5,6C 300.848,5.50137 297.182,5.3347 293.5,5.5 Z"/></g>
<g><path style="opacity:1" fill="#ededed" d="M 295.5,31.5 C 302.298,25.2027 308.965,18.7027 315.5,12C 316.784,11.3162 317.951,11.4829 319,12.5C 319.667,14.5 319.667,16.5 319,18.5C 311.333,26.1667 303.667,33.8333 296,41.5C 295.502,38.1832 295.335,34.8499 295.5,31.5 Z"/></g>
<g><path style="opacity:1" fill="#f3f3f3" d="M 295.5,7.5 C 298.187,7.33591 300.854,7.50258 303.5,8C 301,10.5 298.5,13 296,15.5C 295.503,12.854 295.336,10.1873 295.5,7.5 Z"/></g>
<g><path style="opacity:1" fill="#141414" d="M 293.5,5.5 C 297.182,5.3347 300.848,5.50137 304.5,6C 301.305,6.18052 298.305,6.68052 295.5,7.5C 294.01,10.9792 294.343,14.3125 296.5,17.5C 296.167,18.1667 295.833,18.8333 295.5,19.5C 294.426,23.6743 294.426,27.6743 295.5,31.5C 294.839,33.134 294.506,34.9674 294.5,37C 294.658,39.4495 295.325,41.6162 296.5,43.5C 295.42,46.7431 295.253,50.0764 296,53.5C 304.338,46.3284 312.171,38.6618 319.5,30.5C 320.82,27.1013 320.82,23.6013 319.5,20C 320.044,19.2828 320.711,18.7828 321.5,18.5C 321.667,82.8342 321.5,147.168 321,211.5C 318.833,213.667 316.667,215.833 314.5,218C 307.508,218.5 300.508,218.666 293.5,218.5C 293.5,147.5 293.5,76.5 293.5,5.5 Z"/></g>
<g><path style="opacity:1" fill="#3d3d3d" d="M 318.5,47.5 C 318.56,46.9569 318.893,46.6236 319.5,46.5C 320.833,90.1667 320.833,133.833 319.5,177.5C 318.893,177.376 318.56,177.043 318.5,176.5C 319.833,133.5 319.833,90.5 318.5,47.5 Z"/></g>
<g><path style="opacity:1" fill="#f1f1f1" d="M 318.5,47.5 C 319.833,90.5 319.833,133.5 318.5,176.5C 316.521,173.854 314.188,171.521 311.5,169.5C 310.333,131.171 310.167,92.8377 311,54.5C 313.37,51.9614 315.87,49.6281 318.5,47.5 Z"/></g>
<g><path style="opacity:1" fill="#f7f7f7" d="M 318.5,34.5 C 319.638,37.3035 319.805,40.3035 319,43.5C 315.833,46.6667 312.667,49.8333 309.5,53C 306.446,53.8214 303.446,53.6548 300.5,52.5C 306.854,46.8123 312.854,40.8123 318.5,34.5 Z"/></g>
<g><path style="opacity:1" fill="#eeeeee" d="M 319.5,30.5 C 312.171,38.6618 304.338,46.3284 296,53.5C 295.253,50.0764 295.42,46.7431 296.5,43.5C 304.132,36.3692 311.632,29.0358 319,21.5C 319.498,24.4816 319.665,27.4816 319.5,30.5 Z"/></g>
<g><path style="opacity:1" fill="#fefefe" d="M 308.5,55.5 C 308.5,92.8333 308.5,130.167 308.5,167.5C 304.167,167.5 299.833,167.5 295.5,167.5C 295.5,130.167 295.5,92.8333 295.5,55.5C 299.833,55.5 304.167,55.5 308.5,55.5 Z"/></g>
<g><path style="opacity:1" fill="#777777" d="M 308.5,55.5 C 309.498,92.9963 309.832,130.663 309.5,168.5C 304.637,168.819 299.97,168.486 295.5,167.5C 299.833,167.5 304.167,167.5 308.5,167.5C 308.5,130.167 308.5,92.8333 308.5,55.5 Z"/></g>
<g><path style="opacity:1" fill="#1e1e1e" d="M 105.5,4.5 C 150.31,3.81137 184.143,22.478 207,60.5C 226.771,102.351 223.104,142.017 196,179.5C 164.478,214.004 125.978,225.504 80.5,214C 27.5294,192.962 3.02944,153.795 7,96.5C 18.5059,42.8228 51.3392,12.1561 105.5,4.5 Z"/></g>
<g><path style="opacity:1" fill="#eeeeee" d="M 96.5,7.5 C 150.489,3.4122 188.656,25.7455 211,74.5C 225.688,120.739 215.188,160.239 179.5,193C 143.58,219.752 105.246,223.752 64.5,205C 23.4655,181.105 4.96554,145.271 9,97.5C 18.7844,48.5501 47.9511,18.5501 96.5,7.5 Z"/></g>
<g><path style="opacity:1" fill="#1e1e1e" d="M 97.5,12.5 C 147.04,8.50819 182.873,28.5082 205,72.5C 221.457,120.52 210.29,160.687 171.5,193C 135.226,216.028 98.2259,217.361 60.5,197C 23.6633,171.466 8.49662,136.299 15,91.5C 26.4372,48.2264 53.9372,21.8931 97.5,12.5 Z"/></g>
<g><path style="opacity:1" fill="#fafafa" d="M 100.5,14.5 C 148.942,11.6234 183.442,31.9568 204,75.5C 218.153,119.391 208.32,156.891 174.5,188C 143.767,210.899 110.434,215.566 74.5,202C 27.8305,177.826 8.99719,139.659 18,87.5C 30.7228,46.2675 58.2228,21.9342 100.5,14.5 Z"/></g>
<g><path style="opacity:1" fill="#1f1f1f" d="M 104.5,42.5 C 147.045,41.9011 172.878,62.2344 182,103.5C 183.879,132.239 173.046,154.739 149.5,171C 114.7,188.57 84.2002,183.07 58,154.5C 36.2607,120.696 39.0941,89.1957 66.5,60C 77.6955,50.7772 90.3622,44.9439 104.5,42.5 Z"/></g>
<g><path style="opacity:1" fill="#f3f3f3" d="M 104.5,44.5 C 141.396,43.2675 165.896,59.9342 178,94.5C 184.244,125.778 174.411,150.611 148.5,169C 115.002,186.112 85.5016,180.945 60,153.5C 39.1272,122.259 40.9606,92.4257 65.5,64C 76.6939,53.7364 89.6939,47.2364 104.5,44.5 Z"/></g>
<g><path style="opacity:1" fill="#1d1d1d" d="M 100.5,54.5 C 134.364,50.8357 157.197,64.8357 169,96.5C 174.99,130.462 162.157,153.962 130.5,167C 95.7075,174.689 71.5408,162.189 58,129.5C 50.4559,91.8991 64.6226,66.8991 100.5,54.5 Z"/></g>
<g><path style="opacity:1" fill="#fdfdfd" d="M 102.5,56.5 C 136.459,53.9724 158.292,68.9724 168,101.5C 170.877,133.944 157.043,155.444 126.5,166C 92.7034,171.185 70.2034,157.685 59,125.5C 53.8294,89.8794 68.3294,66.8794 102.5,56.5 Z"/></g>
<g><path style="opacity:1" fill="#3e3e3e" d="M 113.5,19.5 C 114.491,26.3134 114.825,33.3134 114.5,40.5C 112.901,40.7678 111.568,40.4345 110.5,39.5C 111.5,39.5 112.5,39.5 113.5,39.5C 113.5,32.8333 113.5,26.1667 113.5,19.5 Z"/></g>
<g><path style="opacity:1" fill="#161616" d="M 115.5,18.5 C 116.978,18.238 118.311,18.5713 119.5,19.5C 121.049,24.319 122.882,28.9857 125,33.5C 126.81,28.5713 128.31,23.5713 129.5,18.5C 130.833,18.5 132.167,18.5 133.5,18.5C 131.635,25.2386 129.468,31.9053 127,38.5C 125.333,41.1667 123.667,41.1667 122,38.5C 119.726,31.8466 117.56,25.1799 115.5,18.5 Z"/></g>
<g><path style="opacity:1" fill="#080808" d="M 113.5,19.5 C 113.5,26.1667 113.5,32.8333 113.5,39.5C 112.5,39.5 111.5,39.5 110.5,39.5C 110.5,36.5 110.5,33.5 110.5,30.5C 107.167,30.5 103.833,30.5 100.5,30.5C 100.5,33.8333 100.5,37.1667 100.5,40.5C 99.5,40.5 98.5,40.5 97.5,40.5C 97.5,33.1667 97.5,25.8333 97.5,18.5C 98.5,18.5 99.5,18.5 100.5,18.5C 100.5,21.5 100.5,24.5 100.5,27.5C 103.833,27.5 107.167,27.5 110.5,27.5C 110.5,24.5 110.5,21.5 110.5,18.5C 111.791,18.2627 112.791,18.596 113.5,19.5 Z"/></g>
<g><path style="opacity:1" fill="#f1f1f1" d="M 295.5,170.5 C 298.187,170.336 300.854,170.503 303.5,171C 301,173.5 298.5,176 296,178.5C 295.503,175.854 295.336,173.187 295.5,170.5 Z"/></g>
<g><path style="opacity:1" fill="#f0f0f0" d="M 306.5,170.5 C 310.509,170.014 312.342,171.68 312,175.5C 306.667,180.833 301.333,186.167 296,191.5C 295.333,188.167 295.333,184.833 296,181.5C 299.704,177.964 303.204,174.298 306.5,170.5 Z"/></g>
<g><path style="opacity:1" fill="#ececec" d="M 313.5,176.5 C 316.859,176.698 318.692,178.365 319,181.5C 311.652,189.015 304.152,196.348 296.5,203.5C 295.345,200.554 295.179,197.554 296,194.5C 302.036,188.631 307.87,182.631 313.5,176.5 Z"/></g>
<g><path style="opacity:1" fill="#eeeeee" d="M 318.5,184.5 C 319.641,187.64 319.808,190.973 319,194.5C 311.652,202.015 304.152,209.348 296.5,216.5C 295.345,213.554 295.179,210.554 296,207.5C 303.702,199.965 311.202,192.298 318.5,184.5 Z"/></g>
<g><path style="opacity:1" fill="#f2f2f2" d="M 318.5,197.5 C 319.641,200.64 319.808,203.973 319,207.5C 316.167,210.333 313.333,213.167 310.5,216C 307.167,216.667 303.833,216.667 300.5,216C 306.703,209.965 312.703,203.798 318.5,197.5 Z"/></g>
</svg>
