<?xml version="1.0" encoding="UTF-8"?>
<!DOCTYPE svg PUBLIC "-//W3C//DTD SVG 1.1//EN" "http://www.w3.org/Graphics/SVG/1.1/DTD/svg11.dtd">
<svg xmlns="http://www.w3.org/2000/svg" version="1.1" width="361px" height="191px" style="shape-rendering:geometricPrecision; text-rendering:geometricPrecision; image-rendering:optimizeQuality; fill-rule:evenodd; clip-rule:evenodd" xmlns:xlink="http://www.w3.org/1999/xlink">
<g><path style="opacity:1" fill="#fdfdfd" d="M -0.5,-0.5 C 119.833,-0.5 240.167,-0.5 360.5,-0.5C 360.5,63.1667 360.5,126.833 360.5,190.5C 240.167,190.5 119.833,190.5 -0.5,190.5C -0.5,126.833 -0.5,63.1667 -0.5,-0.5 Z"/></g>
<g><path style="opacity:1" fill="#141414" d="M 89.5,171.5 C 89.3284,170.508 89.6618,169.842 90.5,169.5C 91.665,119.335 91.8317,69.0017 91,18.5C 89.9614,19.2438 89.4614,20.2438 89.5,21.5C 84.546,33.0139 84.2127,44.6806 88.5,56.5C 69.0212,58.1629 49.3546,59.1629 29.5,59.5C 25.965,75.5767 24.6317,91.9101 25.5,108.5C 24.5022,83.0054 24.1689,57.3388 24.5,31.5C 24.8954,28.3138 25.8954,25.3138 27.5,22.5C 47.5,21.8333 67.5,21.1667 87.5,20.5C 88.6433,15.8933 90.6433,11.7266 93.5,8C 97.987,6.62179 101.487,7.78846 104,11.5C 104.667,66.5 104.667,121.5 104,176.5C 100.171,182.703 95.8376,183.036 91,177.5C 90.4954,175.482 89.9954,173.482 89.5,171.5 Z"/></g>
<g><path style="opacity:1" fill="#ebebeb" d="M 94.5,9.5 C 96.5273,9.33788 98.5273,9.50454 100.5,10C 101.126,10.7504 101.626,11.5838 102,12.5C 102.667,66.8333 102.667,121.167 102,175.5C 99.4719,179.085 96.4719,179.418 93,176.5C 92.3333,121.5 92.3333,66.5 93,11.5C 93.7172,10.9558 94.2172,10.2891 94.5,9.5 Z"/></g>
<g><path style="opacity:1" fill="#7f7f7f" d="M 29.5,23.5 C 48.3375,22.1723 67.3375,22.1723 86.5,23.5C 86.3764,24.1067 86.0431,24.44 85.5,24.5C 67.0075,23.5031 48.3408,23.1698 29.5,23.5 Z"/></g>
<g><path style="opacity:1" fill="#f6f6f6" d="M 89.5,21.5 C 90.8333,70.1667 90.8333,118.833 89.5,167.5C 84.2143,154.95 84.2143,142.45 89.5,130C 86.193,117.903 84.8597,105.57 85.5,93C 84.8025,81.0828 86.1358,69.4161 89.5,58C 89.4301,57.2352 89.0967,56.7352 88.5,56.5C 84.2127,44.6806 84.546,33.0139 89.5,21.5 Z"/></g>
<g><path style="opacity:1" fill="#fcfcfc" d="M 29.5,23.5 C 48.3408,23.1698 67.0075,23.5031 85.5,24.5C 82.8654,34.8204 82.8654,45.1538 85.5,55.5C 67.0075,56.4969 48.3408,56.8302 29.5,56.5C 24.2227,45.4378 24.2227,34.4378 29.5,23.5 Z"/></g>
<g><path style="opacity:1" fill="#1e1e1e" d="M 252.5,6.5 C 298.477,2.55782 330.644,21.5578 349,63.5C 360.83,107.295 348.33,142.128 311.5,168C 270.289,188.543 233.455,182.709 201,150.5C 173.94,114.752 172.606,78.0858 197,40.5C 211.418,22.38 229.918,11.0467 252.5,6.5 Z"/></g>
<g><path style="opacity:1" fill="#f7f7f7" d="M 252.5,8.5 C 295.986,4.81748 327.153,22.4842 346,61.5C 358.734,101.749 348.9,135.249 316.5,162C 291.982,178.14 265.649,181.807 237.5,173C 202.481,157.952 183.815,131.286 181.5,93C 183.722,56.2006 201.389,29.8673 234.5,14C 240.531,11.8324 246.531,9.99902 252.5,8.5 Z"/></g>
<g><path style="opacity:1" fill="#1a1a1a" d="M 263.5,21.5 C 265.989,21.2978 268.323,21.7978 270.5,23C 289.704,34.3664 309.037,45.5331 328.5,56.5C 329.833,81.5 329.833,106.5 328.5,131.5C 307.833,143.5 287.167,155.5 266.5,167.5C 245.833,155.5 225.167,143.5 204.5,131.5C 203.167,106.5 203.167,81.5 204.5,56.5C 224.467,45.1691 244.134,33.5024 263.5,21.5 Z"/></g>
<g><path style="opacity:1" fill="#fafafa" d="M 257.5,32.5 C 284.509,30.7547 305.342,41.088 320,63.5C 333.572,92.5703 329.072,118.404 306.5,141C 280.37,159.92 254.037,160.253 227.5,142C 206.036,121.641 200.202,97.4746 210,69.5C 219.866,49.4637 235.699,37.1304 257.5,32.5 Z"/></g>
<g><path style="opacity:1" fill="#f1f1f1" d="M 265.5,23.5 C 270.59,25.2115 275.256,27.7115 279.5,31C 270.825,30.3715 262.158,30.3715 253.5,31C 257.407,28.2411 261.407,25.7411 265.5,23.5 Z"/></g>
<g><path style="opacity:1" fill="#8a8a8a" d="M 85.5,55.5 C 86.0431,55.56 86.3764,55.8933 86.5,56.5C 67.3375,57.8277 48.3375,57.8277 29.5,56.5C 48.3408,56.8302 67.0075,56.4969 85.5,55.5 Z"/></g>
<g><path style="opacity:1" fill="#ebebeb" d="M 289.5,122.5 C 288.432,121.566 287.099,121.232 285.5,121.5C 299.581,109.264 302.748,94.5976 295,77.5C 283.561,61.543 268.727,57.3763 250.5,65C 239.092,71.9212 233.425,82.0878 233.5,95.5C 231.911,92.9084 230.245,92.9084 228.5,95.5C 227.893,95.3764 227.56,95.0431 227.5,94.5C 233.418,64.081 251.418,52.581 281.5,60C 302.074,71.3759 308.24,88.2092 300,110.5C 298.248,113.672 296.248,116.672 294,119.5C 292.871,121.141 291.371,122.141 289.5,122.5 Z"/></g>
<g><path style="opacity:1" fill="#f0f0f0" d="M 206.5,73.5 C 205.513,68.6946 205.179,63.6946 205.5,58.5C 210.019,55.9855 214.519,53.3189 219,50.5C 219.167,50.8333 219.333,51.1667 219.5,51.5C 213.486,57.8457 209.153,65.179 206.5,73.5 Z"/></g>
<g><path style="opacity:1" fill="#cdcdcd" d="M 25.5,54.5 C 26.6651,55.4961 27.3318,56.8295 27.5,58.5C 26.9361,60.8193 26.4361,63.1526 26,65.5C 25.5014,61.8484 25.3347,58.1817 25.5,54.5 Z"/></g>
<g><path style="opacity:1" fill="#818181" d="M 90.5,169.5 C 90.1667,168.833 89.8333,168.167 89.5,167.5C 90.8333,118.833 90.8333,70.1667 89.5,21.5C 89.4614,20.2438 89.9614,19.2438 91,18.5C 91.8317,69.0017 91.665,119.335 90.5,169.5 Z"/></g>
<g><path style="opacity:1" fill="#828282" d="M 205.5,58.5 C 205.179,63.6946 205.513,68.6946 206.5,73.5C 206.539,74.7562 206.039,75.7562 205,76.5C 204.181,70.3188 204.347,64.3188 205.5,58.5 Z"/></g>
<g><path style="opacity:1" fill="#f1f1f1" d="M 327.5,58.5 C 327.821,64.0262 327.488,69.3595 326.5,74.5C 323.922,65.3516 319.255,57.3516 312.5,50.5C 317.293,52.7406 322.293,55.4073 327.5,58.5 Z"/></g>
<g><path style="opacity:1" fill="#787878" d="M 327.5,58.5 C 328.653,64.6529 328.82,70.9863 328,77.5C 327.487,76.4734 326.987,75.4734 326.5,74.5C 327.488,69.3595 327.821,64.0262 327.5,58.5 Z"/></g>
<g><path style="opacity:1" fill="#1e1e1e" d="M 289.5,122.5 C 291.371,122.141 292.871,121.141 294,119.5C 296.248,116.672 298.248,113.672 300,110.5C 308.24,88.2092 302.074,71.3759 281.5,60C 251.418,52.581 233.418,64.081 227.5,94.5C 228.104,73.8285 238.437,60.6618 258.5,55C 282.104,53.0394 297.604,63.2061 305,85.5C 307.806,108.747 298.306,124.247 276.5,132C 272.828,133.285 269.161,133.452 265.5,132.5C 271.242,131.309 276.909,129.809 282.5,128C 285.266,126.629 287.599,124.796 289.5,122.5 Z"/></g>
<g><path style="opacity:1" fill="#1e1e1e" d="M 285.5,121.5 C 269.097,131.043 254.263,129.043 241,115.5C 236.625,109.541 234.125,102.874 233.5,95.5C 233.425,82.0878 239.092,71.9212 250.5,65C 268.727,57.3763 283.561,61.543 295,77.5C 302.748,94.5976 299.581,109.264 285.5,121.5 Z"/></g>
<g><path style="opacity:1" fill="#fbfbfb" d="M 258.5,63.5 C 277.634,61.48 290.467,69.48 297,87.5C 298.708,104.921 291.541,117.088 275.5,124C 257.085,127.574 244.252,120.741 237,103.5C 233.203,84.1605 240.37,70.8272 258.5,63.5 Z"/></g>
<g><path style="opacity:1" fill="#222222" d="M 24.5,31.5 C 24.1689,57.3388 24.5022,83.0054 25.5,108.5C 26.8985,113.971 27.8985,119.638 28.5,125.5C 28.5394,126.583 28.8728,127.583 29.5,128.5C 48.4883,129.5 67.4883,129.833 86.5,129.5C 86.7845,127.585 86.4511,125.919 85.5,124.5C 81.2972,102.753 81.6305,81.0861 86.5,59.5C 67.5,59.5 48.5,59.5 29.5,59.5C 49.3546,59.1629 69.0212,58.1629 88.5,56.5C 89.0967,56.7352 89.4301,57.2352 89.5,58C 86.1358,69.4161 84.8025,81.0828 85.5,93C 84.8597,105.57 86.193,117.903 89.5,130C 84.2143,142.45 84.2143,154.95 89.5,167.5C 89.8333,168.167 90.1667,168.833 90.5,169.5C 89.6618,169.842 89.3284,170.508 89.5,171.5C 88.5655,170.432 88.2322,169.099 88.5,167.5C 68.4972,167.667 48.4972,167.5 28.5,167C 25.816,162.948 24.316,158.448 24,153.5C 23.1687,112.665 23.3354,71.9979 24.5,31.5 Z"/></g>
<g><path style="opacity:1" fill="#fdfdfd" d="M 29.5,59.5 C 48.5,59.5 67.5,59.5 86.5,59.5C 81.6305,81.0861 81.2972,102.753 85.5,124.5C 85.5,125.833 85.5,127.167 85.5,128.5C 67.1546,128.833 48.8212,128.5 30.5,127.5C 30.1445,126.478 29.4778,125.811 28.5,125.5C 27.8985,119.638 26.8985,113.971 25.5,108.5C 24.6317,91.9101 25.965,75.5767 29.5,59.5 Z"/></g>
<g><path style="opacity:1" fill="#838383" d="M 206.5,114.5 C 205.513,119.305 205.179,124.305 205.5,129.5C 204.347,123.681 204.181,117.681 205,111.5C 206.039,112.244 206.539,113.244 206.5,114.5 Z"/></g>
<g><path style="opacity:1" fill="#efefef" d="M 206.5,114.5 C 209.315,122.83 213.648,130.33 219.5,137C 214.53,135.228 209.864,132.728 205.5,129.5C 205.179,124.305 205.513,119.305 206.5,114.5 Z"/></g>
<g><path style="opacity:1" fill="#7b7b7b" d="M 327.5,129.5 C 327.821,124.305 327.487,119.305 326.5,114.5C 326.461,113.244 326.961,112.244 328,111.5C 328.819,117.681 328.653,123.681 327.5,129.5 Z"/></g>
<g><path style="opacity:1" fill="#eaeaea" d="M 326.5,114.5 C 327.487,119.305 327.821,124.305 327.5,129.5C 323.192,132.818 318.526,135.318 313.5,137C 319.26,130.312 323.593,122.812 326.5,114.5 Z"/></g>
<g><path style="opacity:1" fill="#d2d2d2" d="M 25.5,123.5 C 27.6168,126.675 27.7834,130.008 26,133.5C 25.5017,130.183 25.335,126.85 25.5,123.5 Z"/></g>
<g><path style="opacity:1" fill="#afafaf" d="M 85.5,124.5 C 86.4511,125.919 86.7845,127.585 86.5,129.5C 67.4883,129.833 48.4883,129.5 29.5,128.5C 28.8728,127.583 28.5394,126.583 28.5,125.5C 29.4778,125.811 30.1445,126.478 30.5,127.5C 48.8212,128.5 67.1546,128.833 85.5,128.5C 85.5,127.167 85.5,125.833 85.5,124.5 Z"/></g>
<g><path style="opacity:1" fill="#3d3d3d" d="M 29.5,131.5 C 48.326,130.503 67.326,130.17 86.5,130.5C 86.7373,131.791 86.404,132.791 85.5,133.5C 67.1966,131.513 48.5299,130.846 29.5,131.5 Z"/></g>
<g><path style="opacity:1" fill="#fcfcfc" d="M 29.5,131.5 C 48.5299,130.846 67.1966,131.513 85.5,133.5C 82.9331,143.447 82.9331,153.447 85.5,163.5C 67.0075,164.497 48.3408,164.83 29.5,164.5C 24.218,153.527 24.218,142.527 29.5,131.5 Z"/></g>
<g><path style="opacity:1" fill="#ececec" d="M 253.5,157.5 C 262.308,157.574 271.308,157.407 280.5,157C 275.936,159.74 271.269,162.24 266.5,164.5C 262.017,162.426 257.684,160.092 253.5,157.5 Z"/></g>
<g><path style="opacity:1" fill="#c6c6c6" d="M 85.5,163.5 C 86.0431,163.56 86.3764,163.893 86.5,164.5C 67.3375,165.828 48.3375,165.828 29.5,164.5C 48.3408,164.83 67.0075,164.497 85.5,163.5 Z"/></g>
</svg>
