<?xml version="1.0" encoding="UTF-8"?>
<!DOCTYPE svg PUBLIC "-//W3C//DTD SVG 1.1//EN" "http://www.w3.org/Graphics/SVG/1.1/DTD/svg11.dtd">
<svg xmlns="http://www.w3.org/2000/svg" version="1.1" width="437px" height="119px" style="shape-rendering:geometricPrecision; text-rendering:geometricPrecision; image-rendering:optimizeQuality; fill-rule:evenodd; clip-rule:evenodd" xmlns:xlink="http://www.w3.org/1999/xlink">
<g><path style="opacity:1" fill="#fdfdfd" d="M -0.5,-0.5 C 145.167,-0.5 290.833,-0.5 436.5,-0.5C 436.5,39.1667 436.5,78.8333 436.5,118.5C 290.833,118.5 145.167,118.5 -0.5,118.5C -0.5,78.8333 -0.5,39.1667 -0.5,-0.5 Z"/></g>
<g><path style="opacity:1" fill="#fcfcfc" d="M 427.5,50.5 C 396.815,51.159 366.482,50.4923 336.5,48.5C 342.617,26.1019 357.283,14.1019 380.5,12.5C 405.733,13.4046 421.399,26.0712 427.5,50.5 Z"/></g>
<g><path style="opacity:1" fill="#f9f9f9" d="M 13.5,14.5 C 20.1667,20.5 26.5,26.8333 32.5,33.5C 32.819,51.2434 32.4857,68.9101 31.5,86.5C 25.5353,91.9638 19.7019,97.6304 14,103.5C 13.5001,91.1712 13.3335,78.8378 13.5,66.5C 16.1667,66.5 18.8333,66.5 21.5,66.5C 21.5,61.5 21.5,56.5 21.5,51.5C 18.8333,51.5 16.1667,51.5 13.5,51.5C 13.5,39.1667 13.5,26.8333 13.5,14.5 Z"/></g>
<g><path style="opacity:1" fill="#232323" d="M 429.5,51.5 C 428.833,51.5 428.167,51.5 427.5,51.5C 427.5,51.1667 427.5,50.8333 427.5,50.5C 421.399,26.0712 405.733,13.4046 380.5,12.5C 357.283,14.1019 342.617,26.1019 336.5,48.5C 336.167,48.5 335.833,48.5 335.5,48.5C 335.5,47.8333 335.167,47.5 334.5,47.5C 341.689,24.3031 357.356,11.9697 381.5,10.5C 407.854,12.0143 423.854,25.681 429.5,51.5 Z"/></g>
<g><path style="opacity:1" fill="#393939" d="M 10.5,10.5 C 11.552,10.3505 12.552,10.5172 13.5,11C 20.1667,17.6667 26.8333,24.3333 33.5,31C 59.3366,31.1678 85.0033,31.6678 110.5,32.5C 84.9945,32.1689 59.6612,32.5023 34.5,33.5C 34.5,50.5 34.5,67.5 34.5,84.5C 33.8333,67.5 33.1667,50.5 32.5,33.5C 26.5,26.8333 20.1667,20.5 13.5,14.5C 13.1667,13.5 12.5,12.8333 11.5,12.5C 10.5,12.5 9.5,12.5 8.5,12.5C 9.16667,11.8333 9.83333,11.1667 10.5,10.5 Z"/></g>
<g><path style="opacity:1" fill="#fcfcfc" d="M 34.5,33.5 C 59.5022,33.3334 84.5022,33.5 109.5,34C 112.006,48.209 114.006,62.5424 115.5,77C 114.454,79.8858 112.787,82.3858 110.5,84.5C 85.1667,84.5 59.8333,84.5 34.5,84.5C 34.5,67.5 34.5,50.5 34.5,33.5 Z"/></g>
<g><path style="opacity:1" fill="#1b1b1b" d="M 34.5,33.5 C 59.6612,32.5023 84.9945,32.1689 110.5,32.5C 112.63,34.1271 114.63,35.9604 116.5,38C 120.375,39.5204 124.375,39.8538 128.5,39C 129.573,36.3434 131.24,34.1768 133.5,32.5C 135.327,34.5 136.994,36.6667 138.5,39C 143.202,39.8283 147.869,39.6616 152.5,38.5C 153.443,35.8908 155.11,33.8908 157.5,32.5C 159.276,34.5378 160.943,36.7045 162.5,39C 166.833,39.6667 171.167,39.6667 175.5,39C 177.057,36.7045 178.724,34.5378 180.5,32.5C 182.633,34.0905 184.299,36.0905 185.5,38.5C 190.131,39.6616 194.798,39.8283 199.5,39C 200.573,36.3434 202.24,34.1768 204.5,32.5C 206.76,34.1768 208.427,36.3434 209.5,39C 214.202,39.8283 218.869,39.6616 223.5,38.5C 224.556,36.3542 226.056,34.6875 228,33.5C 230.164,35.2895 231.998,37.4562 233.5,40C 237.647,41.245 241.814,42.4117 246,43.5C 248.38,42.7425 250.38,41.4092 252,39.5C 253.814,42.2881 255.981,44.7881 258.5,47C 262.506,48.1679 266.506,49.3345 270.5,50.5C 271.54,48.6251 273.04,47.2918 275,46.5C 277.821,47.9874 279.987,50.1541 281.5,53C 287.938,54.8559 294.271,56.8559 300.5,59C 297.481,60.1794 294.481,61.5128 291.5,63C 290.354,65.1438 288.854,66.9772 287,68.5C 285.037,67.3746 283.204,66.0413 281.5,64.5C 277.647,66.1056 273.647,67.2722 269.5,68C 267.85,70.8131 265.85,73.3131 263.5,75.5C 261.876,73.5589 259.876,72.2256 257.5,71.5C 253.314,72.0464 249.314,73.213 245.5,75C 243.998,77.5438 242.164,79.7105 240,81.5C 238.286,80.9238 237.119,79.7571 236.5,78C 231.47,77.586 226.47,77.9193 221.5,79C 219.994,81.3333 218.327,83.5 216.5,85.5C 214.24,83.8232 212.573,81.6566 211.5,79C 206.798,78.1717 202.131,78.3384 197.5,79.5C 196.299,81.9095 194.633,83.9095 192.5,85.5C 190.673,83.5 189.006,81.3333 187.5,79C 182.798,78.1717 178.131,78.3384 173.5,79.5C 172.552,81.9438 171.052,83.9438 169,85.5C 166.836,83.7105 165.002,81.5438 163.5,79C 159.167,78.3333 154.833,78.3333 150.5,79C 148.994,81.3333 147.327,83.5 145.5,85.5C 143.367,83.9095 141.701,81.9095 140.5,79.5C 135.833,78.1667 131.167,78.1667 126.5,79.5C 125.299,81.9095 123.633,83.9095 121.5,85.5C 120.01,83.8744 118.51,82.2077 117,80.5C 115.223,82.7899 113.056,84.4566 110.5,85.5C 110.5,85.1667 110.5,84.8333 110.5,84.5C 112.787,82.3858 114.454,79.8858 115.5,77C 114.006,62.5424 112.006,48.209 109.5,34C 84.5022,33.5 59.5022,33.3334 34.5,33.5 Z"/></g>
<g><path style="opacity:1" fill="#e4e4e4" d="M 132.5,35.5 C 133.497,35.4701 134.164,35.9701 134.5,37C 137.36,49.3888 139.194,61.8888 140,74.5C 137.391,64.5854 135.058,54.5854 133,44.5C 130.144,41.5311 129.978,38.5311 132.5,35.5 Z"/></g>
<g><path style="opacity:1" fill="#f5f5f5" d="M 113.5,37.5 C 115.01,38.8361 116.677,40.0027 118.5,41C 122.421,41.203 126.255,41.703 130,42.5C 132.833,53.4955 135.666,64.4955 138.5,75.5C 133.95,76.8001 129.45,76.8001 125,75.5C 122.4,62.4247 118.566,49.758 113.5,37.5 Z"/></g>
<g><path style="opacity:1" fill="#f6f6f6" d="M 140.5,41.5 C 144.884,41.1744 149.217,41.5078 153.5,42.5C 156.344,53.5439 159.344,64.5439 162.5,75.5C 157.88,76.4933 153.214,76.8266 148.5,76.5C 145.99,64.7927 143.323,53.126 140.5,41.5 Z"/></g>
<g><path style="opacity:1" fill="#f6f6f6" d="M 163.5,42.5 C 167.9,41.1771 172.4,41.1771 177,42.5C 180.771,53.584 183.604,64.9173 185.5,76.5C 181.116,76.8256 176.783,76.4922 172.5,75.5C 169.66,64.3338 166.66,53.3338 163.5,42.5 Z"/></g>
<g><path style="opacity:1" fill="#f6f6f6" d="M 187.5,41.5 C 192.099,41.2 196.599,41.5333 201,42.5C 204.15,53.7679 206.984,65.1012 209.5,76.5C 204.901,76.8 200.401,76.4667 196,75.5C 192.971,64.1792 190.138,52.8459 187.5,41.5 Z"/></g>
<g><path style="opacity:1" fill="#f7f7f7" d="M 211.5,41.5 C 216.099,41.2 220.599,41.5333 225,42.5C 228.548,53.2503 231.714,64.0837 234.5,75C 229.58,76.2503 224.58,76.7503 219.5,76.5C 217.085,64.7542 214.418,53.0875 211.5,41.5 Z"/></g>
<g><path style="opacity:1" fill="#e4e4e4" d="M 179.5,35.5 C 181.614,36.3602 182.78,38.0268 183,40.5C 184.889,52.5159 186.556,64.5159 188,76.5C 185.299,66.9422 182.966,57.2755 181,47.5C 180.311,44.5919 179.145,41.9252 177.5,39.5C 178.63,38.3777 179.297,37.0443 179.5,35.5 Z"/></g>
<g><path style="opacity:1" fill="#f6f6f6" d="M 235.5,43.5 C 240.59,43.9804 245.424,45.3137 250,47.5C 252.458,54.887 255.292,62.0537 258.5,69C 253.261,71.1532 247.928,71.9865 242.5,71.5C 240.167,62.1663 237.833,52.833 235.5,43.5 Z"/></g>
<g><path style="opacity:1" fill="#060606" d="M 334.5,47.5 C 335.167,47.5 335.5,47.8333 335.5,48.5C 335.5,49.5 335.5,50.5 335.5,51.5C 366.167,51.5 396.833,51.5 427.5,51.5C 428.167,51.5 428.833,51.5 429.5,51.5C 427.365,53.369 424.698,54.0356 421.5,53.5C 421.5,57.1667 421.5,60.8333 421.5,64.5C 423.833,64.5 426.167,64.5 428.5,64.5C 428.167,65.1667 427.833,65.8333 427.5,66.5C 396.833,66.5 366.167,66.5 335.5,66.5C 335.5,67.5 335.5,68.5 335.5,69.5C 335.5,70.1667 335.167,70.5 334.5,70.5C 334.167,68.5 333.833,66.5 333.5,64.5C 336.5,64.5 339.5,64.5 342.5,64.5C 342.5,60.8333 342.5,57.1667 342.5,53.5C 339.5,53.5 336.5,53.5 333.5,53.5C 333.325,51.3792 333.659,49.3792 334.5,47.5 Z"/></g>
<g><path style="opacity:1" fill="#d2d2d2" d="M 227.5,35.5 C 228.558,36.6002 229.392,37.9336 230,39.5C 232.102,49.1043 233.435,58.7709 234,68.5C 232.017,61.2355 230.35,53.9021 229,46.5C 227.833,44.1667 226.667,41.8333 225.5,39.5C 226.18,38.1401 226.847,36.8068 227.5,35.5 Z"/></g>
<g><path style="opacity:1" fill="#121212" d="M 10.5,10.5 C 9.83333,11.1667 9.16667,11.8333 8.5,12.5C 8.5,25.5 8.5,38.5 8.5,51.5C 9.5,51.5 10.5,51.5 11.5,51.5C 11.5,38.5 11.5,25.5 11.5,12.5C 12.5,12.8333 13.1667,13.5 13.5,14.5C 13.5,26.8333 13.5,39.1667 13.5,51.5C 16.1667,51.5 18.8333,51.5 21.5,51.5C 21.5,56.5 21.5,61.5 21.5,66.5C 18.8333,66.5 16.1667,66.5 13.5,66.5C 12.8338,72.6576 12.5004,78.991 12.5,85.5C 12.5393,92.4046 13.206,99.0712 14.5,105.5C 14.3893,106.117 14.056,106.617 13.5,107C 11.1902,107.497 8.85684,107.663 6.5,107.5C 6.5,93.1667 6.5,78.8333 6.5,64.5C 11.1667,64.5 15.8333,64.5 20.5,64.5C 20.815,60.6286 20.4816,56.9619 19.5,53.5C 15.1667,53.5 10.8333,53.5 6.5,53.5C 6.5,39.1667 6.5,24.8333 6.5,10.5C 7.83333,10.5 9.16667,10.5 10.5,10.5 Z"/></g>
<g><path style="opacity:1" fill="#f2f2f2" d="M 8.5,12.5 C 9.5,12.5 10.5,12.5 11.5,12.5C 11.5,25.5 11.5,38.5 11.5,51.5C 10.5,51.5 9.5,51.5 8.5,51.5C 8.5,38.5 8.5,25.5 8.5,12.5 Z"/></g>
<g><path style="opacity:1" fill="#e0e0e0" d="M 156.5,34.5 C 158.531,37.4216 159.698,40.7549 160,44.5C 161.476,54.8647 162.81,65.198 164,75.5C 161.152,63.4118 157.986,51.4118 154.5,39.5C 155.187,37.8228 155.854,36.1561 156.5,34.5 Z"/></g>
<g><path style="opacity:1" fill="#f4f4f4" d="M 259.5,49.5 C 264.673,50.4343 269.673,51.9343 274.5,54C 276.108,57.272 278.108,60.272 280.5,63C 275.577,65.0497 270.577,65.883 265.5,65.5C 262.903,60.3755 260.903,55.0422 259.5,49.5 Z"/></g>
<g><path style="opacity:1" fill="#d3d3d3" d="M 335.5,48.5 C 335.833,48.5 336.167,48.5 336.5,48.5C 366.482,50.4923 396.815,51.159 427.5,50.5C 427.5,50.8333 427.5,51.1667 427.5,51.5C 396.833,51.5 366.167,51.5 335.5,51.5C 335.5,50.5 335.5,49.5 335.5,48.5 Z"/></g>
<g><path style="opacity:1" fill="#e0e0e0" d="M 203.5,35.5 C 204.497,35.4701 205.164,35.9701 205.5,37C 208.274,50.1441 210.441,63.3107 212,76.5C 208.535,66.0918 205.869,55.4252 204,44.5C 201.144,41.5311 200.978,38.5311 203.5,35.5 Z"/></g>
<g><path style="opacity:1" fill="#bebebe" d="M 250.5,41.5 C 251.376,41.3691 252.043,41.7025 252.5,42.5C 255.095,48.9796 256.595,55.6463 257,62.5C 254.671,55.5094 252.505,48.5094 250.5,41.5 Z"/></g>
<g><path style="opacity:1" fill="#d4d4d4" d="M 274.5,48.5 C 277.911,51.321 279.744,54.9877 280,59.5C 278.487,56.4756 276.487,53.8089 274,51.5C 273.53,50.4232 273.697,49.4232 274.5,48.5 Z"/></g>
<g><path style="opacity:1" fill="#e4e4e4" d="M 137.5,42.5 C 138.117,42.6107 138.617,42.944 139,43.5C 141.382,52.412 143.382,61.412 145,70.5C 145.689,73.4081 146.855,76.0748 148.5,78.5C 147.333,80.1667 146.167,81.8333 145,83.5C 142.082,69.9096 139.582,56.2429 137.5,42.5 Z"/></g>
<g><path style="opacity:1" fill="#fefefe" d="M 419.5,54.5 C 419.5,57.5 419.5,60.5 419.5,63.5C 394.5,63.5 369.5,63.5 344.5,63.5C 344.5,60.5 344.5,57.5 344.5,54.5C 369.5,54.5 394.5,54.5 419.5,54.5 Z"/></g>
<g><path style="opacity:1" fill="#dddddd" d="M 232.5,43.5 C 235.742,53.9457 239.075,64.4457 242.5,75C 241.576,79.7128 240.076,80.2128 238,76.5C 235.971,65.522 234.137,54.522 232.5,43.5 Z"/></g>
<g><path style="opacity:1" fill="#e6e6e6" d="M 283.5,56.5 C 283.56,55.9569 283.893,55.6236 284.5,55.5C 288.167,56.6667 291.833,57.8333 295.5,59C 290.723,61.5452 286.723,60.7118 283.5,56.5 Z"/></g>
<g><path style="opacity:1" fill="#efefef" d="M 282.5,58.5 C 284.175,60.002 286.008,61.3353 288,62.5C 288.388,64.0758 287.888,65.4091 286.5,66.5C 284.628,64.0901 283.295,61.4234 282.5,58.5 Z"/></g>
<g><path style="opacity:1" fill="#b8b8b8" d="M 19.5,53.5 C 20.4816,56.9619 20.815,60.6286 20.5,64.5C 15.8333,64.5 11.1667,64.5 6.5,64.5C 10.6344,63.5151 14.9677,63.1818 19.5,63.5C 19.5,60.1667 19.5,56.8333 19.5,53.5 Z"/></g>
<g><path style="opacity:1" fill="#d1d1d1" d="M 419.5,54.5 C 394.5,54.5 369.5,54.5 344.5,54.5C 344.5,57.5 344.5,60.5 344.5,63.5C 369.5,63.5 394.5,63.5 419.5,63.5C 394.339,64.4977 369.005,64.8311 343.5,64.5C 343.5,60.8333 343.5,57.1667 343.5,53.5C 369.005,53.1689 394.339,53.5023 419.5,54.5 Z"/></g>
<g><path style="opacity:1" fill="#e2e2e2" d="M 185.5,43.5 C 188.818,55.0394 192.152,66.706 195.5,78.5C 194.667,80.1667 193.833,81.8333 193,83.5C 191.253,80.7896 190.253,77.7896 190,74.5C 188.432,64.1653 186.932,53.832 185.5,43.5 Z"/></g>
<g><path style="opacity:1" fill="#dedede" d="M 256.5,49.5 C 259.268,54.9406 261.768,60.6073 264,66.5C 266.912,68.5218 266.745,70.5218 263.5,72.5C 259.789,65.297 257.455,57.6303 256.5,49.5 Z"/></g>
<g><path style="opacity:1" fill="#d3d3d3" d="M 427.5,66.5 C 427.5,66.8333 427.5,67.1667 427.5,67.5C 396.815,66.841 366.482,67.5077 336.5,69.5C 336.167,69.5 335.833,69.5 335.5,69.5C 335.5,68.5 335.5,67.5 335.5,66.5C 366.167,66.5 396.833,66.5 427.5,66.5 Z"/></g>
<g><path style="opacity:1" fill="#f2f2f2" d="M 8.5,66.5 C 9.5,66.5 10.5,66.5 11.5,66.5C 11.5,79.5 11.5,92.5 11.5,105.5C 10.5,105.5 9.5,105.5 8.5,105.5C 8.5,92.5 8.5,79.5 8.5,66.5 Z"/></g>
<g><path style="opacity:1" fill="#fcfcfc" d="M 427.5,67.5 C 419.623,95.1942 401.29,107.694 372.5,105C 353.352,100.351 341.352,88.518 336.5,69.5C 366.482,67.5077 396.815,66.841 427.5,67.5 Z"/></g>
<g><path style="opacity:1" fill="#eaeaea" d="M 161.5,42.5 C 164.69,54.3991 168.023,66.3991 171.5,78.5C 170.909,80.2662 170.076,81.9328 169,83.5C 165.853,69.9525 163.353,56.2858 161.5,42.5 Z"/></g>
<g><path style="opacity:1" fill="#ececec" d="M 114.5,46.5 C 117.696,57.0848 121.03,67.7515 124.5,78.5C 123.974,80.2303 122.974,81.5637 121.5,82.5C 118.522,70.6364 116.189,58.6364 114.5,46.5 Z"/></g>
<g><path style="opacity:1" fill="#e7e7e7" d="M 209.5,44.5 C 212.191,55.8813 215.524,67.2147 219.5,78.5C 216.615,83.6291 214.781,82.9624 214,76.5C 212.451,65.8211 210.951,55.1545 209.5,44.5 Z"/></g>
<g><path style="opacity:1" fill="#020202" d="M 32.5,33.5 C 33.1667,50.5 33.8333,67.5 34.5,84.5C 59.8333,84.5 85.1667,84.5 110.5,84.5C 110.5,84.8333 110.5,85.1667 110.5,85.5C 84.5,86.1667 58.5,86.8333 32.5,87.5C 31.8333,87.5 31.5,87.1667 31.5,86.5C 32.4857,68.9101 32.819,51.2434 32.5,33.5 Z"/></g>
<g><path style="opacity:1" fill="#2b2b2b" d="M 13.5,66.5 C 13.3335,78.8378 13.5001,91.1712 14,103.5C 19.7019,97.6304 25.5353,91.9638 31.5,86.5C 31.5,87.1667 31.8333,87.5 32.5,87.5C 26.8333,93.8333 20.8333,99.8333 14.5,105.5C 13.206,99.0712 12.5393,92.4046 12.5,85.5C 12.5004,78.991 12.8338,72.6576 13.5,66.5 Z"/></g>
<g><path style="opacity:1" fill="#202020" d="M 428.5,64.5 C 426.165,87.3615 413.499,101.528 390.5,107C 362.046,109.619 343.38,97.4521 334.5,70.5C 335.167,70.5 335.5,70.1667 335.5,69.5C 335.833,69.5 336.167,69.5 336.5,69.5C 341.352,88.518 353.352,100.351 372.5,105C 401.29,107.694 419.623,95.1942 427.5,67.5C 427.5,67.1667 427.5,66.8333 427.5,66.5C 427.833,65.8333 428.167,65.1667 428.5,64.5 Z"/></g>
</svg>
