<?xml version="1.0" encoding="UTF-8"?>
<!DOCTYPE svg PUBLIC "-//W3C//DTD SVG 1.1//EN" "http://www.w3.org/Graphics/SVG/1.1/DTD/svg11.dtd">
<svg xmlns="http://www.w3.org/2000/svg" version="1.1" width="366px" height="251px" style="shape-rendering:geometricPrecision; text-rendering:geometricPrecision; image-rendering:optimizeQuality; fill-rule:evenodd; clip-rule:evenodd" xmlns:xlink="http://www.w3.org/1999/xlink">
<g><path style="opacity:1" fill="#fdfdfd" d="M -0.5,-0.5 C 121.5,-0.5 243.5,-0.5 365.5,-0.5C 365.5,83.1667 365.5,166.833 365.5,250.5C 243.5,250.5 121.5,250.5 -0.5,250.5C -0.5,166.833 -0.5,83.1667 -0.5,-0.5 Z"/></g>
<g><path style="opacity:1" fill="#1d1d1d" d="M 301.5,7.5 C 319.167,7.5 336.833,7.5 354.5,7.5C 354.5,85.5 354.5,163.5 354.5,241.5C 336.833,241.5 319.167,241.5 301.5,241.5C 301.5,163.5 301.5,85.5 301.5,7.5 Z"/></g>
<g><path style="opacity:1" fill="#fcfcfc" d="M 235.5,123.5 C 235.631,124.239 235.464,124.906 235,125.5C 197.014,162.986 159.18,200.653 121.5,238.5C 82.7625,200.763 44.7625,162.43 7.5,123.5C 45.1319,85.368 82.9652,47.368 121,9.5C 159.035,47.7014 197.201,85.7014 235.5,123.5 Z"/></g>
<g><path style="opacity:1" fill="#b6b6b6" d="M 304.5,9.5 C 304.5,47.1667 304.5,84.8333 304.5,122.5C 320.167,122.5 335.833,122.5 351.5,122.5C 351.5,84.8333 351.5,47.1667 351.5,9.5C 352.499,47.3297 352.832,85.3297 352.5,123.5C 336.167,123.5 319.833,123.5 303.5,123.5C 303.168,85.3297 303.501,47.3297 304.5,9.5 Z"/></g>
<g><path style="opacity:1" fill="#fefefe" d="M 304.5,9.5 C 320.167,9.5 335.833,9.5 351.5,9.5C 351.5,47.1667 351.5,84.8333 351.5,122.5C 335.833,122.5 320.167,122.5 304.5,122.5C 304.5,84.8333 304.5,47.1667 304.5,9.5 Z"/></g>
<g><path style="opacity:1" fill="#111111" d="M 237.5,123.5 C 236.833,123.5 236.167,123.5 235.5,123.5C 197.201,85.7014 159.035,47.7014 121,9.5C 82.9652,47.368 45.1319,85.368 7.5,123.5C 6.83333,124.167 6.16667,124.833 5.5,125.5C 4.42654,124.749 4.25988,123.749 5,122.5C 43.3732,83.7931 82.0399,45.4598 121,7.5C 160.328,45.6613 199.161,84.328 237.5,123.5 Z"/></g>
<g><path style="opacity:1" fill="#efefef" d="M 148.5,165.5 C 148.179,163.952 147.179,163.285 145.5,163.5C 145.5,162.5 145.5,161.5 145.5,160.5C 166.13,142.765 169.63,122.098 156,98.5C 143.033,83.546 126.866,78.3793 107.5,83C 102.148,85.3391 97.1479,88.1724 92.5,91.5C 92.2504,90.0779 91.417,89.0779 90,88.5C 88.9887,89.3366 87.8221,89.67 86.5,89.5C 107.502,70.8672 129.502,69.7006 152.5,86C 172.747,105.594 175.914,127.761 162,152.5C 158.291,157.71 153.791,162.043 148.5,165.5 Z"/></g>
<g><path style="opacity:1" fill="#1c1c1c" d="M 145.5,160.5 C 124.949,171.678 106.116,169.345 89,153.5C 77.3606,138.059 75.3606,121.392 83,103.5C 85.6193,99.0496 88.7859,95.0496 92.5,91.5C 97.1479,88.1724 102.148,85.3391 107.5,83C 126.866,78.3793 143.033,83.546 156,98.5C 169.63,122.098 166.13,142.765 145.5,160.5 Z"/></g>
<g><path style="opacity:1" fill="#fcfcfc" d="M 112.5,83.5 C 136.795,81.3843 152.962,91.7177 161,114.5C 163.391,147.917 147.891,164.751 114.5,165C 89.5137,157.862 78.347,141.362 81,115.5C 85.7004,98.9673 96.2004,88.3006 112.5,83.5 Z"/></g>
<g><path style="opacity:1" fill="#1d1d1d" d="M 148.5,165.5 C 153.791,162.043 158.291,157.71 162,152.5C 175.914,127.761 172.747,105.594 152.5,86C 129.502,69.7006 107.502,70.8672 86.5,89.5C 82.0943,93.4168 78.5943,98.0834 76,103.5C 73.5424,110.664 71.709,117.997 70.5,125.5C 69.9801,103.391 79.6467,87.2243 99.5,77C 124.527,67.7889 145.694,73.2889 163,93.5C 175.952,114.707 175.618,135.707 162,156.5C 151.246,169.798 137.412,175.798 120.5,174.5C 130.54,173.486 139.873,170.486 148.5,165.5 Z"/></g>
<g><path style="opacity:1" fill="#bcbcbc" d="M 304.5,125.5 C 304.5,163.167 304.5,200.833 304.5,238.5C 320.167,238.5 335.833,238.5 351.5,238.5C 351.5,200.833 351.5,163.167 351.5,125.5C 352.499,163.33 352.832,201.33 352.5,239.5C 336.167,239.5 319.833,239.5 303.5,239.5C 303.168,201.33 303.501,163.33 304.5,125.5 Z"/></g>
<g><path style="opacity:1" fill="#fefefe" d="M 304.5,125.5 C 320.167,125.5 335.833,125.5 351.5,125.5C 351.5,163.167 351.5,200.833 351.5,238.5C 335.833,238.5 320.167,238.5 304.5,238.5C 304.5,200.833 304.5,163.167 304.5,125.5 Z"/></g>
<g><path style="opacity:1" fill="#252525" d="M 7.5,123.5 C 44.7625,162.43 82.7625,200.763 121.5,238.5C 159.18,200.653 197.014,162.986 235,125.5C 235.464,124.906 235.631,124.239 235.5,123.5C 236.167,123.5 236.833,123.5 237.5,123.5C 238.525,123.897 238.692,124.563 238,125.5C 199.293,164.54 160.293,203.207 121,241.5C 82.3204,202.987 43.8204,164.32 5.5,125.5C 6.16667,124.833 6.83333,124.167 7.5,123.5 Z"/></g>
</svg>
