<?xml version="1.0" encoding="UTF-8"?>
<!DOCTYPE svg PUBLIC "-//W3C//DTD SVG 1.1//EN" "http://www.w3.org/Graphics/SVG/1.1/DTD/svg11.dtd">
<svg xmlns="http://www.w3.org/2000/svg" version="1.1" width="348px" height="216px" style="shape-rendering:geometricPrecision; text-rendering:geometricPrecision; image-rendering:optimizeQuality; fill-rule:evenodd; clip-rule:evenodd" xmlns:xlink="http://www.w3.org/1999/xlink">
<g><path style="opacity:1" fill="#fdfdfd" d="M -0.5,-0.5 C 115.5,-0.5 231.5,-0.5 347.5,-0.5C 347.5,71.5 347.5,143.5 347.5,215.5C 231.5,215.5 115.5,215.5 -0.5,215.5C -0.5,143.5 -0.5,71.5 -0.5,-0.5 Z"/></g>
<g><path style="opacity:1" fill="#1f1f1f" d="M 7.5,95.5 C 7.18178,100.032 7.51511,104.366 8.5,108.5C 12.8035,158.944 39.4702,190.444 88.5,203C 133.624,208.352 168.124,191.852 192,153.5C 213.809,106.882 205.976,66.049 168.5,31C 132.514,4.31352 94.8475,1.64685 55.5,23C 28.0078,40.82 12.3412,65.9867 8.5,98.5C 8.78448,96.5853 8.45115,94.9187 7.5,93.5C 15.2521,48.5781 41.2521,20.4115 85.5,9C 138.865,1.59433 177.032,22.0943 200,70.5C 213.734,114.836 203.568,152.669 169.5,184C 128.588,213.18 87.2549,213.847 45.5,186C 16.9562,162.422 4.28952,132.255 7.5,95.5 Z"/></g>
<g><path style="opacity:1" fill="#fbfbfb" d="M 8.5,108.5 C 18.8333,108.5 29.1667,108.5 39.5,108.5C 39.4379,113.076 40.1045,117.409 41.5,121.5C 47.5289,146.7 62.8623,163.534 87.5,172C 121.435,179.437 147.602,168.604 166,139.5C 181.15,105.983 174.983,77.1501 147.5,53C 119.554,34.7369 91.887,35.0703 64.5,54C 49.4075,66.685 41.0742,82.8516 39.5,102.5C 29.5541,104.475 19.2208,105.142 8.5,104.5C 8.5,102.5 8.5,100.5 8.5,98.5C 12.3412,65.9867 28.0078,40.82 55.5,23C 94.8475,1.64685 132.514,4.31352 168.5,31C 205.976,66.049 213.809,106.882 192,153.5C 168.124,191.852 133.624,208.352 88.5,203C 39.4702,190.444 12.8035,158.944 8.5,108.5 Z"/></g>
<g><path style="opacity:1" fill="#fdfdfd" d="M 41.5,115.5 C 41.5,114.167 41.5,112.833 41.5,111.5C 41.9841,73.7048 60.6507,50.5382 97.5,42C 132.261,40.1087 156.094,55.2754 169,87.5C 176.613,118.335 167.78,143.168 142.5,162C 106.088,181.02 75.5879,174.186 51,141.5C 46.3102,133.253 43.1435,124.586 41.5,115.5 Z"/></g>
<g><path style="opacity:1" fill="#1e1e1e" d="M 41.5,121.5 C 41.5,119.5 41.5,117.5 41.5,115.5C 43.1435,124.586 46.3102,133.253 51,141.5C 75.5879,174.186 106.088,181.02 142.5,162C 167.78,143.168 176.613,118.335 169,87.5C 156.094,55.2754 132.261,40.1087 97.5,42C 60.6507,50.5382 41.9841,73.7048 41.5,111.5C 40.8333,108.5 40.1667,105.5 39.5,102.5C 41.0742,82.8516 49.4075,66.685 64.5,54C 91.887,35.0703 119.554,34.7369 147.5,53C 174.983,77.1501 181.15,105.983 166,139.5C 147.602,168.604 121.435,179.437 87.5,172C 62.8623,163.534 47.5289,146.7 41.5,121.5 Z"/></g>
<g><path style="opacity:1" fill="#1f1f1f" d="M 300.5,6.5 C 311.172,6.3335 321.839,6.50016 332.5,7C 333,7.5 333.5,8 334,8.5C 336.066,16.0263 337.4,23.693 338,31.5C 339.874,56.4815 341.374,81.4815 342.5,106.5C 336.848,105.968 331.181,105.635 325.5,105.5C 323.951,137.573 321.451,169.573 318,201.5C 317.727,203.329 316.893,204.829 315.5,206C 304.5,206.667 293.5,206.667 282.5,206C 281.809,204.933 281.309,203.766 281,202.5C 277.506,170.582 275.006,138.582 273.5,106.5C 279.161,106.907 284.828,107.24 290.5,107.5C 292.055,76.4603 294.221,45.4603 297,14.5C 297.368,11.4349 298.535,8.76822 300.5,6.5 Z"/></g>
<g><path style="opacity:1" fill="#f2f2f2" d="M 299.5,35.5 C 300.117,35.6107 300.617,35.944 301,36.5C 304.311,58.7099 306.478,81.0433 307.5,103.5C 312.805,104.194 318.138,104.528 323.5,104.5C 322.14,126.203 320.307,147.87 318,169.5C 317.802,172.702 316.969,175.702 315.5,178.5C 312.177,155.599 309.843,132.599 308.5,109.5C 303.178,109.02 297.845,108.687 292.5,108.5C 293.964,84.055 296.298,59.7216 299.5,35.5 Z"/></g>
<g><path style="opacity:1" fill="#d7d7d7" d="M 299.5,12.5 C 300.117,12.6107 300.617,12.944 301,13.5C 302.331,21.138 302.998,28.8046 303,36.5C 302.735,34.3485 301.735,32.6819 300,31.5C 299.055,31.9054 298.388,32.572 298,33.5C 297.837,26.4618 298.337,19.4618 299.5,12.5 Z"/></g>
<g><path style="opacity:1" fill="#fbfbfb" d="M 331.5,9.5 C 333.808,13.0468 334.975,17.0468 335,21.5C 337.34,46.7815 338.84,72.1148 339.5,97.5C 339.5,99.5 339.5,101.5 339.5,103.5C 337.167,103.5 334.833,103.5 332.5,103.5C 325.107,103.273 317.774,102.606 310.5,101.5C 308.537,71.0913 305.871,40.758 302.5,10.5C 311.986,9.5062 321.652,9.17287 331.5,9.5 Z"/></g>
<g><path style="opacity:1" fill="#afafaf" d="M 331.5,9.5 C 321.652,9.17287 311.986,9.5062 302.5,10.5C 301.957,10.44 301.624,10.1067 301.5,9.5C 311.659,8.17714 321.659,8.17714 331.5,9.5 Z"/></g>
<g><path style="opacity:1" fill="#9e9e9e" d="M 339.5,97.5 C 340.468,99.6074 340.802,101.941 340.5,104.5C 337.615,104.806 334.948,104.473 332.5,103.5C 334.833,103.5 337.167,103.5 339.5,103.5C 339.5,101.5 339.5,99.5 339.5,97.5 Z"/></g>
<g><path style="opacity:1" fill="#101010" d="M 7.5,93.5 C 8.45115,94.9187 8.78448,96.5853 8.5,98.5C 8.5,100.5 8.5,102.5 8.5,104.5C 19.2208,105.142 29.5541,104.475 39.5,102.5C 40.1667,105.5 40.8333,108.5 41.5,111.5C 41.5,112.833 41.5,114.167 41.5,115.5C 41.5,117.5 41.5,119.5 41.5,121.5C 40.1045,117.409 39.4379,113.076 39.5,108.5C 29.1667,108.5 18.8333,108.5 8.5,108.5C 7.51511,104.366 7.18178,100.032 7.5,95.5C 7.5,94.8333 7.5,94.1667 7.5,93.5 Z"/></g>
<g><path style="opacity:1" fill="#fcfcfc" d="M 275.5,108.5 C 285.836,109.445 296.169,110.445 306.5,111.5C 307.367,134.204 308.867,156.871 311,179.5C 311.426,187.816 312.593,195.983 314.5,204C 304.151,204.832 293.817,204.666 283.5,203.5C 282.007,195.901 280.84,188.235 280,180.5C 278.61,156.484 277.11,132.484 275.5,108.5 Z"/></g>
<g><path style="opacity:1" fill="#7e7e7e" d="M 314.5,181.5 C 313.662,181.842 313.328,182.508 313.5,183.5C 312.378,181.712 312.211,179.712 313,177.5C 313.791,178.745 314.291,180.078 314.5,181.5 Z"/></g>
<g><path style="opacity:1" fill="#e7e7e7" d="M 313.5,183.5 C 313.328,182.508 313.662,181.842 314.5,181.5C 316.267,182.65 317.433,181.983 318,179.5C 317.997,186.863 317.331,194.197 316,201.5C 314.351,195.64 313.517,189.64 313.5,183.5 Z"/></g>
</svg>
