<?xml version="1.0" encoding="UTF-8"?>
<!DOCTYPE svg PUBLIC "-//W3C//DTD SVG 1.1//EN" "http://www.w3.org/Graphics/SVG/1.1/DTD/svg11.dtd">
<svg xmlns="http://www.w3.org/2000/svg" version="1.1" width="397px" height="125px" style="shape-rendering:geometricPrecision; text-rendering:geometricPrecision; image-rendering:optimizeQuality; fill-rule:evenodd; clip-rule:evenodd" xmlns:xlink="http://www.w3.org/1999/xlink">
<g><path style="opacity:1" fill="#fcfcfc" d="M -0.5,-0.5 C 131.833,-0.5 264.167,-0.5 396.5,-0.5C 396.5,41.1667 396.5,82.8333 396.5,124.5C 264.167,124.5 131.833,124.5 -0.5,124.5C -0.5,82.8333 -0.5,41.1667 -0.5,-0.5 Z"/></g>
<g><path style="opacity:1" fill="#1e1e1e" d="M 54.5,5.5 C 88.0522,3.33744 110.219,18.0041 121,49.5C 125.308,75.6997 116.808,96.533 95.5,112C 65.6747,127.535 39.8414,122.702 18,97.5C 7.57086,81.9164 4.57086,64.9164 9,46.5C 17.0713,24.9273 32.238,11.2606 54.5,5.5 Z"/></g>
<g><path style="opacity:1" fill="#fbfbfb" d="M 54.5,7.5 C 87.1842,5.39018 108.684,19.7235 119,50.5C 123.346,80.6482 111.846,102.148 84.5,115C 55.4286,123.867 32.5953,115.7 16,90.5C 2.79136,60.8347 8.95802,36.0013 34.5,16C 40.9196,12.282 47.5863,9.44868 54.5,7.5 Z"/></g>
<g><path style="opacity:1" fill="#181818" d="M 58.5,32.5 C 62.5,32.5 66.5,32.5 70.5,32.5C 70.3543,48.6872 78.3543,57.0205 94.5,57.5C 94.5,61.5 94.5,65.5 94.5,69.5C 83.1227,68.7802 75.2894,73.7802 71,84.5C 70.502,87.4816 70.3354,90.4816 70.5,93.5C 66.5,93.5 62.5,93.5 58.5,93.5C 58.8632,77.1965 50.8632,69.1965 34.5,69.5C 34.5,65.5 34.5,61.5 34.5,57.5C 50.7107,56.9573 58.7107,48.624 58.5,32.5 Z"/></g>
<g><path style="opacity:1" fill="#cbcbcb" d="M 58.5,44.5 C 59.0967,44.7352 59.4301,45.2352 59.5,46C 57.5981,52.2466 53.5981,55.9132 47.5,57C 53.1439,54.5257 56.8105,50.359 58.5,44.5 Z"/></g>
<g><path style="opacity:1" fill="#c2c2c2" d="M 69.5,45.5 C 71.636,47.8123 73.636,50.3123 75.5,53C 77.8333,54.5 80.1667,56 82.5,57.5C 75.8829,56.573 71.5496,52.573 69.5,45.5 Z"/></g>
<g><path style="opacity:1" fill="#f7f7f7" d="M 84.5,60.5 C 84.5,62.1667 84.5,63.8333 84.5,65.5C 83.209,65.2627 82.209,65.596 81.5,66.5C 72.49,68.5159 67.8234,74.1826 67.5,83.5C 65.5,83.5 63.5,83.5 61.5,83.5C 60.617,72.951 54.9503,66.951 44.5,65.5C 44.5,63.8333 44.5,62.1667 44.5,60.5C 46.099,60.7678 47.4324,60.4345 48.5,59.5C 56.9866,57.013 61.3199,51.3463 61.5,42.5C 63.5,42.5 65.5,42.5 67.5,42.5C 68.3523,53.0196 74.019,59.0196 84.5,60.5 Z"/></g>
<g><path style="opacity:1" fill="#f4f4f4" d="M 67.5,37.5 C 67.5,38.5 67.5,39.5 67.5,40.5C 65.5,40.5 63.5,40.5 61.5,40.5C 61.5,39.5 61.5,38.5 61.5,37.5C 61.9704,36.3065 62.9704,35.6399 64.5,35.5C 66.0296,35.6399 67.0296,36.3065 67.5,37.5 Z"/></g>
<g><path style="opacity:1" fill="#898989" d="M 67.5,37.5 C 67.0296,36.3065 66.0296,35.6399 64.5,35.5C 62.9704,35.6399 61.9704,36.3065 61.5,37.5C 60.596,36.791 60.2627,35.791 60.5,34.5C 63.1667,34.5 65.8333,34.5 68.5,34.5C 68.7373,35.791 68.404,36.791 67.5,37.5 Z"/></g>
<g><path style="opacity:1" fill="#606060" d="M 39.5,59.5 C 42.5,59.5 45.5,59.5 48.5,59.5C 47.4324,60.4345 46.099,60.7678 44.5,60.5C 44.5,62.1667 44.5,63.8333 44.5,65.5C 43.6981,64.0484 43.1981,62.3817 43,60.5C 42.8019,62.3817 42.3019,64.0484 41.5,65.5C 41.7413,63.1137 41.0746,61.1137 39.5,59.5 Z"/></g>
<g><path style="opacity:1" fill="#f3f3f3" d="M 39.5,59.5 C 41.0746,61.1137 41.7413,63.1137 41.5,65.5C 40.0813,66.4511 38.4147,66.7845 36.5,66.5C 36.5,64.1667 36.5,61.8333 36.5,59.5C 37.5,59.5 38.5,59.5 39.5,59.5 Z"/></g>
<g><path style="opacity:1" fill="#ebebeb" d="M 88.5,59.5 C 89.8333,59.5 91.1667,59.5 92.5,59.5C 92.5,61.8333 92.5,64.1667 92.5,66.5C 90.5,66.5 88.5,66.5 86.5,66.5C 86.1849,63.7892 86.8516,61.4559 88.5,59.5 Z"/></g>
<g><path style="opacity:1" fill="#1a1a1a" d="M 183.5,5.5 C 191.5,5.5 199.5,5.5 207.5,5.5C 207.334,15.5056 207.5,25.5056 208,35.5C 209.152,37.6487 210.652,39.482 212.5,41C 217.5,41.6667 222.5,41.6667 227.5,41C 228.646,38.8562 230.146,37.0228 232,35.5C 233.854,37.0228 235.354,38.8562 236.5,41C 238.833,41.6667 241.167,41.6667 243.5,41C 244.889,39.0429 246.389,37.2096 248,35.5C 249.944,36.6875 251.444,38.3542 252.5,40.5C 255.167,41.8333 257.833,41.8333 260.5,40.5C 263.304,33.9978 265.971,33.9978 268.5,40.5C 271.106,41.6517 273.773,41.8184 276.5,41C 277.646,38.8562 279.146,37.0228 281,35.5C 282.854,37.0228 284.354,38.8562 285.5,41C 288.227,41.8184 290.894,41.6517 293.5,40.5C 296.029,33.9978 298.696,33.9978 301.5,40.5C 304.167,41.8333 306.833,41.8333 309.5,40.5C 312.304,33.9978 314.971,33.9978 317.5,40.5C 320.106,41.6517 322.773,41.8184 325.5,41C 328.596,33.7065 331.596,33.7065 334.5,41C 339.349,42.476 342.682,40.976 344.5,36.5C 345.689,35.5713 347.022,35.238 348.5,35.5C 348.722,39.278 350.722,41.278 354.5,41.5C 355.833,41.1667 357.167,40.8333 358.5,40.5C 361.304,33.9978 363.971,33.9978 366.5,40.5C 371.307,42.4782 374.641,41.1449 376.5,36.5C 377.325,35.6143 378.325,35.281 379.5,35.5C 379.491,37.3084 379.991,38.9751 381,40.5C 384.92,42.4567 388.254,45.1234 391,48.5C 391.667,58.8333 391.667,69.1667 391,79.5C 388.225,81.0276 386.392,83.3609 385.5,86.5C 384.675,87.3857 383.675,87.719 382.5,87.5C 382.5,86.5 382.5,85.5 382.5,84.5C 380.143,84.3367 377.81,84.5034 375.5,85C 374.111,86.9571 372.611,88.7904 371,90.5C 369.056,89.3125 367.556,87.6458 366.5,85.5C 363.833,84.1667 361.167,84.1667 358.5,85.5C 355.833,92.1667 353.167,92.1667 350.5,85.5C 347.894,84.3483 345.227,84.1816 342.5,85C 339.596,92.2935 336.596,92.2935 333.5,85C 331.167,84.3333 328.833,84.3333 326.5,85C 323.404,92.2935 320.404,92.2935 317.5,85C 314.773,84.1816 312.106,84.3483 309.5,85.5C 306.833,92.1667 304.167,92.1667 301.5,85.5C 298.894,84.3483 296.227,84.1816 293.5,85C 290.596,92.2935 287.596,92.2935 284.5,85C 282.167,84.3333 279.833,84.3333 277.5,85C 274.679,92.0822 271.679,92.2489 268.5,85.5C 265.833,84.1667 263.167,84.1667 260.5,85.5C 257.833,92.1667 255.167,92.1667 252.5,85.5C 249.894,84.3483 247.227,84.1816 244.5,85C 241.596,92.2935 238.596,92.2935 235.5,85C 233.167,84.3333 230.833,84.3333 228.5,85C 227.111,86.9571 225.611,88.7904 224,90.5C 222.056,89.3125 220.556,87.6458 219.5,85.5C 214.694,83.8113 210.861,85.1447 208,89.5C 207.5,99.828 207.334,110.161 207.5,120.5C 198.724,120.941 190.058,120.441 181.5,119C 169.553,104.272 164.053,87.439 165,68.5C 166.603,67.1142 167.437,65.2809 167.5,63C 164.099,55.1041 163.599,46.9374 166,38.5C 169.268,25.9543 175.102,14.9543 183.5,5.5 Z"/></g>
<g><path style="opacity:1" fill="#cacaca" d="M 296.5,38.5 C 297.222,38.9175 297.722,39.5842 298,40.5C 299.866,54.4885 301.199,68.4885 302,82.5C 298.842,67.8992 297.008,53.2325 296.5,38.5 Z"/></g>
<g><path style="opacity:1" fill="#cacaca" d="M 247.5,38.5 C 248.117,38.6107 248.617,38.944 249,39.5C 250.8,53.8294 252.133,68.1628 253,82.5C 249.839,67.8777 248.006,53.211 247.5,38.5 Z"/></g>
<g><path style="opacity:1" fill="#dadada" d="M 263.5,39.5 C 265.164,40.9488 265.998,42.9488 266,45.5C 267.532,57.4864 268.532,69.4864 269,81.5C 267.197,68.2693 265.03,55.1027 262.5,42C 262.743,41.0979 263.077,40.2646 263.5,39.5 Z"/></g>
<g><path style="opacity:1" fill="#a6a6a6" d="M 380.5,44.5 C 382.16,56.3562 383.827,68.3562 385.5,80.5C 385.167,81.1667 384.833,81.8333 384.5,82.5C 382.378,69.9466 381.044,57.2799 380.5,44.5 Z"/></g>
<g><path style="opacity:1" fill="#d3d3d3" d="M 280.5,38.5 C 283.308,51.9035 284.808,65.5701 285,79.5C 283.232,67.0768 281.065,54.7435 278.5,42.5C 279.18,41.1401 279.847,39.8068 280.5,38.5 Z"/></g>
<g><path style="opacity:1" fill="#d7d7d7" d="M 312.5,38.5 C 314.197,40.3052 315.03,42.6385 315,45.5C 316.533,57.4888 317.533,69.4888 318,81.5C 315.964,68.4723 313.798,55.4723 311.5,42.5C 311.846,41.1508 312.179,39.8175 312.5,38.5 Z"/></g>
<g><path style="opacity:1" fill="#ececec" d="M 382.5,44.5 C 384.861,45.4348 387.028,46.7682 389,48.5C 389.667,58.5 389.667,68.5 389,78.5C 388.586,78.9574 388.086,79.2907 387.5,79.5C 385.637,67.8769 383.97,56.2102 382.5,44.5 Z"/></g>
<g><path style="opacity:1" fill="#dadada" d="M 345.5,38.5 C 347.018,41.5341 347.851,44.8675 348,48.5C 349.269,59.8497 350.269,71.183 351,82.5C 348.637,69.209 346.47,55.8756 344.5,42.5C 344.846,41.1508 345.179,39.8175 345.5,38.5 Z"/></g>
<g><path style="opacity:1" fill="#c6c6c6" d="M 376.5,39.5 C 377.725,40.1522 378.392,41.3189 378.5,43C 379.432,47.4799 379.599,51.9799 379,56.5C 377.731,50.8887 376.898,45.2221 376.5,39.5 Z"/></g>
<g><path style="opacity:1" fill="#f1f1f1" d="M 368.5,43.5 C 371.079,43.0833 373.246,43.75 375,45.5C 377.08,57.8079 378.913,70.1413 380.5,82.5C 378.5,82.5 376.5,82.5 374.5,82.5C 372.871,69.431 370.871,56.431 368.5,43.5 Z"/></g>
<g><path style="opacity:1" fill="#f2f2f2" d="M 352.5,43.5 C 354.792,43.2436 356.959,43.5769 359,44.5C 361.308,57.1067 363.141,69.7734 364.5,82.5C 362.208,82.7564 360.041,82.4231 358,81.5C 356.329,68.7934 354.495,56.1268 352.5,43.5 Z"/></g>
<g><path style="opacity:1" fill="#efefef" d="M 335.5,43.5 C 338.394,43.0423 340.894,43.709 343,45.5C 344.916,57.8269 346.749,70.1603 348.5,82.5C 346.208,82.7564 344.041,82.4231 342,81.5C 340.155,68.76 337.988,56.0934 335.5,43.5 Z"/></g>
<g><path style="opacity:1" fill="#f0f0f0" d="M 319.5,43.5 C 321.833,43.5 324.167,43.5 326.5,43.5C 328.282,56.2052 330.282,68.8719 332.5,81.5C 330.257,82.4742 327.924,82.8076 325.5,82.5C 323.872,69.4378 321.872,56.4378 319.5,43.5 Z"/></g>
<g><path style="opacity:1" fill="#f0f0f0" d="M 303.5,43.5 C 305.527,43.3379 307.527,43.5045 309.5,44C 312.272,56.6629 314.272,69.4962 315.5,82.5C 312.921,82.9167 310.754,82.25 309,80.5C 307.166,68.1543 305.333,55.821 303.5,43.5 Z"/></g>
<g><path style="opacity:1" fill="#f0f0f0" d="M 287.5,43.5 C 290.079,43.0833 292.246,43.75 294,45.5C 295.834,57.8363 297.667,70.1696 299.5,82.5C 297.473,82.6621 295.473,82.4955 293.5,82C 292.809,80.9326 292.309,79.7659 292,78.5C 290.581,66.8153 289.081,55.1486 287.5,43.5 Z"/></g>
<g><path style="opacity:1" fill="#efefef" d="M 270.5,43.5 C 272.833,43.5 275.167,43.5 277.5,43.5C 279.5,56.5051 281.5,69.5051 283.5,82.5C 281.167,82.5 278.833,82.5 276.5,82.5C 274.871,69.431 272.871,56.431 270.5,43.5 Z"/></g>
<g><path style="opacity:1" fill="#f2f2f2" d="M 254.5,43.5 C 256.792,43.2436 258.959,43.5769 261,44.5C 263.325,57.1028 265.159,69.7695 266.5,82.5C 264.5,82.5 262.5,82.5 260.5,82.5C 258.419,69.5193 256.419,56.5193 254.5,43.5 Z"/></g>
<g><path style="opacity:1" fill="#ededed" d="M 237.5,43.5 C 240.394,43.0423 242.894,43.709 245,45.5C 247.067,57.8029 248.9,70.1362 250.5,82.5C 248.208,82.7564 246.041,82.4231 244,81.5C 241.831,68.8086 239.665,56.1419 237.5,43.5 Z"/></g>
<g><path style="opacity:1" fill="#dadada" d="M 329.5,38.5 C 332.308,51.9035 333.808,65.5701 334,79.5C 332.357,67.0436 330.19,54.7103 327.5,42.5C 328.18,41.1401 328.847,39.8068 329.5,38.5 Z"/></g>
<g><path style="opacity:1" fill="#d7d7d7" d="M 231.5,38.5 C 232.268,39.2625 232.768,40.2625 233,41.5C 234.599,54.4805 235.599,67.4805 236,80.5C 234.321,67.7232 232.154,55.0566 229.5,42.5C 230.18,41.1401 230.847,39.8068 231.5,38.5 Z"/></g>
<g><path style="opacity:1" fill="#d8d8d8" d="M 361.5,38.5 C 363.197,40.3052 364.03,42.6385 364,45.5C 365.401,57.501 366.401,69.501 367,81.5C 365.194,68.2718 363.027,55.1051 360.5,42C 360.989,40.8615 361.322,39.6948 361.5,38.5 Z"/></g>
<g><path style="opacity:1" fill="#f5f5f5" d="M 207.5,40.5 C 209.255,41.0722 210.922,41.9055 212.5,43C 217.823,43.4994 223.156,43.666 228.5,43.5C 230.418,56.5088 232.418,69.5088 234.5,82.5C 232.167,82.5 229.833,82.5 227.5,82.5C 227.243,72.0249 224.409,62.3582 219,53.5C 216.904,57.8828 215.738,62.5495 215.5,67.5C 216.06,72.5238 216.726,77.5238 217.5,82.5C 213.574,82.0466 210.408,83.3799 208,86.5C 207.5,71.1703 207.333,55.837 207.5,40.5 Z"/></g>
<g><path style="opacity:1" fill="#bcbcbc" d="M 217.5,64.5 C 218.777,65.6936 219.444,67.3603 219.5,69.5C 220.115,73.1711 220.281,76.8377 220,80.5C 218.561,75.2639 217.728,69.9306 217.5,64.5 Z"/></g>
<g><path style="opacity:1" fill="#fcfcfc" d="M 184.5,7.5 C 191.5,7.5 198.5,7.5 205.5,7.5C 205.5,44.5 205.5,81.5 205.5,118.5C 197.721,118.932 190.054,118.432 182.5,117C 173.677,104.52 168.344,90.6864 166.5,75.5C 167.73,71.6458 168.73,67.6458 169.5,63.5C 169.404,60.5488 168.571,57.8822 167,55.5C 166.805,37.2485 172.638,21.2485 184.5,7.5 Z"/></g>
<g><path style="opacity:1" fill="#6b6b6b" d="M 84.5,60.5 C 85.4614,62.2646 85.7947,64.2646 85.5,66.5C 84.1667,66.5 82.8333,66.5 81.5,66.5C 82.209,65.596 83.209,65.2627 84.5,65.5C 84.5,63.8333 84.5,62.1667 84.5,60.5 Z"/></g>
<g><path style="opacity:1" fill="#d4d4d4" d="M 235.5,44.5 C 237.905,57.3451 240.238,70.3451 242.5,83.5C 242.363,85.1073 241.696,86.4406 240.5,87.5C 237.934,73.2761 236.267,58.9427 235.5,44.5 Z"/></g>
<g><path style="opacity:1" fill="#bdbdbd" d="M 46.5,69.5 C 50.6808,68.9981 54.1808,70.6648 57,74.5C 58.5899,76.6498 59.2566,78.9832 59,81.5C 56.7889,75.3664 52.6222,71.3664 46.5,69.5 Z"/></g>
<g><path style="opacity:1" fill="#bcbcbc" d="M 79.5,68.5 C 80.552,68.3505 81.552,68.5172 82.5,69C 76.6411,71.5255 72.4744,75.6922 70,81.5C 69.8363,78.4775 70.8363,75.8109 73,73.5C 75.3256,71.9343 77.4922,70.2676 79.5,68.5 Z"/></g>
<g><path style="opacity:1" fill="#d8d8d8" d="M 268.5,47.5 C 270.954,59.3551 273.287,71.3551 275.5,83.5C 274.917,85.0016 274.084,86.3349 273,87.5C 270.643,74.2672 269.143,60.9338 268.5,47.5 Z"/></g>
<g><path style="opacity:1" fill="#d7d7d7" d="M 284.5,45.5 C 286.989,58.0218 289.322,70.6884 291.5,83.5C 291.547,85.0004 290.881,86.0004 289.5,86.5C 286.899,72.9719 285.233,59.3052 284.5,45.5 Z"/></g>
<g><path style="opacity:1" fill="#d5d5d5" d="M 349.5,44.5 C 350.222,44.9175 350.722,45.5842 351,46.5C 352.615,58.6994 354.448,70.8661 356.5,83C 356.375,84.6268 355.875,86.1268 355,87.5C 352.299,73.2894 350.465,58.9561 349.5,44.5 Z"/></g>
<g><path style="opacity:1" fill="#d7d7d7" d="M 300.5,44.5 C 301.222,44.9175 301.722,45.5842 302,46.5C 303.547,58.7126 305.381,70.8792 307.5,83C 307.375,84.6268 306.875,86.1268 306,87.5C 303.76,73.3133 301.927,58.98 300.5,44.5 Z"/></g>
<g><path style="opacity:1" fill="#d5d5d5" d="M 333.5,45.5 C 336.027,58.1513 338.36,70.9847 340.5,84C 340.22,85.395 339.553,86.5617 338.5,87.5C 335.956,73.6062 334.29,59.6062 333.5,45.5 Z"/></g>
<g><path style="opacity:1" fill="#c7c7c7" d="M 220.5,61.5 C 221.79,62.0577 222.623,63.0577 223,64.5C 223.658,70.9433 224.825,77.2766 226.5,83.5C 225.917,85.0016 225.084,86.3349 224,87.5C 222.359,78.896 221.192,70.2293 220.5,61.5 Z"/></g>
<g><path style="opacity:1" fill="#d5d5d5" d="M 316.5,43.5 C 317.117,43.6107 317.617,43.944 318,44.5C 319.436,57.671 321.603,70.671 324.5,83.5C 323.917,85.0016 323.084,86.3349 322,87.5C 319.718,72.8991 317.884,58.2325 316.5,43.5 Z"/></g>
<g><path style="opacity:1" fill="#d6d6d6" d="M 251.5,44.5 C 252.222,44.9175 252.722,45.5842 253,46.5C 254.461,58.73 256.295,70.8966 258.5,83C 258.491,84.4038 257.991,85.5704 257,86.5C 254.313,72.644 252.48,58.644 251.5,44.5 Z"/></g>
<g><path style="opacity:1" fill="#dadada" d="M 365.5,43.5 C 366.222,43.9175 366.722,44.5842 367,45.5C 368.516,58.3051 370.683,70.9718 373.5,83.5C 372.917,85.0016 372.084,86.3349 371,87.5C 369.04,72.8495 367.206,58.1829 365.5,43.5 Z"/></g>
<g><path style="opacity:1" fill="#e6e6e6" d="M 61.5,85.5 C 63.5,85.5 65.5,85.5 67.5,85.5C 67.8333,87.5 68.1667,89.5 68.5,91.5C 65.8333,91.5 63.1667,91.5 60.5,91.5C 60.8333,89.5 61.1667,87.5 61.5,85.5 Z"/></g>
</svg>
