<?xml version="1.0" encoding="UTF-8"?>
<!DOCTYPE svg PUBLIC "-//W3C//DTD SVG 1.1//EN" "http://www.w3.org/Graphics/SVG/1.1/DTD/svg11.dtd">
<svg xmlns="http://www.w3.org/2000/svg" version="1.1" width="432px" height="125px" style="shape-rendering:geometricPrecision; text-rendering:geometricPrecision; image-rendering:optimizeQuality; fill-rule:evenodd; clip-rule:evenodd" xmlns:xlink="http://www.w3.org/1999/xlink">
<g><path style="opacity:1" fill="#fcfcfc" d="M -0.5,-0.5 C 143.5,-0.5 287.5,-0.5 431.5,-0.5C 431.5,41.1667 431.5,82.8333 431.5,124.5C 287.5,124.5 143.5,124.5 -0.5,124.5C -0.5,82.8333 -0.5,41.1667 -0.5,-0.5 Z"/></g>
<g><path style="opacity:1" fill="#222222" d="M 315.5,41.5 C 315.5,41.8333 315.5,42.1667 315.5,42.5C 313.396,42.2011 311.396,42.5344 309.5,43.5C 310,44.5 310.5,45.5 311,46.5C 312.579,60.5515 314.413,74.5515 316.5,88.5C 318.604,88.7989 320.604,88.4656 322.5,87.5C 321.648,83.8691 320.981,80.2024 320.5,76.5C 320.216,74.5853 320.549,72.9187 321.5,71.5C 321.7,77.6988 322.866,83.6988 325,89.5C 325.497,86.854 325.664,84.1873 325.5,81.5C 325.328,80.5084 325.662,79.8417 326.5,79.5C 326.458,84.7195 327.292,89.7195 329,94.5C 330.076,92.9328 330.909,91.2662 331.5,89.5C 330.552,84.8674 329.886,80.2007 329.5,75.5C 329.263,74.209 329.596,73.209 330.5,72.5C 331.26,77.8202 331.927,83.1535 332.5,88.5C 334.5,88.5 336.5,88.5 338.5,88.5C 338.5,87.1667 338.5,85.8333 338.5,84.5C 338.5,83.8333 338.833,83.5 339.5,83.5C 339.629,85.2161 339.962,86.8828 340.5,88.5C 340.783,89.2891 341.283,89.9558 342,90.5C 342.198,88.6183 342.698,86.9516 343.5,85.5C 343.933,88.1656 344.433,90.8323 345,93.5C 346.045,92.6266 346.878,91.6266 347.5,90.5C 348.74,89.3412 350.074,88.3412 351.5,87.5C 368.354,80.7137 385.354,74.2137 402.5,68C 403.482,59.919 403.816,51.7524 403.5,43.5C 383.674,42.5029 363.674,42.1695 343.5,42.5C 343.5,42.1667 343.5,41.8333 343.5,41.5C 364.169,41.3334 384.836,41.5 405.5,42C 413.348,49.681 421.015,57.5143 428.5,65.5C 420.833,73.5 413.167,81.5 405.5,89.5C 386.842,90.333 368.176,90.833 349.5,91C 347.943,93.2955 346.276,95.4622 344.5,97.5C 343,95.1667 341.5,92.8333 340,90.5C 337.861,89.2309 335.695,89.2309 333.5,90.5C 332.066,93.0472 330.4,95.3805 328.5,97.5C 326.6,95.3805 324.934,93.0472 323.5,90.5C 321.579,89.359 319.579,89.1923 317.5,90C 315.779,92.6194 313.946,95.1194 312,97.5C 310.266,95.7098 308.766,93.7098 307.5,91.5C 305.235,90.3526 302.902,90.1859 300.5,91C 298.943,93.2955 297.276,95.4622 295.5,97.5C 293.724,95.4622 292.057,93.2955 290.5,91C 288.167,90.3333 285.833,90.3333 283.5,91C 282.36,93.4583 280.86,95.625 279,97.5C 277.14,95.625 275.64,93.4583 274.5,91C 272.167,90.3333 269.833,90.3333 267.5,91C 265.943,93.2955 264.276,95.4622 262.5,97.5C 260.6,95.3805 258.934,93.0472 257.5,90.5C 255.579,89.359 253.579,89.1923 251.5,90C 249.779,92.6194 247.946,95.1194 246,97.5C 244.14,95.625 242.64,93.4583 241.5,91C 238.833,90.3333 236.167,90.3333 233.5,91C 231.346,96.7481 229.013,96.9148 226.5,91.5C 222.541,90.3401 218.541,90.1735 214.5,91C 213.333,92.1667 212.167,93.3333 211,94.5C 210.667,103.167 210.333,111.833 210,120.5C 207.333,123.167 204.667,123.167 202,120.5C 201.443,118.385 200.609,116.385 199.5,114.5C 186.5,113.833 173.5,113.167 160.5,112.5C 160,111.5 159.5,110.5 159,109.5C 157.376,81.5406 157.043,53.5406 158,25.5C 158.375,22.9999 159.208,20.6666 160.5,18.5C 173.5,17.8333 186.5,17.1667 199.5,16.5C 200.609,14.6147 201.443,12.6147 202,10.5C 204.667,7.83333 207.333,7.83333 210,10.5C 210.333,18.8333 210.667,27.1667 211,35.5C 213.35,40.7341 216.85,41.7341 221.5,38.5C 224.622,41.2501 228.289,42.0834 232.5,41C 234.221,38.3806 236.054,35.8806 238,33.5C 239.987,35.4638 241.487,37.7971 242.5,40.5C 244.833,41.8333 247.167,41.8333 249.5,40.5C 252.741,31.2891 255.907,31.2891 259,40.5C 261.064,41.5914 263.231,41.7581 265.5,41C 267.291,38.586 268.957,36.086 270.5,33.5C 272.89,35.2666 274.557,37.5999 275.5,40.5C 277.833,41.8333 280.167,41.8333 282.5,40.5C 285.798,31.2548 288.965,31.2548 292,40.5C 294.064,41.5914 296.231,41.7581 298.5,41C 299.795,38.2419 301.461,35.7419 303.5,33.5C 305.89,35.2666 307.557,37.5999 308.5,40.5C 310.743,41.4742 313.076,41.8076 315.5,41.5 Z"/></g>
<g><path style="opacity:1" fill="#b4b4b4" d="M 197.5,39.5 C 198.043,39.56 198.376,39.8933 198.5,40.5C 186.006,41.8247 173.673,41.8247 161.5,40.5C 173.678,40.8284 185.678,40.4951 197.5,39.5 Z"/></g>
<g><path style="opacity:1" fill="#fcfcfc" d="M 197.5,39.5 C 185.678,40.4951 173.678,40.8284 161.5,40.5C 154.689,22.1313 160.856,15.1313 180,19.5C 186.167,19.6667 192.333,19.8333 198.5,20C 196.175,26.3448 195.841,32.8448 197.5,39.5 Z"/></g>
<g><path style="opacity:1" fill="#fdfdfd" d="M 204.5,10.5 C 205.822,10.33 206.989,10.6634 208,11.5C 208.667,47.5 208.667,83.5 208,119.5C 206.667,120.833 205.333,120.833 204,119.5C 203.174,83.0954 203.34,46.762 204.5,10.5 Z"/></g>
<g><path style="opacity:1" fill="#f3f3f3" d="M 210.5,39.5 C 212.997,41.8711 215.997,42.8711 219.5,42.5C 221.387,57.8052 223.053,73.1385 224.5,88.5C 219.639,87.7386 215.305,88.7386 211.5,91.5C 210.5,74.1795 210.167,56.8461 210.5,39.5 Z"/></g>
<g><path style="opacity:1" fill="#e4e4e4" d="M 236.5,36.5 C 238.164,37.9488 238.998,39.9488 239,42.5C 240.556,58.1929 241.89,73.8596 243,89.5C 241.883,88.0506 241.216,86.3839 241,84.5C 239.561,70.2102 237.394,56.0436 234.5,42C 235.32,40.1997 235.986,38.3664 236.5,36.5 Z"/></g>
<g><path style="opacity:1" fill="#242424" d="M 343.5,41.5 C 343.5,41.8333 343.5,42.1667 343.5,42.5C 342.167,43.1667 342.167,43.8333 343.5,44.5C 344.938,58.2093 346.771,71.876 349,85.5C 349.417,86.756 350.25,87.4226 351.5,87.5C 350.074,88.3412 348.74,89.3412 347.5,90.5C 345.832,75.8211 343.998,61.1544 342,46.5C 341.529,44.7536 340.862,43.087 340,41.5C 340.834,56.168 342.001,70.8347 343.5,85.5C 342.698,86.9516 342.198,88.6183 342,90.5C 341.283,89.9558 340.783,89.2891 340.5,88.5C 341.162,86.6965 341.495,84.6965 341.5,82.5C 340.208,68.1614 338.875,53.828 337.5,39.5C 337.167,38.5 336.833,37.5 336.5,36.5C 335.248,38.0009 334.248,39.6675 333.5,41.5C 336.301,55.3757 338.301,69.3757 339.5,83.5C 338.833,83.5 338.5,83.8333 338.5,84.5C 336.438,70.6464 334.438,56.6464 332.5,42.5C 330.396,42.2011 328.396,42.5344 326.5,43.5C 328.161,53.109 329.495,62.7757 330.5,72.5C 329.596,73.209 329.263,74.209 329.5,75.5C 327.933,64.5777 326.1,53.5777 324,42.5C 324.555,54.8285 325.388,67.1618 326.5,79.5C 325.662,79.8417 325.328,80.5084 325.5,81.5C 324.043,66.5957 322.21,51.5957 320,36.5C 318.344,38.1459 317.511,40.1459 317.5,42.5C 319.378,52.0998 320.711,61.7664 321.5,71.5C 320.549,72.9187 320.216,74.5853 320.5,76.5C 319.424,65.1824 317.757,53.8491 315.5,42.5C 315.5,42.1667 315.5,41.8333 315.5,41.5C 316.356,38.3137 318.023,35.6471 320.5,33.5C 322.539,35.7419 324.205,38.2419 325.5,41C 327.5,41.6667 329.5,41.6667 331.5,41C 332.795,38.2419 334.461,35.7419 336.5,33.5C 338.858,36.2702 341.192,38.9369 343.5,41.5 Z"/></g>
<g><path style="opacity:1" fill="#e4e4e4" d="M 325.5,81.5 C 325.664,84.1873 325.497,86.854 325,89.5C 322.866,83.6988 321.7,77.6988 321.5,71.5C 320.711,61.7664 319.378,52.0998 317.5,42.5C 317.511,40.1459 318.344,38.1459 320,36.5C 322.21,51.5957 324.043,66.5957 325.5,81.5 Z"/></g>
<g><path style="opacity:1" fill="#8f8f8f" d="M 343.5,42.5 C 363.674,42.1695 383.674,42.5029 403.5,43.5C 383.326,43.1695 363.326,43.5029 343.5,44.5C 342.167,43.8333 342.167,43.1667 343.5,42.5 Z"/></g>
<g><path style="opacity:1" fill="#f9f9f9" d="M 161.5,42.5 C 173.833,42.5 186.167,42.5 198.5,42.5C 195.943,57.8118 195.943,73.1451 198.5,88.5C 186.167,88.5 173.833,88.5 161.5,88.5C 158.858,73.161 158.858,57.8276 161.5,42.5 Z"/></g>
<g><path style="opacity:1" fill="#f0f0f0" d="M 225.5,42.5 C 228.167,42.5 230.833,42.5 233.5,42.5C 235.864,57.7766 237.864,73.11 239.5,88.5C 237.473,88.6621 235.473,88.4955 233.5,88C 232.809,86.9326 232.309,85.7659 232,84.5C 229.972,70.4688 227.805,56.4688 225.5,42.5 Z"/></g>
<g><path style="opacity:1" fill="#ececec" d="M 260.5,42.5 C 262.5,42.5 264.5,42.5 266.5,42.5C 268.894,57.772 270.894,73.1053 272.5,88.5C 268.838,89.3629 266.672,88.0296 266,84.5C 264.712,70.4026 262.879,56.4026 260.5,42.5 Z"/></g>
<g><path style="opacity:1" fill="#efefef" d="M 277.5,43.5 C 279.5,43.5 281.5,43.5 283.5,43.5C 285.136,58.2236 287.136,72.8903 289.5,87.5C 287.604,88.4656 285.604,88.7989 283.5,88.5C 281.335,73.5252 279.335,58.5252 277.5,43.5 Z"/></g>
<g><path style="opacity:1" fill="#e2e2e2" d="M 286.5,36.5 C 287.222,36.9175 287.722,37.5842 288,38.5C 290.053,55.4668 291.386,72.4668 292,89.5C 290.622,85.6121 289.622,81.6121 289,77.5C 288.339,65.7191 286.839,54.0525 284.5,42.5C 284.611,40.2857 285.278,38.2857 286.5,36.5 Z"/></g>
<g><path style="opacity:1" fill="#ececec" d="M 293.5,42.5 C 295.5,42.5 297.5,42.5 299.5,42.5C 301.719,57.8039 303.719,73.1372 305.5,88.5C 303.5,88.5 301.5,88.5 299.5,88.5C 297.933,73.1012 295.933,57.7679 293.5,42.5 Z"/></g>
<g><path style="opacity:1" fill="#eeeeee" d="M 315.5,42.5 C 317.757,53.8491 319.424,65.1824 320.5,76.5C 320.981,80.2024 321.648,83.8691 322.5,87.5C 320.604,88.4656 318.604,88.7989 316.5,88.5C 314.413,74.5515 312.579,60.5515 311,46.5C 310.5,45.5 310,44.5 309.5,43.5C 311.396,42.5344 313.396,42.2011 315.5,42.5 Z"/></g>
<g><path style="opacity:1" fill="#ededed" d="M 338.5,84.5 C 338.5,85.8333 338.5,87.1667 338.5,88.5C 336.5,88.5 334.5,88.5 332.5,88.5C 331.927,83.1535 331.26,77.8202 330.5,72.5C 329.495,62.7757 328.161,53.109 326.5,43.5C 328.396,42.5344 330.396,42.2011 332.5,42.5C 334.438,56.6464 336.438,70.6464 338.5,84.5 Z"/></g>
<g><path style="opacity:1" fill="#fdfdfd" d="M 403.5,43.5 C 403.816,51.7524 403.482,59.919 402.5,68C 385.354,74.2137 368.354,80.7137 351.5,87.5C 350.25,87.4226 349.417,86.756 349,85.5C 346.771,71.876 344.938,58.2093 343.5,44.5C 363.326,43.5029 383.326,43.1695 403.5,43.5 Z"/></g>
<g><path style="opacity:1" fill="#f1f1f1" d="M 411.5,66.5 C 409.585,66.2155 407.919,66.5489 406.5,67.5C 405.181,60.3231 405.181,52.9898 406.5,45.5C 413.167,51.5 419.5,57.8333 425.5,64.5C 420.901,65.6582 416.234,66.3249 411.5,66.5 Z"/></g>
<g><path style="opacity:1" fill="#f1f1f1" d="M 200.5,18.5 C 201.664,49.664 201.831,80.9973 201,112.5C 197.868,104.598 197.702,96.5975 200.5,88.5C 197.906,73.1536 197.906,57.8203 200.5,42.5C 197.881,34.4729 197.881,26.4729 200.5,18.5 Z"/></g>
<g><path style="opacity:1" fill="#e7e7e7" d="M 340.5,88.5 C 339.962,86.8828 339.629,85.2161 339.5,83.5C 338.301,69.3757 336.301,55.3757 333.5,41.5C 334.248,39.6675 335.248,38.0009 336.5,36.5C 336.833,37.5 337.167,38.5 337.5,39.5C 338.875,53.828 340.208,68.1614 341.5,82.5C 341.495,84.6965 341.162,86.6965 340.5,88.5 Z"/></g>
<g><path style="opacity:1" fill="#e7e7e7" d="M 269.5,36.5 C 271.164,37.9488 271.998,39.9488 272,42.5C 273.601,58.52 274.934,74.52 276,90.5C 272.924,74.2302 270.09,57.8969 267.5,41.5C 268.456,39.9246 269.123,38.258 269.5,36.5 Z"/></g>
<g><path style="opacity:1" fill="#e3e3e3" d="M 302.5,36.5 C 304.197,38.3052 305.03,40.6385 305,43.5C 306.291,59.2096 307.624,74.8763 309,90.5C 308.333,89.1667 307.667,87.8333 307,86.5C 305.491,71.5582 303.324,56.7249 300.5,42C 301.32,40.1997 301.986,38.3664 302.5,36.5 Z"/></g>
<g><path style="opacity:1" fill="#ededed" d="M 244.5,42.5 C 246.467,42.2606 248.301,42.5939 250,43.5C 252.249,58.4947 254.416,73.4947 256.5,88.5C 254.5,88.5 252.5,88.5 250.5,88.5C 248.337,73.1938 246.337,57.8605 244.5,42.5 Z"/></g>
<g><path style="opacity:1" fill="#e9e9e9" d="M 253.5,36.5 C 254.856,39.5767 255.689,42.9101 256,46.5C 257.606,60.8221 258.606,75.1554 259,89.5C 256.393,73.8821 253.893,58.2154 251.5,42.5C 251.719,40.3069 252.385,38.3069 253.5,36.5 Z"/></g>
<g><path style="opacity:1" fill="#a3a3a3" d="M 220.5,41.5 C 222.164,42.9488 222.998,44.9488 223,47.5C 224.605,60.4797 225.605,73.4797 226,86.5C 224.375,71.4506 222.542,56.4506 220.5,41.5 Z"/></g>
<g><path style="opacity:1" fill="#dedede" d="M 240.5,41.5 C 241.966,42.347 242.8,43.6803 243,45.5C 244.84,60.2526 247.007,74.9193 249.5,89.5C 248.826,91.5165 247.659,93.1832 246,94.5C 244.056,76.8412 242.223,59.1745 240.5,41.5 Z"/></g>
<g><path style="opacity:1" fill="#dedede" d="M 273.5,41.5 C 274.117,41.6107 274.617,41.944 275,42.5C 275.539,45.5285 276.206,48.5285 277,51.5C 278.181,64.2859 280.014,76.9525 282.5,89.5C 281.5,90.8333 280.5,92.1667 279.5,93.5C 278.159,89.6163 277.325,85.6163 277,81.5C 276.068,68.1414 274.901,54.8081 273.5,41.5 Z"/></g>
<g><path style="opacity:1" fill="#e5e5e5" d="M 257.5,42.5 C 259.13,44.0261 259.963,46.0261 260,48.5C 261.32,62.2376 263.153,75.9043 265.5,89.5C 264.909,91.2662 264.076,92.9328 263,94.5C 262.08,91.8987 261.413,89.2321 261,86.5C 259.668,71.8431 258.501,57.1764 257.5,42.5 Z"/></g>
<g><path style="opacity:1" fill="#646464" d="M 406.5,67.5 C 407.919,66.5489 409.585,66.2155 411.5,66.5C 412.609,67.29 413.942,67.79 415.5,68C 414.756,69.0386 413.756,69.5386 412.5,69.5C 412.158,68.6618 411.492,68.3284 410.5,68.5C 409.432,67.5655 408.099,67.2322 406.5,67.5 Z"/></g>
<g><path style="opacity:1" fill="#e5e5e5" d="M 290.5,42.5 C 292.13,44.0261 292.963,46.0261 293,48.5C 294.383,62.0628 296.216,75.5628 298.5,89C 298.142,91.0324 297.308,92.8657 296,94.5C 293.43,77.2586 291.596,59.9253 290.5,42.5 Z"/></g>
<g><path style="opacity:1" fill="#9b9b9b" d="M 228.5,72.5 C 227.833,72.5 227.5,72.8333 227.5,73.5C 226.026,67.7075 225.526,61.7075 226,55.5C 226.754,61.2012 227.587,66.8678 228.5,72.5 Z"/></g>
<g><path style="opacity:1" fill="#efefef" d="M 422.5,67.5 C 423.239,67.369 423.906,67.5357 424.5,68C 417.833,74.6667 411.167,81.3333 404.5,88C 388.5,88.6667 372.5,88.6667 356.5,88C 378.693,81.4332 400.693,74.5999 422.5,67.5 Z"/></g>
<g><path style="opacity:1" fill="#d3d3d3" d="M 410.5,68.5 C 411.492,68.3284 412.158,68.6618 412.5,69.5C 404.048,71.5308 395.714,74.0308 387.5,77C 386.167,77.6667 384.833,77.6667 383.5,77C 392.34,73.4411 401.34,70.6078 410.5,68.5 Z"/></g>
<g><path style="opacity:1" fill="#e4e4e4" d="M 329.5,75.5 C 329.886,80.2007 330.552,84.8674 331.5,89.5C 330.909,91.2662 330.076,92.9328 329,94.5C 327.292,89.7195 326.458,84.7195 326.5,79.5C 325.388,67.1618 324.555,54.8285 324,42.5C 326.1,53.5777 327.933,64.5777 329.5,75.5 Z"/></g>
<g><path style="opacity:1" fill="#e8e8e8" d="M 347.5,90.5 C 346.878,91.6266 346.045,92.6266 345,93.5C 344.433,90.8323 343.933,88.1656 343.5,85.5C 342.001,70.8347 340.834,56.168 340,41.5C 340.862,43.087 341.529,44.7536 342,46.5C 343.998,61.1544 345.832,75.8211 347.5,90.5 Z"/></g>
<g><path style="opacity:1" fill="#e7e7e7" d="M 228.5,72.5 C 229.128,78.9231 229.962,85.2564 231,91.5C 230.667,91.8333 230.333,92.1667 230,92.5C 228.43,86.2715 227.596,79.9382 227.5,73.5C 227.5,72.8333 227.833,72.5 228.5,72.5 Z"/></g>
<g><path style="opacity:1" fill="#e5e5e5" d="M 306.5,41.5 C 308.531,44.4216 309.698,47.7549 310,51.5C 311.017,64.3081 312.851,76.9747 315.5,89.5C 314.333,91.1667 313.167,92.8333 312,94.5C 309.628,76.8732 307.795,59.2066 306.5,41.5 Z"/></g>
<g><path style="opacity:1" fill="#838383" d="M 161.5,90.5 C 173.655,89.5048 185.989,89.1714 198.5,89.5C 198.737,90.791 198.404,91.791 197.5,92.5C 185.88,90.5209 173.88,89.8542 161.5,90.5 Z"/></g>
<g><path style="opacity:1" fill="#fcfcfc" d="M 161.5,90.5 C 173.88,89.8542 185.88,90.5209 197.5,92.5C 195.847,98.6469 196.18,104.647 198.5,110.5C 186.167,111.833 173.833,111.833 161.5,110.5C 158.838,103.803 158.838,97.1359 161.5,90.5 Z"/></g>
<g><path style="opacity:1" fill="#232323" d="M 57.5,7.5 C 92.0777,7.34937 113.244,24.016 121,57.5C 122.668,84.6733 111.501,104.507 87.5,117C 58.1253,127.539 34.2919,120.373 16,95.5C -0.242209,63.6421 5.92446,37.1421 34.5,16C 41.745,11.6449 49.4117,8.81153 57.5,7.5 Z"/></g>
<g><path style="opacity:1" fill="#f5f5f5" d="M 57.5,9.5 C 81.9019,8.11771 100.402,17.7844 113,38.5C 124.227,63.0255 120.727,85.1922 102.5,105C 88.2044,117.733 71.5377,122.4 52.5,119C 30.3421,112.842 16.1754,98.6754 10,76.5C 6.29408,40.0727 22.1274,17.7394 57.5,9.5 Z"/></g>
<g><path style="opacity:1" fill="#1c1c1c" d="M 62.5,17.5 C 76.812,25.0772 90.9786,33.0772 105,41.5C 105.833,57.8435 105.666,74.1769 104.5,90.5C 91.3708,97.8003 78.3708,105.3 65.5,113C 64.5,113.667 63.5,113.667 62.5,113C 49.6292,105.3 36.6292,97.8003 23.5,90.5C 22.5005,73.8467 22.1672,57.18 22.5,40.5C 36.3271,33.6685 49.6605,26.0019 62.5,17.5 Z"/></g>
<g><path style="opacity:1" fill="#e8e8e8" d="M 58.5,108.5 C 62.1667,107.167 65.8333,107.167 69.5,108.5C 67.5979,109.368 65.7645,110.368 64,111.5C 61.9149,110.876 60.0816,109.876 58.5,108.5 Z"/></g>
<g><path style="opacity:1" fill="#747474" d="M 69.5,108.5 C 65.8333,107.167 62.1667,107.167 58.5,108.5C 57.7109,108.217 57.0442,107.717 56.5,107C 61.8333,106.333 67.1667,106.333 72.5,107C 71.4734,107.513 70.4734,108.013 69.5,108.5 Z"/></g>
<g><path style="opacity:1" fill="#dddddd" d="M 25.5,80.5 C 26.7131,84.5927 28.7131,88.2593 31.5,91.5C 31.1667,91.8333 30.8333,92.1667 30.5,92.5C 28.4346,91.1433 26.4346,89.81 24.5,88.5C 24.1936,85.6146 24.5269,82.9479 25.5,80.5 Z"/></g>
<g><path style="opacity:1" fill="#e0e0e0" d="M 102.5,80.5 C 103.473,82.9479 103.806,85.6146 103.5,88.5C 101.565,89.81 99.5654,91.1433 97.5,92.5C 97.1667,92.1667 96.8333,91.8333 96.5,91.5C 99.2869,88.2593 101.287,84.5927 102.5,80.5 Z"/></g>
<g><path style="opacity:1" fill="#777777" d="M 25.5,80.5 C 24.5269,82.9479 24.1936,85.6146 24.5,88.5C 23.3592,85.3601 23.1925,82.0267 24,78.5C 24.7172,79.0442 25.2172,79.7109 25.5,80.5 Z"/></g>
<g><path style="opacity:1" fill="#747474" d="M 103.5,88.5 C 103.806,85.6146 103.473,82.9479 102.5,80.5C 102.783,79.7109 103.283,79.0442 104,78.5C 104.808,82.0267 104.641,85.3601 103.5,88.5 Z"/></g>
<g><path style="opacity:1" fill="#7a7a7a" d="M 103.5,42.5 C 104.641,45.6399 104.808,48.9733 104,52.5C 103.283,51.9558 102.783,51.2891 102.5,50.5C 103.473,48.0521 103.806,45.3854 103.5,42.5 Z"/></g>
<g><path style="opacity:1" fill="#777777" d="M 24.5,42.5 C 24.1936,45.3854 24.5269,48.0521 25.5,50.5C 25.2172,51.2891 24.7172,51.9558 24,52.5C 23.1925,48.9733 23.3592,45.6399 24.5,42.5 Z"/></g>
<g><path style="opacity:1" fill="#dddddd" d="M 103.5,42.5 C 103.806,45.3854 103.473,48.0521 102.5,50.5C 101.02,46.0157 98.6865,42.0157 95.5,38.5C 98.1135,39.1377 100.78,40.4711 103.5,42.5 Z"/></g>
<g><path style="opacity:1" fill="#dfdfdf" d="M 25.5,50.5 C 24.5269,48.0521 24.1936,45.3854 24.5,42.5C 27.2199,40.4711 29.8865,39.1377 32.5,38.5C 29.134,41.8989 26.8006,45.8989 25.5,50.5 Z"/></g>
<g><path style="opacity:1" fill="#fcfcfc" d="M 57.5,25.5 C 74.6455,24.2617 88.1455,30.595 98,44.5C 109.814,71.7323 102.314,91.5656 75.5,104C 50.1257,108.731 33.2924,98.8977 25,74.5C 22.3408,49.1382 33.1742,32.8049 57.5,25.5 Z"/></g>
<g><path style="opacity:1" fill="#d3d3d3" d="M 61.5,20.5 C 65.3311,20.2491 68.6644,21.4157 71.5,24C 66.5,24.6667 61.5,24.6667 56.5,24C 58.2331,22.8111 59.8998,21.6444 61.5,20.5 Z"/></g>
</svg>
