<?xml version="1.0" encoding="UTF-8"?>
<!DOCTYPE svg PUBLIC "-//W3C//DTD SVG 1.1//EN" "http://www.w3.org/Graphics/SVG/1.1/DTD/svg11.dtd">
<svg xmlns="http://www.w3.org/2000/svg" version="1.1" width="360px" height="242px" style="shape-rendering:geometricPrecision; text-rendering:geometricPrecision; image-rendering:optimizeQuality; fill-rule:evenodd; clip-rule:evenodd" xmlns:xlink="http://www.w3.org/1999/xlink">
<g><path style="opacity:1" fill="#fdfdfd" d="M -0.5,-0.5 C 119.5,-0.5 239.5,-0.5 359.5,-0.5C 359.5,80.1667 359.5,160.833 359.5,241.5C 239.5,241.5 119.5,241.5 -0.5,241.5C -0.5,160.833 -0.5,80.1667 -0.5,-0.5 Z"/></g>
<g><path style="opacity:1" fill="#fafafa" d="M 335.5,73.5 C 334.095,106.532 334.762,139.532 337.5,172.5C 339.106,190.352 341.773,208.019 345.5,225.5C 345.291,226.994 344.624,228.161 343.5,229C 338.8,230.067 334.134,231.234 329.5,232.5C 326.714,224.737 324.88,216.737 324,208.5C 313.847,141.447 314.014,74.4474 324.5,7.5C 330.511,8.07306 336.511,8.73973 342.5,9.5C 338.558,30.6467 336.224,51.9801 335.5,73.5 Z"/></g>
<g><path style="opacity:1" fill="#1d1d1d" d="M 90.5,5.5 C 147.596,3.63647 184.762,29.9698 202,84.5C 212.04,124.6 205.373,161.6 182,195.5C 153.225,230.424 117.059,241.59 73.5,229C 36.861,211.998 14.6943,183.498 7,143.5C -0.374057,99.4544 11.4593,61.6211 42.5,30C 56.5047,17.8314 72.5047,9.66469 90.5,5.5 Z"/></g>
<g><path style="opacity:1" fill="#fcfcfc" d="M 91.5,7.5 C 137.424,4.8722 170.924,23.8722 192,64.5C 210.6,106.693 208.267,147.693 185,187.5C 160.19,222.983 126.357,237.149 83.5,230C 52.4813,219.652 30.3146,199.485 17,169.5C -2.69575,117.985 6.13759,72.1512 43.5,32C 57.5152,19.8262 73.5152,11.6595 91.5,7.5 Z"/></g>
<g><path style="opacity:1" fill="#212121" d="M 336.5,79.5 C 336.795,77.2646 336.461,75.2646 335.5,73.5C 336.224,51.9801 338.558,30.6467 342.5,9.5C 336.511,8.73973 330.511,8.07306 324.5,7.5C 314.014,74.4474 313.847,141.447 324,208.5C 324.88,216.737 326.714,224.737 329.5,232.5C 334.134,231.234 338.8,230.067 343.5,229C 344.624,228.161 345.291,226.994 345.5,225.5C 341.773,208.019 339.106,190.352 337.5,172.5C 338.473,170.052 338.806,167.385 338.5,164.5C 340.605,185.89 343.938,207.223 348.5,228.5C 348.182,229.647 347.516,230.481 346.5,231C 339.787,231.976 333.121,233.143 326.5,234.5C 311.968,158.373 310.801,82.0395 323,5.5C 323.561,4.97814 324.228,4.6448 325,4.5C 331.416,6.08358 337.916,7.08358 344.5,7.5C 340.721,31.512 338.054,55.512 336.5,79.5 Z"/></g>
<g><path style="opacity:1" fill="#171717" d="M 335.5,73.5 C 336.461,75.2646 336.795,77.2646 336.5,79.5C 336.179,107.863 336.846,136.196 338.5,164.5C 338.806,167.385 338.473,170.052 337.5,172.5C 334.762,139.532 334.095,106.532 335.5,73.5 Z"/></g>
<g><path style="opacity:1" fill="#202020" d="M 97.5,58.5 C 132.429,58.5855 152.929,75.9188 159,110.5C 161.246,136.161 152.412,156.994 132.5,173C 99.5662,188.022 74.7329,179.522 58,147.5C 46.2695,117.267 52.1029,91.1008 75.5,69C 82.2662,64.1151 89.5995,60.6151 97.5,58.5 Z"/></g>
<g><path style="opacity:1" fill="#fdfdfd" d="M 98.5,60.5 C 129.499,60.9291 148.666,76.2624 156,106.5C 160.203,132.893 152.036,154.393 131.5,171C 99.8437,185.559 76.0104,177.393 60,146.5C 48.9039,116.962 54.7372,91.4616 77.5,70C 84.0953,65.698 91.0953,62.5314 98.5,60.5 Z"/></g>
</svg>
