<?xml version="1.0" encoding="UTF-8"?>
<!DOCTYPE svg PUBLIC "-//W3C//DTD SVG 1.1//EN" "http://www.w3.org/Graphics/SVG/1.1/DTD/svg11.dtd">
<svg xmlns="http://www.w3.org/2000/svg" version="1.1" width="435px" height="126px" style="shape-rendering:geometricPrecision; text-rendering:geometricPrecision; image-rendering:optimizeQuality; fill-rule:evenodd; clip-rule:evenodd" xmlns:xlink="http://www.w3.org/1999/xlink">
<g><path style="opacity:1" fill="#fcfcfc" d="M -0.5,-0.5 C 144.5,-0.5 289.5,-0.5 434.5,-0.5C 434.5,41.5 434.5,83.5 434.5,125.5C 289.5,125.5 144.5,125.5 -0.5,125.5C -0.5,83.5 -0.5,41.5 -0.5,-0.5 Z"/></g>
<g><path style="opacity:1" fill="#fefefe" d="M 168.5,8.5 C 168.832,44.6705 168.498,80.6705 167.5,116.5C 166.833,116.5 166.167,116.5 165.5,116.5C 165.5,80.5 165.5,44.5 165.5,8.5C 166.5,8.5 167.5,8.5 168.5,8.5 Z"/></g>
<g><path style="opacity:1" fill="#fafafa" d="M 162.5,8.5 C 162.832,44.3372 162.498,80.0039 161.5,115.5C 161.167,115.5 160.833,115.5 160.5,115.5C 151.155,103.292 145.488,89.4588 143.5,74C 143.393,71.7794 144.06,69.9461 145.5,68.5C 146.794,66.9522 147.461,64.9522 147.5,62.5C 147.495,60.3035 147.162,58.3035 146.5,56.5C 145.25,56.4226 144.417,55.756 144,54.5C 144.399,38.3052 149.399,23.6386 159,10.5C 159.816,9.17723 160.983,8.51056 162.5,8.5 Z"/></g>
<g><path style="opacity:1" fill="#010101" d="M 161.5,6.5 C 164.518,6.33537 167.518,6.50204 170.5,7C 171.056,7.38258 171.389,7.88258 171.5,8.5C 171.167,9.16667 170.833,9.83333 170.5,10.5C 170.5,44.8333 170.5,79.1667 170.5,113.5C 169.833,78.5 169.167,43.5 168.5,8.5C 167.432,7.56552 166.099,7.23219 164.5,7.5C 164.168,44.0038 164.502,80.3372 165.5,116.5C 166.167,116.5 166.833,116.5 167.5,116.5C 165.393,117.468 163.059,117.802 160.5,117.5C 159.5,117.167 158.833,116.5 158.5,115.5C 159.167,115.5 159.833,115.5 160.5,115.5C 160.833,115.5 161.167,115.5 161.5,115.5C 161.56,116.043 161.893,116.376 162.5,116.5C 163.5,80.5062 163.833,44.5062 163.5,8.5C 162.833,7.83333 162.167,7.16667 161.5,6.5 Z"/></g>
<g><path style="opacity:1" fill="#777777" d="M 162.5,8.5 C 162.833,8.5 163.167,8.5 163.5,8.5C 163.833,44.5062 163.5,80.5062 162.5,116.5C 161.893,116.376 161.56,116.043 161.5,115.5C 162.498,80.0039 162.832,44.3372 162.5,8.5 Z"/></g>
<g><path style="opacity:1" fill="#8b8b8b" d="M 168.5,8.5 C 167.5,8.5 166.5,8.5 165.5,8.5C 165.5,44.5 165.5,80.5 165.5,116.5C 164.502,80.3372 164.168,44.0038 164.5,7.5C 166.099,7.23219 167.432,7.56552 168.5,8.5 Z"/></g>
<g><path style="opacity:1" fill="#1e1e1e" d="M 161.5,6.5 C 162.167,7.16667 162.833,7.83333 163.5,8.5C 163.167,8.5 162.833,8.5 162.5,8.5C 160.983,8.51056 159.816,9.17723 159,10.5C 149.399,23.6386 144.399,38.3052 144,54.5C 144.417,55.756 145.25,56.4226 146.5,56.5C 146.763,60.6002 146.43,64.6002 145.5,68.5C 144.06,69.9461 143.393,71.7794 143.5,74C 145.488,89.4588 151.155,103.292 160.5,115.5C 159.833,115.5 159.167,115.5 158.5,115.5C 148.95,103.207 143.283,89.2071 141.5,73.5C 142.04,69.4438 143.373,65.7771 145.5,62.5C 145.779,59.9937 144.946,57.9937 143,56.5C 141.813,38.5847 146.813,22.5847 158,8.5C 159.113,7.69499 160.279,7.02832 161.5,6.5 Z"/></g>
<g><path style="opacity:1" fill="#1e1e1e" d="M 49.5,6.5 C 83.8581,3.74602 106.025,18.746 116,51.5C 119.272,84.8158 105.105,106.649 73.5,117C 47.0674,121.696 26.5674,112.862 12,90.5C -1.62477,61.2779 3.87523,36.4446 28.5,16C 35.0953,11.698 42.0953,8.53137 49.5,6.5 Z"/></g>
<g><path style="opacity:1" fill="#fbfbfb" d="M 51.5,8.5 C 83.6423,6.48554 104.476,20.8189 114,51.5C 116.786,90.2086 98.953,111.875 60.5,116.5C 36.5061,115.092 19.6728,103.425 10,81.5C 1.19988,49.939 11.3666,26.7723 40.5,12C 44.1135,10.4089 47.7802,9.24224 51.5,8.5 Z"/></g>
<g><path style="opacity:1" fill="#181818" d="M 55.5,33.5 C 59.1667,33.5 62.8333,33.5 66.5,33.5C 66.1936,36.3854 66.5269,39.0521 67.5,41.5C 71.3483,52.2625 79.015,57.2625 90.5,56.5C 90.6653,60.1817 90.4986,63.8484 90,67.5C 74.5923,68.0744 66.759,76.0744 66.5,91.5C 62.5,91.5 58.5,91.5 54.5,91.5C 54.5101,76.1768 46.8434,68.5101 31.5,68.5C 31.5,64.5 31.5,60.5 31.5,56.5C 46.7484,56.2496 54.7484,48.5829 55.5,33.5 Z"/></g>
<g><path style="opacity:1" fill="#c0c0c0" d="M 54.5,45.5 C 54.7017,49.2569 53.0351,52.4235 49.5,55C 47.3502,56.5899 45.0168,57.2566 42.5,57C 48.3222,55.0101 52.3222,51.1768 54.5,45.5 Z"/></g>
<g><path style="opacity:1" fill="#bdbdbd" d="M 65.5,44.5 C 68.6436,49.8085 72.9769,53.9752 78.5,57C 71.4696,55.8059 67.1363,51.6392 65.5,44.5 Z"/></g>
<g><path style="opacity:1" fill="#f5f5f5" d="M 57.5,42.5 C 59.5,42.5 61.5,42.5 63.5,42.5C 64.8385,52.5052 70.5052,58.1719 80.5,59.5C 80.5,61.5 80.5,63.5 80.5,65.5C 69.8513,66.1487 64.1847,71.8153 63.5,82.5C 61.5,82.5 59.5,82.5 57.5,82.5C 56.8333,71.8333 51.1667,66.1667 40.5,65.5C 40.5,63.5 40.5,61.5 40.5,59.5C 51.2133,58.7868 56.88,53.1201 57.5,42.5 Z"/></g>
<g><path style="opacity:1" fill="#e5e5e5" d="M 57.5,34.5 C 59.8333,34.5 62.1667,34.5 64.5,34.5C 64.1667,36.5 63.8333,38.5 63.5,40.5C 61.5,40.5 59.5,40.5 57.5,40.5C 57.5,38.5 57.5,36.5 57.5,34.5 Z"/></g>
<g><path style="opacity:1" fill="#a5a5a5" d="M 55.5,33.5 C 59.2984,32.5166 63.2984,32.1832 67.5,32.5C 67.5,35.5 67.5,38.5 67.5,41.5C 66.5269,39.0521 66.1936,36.3854 66.5,33.5C 62.8333,33.5 59.1667,33.5 55.5,33.5 Z"/></g>
<g><path style="opacity:1" fill="#e2e2e2" d="M 84.5,58.5 C 85.8333,58.5 87.1667,58.5 88.5,58.5C 88.5,60.8333 88.5,63.1667 88.5,65.5C 86.5,65.5 84.5,65.5 82.5,65.5C 82.1849,62.7892 82.8516,60.4559 84.5,58.5 Z"/></g>
<g><path style="opacity:1" fill="#f4f4f4" d="M 33.5,58.5 C 35.0418,59.3007 36.7085,59.634 38.5,59.5C 38.5,61.5 38.5,63.5 38.5,65.5C 36.8333,65.5 35.1667,65.5 33.5,65.5C 33.5,63.1667 33.5,60.8333 33.5,58.5 Z"/></g>
<g><path style="opacity:1" fill="#676767" d="M 146.5,56.5 C 147.162,58.3035 147.495,60.3035 147.5,62.5C 147.461,64.9522 146.794,66.9522 145.5,68.5C 146.43,64.6002 146.763,60.6002 146.5,56.5 Z"/></g>
<g><path style="opacity:1" fill="#c2c2c2" d="M 75.5,67.5 C 76.2389,67.369 76.9056,67.5357 77.5,68C 71.9389,70.5617 68.1055,74.7284 66,80.5C 66.6104,74.3776 69.7771,70.0443 75.5,67.5 Z"/></g>
<g><path style="opacity:1" fill="#c4c4c4" d="M 43.5,68.5 C 45.0894,67.3789 46.7561,67.5456 48.5,69C 50.3333,70.8333 52.1667,72.6667 54,74.5C 55.1871,76.0444 55.5205,77.7111 55,79.5C 52.5938,74.2588 48.7605,70.5921 43.5,68.5 Z"/></g>
<g><path style="opacity:1" fill="#1b1b1b" d="M 168.5,8.5 C 169.167,43.5 169.833,78.5 170.5,113.5C 171.327,114.439 171.994,114.105 172.5,112.5C 181.8,103.031 190.967,93.3647 200,83.5C 200.667,69.5 200.667,55.5 200,41.5C 190.967,31.6353 181.8,21.9686 172.5,12.5C 172.167,11.5 171.5,10.8333 170.5,10.5C 170.833,9.83333 171.167,9.16667 171.5,8.5C 181.633,18.8017 191.633,29.3017 201.5,40C 208.524,40.8311 215.524,40.6644 222.5,39.5C 225.304,32.9978 227.971,32.9978 230.5,39.5C 233.106,40.6517 235.773,40.8184 238.5,40C 239.889,38.0429 241.389,36.2096 243,34.5C 245.071,35.7753 246.571,37.6086 247.5,40C 250.227,40.8184 252.894,40.6517 255.5,39.5C 256.556,37.3542 258.056,35.6875 260,34.5C 261.611,36.2096 263.111,38.0429 264.5,40C 266.833,40.6667 269.167,40.6667 271.5,40C 274.321,32.9178 277.321,32.7511 280.5,39.5C 283.167,40.8333 285.833,40.8333 288.5,39.5C 289.556,37.3542 291.056,35.6875 293,34.5C 294.611,36.2096 296.111,38.0429 297.5,40C 299.833,40.6667 302.167,40.6667 304.5,40C 305.889,38.0429 307.389,36.2096 309,34.5C 310.944,35.6875 312.444,37.3542 313.5,39.5C 316.167,40.8333 318.833,40.8333 321.5,39.5C 322.556,37.3542 324.056,35.6875 326,34.5C 327.611,36.2096 329.111,38.0429 330.5,40C 333.227,40.8184 335.894,40.6517 338.5,39.5C 341.029,32.9978 343.696,32.9978 346.5,39.5C 349.167,40.8333 351.833,40.8333 354.5,39.5C 357.679,32.7511 360.679,32.9178 363.5,40C 366.227,40.8184 368.894,40.6517 371.5,39.5C 372.185,37.4527 373.351,35.7861 375,34.5C 377.509,35.8288 379.342,37.8288 380.5,40.5C 384.358,43.1218 388.192,43.4552 392,41.5C 393.734,43.2902 395.234,45.2902 396.5,47.5C 400.682,49.7433 405.016,50.5766 409.5,50C 410.743,51.1545 411.743,52.4878 412.5,54C 418.907,56.1801 424.907,59.0135 430.5,62.5C 427,64.6146 423.333,66.4479 419.5,68C 418.312,71.3958 416.145,72.2291 413,70.5C 407.216,71.5471 402.882,74.5471 400,79.5C 396.105,77.265 392.272,77.5984 388.5,80.5C 387.299,82.9095 385.633,84.9095 383.5,86.5C 376.648,81.7372 371.315,83.0705 367.5,90.5C 365.24,88.8232 363.573,86.6566 362.5,84C 360.167,83.3333 357.833,83.3333 355.5,84C 353.994,86.3333 352.327,88.5 350.5,90.5C 348.684,88.8816 347.351,86.8816 346.5,84.5C 343.833,83.1667 341.167,83.1667 338.5,84.5C 337.577,86.9242 336.077,88.9242 334,90.5C 332.13,88.5947 330.63,86.4281 329.5,84C 326.773,83.1816 324.106,83.3483 321.5,84.5C 318.833,92.5 316.167,92.5 313.5,84.5C 310.894,83.3483 308.227,83.1816 305.5,84C 304.36,86.4583 302.86,88.625 301,90.5C 299.14,88.625 297.64,86.4583 296.5,84C 294.167,83.3333 291.833,83.3333 289.5,84C 287.943,86.2955 286.276,88.4622 284.5,90.5C 282.684,88.8816 281.351,86.8816 280.5,84.5C 277.833,83.1667 275.167,83.1667 272.5,84.5C 271.234,86.7098 269.734,88.7098 268,90.5C 265.948,88.9438 264.448,86.9438 263.5,84.5C 261.235,83.3526 258.902,83.1859 256.5,84C 254.943,86.2955 253.276,88.4622 251.5,90.5C 249.684,88.8816 248.351,86.8816 247.5,84.5C 244.894,83.3483 242.227,83.1816 239.5,84C 238.36,86.4583 236.86,88.625 235,90.5C 233.266,88.7098 231.766,86.7098 230.5,84.5C 228.235,83.3526 225.902,83.1859 223.5,84C 221.943,86.2955 220.276,88.4622 218.5,90.5C 216.673,88.5 215.006,86.3333 213.5,84C 209.5,83.3333 205.5,83.3333 201.5,84C 191.391,95.5639 181.057,106.897 170.5,118C 166.973,118.808 163.64,118.641 160.5,117.5C 163.059,117.802 165.393,117.468 167.5,116.5C 168.498,80.6705 168.832,44.6705 168.5,8.5 Z"/></g>
<g><path style="opacity:1" fill="#777777" d="M 294.5,80.5 C 295.043,80.56 295.376,80.8933 295.5,81.5C 293.027,82.7969 290.693,82.7969 288.5,81.5C 290.735,81.7947 292.735,81.4614 294.5,80.5 Z"/></g>
<g><path style="opacity:1" fill="#757575" d="M 261.5,79.5 C 262.404,80.209 262.737,81.209 262.5,82.5C 259.941,82.8016 257.607,82.4682 255.5,81.5C 258.082,81.9746 260.082,81.3079 261.5,79.5 Z"/></g>
<g><path style="opacity:1" fill="#d8d8d8" d="M 362.5,44.5 C 365.3,57.1117 367.633,69.9451 369.5,83C 369.22,84.395 368.553,85.5617 367.5,86.5C 364.78,72.6327 363.113,58.6327 362.5,44.5 Z"/></g>
<g><path style="opacity:1" fill="#d6d6d6" d="M 329.5,45.5 C 330.222,45.9175 330.722,46.5842 331,47.5C 332.258,59.4439 334.091,71.2773 336.5,83C 334.916,87.7201 333.75,87.5535 333,82.5C 331.322,70.2132 330.156,57.8799 329.5,45.5 Z"/></g>
<g><path style="opacity:1" fill="#d2d2d2" d="M 295.5,42.5 C 296.927,44.1484 297.76,46.1484 298,48.5C 299.426,60.2482 301.26,71.9149 303.5,83.5C 303.081,84.6721 302.415,85.6721 301.5,86.5C 298.723,71.9679 296.723,57.3012 295.5,42.5 Z"/></g>
<g><path style="opacity:1" fill="#dcdcdc" d="M 246.5,43.5 C 247.222,43.9175 247.722,44.5842 248,45.5C 249.465,58.0537 251.298,70.5537 253.5,83C 253.491,84.4038 252.991,85.5704 252,86.5C 249.343,72.301 247.51,57.9677 246.5,43.5 Z"/></g>
<g><path style="opacity:1" fill="#dcdcdc" d="M 378.5,42.5 C 381.109,54.8075 383.443,67.3075 385.5,80C 385.22,81.395 384.553,82.5617 383.5,83.5C 381.288,69.8973 379.622,56.2307 378.5,42.5 Z"/></g>
<g><path style="opacity:1" fill="#d7d7d7" d="M 229.5,42.5 C 231.011,44.4758 231.844,46.8091 232,49.5C 232.877,61.0025 234.71,72.3358 237.5,83.5C 236.649,86.6124 235.483,86.9458 234,84.5C 232.47,70.4972 230.97,56.4972 229.5,42.5 Z"/></g>
<g><path style="opacity:1" fill="#e3e3e3" d="M 215.5,61.5 C 216.222,61.9175 216.722,62.5842 217,63.5C 218.222,69.9968 219.388,76.4968 220.5,83C 220.138,84.2247 219.638,85.3914 219,86.5C 216.752,78.34 215.585,70.0067 215.5,61.5 Z"/></g>
<g><path style="opacity:1" fill="#cfcfcf" d="M 242.5,37.5 C 243.222,37.9175 243.722,38.5842 244,39.5C 245.779,53.5042 247.112,67.5042 248,81.5C 245.696,68.1136 243.196,54.7802 240.5,41.5C 241.18,40.1401 241.847,38.8068 242.5,37.5 Z"/></g>
<g><path style="opacity:1" fill="#c6c6c6" d="M 212.5,61.5 C 214.164,68.2972 214.997,75.2972 215,82.5C 213.013,75.6677 212.18,68.6677 212.5,61.5 Z"/></g>
<g><path style="opacity:1" fill="#dddddd" d="M 312.5,42.5 C 315.312,55.6074 317.645,68.9407 319.5,82.5C 319.523,84.0666 319.023,85.3999 318,86.5C 315.357,72.0254 313.524,57.3587 312.5,42.5 Z"/></g>
<g><path style="opacity:1" fill="#dadada" d="M 262.5,42.5 C 264.011,44.4758 264.844,46.8091 265,49.5C 266.345,60.9294 268.178,72.2628 270.5,83.5C 270.081,84.6721 269.415,85.6721 268.5,86.5C 265.712,71.9528 263.712,57.2861 262.5,42.5 Z"/></g>
<g><path style="opacity:1" fill="#b9b9b9" d="M 395.5,52.5 C 397.357,59.7431 399.357,67.0765 401.5,74.5C 401.192,75.3081 400.692,75.9747 400,76.5C 397.792,68.6279 396.292,60.6279 395.5,52.5 Z"/></g>
<g><path style="opacity:1" fill="#c8c8c8" d="M 357.5,37.5 C 359.117,38.5893 359.95,40.256 360,42.5C 361.697,55.8385 363.03,69.1719 364,82.5C 361.546,68.7368 359.046,54.9035 356.5,41C 356.989,39.8615 357.322,38.6948 357.5,37.5 Z"/></g>
<g><path style="opacity:1" fill="#dadada" d="M 279.5,43.5 C 280.222,43.9175 280.722,44.5842 281,45.5C 282.618,57.8734 284.451,70.2067 286.5,82.5C 286.423,84.299 285.923,85.9656 285,87.5C 282.479,73.0099 280.646,58.3432 279.5,43.5 Z"/></g>
<g><path style="opacity:1" fill="#efefef" d="M 414.5,57.5 C 418.578,58.7019 422.578,60.2019 426.5,62C 419.638,67.8807 415.638,66.3807 414.5,57.5 Z"/></g>
<g><path style="opacity:1" fill="#f0f0f0" d="M 397.5,49.5 C 401.014,50.7838 404.347,52.4505 407.5,54.5C 408.883,58.9342 410.55,63.2676 412.5,67.5C 409.728,69.3904 406.728,71.057 403.5,72.5C 402.914,72.2907 402.414,71.9574 402,71.5C 400.562,64.1412 399.062,56.8079 397.5,49.5 Z"/></g>
<g><path style="opacity:1" fill="#d3d3d3" d="M 308.5,37.5 C 310.109,40.1489 310.943,43.1489 311,46.5C 312.335,58.177 313.335,69.8437 314,81.5C 311.621,67.9556 309.121,54.4556 306.5,41C 307.305,39.8873 307.972,38.7206 308.5,37.5 Z"/></g>
<g><path style="opacity:1" fill="#d2d2d2" d="M 341.5,37.5 C 342.117,37.6107 342.617,37.944 343,38.5C 344.878,52.8213 346.211,67.1546 347,81.5C 344.439,68.0812 342.272,54.5812 340.5,41C 340.648,39.7441 340.982,38.5774 341.5,37.5 Z"/></g>
<g><path style="opacity:1" fill="#bdbdbd" d="M 374.5,37.5 C 375.117,37.6107 375.617,37.944 376,38.5C 377.517,49.1519 378.517,59.8185 379,70.5C 377.462,60.4714 375.295,50.6381 372.5,41C 373.823,40.1841 374.489,39.0174 374.5,37.5 Z"/></g>
<g><path style="opacity:1" fill="#d6d6d6" d="M 225.5,37.5 C 226.725,38.1522 227.392,39.3189 227.5,41C 229.451,54.1232 230.617,67.2898 231,80.5C 229.104,67.6258 226.938,54.7924 224.5,42C 224.773,40.4672 225.106,38.9672 225.5,37.5 Z"/></g>
<g><path style="opacity:1" fill="#d8d8d8" d="M 291.5,37.5 C 293.164,38.9488 293.998,40.9488 294,43.5C 295.604,55.8114 296.604,68.1447 297,80.5C 294.085,66.1771 292.252,51.8437 291.5,37.5 Z"/></g>
<g><path style="opacity:1" fill="#d6d6d6" d="M 258.5,37.5 C 260.117,38.5893 260.95,40.256 261,42.5C 262.533,55.1532 263.533,67.8198 264,80.5C 261.8,67.3357 259.634,54.169 257.5,41C 257.989,39.8615 258.322,38.6948 258.5,37.5 Z"/></g>
<g><path style="opacity:1" fill="#dfdfdf" d="M 324.5,37.5 C 326.117,38.5893 326.95,40.256 327,42.5C 328.598,54.8127 329.598,67.146 330,79.5C 328.123,66.6031 325.957,53.7698 323.5,41C 323.989,39.8615 324.322,38.6948 324.5,37.5 Z"/></g>
<g><path style="opacity:1" fill="#f0f0f0" d="M 381.5,43.5 C 385.614,44.1327 388.781,46.1327 391,49.5C 392.521,57.9429 394.354,66.2762 396.5,74.5C 393.563,76.8126 390.23,78.1459 386.5,78.5C 384.76,66.8417 383.094,55.1751 381.5,43.5 Z"/></g>
<g><path style="opacity:1" fill="#f1f1f1" d="M 378.5,79.5 C 376.721,81.3435 374.388,82.0102 371.5,81.5C 369.174,68.9479 366.841,56.2812 364.5,43.5C 367.321,42.0295 369.821,42.3628 372,44.5C 374.814,56.0532 376.981,67.7198 378.5,79.5 Z"/></g>
<g><path style="opacity:1" fill="#f3f3f3" d="M 360.5,79.5 C 359.082,81.3079 357.082,81.9746 354.5,81.5C 352.502,68.5124 350.502,55.5124 348.5,42.5C 350.833,42.5 353.167,42.5 355.5,42.5C 357.385,54.7969 359.052,67.1302 360.5,79.5 Z"/></g>
<g><path style="opacity:1" fill="#efefef" d="M 331.5,42.5 C 334.394,42.0423 336.894,42.709 339,44.5C 341.162,57.1329 342.995,69.7996 344.5,82.5C 342.208,82.7564 340.041,82.4231 338,81.5C 336.021,68.4443 333.855,55.4443 331.5,42.5 Z"/></g>
<g><path style="opacity:1" fill="#f2f2f2" d="M 327.5,79.5 C 326.082,81.3079 324.082,81.9746 321.5,81.5C 319.256,68.5522 317.256,55.5522 315.5,42.5C 317.792,42.2436 319.959,42.5769 322,43.5C 324.324,55.4219 326.157,67.4219 327.5,79.5 Z"/></g>
<g><path style="opacity:1" fill="#f0f0f0" d="M 298.5,42.5 C 301.394,42.0423 303.894,42.709 306,44.5C 307.943,56.8236 309.776,69.1569 311.5,81.5C 309.167,81.5 306.833,81.5 304.5,81.5C 302.697,68.4608 300.697,55.4608 298.5,42.5 Z"/></g>
<g><path style="opacity:1" fill="#f1f1f1" d="M 294.5,80.5 C 292.735,81.4614 290.735,81.7947 288.5,81.5C 285.929,68.597 283.929,55.597 282.5,42.5C 284.833,42.5 287.167,42.5 289.5,42.5C 291.459,55.1263 293.125,67.793 294.5,80.5 Z"/></g>
<g><path style="opacity:1" fill="#f2f2f2" d="M 265.5,42.5 C 272.026,41.2106 274.86,43.8773 274,50.5C 275.362,60.5358 276.862,70.5358 278.5,80.5C 276.257,81.4742 273.924,81.8076 271.5,81.5C 269.744,68.4519 267.744,55.4519 265.5,42.5 Z"/></g>
<g><path style="opacity:1" fill="#f2f2f2" d="M 261.5,79.5 C 260.082,81.3079 258.082,81.9746 255.5,81.5C 253.093,68.5803 251.093,55.5803 249.5,42.5C 251.792,42.2436 253.959,42.5769 256,43.5C 257.923,55.4789 259.756,67.4789 261.5,79.5 Z"/></g>
<g><path style="opacity:1" fill="#eeeeee" d="M 232.5,42.5 C 234.924,42.1924 237.257,42.5258 239.5,43.5C 241.873,55.7762 243.873,68.1096 245.5,80.5C 243.257,81.4742 240.924,81.8076 238.5,81.5C 236.645,68.4648 234.645,55.4648 232.5,42.5 Z"/></g>
<g><path style="opacity:1" fill="#f6f6f6" d="M 202.5,42.5 C 209.422,42.1878 216.256,42.5212 223,43.5C 225.453,56.0778 227.286,68.7444 228.5,81.5C 226.396,81.7989 224.396,81.4656 222.5,80.5C 221.103,74.5583 219.936,68.5583 219,62.5C 217.654,59.13 215.821,56.13 213.5,53.5C 212.914,53.7093 212.414,54.0426 212,54.5C 209.89,63.2271 210.057,71.8937 212.5,80.5C 209.232,81.487 205.898,81.8204 202.5,81.5C 202.5,68.5 202.5,55.5 202.5,42.5 Z"/></g>
<g><path style="opacity:1" fill="#d7d7d7" d="M 275.5,37.5 C 277.109,40.1489 277.943,43.1489 278,46.5C 279.245,58.1917 280.245,69.8584 281,81.5C 278.608,68.13 276.108,54.7967 273.5,41.5C 274.18,40.1401 274.847,38.8068 275.5,37.5 Z"/></g>
<g><path style="opacity:1" fill="#d6d6d6" d="M 170.5,10.5 C 171.5,10.8333 172.167,11.5 172.5,12.5C 171.167,45.8333 171.167,79.1667 172.5,112.5C 171.994,114.105 171.327,114.439 170.5,113.5C 170.5,79.1667 170.5,44.8333 170.5,10.5 Z"/></g>
<g><path style="opacity:1" fill="#fbfbfb" d="M 172.5,12.5 C 181.8,21.9686 190.967,31.6353 200,41.5C 200.667,55.5 200.667,69.5 200,83.5C 190.967,93.3647 181.8,103.031 172.5,112.5C 171.167,79.1667 171.167,45.8333 172.5,12.5 Z"/></g>
<g><path style="opacity:1" fill="#797979" d="M 327.5,79.5 C 328.404,80.209 328.737,81.209 328.5,82.5C 325.941,82.8016 323.607,82.4682 321.5,81.5C 324.082,81.9746 326.082,81.3079 327.5,79.5 Z"/></g>
<g><path style="opacity:1" fill="#7b7b7b" d="M 360.5,79.5 C 361.404,80.209 361.737,81.209 361.5,82.5C 358.941,82.8016 356.607,82.4682 354.5,81.5C 357.082,81.9746 359.082,81.3079 360.5,79.5 Z"/></g>
<g><path style="opacity:1" fill="#838383" d="M 378.5,79.5 C 379.404,80.209 379.737,81.209 379.5,82.5C 376.615,82.8064 373.948,82.4731 371.5,81.5C 374.388,82.0102 376.721,81.3435 378.5,79.5 Z"/></g>
<g><path style="opacity:1" fill="#dddddd" d="M 345.5,42.5 C 346.887,44.8766 347.721,47.5432 348,50.5C 349.106,61.557 350.606,72.557 352.5,83.5C 352.444,84.737 351.944,85.737 351,86.5C 348.18,71.9673 346.346,57.3006 345.5,42.5 Z"/></g>
<g><path style="opacity:1" fill="#f1f1f1" d="M 57.5,84.5 C 61.8328,83.6853 64.1662,85.352 64.5,89.5C 62.1667,89.5 59.8333,89.5 57.5,89.5C 57.5,87.8333 57.5,86.1667 57.5,84.5 Z"/></g>
</svg>
