<?xml version="1.0" encoding="UTF-8"?>
<!DOCTYPE svg PUBLIC "-//W3C//DTD SVG 1.1//EN" "http://www.w3.org/Graphics/SVG/1.1/DTD/svg11.dtd">
<svg xmlns="http://www.w3.org/2000/svg" version="1.1" width="434px" height="125px" style="shape-rendering:geometricPrecision; text-rendering:geometricPrecision; image-rendering:optimizeQuality; fill-rule:evenodd; clip-rule:evenodd" xmlns:xlink="http://www.w3.org/1999/xlink">
<g><path style="opacity:1" fill="#fbfbfb" d="M 158.5,-0.5 C 250.167,-0.5 341.833,-0.5 433.5,-0.5C 433.5,11.1667 433.5,22.8333 433.5,34.5C 431.574,33.7577 429.741,32.7577 428,31.5C 427.617,32.056 427.117,32.3893 426.5,32.5C 426.167,32.5 425.833,32.5 425.5,32.5C 370.833,32.5 316.167,32.5 261.5,32.5C 258.833,32.5 256.167,32.5 253.5,32.5C 231.167,32.5 208.833,32.5 186.5,32.5C 177.889,22.5526 168.889,12.8859 159.5,3.5C 159.918,2.77842 160.584,2.27842 161.5,2C 160.058,1.62325 159.058,0.789915 158.5,-0.5 Z"/></g>
<g><path style="opacity:1" fill="#2c2c2c" d="M 159.5,3.5 C 168.889,12.8859 177.889,22.5526 186.5,32.5C 186.782,42.2193 186.449,51.8859 185.5,61.5C 184.055,58.0635 183.055,54.3968 182.5,50.5C 182.144,48.8102 181.144,47.8102 179.5,47.5C 179.5,45.5 179.5,43.5 179.5,41.5C 172.5,41.5 165.5,41.5 158.5,41.5C 158.5,44.5 158.5,47.5 158.5,50.5C 165.913,51.1279 172.913,50.4612 179.5,48.5C 180.33,58.3249 180.83,68.3249 181,78.5C 181.41,77.0993 181.91,75.766 182.5,74.5C 182.742,70.521 183.742,66.8544 185.5,63.5C 186.15,65.4352 186.483,67.4352 186.5,69.5C 185.508,69.3284 184.842,69.6618 184.5,70.5C 183.709,75.497 182.376,80.3303 180.5,85C 173.174,85.4997 165.841,85.6663 158.5,85.5C 158.5,84.8333 158.5,84.1667 158.5,83.5C 165.5,83.5 172.5,83.5 179.5,83.5C 179.5,80.5 179.5,77.5 179.5,74.5C 173.5,74.5 167.5,74.5 161.5,74.5C 161.5,73.8333 161.5,73.1667 161.5,72.5C 167.5,72.5 173.5,72.5 179.5,72.5C 179.5,65.8333 179.5,59.1667 179.5,52.5C 172.5,52.5 165.5,52.5 158.5,52.5C 158.5,59.1667 158.5,65.8333 158.5,72.5C 158.053,66.0134 157.053,59.5134 155.5,53C 157.344,50.439 157.844,47.6057 157,44.5C 156.372,47.9535 155.205,48.2869 153.5,45.5C 153.5,31.1667 153.5,16.8333 153.5,2.5C 155.621,2.32526 157.621,2.65859 159.5,3.5 Z"/></g>
<g><path style="opacity:1" fill="#f8f8f8" d="M 158.5,6.5 C 167.465,14.9644 176.298,23.631 185,32.5C 185.667,40.1667 185.667,47.8333 185,55.5C 183.882,50.192 182.382,45.0253 180.5,40C 173.174,39.5003 165.841,39.3337 158.5,39.5C 158.5,28.5 158.5,17.5 158.5,6.5 Z"/></g>
<g><path style="opacity:1" fill="#fcfcfc" d="M -0.5,-0.5 C 52.5,-0.5 105.5,-0.5 158.5,-0.5C 159.058,0.789915 160.058,1.62325 161.5,2C 160.584,2.27842 159.918,2.77842 159.5,3.5C 157.621,2.65859 155.621,2.32526 153.5,2.5C 153.5,16.8333 153.5,31.1667 153.5,45.5C 153.5,71.1667 153.5,96.8333 153.5,122.5C 154.873,122.657 156.207,122.49 157.5,122C 167.167,112.333 176.833,102.667 186.5,93C 266.5,92.6667 346.5,92.3333 426.5,92C 428.041,90.6288 429.375,89.1288 430.5,87.5C 431.662,71.0051 431.828,54.3384 431,37.5C 429.293,35.9625 427.793,34.2959 426.5,32.5C 427.117,32.3893 427.617,32.056 428,31.5C 429.741,32.7577 431.574,33.7577 433.5,34.5C 433.5,64.5 433.5,94.5 433.5,124.5C 288.833,124.5 144.167,124.5 -0.5,124.5C -0.5,82.8333 -0.5,41.1667 -0.5,-0.5 Z"/></g>
<g><path style="opacity:1" fill="#1c1c1c" d="M 186.5,32.5 C 208.833,32.5 231.167,32.5 253.5,32.5C 253.5,32.8333 253.5,33.1667 253.5,33.5C 231.5,33.5 209.5,33.5 187.5,33.5C 187.5,52.8333 187.5,72.1667 187.5,91.5C 210.006,91.8308 232.34,91.4974 254.5,90.5C 255.708,89.7659 257.041,89.4326 258.5,89.5C 260.177,90.4124 262.011,91.0791 264,91.5C 265.385,91.4857 266.551,91.1524 267.5,90.5C 268.404,89.791 268.737,88.791 268.5,87.5C 267.209,87.7373 266.209,87.404 265.5,86.5C 266.492,86.6716 267.158,86.3382 267.5,85.5C 268.496,70.3424 268.83,55.0091 268.5,39.5C 268.833,39.5 269.167,39.5 269.5,39.5C 269.5,54.8333 269.5,70.1667 269.5,85.5C 269.5,86.1667 269.5,86.8333 269.5,87.5C 269.5,88.5 269.5,89.5 269.5,90.5C 321.167,90.5 372.833,90.5 424.5,90.5C 424.737,89.209 424.404,88.209 423.5,87.5C 372.5,86.8333 321.5,86.1667 270.5,85.5C 321.833,85.5 373.167,85.5 424.5,85.5C 424.5,70.1667 424.5,54.8333 424.5,39.5C 424.5,38.8333 424.5,38.1667 424.5,37.5C 424.5,37.1667 424.5,36.8333 424.5,36.5C 425.906,36.9731 426.573,37.9731 426.5,39.5C 425.504,54.6576 425.17,69.9909 425.5,85.5C 426.833,85.5 428.167,85.5 429.5,85.5C 430.338,85.8417 430.672,86.5084 430.5,87.5C 429.375,89.1288 428.041,90.6288 426.5,92C 346.5,92.3333 266.5,92.6667 186.5,93C 176.833,102.667 167.167,112.333 157.5,122C 156.207,122.49 154.873,122.657 153.5,122.5C 153.5,96.8333 153.5,71.1667 153.5,45.5C 155.205,48.2869 156.372,47.9535 157,44.5C 157.844,47.6057 157.344,50.439 155.5,53C 157.053,59.5134 158.053,66.0134 158.5,72.5C 159.5,72.5 160.5,72.5 161.5,72.5C 161.5,73.1667 161.5,73.8333 161.5,74.5C 160.5,74.5 159.5,74.5 158.5,74.5C 158.5,77.5 158.5,80.5 158.5,83.5C 158.5,84.1667 158.5,84.8333 158.5,85.5C 158.333,96.505 158.5,107.505 159,118.5C 168.036,109.632 176.869,100.632 185.5,91.5C 186.492,84.3524 186.825,77.0191 186.5,69.5C 186.483,67.4352 186.15,65.4352 185.5,63.5C 185.5,62.8333 185.5,62.1667 185.5,61.5C 186.449,51.8859 186.782,42.2193 186.5,32.5 Z"/></g>
<g><path style="opacity:1" fill="#fdfdfd" d="M 269.5,87.5 C 320.833,87.5 372.167,87.5 423.5,87.5C 424.404,88.209 424.737,89.209 424.5,90.5C 372.833,90.5 321.167,90.5 269.5,90.5C 269.5,89.5 269.5,88.5 269.5,87.5 Z"/></g>
<g><path style="opacity:1" fill="#3b3b3b" d="M 265.5,86.5 C 266.209,87.404 267.209,87.7373 268.5,87.5C 268.737,88.791 268.404,89.791 267.5,90.5C 266.551,91.1524 265.385,91.4857 264,91.5C 262.011,91.0791 260.177,90.4124 258.5,89.5C 260.649,88.2638 262.982,87.2638 265.5,86.5 Z"/></g>
<g><path style="opacity:1" fill="#eeeeee" d="M 267.5,90.5 C 262.186,90.7606 261.686,90.0939 266,88.5C 267.03,88.8361 267.53,89.5028 267.5,90.5 Z"/></g>
<g><path style="opacity:1" fill="#353535" d="M 269.5,85.5 C 269.833,85.5 270.167,85.5 270.5,85.5C 321.5,86.1667 372.5,86.8333 423.5,87.5C 372.167,87.5 320.833,87.5 269.5,87.5C 269.5,86.8333 269.5,86.1667 269.5,85.5 Z"/></g>
<g><path style="opacity:1" fill="#f7f7f7" d="M 184.5,70.5 C 185.491,77.3134 185.825,84.3134 185.5,91.5C 176.869,100.632 168.036,109.632 159,118.5C 158.5,107.505 158.333,96.505 158.5,85.5C 165.841,85.6663 173.174,85.4997 180.5,85C 182.376,80.3303 183.709,75.497 184.5,70.5 Z"/></g>
<g><path style="opacity:1" fill="#cbcbcb" d="M 269.5,39.5 C 269.833,39.5 270.167,39.5 270.5,39.5C 270.5,54.5 270.5,69.5 270.5,84.5C 321.5,84.5 372.5,84.5 423.5,84.5C 423.5,69.5 423.5,54.5 423.5,39.5C 423.833,39.5 424.167,39.5 424.5,39.5C 424.5,54.8333 424.5,70.1667 424.5,85.5C 373.167,85.5 321.833,85.5 270.5,85.5C 270.167,85.5 269.833,85.5 269.5,85.5C 269.5,70.1667 269.5,54.8333 269.5,39.5 Z"/></g>
<g><path style="opacity:1" fill="#5d5d5d" d="M 184.5,70.5 C 184.842,69.6618 185.508,69.3284 186.5,69.5C 186.825,77.0191 186.492,84.3524 185.5,91.5C 185.825,84.3134 185.491,77.3134 184.5,70.5 Z"/></g>
<g><path style="opacity:1" fill="#212121" d="M 57.5,2.5 C 87.4006,0.524789 108.901,12.8581 122,39.5C 131.908,70.3935 123.742,95.2268 97.5,114C 68.9965,127.997 43.4965,123.83 21,101.5C 2.11906,76.0583 1.78573,50.3916 20,24.5C 30.0722,12.8856 42.5722,5.5523 57.5,2.5 Z"/></g>
<g><path style="opacity:1" fill="#f9f9f9" d="M 161.5,74.5 C 167.5,74.5 173.5,74.5 179.5,74.5C 179.5,77.5 179.5,80.5 179.5,83.5C 172.5,83.5 165.5,83.5 158.5,83.5C 158.5,80.5 158.5,77.5 158.5,74.5C 159.5,74.5 160.5,74.5 161.5,74.5 Z"/></g>
<g><path style="opacity:1" fill="#a4a4a4" d="M 253.5,33.5 C 254.167,33.5 254.5,33.8333 254.5,34.5C 232.5,34.5 210.5,34.5 188.5,34.5C 188.5,53.1667 188.5,71.8333 188.5,90.5C 210.5,90.5 232.5,90.5 254.5,90.5C 232.34,91.4974 210.006,91.8308 187.5,91.5C 187.5,72.1667 187.5,52.8333 187.5,33.5C 209.5,33.5 231.5,33.5 253.5,33.5 Z"/></g>
<g><path style="opacity:1" fill="#f2f2f2" d="M 182.5,50.5 C 183.055,54.3968 184.055,58.0635 185.5,61.5C 185.5,62.1667 185.5,62.8333 185.5,63.5C 183.742,66.8544 182.742,70.521 182.5,74.5C 181.167,66.5 181.167,58.5 182.5,50.5 Z"/></g>
<g><path style="opacity:1" fill="#fafafa" d="M 161.5,72.5 C 160.5,72.5 159.5,72.5 158.5,72.5C 158.5,65.8333 158.5,59.1667 158.5,52.5C 165.5,52.5 172.5,52.5 179.5,52.5C 179.5,59.1667 179.5,65.8333 179.5,72.5C 173.5,72.5 167.5,72.5 161.5,72.5 Z"/></g>
<g><path style="opacity:1" fill="#818181" d="M 179.5,48.5 C 179.5,48.1667 179.5,47.8333 179.5,47.5C 181.144,47.8102 182.144,48.8102 182.5,50.5C 181.167,58.5 181.167,66.5 182.5,74.5C 181.91,75.766 181.41,77.0993 181,78.5C 180.83,68.3249 180.33,58.3249 179.5,48.5 Z"/></g>
<g><path style="opacity:1" fill="#3b3b3b" d="M 266.5,38.5 C 267.492,38.3284 268.158,38.6618 268.5,39.5C 268.83,55.0091 268.496,70.3424 267.5,85.5C 267.817,69.7556 267.484,54.089 266.5,38.5 Z"/></g>
<g><path style="opacity:1" fill="#f7f7f7" d="M 179.5,47.5 C 179.5,47.8333 179.5,48.1667 179.5,48.5C 172.913,50.4612 165.913,51.1279 158.5,50.5C 158.5,47.5 158.5,44.5 158.5,41.5C 165.5,41.5 172.5,41.5 179.5,41.5C 179.5,43.5 179.5,45.5 179.5,47.5 Z"/></g>
<g><path style="opacity:1" fill="#222222" d="M 425.5,32.5 C 425.833,32.5 426.167,32.5 426.5,32.5C 427.793,34.2959 429.293,35.9625 431,37.5C 431.828,54.3384 431.662,71.0051 430.5,87.5C 430.672,86.5084 430.338,85.8417 429.5,85.5C 429.5,70.1667 429.5,54.8333 429.5,39.5C 428.5,39.5 427.5,39.5 426.5,39.5C 426.573,37.9731 425.906,36.9731 424.5,36.5C 424.443,35.391 424.11,34.391 423.5,33.5C 424.492,33.6716 425.158,33.3382 425.5,32.5 Z"/></g>
<g><path style="opacity:1" fill="#e5e5e5" d="M 426.5,39.5 C 427.5,39.5 428.5,39.5 429.5,39.5C 429.5,54.8333 429.5,70.1667 429.5,85.5C 428.167,85.5 426.833,85.5 425.5,85.5C 425.17,69.9909 425.504,54.6576 426.5,39.5 Z"/></g>
<g><path style="opacity:1" fill="#fefefe" d="M 270.5,39.5 C 321.5,39.5 372.5,39.5 423.5,39.5C 423.5,54.5 423.5,69.5 423.5,84.5C 372.5,84.5 321.5,84.5 270.5,84.5C 270.5,69.5 270.5,54.5 270.5,39.5 Z"/></g>
<g><path style="opacity:1" fill="#1c1c1c" d="M 253.5,33.5 C 253.5,33.1667 253.5,32.8333 253.5,32.5C 256.167,32.5 258.833,32.5 261.5,32.5C 261.5,32.8333 261.5,33.1667 261.5,33.5C 260.561,34.3274 260.895,34.9941 262.5,35.5C 263.695,35.6775 264.862,36.0109 266,36.5C 267.03,36.1639 267.53,35.4972 267.5,34.5C 267.5,34.1667 267.5,33.8333 267.5,33.5C 268.167,34.1667 268.833,34.8333 269.5,35.5C 320.823,37.4956 372.489,38.1622 424.5,37.5C 424.5,38.1667 424.5,38.8333 424.5,39.5C 424.167,39.5 423.833,39.5 423.5,39.5C 372.5,39.5 321.5,39.5 270.5,39.5C 270.167,39.5 269.833,39.5 269.5,39.5C 269.167,39.5 268.833,39.5 268.5,39.5C 268.158,38.6618 267.492,38.3284 266.5,38.5C 262.5,37.1667 258.5,35.8333 254.5,34.5C 254.5,33.8333 254.167,33.5 253.5,33.5 Z"/></g>
<g><path style="opacity:1" fill="#e3e3e3" d="M 423.5,33.5 C 424.11,34.391 424.443,35.391 424.5,36.5C 424.5,36.8333 424.5,37.1667 424.5,37.5C 372.489,38.1622 320.823,37.4956 269.5,35.5C 320.489,33.5045 371.822,32.8378 423.5,33.5 Z"/></g>
<g><path style="opacity:1" fill="#eaeaea" d="M 262.5,35.5 C 263.919,34.5489 265.585,34.2155 267.5,34.5C 267.53,35.4972 267.03,36.1639 266,36.5C 264.862,36.0109 263.695,35.6775 262.5,35.5 Z"/></g>
<g><path style="opacity:1" fill="#fefefe" d="M 254.5,34.5 C 258.5,35.8333 262.5,37.1667 266.5,38.5C 267.484,54.089 267.817,69.7556 267.5,85.5C 267.158,86.3382 266.492,86.6716 265.5,86.5C 262.982,87.2638 260.649,88.2638 258.5,89.5C 257.041,89.4326 255.708,89.7659 254.5,90.5C 232.5,90.5 210.5,90.5 188.5,90.5C 188.5,71.8333 188.5,53.1667 188.5,34.5C 210.5,34.5 232.5,34.5 254.5,34.5 Z"/></g>
<g><path style="opacity:1" fill="#8a8a8a" d="M 261.5,33.5 C 263.5,33.5 265.5,33.5 267.5,33.5C 267.5,33.8333 267.5,34.1667 267.5,34.5C 265.585,34.2155 263.919,34.5489 262.5,35.5C 260.895,34.9941 260.561,34.3274 261.5,33.5 Z"/></g>
<g><path style="opacity:1" fill="#020202" d="M 261.5,33.5 C 261.5,33.1667 261.5,32.8333 261.5,32.5C 316.167,32.5 370.833,32.5 425.5,32.5C 425.158,33.3382 424.492,33.6716 423.5,33.5C 371.822,32.8378 320.489,33.5045 269.5,35.5C 268.833,34.8333 268.167,34.1667 267.5,33.5C 265.5,33.5 263.5,33.5 261.5,33.5 Z"/></g>
<g><path style="opacity:1" fill="#fcfcfc" d="M 57.5,4.5 C 93.0533,2.99816 115.22,19.3315 124,53.5C 126.276,82.4581 114.442,103.291 88.5,116C 58.8472,125.752 35.0138,117.919 17,92.5C 2.5707,63.9068 7.0707,38.7401 30.5,17C 38.7214,10.9896 47.7214,6.82292 57.5,4.5 Z"/></g>
<g><path style="opacity:1" fill="#212121" d="M 60.5,39.5 C 77.3458,37.908 87.0125,45.408 89.5,62C 86.8057,80.6937 76.1391,88.0271 57.5,84C 43.3036,75.1097 40.1369,63.2764 48,48.5C 51.651,44.609 55.8176,41.609 60.5,39.5 Z"/></g>
<g><path style="opacity:1" fill="#939393" d="M 76.5,80.5 C 75.6857,82.2726 74.3524,82.7726 72.5,82C 73.745,81.2086 75.0783,80.7086 76.5,80.5 Z"/></g>
<g><path style="opacity:1" fill="#929292" d="M 76.5,80.5 C 77.6653,78.5839 79.332,77.7506 81.5,78C 80.0899,79.3717 78.4233,80.205 76.5,80.5 Z"/></g>
<g><path style="opacity:1" fill="#9c9c9c" d="M 53.5,79.5 C 55.9705,79.0275 58.3038,79.8608 60.5,82C 58.0369,81.7796 55.7035,80.9462 53.5,79.5 Z"/></g>
<g><path style="opacity:1" fill="#fafafa" d="M 65.5,41.5 C 71.8519,44.427 78.0186,47.7604 84,51.5C 84.8313,58.856 84.6646,66.1893 83.5,73.5C 77.9979,77.0855 72.3312,80.4188 66.5,83.5C 60.9109,79.7873 55.0776,76.454 49,73.5C 48.3333,66.1667 48.3333,58.8333 49,51.5C 54.6468,48.2666 60.1468,44.9333 65.5,41.5 Z"/></g>
<g><path style="opacity:1" fill="#929292" d="M 57.5,42.5 C 58.552,42.3505 59.552,42.5172 60.5,43C 57.6228,44.9457 54.6228,46.2791 51.5,47C 53.6838,45.6366 55.6838,44.1366 57.5,42.5 Z"/></g>
<g><path style="opacity:1" fill="#a1a1a1" d="M 73.5,43.5 C 75.2632,42.6655 76.9299,43.1655 78.5,45C 76.7184,45.1218 75.0518,44.6218 73.5,43.5 Z"/></g>
</svg>
